M48
; DRILL file {KiCad 5.1.6} date Tue Jul 21 22:51:04 2020
; FORMAT={-:-/ absolute / inch / decimal}
; #@! TF.CreationDate,2020-07-21T22:51:04-05:00
; #@! TF.GenerationSoftware,Kicad,Pcbnew,5.1.6
; #@! TF.FileFunction,NonPlated,1,2,NPTH
FMAT,2
INCH
T1C0.0669
T2C0.1339
%
G90
G05
T1
X4.0123Y-1.4626
X4.0123Y-1.8957
X5.7839Y-1.4626
X5.7839Y-1.8957
X5.0359Y-2.6437
X5.0359Y-3.0768
X5.1146Y-1.4626
X5.1146Y-1.8957
X4.0123Y-4.4154
X4.0123Y-4.8485
X5.7839Y-2.0532
X5.7839Y-2.4863
X3.4217Y-2.6437
X3.4217Y-3.0768
X5.1146Y-2.0532
X5.1146Y-2.4863
X4.1698Y-3.2343
X4.1698Y-3.6674
X5.1146Y-4.4154
X5.1146Y-4.8485
X3.343Y-1.4626
X3.343Y-1.8957
X2.3587Y-1.5807
X2.7918Y-1.5807
X5.7052Y-2.6437
X5.7052Y-3.0768
X5.7839Y-4.4154
X5.7839Y-4.8485
X4.9572Y-3.2343
X4.9572Y-3.6674
X5.6264Y-3.2343
X5.6264Y-3.6674
X1.6501Y-1.5807
X2.0831Y-1.5807
X3.343Y-3.8248
X3.343Y-4.2579
X7.0438Y-1.5807
X7.4768Y-1.5807
X6.3351Y-1.5807
X6.7682Y-1.5807
X4.0123Y-3.8248
X4.0123Y-4.2579
X3.343Y-2.0532
X3.343Y-2.4863
X3.343Y-4.4154
X3.343Y-4.8485
X0.9414Y-1.5807
X1.3745Y-1.5807
X5.1146Y-3.8248
X5.1146Y-4.2579
X5.7839Y-3.8248
X5.7839Y-4.2579
X7.7524Y-1.5807
X8.1855Y-1.5807
X4.0123Y-2.0532
X4.0123Y-2.4863
X4.091Y-2.6437
X4.091Y-3.0768
X3.5005Y-3.2343
X3.5005Y-3.6674
T2
X3.343Y-2.2697
X3.343Y-4.6319
X1.1579Y-1.5807
X5.1146Y-4.0414
X5.7839Y-4.0414
X7.969Y-1.5807
X4.0123Y-2.2697
X4.091Y-2.8603
X3.5005Y-3.4508
X4.0123Y-1.6792
X5.7839Y-1.6792
X5.0359Y-2.8603
X5.1146Y-1.6792
X4.0123Y-4.6319
X5.7839Y-2.2697
X3.4217Y-2.8603
X5.1146Y-2.2697
X4.1698Y-3.4508
X5.1146Y-4.6319
X3.343Y-1.6792
X2.5753Y-1.5807
X5.7052Y-2.8603
X5.7839Y-4.6319
X4.9572Y-3.4508
X5.6264Y-3.4508
X1.8666Y-1.5807
X3.343Y-4.0414
X7.2603Y-1.5807
X6.5516Y-1.5807
X4.0123Y-4.0414
T0
M30
