G04 #@! TF.GenerationSoftware,KiCad,Pcbnew,5.1.6*
G04 #@! TF.CreationDate,2020-07-21T22:51:07-05:00*
G04 #@! TF.ProjectId,mobile-steno,6d6f6269-6c65-42d7-9374-656e6f2e6b69,rev?*
G04 #@! TF.SameCoordinates,Original*
G04 #@! TF.FileFunction,Copper,L2,Bot*
G04 #@! TF.FilePolarity,Positive*
%FSLAX46Y46*%
G04 Gerber Fmt 4.6, Leading zero omitted, Abs format (unit mm)*
G04 Created by KiCad (PCBNEW 5.1.6) date 2020-07-21 22:51:07*
%MOMM*%
%LPD*%
G01*
G04 APERTURE LIST*
G04 #@! TA.AperFunction,ComponentPad*
%ADD10O,1.700000X1.700000*%
G04 #@! TD*
G04 #@! TA.AperFunction,ComponentPad*
%ADD11R,1.700000X1.700000*%
G04 #@! TD*
G04 #@! TA.AperFunction,ComponentPad*
%ADD12C,2.000000*%
G04 #@! TD*
G04 #@! TA.AperFunction,ComponentPad*
%ADD13C,1.778000*%
G04 #@! TD*
G04 #@! TA.AperFunction,ComponentPad*
%ADD14R,1.778000X1.778000*%
G04 #@! TD*
G04 #@! TA.AperFunction,ViaPad*
%ADD15C,0.800000*%
G04 #@! TD*
G04 #@! TA.AperFunction,Conductor*
%ADD16C,0.508000*%
G04 #@! TD*
G04 #@! TA.AperFunction,Conductor*
%ADD17C,0.254000*%
G04 #@! TD*
G04 APERTURE END LIST*
D10*
X172371740Y-101150780D03*
D11*
X174911740Y-101150780D03*
D12*
X179411740Y-43950780D03*
X184411740Y-46050780D03*
X143111740Y-37650780D03*
X141011740Y-42650780D03*
X143111740Y-52650780D03*
X141011740Y-57650780D03*
X141111740Y-67650780D03*
X139011740Y-72650780D03*
X139111740Y-82650780D03*
X137011740Y-87650780D03*
X143111740Y-97650780D03*
X141011740Y-102650780D03*
X143111740Y-112650780D03*
X141011740Y-117650780D03*
X126111740Y-37650780D03*
X124011740Y-42650780D03*
X126111740Y-52650780D03*
X124011740Y-57650780D03*
X124111740Y-67650780D03*
X122011740Y-72650780D03*
X122111740Y-82650780D03*
X120011740Y-87650780D03*
X126111740Y-97650780D03*
X124011740Y-102650780D03*
X126111740Y-112650780D03*
X124011740Y-117650780D03*
X161411740Y-43950780D03*
X166411740Y-46050780D03*
X197411740Y-43950780D03*
X202411740Y-46050780D03*
X60411740Y-43950780D03*
X65411740Y-46050780D03*
X42411740Y-43950780D03*
X47411740Y-46050780D03*
X24411740Y-43950780D03*
X29411740Y-46050780D03*
X88711740Y-47650780D03*
X90811740Y-42650780D03*
X88711740Y-62650780D03*
X90811740Y-57650780D03*
X90711740Y-77650780D03*
X92811740Y-72650780D03*
X92711740Y-92650780D03*
X94811740Y-87650780D03*
X88711740Y-107650780D03*
X90811740Y-102650780D03*
X88711740Y-122650780D03*
X90811740Y-117650780D03*
X105711740Y-47650780D03*
X107811740Y-42650780D03*
X105711740Y-62650780D03*
X107811740Y-57650780D03*
X107711740Y-77650780D03*
X109811740Y-72650780D03*
X109711740Y-92650780D03*
X111811740Y-87650780D03*
X105711740Y-107650780D03*
X107811740Y-102650780D03*
X105711740Y-122650780D03*
X107811740Y-117650780D03*
G04 #@! TA.AperFunction,SMDPad,CuDef*
G36*
G01*
X175466740Y-58350780D02*
X175166740Y-58350780D01*
G75*
G02*
X175016740Y-58200780I0J150000D01*
G01*
X175016740Y-56900780D01*
G75*
G02*
X175166740Y-56750780I150000J0D01*
G01*
X175466740Y-56750780D01*
G75*
G02*
X175616740Y-56900780I0J-150000D01*
G01*
X175616740Y-58200780D01*
G75*
G02*
X175466740Y-58350780I-150000J0D01*
G01*
G37*
G04 #@! TD.AperFunction*
G04 #@! TA.AperFunction,SMDPad,CuDef*
G36*
G01*
X174196740Y-58350780D02*
X173896740Y-58350780D01*
G75*
G02*
X173746740Y-58200780I0J150000D01*
G01*
X173746740Y-56900780D01*
G75*
G02*
X173896740Y-56750780I150000J0D01*
G01*
X174196740Y-56750780D01*
G75*
G02*
X174346740Y-56900780I0J-150000D01*
G01*
X174346740Y-58200780D01*
G75*
G02*
X174196740Y-58350780I-150000J0D01*
G01*
G37*
G04 #@! TD.AperFunction*
G04 #@! TA.AperFunction,SMDPad,CuDef*
G36*
G01*
X172926740Y-58350780D02*
X172626740Y-58350780D01*
G75*
G02*
X172476740Y-58200780I0J150000D01*
G01*
X172476740Y-56900780D01*
G75*
G02*
X172626740Y-56750780I150000J0D01*
G01*
X172926740Y-56750780D01*
G75*
G02*
X173076740Y-56900780I0J-150000D01*
G01*
X173076740Y-58200780D01*
G75*
G02*
X172926740Y-58350780I-150000J0D01*
G01*
G37*
G04 #@! TD.AperFunction*
G04 #@! TA.AperFunction,SMDPad,CuDef*
G36*
G01*
X171656740Y-58350780D02*
X171356740Y-58350780D01*
G75*
G02*
X171206740Y-58200780I0J150000D01*
G01*
X171206740Y-56900780D01*
G75*
G02*
X171356740Y-56750780I150000J0D01*
G01*
X171656740Y-56750780D01*
G75*
G02*
X171806740Y-56900780I0J-150000D01*
G01*
X171806740Y-58200780D01*
G75*
G02*
X171656740Y-58350780I-150000J0D01*
G01*
G37*
G04 #@! TD.AperFunction*
G04 #@! TA.AperFunction,SMDPad,CuDef*
G36*
G01*
X171656740Y-65550780D02*
X171356740Y-65550780D01*
G75*
G02*
X171206740Y-65400780I0J150000D01*
G01*
X171206740Y-64100780D01*
G75*
G02*
X171356740Y-63950780I150000J0D01*
G01*
X171656740Y-63950780D01*
G75*
G02*
X171806740Y-64100780I0J-150000D01*
G01*
X171806740Y-65400780D01*
G75*
G02*
X171656740Y-65550780I-150000J0D01*
G01*
G37*
G04 #@! TD.AperFunction*
G04 #@! TA.AperFunction,SMDPad,CuDef*
G36*
G01*
X172926740Y-65550780D02*
X172626740Y-65550780D01*
G75*
G02*
X172476740Y-65400780I0J150000D01*
G01*
X172476740Y-64100780D01*
G75*
G02*
X172626740Y-63950780I150000J0D01*
G01*
X172926740Y-63950780D01*
G75*
G02*
X173076740Y-64100780I0J-150000D01*
G01*
X173076740Y-65400780D01*
G75*
G02*
X172926740Y-65550780I-150000J0D01*
G01*
G37*
G04 #@! TD.AperFunction*
G04 #@! TA.AperFunction,SMDPad,CuDef*
G36*
G01*
X174196740Y-65550780D02*
X173896740Y-65550780D01*
G75*
G02*
X173746740Y-65400780I0J150000D01*
G01*
X173746740Y-64100780D01*
G75*
G02*
X173896740Y-63950780I150000J0D01*
G01*
X174196740Y-63950780D01*
G75*
G02*
X174346740Y-64100780I0J-150000D01*
G01*
X174346740Y-65400780D01*
G75*
G02*
X174196740Y-65550780I-150000J0D01*
G01*
G37*
G04 #@! TD.AperFunction*
G04 #@! TA.AperFunction,SMDPad,CuDef*
G36*
G01*
X175466740Y-65550780D02*
X175166740Y-65550780D01*
G75*
G02*
X175016740Y-65400780I0J150000D01*
G01*
X175016740Y-64100780D01*
G75*
G02*
X175166740Y-63950780I150000J0D01*
G01*
X175466740Y-63950780D01*
G75*
G02*
X175616740Y-64100780I0J-150000D01*
G01*
X175616740Y-65400780D01*
G75*
G02*
X175466740Y-65550780I-150000J0D01*
G01*
G37*
G04 #@! TD.AperFunction*
D10*
X93311740Y-38890780D03*
X93311740Y-41430780D03*
X93311740Y-43970780D03*
D11*
X93311740Y-36350780D03*
D10*
X58451740Y-57150780D03*
D11*
X55911740Y-57150780D03*
D13*
X163251740Y-98200780D03*
X163251740Y-95660780D03*
X163251740Y-93120780D03*
X163251740Y-90580780D03*
X163251740Y-88040780D03*
X163251740Y-85500780D03*
X163251740Y-82960780D03*
X163251740Y-80420780D03*
X163251740Y-77880780D03*
X163251740Y-75340780D03*
X163251740Y-72800780D03*
X163251740Y-70260780D03*
X163251740Y-67720780D03*
X163251740Y-65180780D03*
X163251740Y-62640780D03*
D14*
X163251740Y-60100780D03*
D13*
X183571740Y-85500780D03*
D14*
X183571740Y-88040780D03*
D13*
X183571740Y-82960780D03*
X183571740Y-80420780D03*
X183571740Y-77880780D03*
X183571740Y-75340780D03*
X183571740Y-72800780D03*
X183571740Y-70260780D03*
X183571740Y-67720780D03*
X183571740Y-65180780D03*
X183571740Y-62640780D03*
X183571740Y-60100780D03*
D15*
X87911740Y-50150780D03*
X160411740Y-104150780D03*
X158911740Y-102650780D03*
X151411740Y-65650774D03*
X153911740Y-48650780D03*
X156911740Y-50150780D03*
X176911740Y-65150780D03*
X173411740Y-67650780D03*
D16*
X65451740Y-50150780D02*
X87911740Y-50150780D01*
X58451740Y-57150780D02*
X65451740Y-50150780D01*
X171506740Y-82325780D02*
X171506740Y-64650780D01*
X163251740Y-90580780D02*
X171506740Y-82325780D01*
D17*
X160411740Y-90880780D02*
X163251740Y-88040780D01*
X160411740Y-104150780D02*
X160411740Y-90880780D01*
X158911740Y-102650780D02*
X159411740Y-102150780D01*
X159411740Y-89340780D02*
X163251740Y-85500780D01*
X159411740Y-102150780D02*
X159411740Y-89340780D01*
X163251740Y-77880780D02*
X151411740Y-66040780D01*
X151411740Y-66040780D02*
X151411740Y-65650774D01*
X90811740Y-117650780D02*
X90811740Y-102650780D01*
X90811740Y-91650780D02*
X94811740Y-87650780D01*
X90811740Y-102650780D02*
X90811740Y-91650780D01*
X94811740Y-74650780D02*
X92811740Y-72650780D01*
X94811740Y-87650780D02*
X94811740Y-74650780D01*
X92811740Y-59650780D02*
X90811740Y-57650780D01*
X92811740Y-72650780D02*
X92811740Y-59650780D01*
X90811740Y-57650780D02*
X90811740Y-42650780D01*
X186411740Y-80720780D02*
X183571740Y-77880780D01*
X186411740Y-97150780D02*
X186411740Y-80720780D01*
X162411740Y-121150780D02*
X186411740Y-97150780D01*
X94311740Y-121150780D02*
X162411740Y-121150780D01*
X90811740Y-117650780D02*
X94311740Y-121150780D01*
X29411740Y-46050780D02*
X65411740Y-46050780D01*
X166411740Y-46050780D02*
X202411740Y-46050780D01*
X82411740Y-33650780D02*
X159411740Y-33650780D01*
X70011740Y-46050780D02*
X82411740Y-33650780D01*
X163411740Y-43050780D02*
X166411740Y-46050780D01*
X163411740Y-37650780D02*
X163411740Y-43050780D01*
X159411740Y-33650780D02*
X163411740Y-37650780D01*
X65411740Y-46050780D02*
X70011740Y-46050780D01*
X183571740Y-67720780D02*
X186411740Y-64880780D01*
X186411740Y-48050780D02*
X184411740Y-46050780D01*
X186411740Y-64880780D02*
X186411740Y-48050780D01*
X153911740Y-66000780D02*
X163251740Y-75340780D01*
X153911740Y-48650780D02*
X153911740Y-66000780D01*
X107811740Y-42650780D02*
X107811740Y-57650780D01*
X107811740Y-117650780D02*
X107811740Y-102650780D01*
X107811740Y-91650780D02*
X111811740Y-87650780D01*
X107811740Y-102650780D02*
X107811740Y-91650780D01*
X111811740Y-74650780D02*
X109811740Y-72650780D01*
X111811740Y-87650780D02*
X111811740Y-74650780D01*
X109811740Y-59650780D02*
X107811740Y-57650780D01*
X109811740Y-72650780D02*
X109811740Y-59650780D01*
X185411740Y-96650780D02*
X185411740Y-82260780D01*
X185411740Y-82260780D02*
X183571740Y-80420780D01*
X110811740Y-120650780D02*
X161411740Y-120650780D01*
X161411740Y-120650780D02*
X185411740Y-96650780D01*
X107811740Y-117650780D02*
X110811740Y-120650780D01*
D16*
X178411740Y-60645780D02*
X175316740Y-57550780D01*
X178411740Y-80500780D02*
X178411740Y-60645780D01*
X163251740Y-95660780D02*
X178411740Y-80500780D01*
X161411740Y-54650780D02*
X156911740Y-50150780D01*
X173216740Y-54650780D02*
X161411740Y-54650780D01*
X175316740Y-56750780D02*
X173216740Y-54650780D01*
X175316740Y-57550780D02*
X175316740Y-56750780D01*
D17*
X148411740Y-35650780D02*
X96551740Y-35650780D01*
X96551740Y-35650780D02*
X93311740Y-38890780D01*
X165911740Y-53150780D02*
X148411740Y-35650780D01*
X174081740Y-53150780D02*
X165911740Y-53150780D01*
X183571740Y-62640780D02*
X174081740Y-53150780D01*
X175621740Y-52150780D02*
X183571740Y-60100780D01*
X149411740Y-34650780D02*
X166911740Y-52150780D01*
X166911740Y-52150780D02*
X175621740Y-52150780D01*
X95011740Y-34650780D02*
X149411740Y-34650780D01*
X93311740Y-36350780D02*
X95011740Y-34650780D01*
X163251740Y-72800780D02*
X158411740Y-67960780D01*
X158411740Y-67960780D02*
X158411740Y-59650780D01*
X158411740Y-59650780D02*
X162411740Y-55650780D01*
X172776740Y-56750780D02*
X172776740Y-57550780D01*
X171676740Y-55650780D02*
X172776740Y-56750780D01*
X162411740Y-55650780D02*
X171676740Y-55650780D01*
X176511740Y-64750780D02*
X176911740Y-65150780D01*
X175316740Y-64750780D02*
X176511740Y-64750780D01*
X174046740Y-67015780D02*
X173411740Y-67650780D01*
X174046740Y-64750780D02*
X174046740Y-67015780D01*
X163251740Y-70260780D02*
X159911740Y-66920780D01*
X159911740Y-66920780D02*
X159911740Y-59650780D01*
X162011740Y-57550780D02*
X171506740Y-57550780D01*
X159911740Y-59650780D02*
X162011740Y-57550780D01*
X124011740Y-42650780D02*
X124011740Y-57650780D01*
X122011740Y-59650780D02*
X122011740Y-72650780D01*
X124011740Y-57650780D02*
X122011740Y-59650780D01*
X120011740Y-74650780D02*
X122011740Y-72650780D01*
X120011740Y-87650780D02*
X120011740Y-74650780D01*
X124011740Y-91650780D02*
X120011740Y-87650780D01*
X124011740Y-102650780D02*
X124011740Y-91650780D01*
X124011740Y-117650780D02*
X124011740Y-102650780D01*
X181411740Y-77500780D02*
X183571740Y-75340780D01*
X160411740Y-120150780D02*
X181411740Y-99150780D01*
X181411740Y-99150780D02*
X181411740Y-77500780D01*
X126511740Y-120150780D02*
X160411740Y-120150780D01*
X124011740Y-117650780D02*
X126511740Y-120150780D01*
X141011740Y-117650780D02*
X141011740Y-102650780D01*
X141011740Y-91650780D02*
X137011740Y-87650780D01*
X141011740Y-102650780D02*
X141011740Y-91650780D01*
X137011740Y-74650780D02*
X137011740Y-87650780D01*
X139011740Y-72650780D02*
X137011740Y-74650780D01*
X139011740Y-59650780D02*
X141011740Y-57650780D01*
X139011740Y-72650780D02*
X139011740Y-59650780D01*
X141011740Y-57650780D02*
X141011740Y-42650780D01*
X180411740Y-75960780D02*
X183571740Y-72800780D01*
X164911740Y-114150780D02*
X180411740Y-98650780D01*
X144511740Y-114150780D02*
X164911740Y-114150780D01*
X180411740Y-98650780D02*
X180411740Y-75960780D01*
X141011740Y-117650780D02*
X144511740Y-114150780D01*
X174046740Y-58350780D02*
X174046740Y-57550780D01*
X169756740Y-62640780D02*
X174046740Y-58350780D01*
X163251740Y-62640780D02*
X169756740Y-62640780D01*
X172776740Y-63650780D02*
X172776740Y-64750780D01*
X170411740Y-63150780D02*
X172276740Y-63150780D01*
X172276740Y-63150780D02*
X172776740Y-63650780D01*
X168381740Y-65180780D02*
X170411740Y-63150780D01*
X163251740Y-65180780D02*
X168381740Y-65180780D01*
M02*
