G04 #@! TF.GenerationSoftware,KiCad,Pcbnew,5.1.6*
G04 #@! TF.CreationDate,2020-07-22T10:29:56-05:00*
G04 #@! TF.ProjectId,mobile-steno,6d6f6269-6c65-42d7-9374-656e6f2e6b69,rev?*
G04 #@! TF.SameCoordinates,Original*
G04 #@! TF.FileFunction,Legend,Top*
G04 #@! TF.FilePolarity,Positive*
%FSLAX46Y46*%
G04 Gerber Fmt 4.6, Leading zero omitted, Abs format (unit mm)*
G04 Created by KiCad (PCBNEW 5.1.6) date 2020-07-22 10:29:56*
%MOMM*%
%LPD*%
G01*
G04 APERTURE LIST*
%ADD10C,0.120000*%
G04 APERTURE END LIST*
D10*
X176241740Y-99820780D02*
X176241740Y-101150780D01*
X174911740Y-99820780D02*
X176241740Y-99820780D01*
X173641740Y-99820780D02*
X173641740Y-102480780D01*
X173641740Y-102480780D02*
X171041740Y-102480780D01*
X173641740Y-99820780D02*
X171041740Y-99820780D01*
X171041740Y-99820780D02*
X171041740Y-102480780D01*
X164161740Y-34650780D02*
X164161740Y-36650780D01*
X164161740Y-36650780D02*
X168061740Y-36650780D01*
X164161740Y-34650780D02*
X168061740Y-34650780D01*
X182161740Y-34650780D02*
X182161740Y-36650780D01*
X182161740Y-36650780D02*
X186061740Y-36650780D01*
X182161740Y-34650780D02*
X186061740Y-34650780D01*
X200161740Y-34650780D02*
X200161740Y-36650780D01*
X200161740Y-36650780D02*
X204061740Y-36650780D01*
X200161740Y-34650780D02*
X204061740Y-34650780D01*
X63161740Y-34650780D02*
X63161740Y-36650780D01*
X63161740Y-36650780D02*
X67061740Y-36650780D01*
X63161740Y-34650780D02*
X67061740Y-34650780D01*
X45161740Y-34650780D02*
X45161740Y-36650780D01*
X45161740Y-36650780D02*
X49061740Y-36650780D01*
X45161740Y-34650780D02*
X49061740Y-34650780D01*
X27161740Y-34650780D02*
X27161740Y-36650780D01*
X27161740Y-36650780D02*
X31061740Y-36650780D01*
X27161740Y-34650780D02*
X31061740Y-34650780D01*
X129911740Y-46150780D02*
X91911740Y-46150780D01*
X129911740Y-34150780D02*
X129911740Y-46150780D01*
X91911740Y-34150780D02*
X129911740Y-34150780D01*
X91911740Y-46150780D02*
X91911740Y-34150780D01*
X91981740Y-36350780D02*
X91981740Y-35020780D01*
X91981740Y-37620780D02*
X94641740Y-37620780D01*
X94641740Y-37620780D02*
X94641740Y-45300780D01*
X91981740Y-45300780D02*
X94641740Y-45300780D01*
X91981740Y-37620780D02*
X91981740Y-45300780D01*
X91981740Y-35020780D02*
X93311740Y-35020780D01*
X59781740Y-58480780D02*
X59781740Y-55820780D01*
X57181740Y-58480780D02*
X59781740Y-58480780D01*
X57181740Y-55820780D02*
X59781740Y-55820780D01*
X57181740Y-58480780D02*
X57181740Y-55820780D01*
X55911740Y-58480780D02*
X54581740Y-58480780D01*
X54581740Y-58480780D02*
X54581740Y-57150780D01*
M02*
