G04 #@! TF.GenerationSoftware,KiCad,Pcbnew,5.1.6*
G04 #@! TF.CreationDate,2020-07-22T10:29:56-05:00*
G04 #@! TF.ProjectId,mobile-steno,6d6f6269-6c65-42d7-9374-656e6f2e6b69,rev?*
G04 #@! TF.SameCoordinates,Original*
G04 #@! TF.FileFunction,Legend,Bot*
G04 #@! TF.FilePolarity,Positive*
%FSLAX46Y46*%
G04 Gerber Fmt 4.6, Leading zero omitted, Abs format (unit mm)*
G04 Created by KiCad (PCBNEW 5.1.6) date 2020-07-22 10:29:56*
%MOMM*%
%LPD*%
G01*
G04 APERTURE LIST*
%ADD10C,0.300000*%
%ADD11C,0.120000*%
%ADD12C,0.150000*%
G04 APERTURE END LIST*
D10*
X173090311Y-72222208D02*
X174161740Y-72222208D01*
X174376025Y-72150780D01*
X174518882Y-72007922D01*
X174590311Y-71793637D01*
X174590311Y-71650780D01*
X174590311Y-73650780D02*
X174590311Y-72936494D01*
X173090311Y-72936494D01*
X174447454Y-75007922D02*
X174518882Y-74936494D01*
X174590311Y-74722208D01*
X174590311Y-74579351D01*
X174518882Y-74365065D01*
X174376025Y-74222208D01*
X174233168Y-74150780D01*
X173947454Y-74079351D01*
X173733168Y-74079351D01*
X173447454Y-74150780D01*
X173304597Y-74222208D01*
X173161740Y-74365065D01*
X173090311Y-74579351D01*
X173090311Y-74722208D01*
X173161740Y-74936494D01*
X173233168Y-75007922D01*
X173090311Y-76079351D02*
X174161740Y-76079351D01*
X174376025Y-76007922D01*
X174518882Y-75865065D01*
X174590311Y-75650780D01*
X174590311Y-75507922D01*
X174590311Y-77507922D02*
X174590311Y-76793637D01*
X173090311Y-76793637D01*
X174447454Y-78865065D02*
X174518882Y-78793637D01*
X174590311Y-78579351D01*
X174590311Y-78436494D01*
X174518882Y-78222208D01*
X174376025Y-78079351D01*
X174233168Y-78007922D01*
X173947454Y-77936494D01*
X173733168Y-77936494D01*
X173447454Y-78007922D01*
X173304597Y-78079351D01*
X173161740Y-78222208D01*
X173090311Y-78436494D01*
X173090311Y-78579351D01*
X173161740Y-78793637D01*
X173233168Y-78865065D01*
X173090311Y-79936494D02*
X174161740Y-79936494D01*
X174376025Y-79865065D01*
X174518882Y-79722208D01*
X174590311Y-79507922D01*
X174590311Y-79365065D01*
X174590311Y-81365065D02*
X174590311Y-80650780D01*
X173090311Y-80650780D01*
X174447454Y-82722208D02*
X174518882Y-82650780D01*
X174590311Y-82436494D01*
X174590311Y-82293637D01*
X174518882Y-82079351D01*
X174376025Y-81936494D01*
X174233168Y-81865065D01*
X173947454Y-81793637D01*
X173733168Y-81793637D01*
X173447454Y-81865065D01*
X173304597Y-81936494D01*
X173161740Y-82079351D01*
X173090311Y-82293637D01*
X173090311Y-82436494D01*
X173161740Y-82650780D01*
X173233168Y-82722208D01*
X173090311Y-83793637D02*
X174161740Y-83793637D01*
X174376025Y-83722208D01*
X174518882Y-83579351D01*
X174590311Y-83365065D01*
X174590311Y-83222208D01*
X174590311Y-85222208D02*
X174590311Y-84507922D01*
X173090311Y-84507922D01*
X174447454Y-86579351D02*
X174518882Y-86507922D01*
X174590311Y-86293637D01*
X174590311Y-86150780D01*
X174518882Y-85936494D01*
X174376025Y-85793637D01*
X174233168Y-85722208D01*
X173947454Y-85650780D01*
X173733168Y-85650780D01*
X173447454Y-85722208D01*
X173304597Y-85793637D01*
X173161740Y-85936494D01*
X173090311Y-86150780D01*
X173090311Y-86293637D01*
X173161740Y-86507922D01*
X173233168Y-86579351D01*
D11*
X152411740Y-44900780D02*
X150411740Y-44900780D01*
X150411740Y-44900780D02*
X150411740Y-41000780D01*
X152411740Y-44900780D02*
X152411740Y-41000780D01*
X152411740Y-59900780D02*
X150411740Y-59900780D01*
X150411740Y-59900780D02*
X150411740Y-56000780D01*
X152411740Y-59900780D02*
X152411740Y-56000780D01*
X150411740Y-74900780D02*
X148411740Y-74900780D01*
X148411740Y-74900780D02*
X148411740Y-71000780D01*
X150411740Y-74900780D02*
X150411740Y-71000780D01*
X148411740Y-89905781D02*
X146411740Y-89905781D01*
X146411740Y-89905781D02*
X146411740Y-86005781D01*
X148411740Y-89905781D02*
X148411740Y-86005781D01*
X152411740Y-104900780D02*
X150411740Y-104900780D01*
X150411740Y-104900780D02*
X150411740Y-101000780D01*
X152411740Y-104900780D02*
X152411740Y-101000780D01*
X152411740Y-119900780D02*
X150411740Y-119900780D01*
X150411740Y-119900780D02*
X150411740Y-116000780D01*
X152411740Y-119900780D02*
X152411740Y-116000780D01*
X135411740Y-44900780D02*
X133411740Y-44900780D01*
X133411740Y-44900780D02*
X133411740Y-41000780D01*
X135411740Y-44900780D02*
X135411740Y-41000780D01*
X135411740Y-59900780D02*
X133411740Y-59900780D01*
X133411740Y-59900780D02*
X133411740Y-56000780D01*
X135411740Y-59900780D02*
X135411740Y-56000780D01*
X133411740Y-74900780D02*
X131411740Y-74900780D01*
X131411740Y-74900780D02*
X131411740Y-71000780D01*
X133411740Y-74900780D02*
X133411740Y-71000780D01*
X131411740Y-89905781D02*
X129411740Y-89905781D01*
X129411740Y-89905781D02*
X129411740Y-86005781D01*
X131411740Y-89905781D02*
X131411740Y-86005781D01*
X135411740Y-104900780D02*
X133411740Y-104900780D01*
X133411740Y-104900780D02*
X133411740Y-101000780D01*
X135411740Y-104900780D02*
X135411740Y-101000780D01*
X135411740Y-119900780D02*
X133411740Y-119900780D01*
X133411740Y-119900780D02*
X133411740Y-116000780D01*
X135411740Y-119900780D02*
X135411740Y-116000780D01*
X79411740Y-40400780D02*
X81411740Y-40400780D01*
X81411740Y-40400780D02*
X81411740Y-44300780D01*
X79411740Y-40400780D02*
X79411740Y-44300780D01*
X79411740Y-55400780D02*
X81411740Y-55400780D01*
X81411740Y-55400780D02*
X81411740Y-59300780D01*
X79411740Y-55400780D02*
X79411740Y-59300780D01*
X81411740Y-70400780D02*
X83411740Y-70400780D01*
X83411740Y-70400780D02*
X83411740Y-74300780D01*
X81411740Y-70400780D02*
X81411740Y-74300780D01*
X83411740Y-85400780D02*
X85411740Y-85400780D01*
X85411740Y-85400780D02*
X85411740Y-89300780D01*
X83411740Y-85400780D02*
X83411740Y-89300780D01*
X79411740Y-100400780D02*
X81411740Y-100400780D01*
X81411740Y-100400780D02*
X81411740Y-104300780D01*
X79411740Y-100400780D02*
X79411740Y-104300780D01*
X79411740Y-115400780D02*
X81411740Y-115400780D01*
X81411740Y-115400780D02*
X81411740Y-119300780D01*
X79411740Y-115400780D02*
X79411740Y-119300780D01*
X96411740Y-40400780D02*
X98411740Y-40400780D01*
X98411740Y-40400780D02*
X98411740Y-44300780D01*
X96411740Y-40400780D02*
X96411740Y-44300780D01*
X96411740Y-55400780D02*
X98411740Y-55400780D01*
X98411740Y-55400780D02*
X98411740Y-59300780D01*
X96411740Y-55400780D02*
X96411740Y-59300780D01*
X98411740Y-70400780D02*
X100411740Y-70400780D01*
X100411740Y-70400780D02*
X100411740Y-74300780D01*
X98411740Y-70400780D02*
X98411740Y-74300780D01*
X100411740Y-85400780D02*
X102411740Y-85400780D01*
X102411740Y-85400780D02*
X102411740Y-89300780D01*
X100411740Y-85400780D02*
X100411740Y-89300780D01*
X96411740Y-100400780D02*
X98411740Y-100400780D01*
X98411740Y-100400780D02*
X98411740Y-104300780D01*
X96411740Y-100400780D02*
X96411740Y-104300780D01*
X96411740Y-115400780D02*
X98411740Y-115400780D01*
X98411740Y-115400780D02*
X98411740Y-119300780D01*
X96411740Y-115400780D02*
X96411740Y-119300780D01*
X170686740Y-61150780D02*
X170686740Y-58400780D01*
X170686740Y-58400780D02*
X170946740Y-58400780D01*
X170686740Y-61150780D02*
X170686740Y-63900780D01*
X170686740Y-63900780D02*
X170946740Y-63900780D01*
X176136740Y-61150780D02*
X176136740Y-58400780D01*
X176136740Y-58400780D02*
X175876740Y-58400780D01*
X176136740Y-61150780D02*
X176136740Y-63900780D01*
X176136740Y-63900780D02*
X175876740Y-63900780D01*
X175876740Y-63900780D02*
X175876740Y-65550780D01*
D12*
X184841740Y-53750780D02*
X184841740Y-104550780D01*
X161981740Y-53750780D02*
X184841740Y-53750780D01*
X161981740Y-104550780D02*
X161981740Y-53750780D01*
X184841740Y-104550780D02*
X161981740Y-104550780D01*
M02*
