M48
; DRILL file {KiCad 5.1.6} date Wed Jul 29 22:41:54 2020
; FORMAT={-:-/ absolute / inch / decimal}
; #@! TF.CreationDate,2020-07-29T22:41:54-05:00
; #@! TF.GenerationSoftware,Kicad,Pcbnew,5.1.6
; #@! TF.FileFunction,Plated,1,2,PTH
FMAT,2
INCH
T1C0.0157
T2C0.0390
T3C0.0394
T4C0.0472
%
G90
G05
T1
X2.4572Y-4.3366
X2.7131Y-3.7461
X2.8902Y-3.2343
X5.8824Y-2.1713
X6.0398Y-1.9548
X6.0428Y-1.6959
X6.0595Y-4.3366
X6.0989Y-1.9941
X6.69Y-2.5459
X6.8272Y-2.6634
X6.8666Y-2.1713
X6.965Y-2.565
T2
X6.4272Y-2.3662
X6.4272Y-2.4662
X6.4272Y-2.5662
X6.4272Y-2.6662
X6.4272Y-2.7662
X6.4272Y-2.8662
X6.4272Y-2.9662
X6.4272Y-3.0662
X6.4272Y-3.1662
X6.4272Y-3.2662
X6.4272Y-3.3662
X6.4272Y-3.4662
X6.4272Y-3.5662
X6.4272Y-3.6662
X6.4272Y-3.7662
X6.4272Y-3.8662
X7.2272Y-2.3662
X7.2272Y-2.4662
X7.2272Y-2.5662
X7.2272Y-2.6662
X7.2272Y-2.7662
X7.2272Y-2.8662
X7.2272Y-2.9662
X7.2272Y-3.0662
X7.2272Y-3.1662
X7.2272Y-3.2662
X7.2272Y-3.3662
X7.2272Y-3.4662
T3
X6.7863Y-3.9823
X6.8863Y-3.9823
X3.6737Y-1.4311
X3.6737Y-1.5311
X3.6737Y-1.6311
X3.6737Y-1.7311
X2.2012Y-2.25
X2.3012Y-2.25
T4
X7.7721Y-1.7303
X7.969Y-1.813
X4.8824Y-4.0414
X4.965Y-4.2382
X4.1619Y-2.0729
X4.2446Y-2.2697
X3.6501Y-3.254
X3.7327Y-3.4508
X5.5516Y-2.2697
X5.6343Y-2.4666
X4.1619Y-3.8445
X4.2446Y-4.0414
X0.9611Y-1.7303
X1.1579Y-1.813
X5.5516Y-4.6319
X5.6343Y-4.8288
X4.3194Y-3.254
X4.402Y-3.4508
X3.5713Y-2.6634
X3.654Y-2.8603
X5.4729Y-2.8603
X5.5556Y-3.0571
X5.3942Y-3.4508
X5.4768Y-3.6477
X4.8824Y-1.6792
X4.965Y-1.876
X4.1619Y-4.4351
X4.2446Y-4.6319
X4.8824Y-4.6319
X4.965Y-4.8288
X3.4926Y-1.4823
X3.5753Y-1.6792
X4.8036Y-2.8603
X4.8863Y-3.0571
X4.2406Y-2.6634
X4.3233Y-2.8603
X2.3784Y-1.7303
X2.5753Y-1.813
X5.5516Y-4.0414
X5.6343Y-4.2382
X4.8824Y-2.2697
X4.965Y-2.4666
X7.0635Y-1.7303
X7.2603Y-1.813
X4.7249Y-3.4508
X4.8075Y-3.6477
X4.1619Y-1.4823
X4.2446Y-1.6792
X5.5516Y-1.6792
X5.6343Y-1.876
X3.4926Y-2.0729
X3.5753Y-2.2697
X1.6698Y-1.7303
X1.8666Y-1.813
X3.4926Y-4.4351
X3.5753Y-4.6319
X6.3548Y-1.7303
X6.5516Y-1.813
X3.4926Y-3.8445
X3.5753Y-4.0414
T0
M30
