G04 #@! TF.GenerationSoftware,KiCad,Pcbnew,5.1.6*
G04 #@! TF.CreationDate,2020-07-29T22:41:57-05:00*
G04 #@! TF.ProjectId,mobile-steno,6d6f6269-6c65-42d7-9374-656e6f2e6b69,rev?*
G04 #@! TF.SameCoordinates,Original*
G04 #@! TF.FileFunction,Copper,L1,Top*
G04 #@! TF.FilePolarity,Positive*
%FSLAX46Y46*%
G04 Gerber Fmt 4.6, Leading zero omitted, Abs format (unit mm)*
G04 Created by KiCad (PCBNEW 5.1.6) date 2020-07-29 22:41:57*
%MOMM*%
%LPD*%
G01*
G04 APERTURE LIST*
G04 #@! TA.AperFunction,ComponentPad*
%ADD10C,2.000000*%
G04 #@! TD*
G04 #@! TA.AperFunction,ComponentPad*
%ADD11O,1.700000X1.700000*%
G04 #@! TD*
G04 #@! TA.AperFunction,ComponentPad*
%ADD12R,1.700000X1.700000*%
G04 #@! TD*
G04 #@! TA.AperFunction,SMDPad,CuDef*
%ADD13R,0.900000X1.200000*%
G04 #@! TD*
G04 #@! TA.AperFunction,ComponentPad*
%ADD14C,1.778000*%
G04 #@! TD*
G04 #@! TA.AperFunction,ComponentPad*
%ADD15R,1.778000X1.778000*%
G04 #@! TD*
G04 #@! TA.AperFunction,ViaPad*
%ADD16C,0.800000*%
G04 #@! TD*
G04 #@! TA.AperFunction,Conductor*
%ADD17C,0.254000*%
G04 #@! TD*
G04 #@! TA.AperFunction,Conductor*
%ADD18C,0.508000*%
G04 #@! TD*
G04 #@! TA.AperFunction,Conductor*
%ADD19C,0.250000*%
G04 #@! TD*
G04 APERTURE END LIST*
D10*
X88711740Y-37650780D03*
X90811740Y-42650780D03*
X88711740Y-52650780D03*
X90811740Y-57650780D03*
X109711740Y-82650780D03*
X111811740Y-87650780D03*
X197411740Y-43950780D03*
X202411740Y-46050780D03*
X143111740Y-122650780D03*
X141011740Y-117650780D03*
X88711740Y-112650780D03*
X90811740Y-117650780D03*
D11*
X172371740Y-101150780D03*
D12*
X174911740Y-101150780D03*
D10*
X126111740Y-62650780D03*
X124011740Y-57650780D03*
X161411740Y-43950780D03*
X166411740Y-46050780D03*
X179411740Y-43950780D03*
X184411740Y-46050780D03*
X60411740Y-43950780D03*
X65411740Y-46050780D03*
X42411740Y-43950780D03*
X47411740Y-46050780D03*
X24411740Y-43950780D03*
X29411740Y-46050780D03*
X143111740Y-47650780D03*
X141011740Y-42650780D03*
X143111740Y-62650780D03*
X141011740Y-57650780D03*
X141111740Y-77650780D03*
X139011740Y-72650780D03*
X139111740Y-92650780D03*
X137011740Y-87650780D03*
X143111740Y-107650780D03*
X141011740Y-102650780D03*
X126111740Y-47650780D03*
X124011740Y-42650780D03*
X124111740Y-77650780D03*
X122011740Y-72650780D03*
X122111740Y-92650780D03*
X120011740Y-87650780D03*
X126111740Y-107650780D03*
X124011740Y-102650780D03*
X126111740Y-122650780D03*
X124011740Y-117650780D03*
X90711740Y-67650780D03*
X92811740Y-72650780D03*
X92711740Y-82650780D03*
X94811740Y-87650780D03*
X88711740Y-97650780D03*
X90811740Y-102650780D03*
X105711740Y-37650780D03*
X107811740Y-42650780D03*
X105711740Y-52650780D03*
X107811740Y-57650780D03*
X107711740Y-67650780D03*
X109811740Y-72650780D03*
X105711740Y-97650780D03*
X107811740Y-102650780D03*
X105711740Y-112650780D03*
X107811740Y-117650780D03*
D13*
X168061740Y-35650780D03*
X164761740Y-35650780D03*
X186061740Y-35650780D03*
X182761740Y-35650780D03*
X204061740Y-35650780D03*
X200761740Y-35650780D03*
X67061740Y-35650780D03*
X63761740Y-35650780D03*
X49061740Y-35650780D03*
X45761740Y-35650780D03*
X31061740Y-35650780D03*
X27761740Y-35650780D03*
D11*
X93311740Y-38890780D03*
X93311740Y-41430780D03*
X93311740Y-43970780D03*
D12*
X93311740Y-36350780D03*
D11*
X58451740Y-57150780D03*
D12*
X55911740Y-57150780D03*
D14*
X163251740Y-98200780D03*
X163251740Y-95660780D03*
X163251740Y-93120780D03*
X163251740Y-90580780D03*
X163251740Y-88040780D03*
X163251740Y-85500780D03*
X163251740Y-82960780D03*
X163251740Y-80420780D03*
X163251740Y-77880780D03*
X163251740Y-75340780D03*
X163251740Y-72800780D03*
X163251740Y-70260780D03*
X163251740Y-67720780D03*
X163251740Y-65180780D03*
X163251740Y-62640780D03*
D15*
X163251740Y-60100780D03*
D14*
X183571740Y-85500780D03*
D15*
X183571740Y-88040780D03*
D14*
X183571740Y-82960780D03*
X183571740Y-80420780D03*
X183571740Y-77880780D03*
X183571740Y-75340780D03*
X183571740Y-72800780D03*
X183571740Y-70260780D03*
X183571740Y-67720780D03*
X183571740Y-65180780D03*
X183571740Y-62640780D03*
X183571740Y-60100780D03*
D16*
X169925807Y-64664847D03*
X154911712Y-50650780D03*
X62411740Y-110150780D03*
X68911740Y-95150780D03*
X73411740Y-82150780D03*
X149411740Y-55150780D03*
X153486740Y-43075780D03*
X153911740Y-110150780D03*
X153411740Y-49650780D03*
X174411740Y-55150780D03*
X176911740Y-65150780D03*
X173411740Y-67650780D03*
D17*
X24411740Y-43950780D02*
X25911740Y-42450780D01*
X25911740Y-37500780D02*
X27761740Y-35650780D01*
X25911740Y-42450780D02*
X25911740Y-37500780D01*
X42411740Y-43950780D02*
X43911740Y-42450780D01*
X43911740Y-37500780D02*
X45761740Y-35650780D01*
X43911740Y-42450780D02*
X43911740Y-37500780D01*
X60411740Y-43950780D02*
X61911740Y-42450780D01*
X61911740Y-37500780D02*
X63761740Y-35650780D01*
X61911740Y-42450780D02*
X61911740Y-37500780D01*
X197411740Y-43950780D02*
X198911740Y-42450780D01*
X198911740Y-37500780D02*
X200761740Y-35650780D01*
X198911740Y-42450780D02*
X198911740Y-37500780D01*
X179411740Y-43950780D02*
X180911740Y-42450780D01*
X180911740Y-37500780D02*
X182761740Y-35650780D01*
X180911740Y-42450780D02*
X180911740Y-37500780D01*
X161411740Y-43950780D02*
X162911740Y-42450780D01*
X162911740Y-37500780D02*
X164761740Y-35650780D01*
X162911740Y-42450780D02*
X162911740Y-37500780D01*
D18*
X172371740Y-99700780D02*
X163251740Y-90580780D01*
X172371740Y-101150780D02*
X172371740Y-99700780D01*
X169925807Y-64664847D02*
X169925807Y-63664847D01*
X169925807Y-63664847D02*
X156911740Y-50650780D01*
X156911740Y-50650780D02*
X154911712Y-50650780D01*
D19*
X48411740Y-96150780D02*
X62411740Y-110150780D01*
X48411740Y-57150780D02*
X48411740Y-96150780D01*
X32411740Y-41150780D02*
X48411740Y-57150780D01*
X32411740Y-37000780D02*
X32411740Y-41150780D01*
X31061740Y-35650780D02*
X32411740Y-37000780D01*
X49061740Y-35650780D02*
X50411740Y-37000780D01*
X50411740Y-76650780D02*
X68911740Y-95150780D01*
X50411740Y-37000780D02*
X50411740Y-76650780D01*
X67061740Y-35650780D02*
X68411740Y-37000780D01*
X68411740Y-77150780D02*
X73411740Y-82150780D01*
X68411740Y-37000780D02*
X68411740Y-77150780D01*
X174911740Y-68760780D02*
X163251740Y-80420780D01*
X174911740Y-58650780D02*
X174911740Y-68760780D01*
X199911740Y-33650780D02*
X174911740Y-58650780D01*
X202061740Y-33650780D02*
X199911740Y-33650780D01*
X204061740Y-35650780D02*
X202061740Y-33650780D01*
D17*
X152411740Y-48150780D02*
X149411740Y-51150780D01*
X167411740Y-48150780D02*
X152411740Y-48150780D01*
X149411740Y-51150780D02*
X149411740Y-55150780D01*
X181911740Y-33650780D02*
X167411740Y-48150780D01*
X184061740Y-33650780D02*
X181911740Y-33650780D01*
X186061740Y-35650780D02*
X184061740Y-33650780D01*
D19*
X90811740Y-117650780D02*
X90811740Y-102650780D01*
X94811740Y-98650780D02*
X90811740Y-102650780D01*
X94811740Y-87650780D02*
X94811740Y-98650780D01*
X94811740Y-74650780D02*
X92811740Y-72650780D01*
X94811740Y-87650780D02*
X94811740Y-74650780D01*
X92811740Y-59650780D02*
X90811740Y-57650780D01*
X92811740Y-72650780D02*
X92811740Y-59650780D01*
X90811740Y-57650780D02*
X90811740Y-42650780D01*
D17*
X186911740Y-100650780D02*
X186911740Y-81220780D01*
X166411740Y-121150780D02*
X186911740Y-100650780D01*
X94311740Y-121150780D02*
X166411740Y-121150780D01*
X186911740Y-81220780D02*
X183571740Y-77880780D01*
X90811740Y-117650780D02*
X94311740Y-121150780D01*
D19*
X168061740Y-35650780D02*
X166061740Y-33650780D01*
X162911740Y-33650780D02*
X153486740Y-43075780D01*
X166061740Y-33650780D02*
X162911740Y-33650780D01*
X107811740Y-117650780D02*
X107811740Y-102650780D01*
X111811740Y-74650780D02*
X109811740Y-72650780D01*
X111811740Y-87650780D02*
X111811740Y-74650780D01*
X109811740Y-59650780D02*
X107811740Y-57650780D01*
X109811740Y-72650780D02*
X109811740Y-59650780D01*
X107811740Y-57650780D02*
X107811740Y-42650780D01*
X111811740Y-98650780D02*
X111811740Y-87650780D01*
X107811740Y-102650780D02*
X111811740Y-98650780D01*
D17*
X185911740Y-82760780D02*
X183571740Y-80420780D01*
X185911740Y-100150780D02*
X185911740Y-82760780D01*
X165411740Y-120650780D02*
X185911740Y-100150780D01*
X110811740Y-120650780D02*
X165411740Y-120650780D01*
X107811740Y-117650780D02*
X110811740Y-120650780D01*
D18*
X165911740Y-110150780D02*
X174911740Y-101150780D01*
X153911740Y-110150780D02*
X165911740Y-110150780D01*
X168911740Y-49650780D02*
X174411740Y-55150780D01*
X153411740Y-49650780D02*
X168911740Y-49650780D01*
D17*
X183541740Y-65150780D02*
X183571740Y-65180780D01*
X176911740Y-65150780D02*
X183541740Y-65150780D01*
X163321740Y-67650780D02*
X163251740Y-67720780D01*
X173411740Y-67650780D02*
X163321740Y-67650780D01*
D19*
X124011740Y-117650780D02*
X124011740Y-102650780D01*
X120011740Y-98650780D02*
X120011740Y-87650780D01*
X124011740Y-102650780D02*
X120011740Y-98650780D01*
X120011740Y-74650780D02*
X122011740Y-72650780D01*
X120011740Y-87650780D02*
X120011740Y-74650780D01*
X122011740Y-59650780D02*
X124011740Y-57650780D01*
X122011740Y-72650780D02*
X122011740Y-59650780D01*
X124011740Y-57650780D02*
X124011740Y-42650780D01*
D17*
X124011740Y-117650780D02*
X126511740Y-120150780D01*
X126511740Y-120150780D02*
X164553808Y-120150780D01*
X164553808Y-120150780D02*
X181411740Y-103292848D01*
X181411740Y-103292848D02*
X181411740Y-77500780D01*
X181411740Y-77500780D02*
X183571740Y-75340780D01*
D19*
X141011740Y-117650780D02*
X141011740Y-102650780D01*
X137011740Y-98650780D02*
X137011740Y-87650780D01*
X141011740Y-102650780D02*
X137011740Y-98650780D01*
X137011740Y-74650780D02*
X139011740Y-72650780D01*
X137011740Y-87650780D02*
X137011740Y-74650780D01*
X139011740Y-59650780D02*
X141011740Y-57650780D01*
X139011740Y-72650780D02*
X139011740Y-59650780D01*
X141011740Y-57650780D02*
X141011740Y-42650780D01*
D17*
X141011740Y-117650780D02*
X144011740Y-114650780D01*
X144011740Y-114650780D02*
X168411740Y-114650780D01*
X168411740Y-114650780D02*
X180411740Y-102650780D01*
X180411740Y-102650780D02*
X180411740Y-75960780D01*
X180411740Y-75960780D02*
X183571740Y-72800780D01*
M02*
