M48
; DRILL file {KiCad 5.1.6} date Tue Oct 20 23:03:37 2020
; FORMAT={-:-/ absolute / inch / decimal}
; #@! TF.CreationDate,2020-10-20T23:03:37-05:00
; #@! TF.GenerationSoftware,Kicad,Pcbnew,5.1.6
; #@! TF.FileFunction,Plated,1,2,PTH
FMAT,2
INCH
T1C0.0157
T2C0.0394
T3C0.0472
%
G90
G05
T1
X2.8546Y-3.9646
X3.1036Y-2.9479
X3.5021Y-4.1385
X3.7015Y-3.3958
X4.1496Y-4.3124
X4.3739Y-3.6195
X4.9409Y-5.2165
X5.1181Y-3.2874
X5.1575Y-4.3307
X5.3346Y-3.9173
X5.4528Y-4.0241
X5.4618Y-4.7079
X5.4724Y-4.2323
X5.4724Y-4.2718
X5.4921Y-4.4488
X5.5321Y-4.4495
X5.5421Y-3.937
X5.5512Y-3.878
X5.5996Y-3.937
X5.5996Y-4.4488
X5.6289Y-5.0644
X5.6299Y-4.8031
X5.6496Y-3.7598
X5.6693Y-4.1929
X5.6918Y-4.446
X5.7062Y-3.0709
X5.748Y-3.8583
X5.7494Y-4.6668
X5.7677Y-4.9803
X5.7907Y-4.6292
X5.8213Y-4.592
X5.8539Y-4.5547
X5.8715Y-4.878
X5.8858Y-4.0945
X5.8861Y-4.5172
X5.9137Y-4.48
X5.9449Y-3.0709
X5.9449Y-3.8583
X6.0433Y-4.9016
X6.1024Y-3.7598
X6.1417Y-4.3282
X6.2008Y-5.1969
X6.2992Y-3.8976
X6.3386Y-4.3307
X6.378Y-4.7435
X6.3976Y-4.7836
X6.4173Y-4.8228
X6.4567Y-4.0945
X6.4961Y-3.2874
X6.7913Y-5.2165
X6.8582Y-4.4177
X6.9685Y-3.4252
X7.543Y-4.2314
X8.2279Y-4.045
X9.2189Y-2.9893
X10.115Y-3.438
X10.7875Y-3.2143
T2
X5.3965Y-5.3375
X5.4965Y-5.3375
X5.5965Y-5.3375
X5.6965Y-5.3375
X5.7965Y-5.3375
X5.8965Y-5.3375
X5.9965Y-5.3375
X6.0965Y-5.3375
X6.1965Y-5.3375
X6.2965Y-5.3375
T3
X1.6512Y-3.029
X1.8119Y-3.1696
X3.8922Y-3.0276
X4.0529Y-3.1682
X4.1035Y-2.3925
X4.2642Y-2.5331
X10.0474Y-3.029
X10.2603Y-3.0453
X2.7586Y-1.9452
X2.9193Y-2.0858
X6.9228Y-2.6162
X7.1356Y-2.6326
X7.7309Y-4.4842
X7.9437Y-4.5005
X7.134Y-3.2513
X7.3469Y-3.2676
X8.4043Y-2.5798
X8.6172Y-2.5961
X3.2943Y-2.5798
X3.455Y-2.7204
X3.2955Y-4.2607
X3.4562Y-4.4013
X8.94Y-1.9452
X9.1529Y-1.9615
X7.8064Y-3.0276
X8.0193Y-3.0439
X4.6404Y-4.708
X4.8011Y-4.8486
X8.4033Y-4.2605
X8.6162Y-4.2769
X3.5056Y-1.9447
X3.6663Y-2.0853
X9.8362Y-2.3939
X10.0491Y-2.4102
X1.8625Y-2.3939
X2.0232Y-2.5345
X1.1901Y-2.1702
X1.3508Y-2.3108
X10.5086Y-2.1702
X10.7215Y-2.1866
X9.1513Y-2.5803
X9.3642Y-2.5966
X4.5645Y-3.2511
X4.7252Y-3.3917
X2.5474Y-2.5802
X2.708Y-2.7208
X3.968Y-4.4844
X4.1287Y-4.6249
X7.5952Y-2.3926
X7.8081Y-2.4089
X8.1931Y-1.9447
X8.4059Y-1.961
X7.0584Y-4.7079
X7.2713Y-4.7242
X10.7199Y-2.8053
X10.9327Y-2.8216
X4.7759Y-2.6162
X4.9366Y-2.7568
X0.9788Y-2.8053
X1.1395Y-2.9459
T0
M30
