M48
; DRILL file {KiCad 5.1.5} date Thu 14 May 2020 05:03:44 PM CDT
; FORMAT={-:-/ absolute / inch / decimal}
; #@! TF.CreationDate,2020-05-14T17:03:44-05:00
; #@! TF.GenerationSoftware,Kicad,Pcbnew,5.1.5
; #@! TF.FileFunction,NonPlated,1,2,NPTH
FMAT,2
INCH
T1C0.0669
T2C0.1339
%
G90
G05
T1
X6.7024Y-3.8343
X7.1093Y-3.6862
X7.4266Y-2.154
X7.8335Y-2.0059
X4.5876Y-3.6862
X4.9946Y-3.8344
X6.7607Y-2.3964
X7.1676Y-2.2483
X8.7584Y-1.6693
X9.1654Y-1.5211
X2.8392Y-0.8921
X3.2462Y-1.0402
X7.1977Y-1.5251
X7.6046Y-1.377
X6.5317Y-1.7675
X6.9387Y-1.6193
X10.3327Y-1.8504
X10.7396Y-1.7023
X3.5859Y-0.9125
X3.9929Y-1.0606
X7.7828Y-1.0607
X8.1898Y-0.9126
X9.6667Y-2.0928
X10.0737Y-1.9447
X1.702Y-1.9446
X2.1089Y-2.0927
X4.171Y-1.3769
X4.578Y-1.525
X3.9421Y-2.0058
X4.3491Y-2.1539
X2.6103Y-1.521
X3.0172Y-1.6692
X3.357Y-1.5414
X3.764Y-1.6896
X9.4378Y-1.4639
X9.8448Y-1.3158
X1.9309Y-1.3157
X2.3378Y-1.4638
X7.3683Y-3.5919
X7.7752Y-3.4438
X8.0117Y-1.6897
X8.4187Y-1.5415
X4.837Y-1.6192
X5.2439Y-1.7674
X8.0342Y-3.3495
X8.4412Y-3.2014
X8.5295Y-1.0403
X8.9365Y-0.8922
X10.1037Y-1.2215
X10.5107Y-1.0734
X3.9217Y-3.4439
X4.3286Y-3.592
X4.6079Y-2.248
X5.0149Y-2.3961
X3.2558Y-3.2015
X3.6627Y-3.3496
T2
X6.9058Y-3.7602
X7.6301Y-2.08
X4.7911Y-3.7603
X6.9641Y-2.3223
X8.9619Y-1.5952
X3.0427Y-0.9662
X7.4011Y-1.451
X6.7352Y-1.6934
X10.5361Y-1.7764
X3.7894Y-0.9866
X7.9863Y-0.9867
X9.8702Y-2.0188
X1.9055Y-2.0186
X4.3745Y-1.4509
X4.1456Y-2.0799
X2.8138Y-1.5951
X3.5605Y-1.6155
X9.6413Y-1.3898
X2.1344Y-1.3897
X7.5718Y-3.5179
X8.2152Y-1.6156
X5.0404Y-1.6933
X8.2377Y-3.2755
X8.733Y-0.9663
X10.3072Y-1.1474
X4.1252Y-3.5179
X4.8114Y-2.322
X3.4592Y-3.2756
T0
M30
