M48
; DRILL file {KiCad 5.1.6} date Sun Jun 14 17:46:00 2020
; FORMAT={-:-/ absolute / inch / decimal}
; #@! TF.CreationDate,2020-06-14T17:46:00-05:00
; #@! TF.GenerationSoftware,Kicad,Pcbnew,5.1.6
; #@! TF.FileFunction,NonPlated,1,2,NPTH
FMAT,2
INCH
T1C0.0669
T2C0.1339
%
G90
G05
T1
X7.8041Y-2.0409
X8.2151Y-1.9042
X7.4175Y-3.1238
X7.8285Y-2.9871
X2.2234Y-2.3534
X2.6344Y-2.4901
X7.2063Y-2.4887
X7.6172Y-2.352
X8.5511Y-2.0413
X8.9621Y-1.9046
X2.9083Y-2.5398
X3.3192Y-2.6765
X4.9453Y-4.6489
X5.3562Y-4.7856
X4.2729Y-4.4252
X4.6838Y-4.5619
X9.4473Y-2.4901
X9.8582Y-2.3534
X2.0122Y-2.9885
X2.4231Y-3.1252
X3.6004Y-4.2015
X4.0114Y-4.3382
X5.1368Y-2.5758
X5.5478Y-2.7125
X6.7451Y-3.3475
X7.156Y-3.2108
X4.4644Y-2.3521
X4.8753Y-2.4888
X6.7255Y-4.7854
X7.1365Y-4.6487
X7.398Y-4.5617
X7.8089Y-4.4251
X4.9255Y-3.2107
X5.3364Y-3.3474
X9.6585Y-3.1252
X10.0694Y-2.9885
X4.2532Y-2.9871
X4.6641Y-3.1238
X3.8665Y-1.9042
X4.2775Y-2.0409
X10.1197Y-2.2664
X10.5306Y-2.1297
X8.0154Y-2.676
X8.4263Y-2.5393
X3.6553Y-2.5393
X4.0662Y-2.676
X3.1195Y-1.9047
X3.5305Y-2.0414
X1.551Y-2.1297
X1.9619Y-2.2664
X1.3397Y-2.7648
X1.7507Y-2.9015
X10.3309Y-2.9015
X10.7419Y-2.7648
X8.0704Y-4.3381
X8.4813Y-4.2014
X6.5338Y-2.7124
X6.9448Y-2.5757
X8.7624Y-2.6764
X9.1733Y-2.5397
T2
X8.0096Y-1.9725
X7.623Y-3.0554
X2.4289Y-2.4218
X7.4117Y-2.4204
X8.7566Y-1.973
X3.1138Y-2.6081
X5.1508Y-4.7173
X4.4783Y-4.4936
X9.6527Y-2.4217
X2.2176Y-3.0569
X3.8059Y-4.2699
X5.3423Y-2.6441
X6.9506Y-3.2791
X4.6699Y-2.4204
X6.931Y-4.7171
X7.6034Y-4.4934
X5.1309Y-3.279
X9.864Y-3.0568
X4.4586Y-3.0555
X4.072Y-1.9726
X10.3251Y-2.1981
X8.2209Y-2.6076
X3.8607Y-2.6077
X3.325Y-1.973
X1.7565Y-2.1981
X1.5452Y-2.8332
X10.5364Y-2.8331
X8.2759Y-4.2697
X6.7393Y-2.6441
X8.9679Y-2.6081
T0
M30
