G04 #@! TF.GenerationSoftware,KiCad,Pcbnew,5.1.8*
G04 #@! TF.CreationDate,2021-02-14T21:35:46-06:00*
G04 #@! TF.ProjectId,steno,7374656e-6f2e-46b6-9963-61645f706362,rev?*
G04 #@! TF.SameCoordinates,Original*
G04 #@! TF.FileFunction,Soldermask,Bot*
G04 #@! TF.FilePolarity,Negative*
%FSLAX46Y46*%
G04 Gerber Fmt 4.6, Leading zero omitted, Abs format (unit mm)*
G04 Created by KiCad (PCBNEW 5.1.8) date 2021-02-14 21:35:46*
%MOMM*%
%LPD*%
G01*
G04 APERTURE LIST*
%ADD10C,1.102000*%
%ADD11C,1.802000*%
%ADD12C,2.102000*%
%ADD13C,3.502000*%
%ADD14C,0.100000*%
G04 APERTURE END LIST*
D10*
X165263069Y-130361962D03*
X165263069Y-83861962D03*
X128263069Y-83861962D03*
G36*
G01*
X152214069Y-116661962D02*
X152214069Y-121661962D01*
G75*
G02*
X152163069Y-121712962I-51000J0D01*
G01*
X151763069Y-121712962D01*
G75*
G02*
X151712069Y-121661962I0J51000D01*
G01*
X151712069Y-116661962D01*
G75*
G02*
X151763069Y-116610962I51000J0D01*
G01*
X152163069Y-116610962D01*
G75*
G02*
X152214069Y-116661962I0J-51000D01*
G01*
G37*
G36*
G01*
X151414069Y-116661962D02*
X151414069Y-121661962D01*
G75*
G02*
X151363069Y-121712962I-51000J0D01*
G01*
X150963069Y-121712962D01*
G75*
G02*
X150912069Y-121661962I0J51000D01*
G01*
X150912069Y-116661962D01*
G75*
G02*
X150963069Y-116610962I51000J0D01*
G01*
X151363069Y-116610962D01*
G75*
G02*
X151414069Y-116661962I0J-51000D01*
G01*
G37*
G36*
G01*
X150614069Y-116661962D02*
X150614069Y-121661962D01*
G75*
G02*
X150563069Y-121712962I-51000J0D01*
G01*
X150163069Y-121712962D01*
G75*
G02*
X150112069Y-121661962I0J51000D01*
G01*
X150112069Y-116661962D01*
G75*
G02*
X150163069Y-116610962I51000J0D01*
G01*
X150563069Y-116610962D01*
G75*
G02*
X150614069Y-116661962I0J-51000D01*
G01*
G37*
G36*
G01*
X149814069Y-116661962D02*
X149814069Y-121661962D01*
G75*
G02*
X149763069Y-121712962I-51000J0D01*
G01*
X149363069Y-121712962D01*
G75*
G02*
X149312069Y-121661962I0J51000D01*
G01*
X149312069Y-116661962D01*
G75*
G02*
X149363069Y-116610962I51000J0D01*
G01*
X149763069Y-116610962D01*
G75*
G02*
X149814069Y-116661962I0J-51000D01*
G01*
G37*
G36*
G01*
X149014069Y-116661962D02*
X149014069Y-121661962D01*
G75*
G02*
X148963069Y-121712962I-51000J0D01*
G01*
X148563069Y-121712962D01*
G75*
G02*
X148512069Y-121661962I0J51000D01*
G01*
X148512069Y-116661962D01*
G75*
G02*
X148563069Y-116610962I51000J0D01*
G01*
X148963069Y-116610962D01*
G75*
G02*
X149014069Y-116661962I0J-51000D01*
G01*
G37*
G36*
G01*
X148214069Y-116661962D02*
X148214069Y-121661962D01*
G75*
G02*
X148163069Y-121712962I-51000J0D01*
G01*
X147763069Y-121712962D01*
G75*
G02*
X147712069Y-121661962I0J51000D01*
G01*
X147712069Y-116661962D01*
G75*
G02*
X147763069Y-116610962I51000J0D01*
G01*
X148163069Y-116610962D01*
G75*
G02*
X148214069Y-116661962I0J-51000D01*
G01*
G37*
G36*
G01*
X147414069Y-116661962D02*
X147414069Y-121661962D01*
G75*
G02*
X147363069Y-121712962I-51000J0D01*
G01*
X146963069Y-121712962D01*
G75*
G02*
X146912069Y-121661962I0J51000D01*
G01*
X146912069Y-116661962D01*
G75*
G02*
X146963069Y-116610962I51000J0D01*
G01*
X147363069Y-116610962D01*
G75*
G02*
X147414069Y-116661962I0J-51000D01*
G01*
G37*
G36*
G01*
X146614069Y-116661962D02*
X146614069Y-121661962D01*
G75*
G02*
X146563069Y-121712962I-51000J0D01*
G01*
X146163069Y-121712962D01*
G75*
G02*
X146112069Y-121661962I0J51000D01*
G01*
X146112069Y-116661962D01*
G75*
G02*
X146163069Y-116610962I51000J0D01*
G01*
X146563069Y-116610962D01*
G75*
G02*
X146614069Y-116661962I0J-51000D01*
G01*
G37*
G36*
G01*
X145814069Y-116661962D02*
X145814069Y-121661962D01*
G75*
G02*
X145763069Y-121712962I-51000J0D01*
G01*
X145363069Y-121712962D01*
G75*
G02*
X145312069Y-121661962I0J51000D01*
G01*
X145312069Y-116661962D01*
G75*
G02*
X145363069Y-116610962I51000J0D01*
G01*
X145763069Y-116610962D01*
G75*
G02*
X145814069Y-116661962I0J-51000D01*
G01*
G37*
G36*
G01*
X145014069Y-116661962D02*
X145014069Y-121661962D01*
G75*
G02*
X144963069Y-121712962I-51000J0D01*
G01*
X144563069Y-121712962D01*
G75*
G02*
X144512069Y-121661962I0J51000D01*
G01*
X144512069Y-116661962D01*
G75*
G02*
X144563069Y-116610962I51000J0D01*
G01*
X144963069Y-116610962D01*
G75*
G02*
X145014069Y-116661962I0J-51000D01*
G01*
G37*
G36*
G01*
X144214069Y-116661962D02*
X144214069Y-121661962D01*
G75*
G02*
X144163069Y-121712962I-51000J0D01*
G01*
X143763069Y-121712962D01*
G75*
G02*
X143712069Y-121661962I0J51000D01*
G01*
X143712069Y-116661962D01*
G75*
G02*
X143763069Y-116610962I51000J0D01*
G01*
X144163069Y-116610962D01*
G75*
G02*
X144214069Y-116661962I0J-51000D01*
G01*
G37*
G36*
G01*
X143414069Y-116661962D02*
X143414069Y-121661962D01*
G75*
G02*
X143363069Y-121712962I-51000J0D01*
G01*
X142963069Y-121712962D01*
G75*
G02*
X142912069Y-121661962I0J51000D01*
G01*
X142912069Y-116661962D01*
G75*
G02*
X142963069Y-116610962I51000J0D01*
G01*
X143363069Y-116610962D01*
G75*
G02*
X143414069Y-116661962I0J-51000D01*
G01*
G37*
G36*
G01*
X142614069Y-116661962D02*
X142614069Y-121661962D01*
G75*
G02*
X142563069Y-121712962I-51000J0D01*
G01*
X142163069Y-121712962D01*
G75*
G02*
X142112069Y-121661962I0J51000D01*
G01*
X142112069Y-116661962D01*
G75*
G02*
X142163069Y-116610962I51000J0D01*
G01*
X142563069Y-116610962D01*
G75*
G02*
X142614069Y-116661962I0J-51000D01*
G01*
G37*
G36*
G01*
X141814069Y-116661962D02*
X141814069Y-121661962D01*
G75*
G02*
X141763069Y-121712962I-51000J0D01*
G01*
X141363069Y-121712962D01*
G75*
G02*
X141312069Y-121661962I0J51000D01*
G01*
X141312069Y-116661962D01*
G75*
G02*
X141363069Y-116610962I51000J0D01*
G01*
X141763069Y-116610962D01*
G75*
G02*
X141814069Y-116661962I0J-51000D01*
G01*
G37*
G36*
G01*
X156837069Y-119762462D02*
X156837069Y-119161462D01*
G75*
G02*
X157062569Y-118935962I225500J0D01*
G01*
X157513569Y-118935962D01*
G75*
G02*
X157739069Y-119161462I0J-225500D01*
G01*
X157739069Y-119762462D01*
G75*
G02*
X157513569Y-119987962I-225500J0D01*
G01*
X157062569Y-119987962D01*
G75*
G02*
X156837069Y-119762462I0J225500D01*
G01*
G37*
G36*
G01*
X155187069Y-119762462D02*
X155187069Y-119161462D01*
G75*
G02*
X155412569Y-118935962I225500J0D01*
G01*
X155863569Y-118935962D01*
G75*
G02*
X156089069Y-119161462I0J-225500D01*
G01*
X156089069Y-119762462D01*
G75*
G02*
X155863569Y-119987962I-225500J0D01*
G01*
X155412569Y-119987962D01*
G75*
G02*
X155187069Y-119762462I0J225500D01*
G01*
G37*
G36*
G01*
X156837069Y-121262462D02*
X156837069Y-120661462D01*
G75*
G02*
X157062569Y-120435962I225500J0D01*
G01*
X157513569Y-120435962D01*
G75*
G02*
X157739069Y-120661462I0J-225500D01*
G01*
X157739069Y-121262462D01*
G75*
G02*
X157513569Y-121487962I-225500J0D01*
G01*
X157062569Y-121487962D01*
G75*
G02*
X156837069Y-121262462I0J225500D01*
G01*
G37*
G36*
G01*
X155187069Y-121262462D02*
X155187069Y-120661462D01*
G75*
G02*
X155412569Y-120435962I225500J0D01*
G01*
X155863569Y-120435962D01*
G75*
G02*
X156089069Y-120661462I0J-225500D01*
G01*
X156089069Y-121262462D01*
G75*
G02*
X155863569Y-121487962I-225500J0D01*
G01*
X155412569Y-121487962D01*
G75*
G02*
X155187069Y-121262462I0J225500D01*
G01*
G37*
G36*
G01*
X156837069Y-122762462D02*
X156837069Y-122161462D01*
G75*
G02*
X157062569Y-121935962I225500J0D01*
G01*
X157513569Y-121935962D01*
G75*
G02*
X157739069Y-122161462I0J-225500D01*
G01*
X157739069Y-122762462D01*
G75*
G02*
X157513569Y-122987962I-225500J0D01*
G01*
X157062569Y-122987962D01*
G75*
G02*
X156837069Y-122762462I0J225500D01*
G01*
G37*
G36*
G01*
X155187069Y-122762462D02*
X155187069Y-122161462D01*
G75*
G02*
X155412569Y-121935962I225500J0D01*
G01*
X155863569Y-121935962D01*
G75*
G02*
X156089069Y-122161462I0J-225500D01*
G01*
X156089069Y-122762462D01*
G75*
G02*
X155863569Y-122987962I-225500J0D01*
G01*
X155412569Y-122987962D01*
G75*
G02*
X155187069Y-122762462I0J225500D01*
G01*
G37*
G36*
G01*
X156837069Y-124262462D02*
X156837069Y-123661462D01*
G75*
G02*
X157062569Y-123435962I225500J0D01*
G01*
X157513569Y-123435962D01*
G75*
G02*
X157739069Y-123661462I0J-225500D01*
G01*
X157739069Y-124262462D01*
G75*
G02*
X157513569Y-124487962I-225500J0D01*
G01*
X157062569Y-124487962D01*
G75*
G02*
X156837069Y-124262462I0J225500D01*
G01*
G37*
G36*
G01*
X155187069Y-124262462D02*
X155187069Y-123661462D01*
G75*
G02*
X155412569Y-123435962I225500J0D01*
G01*
X155863569Y-123435962D01*
G75*
G02*
X156089069Y-123661462I0J-225500D01*
G01*
X156089069Y-124262462D01*
G75*
G02*
X155863569Y-124487962I-225500J0D01*
G01*
X155412569Y-124487962D01*
G75*
G02*
X155187069Y-124262462I0J225500D01*
G01*
G37*
G36*
G01*
X130642569Y-114310962D02*
X130993569Y-114310962D01*
G75*
G02*
X131169069Y-114486462I0J-175500D01*
G01*
X131169069Y-116187462D01*
G75*
G02*
X130993569Y-116362962I-175500J0D01*
G01*
X130642569Y-116362962D01*
G75*
G02*
X130467069Y-116187462I0J175500D01*
G01*
X130467069Y-114486462D01*
G75*
G02*
X130642569Y-114310962I175500J0D01*
G01*
G37*
G36*
G01*
X131912569Y-114310962D02*
X132263569Y-114310962D01*
G75*
G02*
X132439069Y-114486462I0J-175500D01*
G01*
X132439069Y-116187462D01*
G75*
G02*
X132263569Y-116362962I-175500J0D01*
G01*
X131912569Y-116362962D01*
G75*
G02*
X131737069Y-116187462I0J175500D01*
G01*
X131737069Y-114486462D01*
G75*
G02*
X131912569Y-114310962I175500J0D01*
G01*
G37*
G36*
G01*
X133182569Y-114310962D02*
X133533569Y-114310962D01*
G75*
G02*
X133709069Y-114486462I0J-175500D01*
G01*
X133709069Y-116187462D01*
G75*
G02*
X133533569Y-116362962I-175500J0D01*
G01*
X133182569Y-116362962D01*
G75*
G02*
X133007069Y-116187462I0J175500D01*
G01*
X133007069Y-114486462D01*
G75*
G02*
X133182569Y-114310962I175500J0D01*
G01*
G37*
G36*
G01*
X134452569Y-114310962D02*
X134803569Y-114310962D01*
G75*
G02*
X134979069Y-114486462I0J-175500D01*
G01*
X134979069Y-116187462D01*
G75*
G02*
X134803569Y-116362962I-175500J0D01*
G01*
X134452569Y-116362962D01*
G75*
G02*
X134277069Y-116187462I0J175500D01*
G01*
X134277069Y-114486462D01*
G75*
G02*
X134452569Y-114310962I175500J0D01*
G01*
G37*
G36*
G01*
X135722569Y-114310962D02*
X136073569Y-114310962D01*
G75*
G02*
X136249069Y-114486462I0J-175500D01*
G01*
X136249069Y-116187462D01*
G75*
G02*
X136073569Y-116362962I-175500J0D01*
G01*
X135722569Y-116362962D01*
G75*
G02*
X135547069Y-116187462I0J175500D01*
G01*
X135547069Y-114486462D01*
G75*
G02*
X135722569Y-114310962I175500J0D01*
G01*
G37*
G36*
G01*
X136992569Y-114310962D02*
X137343569Y-114310962D01*
G75*
G02*
X137519069Y-114486462I0J-175500D01*
G01*
X137519069Y-116187462D01*
G75*
G02*
X137343569Y-116362962I-175500J0D01*
G01*
X136992569Y-116362962D01*
G75*
G02*
X136817069Y-116187462I0J175500D01*
G01*
X136817069Y-114486462D01*
G75*
G02*
X136992569Y-114310962I175500J0D01*
G01*
G37*
G36*
G01*
X138262569Y-114310962D02*
X138613569Y-114310962D01*
G75*
G02*
X138789069Y-114486462I0J-175500D01*
G01*
X138789069Y-116187462D01*
G75*
G02*
X138613569Y-116362962I-175500J0D01*
G01*
X138262569Y-116362962D01*
G75*
G02*
X138087069Y-116187462I0J175500D01*
G01*
X138087069Y-114486462D01*
G75*
G02*
X138262569Y-114310962I175500J0D01*
G01*
G37*
G36*
G01*
X139532569Y-114310962D02*
X139883569Y-114310962D01*
G75*
G02*
X140059069Y-114486462I0J-175500D01*
G01*
X140059069Y-116187462D01*
G75*
G02*
X139883569Y-116362962I-175500J0D01*
G01*
X139532569Y-116362962D01*
G75*
G02*
X139357069Y-116187462I0J175500D01*
G01*
X139357069Y-114486462D01*
G75*
G02*
X139532569Y-114310962I175500J0D01*
G01*
G37*
G36*
G01*
X139532569Y-109360962D02*
X139883569Y-109360962D01*
G75*
G02*
X140059069Y-109536462I0J-175500D01*
G01*
X140059069Y-111237462D01*
G75*
G02*
X139883569Y-111412962I-175500J0D01*
G01*
X139532569Y-111412962D01*
G75*
G02*
X139357069Y-111237462I0J175500D01*
G01*
X139357069Y-109536462D01*
G75*
G02*
X139532569Y-109360962I175500J0D01*
G01*
G37*
G36*
G01*
X138262569Y-109360962D02*
X138613569Y-109360962D01*
G75*
G02*
X138789069Y-109536462I0J-175500D01*
G01*
X138789069Y-111237462D01*
G75*
G02*
X138613569Y-111412962I-175500J0D01*
G01*
X138262569Y-111412962D01*
G75*
G02*
X138087069Y-111237462I0J175500D01*
G01*
X138087069Y-109536462D01*
G75*
G02*
X138262569Y-109360962I175500J0D01*
G01*
G37*
G36*
G01*
X136992569Y-109360962D02*
X137343569Y-109360962D01*
G75*
G02*
X137519069Y-109536462I0J-175500D01*
G01*
X137519069Y-111237462D01*
G75*
G02*
X137343569Y-111412962I-175500J0D01*
G01*
X136992569Y-111412962D01*
G75*
G02*
X136817069Y-111237462I0J175500D01*
G01*
X136817069Y-109536462D01*
G75*
G02*
X136992569Y-109360962I175500J0D01*
G01*
G37*
G36*
G01*
X135722569Y-109360962D02*
X136073569Y-109360962D01*
G75*
G02*
X136249069Y-109536462I0J-175500D01*
G01*
X136249069Y-111237462D01*
G75*
G02*
X136073569Y-111412962I-175500J0D01*
G01*
X135722569Y-111412962D01*
G75*
G02*
X135547069Y-111237462I0J175500D01*
G01*
X135547069Y-109536462D01*
G75*
G02*
X135722569Y-109360962I175500J0D01*
G01*
G37*
G36*
G01*
X134452569Y-109360962D02*
X134803569Y-109360962D01*
G75*
G02*
X134979069Y-109536462I0J-175500D01*
G01*
X134979069Y-111237462D01*
G75*
G02*
X134803569Y-111412962I-175500J0D01*
G01*
X134452569Y-111412962D01*
G75*
G02*
X134277069Y-111237462I0J175500D01*
G01*
X134277069Y-109536462D01*
G75*
G02*
X134452569Y-109360962I175500J0D01*
G01*
G37*
G36*
G01*
X133182569Y-109360962D02*
X133533569Y-109360962D01*
G75*
G02*
X133709069Y-109536462I0J-175500D01*
G01*
X133709069Y-111237462D01*
G75*
G02*
X133533569Y-111412962I-175500J0D01*
G01*
X133182569Y-111412962D01*
G75*
G02*
X133007069Y-111237462I0J175500D01*
G01*
X133007069Y-109536462D01*
G75*
G02*
X133182569Y-109360962I175500J0D01*
G01*
G37*
G36*
G01*
X131912569Y-109360962D02*
X132263569Y-109360962D01*
G75*
G02*
X132439069Y-109536462I0J-175500D01*
G01*
X132439069Y-111237462D01*
G75*
G02*
X132263569Y-111412962I-175500J0D01*
G01*
X131912569Y-111412962D01*
G75*
G02*
X131737069Y-111237462I0J175500D01*
G01*
X131737069Y-109536462D01*
G75*
G02*
X131912569Y-109360962I175500J0D01*
G01*
G37*
G36*
G01*
X130642569Y-109360962D02*
X130993569Y-109360962D01*
G75*
G02*
X131169069Y-109536462I0J-175500D01*
G01*
X131169069Y-111237462D01*
G75*
G02*
X130993569Y-111412962I-175500J0D01*
G01*
X130642569Y-111412962D01*
G75*
G02*
X130467069Y-111237462I0J175500D01*
G01*
X130467069Y-109536462D01*
G75*
G02*
X130642569Y-109360962I175500J0D01*
G01*
G37*
G36*
G01*
X147337391Y-77062962D02*
X146773891Y-77062962D01*
G75*
G02*
X146529641Y-76818712I0J244250D01*
G01*
X146529641Y-76330212D01*
G75*
G02*
X146773891Y-76085962I244250J0D01*
G01*
X147337391Y-76085962D01*
G75*
G02*
X147581641Y-76330212I0J-244250D01*
G01*
X147581641Y-76818712D01*
G75*
G02*
X147337391Y-77062962I-244250J0D01*
G01*
G37*
G36*
G01*
X147337391Y-78637962D02*
X146773891Y-78637962D01*
G75*
G02*
X146529641Y-78393712I0J244250D01*
G01*
X146529641Y-77905212D01*
G75*
G02*
X146773891Y-77660962I244250J0D01*
G01*
X147337391Y-77660962D01*
G75*
G02*
X147581641Y-77905212I0J-244250D01*
G01*
X147581641Y-78393712D01*
G75*
G02*
X147337391Y-78637962I-244250J0D01*
G01*
G37*
G36*
G01*
X152214069Y-108281462D02*
X152214069Y-108632462D01*
G75*
G02*
X152038569Y-108807962I-175500J0D01*
G01*
X150687569Y-108807962D01*
G75*
G02*
X150512069Y-108632462I0J175500D01*
G01*
X150512069Y-108281462D01*
G75*
G02*
X150687569Y-108105962I175500J0D01*
G01*
X152038569Y-108105962D01*
G75*
G02*
X152214069Y-108281462I0J-175500D01*
G01*
G37*
G36*
G01*
X152214069Y-109551462D02*
X152214069Y-109902462D01*
G75*
G02*
X152038569Y-110077962I-175500J0D01*
G01*
X150687569Y-110077962D01*
G75*
G02*
X150512069Y-109902462I0J175500D01*
G01*
X150512069Y-109551462D01*
G75*
G02*
X150687569Y-109375962I175500J0D01*
G01*
X152038569Y-109375962D01*
G75*
G02*
X152214069Y-109551462I0J-175500D01*
G01*
G37*
G36*
G01*
X152214069Y-110821462D02*
X152214069Y-111172462D01*
G75*
G02*
X152038569Y-111347962I-175500J0D01*
G01*
X150687569Y-111347962D01*
G75*
G02*
X150512069Y-111172462I0J175500D01*
G01*
X150512069Y-110821462D01*
G75*
G02*
X150687569Y-110645962I175500J0D01*
G01*
X152038569Y-110645962D01*
G75*
G02*
X152214069Y-110821462I0J-175500D01*
G01*
G37*
G36*
G01*
X152214069Y-112091462D02*
X152214069Y-112442462D01*
G75*
G02*
X152038569Y-112617962I-175500J0D01*
G01*
X150687569Y-112617962D01*
G75*
G02*
X150512069Y-112442462I0J175500D01*
G01*
X150512069Y-112091462D01*
G75*
G02*
X150687569Y-111915962I175500J0D01*
G01*
X152038569Y-111915962D01*
G75*
G02*
X152214069Y-112091462I0J-175500D01*
G01*
G37*
G36*
G01*
X145014069Y-112091462D02*
X145014069Y-112442462D01*
G75*
G02*
X144838569Y-112617962I-175500J0D01*
G01*
X143487569Y-112617962D01*
G75*
G02*
X143312069Y-112442462I0J175500D01*
G01*
X143312069Y-112091462D01*
G75*
G02*
X143487569Y-111915962I175500J0D01*
G01*
X144838569Y-111915962D01*
G75*
G02*
X145014069Y-112091462I0J-175500D01*
G01*
G37*
G36*
G01*
X145014069Y-110821462D02*
X145014069Y-111172462D01*
G75*
G02*
X144838569Y-111347962I-175500J0D01*
G01*
X143487569Y-111347962D01*
G75*
G02*
X143312069Y-111172462I0J175500D01*
G01*
X143312069Y-110821462D01*
G75*
G02*
X143487569Y-110645962I175500J0D01*
G01*
X144838569Y-110645962D01*
G75*
G02*
X145014069Y-110821462I0J-175500D01*
G01*
G37*
G36*
G01*
X145014069Y-109551462D02*
X145014069Y-109902462D01*
G75*
G02*
X144838569Y-110077962I-175500J0D01*
G01*
X143487569Y-110077962D01*
G75*
G02*
X143312069Y-109902462I0J175500D01*
G01*
X143312069Y-109551462D01*
G75*
G02*
X143487569Y-109375962I175500J0D01*
G01*
X144838569Y-109375962D01*
G75*
G02*
X145014069Y-109551462I0J-175500D01*
G01*
G37*
G36*
G01*
X145014069Y-108281462D02*
X145014069Y-108632462D01*
G75*
G02*
X144838569Y-108807962I-175500J0D01*
G01*
X143487569Y-108807962D01*
G75*
G02*
X143312069Y-108632462I0J175500D01*
G01*
X143312069Y-108281462D01*
G75*
G02*
X143487569Y-108105962I175500J0D01*
G01*
X144838569Y-108105962D01*
G75*
G02*
X145014069Y-108281462I0J-175500D01*
G01*
G37*
G36*
G01*
X138981319Y-95160962D02*
X139544819Y-95160962D01*
G75*
G02*
X139789069Y-95405212I0J-244250D01*
G01*
X139789069Y-95893712D01*
G75*
G02*
X139544819Y-96137962I-244250J0D01*
G01*
X138981319Y-96137962D01*
G75*
G02*
X138737069Y-95893712I0J244250D01*
G01*
X138737069Y-95405212D01*
G75*
G02*
X138981319Y-95160962I244250J0D01*
G01*
G37*
G36*
G01*
X138981319Y-93585962D02*
X139544819Y-93585962D01*
G75*
G02*
X139789069Y-93830212I0J-244250D01*
G01*
X139789069Y-94318712D01*
G75*
G02*
X139544819Y-94562962I-244250J0D01*
G01*
X138981319Y-94562962D01*
G75*
G02*
X138737069Y-94318712I0J244250D01*
G01*
X138737069Y-93830212D01*
G75*
G02*
X138981319Y-93585962I244250J0D01*
G01*
G37*
G36*
G01*
X150964069Y-98888870D02*
X150964069Y-99452370D01*
G75*
G02*
X150719819Y-99696620I-244250J0D01*
G01*
X150231319Y-99696620D01*
G75*
G02*
X149987069Y-99452370I0J244250D01*
G01*
X149987069Y-98888870D01*
G75*
G02*
X150231319Y-98644620I244250J0D01*
G01*
X150719819Y-98644620D01*
G75*
G02*
X150964069Y-98888870I0J-244250D01*
G01*
G37*
G36*
G01*
X152539069Y-98888870D02*
X152539069Y-99452370D01*
G75*
G02*
X152294819Y-99696620I-244250J0D01*
G01*
X151806319Y-99696620D01*
G75*
G02*
X151562069Y-99452370I0J244250D01*
G01*
X151562069Y-98888870D01*
G75*
G02*
X151806319Y-98644620I244250J0D01*
G01*
X152294819Y-98644620D01*
G75*
G02*
X152539069Y-98888870I0J-244250D01*
G01*
G37*
G36*
G01*
X147564069Y-79480212D02*
X147564069Y-80443712D01*
G75*
G02*
X147294819Y-80712962I-269250J0D01*
G01*
X146756319Y-80712962D01*
G75*
G02*
X146487069Y-80443712I0J269250D01*
G01*
X146487069Y-79480212D01*
G75*
G02*
X146756319Y-79210962I269250J0D01*
G01*
X147294819Y-79210962D01*
G75*
G02*
X147564069Y-79480212I0J-269250D01*
G01*
G37*
G36*
G01*
X149439069Y-79480212D02*
X149439069Y-80443712D01*
G75*
G02*
X149169819Y-80712962I-269250J0D01*
G01*
X148631319Y-80712962D01*
G75*
G02*
X148362069Y-80443712I0J269250D01*
G01*
X148362069Y-79480212D01*
G75*
G02*
X148631319Y-79210962I269250J0D01*
G01*
X149169819Y-79210962D01*
G75*
G02*
X149439069Y-79480212I0J-269250D01*
G01*
G37*
G36*
G01*
X138037391Y-91771620D02*
X137073891Y-91771620D01*
G75*
G02*
X136804641Y-91502370I0J269250D01*
G01*
X136804641Y-90963870D01*
G75*
G02*
X137073891Y-90694620I269250J0D01*
G01*
X138037391Y-90694620D01*
G75*
G02*
X138306641Y-90963870I0J-269250D01*
G01*
X138306641Y-91502370D01*
G75*
G02*
X138037391Y-91771620I-269250J0D01*
G01*
G37*
G36*
G01*
X138037391Y-93646620D02*
X137073891Y-93646620D01*
G75*
G02*
X136804641Y-93377370I0J269250D01*
G01*
X136804641Y-92838870D01*
G75*
G02*
X137073891Y-92569620I269250J0D01*
G01*
X138037391Y-92569620D01*
G75*
G02*
X138306641Y-92838870I0J-269250D01*
G01*
X138306641Y-93377370D01*
G75*
G02*
X138037391Y-93646620I-269250J0D01*
G01*
G37*
G36*
G01*
X162805641Y-94471619D02*
X161155641Y-94471619D01*
G75*
G02*
X161104641Y-94420619I0J51000D01*
G01*
X161104641Y-91570619D01*
G75*
G02*
X161155641Y-91519619I51000J0D01*
G01*
X162805641Y-91519619D01*
G75*
G02*
X162856641Y-91570619I0J-51000D01*
G01*
X162856641Y-94420619D01*
G75*
G02*
X162805641Y-94471619I-51000J0D01*
G01*
G37*
G36*
G01*
X162805641Y-89821619D02*
X161155641Y-89821619D01*
G75*
G02*
X161104641Y-89770619I0J51000D01*
G01*
X161104641Y-86920619D01*
G75*
G02*
X161155641Y-86869619I51000J0D01*
G01*
X162805641Y-86869619D01*
G75*
G02*
X162856641Y-86920619I0J-51000D01*
G01*
X162856641Y-89770619D01*
G75*
G02*
X162805641Y-89821619I-51000J0D01*
G01*
G37*
G36*
G01*
X159955641Y-89821619D02*
X158305641Y-89821619D01*
G75*
G02*
X158254641Y-89770619I0J51000D01*
G01*
X158254641Y-86920619D01*
G75*
G02*
X158305641Y-86869619I51000J0D01*
G01*
X159955641Y-86869619D01*
G75*
G02*
X160006641Y-86920619I0J-51000D01*
G01*
X160006641Y-89770619D01*
G75*
G02*
X159955641Y-89821619I-51000J0D01*
G01*
G37*
G36*
G01*
X159955641Y-94471619D02*
X158305641Y-94471619D01*
G75*
G02*
X158254641Y-94420619I0J51000D01*
G01*
X158254641Y-91570619D01*
G75*
G02*
X158305641Y-91519619I51000J0D01*
G01*
X159955641Y-91519619D01*
G75*
G02*
X160006641Y-91570619I0J-51000D01*
G01*
X160006641Y-94420619D01*
G75*
G02*
X159955641Y-94471619I-51000J0D01*
G01*
G37*
D11*
X83016980Y-53928720D03*
X93454616Y-57400860D03*
D12*
X94179644Y-53637306D03*
X90098127Y-50066422D03*
D13*
X88235798Y-55664790D03*
G36*
G01*
X142244819Y-108962962D02*
X141281319Y-108962962D01*
G75*
G02*
X141012069Y-108693712I0J269250D01*
G01*
X141012069Y-108155212D01*
G75*
G02*
X141281319Y-107885962I269250J0D01*
G01*
X142244819Y-107885962D01*
G75*
G02*
X142514069Y-108155212I0J-269250D01*
G01*
X142514069Y-108693712D01*
G75*
G02*
X142244819Y-108962962I-269250J0D01*
G01*
G37*
G36*
G01*
X142244819Y-110837962D02*
X141281319Y-110837962D01*
G75*
G02*
X141012069Y-110568712I0J269250D01*
G01*
X141012069Y-110030212D01*
G75*
G02*
X141281319Y-109760962I269250J0D01*
G01*
X142244819Y-109760962D01*
G75*
G02*
X142514069Y-110030212I0J-269250D01*
G01*
X142514069Y-110568712D01*
G75*
G02*
X142244819Y-110837962I-269250J0D01*
G01*
G37*
G36*
G01*
X134954641Y-90652369D02*
X134954641Y-89688869D01*
G75*
G02*
X135223891Y-89419619I269250J0D01*
G01*
X135762391Y-89419619D01*
G75*
G02*
X136031641Y-89688869I0J-269250D01*
G01*
X136031641Y-90652369D01*
G75*
G02*
X135762391Y-90921619I-269250J0D01*
G01*
X135223891Y-90921619D01*
G75*
G02*
X134954641Y-90652369I0J269250D01*
G01*
G37*
G36*
G01*
X133079641Y-90652369D02*
X133079641Y-89688869D01*
G75*
G02*
X133348891Y-89419619I269250J0D01*
G01*
X133887391Y-89419619D01*
G75*
G02*
X134156641Y-89688869I0J-269250D01*
G01*
X134156641Y-90652369D01*
G75*
G02*
X133887391Y-90921619I-269250J0D01*
G01*
X133348891Y-90921619D01*
G75*
G02*
X133079641Y-90652369I0J269250D01*
G01*
G37*
G36*
G01*
X131537391Y-92771620D02*
X130573891Y-92771620D01*
G75*
G02*
X130304641Y-92502370I0J269250D01*
G01*
X130304641Y-91963870D01*
G75*
G02*
X130573891Y-91694620I269250J0D01*
G01*
X131537391Y-91694620D01*
G75*
G02*
X131806641Y-91963870I0J-269250D01*
G01*
X131806641Y-92502370D01*
G75*
G02*
X131537391Y-92771620I-269250J0D01*
G01*
G37*
G36*
G01*
X131537391Y-94646620D02*
X130573891Y-94646620D01*
G75*
G02*
X130304641Y-94377370I0J269250D01*
G01*
X130304641Y-93838870D01*
G75*
G02*
X130573891Y-93569620I269250J0D01*
G01*
X131537391Y-93569620D01*
G75*
G02*
X131806641Y-93838870I0J-269250D01*
G01*
X131806641Y-94377370D01*
G75*
G02*
X131537391Y-94646620I-269250J0D01*
G01*
G37*
D11*
X185116851Y-68776020D03*
X195554487Y-65303880D03*
D12*
X193880583Y-61855976D03*
X188473340Y-61441582D03*
D13*
X190335669Y-67039950D03*
D11*
X171483183Y-127586082D03*
X181920819Y-124113942D03*
D12*
X180246915Y-120666038D03*
X174839672Y-120251644D03*
D13*
X176702001Y-125850012D03*
D11*
X247403875Y-84941641D03*
X257841511Y-81469501D03*
D12*
X256167607Y-78021597D03*
X250760364Y-77607203D03*
D13*
X252622693Y-83205571D03*
D11*
X242037842Y-68810744D03*
X252475478Y-65338604D03*
D12*
X250801574Y-61890700D03*
X245394331Y-61476306D03*
D13*
X247256660Y-67074674D03*
D11*
X173403119Y-90588597D03*
X183840755Y-87116457D03*
D12*
X182166851Y-83668553D03*
X176759608Y-83254159D03*
D13*
X178621937Y-88852527D03*
D11*
X188562951Y-121904402D03*
X199000587Y-118432262D03*
D12*
X197326683Y-114984358D03*
X191919440Y-114569964D03*
D13*
X193781769Y-120168332D03*
D11*
X190482888Y-84906916D03*
X200920524Y-81434776D03*
D12*
X199246620Y-77986872D03*
X193839377Y-77572478D03*
D13*
X195701706Y-83170846D03*
D11*
X264483642Y-79259955D03*
X274921278Y-75787815D03*
D12*
X273247374Y-72339911D03*
X267840131Y-71925517D03*
D13*
X269702460Y-77523885D03*
D11*
X259117609Y-63129060D03*
X269555245Y-59656920D03*
D12*
X267881341Y-56209016D03*
X262474098Y-55794622D03*
D13*
X264336427Y-61392990D03*
D11*
X205642723Y-116222719D03*
X216080359Y-112750579D03*
D12*
X214406455Y-109302675D03*
X208999212Y-108888281D03*
D13*
X210861541Y-114486649D03*
D11*
X224642421Y-73543550D03*
X235080057Y-70071410D03*
D12*
X233406153Y-66623506D03*
X227998910Y-66209112D03*
D13*
X229861239Y-71807480D03*
D11*
X205668758Y-73531976D03*
X216106394Y-70059836D03*
D12*
X214432490Y-66611932D03*
X209025247Y-66197538D03*
D13*
X210887576Y-71795906D03*
D11*
X219276390Y-57412655D03*
X229714026Y-53940515D03*
D12*
X228040122Y-50492611D03*
X222632879Y-50078217D03*
D13*
X224495208Y-55676585D03*
D11*
X200302729Y-57401082D03*
X210740365Y-53928942D03*
D12*
X209066461Y-50481038D03*
X203659218Y-50066644D03*
D13*
X205521547Y-55665012D03*
D11*
X168037086Y-74457705D03*
X178474722Y-70985565D03*
D12*
X176800818Y-67537661D03*
X171393575Y-67123267D03*
D13*
X173255904Y-72721635D03*
D11*
X24202105Y-59656697D03*
X34639741Y-63128837D03*
D12*
X35364769Y-59365283D03*
X31283252Y-55794399D03*
D13*
X29420923Y-61392767D03*
D11*
X18835992Y-75787566D03*
X29273628Y-79259706D03*
D12*
X29998656Y-75496152D03*
X25917139Y-71925268D03*
D13*
X24054810Y-77523636D03*
D11*
X111840565Y-124117161D03*
X122278201Y-127589301D03*
D12*
X123003229Y-123825747D03*
X118921712Y-120254863D03*
D13*
X117059383Y-125853231D03*
D11*
X94760802Y-118435476D03*
X105198438Y-121907616D03*
D12*
X105923466Y-118144062D03*
X101841949Y-114573178D03*
D13*
X99979620Y-120171546D03*
D11*
X77681032Y-112753790D03*
X88118668Y-116225930D03*
D12*
X88843696Y-112462376D03*
X84762179Y-108891492D03*
D13*
X82899850Y-114489860D03*
D11*
X109913507Y-87111714D03*
X120351143Y-90583854D03*
D12*
X121076171Y-86820300D03*
X116994654Y-83249416D03*
D13*
X115132325Y-88847784D03*
D11*
X92836823Y-81434550D03*
X103274459Y-84906690D03*
D12*
X103999487Y-81143136D03*
X99917970Y-77572252D03*
D13*
X98055641Y-83170620D03*
D11*
X77650951Y-70059612D03*
X88088587Y-73531752D03*
D12*
X88813615Y-69768198D03*
X84732098Y-66197314D03*
D13*
X82869769Y-71795682D03*
D11*
X58677288Y-70071183D03*
X69114924Y-73543323D03*
D12*
X69839952Y-69779769D03*
X65758435Y-66208885D03*
D13*
X63896106Y-71807253D03*
D11*
X35915839Y-81469272D03*
X46353475Y-84941412D03*
D12*
X47078503Y-81177858D03*
X42996986Y-77606974D03*
D13*
X41134657Y-83205342D03*
D11*
X115282627Y-70985339D03*
X125720263Y-74457479D03*
D12*
X126445291Y-70693925D03*
X122363774Y-67123041D03*
D13*
X120501445Y-72721409D03*
D11*
X98202857Y-65303658D03*
X108640493Y-68775798D03*
D12*
X109365521Y-65012244D03*
X105284004Y-61441360D03*
D13*
X103421675Y-67039728D03*
D11*
X64043317Y-53940293D03*
X74480953Y-57412433D03*
D12*
X75205981Y-53648879D03*
X71124464Y-50077995D03*
D13*
X69262135Y-55676363D03*
D11*
X41281868Y-65338382D03*
X51719504Y-68810522D03*
D12*
X52444532Y-65046968D03*
X48363015Y-61476084D03*
D13*
X46500686Y-67074452D03*
G36*
G01*
X156337391Y-88371620D02*
X155773891Y-88371620D01*
G75*
G02*
X155529641Y-88127370I0J244250D01*
G01*
X155529641Y-87638870D01*
G75*
G02*
X155773891Y-87394620I244250J0D01*
G01*
X156337391Y-87394620D01*
G75*
G02*
X156581641Y-87638870I0J-244250D01*
G01*
X156581641Y-88127370D01*
G75*
G02*
X156337391Y-88371620I-244250J0D01*
G01*
G37*
G36*
G01*
X156337391Y-89946620D02*
X155773891Y-89946620D01*
G75*
G02*
X155529641Y-89702370I0J244250D01*
G01*
X155529641Y-89213870D01*
G75*
G02*
X155773891Y-88969620I244250J0D01*
G01*
X156337391Y-88969620D01*
G75*
G02*
X156581641Y-89213870I0J-244250D01*
G01*
X156581641Y-89702370D01*
G75*
G02*
X156337391Y-89946620I-244250J0D01*
G01*
G37*
G36*
G01*
X160044140Y-84888871D02*
X160044140Y-85452371D01*
G75*
G02*
X159799890Y-85696621I-244250J0D01*
G01*
X159311390Y-85696621D01*
G75*
G02*
X159067140Y-85452371I0J244250D01*
G01*
X159067140Y-84888871D01*
G75*
G02*
X159311390Y-84644621I244250J0D01*
G01*
X159799890Y-84644621D01*
G75*
G02*
X160044140Y-84888871I0J-244250D01*
G01*
G37*
G36*
G01*
X161619140Y-84888871D02*
X161619140Y-85452371D01*
G75*
G02*
X161374890Y-85696621I-244250J0D01*
G01*
X160886390Y-85696621D01*
G75*
G02*
X160642140Y-85452371I0J244250D01*
G01*
X160642140Y-84888871D01*
G75*
G02*
X160886390Y-84644621I244250J0D01*
G01*
X161374890Y-84644621D01*
G75*
G02*
X161619140Y-84888871I0J-244250D01*
G01*
G37*
G36*
G01*
X160854642Y-96452370D02*
X160854642Y-95888870D01*
G75*
G02*
X161098892Y-95644620I244250J0D01*
G01*
X161587392Y-95644620D01*
G75*
G02*
X161831642Y-95888870I0J-244250D01*
G01*
X161831642Y-96452370D01*
G75*
G02*
X161587392Y-96696620I-244250J0D01*
G01*
X161098892Y-96696620D01*
G75*
G02*
X160854642Y-96452370I0J244250D01*
G01*
G37*
G36*
G01*
X159279642Y-96452370D02*
X159279642Y-95888870D01*
G75*
G02*
X159523892Y-95644620I244250J0D01*
G01*
X160012392Y-95644620D01*
G75*
G02*
X160256642Y-95888870I0J-244250D01*
G01*
X160256642Y-96452370D01*
G75*
G02*
X160012392Y-96696620I-244250J0D01*
G01*
X159523892Y-96696620D01*
G75*
G02*
X159279642Y-96452370I0J244250D01*
G01*
G37*
G36*
G01*
X135054641Y-93570619D02*
X135054641Y-92770619D01*
G75*
G02*
X135105641Y-92719619I51000J0D01*
G01*
X136005641Y-92719619D01*
G75*
G02*
X136056641Y-92770619I0J-51000D01*
G01*
X136056641Y-93570619D01*
G75*
G02*
X136005641Y-93621619I-51000J0D01*
G01*
X135105641Y-93621619D01*
G75*
G02*
X135054641Y-93570619I0J51000D01*
G01*
G37*
G36*
G01*
X133054641Y-92620619D02*
X133054641Y-91820619D01*
G75*
G02*
X133105641Y-91769619I51000J0D01*
G01*
X134005641Y-91769619D01*
G75*
G02*
X134056641Y-91820619I0J-51000D01*
G01*
X134056641Y-92620619D01*
G75*
G02*
X134005641Y-92671619I-51000J0D01*
G01*
X133105641Y-92671619D01*
G75*
G02*
X133054641Y-92620619I0J51000D01*
G01*
G37*
G36*
G01*
X133054641Y-94520619D02*
X133054641Y-93720619D01*
G75*
G02*
X133105641Y-93669619I51000J0D01*
G01*
X134005641Y-93669619D01*
G75*
G02*
X134056641Y-93720619I0J-51000D01*
G01*
X134056641Y-94520619D01*
G75*
G02*
X134005641Y-94571619I-51000J0D01*
G01*
X133105641Y-94571619D01*
G75*
G02*
X133054641Y-94520619I0J51000D01*
G01*
G37*
G36*
G01*
X142156641Y-86895619D02*
X142156641Y-87445619D01*
G75*
G02*
X142105641Y-87496619I-51000J0D01*
G01*
X140605641Y-87496619D01*
G75*
G02*
X140554641Y-87445619I0J51000D01*
G01*
X140554641Y-86895619D01*
G75*
G02*
X140605641Y-86844619I51000J0D01*
G01*
X142105641Y-86844619D01*
G75*
G02*
X142156641Y-86895619I0J-51000D01*
G01*
G37*
G36*
G01*
X142156641Y-87695619D02*
X142156641Y-88245619D01*
G75*
G02*
X142105641Y-88296619I-51000J0D01*
G01*
X140605641Y-88296619D01*
G75*
G02*
X140554641Y-88245619I0J51000D01*
G01*
X140554641Y-87695619D01*
G75*
G02*
X140605641Y-87644619I51000J0D01*
G01*
X142105641Y-87644619D01*
G75*
G02*
X142156641Y-87695619I0J-51000D01*
G01*
G37*
G36*
G01*
X142156641Y-88495619D02*
X142156641Y-89045619D01*
G75*
G02*
X142105641Y-89096619I-51000J0D01*
G01*
X140605641Y-89096619D01*
G75*
G02*
X140554641Y-89045619I0J51000D01*
G01*
X140554641Y-88495619D01*
G75*
G02*
X140605641Y-88444619I51000J0D01*
G01*
X142105641Y-88444619D01*
G75*
G02*
X142156641Y-88495619I0J-51000D01*
G01*
G37*
G36*
G01*
X142156641Y-89295619D02*
X142156641Y-89845619D01*
G75*
G02*
X142105641Y-89896619I-51000J0D01*
G01*
X140605641Y-89896619D01*
G75*
G02*
X140554641Y-89845619I0J51000D01*
G01*
X140554641Y-89295619D01*
G75*
G02*
X140605641Y-89244619I51000J0D01*
G01*
X142105641Y-89244619D01*
G75*
G02*
X142156641Y-89295619I0J-51000D01*
G01*
G37*
G36*
G01*
X142156641Y-90095619D02*
X142156641Y-90645619D01*
G75*
G02*
X142105641Y-90696619I-51000J0D01*
G01*
X140605641Y-90696619D01*
G75*
G02*
X140554641Y-90645619I0J51000D01*
G01*
X140554641Y-90095619D01*
G75*
G02*
X140605641Y-90044619I51000J0D01*
G01*
X142105641Y-90044619D01*
G75*
G02*
X142156641Y-90095619I0J-51000D01*
G01*
G37*
G36*
G01*
X142156641Y-90895619D02*
X142156641Y-91445619D01*
G75*
G02*
X142105641Y-91496619I-51000J0D01*
G01*
X140605641Y-91496619D01*
G75*
G02*
X140554641Y-91445619I0J51000D01*
G01*
X140554641Y-90895619D01*
G75*
G02*
X140605641Y-90844619I51000J0D01*
G01*
X142105641Y-90844619D01*
G75*
G02*
X142156641Y-90895619I0J-51000D01*
G01*
G37*
G36*
G01*
X142156641Y-91695619D02*
X142156641Y-92245619D01*
G75*
G02*
X142105641Y-92296619I-51000J0D01*
G01*
X140605641Y-92296619D01*
G75*
G02*
X140554641Y-92245619I0J51000D01*
G01*
X140554641Y-91695619D01*
G75*
G02*
X140605641Y-91644619I51000J0D01*
G01*
X142105641Y-91644619D01*
G75*
G02*
X142156641Y-91695619I0J-51000D01*
G01*
G37*
G36*
G01*
X142156641Y-92495619D02*
X142156641Y-93045619D01*
G75*
G02*
X142105641Y-93096619I-51000J0D01*
G01*
X140605641Y-93096619D01*
G75*
G02*
X140554641Y-93045619I0J51000D01*
G01*
X140554641Y-92495619D01*
G75*
G02*
X140605641Y-92444619I51000J0D01*
G01*
X142105641Y-92444619D01*
G75*
G02*
X142156641Y-92495619I0J-51000D01*
G01*
G37*
G36*
G01*
X142156641Y-93295619D02*
X142156641Y-93845619D01*
G75*
G02*
X142105641Y-93896619I-51000J0D01*
G01*
X140605641Y-93896619D01*
G75*
G02*
X140554641Y-93845619I0J51000D01*
G01*
X140554641Y-93295619D01*
G75*
G02*
X140605641Y-93244619I51000J0D01*
G01*
X142105641Y-93244619D01*
G75*
G02*
X142156641Y-93295619I0J-51000D01*
G01*
G37*
G36*
G01*
X142156641Y-94095619D02*
X142156641Y-94645619D01*
G75*
G02*
X142105641Y-94696619I-51000J0D01*
G01*
X140605641Y-94696619D01*
G75*
G02*
X140554641Y-94645619I0J51000D01*
G01*
X140554641Y-94095619D01*
G75*
G02*
X140605641Y-94044619I51000J0D01*
G01*
X142105641Y-94044619D01*
G75*
G02*
X142156641Y-94095619I0J-51000D01*
G01*
G37*
G36*
G01*
X142156641Y-94895619D02*
X142156641Y-95445619D01*
G75*
G02*
X142105641Y-95496619I-51000J0D01*
G01*
X140605641Y-95496619D01*
G75*
G02*
X140554641Y-95445619I0J51000D01*
G01*
X140554641Y-94895619D01*
G75*
G02*
X140605641Y-94844619I51000J0D01*
G01*
X142105641Y-94844619D01*
G75*
G02*
X142156641Y-94895619I0J-51000D01*
G01*
G37*
G36*
G01*
X142780641Y-96069619D02*
X143330641Y-96069619D01*
G75*
G02*
X143381641Y-96120619I0J-51000D01*
G01*
X143381641Y-97620619D01*
G75*
G02*
X143330641Y-97671619I-51000J0D01*
G01*
X142780641Y-97671619D01*
G75*
G02*
X142729641Y-97620619I0J51000D01*
G01*
X142729641Y-96120619D01*
G75*
G02*
X142780641Y-96069619I51000J0D01*
G01*
G37*
G36*
G01*
X143580641Y-96069619D02*
X144130641Y-96069619D01*
G75*
G02*
X144181641Y-96120619I0J-51000D01*
G01*
X144181641Y-97620619D01*
G75*
G02*
X144130641Y-97671619I-51000J0D01*
G01*
X143580641Y-97671619D01*
G75*
G02*
X143529641Y-97620619I0J51000D01*
G01*
X143529641Y-96120619D01*
G75*
G02*
X143580641Y-96069619I51000J0D01*
G01*
G37*
G36*
G01*
X144380641Y-96069619D02*
X144930641Y-96069619D01*
G75*
G02*
X144981641Y-96120619I0J-51000D01*
G01*
X144981641Y-97620619D01*
G75*
G02*
X144930641Y-97671619I-51000J0D01*
G01*
X144380641Y-97671619D01*
G75*
G02*
X144329641Y-97620619I0J51000D01*
G01*
X144329641Y-96120619D01*
G75*
G02*
X144380641Y-96069619I51000J0D01*
G01*
G37*
G36*
G01*
X145180641Y-96069619D02*
X145730641Y-96069619D01*
G75*
G02*
X145781641Y-96120619I0J-51000D01*
G01*
X145781641Y-97620619D01*
G75*
G02*
X145730641Y-97671619I-51000J0D01*
G01*
X145180641Y-97671619D01*
G75*
G02*
X145129641Y-97620619I0J51000D01*
G01*
X145129641Y-96120619D01*
G75*
G02*
X145180641Y-96069619I51000J0D01*
G01*
G37*
G36*
G01*
X145980641Y-96069619D02*
X146530641Y-96069619D01*
G75*
G02*
X146581641Y-96120619I0J-51000D01*
G01*
X146581641Y-97620619D01*
G75*
G02*
X146530641Y-97671619I-51000J0D01*
G01*
X145980641Y-97671619D01*
G75*
G02*
X145929641Y-97620619I0J51000D01*
G01*
X145929641Y-96120619D01*
G75*
G02*
X145980641Y-96069619I51000J0D01*
G01*
G37*
G36*
G01*
X146780641Y-96069619D02*
X147330641Y-96069619D01*
G75*
G02*
X147381641Y-96120619I0J-51000D01*
G01*
X147381641Y-97620619D01*
G75*
G02*
X147330641Y-97671619I-51000J0D01*
G01*
X146780641Y-97671619D01*
G75*
G02*
X146729641Y-97620619I0J51000D01*
G01*
X146729641Y-96120619D01*
G75*
G02*
X146780641Y-96069619I51000J0D01*
G01*
G37*
G36*
G01*
X147580641Y-96069619D02*
X148130641Y-96069619D01*
G75*
G02*
X148181641Y-96120619I0J-51000D01*
G01*
X148181641Y-97620619D01*
G75*
G02*
X148130641Y-97671619I-51000J0D01*
G01*
X147580641Y-97671619D01*
G75*
G02*
X147529641Y-97620619I0J51000D01*
G01*
X147529641Y-96120619D01*
G75*
G02*
X147580641Y-96069619I51000J0D01*
G01*
G37*
G36*
G01*
X148380641Y-96069619D02*
X148930641Y-96069619D01*
G75*
G02*
X148981641Y-96120619I0J-51000D01*
G01*
X148981641Y-97620619D01*
G75*
G02*
X148930641Y-97671619I-51000J0D01*
G01*
X148380641Y-97671619D01*
G75*
G02*
X148329641Y-97620619I0J51000D01*
G01*
X148329641Y-96120619D01*
G75*
G02*
X148380641Y-96069619I51000J0D01*
G01*
G37*
G36*
G01*
X149180641Y-96069619D02*
X149730641Y-96069619D01*
G75*
G02*
X149781641Y-96120619I0J-51000D01*
G01*
X149781641Y-97620619D01*
G75*
G02*
X149730641Y-97671619I-51000J0D01*
G01*
X149180641Y-97671619D01*
G75*
G02*
X149129641Y-97620619I0J51000D01*
G01*
X149129641Y-96120619D01*
G75*
G02*
X149180641Y-96069619I51000J0D01*
G01*
G37*
G36*
G01*
X149980641Y-96069619D02*
X150530641Y-96069619D01*
G75*
G02*
X150581641Y-96120619I0J-51000D01*
G01*
X150581641Y-97620619D01*
G75*
G02*
X150530641Y-97671619I-51000J0D01*
G01*
X149980641Y-97671619D01*
G75*
G02*
X149929641Y-97620619I0J51000D01*
G01*
X149929641Y-96120619D01*
G75*
G02*
X149980641Y-96069619I51000J0D01*
G01*
G37*
G36*
G01*
X150780641Y-96069619D02*
X151330641Y-96069619D01*
G75*
G02*
X151381641Y-96120619I0J-51000D01*
G01*
X151381641Y-97620619D01*
G75*
G02*
X151330641Y-97671619I-51000J0D01*
G01*
X150780641Y-97671619D01*
G75*
G02*
X150729641Y-97620619I0J51000D01*
G01*
X150729641Y-96120619D01*
G75*
G02*
X150780641Y-96069619I51000J0D01*
G01*
G37*
G36*
G01*
X153556641Y-94895619D02*
X153556641Y-95445619D01*
G75*
G02*
X153505641Y-95496619I-51000J0D01*
G01*
X152005641Y-95496619D01*
G75*
G02*
X151954641Y-95445619I0J51000D01*
G01*
X151954641Y-94895619D01*
G75*
G02*
X152005641Y-94844619I51000J0D01*
G01*
X153505641Y-94844619D01*
G75*
G02*
X153556641Y-94895619I0J-51000D01*
G01*
G37*
G36*
G01*
X153556641Y-94095619D02*
X153556641Y-94645619D01*
G75*
G02*
X153505641Y-94696619I-51000J0D01*
G01*
X152005641Y-94696619D01*
G75*
G02*
X151954641Y-94645619I0J51000D01*
G01*
X151954641Y-94095619D01*
G75*
G02*
X152005641Y-94044619I51000J0D01*
G01*
X153505641Y-94044619D01*
G75*
G02*
X153556641Y-94095619I0J-51000D01*
G01*
G37*
G36*
G01*
X153556641Y-93295619D02*
X153556641Y-93845619D01*
G75*
G02*
X153505641Y-93896619I-51000J0D01*
G01*
X152005641Y-93896619D01*
G75*
G02*
X151954641Y-93845619I0J51000D01*
G01*
X151954641Y-93295619D01*
G75*
G02*
X152005641Y-93244619I51000J0D01*
G01*
X153505641Y-93244619D01*
G75*
G02*
X153556641Y-93295619I0J-51000D01*
G01*
G37*
G36*
G01*
X153556641Y-92495619D02*
X153556641Y-93045619D01*
G75*
G02*
X153505641Y-93096619I-51000J0D01*
G01*
X152005641Y-93096619D01*
G75*
G02*
X151954641Y-93045619I0J51000D01*
G01*
X151954641Y-92495619D01*
G75*
G02*
X152005641Y-92444619I51000J0D01*
G01*
X153505641Y-92444619D01*
G75*
G02*
X153556641Y-92495619I0J-51000D01*
G01*
G37*
G36*
G01*
X153556641Y-91695619D02*
X153556641Y-92245619D01*
G75*
G02*
X153505641Y-92296619I-51000J0D01*
G01*
X152005641Y-92296619D01*
G75*
G02*
X151954641Y-92245619I0J51000D01*
G01*
X151954641Y-91695619D01*
G75*
G02*
X152005641Y-91644619I51000J0D01*
G01*
X153505641Y-91644619D01*
G75*
G02*
X153556641Y-91695619I0J-51000D01*
G01*
G37*
G36*
G01*
X153556641Y-90895619D02*
X153556641Y-91445619D01*
G75*
G02*
X153505641Y-91496619I-51000J0D01*
G01*
X152005641Y-91496619D01*
G75*
G02*
X151954641Y-91445619I0J51000D01*
G01*
X151954641Y-90895619D01*
G75*
G02*
X152005641Y-90844619I51000J0D01*
G01*
X153505641Y-90844619D01*
G75*
G02*
X153556641Y-90895619I0J-51000D01*
G01*
G37*
G36*
G01*
X153556641Y-90095619D02*
X153556641Y-90645619D01*
G75*
G02*
X153505641Y-90696619I-51000J0D01*
G01*
X152005641Y-90696619D01*
G75*
G02*
X151954641Y-90645619I0J51000D01*
G01*
X151954641Y-90095619D01*
G75*
G02*
X152005641Y-90044619I51000J0D01*
G01*
X153505641Y-90044619D01*
G75*
G02*
X153556641Y-90095619I0J-51000D01*
G01*
G37*
G36*
G01*
X153556641Y-89295619D02*
X153556641Y-89845619D01*
G75*
G02*
X153505641Y-89896619I-51000J0D01*
G01*
X152005641Y-89896619D01*
G75*
G02*
X151954641Y-89845619I0J51000D01*
G01*
X151954641Y-89295619D01*
G75*
G02*
X152005641Y-89244619I51000J0D01*
G01*
X153505641Y-89244619D01*
G75*
G02*
X153556641Y-89295619I0J-51000D01*
G01*
G37*
G36*
G01*
X153556641Y-88495619D02*
X153556641Y-89045619D01*
G75*
G02*
X153505641Y-89096619I-51000J0D01*
G01*
X152005641Y-89096619D01*
G75*
G02*
X151954641Y-89045619I0J51000D01*
G01*
X151954641Y-88495619D01*
G75*
G02*
X152005641Y-88444619I51000J0D01*
G01*
X153505641Y-88444619D01*
G75*
G02*
X153556641Y-88495619I0J-51000D01*
G01*
G37*
G36*
G01*
X153556641Y-87695619D02*
X153556641Y-88245619D01*
G75*
G02*
X153505641Y-88296619I-51000J0D01*
G01*
X152005641Y-88296619D01*
G75*
G02*
X151954641Y-88245619I0J51000D01*
G01*
X151954641Y-87695619D01*
G75*
G02*
X152005641Y-87644619I51000J0D01*
G01*
X153505641Y-87644619D01*
G75*
G02*
X153556641Y-87695619I0J-51000D01*
G01*
G37*
G36*
G01*
X153556641Y-86895619D02*
X153556641Y-87445619D01*
G75*
G02*
X153505641Y-87496619I-51000J0D01*
G01*
X152005641Y-87496619D01*
G75*
G02*
X151954641Y-87445619I0J51000D01*
G01*
X151954641Y-86895619D01*
G75*
G02*
X152005641Y-86844619I51000J0D01*
G01*
X153505641Y-86844619D01*
G75*
G02*
X153556641Y-86895619I0J-51000D01*
G01*
G37*
G36*
G01*
X150780641Y-84669619D02*
X151330641Y-84669619D01*
G75*
G02*
X151381641Y-84720619I0J-51000D01*
G01*
X151381641Y-86220619D01*
G75*
G02*
X151330641Y-86271619I-51000J0D01*
G01*
X150780641Y-86271619D01*
G75*
G02*
X150729641Y-86220619I0J51000D01*
G01*
X150729641Y-84720619D01*
G75*
G02*
X150780641Y-84669619I51000J0D01*
G01*
G37*
G36*
G01*
X149980641Y-84669619D02*
X150530641Y-84669619D01*
G75*
G02*
X150581641Y-84720619I0J-51000D01*
G01*
X150581641Y-86220619D01*
G75*
G02*
X150530641Y-86271619I-51000J0D01*
G01*
X149980641Y-86271619D01*
G75*
G02*
X149929641Y-86220619I0J51000D01*
G01*
X149929641Y-84720619D01*
G75*
G02*
X149980641Y-84669619I51000J0D01*
G01*
G37*
G36*
G01*
X149180641Y-84669619D02*
X149730641Y-84669619D01*
G75*
G02*
X149781641Y-84720619I0J-51000D01*
G01*
X149781641Y-86220619D01*
G75*
G02*
X149730641Y-86271619I-51000J0D01*
G01*
X149180641Y-86271619D01*
G75*
G02*
X149129641Y-86220619I0J51000D01*
G01*
X149129641Y-84720619D01*
G75*
G02*
X149180641Y-84669619I51000J0D01*
G01*
G37*
G36*
G01*
X148380641Y-84669619D02*
X148930641Y-84669619D01*
G75*
G02*
X148981641Y-84720619I0J-51000D01*
G01*
X148981641Y-86220619D01*
G75*
G02*
X148930641Y-86271619I-51000J0D01*
G01*
X148380641Y-86271619D01*
G75*
G02*
X148329641Y-86220619I0J51000D01*
G01*
X148329641Y-84720619D01*
G75*
G02*
X148380641Y-84669619I51000J0D01*
G01*
G37*
G36*
G01*
X147580641Y-84669619D02*
X148130641Y-84669619D01*
G75*
G02*
X148181641Y-84720619I0J-51000D01*
G01*
X148181641Y-86220619D01*
G75*
G02*
X148130641Y-86271619I-51000J0D01*
G01*
X147580641Y-86271619D01*
G75*
G02*
X147529641Y-86220619I0J51000D01*
G01*
X147529641Y-84720619D01*
G75*
G02*
X147580641Y-84669619I51000J0D01*
G01*
G37*
G36*
G01*
X146780641Y-84669619D02*
X147330641Y-84669619D01*
G75*
G02*
X147381641Y-84720619I0J-51000D01*
G01*
X147381641Y-86220619D01*
G75*
G02*
X147330641Y-86271619I-51000J0D01*
G01*
X146780641Y-86271619D01*
G75*
G02*
X146729641Y-86220619I0J51000D01*
G01*
X146729641Y-84720619D01*
G75*
G02*
X146780641Y-84669619I51000J0D01*
G01*
G37*
G36*
G01*
X145980641Y-84669619D02*
X146530641Y-84669619D01*
G75*
G02*
X146581641Y-84720619I0J-51000D01*
G01*
X146581641Y-86220619D01*
G75*
G02*
X146530641Y-86271619I-51000J0D01*
G01*
X145980641Y-86271619D01*
G75*
G02*
X145929641Y-86220619I0J51000D01*
G01*
X145929641Y-84720619D01*
G75*
G02*
X145980641Y-84669619I51000J0D01*
G01*
G37*
G36*
G01*
X145180641Y-84669619D02*
X145730641Y-84669619D01*
G75*
G02*
X145781641Y-84720619I0J-51000D01*
G01*
X145781641Y-86220619D01*
G75*
G02*
X145730641Y-86271619I-51000J0D01*
G01*
X145180641Y-86271619D01*
G75*
G02*
X145129641Y-86220619I0J51000D01*
G01*
X145129641Y-84720619D01*
G75*
G02*
X145180641Y-84669619I51000J0D01*
G01*
G37*
G36*
G01*
X144380641Y-84669619D02*
X144930641Y-84669619D01*
G75*
G02*
X144981641Y-84720619I0J-51000D01*
G01*
X144981641Y-86220619D01*
G75*
G02*
X144930641Y-86271619I-51000J0D01*
G01*
X144380641Y-86271619D01*
G75*
G02*
X144329641Y-86220619I0J51000D01*
G01*
X144329641Y-84720619D01*
G75*
G02*
X144380641Y-84669619I51000J0D01*
G01*
G37*
G36*
G01*
X143580641Y-84669619D02*
X144130641Y-84669619D01*
G75*
G02*
X144181641Y-84720619I0J-51000D01*
G01*
X144181641Y-86220619D01*
G75*
G02*
X144130641Y-86271619I-51000J0D01*
G01*
X143580641Y-86271619D01*
G75*
G02*
X143529641Y-86220619I0J51000D01*
G01*
X143529641Y-84720619D01*
G75*
G02*
X143580641Y-84669619I51000J0D01*
G01*
G37*
G36*
G01*
X142780641Y-84669619D02*
X143330641Y-84669619D01*
G75*
G02*
X143381641Y-84720619I0J-51000D01*
G01*
X143381641Y-86220619D01*
G75*
G02*
X143330641Y-86271619I-51000J0D01*
G01*
X142780641Y-86271619D01*
G75*
G02*
X142729641Y-86220619I0J51000D01*
G01*
X142729641Y-84720619D01*
G75*
G02*
X142780641Y-84669619I51000J0D01*
G01*
G37*
G36*
G01*
X134954639Y-96652370D02*
X134954639Y-95688870D01*
G75*
G02*
X135223889Y-95419620I269250J0D01*
G01*
X135762389Y-95419620D01*
G75*
G02*
X136031639Y-95688870I0J-269250D01*
G01*
X136031639Y-96652370D01*
G75*
G02*
X135762389Y-96921620I-269250J0D01*
G01*
X135223889Y-96921620D01*
G75*
G02*
X134954639Y-96652370I0J269250D01*
G01*
G37*
G36*
G01*
X133079639Y-96652370D02*
X133079639Y-95688870D01*
G75*
G02*
X133348889Y-95419620I269250J0D01*
G01*
X133887389Y-95419620D01*
G75*
G02*
X134156639Y-95688870I0J-269250D01*
G01*
X134156639Y-96652370D01*
G75*
G02*
X133887389Y-96921620I-269250J0D01*
G01*
X133348889Y-96921620D01*
G75*
G02*
X133079639Y-96652370I0J269250D01*
G01*
G37*
G36*
G01*
X145837391Y-77062962D02*
X145273891Y-77062962D01*
G75*
G02*
X145029641Y-76818712I0J244250D01*
G01*
X145029641Y-76330212D01*
G75*
G02*
X145273891Y-76085962I244250J0D01*
G01*
X145837391Y-76085962D01*
G75*
G02*
X146081641Y-76330212I0J-244250D01*
G01*
X146081641Y-76818712D01*
G75*
G02*
X145837391Y-77062962I-244250J0D01*
G01*
G37*
G36*
G01*
X145837391Y-78637962D02*
X145273891Y-78637962D01*
G75*
G02*
X145029641Y-78393712I0J244250D01*
G01*
X145029641Y-77905212D01*
G75*
G02*
X145273891Y-77660962I244250J0D01*
G01*
X145837391Y-77660962D01*
G75*
G02*
X146081641Y-77905212I0J-244250D01*
G01*
X146081641Y-78393712D01*
G75*
G02*
X145837391Y-78637962I-244250J0D01*
G01*
G37*
G36*
G01*
X152573132Y-75887962D02*
X151353006Y-75887962D01*
G75*
G02*
X151087069Y-75622025I0J265937D01*
G01*
X151087069Y-74451899D01*
G75*
G02*
X151353006Y-74185962I265937J0D01*
G01*
X152573132Y-74185962D01*
G75*
G02*
X152839069Y-74451899I0J-265937D01*
G01*
X152839069Y-75622025D01*
G75*
G02*
X152573132Y-75887962I-265937J0D01*
G01*
G37*
G36*
G01*
X152573132Y-78737962D02*
X151353006Y-78737962D01*
G75*
G02*
X151087069Y-78472025I0J265937D01*
G01*
X151087069Y-77301899D01*
G75*
G02*
X151353006Y-77035962I265937J0D01*
G01*
X152573132Y-77035962D01*
G75*
G02*
X152839069Y-77301899I0J-265937D01*
G01*
X152839069Y-78472025D01*
G75*
G02*
X152573132Y-78737962I-265937J0D01*
G01*
G37*
G36*
G01*
X151156640Y-79688870D02*
X151156640Y-80652370D01*
G75*
G02*
X150887390Y-80921620I-269250J0D01*
G01*
X150348890Y-80921620D01*
G75*
G02*
X150079640Y-80652370I0J269250D01*
G01*
X150079640Y-79688870D01*
G75*
G02*
X150348890Y-79419620I269250J0D01*
G01*
X150887390Y-79419620D01*
G75*
G02*
X151156640Y-79688870I0J-269250D01*
G01*
G37*
G36*
G01*
X153031640Y-79688870D02*
X153031640Y-80652370D01*
G75*
G02*
X152762390Y-80921620I-269250J0D01*
G01*
X152223890Y-80921620D01*
G75*
G02*
X151954640Y-80652370I0J269250D01*
G01*
X151954640Y-79688870D01*
G75*
G02*
X152223890Y-79419620I269250J0D01*
G01*
X152762390Y-79419620D01*
G75*
G02*
X153031640Y-79688870I0J-269250D01*
G01*
G37*
D14*
G36*
X150731373Y-96068619D02*
G01*
X150731641Y-96069619D01*
X150731641Y-97671619D01*
X150730641Y-97673351D01*
X150729641Y-97673619D01*
X150581641Y-97673619D01*
X150579909Y-97672619D01*
X150579641Y-97671619D01*
X150579641Y-96071619D01*
X149931641Y-96071619D01*
X149931641Y-97671619D01*
X149930641Y-97673351D01*
X149929641Y-97673619D01*
X149781641Y-97673619D01*
X149779909Y-97672619D01*
X149779641Y-97671619D01*
X149779641Y-96071619D01*
X149131641Y-96071619D01*
X149131641Y-97671619D01*
X149130641Y-97673351D01*
X149129641Y-97673619D01*
X148981641Y-97673619D01*
X148979909Y-97672619D01*
X148979641Y-97671619D01*
X148979641Y-96071619D01*
X148331641Y-96071619D01*
X148331641Y-97671619D01*
X148330641Y-97673351D01*
X148329641Y-97673619D01*
X148181641Y-97673619D01*
X148179909Y-97672619D01*
X148179641Y-97671619D01*
X148179641Y-96071619D01*
X147531641Y-96071619D01*
X147531641Y-97671619D01*
X147530641Y-97673351D01*
X147529641Y-97673619D01*
X147381641Y-97673619D01*
X147379909Y-97672619D01*
X147379641Y-97671619D01*
X147379641Y-96071619D01*
X146731641Y-96071619D01*
X146731641Y-97671619D01*
X146730641Y-97673351D01*
X146729641Y-97673619D01*
X146581641Y-97673619D01*
X146579909Y-97672619D01*
X146579641Y-97671619D01*
X146579641Y-96071619D01*
X145931641Y-96071619D01*
X145931641Y-97671619D01*
X145930641Y-97673351D01*
X145929641Y-97673619D01*
X145781641Y-97673619D01*
X145779909Y-97672619D01*
X145779641Y-97671619D01*
X145779641Y-96071619D01*
X145131641Y-96071619D01*
X145131641Y-97671619D01*
X145130641Y-97673351D01*
X145129641Y-97673619D01*
X144981641Y-97673619D01*
X144979909Y-97672619D01*
X144979641Y-97671619D01*
X144979641Y-96071619D01*
X144331641Y-96071619D01*
X144331641Y-97671619D01*
X144330641Y-97673351D01*
X144329641Y-97673619D01*
X144181641Y-97673619D01*
X144179909Y-97672619D01*
X144179641Y-97671619D01*
X144179641Y-96071619D01*
X143531641Y-96071619D01*
X143531641Y-97671619D01*
X143530641Y-97673351D01*
X143529641Y-97673619D01*
X143381641Y-97673619D01*
X143379909Y-97672619D01*
X143379641Y-97671619D01*
X143379641Y-96069619D01*
X143380641Y-96067887D01*
X143381641Y-96067619D01*
X150729641Y-96067619D01*
X150731373Y-96068619D01*
G37*
G36*
X142158373Y-94695619D02*
G01*
X142158641Y-94696619D01*
X142158641Y-94844619D01*
X142157641Y-94846351D01*
X142156641Y-94846619D01*
X140554641Y-94846619D01*
X140552909Y-94845619D01*
X140552641Y-94844619D01*
X140552641Y-94696619D01*
X140553641Y-94694887D01*
X140554641Y-94694619D01*
X142156641Y-94694619D01*
X142158373Y-94695619D01*
G37*
G36*
X153558373Y-94695619D02*
G01*
X153558641Y-94696619D01*
X153558641Y-94844619D01*
X153557641Y-94846351D01*
X153556641Y-94846619D01*
X151954641Y-94846619D01*
X151952909Y-94845619D01*
X151952641Y-94844619D01*
X151952641Y-94696619D01*
X151953641Y-94694887D01*
X151954641Y-94694619D01*
X153556641Y-94694619D01*
X153558373Y-94695619D01*
G37*
G36*
X142158373Y-93895619D02*
G01*
X142158641Y-93896619D01*
X142158641Y-94044619D01*
X142157641Y-94046351D01*
X142156641Y-94046619D01*
X140554641Y-94046619D01*
X140552909Y-94045619D01*
X140552641Y-94044619D01*
X140552641Y-93896619D01*
X140553641Y-93894887D01*
X140554641Y-93894619D01*
X142156641Y-93894619D01*
X142158373Y-93895619D01*
G37*
G36*
X153558373Y-93895619D02*
G01*
X153558641Y-93896619D01*
X153558641Y-94044619D01*
X153557641Y-94046351D01*
X153556641Y-94046619D01*
X151954641Y-94046619D01*
X151952909Y-94045619D01*
X151952641Y-94044619D01*
X151952641Y-93896619D01*
X151953641Y-93894887D01*
X151954641Y-93894619D01*
X153556641Y-93894619D01*
X153558373Y-93895619D01*
G37*
G36*
X153558373Y-93095619D02*
G01*
X153558641Y-93096619D01*
X153558641Y-93244619D01*
X153557641Y-93246351D01*
X153556641Y-93246619D01*
X151954641Y-93246619D01*
X151952909Y-93245619D01*
X151952641Y-93244619D01*
X151952641Y-93096619D01*
X151953641Y-93094887D01*
X151954641Y-93094619D01*
X153556641Y-93094619D01*
X153558373Y-93095619D01*
G37*
G36*
X142158373Y-93095619D02*
G01*
X142158641Y-93096619D01*
X142158641Y-93244619D01*
X142157641Y-93246351D01*
X142156641Y-93246619D01*
X140554641Y-93246619D01*
X140552909Y-93245619D01*
X140552641Y-93244619D01*
X140552641Y-93096619D01*
X140553641Y-93094887D01*
X140554641Y-93094619D01*
X142156641Y-93094619D01*
X142158373Y-93095619D01*
G37*
G36*
X153558373Y-92295619D02*
G01*
X153558641Y-92296619D01*
X153558641Y-92444619D01*
X153557641Y-92446351D01*
X153556641Y-92446619D01*
X151954641Y-92446619D01*
X151952909Y-92445619D01*
X151952641Y-92444619D01*
X151952641Y-92296619D01*
X151953641Y-92294887D01*
X151954641Y-92294619D01*
X153556641Y-92294619D01*
X153558373Y-92295619D01*
G37*
G36*
X142158373Y-92295619D02*
G01*
X142158641Y-92296619D01*
X142158641Y-92444619D01*
X142157641Y-92446351D01*
X142156641Y-92446619D01*
X140554641Y-92446619D01*
X140552909Y-92445619D01*
X140552641Y-92444619D01*
X140552641Y-92296619D01*
X140553641Y-92294887D01*
X140554641Y-92294619D01*
X142156641Y-92294619D01*
X142158373Y-92295619D01*
G37*
G36*
X153558373Y-91495619D02*
G01*
X153558641Y-91496619D01*
X153558641Y-91644619D01*
X153557641Y-91646351D01*
X153556641Y-91646619D01*
X151954641Y-91646619D01*
X151952909Y-91645619D01*
X151952641Y-91644619D01*
X151952641Y-91496619D01*
X151953641Y-91494887D01*
X151954641Y-91494619D01*
X153556641Y-91494619D01*
X153558373Y-91495619D01*
G37*
G36*
X142158373Y-91495619D02*
G01*
X142158641Y-91496619D01*
X142158641Y-91644619D01*
X142157641Y-91646351D01*
X142156641Y-91646619D01*
X140554641Y-91646619D01*
X140552909Y-91645619D01*
X140552641Y-91644619D01*
X140552641Y-91496619D01*
X140553641Y-91494887D01*
X140554641Y-91494619D01*
X142156641Y-91494619D01*
X142158373Y-91495619D01*
G37*
G36*
X142158373Y-90695619D02*
G01*
X142158641Y-90696619D01*
X142158641Y-90844619D01*
X142157641Y-90846351D01*
X142156641Y-90846619D01*
X140554641Y-90846619D01*
X140552909Y-90845619D01*
X140552641Y-90844619D01*
X140552641Y-90696619D01*
X140553641Y-90694887D01*
X140554641Y-90694619D01*
X142156641Y-90694619D01*
X142158373Y-90695619D01*
G37*
G36*
X153558373Y-90695619D02*
G01*
X153558641Y-90696619D01*
X153558641Y-90844619D01*
X153557641Y-90846351D01*
X153556641Y-90846619D01*
X151954641Y-90846619D01*
X151952909Y-90845619D01*
X151952641Y-90844619D01*
X151952641Y-90696619D01*
X151953641Y-90694887D01*
X151954641Y-90694619D01*
X153556641Y-90694619D01*
X153558373Y-90695619D01*
G37*
G36*
X142158373Y-89895619D02*
G01*
X142158641Y-89896619D01*
X142158641Y-90044619D01*
X142157641Y-90046351D01*
X142156641Y-90046619D01*
X140554641Y-90046619D01*
X140552909Y-90045619D01*
X140552641Y-90044619D01*
X140552641Y-89896619D01*
X140553641Y-89894887D01*
X140554641Y-89894619D01*
X142156641Y-89894619D01*
X142158373Y-89895619D01*
G37*
G36*
X153558373Y-89895619D02*
G01*
X153558641Y-89896619D01*
X153558641Y-90044619D01*
X153557641Y-90046351D01*
X153556641Y-90046619D01*
X151954641Y-90046619D01*
X151952909Y-90045619D01*
X151952641Y-90044619D01*
X151952641Y-89896619D01*
X151953641Y-89894887D01*
X151954641Y-89894619D01*
X153556641Y-89894619D01*
X153558373Y-89895619D01*
G37*
G36*
X142158373Y-89095619D02*
G01*
X142158641Y-89096619D01*
X142158641Y-89244619D01*
X142157641Y-89246351D01*
X142156641Y-89246619D01*
X140554641Y-89246619D01*
X140552909Y-89245619D01*
X140552641Y-89244619D01*
X140552641Y-89096619D01*
X140553641Y-89094887D01*
X140554641Y-89094619D01*
X142156641Y-89094619D01*
X142158373Y-89095619D01*
G37*
G36*
X153558373Y-89095619D02*
G01*
X153558641Y-89096619D01*
X153558641Y-89244619D01*
X153557641Y-89246351D01*
X153556641Y-89246619D01*
X151954641Y-89246619D01*
X151952909Y-89245619D01*
X151952641Y-89244619D01*
X151952641Y-89096619D01*
X151953641Y-89094887D01*
X151954641Y-89094619D01*
X153556641Y-89094619D01*
X153558373Y-89095619D01*
G37*
G36*
X142158373Y-88295619D02*
G01*
X142158641Y-88296619D01*
X142158641Y-88444619D01*
X142157641Y-88446351D01*
X142156641Y-88446619D01*
X140554641Y-88446619D01*
X140552909Y-88445619D01*
X140552641Y-88444619D01*
X140552641Y-88296619D01*
X140553641Y-88294887D01*
X140554641Y-88294619D01*
X142156641Y-88294619D01*
X142158373Y-88295619D01*
G37*
G36*
X153558373Y-88295619D02*
G01*
X153558641Y-88296619D01*
X153558641Y-88444619D01*
X153557641Y-88446351D01*
X153556641Y-88446619D01*
X151954641Y-88446619D01*
X151952909Y-88445619D01*
X151952641Y-88444619D01*
X151952641Y-88296619D01*
X151953641Y-88294887D01*
X151954641Y-88294619D01*
X153556641Y-88294619D01*
X153558373Y-88295619D01*
G37*
G36*
X153558373Y-87495619D02*
G01*
X153558641Y-87496619D01*
X153558641Y-87644619D01*
X153557641Y-87646351D01*
X153556641Y-87646619D01*
X151954641Y-87646619D01*
X151952909Y-87645619D01*
X151952641Y-87644619D01*
X151952641Y-87496619D01*
X151953641Y-87494887D01*
X151954641Y-87494619D01*
X153556641Y-87494619D01*
X153558373Y-87495619D01*
G37*
G36*
X142158373Y-87495619D02*
G01*
X142158641Y-87496619D01*
X142158641Y-87644619D01*
X142157641Y-87646351D01*
X142156641Y-87646619D01*
X140554641Y-87646619D01*
X140552909Y-87645619D01*
X140552641Y-87644619D01*
X140552641Y-87496619D01*
X140553641Y-87494887D01*
X140554641Y-87494619D01*
X142156641Y-87494619D01*
X142158373Y-87495619D01*
G37*
G36*
X150731373Y-84668619D02*
G01*
X150731641Y-84669619D01*
X150731641Y-86271619D01*
X150730641Y-86273351D01*
X150729641Y-86273619D01*
X150581641Y-86273619D01*
X150579909Y-86272619D01*
X150579641Y-86271619D01*
X150579641Y-84671619D01*
X149931641Y-84671619D01*
X149931641Y-86271619D01*
X149930641Y-86273351D01*
X149929641Y-86273619D01*
X149781641Y-86273619D01*
X149779909Y-86272619D01*
X149779641Y-86271619D01*
X149779641Y-84671619D01*
X149131641Y-84671619D01*
X149131641Y-86271619D01*
X149130641Y-86273351D01*
X149129641Y-86273619D01*
X148981641Y-86273619D01*
X148979909Y-86272619D01*
X148979641Y-86271619D01*
X148979641Y-84671619D01*
X148331641Y-84671619D01*
X148331641Y-86271619D01*
X148330641Y-86273351D01*
X148329641Y-86273619D01*
X148181641Y-86273619D01*
X148179909Y-86272619D01*
X148179641Y-86271619D01*
X148179641Y-84671619D01*
X147531641Y-84671619D01*
X147531641Y-86271619D01*
X147530641Y-86273351D01*
X147529641Y-86273619D01*
X147381641Y-86273619D01*
X147379909Y-86272619D01*
X147379641Y-86271619D01*
X147379641Y-84671619D01*
X146731641Y-84671619D01*
X146731641Y-86271619D01*
X146730641Y-86273351D01*
X146729641Y-86273619D01*
X146581641Y-86273619D01*
X146579909Y-86272619D01*
X146579641Y-86271619D01*
X146579641Y-84671619D01*
X145931641Y-84671619D01*
X145931641Y-86271619D01*
X145930641Y-86273351D01*
X145929641Y-86273619D01*
X145781641Y-86273619D01*
X145779909Y-86272619D01*
X145779641Y-86271619D01*
X145779641Y-84671619D01*
X145131641Y-84671619D01*
X145131641Y-86271619D01*
X145130641Y-86273351D01*
X145129641Y-86273619D01*
X144981641Y-86273619D01*
X144979909Y-86272619D01*
X144979641Y-86271619D01*
X144979641Y-84671619D01*
X144331641Y-84671619D01*
X144331641Y-86271619D01*
X144330641Y-86273351D01*
X144329641Y-86273619D01*
X144181641Y-86273619D01*
X144179909Y-86272619D01*
X144179641Y-86271619D01*
X144179641Y-84671619D01*
X143531641Y-84671619D01*
X143531641Y-86271619D01*
X143530641Y-86273351D01*
X143529641Y-86273619D01*
X143381641Y-86273619D01*
X143379909Y-86272619D01*
X143379641Y-86271619D01*
X143379641Y-84669619D01*
X143380641Y-84667887D01*
X143381641Y-84667619D01*
X150729641Y-84667619D01*
X150731373Y-84668619D01*
G37*
M02*
