M48
; DRILL file {KiCad 5.1.8} date Mon Mar  1 17:08:39 2021
; FORMAT={-:-/ absolute / inch / decimal}
; #@! TF.CreationDate,2021-03-01T17:08:39-06:00
; #@! TF.GenerationSoftware,Kicad,Pcbnew,5.1.8
; #@! TF.FileFunction,NonPlated,1,2,NPTH
FMAT,2
INCH
T1C0.0256
T2C0.0394
T3C0.0669
T4C0.1339
%
G90
G05
T1
X5.4147Y-2.3512
X5.6423Y-2.3512
T2
X4.7985Y-2.7682
X6.2552Y-2.7682
X6.2552Y-4.5989
T3
X7.6732Y-4.7944
X8.0997Y-4.7192
X9.2745Y-2.6531
X9.701Y-2.5779
X9.9724Y-2.5301
X10.3989Y-2.4549
X7.9402Y-3.2482
X8.3667Y-3.173
X0.6583Y-2.4547
X1.0848Y-2.5299
X7.824Y-2.5891
X8.2505Y-2.5139
X1.3562Y-2.5778
X1.7827Y-2.653
X7.1466Y-2.8284
X7.5731Y-2.7532
X4.0657Y-3.5353
X4.4922Y-3.6105
X2.0883Y-2.507
X2.5148Y-2.5822
X3.6554Y-4.8421
X4.0819Y-4.9173
X0.5421Y-3.1138
X0.9686Y-3.189
X8.6587Y-3.2415
X9.0851Y-3.1663
X8.5424Y-2.5823
X8.9689Y-2.5071
X3.4841Y-2.7531
X3.9106Y-2.8283
X6.565Y-3.6106
X6.9915Y-3.5354
X6.9753Y-4.9175
X7.4018Y-4.8423
X7.2629Y-3.4876
X7.6894Y-3.4124
X2.8067Y-2.5137
X3.2332Y-2.5889
X2.9575Y-4.7191
X3.384Y-4.7943
X6.4487Y-2.9515
X6.8752Y-2.8763
X6.2774Y-5.0406
X6.7039Y-4.9654
X2.6905Y-3.1728
X3.117Y-3.248
X1.24Y-3.2369
X1.6665Y-3.3121
X9.3907Y-3.3123
X9.8172Y-3.2371
X10.0886Y-3.1892
X10.5151Y-3.114
X4.3533Y-4.9652
X4.7798Y-5.0404
X4.182Y-2.8761
X4.6085Y-2.9514
X1.9721Y-3.1661
X2.3985Y-3.2413
X3.3678Y-3.4122
X3.7943Y-3.4874
T4
X6.662Y-2.9139
X6.4907Y-5.003
X2.9037Y-3.2104
X1.4532Y-3.2745
X9.604Y-3.2747
X10.3019Y-3.1516
X4.5665Y-5.0028
X4.3952Y-2.9138
X2.1853Y-3.2037
X3.5811Y-3.4498
X7.8864Y-4.7568
X9.4878Y-2.6155
X10.1856Y-2.4925
X8.1535Y-3.2106
X0.8715Y-2.4923
X8.0373Y-2.5515
X1.5694Y-2.6154
X7.3599Y-2.7908
X4.279Y-3.5729
X2.3015Y-2.5446
X3.8687Y-4.8797
X0.7553Y-3.1514
X8.8719Y-3.2039
X8.7557Y-2.5447
X3.6973Y-2.7907
X6.7782Y-3.573
X7.1885Y-4.8799
X7.4761Y-3.45
X3.0199Y-2.5513
X3.1708Y-4.7567
T0
M30
