G04 #@! TF.GenerationSoftware,KiCad,Pcbnew,5.1.8*
G04 #@! TF.CreationDate,2021-03-01T17:51:10-06:00*
G04 #@! TF.ProjectId,steno,7374656e-6f2e-46b6-9963-61645f706362,rev?*
G04 #@! TF.SameCoordinates,Original*
G04 #@! TF.FileFunction,Legend,Bot*
G04 #@! TF.FilePolarity,Positive*
%FSLAX46Y46*%
G04 Gerber Fmt 4.6, Leading zero omitted, Abs format (unit mm)*
G04 Created by KiCad (PCBNEW 5.1.8) date 2021-03-01 17:51:10*
%MOMM*%
%LPD*%
G01*
G04 APERTURE LIST*
%ADD10C,0.150000*%
%ADD11C,0.120000*%
G04 APERTURE END LIST*
D10*
X148466682Y-127790327D02*
X148279182Y-126290327D01*
X147707754Y-126290327D01*
X147573825Y-126361756D01*
X147511325Y-126433184D01*
X147457754Y-126576041D01*
X147484539Y-126790327D01*
X147573825Y-126933184D01*
X147654182Y-127004613D01*
X147805968Y-127076041D01*
X148377397Y-127076041D01*
X146198825Y-126790327D02*
X146323825Y-127790327D01*
X146841682Y-126790327D02*
X146939897Y-127576041D01*
X146886325Y-127718898D01*
X146752397Y-127790327D01*
X146538111Y-127790327D01*
X146386325Y-127718898D01*
X146305968Y-127647470D01*
X145609539Y-127790327D02*
X145422039Y-126290327D01*
X145493468Y-126861756D02*
X145341682Y-126790327D01*
X145055968Y-126790327D01*
X144922039Y-126861756D01*
X144859539Y-126933184D01*
X144805968Y-127076041D01*
X144859539Y-127504613D01*
X144948825Y-127647470D01*
X145029182Y-127718898D01*
X145180968Y-127790327D01*
X145466682Y-127790327D01*
X145600611Y-127718898D01*
X144038111Y-127790327D02*
X144172039Y-127718898D01*
X144225611Y-127576041D01*
X144064897Y-126290327D01*
X143466682Y-127790327D02*
X143341682Y-126790327D01*
X143279182Y-126290327D02*
X143359539Y-126361756D01*
X143297039Y-126433184D01*
X143216682Y-126361756D01*
X143279182Y-126290327D01*
X143297039Y-126433184D01*
X142100611Y-127718898D02*
X142252397Y-127790327D01*
X142538111Y-127790327D01*
X142672039Y-127718898D01*
X142734539Y-127647470D01*
X142788111Y-127504613D01*
X142734539Y-127076041D01*
X142645254Y-126933184D01*
X142564897Y-126861756D01*
X142413111Y-126790327D01*
X142127397Y-126790327D01*
X141993468Y-126861756D01*
X140413111Y-126790327D02*
X139841682Y-126790327D01*
X140136325Y-126290327D02*
X140297039Y-127576041D01*
X140243468Y-127718898D01*
X140109539Y-127790327D01*
X139966682Y-127790327D01*
X138886325Y-127718898D02*
X139038111Y-127790327D01*
X139323825Y-127790327D01*
X139457754Y-127718898D01*
X139511325Y-127576041D01*
X139439897Y-127004613D01*
X139350611Y-126861756D01*
X139198825Y-126790327D01*
X138913111Y-126790327D01*
X138779182Y-126861756D01*
X138725611Y-127004613D01*
X138743468Y-127147470D01*
X139475611Y-127290327D01*
X138243468Y-127718898D02*
X138109539Y-127790327D01*
X137823825Y-127790327D01*
X137672039Y-127718898D01*
X137582754Y-127576041D01*
X137573825Y-127504613D01*
X137627397Y-127361756D01*
X137761325Y-127290327D01*
X137975611Y-127290327D01*
X138109539Y-127218898D01*
X138163111Y-127076041D01*
X138154182Y-127004613D01*
X138064897Y-126861756D01*
X137913111Y-126790327D01*
X137698825Y-126790327D01*
X137564897Y-126861756D01*
X137055968Y-126790327D02*
X136484539Y-126790327D01*
X136779182Y-126290327D02*
X136939897Y-127576041D01*
X136886325Y-127718898D01*
X136752397Y-127790327D01*
X136609539Y-127790327D01*
X134913111Y-126790327D02*
X133841682Y-126790327D01*
X134404182Y-126147470D02*
X135073825Y-128076041D01*
X134064897Y-127433184D02*
X135136325Y-127433184D01*
X134573825Y-128076041D02*
X133904182Y-126147470D01*
X132680968Y-127790327D02*
X133538111Y-127790327D01*
X133109539Y-127790327D02*
X132922039Y-126290327D01*
X133091682Y-126504613D01*
X133252397Y-126647470D01*
X133404182Y-126718898D01*
D11*
X155465654Y-110411756D02*
X154665654Y-110411753D01*
X155465654Y-105911756D02*
X155465654Y-110411756D01*
X154665654Y-105911754D02*
X155465654Y-105911756D01*
X144674475Y-58521489D02*
G75*
G03*
X144674475Y-58521489I-4000001J0D01*
G01*
X79641061Y-124182236D02*
G75*
G03*
X79641061Y-124182236I-3500002J0D01*
G01*
X208067253Y-124164568D02*
G75*
G03*
X208067253Y-124164568I-3500001J0D01*
G01*
X143774475Y-133721487D02*
G75*
G03*
X143774475Y-133721487I-3500004J0D01*
G01*
X144274472Y-133721487D02*
G75*
G03*
X144274472Y-133721487I-4000001J0D01*
G01*
X31218295Y-55369331D02*
G75*
G03*
X31218295Y-55369331I-3500001J0D01*
G01*
X31718295Y-55369331D02*
G75*
G03*
X31718295Y-55369331I-4000001J0D01*
G01*
X144174472Y-58521490D02*
G75*
G03*
X144174472Y-58521490I-3499999J0D01*
G01*
X255990015Y-56351661D02*
G75*
G03*
X255990015Y-56351661I-3499996J0D01*
G01*
X256490018Y-56351661D02*
G75*
G03*
X256490018Y-56351661I-3999999J0D01*
G01*
X157274473Y-80071490D02*
X154074473Y-80071490D01*
X154074473Y-80071490D02*
X154074473Y-76171490D01*
X142684474Y-65421487D02*
X142684474Y-67221487D01*
X139464474Y-67221487D02*
X139464474Y-64771487D01*
X138696974Y-65958745D02*
X138696974Y-65484229D01*
X137651974Y-65958745D02*
X137651974Y-65484229D01*
X143651974Y-65958745D02*
X143651974Y-65484229D01*
X144696974Y-65958745D02*
X144696974Y-65484229D01*
X143774474Y-100246487D02*
X141024474Y-100246487D01*
X141024474Y-100246487D02*
X141024474Y-99986487D01*
X143774474Y-100246487D02*
X146524474Y-100246487D01*
X146524474Y-100246487D02*
X146524474Y-99986487D01*
X143774474Y-94796487D02*
X141024474Y-94796487D01*
X141024474Y-94796487D02*
X141024474Y-95056487D01*
X143774474Y-94796487D02*
X146524474Y-94796487D01*
X146524474Y-94796487D02*
X146524474Y-95056487D01*
X146524474Y-95056487D02*
X148174474Y-95056487D01*
X144615896Y-68011487D02*
X145133052Y-68011487D01*
X144615896Y-69431487D02*
X145133052Y-69431487D01*
X149837216Y-105398988D02*
X150311732Y-105398988D01*
X149837216Y-106443988D02*
X150311732Y-106443988D01*
X149837216Y-106898988D02*
X150311732Y-106898988D01*
X149837216Y-107943988D02*
X150311732Y-107943988D01*
X149837215Y-108398987D02*
X150311731Y-108398987D01*
X149837215Y-109443987D02*
X150311731Y-109443987D01*
X149837217Y-109898988D02*
X150311733Y-109898988D01*
X149837217Y-110943988D02*
X150311733Y-110943988D01*
X126114474Y-99121489D02*
X126114474Y-95671489D01*
X126114474Y-99121489D02*
X126114474Y-101071489D01*
X136234474Y-99121489D02*
X136234474Y-97171489D01*
X136234474Y-99121489D02*
X136234474Y-101071489D01*
X142275656Y-70237767D02*
X142275656Y-69912209D01*
X141255656Y-70237767D02*
X141255656Y-69912209D01*
X134539474Y-73848552D02*
X134539474Y-73394424D01*
X136009474Y-73848552D02*
X136009474Y-73394424D01*
X134284474Y-81958709D02*
X134284474Y-82284267D01*
X133264474Y-81958709D02*
X133264474Y-82284267D01*
X147444679Y-87131488D02*
X147119121Y-87131488D01*
X147444679Y-86111488D02*
X147119121Y-86111488D01*
X132864472Y-78970332D02*
X132864472Y-78453176D01*
X134284472Y-78970332D02*
X134284472Y-78453176D01*
X137264474Y-96580066D02*
X137264474Y-96062910D01*
X138684474Y-96580066D02*
X138684474Y-96062910D01*
X130315894Y-78331489D02*
X130833050Y-78331489D01*
X130315894Y-76911489D02*
X130833050Y-76911489D01*
X128284475Y-80780066D02*
X128284475Y-80262910D01*
X126864475Y-80780066D02*
X126864475Y-80262910D01*
X151784474Y-76284267D02*
X151784474Y-75958709D01*
X150764474Y-76284267D02*
X150764474Y-75958709D01*
X155837253Y-74611487D02*
X155511695Y-74611487D01*
X155837253Y-75631487D02*
X155511695Y-75631487D01*
X155511693Y-81631487D02*
X155837251Y-81631487D01*
X155511693Y-80611487D02*
X155837251Y-80611487D01*
X131334473Y-79041486D02*
X131334473Y-79971486D01*
X131334473Y-82201486D02*
X131334473Y-81271486D01*
X131334473Y-82201486D02*
X129174473Y-82201486D01*
X131334473Y-79041486D02*
X129874473Y-79041486D01*
D10*
X137899474Y-73446487D02*
X138474474Y-73446487D01*
X137899474Y-83796487D02*
X138574474Y-83796487D01*
X148249474Y-83796487D02*
X147574474Y-83796487D01*
X148249474Y-73446487D02*
X147574474Y-73446487D01*
X137899474Y-73446487D02*
X137899474Y-74121487D01*
X148249474Y-73446487D02*
X148249474Y-74121487D01*
X148249474Y-83796487D02*
X148249474Y-83121487D01*
X137899474Y-83796487D02*
X137899474Y-83121487D01*
X138474474Y-73446487D02*
X138474474Y-72171487D01*
D11*
X130315892Y-84331487D02*
X130833048Y-84331487D01*
X130315892Y-82911487D02*
X130833048Y-82911487D01*
X140875655Y-70237768D02*
X140875655Y-69912210D01*
X139855655Y-70237768D02*
X139855655Y-69912210D01*
X150115896Y-69531488D02*
X150633052Y-69531488D01*
X150115896Y-68111488D02*
X150633052Y-68111488D01*
X148164929Y-64811488D02*
X147184019Y-64811488D01*
X148164929Y-66631488D02*
X147184019Y-66631488D01*
X150115895Y-70111487D02*
X150633051Y-70111487D01*
X150115895Y-71531487D02*
X150633051Y-71531487D01*
D10*
X158100663Y-77645299D02*
X158576853Y-77645299D01*
X157576853Y-77311966D02*
X158100663Y-77645299D01*
X157576853Y-77978632D01*
X158576853Y-78835775D02*
X158576853Y-78264347D01*
X158576853Y-78550061D02*
X157576853Y-78550061D01*
X157719711Y-78454823D01*
X157814949Y-78359585D01*
X157862568Y-78264347D01*
X143036378Y-63073867D02*
X143036378Y-63883391D01*
X142988759Y-63978629D01*
X142941140Y-64026248D01*
X142845902Y-64073867D01*
X142655426Y-64073867D01*
X142560188Y-64026248D01*
X142512569Y-63978629D01*
X142464950Y-63883391D01*
X142464950Y-63073867D01*
X141560188Y-63073867D02*
X141750664Y-63073867D01*
X141845902Y-63121487D01*
X141893521Y-63169106D01*
X141988759Y-63311963D01*
X142036378Y-63502439D01*
X142036378Y-63883391D01*
X141988759Y-63978629D01*
X141941140Y-64026248D01*
X141845902Y-64073867D01*
X141655426Y-64073867D01*
X141560188Y-64026248D01*
X141512569Y-63978629D01*
X141464950Y-63883391D01*
X141464950Y-63645296D01*
X141512569Y-63550058D01*
X141560188Y-63502439D01*
X141655426Y-63454820D01*
X141845902Y-63454820D01*
X141941140Y-63502439D01*
X141988759Y-63550058D01*
X142036378Y-63645296D01*
X136617331Y-66973867D02*
X136950664Y-66497677D01*
X137188759Y-66973867D02*
X137188759Y-65973867D01*
X136807807Y-65973867D01*
X136712569Y-66021487D01*
X136664950Y-66069106D01*
X136617331Y-66164344D01*
X136617331Y-66307201D01*
X136664950Y-66402439D01*
X136712569Y-66450058D01*
X136807807Y-66497677D01*
X137188759Y-66497677D01*
X135664950Y-66973867D02*
X136236378Y-66973867D01*
X135950664Y-66973867D02*
X135950664Y-65973867D01*
X136045902Y-66116725D01*
X136141140Y-66211963D01*
X136236378Y-66259582D01*
X135283997Y-66069106D02*
X135236378Y-66021487D01*
X135141140Y-65973867D01*
X134903045Y-65973867D01*
X134807807Y-66021487D01*
X134760188Y-66069106D01*
X134712569Y-66164344D01*
X134712569Y-66259582D01*
X134760188Y-66402439D01*
X135331616Y-66973867D01*
X134712569Y-66973867D01*
X136655426Y-64673867D02*
X137131616Y-64673867D01*
X137179235Y-65150058D01*
X137131616Y-65102439D01*
X137036378Y-65054820D01*
X136798283Y-65054820D01*
X136703045Y-65102439D01*
X136655426Y-65150058D01*
X136607807Y-65245296D01*
X136607807Y-65483391D01*
X136655426Y-65578629D01*
X136703045Y-65626248D01*
X136798283Y-65673867D01*
X137036378Y-65673867D01*
X137131616Y-65626248D01*
X137179235Y-65578629D01*
X136179235Y-65578629D02*
X136131616Y-65626248D01*
X136179235Y-65673867D01*
X136226854Y-65626248D01*
X136179235Y-65578629D01*
X136179235Y-65673867D01*
X135179235Y-65673867D02*
X135750664Y-65673867D01*
X135464950Y-65673867D02*
X135464950Y-64673867D01*
X135560188Y-64816725D01*
X135655426Y-64911963D01*
X135750664Y-64959582D01*
X134750664Y-65673867D02*
X134750664Y-64673867D01*
X134655426Y-65292915D02*
X134369712Y-65673867D01*
X134369712Y-65007201D02*
X134750664Y-65388153D01*
X146817331Y-64373867D02*
X147150664Y-63897677D01*
X147388759Y-64373867D02*
X147388759Y-63373867D01*
X147007807Y-63373867D01*
X146912569Y-63421487D01*
X146864950Y-63469106D01*
X146817331Y-63564344D01*
X146817331Y-63707201D01*
X146864950Y-63802439D01*
X146912569Y-63850058D01*
X147007807Y-63897677D01*
X147388759Y-63897677D01*
X145864950Y-64373867D02*
X146436378Y-64373867D01*
X146150664Y-64373867D02*
X146150664Y-63373867D01*
X146245902Y-63516725D01*
X146341140Y-63611963D01*
X146436378Y-63659582D01*
X144912569Y-64373867D02*
X145483997Y-64373867D01*
X145198283Y-64373867D02*
X145198283Y-63373867D01*
X145293521Y-63516725D01*
X145388759Y-63611963D01*
X145483997Y-63659582D01*
X147355426Y-62173867D02*
X147831616Y-62173867D01*
X147879235Y-62650058D01*
X147831616Y-62602439D01*
X147736378Y-62554820D01*
X147498283Y-62554820D01*
X147403045Y-62602439D01*
X147355426Y-62650058D01*
X147307807Y-62745296D01*
X147307807Y-62983391D01*
X147355426Y-63078629D01*
X147403045Y-63126248D01*
X147498283Y-63173867D01*
X147736378Y-63173867D01*
X147831616Y-63126248D01*
X147879235Y-63078629D01*
X146879235Y-63078629D02*
X146831616Y-63126248D01*
X146879235Y-63173867D01*
X146926854Y-63126248D01*
X146879235Y-63078629D01*
X146879235Y-63173867D01*
X145879235Y-63173867D02*
X146450664Y-63173867D01*
X146164950Y-63173867D02*
X146164950Y-62173867D01*
X146260188Y-62316725D01*
X146355426Y-62411963D01*
X146450664Y-62459582D01*
X145450664Y-63173867D02*
X145450664Y-62173867D01*
X145355426Y-62792915D02*
X145069712Y-63173867D01*
X145069712Y-62507201D02*
X145450664Y-62888153D01*
X144520131Y-100572789D02*
X144520131Y-101382313D01*
X144472512Y-101477551D01*
X144424893Y-101525170D01*
X144329655Y-101572789D01*
X144139179Y-101572789D01*
X144043941Y-101525170D01*
X143996322Y-101477551D01*
X143948703Y-101382313D01*
X143948703Y-100572789D01*
X143520131Y-100668028D02*
X143472512Y-100620409D01*
X143377274Y-100572789D01*
X143139179Y-100572789D01*
X143043941Y-100620409D01*
X142996322Y-100668028D01*
X142948703Y-100763266D01*
X142948703Y-100858504D01*
X142996322Y-101001361D01*
X143567750Y-101572789D01*
X142948703Y-101572789D01*
X147741140Y-70778629D02*
X147788759Y-70826248D01*
X147931616Y-70873867D01*
X148026854Y-70873867D01*
X148169712Y-70826248D01*
X148264950Y-70731010D01*
X148312569Y-70635772D01*
X148360188Y-70445296D01*
X148360188Y-70302439D01*
X148312569Y-70111963D01*
X148264950Y-70016725D01*
X148169712Y-69921487D01*
X148026854Y-69873867D01*
X147931616Y-69873867D01*
X147788759Y-69921487D01*
X147741140Y-69969106D01*
X146883997Y-70207201D02*
X146883997Y-70873867D01*
X147122093Y-69826248D02*
X147360188Y-70540534D01*
X146741140Y-70540534D01*
X148169712Y-69673867D02*
X148741140Y-69673867D01*
X148455426Y-69673867D02*
X148455426Y-68673867D01*
X148550664Y-68816725D01*
X148645902Y-68911963D01*
X148741140Y-68959582D01*
X147312569Y-69007201D02*
X147312569Y-69673867D01*
X147741140Y-69007201D02*
X147741140Y-69531010D01*
X147693521Y-69626248D01*
X147598283Y-69673867D01*
X147455426Y-69673867D01*
X147360188Y-69626248D01*
X147312569Y-69578629D01*
X146503045Y-69150058D02*
X146836378Y-69150058D01*
X146836378Y-69673867D02*
X146836378Y-68673867D01*
X146360188Y-68673867D01*
X153817331Y-106373868D02*
X154150664Y-105897678D01*
X154388759Y-106373868D02*
X154388759Y-105373868D01*
X154007807Y-105373868D01*
X153912569Y-105421488D01*
X153864950Y-105469107D01*
X153817331Y-105564345D01*
X153817331Y-105707202D01*
X153864950Y-105802440D01*
X153912569Y-105850059D01*
X154007807Y-105897678D01*
X154388759Y-105897678D01*
X152864950Y-106373868D02*
X153436378Y-106373868D01*
X153150664Y-106373868D02*
X153150664Y-105373868D01*
X153245902Y-105516726D01*
X153341140Y-105611964D01*
X153436378Y-105659583D01*
X152245902Y-105373868D02*
X152150664Y-105373868D01*
X152055426Y-105421488D01*
X152007807Y-105469107D01*
X151960188Y-105564345D01*
X151912569Y-105754821D01*
X151912569Y-105992916D01*
X151960188Y-106183392D01*
X152007807Y-106278630D01*
X152055426Y-106326249D01*
X152150664Y-106373868D01*
X152245902Y-106373868D01*
X152341140Y-106326249D01*
X152388759Y-106278630D01*
X152436378Y-106183392D01*
X152483997Y-105992916D01*
X152483997Y-105754821D01*
X152436378Y-105564345D01*
X152388759Y-105469107D01*
X152341140Y-105421488D01*
X152245902Y-105373868D01*
X158196321Y-107768030D02*
X158148702Y-107720411D01*
X158053464Y-107672791D01*
X157815368Y-107672791D01*
X157720130Y-107720411D01*
X157672511Y-107768030D01*
X157624892Y-107863268D01*
X157624892Y-107958506D01*
X157672511Y-108101363D01*
X158243940Y-108672791D01*
X157624892Y-108672791D01*
X157243940Y-107768030D02*
X157196321Y-107720411D01*
X157101083Y-107672791D01*
X156862987Y-107672791D01*
X156767749Y-107720411D01*
X156720130Y-107768030D01*
X156672511Y-107863268D01*
X156672511Y-107958506D01*
X156720130Y-108101363D01*
X157291559Y-108672791D01*
X156672511Y-108672791D01*
X156053464Y-107672791D02*
X155958226Y-107672791D01*
X155862987Y-107720411D01*
X155815368Y-107768030D01*
X155767749Y-107863268D01*
X155720130Y-108053744D01*
X155720130Y-108291839D01*
X155767749Y-108482315D01*
X155815368Y-108577553D01*
X155862987Y-108625172D01*
X155958226Y-108672791D01*
X156053464Y-108672791D01*
X156148702Y-108625172D01*
X156196321Y-108577553D01*
X156243940Y-108482315D01*
X156291559Y-108291839D01*
X156291559Y-108053744D01*
X156243940Y-107863268D01*
X156196321Y-107768030D01*
X156148702Y-107720411D01*
X156053464Y-107672791D01*
X153841140Y-107873868D02*
X154174474Y-107397678D01*
X154412569Y-107873868D02*
X154412569Y-106873868D01*
X154031616Y-106873868D01*
X153936378Y-106921488D01*
X153888759Y-106969107D01*
X153841140Y-107064345D01*
X153841140Y-107207202D01*
X153888759Y-107302440D01*
X153936378Y-107350059D01*
X154031616Y-107397678D01*
X154412569Y-107397678D01*
X153364950Y-107873868D02*
X153174474Y-107873868D01*
X153079235Y-107826249D01*
X153031616Y-107778630D01*
X152936378Y-107635773D01*
X152888759Y-107445297D01*
X152888759Y-107064345D01*
X152936378Y-106969107D01*
X152983997Y-106921488D01*
X153079235Y-106873868D01*
X153269712Y-106873868D01*
X153364950Y-106921488D01*
X153412569Y-106969107D01*
X153460188Y-107064345D01*
X153460188Y-107302440D01*
X153412569Y-107397678D01*
X153364950Y-107445297D01*
X153269712Y-107492916D01*
X153079235Y-107492916D01*
X152983997Y-107445297D01*
X152936378Y-107397678D01*
X152888759Y-107302440D01*
X153841139Y-109373867D02*
X154174473Y-108897677D01*
X154412568Y-109373867D02*
X154412568Y-108373867D01*
X154031615Y-108373867D01*
X153936377Y-108421487D01*
X153888758Y-108469106D01*
X153841139Y-108564344D01*
X153841139Y-108707201D01*
X153888758Y-108802439D01*
X153936377Y-108850058D01*
X154031615Y-108897677D01*
X154412568Y-108897677D01*
X153269711Y-108802439D02*
X153364949Y-108754820D01*
X153412568Y-108707201D01*
X153460187Y-108611963D01*
X153460187Y-108564344D01*
X153412568Y-108469106D01*
X153364949Y-108421487D01*
X153269711Y-108373867D01*
X153079234Y-108373867D01*
X152983996Y-108421487D01*
X152936377Y-108469106D01*
X152888758Y-108564344D01*
X152888758Y-108611963D01*
X152936377Y-108707201D01*
X152983996Y-108754820D01*
X153079234Y-108802439D01*
X153269711Y-108802439D01*
X153364949Y-108850058D01*
X153412568Y-108897677D01*
X153460187Y-108992915D01*
X153460187Y-109183391D01*
X153412568Y-109278629D01*
X153364949Y-109326248D01*
X153269711Y-109373867D01*
X153079234Y-109373867D01*
X152983996Y-109326248D01*
X152936377Y-109278629D01*
X152888758Y-109183391D01*
X152888758Y-108992915D01*
X152936377Y-108897677D01*
X152983996Y-108850058D01*
X153079234Y-108802439D01*
X153841141Y-110873868D02*
X154174475Y-110397678D01*
X154412570Y-110873868D02*
X154412570Y-109873868D01*
X154031617Y-109873868D01*
X153936379Y-109921488D01*
X153888760Y-109969107D01*
X153841141Y-110064345D01*
X153841141Y-110207202D01*
X153888760Y-110302440D01*
X153936379Y-110350059D01*
X154031617Y-110397678D01*
X154412570Y-110397678D01*
X153507808Y-109873868D02*
X152841141Y-109873868D01*
X153269713Y-110873868D01*
X132412569Y-94407203D02*
X132412569Y-95073869D01*
X132650664Y-94026250D02*
X132888759Y-94740536D01*
X132269712Y-94740536D01*
X131698283Y-94073869D02*
X131603045Y-94073869D01*
X131507807Y-94121489D01*
X131460188Y-94169108D01*
X131412569Y-94264346D01*
X131364950Y-94454822D01*
X131364950Y-94692917D01*
X131412569Y-94883393D01*
X131460188Y-94978631D01*
X131507807Y-95026250D01*
X131603045Y-95073869D01*
X131698283Y-95073869D01*
X131793521Y-95026250D01*
X131841140Y-94978631D01*
X131888759Y-94883393D01*
X131936378Y-94692917D01*
X131936378Y-94454822D01*
X131888759Y-94264346D01*
X131841140Y-94169108D01*
X131793521Y-94121489D01*
X131698283Y-94073869D01*
X130460188Y-94073869D02*
X130936378Y-94073869D01*
X130983997Y-94550060D01*
X130936378Y-94502441D01*
X130841140Y-94454822D01*
X130603045Y-94454822D01*
X130507807Y-94502441D01*
X130460188Y-94550060D01*
X130412569Y-94645298D01*
X130412569Y-94883393D01*
X130460188Y-94978631D01*
X130507807Y-95026250D01*
X130603045Y-95073869D01*
X130841140Y-95073869D01*
X130936378Y-95026250D01*
X130983997Y-94978631D01*
X129793521Y-94073869D02*
X129698283Y-94073869D01*
X129603045Y-94121489D01*
X129555426Y-94169108D01*
X129507807Y-94264346D01*
X129460188Y-94454822D01*
X129460188Y-94692917D01*
X129507807Y-94883393D01*
X129555426Y-94978631D01*
X129603045Y-95026250D01*
X129698283Y-95073869D01*
X129793521Y-95073869D01*
X129888759Y-95026250D01*
X129936378Y-94978631D01*
X129983997Y-94883393D01*
X130031616Y-94692917D01*
X130031616Y-94454822D01*
X129983997Y-94264346D01*
X129936378Y-94169108D01*
X129888759Y-94121489D01*
X129793521Y-94073869D01*
X138741140Y-71573867D02*
X139074474Y-71097677D01*
X139312569Y-71573867D02*
X139312569Y-70573867D01*
X138931616Y-70573867D01*
X138836378Y-70621487D01*
X138788759Y-70669106D01*
X138741140Y-70764344D01*
X138741140Y-70907201D01*
X138788759Y-71002439D01*
X138836378Y-71050058D01*
X138931616Y-71097677D01*
X139312569Y-71097677D01*
X138360188Y-70669106D02*
X138312569Y-70621487D01*
X138217331Y-70573867D01*
X137979235Y-70573867D01*
X137883997Y-70621487D01*
X137836378Y-70669106D01*
X137788759Y-70764344D01*
X137788759Y-70859582D01*
X137836378Y-71002439D01*
X138407807Y-71573867D01*
X137788759Y-71573867D01*
X139346608Y-68759372D02*
X139298989Y-68711753D01*
X139203751Y-68664133D01*
X138965656Y-68664133D01*
X138870417Y-68711753D01*
X138822798Y-68759372D01*
X138775179Y-68854610D01*
X138775179Y-68949848D01*
X138822798Y-69092705D01*
X139394227Y-69664133D01*
X138775179Y-69664133D01*
X138394227Y-68759372D02*
X138346608Y-68711753D01*
X138251370Y-68664133D01*
X138013275Y-68664133D01*
X137918036Y-68711753D01*
X137870417Y-68759372D01*
X137822798Y-68854610D01*
X137822798Y-68949848D01*
X137870417Y-69092705D01*
X138441846Y-69664133D01*
X137822798Y-69664133D01*
X133141140Y-74273868D02*
X133474474Y-73797678D01*
X133712569Y-74273868D02*
X133712569Y-73273868D01*
X133331616Y-73273868D01*
X133236378Y-73321488D01*
X133188759Y-73369107D01*
X133141140Y-73464345D01*
X133141140Y-73607202D01*
X133188759Y-73702440D01*
X133236378Y-73750059D01*
X133331616Y-73797678D01*
X133712569Y-73797678D01*
X132283997Y-73273868D02*
X132474474Y-73273868D01*
X132569712Y-73321488D01*
X132617331Y-73369107D01*
X132712569Y-73511964D01*
X132760188Y-73702440D01*
X132760188Y-74083392D01*
X132712569Y-74178630D01*
X132664950Y-74226249D01*
X132569712Y-74273868D01*
X132379235Y-74273868D01*
X132283997Y-74226249D01*
X132236378Y-74178630D01*
X132188759Y-74083392D01*
X132188759Y-73845297D01*
X132236378Y-73750059D01*
X132283997Y-73702440D01*
X132379235Y-73654821D01*
X132569712Y-73654821D01*
X132664950Y-73702440D01*
X132712569Y-73750059D01*
X132760188Y-73845297D01*
X133469712Y-72973868D02*
X134041140Y-72973868D01*
X133755426Y-72973868D02*
X133755426Y-71973868D01*
X133850664Y-72116726D01*
X133945902Y-72211964D01*
X134041140Y-72259583D01*
X132850664Y-71973868D02*
X132755426Y-71973868D01*
X132660188Y-72021488D01*
X132612569Y-72069107D01*
X132564950Y-72164345D01*
X132517331Y-72354821D01*
X132517331Y-72592916D01*
X132564950Y-72783392D01*
X132612569Y-72878630D01*
X132660188Y-72926249D01*
X132755426Y-72973868D01*
X132850664Y-72973868D01*
X132945902Y-72926249D01*
X132993521Y-72878630D01*
X133041140Y-72783392D01*
X133088759Y-72592916D01*
X133088759Y-72354821D01*
X133041140Y-72164345D01*
X132993521Y-72069107D01*
X132945902Y-72021488D01*
X132850664Y-71973868D01*
X132088759Y-72973868D02*
X132088759Y-71973868D01*
X131993521Y-72592916D02*
X131707807Y-72973868D01*
X131707807Y-72307202D02*
X132088759Y-72688154D01*
X134141140Y-84978630D02*
X134188759Y-85026249D01*
X134331616Y-85073868D01*
X134426854Y-85073868D01*
X134569712Y-85026249D01*
X134664950Y-84931011D01*
X134712569Y-84835773D01*
X134760188Y-84645297D01*
X134760188Y-84502440D01*
X134712569Y-84311964D01*
X134664950Y-84216726D01*
X134569712Y-84121488D01*
X134426854Y-84073868D01*
X134331616Y-84073868D01*
X134188759Y-84121488D01*
X134141140Y-84169107D01*
X133807807Y-84073868D02*
X133141140Y-84073868D01*
X133569712Y-85073868D01*
X134441140Y-86373868D02*
X135012569Y-86373868D01*
X134726854Y-86373868D02*
X134726854Y-85373868D01*
X134822093Y-85516726D01*
X134917331Y-85611964D01*
X135012569Y-85659583D01*
X133822093Y-85373868D02*
X133726854Y-85373868D01*
X133631616Y-85421488D01*
X133583997Y-85469107D01*
X133536378Y-85564345D01*
X133488759Y-85754821D01*
X133488759Y-85992916D01*
X133536378Y-86183392D01*
X133583997Y-86278630D01*
X133631616Y-86326249D01*
X133726854Y-86373868D01*
X133822093Y-86373868D01*
X133917331Y-86326249D01*
X133964950Y-86278630D01*
X134012569Y-86183392D01*
X134060188Y-85992916D01*
X134060188Y-85754821D01*
X134012569Y-85564345D01*
X133964950Y-85469107D01*
X133917331Y-85421488D01*
X133822093Y-85373868D01*
X132631616Y-85707202D02*
X132631616Y-86373868D01*
X132869712Y-85326249D02*
X133107807Y-86040535D01*
X132488759Y-86040535D01*
X147448566Y-88478630D02*
X147496185Y-88526249D01*
X147639042Y-88573868D01*
X147734280Y-88573868D01*
X147877138Y-88526249D01*
X147972376Y-88431011D01*
X148019995Y-88335773D01*
X148067614Y-88145297D01*
X148067614Y-88002440D01*
X148019995Y-87811964D01*
X147972376Y-87716726D01*
X147877138Y-87621488D01*
X147734280Y-87573868D01*
X147639042Y-87573868D01*
X147496185Y-87621488D01*
X147448566Y-87669107D01*
X146591423Y-87573868D02*
X146781900Y-87573868D01*
X146877138Y-87621488D01*
X146924757Y-87669107D01*
X147019995Y-87811964D01*
X147067614Y-88002440D01*
X147067614Y-88383392D01*
X147019995Y-88478630D01*
X146972376Y-88526249D01*
X146877138Y-88573868D01*
X146686661Y-88573868D01*
X146591423Y-88526249D01*
X146543804Y-88478630D01*
X146496185Y-88383392D01*
X146496185Y-88145297D01*
X146543804Y-88050059D01*
X146591423Y-88002440D01*
X146686661Y-87954821D01*
X146877138Y-87954821D01*
X146972376Y-88002440D01*
X147019995Y-88050059D01*
X147067614Y-88145297D01*
X147948566Y-90073868D02*
X148519995Y-90073868D01*
X148234280Y-90073868D02*
X148234280Y-89073868D01*
X148329519Y-89216726D01*
X148424757Y-89311964D01*
X148519995Y-89359583D01*
X147329519Y-89073868D02*
X147234280Y-89073868D01*
X147139042Y-89121488D01*
X147091423Y-89169107D01*
X147043804Y-89264345D01*
X146996185Y-89454821D01*
X146996185Y-89692916D01*
X147043804Y-89883392D01*
X147091423Y-89978630D01*
X147139042Y-90026249D01*
X147234280Y-90073868D01*
X147329519Y-90073868D01*
X147424757Y-90026249D01*
X147472376Y-89978630D01*
X147519995Y-89883392D01*
X147567614Y-89692916D01*
X147567614Y-89454821D01*
X147519995Y-89264345D01*
X147472376Y-89169107D01*
X147424757Y-89121488D01*
X147329519Y-89073868D01*
X146139042Y-89407202D02*
X146139042Y-90073868D01*
X146377138Y-89026249D02*
X146615233Y-89740535D01*
X145996185Y-89740535D01*
X133748566Y-76760238D02*
X133796185Y-76807857D01*
X133939042Y-76855476D01*
X134034280Y-76855476D01*
X134177138Y-76807857D01*
X134272376Y-76712619D01*
X134319995Y-76617381D01*
X134367614Y-76426905D01*
X134367614Y-76284048D01*
X134319995Y-76093572D01*
X134272376Y-75998334D01*
X134177138Y-75903096D01*
X134034280Y-75855476D01*
X133939042Y-75855476D01*
X133796185Y-75903096D01*
X133748566Y-75950715D01*
X133415233Y-75855476D02*
X132796185Y-75855476D01*
X133129519Y-76236429D01*
X132986661Y-76236429D01*
X132891423Y-76284048D01*
X132843804Y-76331667D01*
X132796185Y-76426905D01*
X132796185Y-76665000D01*
X132843804Y-76760238D01*
X132891423Y-76807857D01*
X132986661Y-76855476D01*
X133272376Y-76855476D01*
X133367614Y-76807857D01*
X133415233Y-76760238D01*
X134177138Y-75455476D02*
X134748566Y-75455476D01*
X134462852Y-75455476D02*
X134462852Y-74455476D01*
X134558090Y-74598334D01*
X134653328Y-74693572D01*
X134748566Y-74741191D01*
X133319995Y-74788810D02*
X133319995Y-75455476D01*
X133748566Y-74788810D02*
X133748566Y-75312619D01*
X133700947Y-75407857D01*
X133605709Y-75455476D01*
X133462852Y-75455476D01*
X133367614Y-75407857D01*
X133319995Y-75360238D01*
X132510471Y-74931667D02*
X132843804Y-74931667D01*
X132843804Y-75455476D02*
X132843804Y-74455476D01*
X132367614Y-74455476D01*
X138141140Y-94373868D02*
X138474474Y-93897678D01*
X138712569Y-94373868D02*
X138712569Y-93373868D01*
X138331616Y-93373868D01*
X138236378Y-93421488D01*
X138188759Y-93469107D01*
X138141140Y-93564345D01*
X138141140Y-93707202D01*
X138188759Y-93802440D01*
X138236378Y-93850059D01*
X138331616Y-93897678D01*
X138712569Y-93897678D01*
X137236378Y-93373868D02*
X137712569Y-93373868D01*
X137760188Y-93850059D01*
X137712569Y-93802440D01*
X137617331Y-93754821D01*
X137379235Y-93754821D01*
X137283997Y-93802440D01*
X137236378Y-93850059D01*
X137188759Y-93945297D01*
X137188759Y-94183392D01*
X137236378Y-94278630D01*
X137283997Y-94326249D01*
X137379235Y-94373868D01*
X137617331Y-94373868D01*
X137712569Y-94326249D01*
X137760188Y-94278630D01*
X138569712Y-93073868D02*
X139141140Y-93073868D01*
X138855426Y-93073868D02*
X138855426Y-92073868D01*
X138950664Y-92216726D01*
X139045902Y-92311964D01*
X139141140Y-92359583D01*
X137950664Y-92073868D02*
X137855426Y-92073868D01*
X137760188Y-92121488D01*
X137712569Y-92169107D01*
X137664950Y-92264345D01*
X137617331Y-92454821D01*
X137617331Y-92692916D01*
X137664950Y-92883392D01*
X137712569Y-92978630D01*
X137760188Y-93026249D01*
X137855426Y-93073868D01*
X137950664Y-93073868D01*
X138045902Y-93026249D01*
X138093521Y-92978630D01*
X138141140Y-92883392D01*
X138188759Y-92692916D01*
X138188759Y-92454821D01*
X138141140Y-92264345D01*
X138093521Y-92169107D01*
X138045902Y-92121488D01*
X137950664Y-92073868D01*
X137188759Y-93073868D02*
X137188759Y-92073868D01*
X137093521Y-92692916D02*
X136807807Y-93073868D01*
X136807807Y-92407202D02*
X137188759Y-92788154D01*
X130748566Y-76369974D02*
X130796185Y-76417593D01*
X130939042Y-76465212D01*
X131034280Y-76465212D01*
X131177138Y-76417593D01*
X131272376Y-76322355D01*
X131319995Y-76227117D01*
X131367614Y-76036641D01*
X131367614Y-75893784D01*
X131319995Y-75703308D01*
X131272376Y-75608070D01*
X131177138Y-75512832D01*
X131034280Y-75465212D01*
X130939042Y-75465212D01*
X130796185Y-75512832D01*
X130748566Y-75560451D01*
X130272376Y-76465212D02*
X130081900Y-76465212D01*
X129986661Y-76417593D01*
X129939042Y-76369974D01*
X129843804Y-76227117D01*
X129796185Y-76036641D01*
X129796185Y-75655689D01*
X129843804Y-75560451D01*
X129891423Y-75512832D01*
X129986661Y-75465212D01*
X130177138Y-75465212D01*
X130272376Y-75512832D01*
X130319995Y-75560451D01*
X130367614Y-75655689D01*
X130367614Y-75893784D01*
X130319995Y-75989022D01*
X130272376Y-76036641D01*
X130177138Y-76084260D01*
X129986661Y-76084260D01*
X129891423Y-76036641D01*
X129843804Y-75989022D01*
X129796185Y-75893784D01*
X131169710Y-75065212D02*
X131741138Y-75065212D01*
X131455424Y-75065212D02*
X131455424Y-74065212D01*
X131550662Y-74208070D01*
X131645900Y-74303308D01*
X131741138Y-74350927D01*
X130312567Y-74398546D02*
X130312567Y-75065212D01*
X130741138Y-74398546D02*
X130741138Y-74922355D01*
X130693519Y-75017593D01*
X130598281Y-75065212D01*
X130455424Y-75065212D01*
X130360186Y-75017593D01*
X130312567Y-74969974D01*
X129503043Y-74541403D02*
X129836376Y-74541403D01*
X129836376Y-75065212D02*
X129836376Y-74065212D01*
X129360186Y-74065212D01*
X125808514Y-81668894D02*
X125856133Y-81716513D01*
X125998990Y-81764132D01*
X126094228Y-81764132D01*
X126237085Y-81716513D01*
X126332323Y-81621275D01*
X126379942Y-81526037D01*
X126427561Y-81335561D01*
X126427561Y-81192704D01*
X126379942Y-81002228D01*
X126332323Y-80906990D01*
X126237085Y-80811752D01*
X126094228Y-80764132D01*
X125998990Y-80764132D01*
X125856133Y-80811752D01*
X125808514Y-80859371D01*
X124856133Y-81764132D02*
X125427561Y-81764132D01*
X125141847Y-81764132D02*
X125141847Y-80764132D01*
X125237085Y-80906990D01*
X125332323Y-81002228D01*
X125427561Y-81049847D01*
X124237085Y-80764132D02*
X124141847Y-80764132D01*
X124046609Y-80811752D01*
X123998990Y-80859371D01*
X123951371Y-80954609D01*
X123903752Y-81145085D01*
X123903752Y-81383180D01*
X123951371Y-81573656D01*
X123998990Y-81668894D01*
X124046609Y-81716513D01*
X124141847Y-81764132D01*
X124237085Y-81764132D01*
X124332323Y-81716513D01*
X124379942Y-81668894D01*
X124427561Y-81573656D01*
X124475180Y-81383180D01*
X124475180Y-81145085D01*
X124427561Y-80954609D01*
X124379942Y-80859371D01*
X124332323Y-80811752D01*
X124237085Y-80764132D01*
X125760895Y-80464132D02*
X126332323Y-80464132D01*
X126046609Y-80464132D02*
X126046609Y-79464132D01*
X126141847Y-79606990D01*
X126237085Y-79702228D01*
X126332323Y-79749847D01*
X124903752Y-79797466D02*
X124903752Y-80464132D01*
X125332323Y-79797466D02*
X125332323Y-80321275D01*
X125284704Y-80416513D01*
X125189466Y-80464132D01*
X125046609Y-80464132D01*
X124951371Y-80416513D01*
X124903752Y-80368894D01*
X124094228Y-79940323D02*
X124427561Y-79940323D01*
X124427561Y-80464132D02*
X124427561Y-79464132D01*
X123951371Y-79464132D01*
X151441140Y-74368896D02*
X151488759Y-74416515D01*
X151631616Y-74464134D01*
X151726854Y-74464134D01*
X151869712Y-74416515D01*
X151964950Y-74321277D01*
X152012569Y-74226039D01*
X152060188Y-74035563D01*
X152060188Y-73892706D01*
X152012569Y-73702230D01*
X151964950Y-73606992D01*
X151869712Y-73511754D01*
X151726854Y-73464134D01*
X151631616Y-73464134D01*
X151488759Y-73511754D01*
X151441140Y-73559373D01*
X150536378Y-73464134D02*
X151012569Y-73464134D01*
X151060188Y-73940325D01*
X151012569Y-73892706D01*
X150917331Y-73845087D01*
X150679235Y-73845087D01*
X150583997Y-73892706D01*
X150536378Y-73940325D01*
X150488759Y-74035563D01*
X150488759Y-74273658D01*
X150536378Y-74368896D01*
X150583997Y-74416515D01*
X150679235Y-74464134D01*
X150917331Y-74464134D01*
X151012569Y-74416515D01*
X151060188Y-74368896D01*
X151941140Y-78764134D02*
X152512569Y-78764134D01*
X152226854Y-78764134D02*
X152226854Y-77764134D01*
X152322093Y-77906992D01*
X152417331Y-78002230D01*
X152512569Y-78049849D01*
X151322093Y-77764134D02*
X151226854Y-77764134D01*
X151131616Y-77811754D01*
X151083997Y-77859373D01*
X151036378Y-77954611D01*
X150988759Y-78145087D01*
X150988759Y-78383182D01*
X151036378Y-78573658D01*
X151083997Y-78668896D01*
X151131616Y-78716515D01*
X151226854Y-78764134D01*
X151322093Y-78764134D01*
X151417331Y-78716515D01*
X151464950Y-78668896D01*
X151512569Y-78573658D01*
X151560188Y-78383182D01*
X151560188Y-78145087D01*
X151512569Y-77954611D01*
X151464950Y-77859373D01*
X151417331Y-77811754D01*
X151322093Y-77764134D01*
X150131616Y-78097468D02*
X150131616Y-78764134D01*
X150369712Y-77716515D02*
X150607807Y-78430801D01*
X149988759Y-78430801D01*
X157349960Y-74088363D02*
X157397579Y-74135982D01*
X157540436Y-74183601D01*
X157635674Y-74183601D01*
X157778532Y-74135982D01*
X157873770Y-74040744D01*
X157921389Y-73945506D01*
X157969008Y-73755030D01*
X157969008Y-73612173D01*
X157921389Y-73421697D01*
X157873770Y-73326459D01*
X157778532Y-73231221D01*
X157635674Y-73183601D01*
X157540436Y-73183601D01*
X157397579Y-73231221D01*
X157349960Y-73278840D01*
X156969008Y-73278840D02*
X156921389Y-73231221D01*
X156826151Y-73183601D01*
X156588055Y-73183601D01*
X156492817Y-73231221D01*
X156445198Y-73278840D01*
X156397579Y-73374078D01*
X156397579Y-73469316D01*
X156445198Y-73612173D01*
X157016627Y-74183601D01*
X156397579Y-74183601D01*
X158426151Y-71378840D02*
X158378532Y-71331221D01*
X158283294Y-71283601D01*
X158045198Y-71283601D01*
X157949960Y-71331221D01*
X157902341Y-71378840D01*
X157854722Y-71474078D01*
X157854722Y-71569316D01*
X157902341Y-71712173D01*
X158473770Y-72283601D01*
X157854722Y-72283601D01*
X157473770Y-71378840D02*
X157426151Y-71331221D01*
X157330913Y-71283601D01*
X157092817Y-71283601D01*
X156997579Y-71331221D01*
X156949960Y-71378840D01*
X156902341Y-71474078D01*
X156902341Y-71569316D01*
X156949960Y-71712173D01*
X157521389Y-72283601D01*
X156902341Y-72283601D01*
X156473770Y-71616935D02*
X156473770Y-72616935D01*
X156473770Y-71664554D02*
X156378532Y-71616935D01*
X156188055Y-71616935D01*
X156092817Y-71664554D01*
X156045198Y-71712173D01*
X155997579Y-71807411D01*
X155997579Y-72093125D01*
X156045198Y-72188363D01*
X156092817Y-72235982D01*
X156188055Y-72283601D01*
X156378532Y-72283601D01*
X156473770Y-72235982D01*
X155235674Y-71759792D02*
X155569008Y-71759792D01*
X155569008Y-72283601D02*
X155569008Y-71283601D01*
X155092817Y-71283601D01*
X155841138Y-82908629D02*
X155888757Y-82956248D01*
X156031614Y-83003867D01*
X156126852Y-83003867D01*
X156269710Y-82956248D01*
X156364948Y-82861010D01*
X156412567Y-82765772D01*
X156460186Y-82575296D01*
X156460186Y-82432439D01*
X156412567Y-82241963D01*
X156364948Y-82146725D01*
X156269710Y-82051487D01*
X156126852Y-82003867D01*
X156031614Y-82003867D01*
X155888757Y-82051487D01*
X155841138Y-82099106D01*
X154888757Y-83003867D02*
X155460186Y-83003867D01*
X155174472Y-83003867D02*
X155174472Y-82003867D01*
X155269710Y-82146725D01*
X155364948Y-82241963D01*
X155460186Y-82289582D01*
X157317329Y-83669106D02*
X157269710Y-83621487D01*
X157174472Y-83573867D01*
X156936376Y-83573867D01*
X156841138Y-83621487D01*
X156793519Y-83669106D01*
X156745900Y-83764344D01*
X156745900Y-83859582D01*
X156793519Y-84002439D01*
X157364948Y-84573867D01*
X156745900Y-84573867D01*
X156364948Y-83669106D02*
X156317329Y-83621487D01*
X156222091Y-83573867D01*
X155983995Y-83573867D01*
X155888757Y-83621487D01*
X155841138Y-83669106D01*
X155793519Y-83764344D01*
X155793519Y-83859582D01*
X155841138Y-84002439D01*
X156412567Y-84573867D01*
X155793519Y-84573867D01*
X155364948Y-83907201D02*
X155364948Y-84907201D01*
X155364948Y-83954820D02*
X155269710Y-83907201D01*
X155079233Y-83907201D01*
X154983995Y-83954820D01*
X154936376Y-84002439D01*
X154888757Y-84097677D01*
X154888757Y-84383391D01*
X154936376Y-84478629D01*
X154983995Y-84526248D01*
X155079233Y-84573867D01*
X155269710Y-84573867D01*
X155364948Y-84526248D01*
X154126852Y-84050058D02*
X154460186Y-84050058D01*
X154460186Y-84573867D02*
X154460186Y-83573867D01*
X153983995Y-83573867D01*
X128027558Y-82964133D02*
X128027558Y-83773657D01*
X127979939Y-83868895D01*
X127932320Y-83916514D01*
X127837082Y-83964133D01*
X127646606Y-83964133D01*
X127551368Y-83916514D01*
X127503749Y-83868895D01*
X127456130Y-83773657D01*
X127456130Y-82964133D01*
X127075177Y-82964133D02*
X126456130Y-82964133D01*
X126789463Y-83345086D01*
X126646606Y-83345086D01*
X126551368Y-83392705D01*
X126503749Y-83440324D01*
X126456130Y-83535562D01*
X126456130Y-83773657D01*
X126503749Y-83868895D01*
X126551368Y-83916514D01*
X126646606Y-83964133D01*
X126932320Y-83964133D01*
X127027558Y-83916514D01*
X127075177Y-83868895D01*
X130248566Y-85965209D02*
X130581900Y-85489019D01*
X130819995Y-85965209D02*
X130819995Y-84965209D01*
X130439042Y-84965209D01*
X130343804Y-85012829D01*
X130296185Y-85060448D01*
X130248566Y-85155686D01*
X130248566Y-85298543D01*
X130296185Y-85393781D01*
X130343804Y-85441400D01*
X130439042Y-85489019D01*
X130819995Y-85489019D01*
X129391423Y-85298543D02*
X129391423Y-85965209D01*
X129629519Y-84917590D02*
X129867614Y-85631876D01*
X129248566Y-85631876D01*
X130477138Y-87265209D02*
X131048566Y-87265209D01*
X130762852Y-87265209D02*
X130762852Y-86265209D01*
X130858090Y-86408067D01*
X130953328Y-86503305D01*
X131048566Y-86550924D01*
X129858090Y-86265209D02*
X129762852Y-86265209D01*
X129667614Y-86312829D01*
X129619995Y-86360448D01*
X129572376Y-86455686D01*
X129524757Y-86646162D01*
X129524757Y-86884257D01*
X129572376Y-87074733D01*
X129619995Y-87169971D01*
X129667614Y-87217590D01*
X129762852Y-87265209D01*
X129858090Y-87265209D01*
X129953328Y-87217590D01*
X130000947Y-87169971D01*
X130048566Y-87074733D01*
X130096185Y-86884257D01*
X130096185Y-86646162D01*
X130048566Y-86455686D01*
X130000947Y-86360448D01*
X129953328Y-86312829D01*
X129858090Y-86265209D01*
X129096185Y-87265209D02*
X129096185Y-86265209D01*
X129000947Y-86884257D02*
X128715233Y-87265209D01*
X128715233Y-86598543D02*
X129096185Y-86979495D01*
X136841140Y-71573867D02*
X137174474Y-71097677D01*
X137412569Y-71573867D02*
X137412569Y-70573867D01*
X137031616Y-70573867D01*
X136936378Y-70621487D01*
X136888759Y-70669106D01*
X136841140Y-70764344D01*
X136841140Y-70907201D01*
X136888759Y-71002439D01*
X136936378Y-71050058D01*
X137031616Y-71097677D01*
X137412569Y-71097677D01*
X136507807Y-70573867D02*
X135888759Y-70573867D01*
X136222093Y-70954820D01*
X136079235Y-70954820D01*
X135983997Y-71002439D01*
X135936378Y-71050058D01*
X135888759Y-71145296D01*
X135888759Y-71383391D01*
X135936378Y-71478629D01*
X135983997Y-71526248D01*
X136079235Y-71573867D01*
X136364950Y-71573867D01*
X136460188Y-71526248D01*
X136507807Y-71478629D01*
X153641140Y-67273868D02*
X153974474Y-66797678D01*
X154212569Y-67273868D02*
X154212569Y-66273868D01*
X153831616Y-66273868D01*
X153736378Y-66321488D01*
X153688759Y-66369107D01*
X153641140Y-66464345D01*
X153641140Y-66607202D01*
X153688759Y-66702440D01*
X153736378Y-66750059D01*
X153831616Y-66797678D01*
X154212569Y-66797678D01*
X152688759Y-67273868D02*
X153260188Y-67273868D01*
X152974474Y-67273868D02*
X152974474Y-66273868D01*
X153069712Y-66416726D01*
X153164950Y-66511964D01*
X153260188Y-66559583D01*
X153969712Y-68573868D02*
X154541140Y-68573868D01*
X154255426Y-68573868D02*
X154255426Y-67573868D01*
X154350664Y-67716726D01*
X154445902Y-67811964D01*
X154541140Y-67859583D01*
X153350664Y-67573868D02*
X153255426Y-67573868D01*
X153160188Y-67621488D01*
X153112569Y-67669107D01*
X153064950Y-67764345D01*
X153017331Y-67954821D01*
X153017331Y-68192916D01*
X153064950Y-68383392D01*
X153112569Y-68478630D01*
X153160188Y-68526249D01*
X153255426Y-68573868D01*
X153350664Y-68573868D01*
X153445902Y-68526249D01*
X153493521Y-68478630D01*
X153541140Y-68383392D01*
X153588759Y-68192916D01*
X153588759Y-67954821D01*
X153541140Y-67764345D01*
X153493521Y-67669107D01*
X153445902Y-67621488D01*
X153350664Y-67573868D01*
X152588759Y-68573868D02*
X152588759Y-67573868D01*
X152493521Y-68192916D02*
X152207807Y-68573868D01*
X152207807Y-67907202D02*
X152588759Y-68288154D01*
X151507807Y-65650059D02*
X151841140Y-65650059D01*
X151841140Y-66173868D02*
X151841140Y-65173868D01*
X151364950Y-65173868D01*
X150460188Y-66173868D02*
X151031616Y-66173868D01*
X150745902Y-66173868D02*
X150745902Y-65173868D01*
X150841140Y-65316726D01*
X150936378Y-65411964D01*
X151031616Y-65459583D01*
X153841139Y-70178629D02*
X153888758Y-70226248D01*
X154031615Y-70273867D01*
X154126853Y-70273867D01*
X154269711Y-70226248D01*
X154364949Y-70131010D01*
X154412568Y-70035772D01*
X154460187Y-69845296D01*
X154460187Y-69702439D01*
X154412568Y-69511963D01*
X154364949Y-69416725D01*
X154269711Y-69321487D01*
X154126853Y-69273867D01*
X154031615Y-69273867D01*
X153888758Y-69321487D01*
X153841139Y-69369106D01*
X153269711Y-69702439D02*
X153364949Y-69654820D01*
X153412568Y-69607201D01*
X153460187Y-69511963D01*
X153460187Y-69464344D01*
X153412568Y-69369106D01*
X153364949Y-69321487D01*
X153269711Y-69273867D01*
X153079234Y-69273867D01*
X152983996Y-69321487D01*
X152936377Y-69369106D01*
X152888758Y-69464344D01*
X152888758Y-69511963D01*
X152936377Y-69607201D01*
X152983996Y-69654820D01*
X153079234Y-69702439D01*
X153269711Y-69702439D01*
X153364949Y-69750058D01*
X153412568Y-69797677D01*
X153460187Y-69892915D01*
X153460187Y-70083391D01*
X153412568Y-70178629D01*
X153364949Y-70226248D01*
X153269711Y-70273867D01*
X153079234Y-70273867D01*
X152983996Y-70226248D01*
X152936377Y-70178629D01*
X152888758Y-70083391D01*
X152888758Y-69892915D01*
X152936377Y-69797677D01*
X152983996Y-69750058D01*
X153079234Y-69702439D01*
X154845901Y-71673867D02*
X155417330Y-71673867D01*
X155131615Y-71673867D02*
X155131615Y-70673867D01*
X155226853Y-70816725D01*
X155322092Y-70911963D01*
X155417330Y-70959582D01*
X154226853Y-70673867D02*
X154131615Y-70673867D01*
X154036377Y-70721487D01*
X153988758Y-70769106D01*
X153941139Y-70864344D01*
X153893520Y-71054820D01*
X153893520Y-71292915D01*
X153941139Y-71483391D01*
X153988758Y-71578629D01*
X154036377Y-71626248D01*
X154131615Y-71673867D01*
X154226853Y-71673867D01*
X154322092Y-71626248D01*
X154369711Y-71578629D01*
X154417330Y-71483391D01*
X154464949Y-71292915D01*
X154464949Y-71054820D01*
X154417330Y-70864344D01*
X154369711Y-70769106D01*
X154322092Y-70721487D01*
X154226853Y-70673867D01*
X153036377Y-71007201D02*
X153036377Y-71673867D01*
X153464949Y-71007201D02*
X153464949Y-71531010D01*
X153417330Y-71626248D01*
X153322092Y-71673867D01*
X153179234Y-71673867D01*
X153083996Y-71626248D01*
X153036377Y-71578629D01*
X152226853Y-71150058D02*
X152560187Y-71150058D01*
X152560187Y-71673867D02*
X152560187Y-70673867D01*
X152083996Y-70673867D01*
M02*
