G04 #@! TF.GenerationSoftware,KiCad,Pcbnew,5.1.8*
G04 #@! TF.CreationDate,2021-02-14T21:35:46-06:00*
G04 #@! TF.ProjectId,steno,7374656e-6f2e-46b6-9963-61645f706362,rev?*
G04 #@! TF.SameCoordinates,Original*
G04 #@! TF.FileFunction,Profile,NP*
%FSLAX46Y46*%
G04 Gerber Fmt 4.6, Leading zero omitted, Abs format (unit mm)*
G04 Created by KiCad (PCBNEW 5.1.8) date 2021-02-14 21:35:46*
%MOMM*%
%LPD*%
G01*
G04 APERTURE LIST*
G04 #@! TA.AperFunction,Profile*
%ADD10C,0.050000*%
G04 #@! TD*
G04 #@! TA.AperFunction,Profile*
%ADD11C,0.150000*%
G04 #@! TD*
G04 APERTURE END LIST*
D10*
X159263069Y-132861962D02*
X134263069Y-132861962D01*
X159263069Y-133861962D02*
X159263069Y-132861962D01*
X134263069Y-133861962D02*
X159263069Y-133861962D01*
X134263069Y-132861962D02*
X134263069Y-133861962D01*
D11*
X269089558Y-51908830D02*
X279190410Y-82272838D01*
D10*
X269089558Y-51908830D02*
X268595955Y-51117886D01*
X268595955Y-51117886D02*
X267854148Y-50382404D01*
X267854148Y-50382404D02*
X266880284Y-49700786D01*
X266880284Y-49700786D02*
X265690509Y-49071433D01*
X265690509Y-49071433D02*
X264300970Y-48492747D01*
X264300970Y-48492747D02*
X262727815Y-47963130D01*
X262727815Y-47963130D02*
X260987192Y-47480985D01*
X260987192Y-47480985D02*
X259095246Y-47044712D01*
X259095246Y-47044712D02*
X257068126Y-46652714D01*
X257068126Y-46652714D02*
X254921979Y-46303392D01*
X254921979Y-46303392D02*
X252672951Y-45995149D01*
X252672951Y-45995149D02*
X250337191Y-45726386D01*
X250337191Y-45726386D02*
X247930844Y-45495506D01*
X247930844Y-45495506D02*
X245470059Y-45300909D01*
X245470059Y-45300909D02*
X242970982Y-45140998D01*
X242970982Y-45140998D02*
X240449760Y-45014175D01*
X240449760Y-45014175D02*
X237922542Y-44918841D01*
X237922542Y-44918841D02*
X235405474Y-44853399D01*
X235405474Y-44853399D02*
X232914702Y-44816251D01*
X232914702Y-44816251D02*
X230466375Y-44805797D01*
X230466375Y-44805797D02*
X228076640Y-44820441D01*
X228076640Y-44820441D02*
X225761643Y-44858583D01*
X225761643Y-44858583D02*
X223537533Y-44918626D01*
X223537533Y-44918626D02*
X221420455Y-44998972D01*
X221420455Y-44998972D02*
X219426557Y-45098022D01*
X219426557Y-45098022D02*
X217571987Y-45214178D01*
X217571987Y-45214178D02*
X215872892Y-45345843D01*
X215872892Y-45345843D02*
X214345418Y-45491417D01*
X214345418Y-45491417D02*
X213005714Y-45649304D01*
X213005714Y-45649304D02*
X211869925Y-45817904D01*
X211869925Y-45817904D02*
X210954200Y-45995620D01*
X210954200Y-45995620D02*
X210274686Y-46180854D01*
D11*
X220345370Y-119239068D02*
X171952688Y-135337170D01*
D10*
X279190410Y-82272838D02*
X274169337Y-83998782D01*
X274169337Y-83998782D02*
X269411875Y-85636697D01*
X269411875Y-85636697D02*
X264912193Y-87191702D01*
X264912193Y-87191702D02*
X260664460Y-88668919D01*
X260664460Y-88668919D02*
X256662845Y-90073467D01*
X256662845Y-90073467D02*
X252901517Y-91410468D01*
X252901517Y-91410468D02*
X249374645Y-92685043D01*
X249374645Y-92685043D02*
X246076398Y-93902312D01*
X246076398Y-93902312D02*
X243000945Y-95067396D01*
X243000945Y-95067396D02*
X240142455Y-96185416D01*
X240142455Y-96185416D02*
X237495097Y-97261493D01*
X237495097Y-97261493D02*
X235053040Y-98300747D01*
X235053040Y-98300747D02*
X232810453Y-99308299D01*
X232810453Y-99308299D02*
X230761505Y-100289271D01*
X230761505Y-100289271D02*
X228900365Y-101248781D01*
X228900365Y-101248781D02*
X227221202Y-102191953D01*
X227221202Y-102191953D02*
X225718185Y-103123905D01*
X225718185Y-103123905D02*
X224385483Y-104049760D01*
X224385483Y-104049760D02*
X223217265Y-104974637D01*
X223217265Y-104974637D02*
X222207700Y-105903658D01*
X222207700Y-105903658D02*
X221350957Y-106841944D01*
X221350957Y-106841944D02*
X220641205Y-107794614D01*
X220641205Y-107794614D02*
X220072613Y-108766790D01*
X220072613Y-108766790D02*
X219639350Y-109763593D01*
X219639350Y-109763593D02*
X219335585Y-110790143D01*
X219335585Y-110790143D02*
X219155487Y-111851562D01*
X219155487Y-111851562D02*
X219093225Y-112952969D01*
X219093225Y-112952969D02*
X219142968Y-114099486D01*
X219142968Y-114099486D02*
X219298885Y-115296234D01*
X219298885Y-115296234D02*
X219555145Y-116548333D01*
X219555145Y-116548333D02*
X219905917Y-117860904D01*
X219905917Y-117860904D02*
X220345370Y-119239068D01*
X210274686Y-46180854D02*
X206526944Y-47339953D01*
X206526944Y-47339953D02*
X203005391Y-48474908D01*
X203005391Y-48474908D02*
X199699677Y-49584954D01*
X199699677Y-49584954D02*
X196599454Y-50669324D01*
X196599454Y-50669324D02*
X193694372Y-51727251D01*
X193694372Y-51727251D02*
X190974083Y-52757971D01*
X190974083Y-52757971D02*
X188428238Y-53760716D01*
X188428238Y-53760716D02*
X186046487Y-54734721D01*
X186046487Y-54734721D02*
X183818483Y-55679220D01*
X183818483Y-55679220D02*
X181733875Y-56593445D01*
X181733875Y-56593445D02*
X179782315Y-57476632D01*
X179782315Y-57476632D02*
X177953454Y-58328015D01*
X177953454Y-58328015D02*
X176236943Y-59146826D01*
X176236943Y-59146826D02*
X174622433Y-59932300D01*
X174622433Y-59932300D02*
X173099575Y-60683671D01*
X173099575Y-60683671D02*
X171658021Y-61400172D01*
X171658021Y-61400172D02*
X170287420Y-62081038D01*
X170287420Y-62081038D02*
X168977425Y-62725502D01*
X168977425Y-62725502D02*
X167717687Y-63332799D01*
X167717687Y-63332799D02*
X166497855Y-63902162D01*
X166497855Y-63902162D02*
X165307582Y-64432825D01*
X165307582Y-64432825D02*
X164136519Y-64924021D01*
X164136519Y-64924021D02*
X162974316Y-65374986D01*
X162974316Y-65374986D02*
X161810625Y-65784952D01*
X161810625Y-65784952D02*
X160635097Y-66153154D01*
X160635097Y-66153154D02*
X159437382Y-66478825D01*
X159437382Y-66478825D02*
X158207132Y-66761199D01*
X158207132Y-66761199D02*
X156933998Y-66999511D01*
X156933998Y-66999511D02*
X155607630Y-67192993D01*
X155607630Y-67192993D02*
X154217681Y-67340881D01*
X154217681Y-67340881D02*
X152753801Y-67442407D01*
X152753801Y-67442407D02*
X151205641Y-67496807D01*
D11*
X24671721Y-51908829D02*
X14570873Y-82272838D01*
D10*
X121808591Y-135337171D02*
X123166481Y-135821556D01*
X123166481Y-135821556D02*
X124566896Y-136274691D01*
X124566896Y-136274691D02*
X126006931Y-136696575D01*
X126006931Y-136696575D02*
X127483685Y-137087208D01*
X127483685Y-137087208D02*
X128994252Y-137446591D01*
X128994252Y-137446591D02*
X130535731Y-137774723D01*
X130535731Y-137774723D02*
X132105217Y-138071605D01*
X132105217Y-138071605D02*
X133699807Y-138337236D01*
X133699807Y-138337236D02*
X135316598Y-138571616D01*
X135316598Y-138571616D02*
X136952688Y-138774745D01*
X136952688Y-138774745D02*
X138605171Y-138946624D01*
X138605171Y-138946624D02*
X140271146Y-139087252D01*
X140271146Y-139087252D02*
X141947708Y-139196629D01*
X141947708Y-139196629D02*
X143631955Y-139274756D01*
X143631955Y-139274756D02*
X145320984Y-139321632D01*
X145320984Y-139321632D02*
X147011890Y-139337257D01*
X147011890Y-139337257D02*
X148701771Y-139321632D01*
X148701771Y-139321632D02*
X150387723Y-139274756D01*
X150387723Y-139274756D02*
X152066843Y-139196629D01*
X152066843Y-139196629D02*
X153736227Y-139087252D01*
X153736227Y-139087252D02*
X155392974Y-138946623D01*
X155392974Y-138946623D02*
X157034178Y-138774745D01*
X157034178Y-138774745D02*
X158656937Y-138571615D01*
X158656937Y-138571615D02*
X160258347Y-138337235D01*
X160258347Y-138337235D02*
X161835506Y-138071604D01*
X161835506Y-138071604D02*
X163385509Y-137774723D01*
X163385509Y-137774723D02*
X164905454Y-137446591D01*
X164905454Y-137446591D02*
X166392438Y-137087208D01*
X166392438Y-137087208D02*
X167843556Y-136696574D01*
X167843556Y-136696574D02*
X169255906Y-136274690D01*
X169255906Y-136274690D02*
X170626584Y-135821555D01*
X170626584Y-135821555D02*
X171952688Y-135337170D01*
X14570873Y-82272838D02*
X19591945Y-83998783D01*
X19591945Y-83998783D02*
X24349407Y-85636697D01*
X24349407Y-85636697D02*
X28849089Y-87191703D01*
X28849089Y-87191703D02*
X33096822Y-88668919D01*
X33096822Y-88668919D02*
X37098436Y-90073468D01*
X37098436Y-90073468D02*
X40859764Y-91410469D01*
X40859764Y-91410469D02*
X44386636Y-92685044D01*
X44386636Y-92685044D02*
X47684883Y-93902313D01*
X47684883Y-93902313D02*
X50760336Y-95067397D01*
X50760336Y-95067397D02*
X53618825Y-96185417D01*
X53618825Y-96185417D02*
X56266183Y-97261494D01*
X56266183Y-97261494D02*
X58708240Y-98300748D01*
X58708240Y-98300748D02*
X60950827Y-99308300D01*
X60950827Y-99308300D02*
X62999775Y-100289271D01*
X62999775Y-100289271D02*
X64860915Y-101248782D01*
X64860915Y-101248782D02*
X66540078Y-102191953D01*
X66540078Y-102191953D02*
X68043095Y-103123906D01*
X68043095Y-103123906D02*
X69375797Y-104049760D01*
X69375797Y-104049760D02*
X70544015Y-104974638D01*
X70544015Y-104974638D02*
X71553580Y-105903659D01*
X71553580Y-105903659D02*
X72410323Y-106841944D01*
X72410323Y-106841944D02*
X73120075Y-107794614D01*
X73120075Y-107794614D02*
X73688667Y-108766790D01*
X73688667Y-108766790D02*
X74121930Y-109763593D01*
X74121930Y-109763593D02*
X74425695Y-110790144D01*
X74425695Y-110790144D02*
X74605793Y-111851562D01*
X74605793Y-111851562D02*
X74668055Y-112952969D01*
X74668055Y-112952969D02*
X74618312Y-114099486D01*
X74618312Y-114099486D02*
X74462395Y-115296234D01*
X74462395Y-115296234D02*
X74206135Y-116548333D01*
X74206135Y-116548333D02*
X73855363Y-117860904D01*
X73855363Y-117860904D02*
X73415911Y-119239068D01*
X83486595Y-46180854D02*
X87221139Y-47339953D01*
X87221139Y-47339953D02*
X90731170Y-48474908D01*
X90731170Y-48474908D02*
X94026955Y-49584954D01*
X94026955Y-49584954D02*
X97118760Y-50669324D01*
X97118760Y-50669324D02*
X100016852Y-51727251D01*
X100016852Y-51727251D02*
X102731496Y-52757971D01*
X102731496Y-52757971D02*
X105272961Y-53760716D01*
X105272961Y-53760716D02*
X107651512Y-54734721D01*
X107651512Y-54734721D02*
X109877415Y-55679220D01*
X109877415Y-55679220D02*
X111960938Y-56593445D01*
X111960938Y-56593445D02*
X113912347Y-57476632D01*
X113912347Y-57476632D02*
X115741908Y-58328015D01*
X115741908Y-58328015D02*
X117459889Y-59146826D01*
X117459889Y-59146826D02*
X119076555Y-59932300D01*
X119076555Y-59932300D02*
X120602173Y-60683671D01*
X120602173Y-60683671D02*
X122047009Y-61400172D01*
X122047009Y-61400172D02*
X123421331Y-62081038D01*
X123421331Y-62081038D02*
X124735405Y-62725502D01*
X124735405Y-62725502D02*
X125999497Y-63332799D01*
X125999497Y-63332799D02*
X127223874Y-63902162D01*
X127223874Y-63902162D02*
X128418802Y-64432825D01*
X128418802Y-64432825D02*
X129594549Y-64924021D01*
X129594549Y-64924021D02*
X130761379Y-65374986D01*
X130761379Y-65374986D02*
X131929561Y-65784952D01*
X131929561Y-65784952D02*
X133109361Y-66153154D01*
X133109361Y-66153154D02*
X134311044Y-66478825D01*
X134311044Y-66478825D02*
X135544879Y-66761199D01*
X135544879Y-66761199D02*
X136821130Y-66999511D01*
X136821130Y-66999511D02*
X138150066Y-67192993D01*
X138150066Y-67192993D02*
X139541952Y-67340881D01*
X139541952Y-67340881D02*
X141007054Y-67442407D01*
X141007054Y-67442407D02*
X142555641Y-67496807D01*
X24671721Y-51908829D02*
X25165323Y-51117885D01*
X25165323Y-51117885D02*
X25907130Y-50382403D01*
X25907130Y-50382403D02*
X26880995Y-49700785D01*
X26880995Y-49700785D02*
X28070770Y-49071432D01*
X28070770Y-49071432D02*
X29460308Y-48492747D01*
X29460308Y-48492747D02*
X31033463Y-47963130D01*
X31033463Y-47963130D02*
X32774087Y-47480984D01*
X32774087Y-47480984D02*
X34666032Y-47044712D01*
X34666032Y-47044712D02*
X36693153Y-46652714D01*
X36693153Y-46652714D02*
X38839300Y-46303392D01*
X38839300Y-46303392D02*
X41088328Y-45995149D01*
X41088328Y-45995149D02*
X43424089Y-45726386D01*
X43424089Y-45726386D02*
X45830436Y-45495506D01*
X45830436Y-45495506D02*
X48291221Y-45300909D01*
X48291221Y-45300909D02*
X50790298Y-45140998D01*
X50790298Y-45140998D02*
X53311519Y-45014175D01*
X53311519Y-45014175D02*
X55838738Y-44918842D01*
X55838738Y-44918842D02*
X58355806Y-44853400D01*
X58355806Y-44853400D02*
X60846578Y-44816251D01*
X60846578Y-44816251D02*
X63294905Y-44805797D01*
X63294905Y-44805797D02*
X65684640Y-44820441D01*
X65684640Y-44820441D02*
X67999637Y-44858583D01*
X67999637Y-44858583D02*
X70223748Y-44918626D01*
X70223748Y-44918626D02*
X72340825Y-44998972D01*
X72340825Y-44998972D02*
X74334723Y-45098022D01*
X74334723Y-45098022D02*
X76189293Y-45214178D01*
X76189293Y-45214178D02*
X77888388Y-45345843D01*
X77888388Y-45345843D02*
X79415862Y-45491417D01*
X79415862Y-45491417D02*
X80755566Y-45649304D01*
X80755566Y-45649304D02*
X81891355Y-45817904D01*
X81891355Y-45817904D02*
X82807080Y-45995620D01*
X82807080Y-45995620D02*
X83486595Y-46180854D01*
X151205641Y-67496807D02*
X142555641Y-67496807D01*
D11*
X73415911Y-119239068D02*
X121808591Y-135337171D01*
M02*
