M48
; DRILL file {KiCad 5.1.5} date Thu 14 May 2020 05:03:44 PM CDT
; FORMAT={-:-/ absolute / inch / decimal}
; #@! TF.CreationDate,2020-05-14T17:03:44-05:00
; #@! TF.GenerationSoftware,Kicad,Pcbnew,5.1.5
; #@! TF.FileFunction,Plated,1,2,PTH
FMAT,2
INCH
T1C0.0157
T2C0.0295
T3C0.0390
T4C0.0394
T5C0.0472
T6C0.1000
%
G90
G05
T1
X5.2717Y-3.4882
X5.2953Y-3.437
X5.6496Y-2.1181
X5.6496Y-2.9055
X5.7913Y-4.0709
X5.9055Y-2.5512
X5.9055Y-3.3386
X5.9843Y-2.8386
X6.0055Y-3.5709
X6.175Y-3.6022
X6.4094Y-3.8228
X8.1688Y-2.5367
X8.1958Y-2.6107
T2
X4.7826Y-3.1997
X4.8852Y-2.9178
X6.9458Y-2.8605
X7.0484Y-3.1424
X6.8718Y-2.8875
X6.9744Y-3.1694
X7.6857Y-2.5912
X7.7883Y-2.8731
X7.1678Y-2.7797
X7.2704Y-3.0616
X4.5607Y-3.1189
X4.6633Y-2.837
X7.4637Y-2.672
X7.5663Y-2.9539
X7.3157Y-2.7259
X7.4183Y-3.0078
X4.4867Y-3.0919
X4.5893Y-2.81
X4.6347Y-3.1458
X4.7373Y-2.8639
X4.1907Y-2.9842
X4.2933Y-2.7023
X4.2647Y-3.0112
X4.3673Y-2.7292
X7.3897Y-2.6989
X7.4923Y-2.9809
X7.9077Y-2.5104
X8.0103Y-2.7923
X4.3387Y-3.0381
X4.4413Y-2.7562
X4.1167Y-2.9573
X4.2193Y-2.6754
X7.0938Y-2.8067
X7.1964Y-3.0886
X3.9687Y-2.9034
X4.0713Y-2.6215
X7.6117Y-2.6182
X7.7143Y-2.9001
X4.7086Y-3.1727
X4.8113Y-2.8908
X4.4127Y-3.065
X4.5153Y-2.7831
X7.2418Y-2.7528
X7.3444Y-3.0347
X3.8947Y-2.8765
X3.9973Y-2.5946
X7.0198Y-2.8336
X7.1224Y-3.1155
X4.0427Y-2.9304
X4.1453Y-2.6485
X7.7597Y-2.5643
X7.8623Y-2.8462
X7.8337Y-2.5374
X7.9363Y-2.8193
X7.5377Y-2.6451
X7.6403Y-2.927
T3
X5.4858Y-1.7618
X5.4858Y-1.8618
X5.4858Y-1.9618
X5.4858Y-2.0618
X5.4858Y-2.1618
X5.4858Y-2.2618
X5.4858Y-2.3618
X5.4858Y-2.4618
X5.4858Y-2.5618
X5.4858Y-2.6618
X5.4858Y-2.7618
X5.4858Y-2.8618
X5.4858Y-2.9618
X5.4858Y-3.0618
X5.4858Y-3.1618
X5.4858Y-3.2618
X6.2858Y-2.1618
X6.2858Y-2.2618
X6.2858Y-2.3618
X6.2858Y-2.4618
X6.2858Y-2.5618
X6.2858Y-2.6618
X6.2858Y-2.7618
X6.2858Y-2.8618
X6.2858Y-2.9618
X6.2858Y-3.0618
X6.2858Y-3.1618
X6.2858Y-3.2618
T4
X5.1496Y-3.8386
X5.1496Y-3.9386
X5.1496Y-4.0386
X5.1496Y-4.1386
T5
X7.9068Y-0.7684
X8.1201Y-0.7788
X9.7908Y-1.8005
X10.004Y-1.8108
X1.9849Y-1.8004
X2.1416Y-1.9454
X4.454Y-1.2326
X4.6107Y-1.3777
X4.2251Y-1.8616
X4.3818Y-2.0066
X2.8932Y-1.3768
X3.0499Y-1.5218
X3.6399Y-1.3972
X3.7966Y-1.5422
X9.5618Y-1.1715
X9.7751Y-1.1819
X2.2138Y-1.1714
X2.3705Y-1.3165
X7.4923Y-3.2996
X7.7056Y-3.3099
X8.1357Y-1.3973
X8.349Y-1.4077
X5.1199Y-1.475
X5.2766Y-1.62
X8.1582Y-3.0572
X8.3715Y-3.0676
X8.6535Y-0.748
X8.8668Y-0.7584
X10.2278Y-0.9292
X10.441Y-0.9395
X4.2046Y-3.2997
X4.3613Y-3.4447
X4.8909Y-2.1038
X5.0476Y-2.2488
X3.5387Y-3.0573
X3.6954Y-3.2023
X6.8264Y-3.542
X7.0397Y-3.5523
X7.5506Y-1.8617
X7.7639Y-1.872
X4.8705Y-3.542
X5.0272Y-3.687
X6.8847Y-2.1041
X7.0979Y-2.1144
X8.8825Y-1.3769
X9.0957Y-1.3873
X3.1221Y-0.7479
X3.2788Y-0.8929
X7.3217Y-1.2328
X7.535Y-1.2431
X6.6558Y-1.4751
X6.869Y-1.4855
X10.4567Y-1.5581
X10.6699Y-1.5685
X3.8688Y-0.7683
X4.0255Y-0.9133
T6
X5.5358Y-1.6118
X5.5358Y-3.4118
X6.2358Y-1.6118
X6.2358Y-3.4118
T0
M30
