G04 #@! TF.GenerationSoftware,KiCad,Pcbnew,5.1.8*
G04 #@! TF.CreationDate,2021-03-01T17:51:10-06:00*
G04 #@! TF.ProjectId,steno,7374656e-6f2e-46b6-9963-61645f706362,rev?*
G04 #@! TF.SameCoordinates,Original*
G04 #@! TF.FileFunction,Soldermask,Top*
G04 #@! TF.FilePolarity,Negative*
%FSLAX46Y46*%
G04 Gerber Fmt 4.6, Leading zero omitted, Abs format (unit mm)*
G04 Created by KiCad (PCBNEW 5.1.8) date 2021-03-01 17:51:10*
%MOMM*%
%LPD*%
G01*
G04 APERTURE LIST*
%ADD10O,1.102000X2.202000*%
%ADD11C,0.752000*%
%ADD12O,1.102000X1.702000*%
%ADD13C,3.502000*%
%ADD14C,1.802000*%
%ADD15C,1.102000*%
%ADD16C,0.100000*%
G04 APERTURE END LIST*
G36*
G01*
X137525474Y-60441488D02*
X137525474Y-61891488D01*
G75*
G02*
X137474474Y-61942488I-51000J0D01*
G01*
X136874474Y-61942488D01*
G75*
G02*
X136823474Y-61891488I0J51000D01*
G01*
X136823474Y-60441488D01*
G75*
G02*
X136874474Y-60390488I51000J0D01*
G01*
X137474474Y-60390488D01*
G75*
G02*
X137525474Y-60441488I0J-51000D01*
G01*
G37*
G36*
G01*
X138325474Y-60441488D02*
X138325474Y-61891488D01*
G75*
G02*
X138274474Y-61942488I-51000J0D01*
G01*
X137674474Y-61942488D01*
G75*
G02*
X137623474Y-61891488I0J51000D01*
G01*
X137623474Y-60441488D01*
G75*
G02*
X137674474Y-60390488I51000J0D01*
G01*
X138274474Y-60390488D01*
G75*
G02*
X138325474Y-60441488I0J-51000D01*
G01*
G37*
G36*
G01*
X143225474Y-60441488D02*
X143225474Y-61891488D01*
G75*
G02*
X143174474Y-61942488I-51000J0D01*
G01*
X142574474Y-61942488D01*
G75*
G02*
X142523474Y-61891488I0J51000D01*
G01*
X142523474Y-60441488D01*
G75*
G02*
X142574474Y-60390488I51000J0D01*
G01*
X143174474Y-60390488D01*
G75*
G02*
X143225474Y-60441488I0J-51000D01*
G01*
G37*
G36*
G01*
X144025474Y-60441488D02*
X144025474Y-61891488D01*
G75*
G02*
X143974474Y-61942488I-51000J0D01*
G01*
X143374474Y-61942488D01*
G75*
G02*
X143323474Y-61891488I0J51000D01*
G01*
X143323474Y-60441488D01*
G75*
G02*
X143374474Y-60390488I51000J0D01*
G01*
X143974474Y-60390488D01*
G75*
G02*
X144025474Y-60441488I0J-51000D01*
G01*
G37*
G36*
G01*
X144025474Y-60441488D02*
X144025474Y-61891488D01*
G75*
G02*
X143974474Y-61942488I-51000J0D01*
G01*
X143374474Y-61942488D01*
G75*
G02*
X143323474Y-61891488I0J51000D01*
G01*
X143323474Y-60441488D01*
G75*
G02*
X143374474Y-60390488I51000J0D01*
G01*
X143974474Y-60390488D01*
G75*
G02*
X144025474Y-60441488I0J-51000D01*
G01*
G37*
G36*
G01*
X143225474Y-60441488D02*
X143225474Y-61891488D01*
G75*
G02*
X143174474Y-61942488I-51000J0D01*
G01*
X142574474Y-61942488D01*
G75*
G02*
X142523474Y-61891488I0J51000D01*
G01*
X142523474Y-60441488D01*
G75*
G02*
X142574474Y-60390488I51000J0D01*
G01*
X143174474Y-60390488D01*
G75*
G02*
X143225474Y-60441488I0J-51000D01*
G01*
G37*
G36*
G01*
X138325474Y-60441488D02*
X138325474Y-61891488D01*
G75*
G02*
X138274474Y-61942488I-51000J0D01*
G01*
X137674474Y-61942488D01*
G75*
G02*
X137623474Y-61891488I0J51000D01*
G01*
X137623474Y-60441488D01*
G75*
G02*
X137674474Y-60390488I51000J0D01*
G01*
X138274474Y-60390488D01*
G75*
G02*
X138325474Y-60441488I0J-51000D01*
G01*
G37*
G36*
G01*
X137525474Y-60441488D02*
X137525474Y-61891488D01*
G75*
G02*
X137474474Y-61942488I-51000J0D01*
G01*
X136874474Y-61942488D01*
G75*
G02*
X136823474Y-61891488I0J51000D01*
G01*
X136823474Y-60441488D01*
G75*
G02*
X136874474Y-60390488I51000J0D01*
G01*
X137474474Y-60390488D01*
G75*
G02*
X137525474Y-60441488I0J-51000D01*
G01*
G37*
G36*
G01*
X142375474Y-60441488D02*
X142375474Y-61891488D01*
G75*
G02*
X142324474Y-61942488I-51000J0D01*
G01*
X142024474Y-61942488D01*
G75*
G02*
X141973474Y-61891488I0J51000D01*
G01*
X141973474Y-60441488D01*
G75*
G02*
X142024474Y-60390488I51000J0D01*
G01*
X142324474Y-60390488D01*
G75*
G02*
X142375474Y-60441488I0J-51000D01*
G01*
G37*
G36*
G01*
X141875474Y-60441488D02*
X141875474Y-61891488D01*
G75*
G02*
X141824474Y-61942488I-51000J0D01*
G01*
X141524474Y-61942488D01*
G75*
G02*
X141473474Y-61891488I0J51000D01*
G01*
X141473474Y-60441488D01*
G75*
G02*
X141524474Y-60390488I51000J0D01*
G01*
X141824474Y-60390488D01*
G75*
G02*
X141875474Y-60441488I0J-51000D01*
G01*
G37*
G36*
G01*
X141375474Y-60441488D02*
X141375474Y-61891488D01*
G75*
G02*
X141324474Y-61942488I-51000J0D01*
G01*
X141024474Y-61942488D01*
G75*
G02*
X140973474Y-61891488I0J51000D01*
G01*
X140973474Y-60441488D01*
G75*
G02*
X141024474Y-60390488I51000J0D01*
G01*
X141324474Y-60390488D01*
G75*
G02*
X141375474Y-60441488I0J-51000D01*
G01*
G37*
G36*
G01*
X140375474Y-60441488D02*
X140375474Y-61891488D01*
G75*
G02*
X140324474Y-61942488I-51000J0D01*
G01*
X140024474Y-61942488D01*
G75*
G02*
X139973474Y-61891488I0J51000D01*
G01*
X139973474Y-60441488D01*
G75*
G02*
X140024474Y-60390488I51000J0D01*
G01*
X140324474Y-60390488D01*
G75*
G02*
X140375474Y-60441488I0J-51000D01*
G01*
G37*
G36*
G01*
X139875474Y-60441488D02*
X139875474Y-61891488D01*
G75*
G02*
X139824474Y-61942488I-51000J0D01*
G01*
X139524474Y-61942488D01*
G75*
G02*
X139473474Y-61891488I0J51000D01*
G01*
X139473474Y-60441488D01*
G75*
G02*
X139524474Y-60390488I51000J0D01*
G01*
X139824474Y-60390488D01*
G75*
G02*
X139875474Y-60441488I0J-51000D01*
G01*
G37*
G36*
G01*
X139375474Y-60441488D02*
X139375474Y-61891488D01*
G75*
G02*
X139324474Y-61942488I-51000J0D01*
G01*
X139024474Y-61942488D01*
G75*
G02*
X138973474Y-61891488I0J51000D01*
G01*
X138973474Y-60441488D01*
G75*
G02*
X139024474Y-60390488I51000J0D01*
G01*
X139324474Y-60390488D01*
G75*
G02*
X139375474Y-60441488I0J-51000D01*
G01*
G37*
G36*
G01*
X138875474Y-60441488D02*
X138875474Y-61891488D01*
G75*
G02*
X138824474Y-61942488I-51000J0D01*
G01*
X138524474Y-61942488D01*
G75*
G02*
X138473474Y-61891488I0J51000D01*
G01*
X138473474Y-60441488D01*
G75*
G02*
X138524474Y-60390488I51000J0D01*
G01*
X138824474Y-60390488D01*
G75*
G02*
X138875474Y-60441488I0J-51000D01*
G01*
G37*
G36*
G01*
X140875474Y-60441488D02*
X140875474Y-61891488D01*
G75*
G02*
X140824474Y-61942488I-51000J0D01*
G01*
X140524474Y-61942488D01*
G75*
G02*
X140473474Y-61891488I0J51000D01*
G01*
X140473474Y-60441488D01*
G75*
G02*
X140524474Y-60390488I51000J0D01*
G01*
X140824474Y-60390488D01*
G75*
G02*
X140875474Y-60441488I0J-51000D01*
G01*
G37*
D10*
X136104474Y-60251488D03*
X144744474Y-60251488D03*
D11*
X143314474Y-59721488D03*
D12*
X144744474Y-56071488D03*
D11*
X137534474Y-59721488D03*
D12*
X136104474Y-56071488D03*
G36*
G01*
X174183700Y-95577866D02*
X173975323Y-94396097D01*
G75*
G02*
X174016692Y-94337016I50225J8856D01*
G01*
X174903019Y-94180733D01*
G75*
G02*
X174962100Y-94222102I8856J-50225D01*
G01*
X175170477Y-95403871D01*
G75*
G02*
X175129108Y-95462952I-50225J-8856D01*
G01*
X174242781Y-95619235D01*
G75*
G02*
X174183700Y-95577866I-8856J50225D01*
G01*
G37*
D13*
X172166550Y-90754868D03*
D14*
X177582993Y-89799803D03*
X166750108Y-91709933D03*
G36*
G01*
X170933834Y-96150904D02*
X170725457Y-94969135D01*
G75*
G02*
X170766826Y-94910054I50225J8856D01*
G01*
X171653153Y-94753771D01*
G75*
G02*
X171712234Y-94795140I8856J-50225D01*
G01*
X171920611Y-95976909D01*
G75*
G02*
X171879242Y-96035990I-50225J-8856D01*
G01*
X170992915Y-96192273D01*
G75*
G02*
X170933834Y-96150904I-8856J50225D01*
G01*
G37*
G36*
G01*
X191910245Y-92452199D02*
X191701868Y-91270430D01*
G75*
G02*
X191743237Y-91211349I50225J8856D01*
G01*
X192629564Y-91055066D01*
G75*
G02*
X192688645Y-91096435I8856J-50225D01*
G01*
X192897022Y-92278204D01*
G75*
G02*
X192855653Y-92337285I-50225J-8856D01*
G01*
X191969326Y-92493568D01*
G75*
G02*
X191910245Y-92452199I-8856J50225D01*
G01*
G37*
D13*
X189893095Y-87629201D03*
D14*
X195309538Y-86674136D03*
X184476653Y-88584266D03*
G36*
G01*
X188660379Y-93025237D02*
X188452002Y-91843468D01*
G75*
G02*
X188493371Y-91784387I50225J8856D01*
G01*
X189379698Y-91628104D01*
G75*
G02*
X189438779Y-91669473I8856J-50225D01*
G01*
X189647156Y-92851242D01*
G75*
G02*
X189605787Y-92910323I-50225J-8856D01*
G01*
X188719460Y-93066606D01*
G75*
G02*
X188660379Y-93025237I-8856J50225D01*
G01*
G37*
G36*
G01*
X209115835Y-86372110D02*
X208907458Y-85190341D01*
G75*
G02*
X208948827Y-85131260I50225J8856D01*
G01*
X209835154Y-84974977D01*
G75*
G02*
X209894235Y-85016346I8856J-50225D01*
G01*
X210102612Y-86198115D01*
G75*
G02*
X210061243Y-86257196I-50225J-8856D01*
G01*
X209174916Y-86413479D01*
G75*
G02*
X209115835Y-86372110I-8856J50225D01*
G01*
G37*
D13*
X207098685Y-81549112D03*
D14*
X212515128Y-80594047D03*
X201682243Y-82504177D03*
G36*
G01*
X205865969Y-86945148D02*
X205657592Y-85763379D01*
G75*
G02*
X205698961Y-85704298I50225J8856D01*
G01*
X206585288Y-85548015D01*
G75*
G02*
X206644369Y-85589384I8856J-50225D01*
G01*
X206852746Y-86771153D01*
G75*
G02*
X206811377Y-86830234I-50225J-8856D01*
G01*
X205925050Y-86986517D01*
G75*
G02*
X205865969Y-86945148I-8856J50225D01*
G01*
G37*
G36*
G01*
X227363320Y-86200867D02*
X227154943Y-85019098D01*
G75*
G02*
X227196312Y-84960017I50225J8856D01*
G01*
X228082639Y-84803734D01*
G75*
G02*
X228141720Y-84845103I8856J-50225D01*
G01*
X228350097Y-86026872D01*
G75*
G02*
X228308728Y-86085953I-50225J-8856D01*
G01*
X227422401Y-86242236D01*
G75*
G02*
X227363320Y-86200867I-8856J50225D01*
G01*
G37*
D13*
X225346170Y-81377869D03*
D14*
X230762613Y-80422804D03*
X219929728Y-82332934D03*
G36*
G01*
X224113454Y-86773905D02*
X223905077Y-85592136D01*
G75*
G02*
X223946446Y-85533055I50225J8856D01*
G01*
X224832773Y-85376772D01*
G75*
G02*
X224891854Y-85418141I8856J-50225D01*
G01*
X225100231Y-86599910D01*
G75*
G02*
X225058862Y-86658991I-50225J-8856D01*
G01*
X224172535Y-86815274D01*
G75*
G02*
X224113454Y-86773905I-8856J50225D01*
G01*
G37*
G36*
G01*
X245958099Y-87999237D02*
X245749722Y-86817468D01*
G75*
G02*
X245791091Y-86758387I50225J8856D01*
G01*
X246677418Y-86602104D01*
G75*
G02*
X246736499Y-86643473I8856J-50225D01*
G01*
X246944876Y-87825242D01*
G75*
G02*
X246903507Y-87884323I-50225J-8856D01*
G01*
X246017180Y-88040606D01*
G75*
G02*
X245958099Y-87999237I-8856J50225D01*
G01*
G37*
D13*
X243940949Y-83176239D03*
D14*
X249357392Y-82221174D03*
X238524507Y-84131304D03*
G36*
G01*
X242708233Y-88572275D02*
X242499856Y-87390506D01*
G75*
G02*
X242541225Y-87331425I50225J8856D01*
G01*
X243427552Y-87175142D01*
G75*
G02*
X243486633Y-87216511I8856J-50225D01*
G01*
X243695010Y-88398280D01*
G75*
G02*
X243653641Y-88457361I-50225J-8856D01*
G01*
X242767314Y-88613644D01*
G75*
G02*
X242708233Y-88572275I-8856J50225D01*
G01*
G37*
G36*
G01*
X263684639Y-84873569D02*
X263476262Y-83691800D01*
G75*
G02*
X263517631Y-83632719I50225J8856D01*
G01*
X264403958Y-83476436D01*
G75*
G02*
X264463039Y-83517805I8856J-50225D01*
G01*
X264671416Y-84699574D01*
G75*
G02*
X264630047Y-84758655I-50225J-8856D01*
G01*
X263743720Y-84914938D01*
G75*
G02*
X263684639Y-84873569I-8856J50225D01*
G01*
G37*
D13*
X261667489Y-80050571D03*
D14*
X267083932Y-79095506D03*
X256251047Y-81005636D03*
G36*
G01*
X260434773Y-85446607D02*
X260226396Y-84264838D01*
G75*
G02*
X260267765Y-84205757I50225J8856D01*
G01*
X261154092Y-84049474D01*
G75*
G02*
X261213173Y-84090843I8856J-50225D01*
G01*
X261421550Y-85272612D01*
G75*
G02*
X261380181Y-85331693I-50225J-8856D01*
G01*
X260493854Y-85487976D01*
G75*
G02*
X260434773Y-85446607I-8856J50225D01*
G01*
G37*
G36*
G01*
X171231687Y-78836140D02*
X171023310Y-77654371D01*
G75*
G02*
X171064679Y-77595290I50225J8856D01*
G01*
X171951006Y-77439007D01*
G75*
G02*
X172010087Y-77480376I8856J-50225D01*
G01*
X172218464Y-78662145D01*
G75*
G02*
X172177095Y-78721226I-50225J-8856D01*
G01*
X171290768Y-78877509D01*
G75*
G02*
X171231687Y-78836140I-8856J50225D01*
G01*
G37*
D13*
X169214537Y-74013142D03*
D14*
X174630980Y-73058077D03*
X163798095Y-74968207D03*
G36*
G01*
X167981821Y-79409178D02*
X167773444Y-78227409D01*
G75*
G02*
X167814813Y-78168328I50225J8856D01*
G01*
X168701140Y-78012045D01*
G75*
G02*
X168760221Y-78053414I8856J-50225D01*
G01*
X168968598Y-79235183D01*
G75*
G02*
X168927229Y-79294264I-50225J-8856D01*
G01*
X168040902Y-79450547D01*
G75*
G02*
X167981821Y-79409178I-8856J50225D01*
G01*
G37*
G36*
G01*
X188958225Y-75710472D02*
X188749848Y-74528703D01*
G75*
G02*
X188791217Y-74469622I50225J8856D01*
G01*
X189677544Y-74313339D01*
G75*
G02*
X189736625Y-74354708I8856J-50225D01*
G01*
X189945002Y-75536477D01*
G75*
G02*
X189903633Y-75595558I-50225J-8856D01*
G01*
X189017306Y-75751841D01*
G75*
G02*
X188958225Y-75710472I-8856J50225D01*
G01*
G37*
D13*
X186941075Y-70887474D03*
D14*
X192357518Y-69932409D03*
X181524633Y-71842539D03*
G36*
G01*
X185708359Y-76283510D02*
X185499982Y-75101741D01*
G75*
G02*
X185541351Y-75042660I50225J8856D01*
G01*
X186427678Y-74886377D01*
G75*
G02*
X186486759Y-74927746I8856J-50225D01*
G01*
X186695136Y-76109515D01*
G75*
G02*
X186653767Y-76168596I-50225J-8856D01*
G01*
X185767440Y-76324879D01*
G75*
G02*
X185708359Y-76283510I-8856J50225D01*
G01*
G37*
G36*
G01*
X206163821Y-69630380D02*
X205955444Y-68448611D01*
G75*
G02*
X205996813Y-68389530I50225J8856D01*
G01*
X206883140Y-68233247D01*
G75*
G02*
X206942221Y-68274616I8856J-50225D01*
G01*
X207150598Y-69456385D01*
G75*
G02*
X207109229Y-69515466I-50225J-8856D01*
G01*
X206222902Y-69671749D01*
G75*
G02*
X206163821Y-69630380I-8856J50225D01*
G01*
G37*
D13*
X204146671Y-64807382D03*
D14*
X209563114Y-63852317D03*
X198730229Y-65762447D03*
G36*
G01*
X202913955Y-70203418D02*
X202705578Y-69021649D01*
G75*
G02*
X202746947Y-68962568I50225J8856D01*
G01*
X203633274Y-68806285D01*
G75*
G02*
X203692355Y-68847654I8856J-50225D01*
G01*
X203900732Y-70029423D01*
G75*
G02*
X203859363Y-70088504I-50225J-8856D01*
G01*
X202973036Y-70244787D01*
G75*
G02*
X202913955Y-70203418I-8856J50225D01*
G01*
G37*
G36*
G01*
X224411307Y-69459138D02*
X224202930Y-68277369D01*
G75*
G02*
X224244299Y-68218288I50225J8856D01*
G01*
X225130626Y-68062005D01*
G75*
G02*
X225189707Y-68103374I8856J-50225D01*
G01*
X225398084Y-69285143D01*
G75*
G02*
X225356715Y-69344224I-50225J-8856D01*
G01*
X224470388Y-69500507D01*
G75*
G02*
X224411307Y-69459138I-8856J50225D01*
G01*
G37*
D13*
X222394157Y-64636140D03*
D14*
X227810600Y-63681075D03*
X216977715Y-65591205D03*
G36*
G01*
X221161441Y-70032176D02*
X220953064Y-68850407D01*
G75*
G02*
X220994433Y-68791326I50225J8856D01*
G01*
X221880760Y-68635043D01*
G75*
G02*
X221939841Y-68676412I8856J-50225D01*
G01*
X222148218Y-69858181D01*
G75*
G02*
X222106849Y-69917262I-50225J-8856D01*
G01*
X221220522Y-70073545D01*
G75*
G02*
X221161441Y-70032176I-8856J50225D01*
G01*
G37*
G36*
G01*
X243006085Y-71257510D02*
X242797708Y-70075741D01*
G75*
G02*
X242839077Y-70016660I50225J8856D01*
G01*
X243725404Y-69860377D01*
G75*
G02*
X243784485Y-69901746I8856J-50225D01*
G01*
X243992862Y-71083515D01*
G75*
G02*
X243951493Y-71142596I-50225J-8856D01*
G01*
X243065166Y-71298879D01*
G75*
G02*
X243006085Y-71257510I-8856J50225D01*
G01*
G37*
D13*
X240988935Y-66434512D03*
D14*
X246405378Y-65479447D03*
X235572493Y-67389577D03*
G36*
G01*
X239756219Y-71830548D02*
X239547842Y-70648779D01*
G75*
G02*
X239589211Y-70589698I50225J8856D01*
G01*
X240475538Y-70433415D01*
G75*
G02*
X240534619Y-70474784I8856J-50225D01*
G01*
X240742996Y-71656553D01*
G75*
G02*
X240701627Y-71715634I-50225J-8856D01*
G01*
X239815300Y-71871917D01*
G75*
G02*
X239756219Y-71830548I-8856J50225D01*
G01*
G37*
G36*
G01*
X260732627Y-68131840D02*
X260524250Y-66950071D01*
G75*
G02*
X260565619Y-66890990I50225J8856D01*
G01*
X261451946Y-66734707D01*
G75*
G02*
X261511027Y-66776076I8856J-50225D01*
G01*
X261719404Y-67957845D01*
G75*
G02*
X261678035Y-68016926I-50225J-8856D01*
G01*
X260791708Y-68173209D01*
G75*
G02*
X260732627Y-68131840I-8856J50225D01*
G01*
G37*
D13*
X258715477Y-63308842D03*
D14*
X264131920Y-62353777D03*
X253299035Y-64263907D03*
G36*
G01*
X257482761Y-68704878D02*
X257274384Y-67523109D01*
G75*
G02*
X257315753Y-67464028I50225J8856D01*
G01*
X258202080Y-67307745D01*
G75*
G02*
X258261161Y-67349114I8856J-50225D01*
G01*
X258469538Y-68530883D01*
G75*
G02*
X258428169Y-68589964I-50225J-8856D01*
G01*
X257541842Y-68746247D01*
G75*
G02*
X257482761Y-68704878I-8856J50225D01*
G01*
G37*
G36*
G01*
X166879663Y-131897987D02*
X166671286Y-130716218D01*
G75*
G02*
X166712655Y-130657137I50225J8856D01*
G01*
X167598982Y-130500854D01*
G75*
G02*
X167658063Y-130542223I8856J-50225D01*
G01*
X167866440Y-131723992D01*
G75*
G02*
X167825071Y-131783073I-50225J-8856D01*
G01*
X166938744Y-131939356D01*
G75*
G02*
X166879663Y-131897987I-8856J50225D01*
G01*
G37*
D13*
X164862513Y-127074989D03*
D14*
X170278956Y-126119924D03*
X159446071Y-128030054D03*
G36*
G01*
X163629797Y-132471025D02*
X163421420Y-131289256D01*
G75*
G02*
X163462789Y-131230175I50225J8856D01*
G01*
X164349116Y-131073892D01*
G75*
G02*
X164408197Y-131115261I8856J-50225D01*
G01*
X164616574Y-132297030D01*
G75*
G02*
X164575205Y-132356111I-50225J-8856D01*
G01*
X163688878Y-132512394D01*
G75*
G02*
X163629797Y-132471025I-8856J50225D01*
G01*
G37*
G36*
G01*
X184606195Y-128772317D02*
X184397818Y-127590548D01*
G75*
G02*
X184439187Y-127531467I50225J8856D01*
G01*
X185325514Y-127375184D01*
G75*
G02*
X185384595Y-127416553I8856J-50225D01*
G01*
X185592972Y-128598322D01*
G75*
G02*
X185551603Y-128657403I-50225J-8856D01*
G01*
X184665276Y-128813686D01*
G75*
G02*
X184606195Y-128772317I-8856J50225D01*
G01*
G37*
D13*
X182589045Y-123949319D03*
D14*
X188005488Y-122994254D03*
X177172603Y-124904384D03*
G36*
G01*
X181356329Y-129345355D02*
X181147952Y-128163586D01*
G75*
G02*
X181189321Y-128104505I50225J8856D01*
G01*
X182075648Y-127948222D01*
G75*
G02*
X182134729Y-127989591I8856J-50225D01*
G01*
X182343106Y-129171360D01*
G75*
G02*
X182301737Y-129230441I-50225J-8856D01*
G01*
X181415410Y-129386724D01*
G75*
G02*
X181356329Y-129345355I-8856J50225D01*
G01*
G37*
G36*
G01*
X202332737Y-125646651D02*
X202124360Y-124464882D01*
G75*
G02*
X202165729Y-124405801I50225J8856D01*
G01*
X203052056Y-124249518D01*
G75*
G02*
X203111137Y-124290887I8856J-50225D01*
G01*
X203319514Y-125472656D01*
G75*
G02*
X203278145Y-125531737I-50225J-8856D01*
G01*
X202391818Y-125688020D01*
G75*
G02*
X202332737Y-125646651I-8856J50225D01*
G01*
G37*
D13*
X200315587Y-120823653D03*
D14*
X205732030Y-119868588D03*
X194899145Y-121778718D03*
G36*
G01*
X199082871Y-126219689D02*
X198874494Y-125037920D01*
G75*
G02*
X198915863Y-124978839I50225J8856D01*
G01*
X199802190Y-124822556D01*
G75*
G02*
X199861271Y-124863925I8856J-50225D01*
G01*
X200069648Y-126045694D01*
G75*
G02*
X200028279Y-126104775I-50225J-8856D01*
G01*
X199141952Y-126261058D01*
G75*
G02*
X199082871Y-126219689I-8856J50225D01*
G01*
G37*
G36*
G01*
X22383241Y-68526995D02*
X22591618Y-67345226D01*
G75*
G02*
X22650699Y-67303857I50225J-8856D01*
G01*
X23537026Y-67460140D01*
G75*
G02*
X23578395Y-67519221I-8856J-50225D01*
G01*
X23370018Y-68700990D01*
G75*
G02*
X23310937Y-68742359I-50225J8856D01*
G01*
X22424610Y-68586076D01*
G75*
G02*
X22383241Y-68526995I8856J50225D01*
G01*
G37*
D13*
X22137302Y-63304954D03*
D14*
X27553744Y-64260019D03*
X16720859Y-62349889D03*
G36*
G01*
X19133375Y-67953957D02*
X19341752Y-66772188D01*
G75*
G02*
X19400833Y-66730819I50225J-8856D01*
G01*
X20287160Y-66887102D01*
G75*
G02*
X20328529Y-66946183I-8856J-50225D01*
G01*
X20120152Y-68127952D01*
G75*
G02*
X20061071Y-68169321I-50225J8856D01*
G01*
X19174744Y-68013038D01*
G75*
G02*
X19133375Y-67953957I8856J50225D01*
G01*
G37*
G36*
G01*
X116236205Y-132293142D02*
X116444582Y-131111373D01*
G75*
G02*
X116503663Y-131070004I50225J-8856D01*
G01*
X117389990Y-131226287D01*
G75*
G02*
X117431359Y-131285368I-8856J-50225D01*
G01*
X117222982Y-132467137D01*
G75*
G02*
X117163901Y-132508506I-50225J8856D01*
G01*
X116277574Y-132352223D01*
G75*
G02*
X116236205Y-132293142I8856J50225D01*
G01*
G37*
D13*
X115990266Y-127071101D03*
D14*
X121406708Y-128026166D03*
X110573823Y-126116036D03*
G36*
G01*
X112986339Y-131720104D02*
X113194716Y-130538335D01*
G75*
G02*
X113253797Y-130496966I50225J-8856D01*
G01*
X114140124Y-130653249D01*
G75*
G02*
X114181493Y-130712330I-8856J-50225D01*
G01*
X113973116Y-131894099D01*
G75*
G02*
X113914035Y-131935468I-50225J8856D01*
G01*
X113027708Y-131779185D01*
G75*
G02*
X112986339Y-131720104I8856J50225D01*
G01*
G37*
G36*
G01*
X98509668Y-129167475D02*
X98718045Y-127985706D01*
G75*
G02*
X98777126Y-127944337I50225J-8856D01*
G01*
X99663453Y-128100620D01*
G75*
G02*
X99704822Y-128159701I-8856J-50225D01*
G01*
X99496445Y-129341470D01*
G75*
G02*
X99437364Y-129382839I-50225J8856D01*
G01*
X98551037Y-129226556D01*
G75*
G02*
X98509668Y-129167475I8856J50225D01*
G01*
G37*
D13*
X98263729Y-123945434D03*
D14*
X103680171Y-124900499D03*
X92847286Y-122990369D03*
G36*
G01*
X95259802Y-128594437D02*
X95468179Y-127412668D01*
G75*
G02*
X95527260Y-127371299I50225J-8856D01*
G01*
X96413587Y-127527582D01*
G75*
G02*
X96454956Y-127586663I-8856J-50225D01*
G01*
X96246579Y-128768432D01*
G75*
G02*
X96187498Y-128809801I-50225J8856D01*
G01*
X95301171Y-128653518D01*
G75*
G02*
X95259802Y-128594437I8856J50225D01*
G01*
G37*
G36*
G01*
X80783125Y-126041809D02*
X80991502Y-124860040D01*
G75*
G02*
X81050583Y-124818671I50225J-8856D01*
G01*
X81936910Y-124974954D01*
G75*
G02*
X81978279Y-125034035I-8856J-50225D01*
G01*
X81769902Y-126215804D01*
G75*
G02*
X81710821Y-126257173I-50225J8856D01*
G01*
X80824494Y-126100890D01*
G75*
G02*
X80783125Y-126041809I8856J50225D01*
G01*
G37*
D13*
X80537186Y-120819768D03*
D14*
X85953628Y-121774833D03*
X75120743Y-119864703D03*
G36*
G01*
X77533259Y-125468771D02*
X77741636Y-124287002D01*
G75*
G02*
X77800717Y-124245633I50225J-8856D01*
G01*
X78687044Y-124401916D01*
G75*
G02*
X78728413Y-124460997I-8856J-50225D01*
G01*
X78520036Y-125642766D01*
G75*
G02*
X78460955Y-125684135I-50225J8856D01*
G01*
X77574628Y-125527852D01*
G75*
G02*
X77533259Y-125468771I8856J50225D01*
G01*
G37*
G36*
G01*
X108932162Y-95973027D02*
X109140539Y-94791258D01*
G75*
G02*
X109199620Y-94749889I50225J-8856D01*
G01*
X110085947Y-94906172D01*
G75*
G02*
X110127316Y-94965253I-8856J-50225D01*
G01*
X109918939Y-96147022D01*
G75*
G02*
X109859858Y-96188391I-50225J8856D01*
G01*
X108973531Y-96032108D01*
G75*
G02*
X108932162Y-95973027I8856J50225D01*
G01*
G37*
D13*
X108686223Y-90750986D03*
D14*
X114102665Y-91706051D03*
X103269780Y-89795921D03*
G36*
G01*
X105682296Y-95399989D02*
X105890673Y-94218220D01*
G75*
G02*
X105949754Y-94176851I50225J-8856D01*
G01*
X106836081Y-94333134D01*
G75*
G02*
X106877450Y-94392215I-8856J-50225D01*
G01*
X106669073Y-95573984D01*
G75*
G02*
X106609992Y-95615353I-50225J8856D01*
G01*
X105723665Y-95459070D01*
G75*
G02*
X105682296Y-95399989I8856J50225D01*
G01*
G37*
G36*
G01*
X91205622Y-92847357D02*
X91413999Y-91665588D01*
G75*
G02*
X91473080Y-91624219I50225J-8856D01*
G01*
X92359407Y-91780502D01*
G75*
G02*
X92400776Y-91839583I-8856J-50225D01*
G01*
X92192399Y-93021352D01*
G75*
G02*
X92133318Y-93062721I-50225J8856D01*
G01*
X91246991Y-92906438D01*
G75*
G02*
X91205622Y-92847357I8856J50225D01*
G01*
G37*
D13*
X90959683Y-87625316D03*
D14*
X96376125Y-88580381D03*
X85543240Y-86670251D03*
G36*
G01*
X87955756Y-92274319D02*
X88164133Y-91092550D01*
G75*
G02*
X88223214Y-91051181I50225J-8856D01*
G01*
X89109541Y-91207464D01*
G75*
G02*
X89150910Y-91266545I-8856J-50225D01*
G01*
X88942533Y-92448314D01*
G75*
G02*
X88883452Y-92489683I-50225J8856D01*
G01*
X87997125Y-92333400D01*
G75*
G02*
X87955756Y-92274319I8856J50225D01*
G01*
G37*
G36*
G01*
X74000030Y-86767269D02*
X74208407Y-85585500D01*
G75*
G02*
X74267488Y-85544131I50225J-8856D01*
G01*
X75153815Y-85700414D01*
G75*
G02*
X75195184Y-85759495I-8856J-50225D01*
G01*
X74986807Y-86941264D01*
G75*
G02*
X74927726Y-86982633I-50225J8856D01*
G01*
X74041399Y-86826350D01*
G75*
G02*
X74000030Y-86767269I8856J50225D01*
G01*
G37*
D13*
X73754091Y-81545228D03*
D14*
X79170533Y-82500293D03*
X68337648Y-80590163D03*
G36*
G01*
X70750164Y-86194231D02*
X70958541Y-85012462D01*
G75*
G02*
X71017622Y-84971093I50225J-8856D01*
G01*
X71903949Y-85127376D01*
G75*
G02*
X71945318Y-85186457I-8856J-50225D01*
G01*
X71736941Y-86368226D01*
G75*
G02*
X71677860Y-86409595I-50225J8856D01*
G01*
X70791533Y-86253312D01*
G75*
G02*
X70750164Y-86194231I8856J50225D01*
G01*
G37*
G36*
G01*
X55752544Y-86596025D02*
X55960921Y-85414256D01*
G75*
G02*
X56020002Y-85372887I50225J-8856D01*
G01*
X56906329Y-85529170D01*
G75*
G02*
X56947698Y-85588251I-8856J-50225D01*
G01*
X56739321Y-86770020D01*
G75*
G02*
X56680240Y-86811389I-50225J8856D01*
G01*
X55793913Y-86655106D01*
G75*
G02*
X55752544Y-86596025I8856J50225D01*
G01*
G37*
D13*
X55506605Y-81373984D03*
D14*
X60923047Y-82329049D03*
X50090162Y-80418919D03*
G36*
G01*
X52502678Y-86022987D02*
X52711055Y-84841218D01*
G75*
G02*
X52770136Y-84799849I50225J-8856D01*
G01*
X53656463Y-84956132D01*
G75*
G02*
X53697832Y-85015213I-8856J-50225D01*
G01*
X53489455Y-86196982D01*
G75*
G02*
X53430374Y-86238351I-50225J8856D01*
G01*
X52544047Y-86082068D01*
G75*
G02*
X52502678Y-86022987I8856J50225D01*
G01*
G37*
G36*
G01*
X37157763Y-88394394D02*
X37366140Y-87212625D01*
G75*
G02*
X37425221Y-87171256I50225J-8856D01*
G01*
X38311548Y-87327539D01*
G75*
G02*
X38352917Y-87386620I-8856J-50225D01*
G01*
X38144540Y-88568389D01*
G75*
G02*
X38085459Y-88609758I-50225J8856D01*
G01*
X37199132Y-88453475D01*
G75*
G02*
X37157763Y-88394394I8856J50225D01*
G01*
G37*
D13*
X36911824Y-83172353D03*
D14*
X42328266Y-84127418D03*
X31495381Y-82217288D03*
G36*
G01*
X33907897Y-87821356D02*
X34116274Y-86639587D01*
G75*
G02*
X34175355Y-86598218I50225J-8856D01*
G01*
X35061682Y-86754501D01*
G75*
G02*
X35103051Y-86813582I-8856J-50225D01*
G01*
X34894674Y-87995351D01*
G75*
G02*
X34835593Y-88036720I-50225J8856D01*
G01*
X33949266Y-87880437D01*
G75*
G02*
X33907897Y-87821356I8856J50225D01*
G01*
G37*
G36*
G01*
X19431225Y-85268727D02*
X19639602Y-84086958D01*
G75*
G02*
X19698683Y-84045589I50225J-8856D01*
G01*
X20585010Y-84201872D01*
G75*
G02*
X20626379Y-84260953I-8856J-50225D01*
G01*
X20418002Y-85442722D01*
G75*
G02*
X20358921Y-85484091I-50225J8856D01*
G01*
X19472594Y-85327808D01*
G75*
G02*
X19431225Y-85268727I8856J50225D01*
G01*
G37*
D13*
X19185286Y-80046686D03*
D14*
X24601728Y-81001751D03*
X13768843Y-79091621D03*
G36*
G01*
X16181359Y-84695689D02*
X16389736Y-83513920D01*
G75*
G02*
X16448817Y-83472551I50225J-8856D01*
G01*
X17335144Y-83628834D01*
G75*
G02*
X17376513Y-83687915I-8856J-50225D01*
G01*
X17168136Y-84869684D01*
G75*
G02*
X17109055Y-84911053I-50225J8856D01*
G01*
X16222728Y-84754770D01*
G75*
G02*
X16181359Y-84695689I8856J50225D01*
G01*
G37*
G36*
G01*
X111884182Y-79231292D02*
X112092559Y-78049523D01*
G75*
G02*
X112151640Y-78008154I50225J-8856D01*
G01*
X113037967Y-78164437D01*
G75*
G02*
X113079336Y-78223518I-8856J-50225D01*
G01*
X112870959Y-79405287D01*
G75*
G02*
X112811878Y-79446656I-50225J8856D01*
G01*
X111925551Y-79290373D01*
G75*
G02*
X111884182Y-79231292I8856J50225D01*
G01*
G37*
D13*
X111638243Y-74009251D03*
D14*
X117054685Y-74964316D03*
X106221800Y-73054186D03*
G36*
G01*
X108634316Y-78658254D02*
X108842693Y-77476485D01*
G75*
G02*
X108901774Y-77435116I50225J-8856D01*
G01*
X109788101Y-77591399D01*
G75*
G02*
X109829470Y-77650480I-8856J-50225D01*
G01*
X109621093Y-78832249D01*
G75*
G02*
X109562012Y-78873618I-50225J8856D01*
G01*
X108675685Y-78717335D01*
G75*
G02*
X108634316Y-78658254I8856J50225D01*
G01*
G37*
G36*
G01*
X94157644Y-76105625D02*
X94366021Y-74923856D01*
G75*
G02*
X94425102Y-74882487I50225J-8856D01*
G01*
X95311429Y-75038770D01*
G75*
G02*
X95352798Y-75097851I-8856J-50225D01*
G01*
X95144421Y-76279620D01*
G75*
G02*
X95085340Y-76320989I-50225J8856D01*
G01*
X94199013Y-76164706D01*
G75*
G02*
X94157644Y-76105625I8856J50225D01*
G01*
G37*
D13*
X93911705Y-70883584D03*
D14*
X99328147Y-71838649D03*
X88495262Y-69928519D03*
G36*
G01*
X90907778Y-75532587D02*
X91116155Y-74350818D01*
G75*
G02*
X91175236Y-74309449I50225J-8856D01*
G01*
X92061563Y-74465732D01*
G75*
G02*
X92102932Y-74524813I-8856J-50225D01*
G01*
X91894555Y-75706582D01*
G75*
G02*
X91835474Y-75747951I-50225J8856D01*
G01*
X90949147Y-75591668D01*
G75*
G02*
X90907778Y-75532587I8856J50225D01*
G01*
G37*
G36*
G01*
X76952047Y-70025536D02*
X77160424Y-68843767D01*
G75*
G02*
X77219505Y-68802398I50225J-8856D01*
G01*
X78105832Y-68958681D01*
G75*
G02*
X78147201Y-69017762I-8856J-50225D01*
G01*
X77938824Y-70199531D01*
G75*
G02*
X77879743Y-70240900I-50225J8856D01*
G01*
X76993416Y-70084617D01*
G75*
G02*
X76952047Y-70025536I8856J50225D01*
G01*
G37*
D13*
X76706108Y-64803495D03*
D14*
X82122550Y-65758560D03*
X71289665Y-63848430D03*
G36*
G01*
X73702181Y-69452498D02*
X73910558Y-68270729D01*
G75*
G02*
X73969639Y-68229360I50225J-8856D01*
G01*
X74855966Y-68385643D01*
G75*
G02*
X74897335Y-68444724I-8856J-50225D01*
G01*
X74688958Y-69626493D01*
G75*
G02*
X74629877Y-69667862I-50225J8856D01*
G01*
X73743550Y-69511579D01*
G75*
G02*
X73702181Y-69452498I8856J50225D01*
G01*
G37*
G36*
G01*
X58704562Y-69854292D02*
X58912939Y-68672523D01*
G75*
G02*
X58972020Y-68631154I50225J-8856D01*
G01*
X59858347Y-68787437D01*
G75*
G02*
X59899716Y-68846518I-8856J-50225D01*
G01*
X59691339Y-70028287D01*
G75*
G02*
X59632258Y-70069656I-50225J8856D01*
G01*
X58745931Y-69913373D01*
G75*
G02*
X58704562Y-69854292I8856J50225D01*
G01*
G37*
D13*
X58458623Y-64632251D03*
D14*
X63875065Y-65587316D03*
X53042180Y-63677186D03*
G36*
G01*
X55454696Y-69281254D02*
X55663073Y-68099485D01*
G75*
G02*
X55722154Y-68058116I50225J-8856D01*
G01*
X56608481Y-68214399D01*
G75*
G02*
X56649850Y-68273480I-8856J-50225D01*
G01*
X56441473Y-69455249D01*
G75*
G02*
X56382392Y-69496618I-50225J8856D01*
G01*
X55496065Y-69340335D01*
G75*
G02*
X55454696Y-69281254I8856J50225D01*
G01*
G37*
G36*
G01*
X40109782Y-71652665D02*
X40318159Y-70470896D01*
G75*
G02*
X40377240Y-70429527I50225J-8856D01*
G01*
X41263567Y-70585810D01*
G75*
G02*
X41304936Y-70644891I-8856J-50225D01*
G01*
X41096559Y-71826660D01*
G75*
G02*
X41037478Y-71868029I-50225J8856D01*
G01*
X40151151Y-71711746D01*
G75*
G02*
X40109782Y-71652665I8856J50225D01*
G01*
G37*
D13*
X39863843Y-66430624D03*
D14*
X45280285Y-67385689D03*
X34447400Y-65475559D03*
G36*
G01*
X36859916Y-71079627D02*
X37068293Y-69897858D01*
G75*
G02*
X37127374Y-69856489I50225J-8856D01*
G01*
X38013701Y-70012772D01*
G75*
G02*
X38055070Y-70071853I-8856J-50225D01*
G01*
X37846693Y-71253622D01*
G75*
G02*
X37787612Y-71294991I-50225J8856D01*
G01*
X36901285Y-71138708D01*
G75*
G02*
X36859916Y-71079627I8856J50225D01*
G01*
G37*
D15*
X158881901Y-116812829D03*
X158881901Y-70312829D03*
X121881901Y-70312829D03*
G36*
G01*
X132281901Y-59420488D02*
X133981901Y-59420488D01*
G75*
G02*
X134032901Y-59471488I0J-51000D01*
G01*
X134032901Y-60371488D01*
G75*
G02*
X133981901Y-60422488I-51000J0D01*
G01*
X132281901Y-60422488D01*
G75*
G02*
X132230901Y-60371488I0J51000D01*
G01*
X132230901Y-59471488D01*
G75*
G02*
X132281901Y-59420488I51000J0D01*
G01*
G37*
G36*
G01*
X132281901Y-56020488D02*
X133981901Y-56020488D01*
G75*
G02*
X134032901Y-56071488I0J-51000D01*
G01*
X134032901Y-56971488D01*
G75*
G02*
X133981901Y-57022488I-51000J0D01*
G01*
X132281901Y-57022488D01*
G75*
G02*
X132230901Y-56971488I0J51000D01*
G01*
X132230901Y-56071488D01*
G75*
G02*
X132281901Y-56020488I51000J0D01*
G01*
G37*
G36*
G01*
X146774474Y-59420488D02*
X148474474Y-59420488D01*
G75*
G02*
X148525474Y-59471488I0J-51000D01*
G01*
X148525474Y-60371488D01*
G75*
G02*
X148474474Y-60422488I-51000J0D01*
G01*
X146774474Y-60422488D01*
G75*
G02*
X146723474Y-60371488I0J51000D01*
G01*
X146723474Y-59471488D01*
G75*
G02*
X146774474Y-59420488I51000J0D01*
G01*
G37*
G36*
G01*
X146774474Y-56020488D02*
X148474474Y-56020488D01*
G75*
G02*
X148525474Y-56071488I0J-51000D01*
G01*
X148525474Y-56971488D01*
G75*
G02*
X148474474Y-57022488I-51000J0D01*
G01*
X146774474Y-57022488D01*
G75*
G02*
X146723474Y-56971488I0J51000D01*
G01*
X146723474Y-56071488D01*
G75*
G02*
X146774474Y-56020488I51000J0D01*
G01*
G37*
D16*
G36*
X137625206Y-60389488D02*
G01*
X137625474Y-60390488D01*
X137625474Y-61942488D01*
X137624474Y-61944220D01*
X137623474Y-61944488D01*
X137525474Y-61944488D01*
X137523742Y-61943488D01*
X137523474Y-61942488D01*
X137523474Y-60390488D01*
X137524474Y-60388756D01*
X137525474Y-60388488D01*
X137623474Y-60388488D01*
X137625206Y-60389488D01*
G37*
G36*
X138475206Y-60389488D02*
G01*
X138475474Y-60390488D01*
X138475474Y-61942488D01*
X138474474Y-61944220D01*
X138473474Y-61944488D01*
X138325474Y-61944488D01*
X138323742Y-61943488D01*
X138323474Y-61942488D01*
X138323474Y-60390488D01*
X138324474Y-60388756D01*
X138325474Y-60388488D01*
X138473474Y-60388488D01*
X138475206Y-60389488D01*
G37*
G36*
X138975206Y-60389488D02*
G01*
X138975474Y-60390488D01*
X138975474Y-61942488D01*
X138974474Y-61944220D01*
X138973474Y-61944488D01*
X138875474Y-61944488D01*
X138873742Y-61943488D01*
X138873474Y-61942488D01*
X138873474Y-60390488D01*
X138874474Y-60388756D01*
X138875474Y-60388488D01*
X138973474Y-60388488D01*
X138975206Y-60389488D01*
G37*
G36*
X139475206Y-60389488D02*
G01*
X139475474Y-60390488D01*
X139475474Y-61942488D01*
X139474474Y-61944220D01*
X139473474Y-61944488D01*
X139375474Y-61944488D01*
X139373742Y-61943488D01*
X139373474Y-61942488D01*
X139373474Y-60390488D01*
X139374474Y-60388756D01*
X139375474Y-60388488D01*
X139473474Y-60388488D01*
X139475206Y-60389488D01*
G37*
G36*
X139975206Y-60389488D02*
G01*
X139975474Y-60390488D01*
X139975474Y-61942488D01*
X139974474Y-61944220D01*
X139973474Y-61944488D01*
X139875474Y-61944488D01*
X139873742Y-61943488D01*
X139873474Y-61942488D01*
X139873474Y-60390488D01*
X139874474Y-60388756D01*
X139875474Y-60388488D01*
X139973474Y-60388488D01*
X139975206Y-60389488D01*
G37*
G36*
X140475206Y-60389488D02*
G01*
X140475474Y-60390488D01*
X140475474Y-61942488D01*
X140474474Y-61944220D01*
X140473474Y-61944488D01*
X140375474Y-61944488D01*
X140373742Y-61943488D01*
X140373474Y-61942488D01*
X140373474Y-60390488D01*
X140374474Y-60388756D01*
X140375474Y-60388488D01*
X140473474Y-60388488D01*
X140475206Y-60389488D01*
G37*
G36*
X140975206Y-60389488D02*
G01*
X140975474Y-60390488D01*
X140975474Y-61942488D01*
X140974474Y-61944220D01*
X140973474Y-61944488D01*
X140875474Y-61944488D01*
X140873742Y-61943488D01*
X140873474Y-61942488D01*
X140873474Y-60390488D01*
X140874474Y-60388756D01*
X140875474Y-60388488D01*
X140973474Y-60388488D01*
X140975206Y-60389488D01*
G37*
G36*
X141475206Y-60389488D02*
G01*
X141475474Y-60390488D01*
X141475474Y-61942488D01*
X141474474Y-61944220D01*
X141473474Y-61944488D01*
X141375474Y-61944488D01*
X141373742Y-61943488D01*
X141373474Y-61942488D01*
X141373474Y-60390488D01*
X141374474Y-60388756D01*
X141375474Y-60388488D01*
X141473474Y-60388488D01*
X141475206Y-60389488D01*
G37*
G36*
X141975206Y-60389488D02*
G01*
X141975474Y-60390488D01*
X141975474Y-61942488D01*
X141974474Y-61944220D01*
X141973474Y-61944488D01*
X141875474Y-61944488D01*
X141873742Y-61943488D01*
X141873474Y-61942488D01*
X141873474Y-60390488D01*
X141874474Y-60388756D01*
X141875474Y-60388488D01*
X141973474Y-60388488D01*
X141975206Y-60389488D01*
G37*
G36*
X142525206Y-60389488D02*
G01*
X142525474Y-60390488D01*
X142525474Y-61942488D01*
X142524474Y-61944220D01*
X142523474Y-61944488D01*
X142375474Y-61944488D01*
X142373742Y-61943488D01*
X142373474Y-61942488D01*
X142373474Y-60390488D01*
X142374474Y-60388756D01*
X142375474Y-60388488D01*
X142523474Y-60388488D01*
X142525206Y-60389488D01*
G37*
G36*
X143325206Y-60389488D02*
G01*
X143325474Y-60390488D01*
X143325474Y-61942488D01*
X143324474Y-61944220D01*
X143323474Y-61944488D01*
X143225474Y-61944488D01*
X143223742Y-61943488D01*
X143223474Y-61942488D01*
X143223474Y-60390488D01*
X143224474Y-60388756D01*
X143225474Y-60388488D01*
X143323474Y-60388488D01*
X143325206Y-60389488D01*
G37*
G36*
X144194639Y-60263863D02*
G01*
X144195474Y-60265489D01*
X144195474Y-60801394D01*
X144206031Y-60908587D01*
X144237273Y-61011577D01*
X144259065Y-61052347D01*
X144258999Y-61054346D01*
X144257236Y-61055289D01*
X144255638Y-61054401D01*
X144245544Y-61039294D01*
X144228497Y-61022247D01*
X144208450Y-61008853D01*
X144186176Y-60999626D01*
X144162526Y-60994922D01*
X144138420Y-60994922D01*
X144114770Y-60999626D01*
X144092496Y-61008853D01*
X144072448Y-61022248D01*
X144055401Y-61039295D01*
X144042007Y-61059342D01*
X144032797Y-61081573D01*
X144027452Y-61117612D01*
X144026209Y-61119179D01*
X144024231Y-61118886D01*
X144023474Y-61117319D01*
X144023474Y-60390488D01*
X144024474Y-60388756D01*
X144025474Y-60388488D01*
X144068381Y-60388488D01*
X144092466Y-60386116D01*
X144115541Y-60379116D01*
X144136805Y-60367751D01*
X144155442Y-60352456D01*
X144170737Y-60333819D01*
X144182102Y-60312555D01*
X144189102Y-60289480D01*
X144191484Y-60265293D01*
X144192649Y-60263667D01*
X144194639Y-60263863D01*
G37*
G36*
X136657464Y-60265293D02*
G01*
X136659846Y-60289480D01*
X136666846Y-60312555D01*
X136678211Y-60333819D01*
X136693506Y-60352456D01*
X136712143Y-60367751D01*
X136733407Y-60379116D01*
X136756482Y-60386116D01*
X136780567Y-60388488D01*
X136823474Y-60388488D01*
X136825206Y-60389488D01*
X136825474Y-60390488D01*
X136825474Y-61117319D01*
X136824474Y-61119051D01*
X136822474Y-61119051D01*
X136821484Y-61117515D01*
X136819102Y-61093329D01*
X136812102Y-61070254D01*
X136800737Y-61048990D01*
X136785442Y-61030353D01*
X136766805Y-61015058D01*
X136745541Y-61003693D01*
X136722466Y-60996693D01*
X136698475Y-60994330D01*
X136674484Y-60996693D01*
X136651409Y-61003693D01*
X136630145Y-61015058D01*
X136611544Y-61030323D01*
X136592284Y-61056294D01*
X136590449Y-61057090D01*
X136588843Y-61055899D01*
X136588914Y-61054160D01*
X136611675Y-61011578D01*
X136642917Y-60908588D01*
X136653474Y-60801394D01*
X136653474Y-60265489D01*
X136654474Y-60263757D01*
X136656474Y-60263757D01*
X136657464Y-60265293D01*
G37*
M02*
