G04 #@! TF.GenerationSoftware,KiCad,Pcbnew,5.1.8*
G04 #@! TF.CreationDate,2021-02-19T14:28:04-06:00*
G04 #@! TF.ProjectId,steno,7374656e-6f2e-46b6-9963-61645f706362,rev?*
G04 #@! TF.SameCoordinates,Original*
G04 #@! TF.FileFunction,Soldermask,Top*
G04 #@! TF.FilePolarity,Negative*
%FSLAX46Y46*%
G04 Gerber Fmt 4.6, Leading zero omitted, Abs format (unit mm)*
G04 Created by KiCad (PCBNEW 5.1.8) date 2021-02-19 14:28:04*
%MOMM*%
%LPD*%
G01*
G04 APERTURE LIST*
%ADD10C,3.502000*%
%ADD11C,1.802000*%
%ADD12C,1.102000*%
%ADD13C,0.100000*%
G04 APERTURE END LIST*
G36*
G01*
X174215126Y-95575117D02*
X174006749Y-94393348D01*
G75*
G02*
X174048118Y-94334267I50225J8856D01*
G01*
X174934445Y-94177984D01*
G75*
G02*
X174993526Y-94219353I8856J-50225D01*
G01*
X175201903Y-95401122D01*
G75*
G02*
X175160534Y-95460203I-50225J-8856D01*
G01*
X174274207Y-95616486D01*
G75*
G02*
X174215126Y-95575117I-8856J50225D01*
G01*
G37*
D10*
X172197976Y-90752119D03*
D11*
X177614419Y-89797054D03*
X166781534Y-91707184D03*
G36*
G01*
X170965260Y-96148155D02*
X170756883Y-94966386D01*
G75*
G02*
X170798252Y-94907305I50225J8856D01*
G01*
X171684579Y-94751022D01*
G75*
G02*
X171743660Y-94792391I8856J-50225D01*
G01*
X171952037Y-95974160D01*
G75*
G02*
X171910668Y-96033241I-50225J-8856D01*
G01*
X171024341Y-96189524D01*
G75*
G02*
X170965260Y-96148155I-8856J50225D01*
G01*
G37*
G36*
G01*
X191793946Y-92475497D02*
X191585569Y-91293728D01*
G75*
G02*
X191626938Y-91234647I50225J8856D01*
G01*
X192513265Y-91078364D01*
G75*
G02*
X192572346Y-91119733I8856J-50225D01*
G01*
X192780723Y-92301502D01*
G75*
G02*
X192739354Y-92360583I-50225J-8856D01*
G01*
X191853027Y-92516866D01*
G75*
G02*
X191793946Y-92475497I-8856J50225D01*
G01*
G37*
D10*
X189776796Y-87652499D03*
D11*
X195193239Y-86697434D03*
X184360354Y-88607564D03*
G36*
G01*
X188544080Y-93048535D02*
X188335703Y-91866766D01*
G75*
G02*
X188377072Y-91807685I50225J8856D01*
G01*
X189263399Y-91651402D01*
G75*
G02*
X189322480Y-91692771I8856J-50225D01*
G01*
X189530857Y-92874540D01*
G75*
G02*
X189489488Y-92933621I-50225J-8856D01*
G01*
X188603161Y-93089904D01*
G75*
G02*
X188544080Y-93048535I-8856J50225D01*
G01*
G37*
G36*
G01*
X209147261Y-86369361D02*
X208938884Y-85187592D01*
G75*
G02*
X208980253Y-85128511I50225J8856D01*
G01*
X209866580Y-84972228D01*
G75*
G02*
X209925661Y-85013597I8856J-50225D01*
G01*
X210134038Y-86195366D01*
G75*
G02*
X210092669Y-86254447I-50225J-8856D01*
G01*
X209206342Y-86410730D01*
G75*
G02*
X209147261Y-86369361I-8856J50225D01*
G01*
G37*
D10*
X207130111Y-81546363D03*
D11*
X212546554Y-80591298D03*
X201713669Y-82501428D03*
G36*
G01*
X205897395Y-86942399D02*
X205689018Y-85760630D01*
G75*
G02*
X205730387Y-85701549I50225J8856D01*
G01*
X206616714Y-85545266D01*
G75*
G02*
X206675795Y-85586635I8856J-50225D01*
G01*
X206884172Y-86768404D01*
G75*
G02*
X206842803Y-86827485I-50225J-8856D01*
G01*
X205956476Y-86983768D01*
G75*
G02*
X205897395Y-86942399I-8856J50225D01*
G01*
G37*
G36*
G01*
X227394746Y-86198116D02*
X227186369Y-85016347D01*
G75*
G02*
X227227738Y-84957266I50225J8856D01*
G01*
X228114065Y-84800983D01*
G75*
G02*
X228173146Y-84842352I8856J-50225D01*
G01*
X228381523Y-86024121D01*
G75*
G02*
X228340154Y-86083202I-50225J-8856D01*
G01*
X227453827Y-86239485D01*
G75*
G02*
X227394746Y-86198116I-8856J50225D01*
G01*
G37*
D10*
X225377596Y-81375118D03*
D11*
X230794039Y-80420053D03*
X219961154Y-82330183D03*
G36*
G01*
X224144880Y-86771154D02*
X223936503Y-85589385D01*
G75*
G02*
X223977872Y-85530304I50225J8856D01*
G01*
X224864199Y-85374021D01*
G75*
G02*
X224923280Y-85415390I8856J-50225D01*
G01*
X225131657Y-86597159D01*
G75*
G02*
X225090288Y-86656240I-50225J-8856D01*
G01*
X224203961Y-86812523D01*
G75*
G02*
X224144880Y-86771154I-8856J50225D01*
G01*
G37*
G36*
G01*
X245989525Y-87996487D02*
X245781148Y-86814718D01*
G75*
G02*
X245822517Y-86755637I50225J8856D01*
G01*
X246708844Y-86599354D01*
G75*
G02*
X246767925Y-86640723I8856J-50225D01*
G01*
X246976302Y-87822492D01*
G75*
G02*
X246934933Y-87881573I-50225J-8856D01*
G01*
X246048606Y-88037856D01*
G75*
G02*
X245989525Y-87996487I-8856J50225D01*
G01*
G37*
D10*
X243972375Y-83173489D03*
D11*
X249388818Y-82218424D03*
X238555933Y-84128554D03*
G36*
G01*
X242739659Y-88569525D02*
X242531282Y-87387756D01*
G75*
G02*
X242572651Y-87328675I50225J8856D01*
G01*
X243458978Y-87172392D01*
G75*
G02*
X243518059Y-87213761I8856J-50225D01*
G01*
X243726436Y-88395530D01*
G75*
G02*
X243685067Y-88454611I-50225J-8856D01*
G01*
X242798740Y-88610894D01*
G75*
G02*
X242739659Y-88569525I-8856J50225D01*
G01*
G37*
G36*
G01*
X263716065Y-84870820D02*
X263507688Y-83689051D01*
G75*
G02*
X263549057Y-83629970I50225J8856D01*
G01*
X264435384Y-83473687D01*
G75*
G02*
X264494465Y-83515056I8856J-50225D01*
G01*
X264702842Y-84696825D01*
G75*
G02*
X264661473Y-84755906I-50225J-8856D01*
G01*
X263775146Y-84912189D01*
G75*
G02*
X263716065Y-84870820I-8856J50225D01*
G01*
G37*
D10*
X261698915Y-80047822D03*
D11*
X267115358Y-79092757D03*
X256282473Y-81002887D03*
G36*
G01*
X260466199Y-85443858D02*
X260257822Y-84262089D01*
G75*
G02*
X260299191Y-84203008I50225J8856D01*
G01*
X261185518Y-84046725D01*
G75*
G02*
X261244599Y-84088094I8856J-50225D01*
G01*
X261452976Y-85269863D01*
G75*
G02*
X261411607Y-85328944I-50225J-8856D01*
G01*
X260525280Y-85485227D01*
G75*
G02*
X260466199Y-85443858I-8856J50225D01*
G01*
G37*
G36*
G01*
X171263113Y-78833390D02*
X171054736Y-77651621D01*
G75*
G02*
X171096105Y-77592540I50225J8856D01*
G01*
X171982432Y-77436257D01*
G75*
G02*
X172041513Y-77477626I8856J-50225D01*
G01*
X172249890Y-78659395D01*
G75*
G02*
X172208521Y-78718476I-50225J-8856D01*
G01*
X171322194Y-78874759D01*
G75*
G02*
X171263113Y-78833390I-8856J50225D01*
G01*
G37*
D10*
X169245963Y-74010392D03*
D11*
X174662406Y-73055327D03*
X163829521Y-74965457D03*
G36*
G01*
X168013247Y-79406428D02*
X167804870Y-78224659D01*
G75*
G02*
X167846239Y-78165578I50225J8856D01*
G01*
X168732566Y-78009295D01*
G75*
G02*
X168791647Y-78050664I8856J-50225D01*
G01*
X169000024Y-79232433D01*
G75*
G02*
X168958655Y-79291514I-50225J-8856D01*
G01*
X168072328Y-79447797D01*
G75*
G02*
X168013247Y-79406428I-8856J50225D01*
G01*
G37*
G36*
G01*
X188989651Y-75707722D02*
X188781274Y-74525953D01*
G75*
G02*
X188822643Y-74466872I50225J8856D01*
G01*
X189708970Y-74310589D01*
G75*
G02*
X189768051Y-74351958I8856J-50225D01*
G01*
X189976428Y-75533727D01*
G75*
G02*
X189935059Y-75592808I-50225J-8856D01*
G01*
X189048732Y-75749091D01*
G75*
G02*
X188989651Y-75707722I-8856J50225D01*
G01*
G37*
D10*
X186972501Y-70884724D03*
D11*
X192388944Y-69929659D03*
X181556059Y-71839789D03*
G36*
G01*
X185739785Y-76280760D02*
X185531408Y-75098991D01*
G75*
G02*
X185572777Y-75039910I50225J8856D01*
G01*
X186459104Y-74883627D01*
G75*
G02*
X186518185Y-74924996I8856J-50225D01*
G01*
X186726562Y-76106765D01*
G75*
G02*
X186685193Y-76165846I-50225J-8856D01*
G01*
X185798866Y-76322129D01*
G75*
G02*
X185739785Y-76280760I-8856J50225D01*
G01*
G37*
G36*
G01*
X206160519Y-69430669D02*
X205952142Y-68248900D01*
G75*
G02*
X205993511Y-68189819I50225J8856D01*
G01*
X206879838Y-68033536D01*
G75*
G02*
X206938919Y-68074905I8856J-50225D01*
G01*
X207147296Y-69256674D01*
G75*
G02*
X207105927Y-69315755I-50225J-8856D01*
G01*
X206219600Y-69472038D01*
G75*
G02*
X206160519Y-69430669I-8856J50225D01*
G01*
G37*
D10*
X204143369Y-64607671D03*
D11*
X209559812Y-63652606D03*
X198726927Y-65562736D03*
G36*
G01*
X202910653Y-70003707D02*
X202702276Y-68821938D01*
G75*
G02*
X202743645Y-68762857I50225J8856D01*
G01*
X203629972Y-68606574D01*
G75*
G02*
X203689053Y-68647943I8856J-50225D01*
G01*
X203897430Y-69829712D01*
G75*
G02*
X203856061Y-69888793I-50225J-8856D01*
G01*
X202969734Y-70045076D01*
G75*
G02*
X202910653Y-70003707I-8856J50225D01*
G01*
G37*
G36*
G01*
X224442733Y-69456388D02*
X224234356Y-68274619D01*
G75*
G02*
X224275725Y-68215538I50225J8856D01*
G01*
X225162052Y-68059255D01*
G75*
G02*
X225221133Y-68100624I8856J-50225D01*
G01*
X225429510Y-69282393D01*
G75*
G02*
X225388141Y-69341474I-50225J-8856D01*
G01*
X224501814Y-69497757D01*
G75*
G02*
X224442733Y-69456388I-8856J50225D01*
G01*
G37*
D10*
X222425583Y-64633390D03*
D11*
X227842026Y-63678325D03*
X217009141Y-65588455D03*
G36*
G01*
X221192867Y-70029426D02*
X220984490Y-68847657D01*
G75*
G02*
X221025859Y-68788576I50225J8856D01*
G01*
X221912186Y-68632293D01*
G75*
G02*
X221971267Y-68673662I8856J-50225D01*
G01*
X222179644Y-69855431D01*
G75*
G02*
X222138275Y-69914512I-50225J-8856D01*
G01*
X221251948Y-70070795D01*
G75*
G02*
X221192867Y-70029426I-8856J50225D01*
G01*
G37*
G36*
G01*
X243037512Y-71254760D02*
X242829135Y-70072991D01*
G75*
G02*
X242870504Y-70013910I50225J8856D01*
G01*
X243756831Y-69857627D01*
G75*
G02*
X243815912Y-69898996I8856J-50225D01*
G01*
X244024289Y-71080765D01*
G75*
G02*
X243982920Y-71139846I-50225J-8856D01*
G01*
X243096593Y-71296129D01*
G75*
G02*
X243037512Y-71254760I-8856J50225D01*
G01*
G37*
D10*
X241020362Y-66431762D03*
D11*
X246436805Y-65476697D03*
X235603920Y-67386827D03*
G36*
G01*
X239787646Y-71827798D02*
X239579269Y-70646029D01*
G75*
G02*
X239620638Y-70586948I50225J8856D01*
G01*
X240506965Y-70430665D01*
G75*
G02*
X240566046Y-70472034I8856J-50225D01*
G01*
X240774423Y-71653803D01*
G75*
G02*
X240733054Y-71712884I-50225J-8856D01*
G01*
X239846727Y-71869167D01*
G75*
G02*
X239787646Y-71827798I-8856J50225D01*
G01*
G37*
G36*
G01*
X260764053Y-68129091D02*
X260555676Y-66947322D01*
G75*
G02*
X260597045Y-66888241I50225J8856D01*
G01*
X261483372Y-66731958D01*
G75*
G02*
X261542453Y-66773327I8856J-50225D01*
G01*
X261750830Y-67955096D01*
G75*
G02*
X261709461Y-68014177I-50225J-8856D01*
G01*
X260823134Y-68170460D01*
G75*
G02*
X260764053Y-68129091I-8856J50225D01*
G01*
G37*
D10*
X258746903Y-63306093D03*
D11*
X264163346Y-62351028D03*
X253330461Y-64261158D03*
G36*
G01*
X257514187Y-68702129D02*
X257305810Y-67520360D01*
G75*
G02*
X257347179Y-67461279I50225J8856D01*
G01*
X258233506Y-67304996D01*
G75*
G02*
X258292587Y-67346365I8856J-50225D01*
G01*
X258500964Y-68528134D01*
G75*
G02*
X258459595Y-68587215I-50225J-8856D01*
G01*
X257573268Y-68743498D01*
G75*
G02*
X257514187Y-68702129I-8856J50225D01*
G01*
G37*
G36*
G01*
X166911089Y-131895238D02*
X166702712Y-130713469D01*
G75*
G02*
X166744081Y-130654388I50225J8856D01*
G01*
X167630408Y-130498105D01*
G75*
G02*
X167689489Y-130539474I8856J-50225D01*
G01*
X167897866Y-131721243D01*
G75*
G02*
X167856497Y-131780324I-50225J-8856D01*
G01*
X166970170Y-131936607D01*
G75*
G02*
X166911089Y-131895238I-8856J50225D01*
G01*
G37*
D10*
X164893939Y-127072240D03*
D11*
X170310382Y-126117175D03*
X159477497Y-128027305D03*
G36*
G01*
X163661223Y-132468276D02*
X163452846Y-131286507D01*
G75*
G02*
X163494215Y-131227426I50225J8856D01*
G01*
X164380542Y-131071143D01*
G75*
G02*
X164439623Y-131112512I8856J-50225D01*
G01*
X164648000Y-132294281D01*
G75*
G02*
X164606631Y-132353362I-50225J-8856D01*
G01*
X163720304Y-132509645D01*
G75*
G02*
X163661223Y-132468276I-8856J50225D01*
G01*
G37*
G36*
G01*
X184637622Y-128769568D02*
X184429245Y-127587799D01*
G75*
G02*
X184470614Y-127528718I50225J8856D01*
G01*
X185356941Y-127372435D01*
G75*
G02*
X185416022Y-127413804I8856J-50225D01*
G01*
X185624399Y-128595573D01*
G75*
G02*
X185583030Y-128654654I-50225J-8856D01*
G01*
X184696703Y-128810937D01*
G75*
G02*
X184637622Y-128769568I-8856J50225D01*
G01*
G37*
D10*
X182620472Y-123946570D03*
D11*
X188036915Y-122991505D03*
X177204030Y-124901635D03*
G36*
G01*
X181387756Y-129342606D02*
X181179379Y-128160837D01*
G75*
G02*
X181220748Y-128101756I50225J8856D01*
G01*
X182107075Y-127945473D01*
G75*
G02*
X182166156Y-127986842I8856J-50225D01*
G01*
X182374533Y-129168611D01*
G75*
G02*
X182333164Y-129227692I-50225J-8856D01*
G01*
X181446837Y-129383975D01*
G75*
G02*
X181387756Y-129342606I-8856J50225D01*
G01*
G37*
G36*
G01*
X202364163Y-125643901D02*
X202155786Y-124462132D01*
G75*
G02*
X202197155Y-124403051I50225J8856D01*
G01*
X203083482Y-124246768D01*
G75*
G02*
X203142563Y-124288137I8856J-50225D01*
G01*
X203350940Y-125469906D01*
G75*
G02*
X203309571Y-125528987I-50225J-8856D01*
G01*
X202423244Y-125685270D01*
G75*
G02*
X202364163Y-125643901I-8856J50225D01*
G01*
G37*
D10*
X200347013Y-120820903D03*
D11*
X205763456Y-119865838D03*
X194930571Y-121775968D03*
G36*
G01*
X199114297Y-126216939D02*
X198905920Y-125035170D01*
G75*
G02*
X198947289Y-124976089I50225J8856D01*
G01*
X199833616Y-124819806D01*
G75*
G02*
X199892697Y-124861175I8856J-50225D01*
G01*
X200101074Y-126042944D01*
G75*
G02*
X200059705Y-126102025I-50225J-8856D01*
G01*
X199173378Y-126258308D01*
G75*
G02*
X199114297Y-126216939I-8856J50225D01*
G01*
G37*
G36*
G01*
X22414668Y-68524246D02*
X22623045Y-67342477D01*
G75*
G02*
X22682126Y-67301108I50225J-8856D01*
G01*
X23568453Y-67457391D01*
G75*
G02*
X23609822Y-67516472I-8856J-50225D01*
G01*
X23401445Y-68698241D01*
G75*
G02*
X23342364Y-68739610I-50225J8856D01*
G01*
X22456037Y-68583327D01*
G75*
G02*
X22414668Y-68524246I8856J50225D01*
G01*
G37*
D10*
X22168729Y-63302205D03*
D11*
X27585171Y-64257270D03*
X16752286Y-62347140D03*
G36*
G01*
X19164802Y-67951208D02*
X19373179Y-66769439D01*
G75*
G02*
X19432260Y-66728070I50225J-8856D01*
G01*
X20318587Y-66884353D01*
G75*
G02*
X20359956Y-66943434I-8856J-50225D01*
G01*
X20151579Y-68125203D01*
G75*
G02*
X20092498Y-68166572I-50225J8856D01*
G01*
X19206171Y-68010289D01*
G75*
G02*
X19164802Y-67951208I8856J50225D01*
G01*
G37*
G36*
G01*
X116267631Y-132290393D02*
X116476008Y-131108624D01*
G75*
G02*
X116535089Y-131067255I50225J-8856D01*
G01*
X117421416Y-131223538D01*
G75*
G02*
X117462785Y-131282619I-8856J-50225D01*
G01*
X117254408Y-132464388D01*
G75*
G02*
X117195327Y-132505757I-50225J8856D01*
G01*
X116309000Y-132349474D01*
G75*
G02*
X116267631Y-132290393I8856J50225D01*
G01*
G37*
D10*
X116021692Y-127068352D03*
D11*
X121438134Y-128023417D03*
X110605249Y-126113287D03*
G36*
G01*
X113017765Y-131717355D02*
X113226142Y-130535586D01*
G75*
G02*
X113285223Y-130494217I50225J-8856D01*
G01*
X114171550Y-130650500D01*
G75*
G02*
X114212919Y-130709581I-8856J-50225D01*
G01*
X114004542Y-131891350D01*
G75*
G02*
X113945461Y-131932719I-50225J8856D01*
G01*
X113059134Y-131776436D01*
G75*
G02*
X113017765Y-131717355I8856J50225D01*
G01*
G37*
G36*
G01*
X98541093Y-129164726D02*
X98749470Y-127982957D01*
G75*
G02*
X98808551Y-127941588I50225J-8856D01*
G01*
X99694878Y-128097871D01*
G75*
G02*
X99736247Y-128156952I-8856J-50225D01*
G01*
X99527870Y-129338721D01*
G75*
G02*
X99468789Y-129380090I-50225J8856D01*
G01*
X98582462Y-129223807D01*
G75*
G02*
X98541093Y-129164726I8856J50225D01*
G01*
G37*
D10*
X98295154Y-123942685D03*
D11*
X103711596Y-124897750D03*
X92878711Y-122987620D03*
G36*
G01*
X95291227Y-128591688D02*
X95499604Y-127409919D01*
G75*
G02*
X95558685Y-127368550I50225J-8856D01*
G01*
X96445012Y-127524833D01*
G75*
G02*
X96486381Y-127583914I-8856J-50225D01*
G01*
X96278004Y-128765683D01*
G75*
G02*
X96218923Y-128807052I-50225J8856D01*
G01*
X95332596Y-128650769D01*
G75*
G02*
X95291227Y-128591688I8856J50225D01*
G01*
G37*
G36*
G01*
X80814552Y-126039059D02*
X81022929Y-124857290D01*
G75*
G02*
X81082010Y-124815921I50225J-8856D01*
G01*
X81968337Y-124972204D01*
G75*
G02*
X82009706Y-125031285I-8856J-50225D01*
G01*
X81801329Y-126213054D01*
G75*
G02*
X81742248Y-126254423I-50225J8856D01*
G01*
X80855921Y-126098140D01*
G75*
G02*
X80814552Y-126039059I8856J50225D01*
G01*
G37*
D10*
X80568613Y-120817018D03*
D11*
X85985055Y-121772083D03*
X75152170Y-119861953D03*
G36*
G01*
X77564686Y-125466021D02*
X77773063Y-124284252D01*
G75*
G02*
X77832144Y-124242883I50225J-8856D01*
G01*
X78718471Y-124399166D01*
G75*
G02*
X78759840Y-124458247I-8856J-50225D01*
G01*
X78551463Y-125640016D01*
G75*
G02*
X78492382Y-125681385I-50225J8856D01*
G01*
X77606055Y-125525102D01*
G75*
G02*
X77564686Y-125466021I8856J50225D01*
G01*
G37*
G36*
G01*
X105713722Y-95397239D02*
X105922099Y-94215470D01*
G75*
G02*
X105981180Y-94174101I50225J-8856D01*
G01*
X106867507Y-94330384D01*
G75*
G02*
X106908876Y-94389465I-8856J-50225D01*
G01*
X106700499Y-95571234D01*
G75*
G02*
X106641418Y-95612603I-50225J8856D01*
G01*
X105755091Y-95456320D01*
G75*
G02*
X105713722Y-95397239I8856J50225D01*
G01*
G37*
X103301206Y-89793171D03*
X114134091Y-91703301D03*
D10*
X108717649Y-90748236D03*
G36*
G01*
X108963588Y-95970277D02*
X109171965Y-94788508D01*
G75*
G02*
X109231046Y-94747139I50225J-8856D01*
G01*
X110117373Y-94903422D01*
G75*
G02*
X110158742Y-94962503I-8856J-50225D01*
G01*
X109950365Y-96144272D01*
G75*
G02*
X109891284Y-96185641I-50225J8856D01*
G01*
X109004957Y-96029358D01*
G75*
G02*
X108963588Y-95970277I8856J50225D01*
G01*
G37*
G36*
G01*
X87987183Y-92271570D02*
X88195560Y-91089801D01*
G75*
G02*
X88254641Y-91048432I50225J-8856D01*
G01*
X89140968Y-91204715D01*
G75*
G02*
X89182337Y-91263796I-8856J-50225D01*
G01*
X88973960Y-92445565D01*
G75*
G02*
X88914879Y-92486934I-50225J8856D01*
G01*
X88028552Y-92330651D01*
G75*
G02*
X87987183Y-92271570I8856J50225D01*
G01*
G37*
D11*
X85574667Y-86667502D03*
X96407552Y-88577632D03*
D10*
X90991110Y-87622567D03*
G36*
G01*
X91237049Y-92844608D02*
X91445426Y-91662839D01*
G75*
G02*
X91504507Y-91621470I50225J-8856D01*
G01*
X92390834Y-91777753D01*
G75*
G02*
X92432203Y-91836834I-8856J-50225D01*
G01*
X92223826Y-93018603D01*
G75*
G02*
X92164745Y-93059972I-50225J8856D01*
G01*
X91278418Y-92903689D01*
G75*
G02*
X91237049Y-92844608I8856J50225D01*
G01*
G37*
G36*
G01*
X70781589Y-86191481D02*
X70989966Y-85009712D01*
G75*
G02*
X71049047Y-84968343I50225J-8856D01*
G01*
X71935374Y-85124626D01*
G75*
G02*
X71976743Y-85183707I-8856J-50225D01*
G01*
X71768366Y-86365476D01*
G75*
G02*
X71709285Y-86406845I-50225J8856D01*
G01*
X70822958Y-86250562D01*
G75*
G02*
X70781589Y-86191481I8856J50225D01*
G01*
G37*
D11*
X68369073Y-80587413D03*
X79201958Y-82497543D03*
D10*
X73785516Y-81542478D03*
G36*
G01*
X74031455Y-86764519D02*
X74239832Y-85582750D01*
G75*
G02*
X74298913Y-85541381I50225J-8856D01*
G01*
X75185240Y-85697664D01*
G75*
G02*
X75226609Y-85756745I-8856J-50225D01*
G01*
X75018232Y-86938514D01*
G75*
G02*
X74959151Y-86979883I-50225J8856D01*
G01*
X74072824Y-86823600D01*
G75*
G02*
X74031455Y-86764519I8856J50225D01*
G01*
G37*
G36*
G01*
X55783970Y-86593275D02*
X55992347Y-85411506D01*
G75*
G02*
X56051428Y-85370137I50225J-8856D01*
G01*
X56937755Y-85526420D01*
G75*
G02*
X56979124Y-85585501I-8856J-50225D01*
G01*
X56770747Y-86767270D01*
G75*
G02*
X56711666Y-86808639I-50225J8856D01*
G01*
X55825339Y-86652356D01*
G75*
G02*
X55783970Y-86593275I8856J50225D01*
G01*
G37*
X55538031Y-81371234D03*
D11*
X60954473Y-82326299D03*
X50121588Y-80416169D03*
G36*
G01*
X52534104Y-86020237D02*
X52742481Y-84838468D01*
G75*
G02*
X52801562Y-84797099I50225J-8856D01*
G01*
X53687889Y-84953382D01*
G75*
G02*
X53729258Y-85012463I-8856J-50225D01*
G01*
X53520881Y-86194232D01*
G75*
G02*
X53461800Y-86235601I-50225J8856D01*
G01*
X52575473Y-86079318D01*
G75*
G02*
X52534104Y-86020237I8856J50225D01*
G01*
G37*
G36*
G01*
X37189189Y-88391645D02*
X37397566Y-87209876D01*
G75*
G02*
X37456647Y-87168507I50225J-8856D01*
G01*
X38342974Y-87324790D01*
G75*
G02*
X38384343Y-87383871I-8856J-50225D01*
G01*
X38175966Y-88565640D01*
G75*
G02*
X38116885Y-88607009I-50225J8856D01*
G01*
X37230558Y-88450726D01*
G75*
G02*
X37189189Y-88391645I8856J50225D01*
G01*
G37*
D10*
X36943250Y-83169604D03*
D11*
X42359692Y-84124669D03*
X31526807Y-82214539D03*
G36*
G01*
X33939323Y-87818607D02*
X34147700Y-86636838D01*
G75*
G02*
X34206781Y-86595469I50225J-8856D01*
G01*
X35093108Y-86751752D01*
G75*
G02*
X35134477Y-86810833I-8856J-50225D01*
G01*
X34926100Y-87992602D01*
G75*
G02*
X34867019Y-88033971I-50225J8856D01*
G01*
X33980692Y-87877688D01*
G75*
G02*
X33939323Y-87818607I8856J50225D01*
G01*
G37*
G36*
G01*
X19462651Y-85265978D02*
X19671028Y-84084209D01*
G75*
G02*
X19730109Y-84042840I50225J-8856D01*
G01*
X20616436Y-84199123D01*
G75*
G02*
X20657805Y-84258204I-8856J-50225D01*
G01*
X20449428Y-85439973D01*
G75*
G02*
X20390347Y-85481342I-50225J8856D01*
G01*
X19504020Y-85325059D01*
G75*
G02*
X19462651Y-85265978I8856J50225D01*
G01*
G37*
D10*
X19216712Y-80043937D03*
D11*
X24633154Y-80999002D03*
X13800269Y-79088872D03*
G36*
G01*
X16212785Y-84692940D02*
X16421162Y-83511171D01*
G75*
G02*
X16480243Y-83469802I50225J-8856D01*
G01*
X17366570Y-83626085D01*
G75*
G02*
X17407939Y-83685166I-8856J-50225D01*
G01*
X17199562Y-84866935D01*
G75*
G02*
X17140481Y-84908304I-50225J8856D01*
G01*
X16254154Y-84752021D01*
G75*
G02*
X16212785Y-84692940I8856J50225D01*
G01*
G37*
G36*
G01*
X111915608Y-79228543D02*
X112123985Y-78046774D01*
G75*
G02*
X112183066Y-78005405I50225J-8856D01*
G01*
X113069393Y-78161688D01*
G75*
G02*
X113110762Y-78220769I-8856J-50225D01*
G01*
X112902385Y-79402538D01*
G75*
G02*
X112843304Y-79443907I-50225J8856D01*
G01*
X111956977Y-79287624D01*
G75*
G02*
X111915608Y-79228543I8856J50225D01*
G01*
G37*
D10*
X111669669Y-74006502D03*
D11*
X117086111Y-74961567D03*
X106253226Y-73051437D03*
G36*
G01*
X108665742Y-78655505D02*
X108874119Y-77473736D01*
G75*
G02*
X108933200Y-77432367I50225J-8856D01*
G01*
X109819527Y-77588650D01*
G75*
G02*
X109860896Y-77647731I-8856J-50225D01*
G01*
X109652519Y-78829500D01*
G75*
G02*
X109593438Y-78870869I-50225J8856D01*
G01*
X108707111Y-78714586D01*
G75*
G02*
X108665742Y-78655505I8856J50225D01*
G01*
G37*
G36*
G01*
X94223799Y-75905915D02*
X94432176Y-74724146D01*
G75*
G02*
X94491257Y-74682777I50225J-8856D01*
G01*
X95377584Y-74839060D01*
G75*
G02*
X95418953Y-74898141I-8856J-50225D01*
G01*
X95210576Y-76079910D01*
G75*
G02*
X95151495Y-76121279I-50225J8856D01*
G01*
X94265168Y-75964996D01*
G75*
G02*
X94223799Y-75905915I8856J50225D01*
G01*
G37*
D10*
X93977860Y-70683874D03*
D11*
X99394302Y-71638939D03*
X88561417Y-69728809D03*
G36*
G01*
X90973933Y-75332877D02*
X91182310Y-74151108D01*
G75*
G02*
X91241391Y-74109739I50225J-8856D01*
G01*
X92127718Y-74266022D01*
G75*
G02*
X92169087Y-74325103I-8856J-50225D01*
G01*
X91960710Y-75506872D01*
G75*
G02*
X91901629Y-75548241I-50225J8856D01*
G01*
X91015302Y-75391958D01*
G75*
G02*
X90973933Y-75332877I8856J50225D01*
G01*
G37*
G36*
G01*
X76983473Y-70022786D02*
X77191850Y-68841017D01*
G75*
G02*
X77250931Y-68799648I50225J-8856D01*
G01*
X78137258Y-68955931D01*
G75*
G02*
X78178627Y-69015012I-8856J-50225D01*
G01*
X77970250Y-70196781D01*
G75*
G02*
X77911169Y-70238150I-50225J8856D01*
G01*
X77024842Y-70081867D01*
G75*
G02*
X76983473Y-70022786I8856J50225D01*
G01*
G37*
D10*
X76737534Y-64800745D03*
D11*
X82153976Y-65755810D03*
X71321091Y-63845680D03*
G36*
G01*
X73733607Y-69449748D02*
X73941984Y-68267979D01*
G75*
G02*
X74001065Y-68226610I50225J-8856D01*
G01*
X74887392Y-68382893D01*
G75*
G02*
X74928761Y-68441974I-8856J-50225D01*
G01*
X74720384Y-69623743D01*
G75*
G02*
X74661303Y-69665112I-50225J8856D01*
G01*
X73774976Y-69508829D01*
G75*
G02*
X73733607Y-69449748I8856J50225D01*
G01*
G37*
G36*
G01*
X58735988Y-69851542D02*
X58944365Y-68669773D01*
G75*
G02*
X59003446Y-68628404I50225J-8856D01*
G01*
X59889773Y-68784687D01*
G75*
G02*
X59931142Y-68843768I-8856J-50225D01*
G01*
X59722765Y-70025537D01*
G75*
G02*
X59663684Y-70066906I-50225J8856D01*
G01*
X58777357Y-69910623D01*
G75*
G02*
X58735988Y-69851542I8856J50225D01*
G01*
G37*
D10*
X58490049Y-64629501D03*
D11*
X63906491Y-65584566D03*
X53073606Y-63674436D03*
G36*
G01*
X55486122Y-69278504D02*
X55694499Y-68096735D01*
G75*
G02*
X55753580Y-68055366I50225J-8856D01*
G01*
X56639907Y-68211649D01*
G75*
G02*
X56681276Y-68270730I-8856J-50225D01*
G01*
X56472899Y-69452499D01*
G75*
G02*
X56413818Y-69493868I-50225J8856D01*
G01*
X55527491Y-69337585D01*
G75*
G02*
X55486122Y-69278504I8856J50225D01*
G01*
G37*
G36*
G01*
X40141208Y-71649915D02*
X40349585Y-70468146D01*
G75*
G02*
X40408666Y-70426777I50225J-8856D01*
G01*
X41294993Y-70583060D01*
G75*
G02*
X41336362Y-70642141I-8856J-50225D01*
G01*
X41127985Y-71823910D01*
G75*
G02*
X41068904Y-71865279I-50225J8856D01*
G01*
X40182577Y-71708996D01*
G75*
G02*
X40141208Y-71649915I8856J50225D01*
G01*
G37*
D10*
X39895269Y-66427874D03*
D11*
X45311711Y-67382939D03*
X34478826Y-65472809D03*
G36*
G01*
X36891342Y-71076877D02*
X37099719Y-69895108D01*
G75*
G02*
X37158800Y-69853739I50225J-8856D01*
G01*
X38045127Y-70010022D01*
G75*
G02*
X38086496Y-70069103I-8856J-50225D01*
G01*
X37878119Y-71250872D01*
G75*
G02*
X37819038Y-71292241I-50225J8856D01*
G01*
X36932711Y-71135958D01*
G75*
G02*
X36891342Y-71076877I8856J50225D01*
G01*
G37*
D12*
X158913327Y-116810080D03*
X158913327Y-70310080D03*
X121913327Y-70310080D03*
G36*
G01*
X132563328Y-62271239D02*
X134263328Y-62271239D01*
G75*
G02*
X134314328Y-62322239I0J-51000D01*
G01*
X134314328Y-63222239D01*
G75*
G02*
X134263328Y-63273239I-51000J0D01*
G01*
X132563328Y-63273239D01*
G75*
G02*
X132512328Y-63222239I0J51000D01*
G01*
X132512328Y-62322239D01*
G75*
G02*
X132563328Y-62271239I51000J0D01*
G01*
G37*
G36*
G01*
X132563328Y-58871239D02*
X134263328Y-58871239D01*
G75*
G02*
X134314328Y-58922239I0J-51000D01*
G01*
X134314328Y-59822239D01*
G75*
G02*
X134263328Y-59873239I-51000J0D01*
G01*
X132563328Y-59873239D01*
G75*
G02*
X132512328Y-59822239I0J51000D01*
G01*
X132512328Y-58922239D01*
G75*
G02*
X132563328Y-58871239I51000J0D01*
G01*
G37*
G36*
G01*
X147043937Y-62271240D02*
X148743937Y-62271240D01*
G75*
G02*
X148794937Y-62322240I0J-51000D01*
G01*
X148794937Y-63222240D01*
G75*
G02*
X148743937Y-63273240I-51000J0D01*
G01*
X147043937Y-63273240D01*
G75*
G02*
X146992937Y-63222240I0J51000D01*
G01*
X146992937Y-62322240D01*
G75*
G02*
X147043937Y-62271240I51000J0D01*
G01*
G37*
G36*
G01*
X147043937Y-58871240D02*
X148743937Y-58871240D01*
G75*
G02*
X148794937Y-58922240I0J-51000D01*
G01*
X148794937Y-59822240D01*
G75*
G02*
X148743937Y-59873240I-51000J0D01*
G01*
X147043937Y-59873240D01*
G75*
G02*
X146992937Y-59822240I0J51000D01*
G01*
X146992937Y-58922240D01*
G75*
G02*
X147043937Y-58871240I51000J0D01*
G01*
G37*
G36*
G01*
X140956898Y-62397239D02*
X140956898Y-63747239D01*
G75*
G02*
X140905898Y-63798239I-51000J0D01*
G01*
X140505898Y-63798239D01*
G75*
G02*
X140454898Y-63747239I0J51000D01*
G01*
X140454898Y-62397239D01*
G75*
G02*
X140505898Y-62346239I51000J0D01*
G01*
X140905898Y-62346239D01*
G75*
G02*
X140956898Y-62397239I0J-51000D01*
G01*
G37*
G36*
G01*
X141606898Y-62397239D02*
X141606898Y-63747239D01*
G75*
G02*
X141555898Y-63798239I-51000J0D01*
G01*
X141155898Y-63798239D01*
G75*
G02*
X141104898Y-63747239I0J51000D01*
G01*
X141104898Y-62397239D01*
G75*
G02*
X141155898Y-62346239I51000J0D01*
G01*
X141555898Y-62346239D01*
G75*
G02*
X141606898Y-62397239I0J-51000D01*
G01*
G37*
G36*
G01*
X140306898Y-62397239D02*
X140306898Y-63747239D01*
G75*
G02*
X140255898Y-63798239I-51000J0D01*
G01*
X139855898Y-63798239D01*
G75*
G02*
X139804898Y-63747239I0J51000D01*
G01*
X139804898Y-62397239D01*
G75*
G02*
X139855898Y-62346239I51000J0D01*
G01*
X140255898Y-62346239D01*
G75*
G02*
X140306898Y-62397239I0J-51000D01*
G01*
G37*
G36*
G01*
X142256898Y-62397239D02*
X142256898Y-63747239D01*
G75*
G02*
X142205898Y-63798239I-51000J0D01*
G01*
X141805898Y-63798239D01*
G75*
G02*
X141754898Y-63747239I0J51000D01*
G01*
X141754898Y-62397239D01*
G75*
G02*
X141805898Y-62346239I51000J0D01*
G01*
X142205898Y-62346239D01*
G75*
G02*
X142256898Y-62397239I0J-51000D01*
G01*
G37*
G36*
G01*
X139656898Y-62397239D02*
X139656898Y-63747239D01*
G75*
G02*
X139605898Y-63798239I-51000J0D01*
G01*
X139205898Y-63798239D01*
G75*
G02*
X139154898Y-63747239I0J51000D01*
G01*
X139154898Y-62397239D01*
G75*
G02*
X139205898Y-62346239I51000J0D01*
G01*
X139605898Y-62346239D01*
G75*
G02*
X139656898Y-62397239I0J-51000D01*
G01*
G37*
G36*
G01*
X144906898Y-62147239D02*
X144906898Y-63747239D01*
G75*
G02*
X144855898Y-63798239I-51000J0D01*
G01*
X142755898Y-63798239D01*
G75*
G02*
X142704898Y-63747239I0J51000D01*
G01*
X142704898Y-62147239D01*
G75*
G02*
X142755898Y-62096239I51000J0D01*
G01*
X144855898Y-62096239D01*
G75*
G02*
X144906898Y-62147239I0J-51000D01*
G01*
G37*
G36*
G01*
X138706898Y-62147239D02*
X138706898Y-63747239D01*
G75*
G02*
X138655898Y-63798239I-51000J0D01*
G01*
X136555898Y-63798239D01*
G75*
G02*
X136504898Y-63747239I0J51000D01*
G01*
X136504898Y-62147239D01*
G75*
G02*
X136555898Y-62096239I51000J0D01*
G01*
X138655898Y-62096239D01*
G75*
G02*
X138706898Y-62147239I0J-51000D01*
G01*
G37*
G36*
G01*
X145456898Y-59447239D02*
X145456898Y-61347239D01*
G75*
G02*
X145405898Y-61398239I-51000J0D01*
G01*
X143605898Y-61398239D01*
G75*
G02*
X143554898Y-61347239I0J51000D01*
G01*
X143554898Y-59447239D01*
G75*
G02*
X143605898Y-59396239I51000J0D01*
G01*
X145405898Y-59396239D01*
G75*
G02*
X145456898Y-59447239I0J-51000D01*
G01*
G37*
G36*
G01*
X137856898Y-59447239D02*
X137856898Y-61347239D01*
G75*
G02*
X137805898Y-61398239I-51000J0D01*
G01*
X136005898Y-61398239D01*
G75*
G02*
X135954898Y-61347239I0J51000D01*
G01*
X135954898Y-59447239D01*
G75*
G02*
X136005898Y-59396239I51000J0D01*
G01*
X137805898Y-59396239D01*
G75*
G02*
X137856898Y-59447239I0J-51000D01*
G01*
G37*
G36*
G01*
X142906898Y-59447239D02*
X142906898Y-61347239D01*
G75*
G02*
X142855898Y-61398239I-51000J0D01*
G01*
X140955898Y-61398239D01*
G75*
G02*
X140904898Y-61347239I0J51000D01*
G01*
X140904898Y-59447239D01*
G75*
G02*
X140955898Y-59396239I51000J0D01*
G01*
X142855898Y-59396239D01*
G75*
G02*
X142906898Y-59447239I0J-51000D01*
G01*
G37*
G36*
G01*
X140506898Y-59447239D02*
X140506898Y-61347239D01*
G75*
G02*
X140455898Y-61398239I-51000J0D01*
G01*
X138555898Y-61398239D01*
G75*
G02*
X138504898Y-61347239I0J51000D01*
G01*
X138504898Y-59447239D01*
G75*
G02*
X138555898Y-59396239I51000J0D01*
G01*
X140455898Y-59396239D01*
G75*
G02*
X140506898Y-59447239I0J-51000D01*
G01*
G37*
D13*
G36*
X141756630Y-62345239D02*
G01*
X141756898Y-62346239D01*
X141756898Y-63798239D01*
X141755898Y-63799971D01*
X141754898Y-63800239D01*
X141606898Y-63800239D01*
X141605166Y-63799239D01*
X141604898Y-63798239D01*
X141604898Y-62348239D01*
X141106898Y-62348239D01*
X141106898Y-63798239D01*
X141105898Y-63799971D01*
X141104898Y-63800239D01*
X140956898Y-63800239D01*
X140955166Y-63799239D01*
X140954898Y-63798239D01*
X140954898Y-62348239D01*
X140456898Y-62348239D01*
X140456898Y-63798239D01*
X140455898Y-63799971D01*
X140454898Y-63800239D01*
X140306898Y-63800239D01*
X140305166Y-63799239D01*
X140304898Y-63798239D01*
X140304898Y-62348239D01*
X139806898Y-62348239D01*
X139806898Y-63798239D01*
X139805898Y-63799971D01*
X139804898Y-63800239D01*
X139656898Y-63800239D01*
X139655166Y-63799239D01*
X139654898Y-63798239D01*
X139654898Y-62346239D01*
X139655898Y-62344507D01*
X139656898Y-62344239D01*
X141754898Y-62344239D01*
X141756630Y-62345239D01*
G37*
M02*
