M48
; DRILL file {KiCad 5.1.5-52549c5~84~ubuntu19.04.1} date Wed 26 Feb 2020 12:13:11 PM CST
; FORMAT={-:-/ absolute / inch / decimal}
; #@! TF.CreationDate,2020-02-26T12:13:11-06:00
; #@! TF.GenerationSoftware,Kicad,Pcbnew,5.1.5-52549c5~84~ubuntu19.04.1
; #@! TF.FileFunction,NonPlated,1,2,NPTH
FMAT,2
INCH
T1C0.0669
T2C0.1339
%
G90
G05
T1
X6.9113Y-3.3189
X7.3444Y-3.3189
X1.8129Y-4.0078
X2.2459Y-4.0078
X7.6396Y-3.3189
X8.0727Y-3.3189
X3.9979Y-4.0078
X4.431Y-4.0078
X3.9979Y-3.3189
X4.431Y-3.3189
X4.7263Y-4.6968
X5.1593Y-4.6968
X4.7263Y-4.0078
X5.1593Y-4.0078
X6.9113Y-4.6968
X7.3444Y-4.6968
X5.4546Y-4.6968
X5.8877Y-4.6968
X3.2696Y-4.6968
X3.7026Y-4.6968
X9.0963Y-4.0078
X9.5294Y-4.0078
X6.183Y-4.0078
X6.616Y-4.0078
X2.5412Y-3.3189
X2.9743Y-3.3189
X2.5412Y-4.0078
X2.9743Y-4.0078
X3.2696Y-4.0078
X3.7026Y-4.0078
X5.4546Y-4.0078
X5.8877Y-4.0078
X8.368Y-3.3189
X8.8011Y-3.3189
X3.9979Y-4.6968
X4.431Y-4.6968
X8.368Y-4.0078
X8.8011Y-4.0078
X5.4546Y-3.3189
X5.8877Y-3.3189
X1.8129Y-3.3189
X2.2459Y-3.3189
X6.183Y-4.6968
X6.616Y-4.6968
X7.6396Y-4.0078
X8.0727Y-4.0078
X9.0963Y-3.3189
X9.5294Y-3.3189
X4.7263Y-3.3189
X5.1593Y-3.3189
X6.9113Y-4.0078
X7.3444Y-4.0078
X6.183Y-3.3189
X6.616Y-3.3189
X3.2696Y-3.3189
X3.7026Y-3.3189
T2
X4.2144Y-4.0078
X4.2144Y-3.3189
X4.9428Y-4.6968
X4.9428Y-4.0078
X7.1278Y-4.6968
X5.6711Y-4.6968
X3.4861Y-4.6968
X9.3129Y-4.0078
X6.3995Y-4.0078
X2.7578Y-3.3189
X2.7578Y-4.0078
X3.4861Y-4.0078
X5.6711Y-4.0078
X8.5845Y-3.3189
X4.2144Y-4.6968
X8.5845Y-4.0078
X5.6711Y-3.3189
X2.0294Y-3.3189
X6.3995Y-4.6968
X7.8562Y-4.0078
X9.3129Y-3.3189
X4.9428Y-3.3189
X7.1278Y-4.0078
X6.3995Y-3.3189
X3.4861Y-3.3189
X7.1278Y-3.3189
X2.0294Y-4.0078
X7.8562Y-3.3189
T0
M30
