M48
; DRILL file {KiCad 5.1.8} date Tue Feb 16 14:53:32 2021
; FORMAT={-:-/ absolute / inch / decimal}
; #@! TF.CreationDate,2021-02-16T14:53:32-06:00
; #@! TF.GenerationSoftware,Kicad,Pcbnew,5.1.8
; #@! TF.FileFunction,NonPlated,1,2,NPTH
FMAT,2
INCH
T1C0.0394
T2C0.0669
T3C0.1339
%
G90
G05
T1
X4.8038Y-2.7678
X6.2605Y-2.7678
X6.2605Y-4.5985
T2
X9.9777Y-2.5296
X10.4042Y-2.4544
X6.5703Y-3.6102
X6.9967Y-3.535
X10.0939Y-3.1887
X10.5204Y-3.1135
X6.454Y-2.951
X6.8805Y-2.8758
X4.1872Y-2.8757
X4.6137Y-2.9509
X4.0709Y-3.5347
X4.4974Y-3.6099
X3.3731Y-3.4118
X3.7996Y-3.487
X7.2681Y-3.4871
X7.6946Y-3.4119
X3.6609Y-4.8418
X4.0874Y-4.917
X7.9455Y-3.2477
X8.372Y-3.1725
X6.2827Y-5.0401
X6.7092Y-4.9649
X0.6636Y-2.4543
X1.0901Y-2.5295
X0.5474Y-3.1134
X0.9739Y-3.1886
X2.6957Y-3.1724
X3.1222Y-3.2476
X7.1519Y-2.828
X7.5784Y-2.7528
X4.3588Y-4.9648
X4.7853Y-5.04
X7.8293Y-2.5886
X8.2558Y-2.5134
X8.6639Y-3.241
X9.0904Y-3.1658
X1.3615Y-2.5773
X1.788Y-2.6525
X2.0936Y-2.5065
X2.5201Y-2.5817
X7.6785Y-4.794
X8.105Y-4.7188
X1.2453Y-3.2364
X1.6718Y-3.3116
X6.9806Y-4.917
X7.4071Y-4.8418
X3.4894Y-2.7526
X3.9158Y-2.8278
X1.9773Y-3.1656
X2.4038Y-3.2408
X9.2798Y-2.6527
X9.7063Y-2.5775
X2.963Y-4.7187
X3.3895Y-4.7939
X2.812Y-2.5133
X3.2385Y-2.5885
X8.5477Y-2.5819
X8.9742Y-2.5067
X9.396Y-3.3118
X9.8225Y-3.2366
T3
X4.2841Y-3.5723
X3.5864Y-3.4494
X7.4814Y-3.4495
X3.8741Y-4.8794
X8.1588Y-3.2101
X6.4959Y-5.0025
X0.8768Y-2.4919
X0.7606Y-3.151
X2.909Y-3.21
X7.3652Y-2.7904
X4.572Y-5.0024
X8.0426Y-2.551
X8.8772Y-3.2034
X1.5747Y-2.6149
X2.3068Y-2.5441
X7.8917Y-4.7564
X1.4585Y-3.274
X7.1938Y-4.8794
X3.7026Y-2.7902
X2.1906Y-3.2032
X9.493Y-2.6151
X3.1762Y-4.7563
X3.0252Y-2.5509
X8.761Y-2.5443
X9.6093Y-3.2742
X10.1909Y-2.492
X6.7835Y-3.5726
X10.3072Y-3.1511
X6.6673Y-2.9134
X4.4005Y-2.9133
T0
M30
