G04 #@! TF.GenerationSoftware,KiCad,Pcbnew,5.1.8*
G04 #@! TF.CreationDate,2021-03-01T17:51:10-06:00*
G04 #@! TF.ProjectId,steno,7374656e-6f2e-46b6-9963-61645f706362,rev?*
G04 #@! TF.SameCoordinates,Original*
G04 #@! TF.FileFunction,Legend,Top*
G04 #@! TF.FilePolarity,Positive*
%FSLAX46Y46*%
G04 Gerber Fmt 4.6, Leading zero omitted, Abs format (unit mm)*
G04 Created by KiCad (PCBNEW 5.1.8) date 2021-03-01 17:51:10*
%MOMM*%
%LPD*%
G01*
G04 APERTURE LIST*
%ADD10C,0.150000*%
%ADD11C,0.250000*%
%ADD12C,0.120000*%
%ADD13C,0.010000*%
G04 APERTURE END LIST*
D10*
X136455426Y-114273867D02*
X136455426Y-114988153D01*
X136407807Y-115131010D01*
X136312569Y-115226248D01*
X136169712Y-115273867D01*
X136074474Y-115273867D01*
X137407807Y-115273867D02*
X136931616Y-115273867D01*
X136931616Y-114273867D01*
X138312569Y-115178629D02*
X138264950Y-115226248D01*
X138122093Y-115273867D01*
X138026854Y-115273867D01*
X137883997Y-115226248D01*
X137788759Y-115131010D01*
X137741140Y-115035772D01*
X137693521Y-114845296D01*
X137693521Y-114702439D01*
X137741140Y-114511963D01*
X137788759Y-114416725D01*
X137883997Y-114321487D01*
X138026854Y-114273867D01*
X138122093Y-114273867D01*
X138264950Y-114321487D01*
X138312569Y-114369106D01*
X139026854Y-114273867D02*
X139026854Y-114988153D01*
X138979235Y-115131010D01*
X138883997Y-115226248D01*
X138741140Y-115273867D01*
X138645902Y-115273867D01*
X139979235Y-115273867D02*
X139503045Y-115273867D01*
X139503045Y-114273867D01*
X140883997Y-115178629D02*
X140836378Y-115226248D01*
X140693521Y-115273867D01*
X140598283Y-115273867D01*
X140455426Y-115226248D01*
X140360188Y-115131010D01*
X140312569Y-115035772D01*
X140264950Y-114845296D01*
X140264950Y-114702439D01*
X140312569Y-114511963D01*
X140360188Y-114416725D01*
X140455426Y-114321487D01*
X140598283Y-114273867D01*
X140693521Y-114273867D01*
X140836378Y-114321487D01*
X140883997Y-114369106D01*
X141598283Y-114273867D02*
X141598283Y-114988153D01*
X141550664Y-115131010D01*
X141455426Y-115226248D01*
X141312569Y-115273867D01*
X141217331Y-115273867D01*
X142550664Y-115273867D02*
X142074474Y-115273867D01*
X142074474Y-114273867D01*
X143455426Y-115178629D02*
X143407807Y-115226248D01*
X143264950Y-115273867D01*
X143169712Y-115273867D01*
X143026854Y-115226248D01*
X142931616Y-115131010D01*
X142883997Y-115035772D01*
X142836378Y-114845296D01*
X142836378Y-114702439D01*
X142883997Y-114511963D01*
X142931616Y-114416725D01*
X143026854Y-114321487D01*
X143169712Y-114273867D01*
X143264950Y-114273867D01*
X143407807Y-114321487D01*
X143455426Y-114369106D01*
X144169712Y-114273867D02*
X144169712Y-114988153D01*
X144122093Y-115131010D01*
X144026854Y-115226248D01*
X143883997Y-115273867D01*
X143788759Y-115273867D01*
X145122093Y-115273867D02*
X144645902Y-115273867D01*
X144645902Y-114273867D01*
X146026854Y-115178629D02*
X145979235Y-115226248D01*
X145836378Y-115273867D01*
X145741140Y-115273867D01*
X145598283Y-115226248D01*
X145503045Y-115131010D01*
X145455426Y-115035772D01*
X145407807Y-114845296D01*
X145407807Y-114702439D01*
X145455426Y-114511963D01*
X145503045Y-114416725D01*
X145598283Y-114321487D01*
X145741140Y-114273867D01*
X145836378Y-114273867D01*
X145979235Y-114321487D01*
X146026854Y-114369106D01*
X168588641Y-111881105D02*
X168776223Y-111848029D01*
X168878283Y-111878387D01*
X168988612Y-111955640D01*
X169068584Y-112134953D01*
X169126467Y-112463223D01*
X169112647Y-112659074D01*
X169035394Y-112769403D01*
X168949871Y-112832837D01*
X168762289Y-112865912D01*
X168660229Y-112835555D01*
X168549900Y-112758301D01*
X168469928Y-112578988D01*
X168412045Y-112250719D01*
X168425865Y-112054867D01*
X168503118Y-111944538D01*
X168588641Y-111881105D01*
X169490644Y-112060533D02*
X169664293Y-113045340D01*
X169498913Y-112107428D02*
X169584436Y-112043995D01*
X169772018Y-112010919D01*
X169874078Y-112041277D01*
X169929243Y-112079903D01*
X169992676Y-112165425D01*
X170042290Y-112446799D01*
X170011932Y-112548859D01*
X169973306Y-112604024D01*
X169887783Y-112667457D01*
X169700201Y-112700533D01*
X169598141Y-112670176D01*
X170864322Y-112446914D02*
X170778800Y-112510347D01*
X170591218Y-112543423D01*
X170489157Y-112513065D01*
X170425724Y-112427543D01*
X170359572Y-112052378D01*
X170389930Y-111950318D01*
X170475452Y-111886884D01*
X170663035Y-111853809D01*
X170765095Y-111884166D01*
X170828528Y-111969689D01*
X170845066Y-112063480D01*
X170392648Y-112239961D01*
X171225782Y-111754581D02*
X171341547Y-112411120D01*
X171242320Y-111848372D02*
X171280946Y-111793208D01*
X171366469Y-111729774D01*
X171507155Y-111704967D01*
X171609216Y-111735325D01*
X171672649Y-111820847D01*
X171763608Y-112336699D01*
X172927729Y-112083079D02*
X173029789Y-112113437D01*
X173217372Y-112080361D01*
X173302894Y-112016928D01*
X173333251Y-111914867D01*
X173324983Y-111867972D01*
X173261549Y-111782450D01*
X173159489Y-111752092D01*
X173018802Y-111776899D01*
X172916742Y-111746541D01*
X172853308Y-111661019D01*
X172845039Y-111614123D01*
X172875397Y-111512063D01*
X172960919Y-111448630D01*
X173101606Y-111423823D01*
X173203666Y-111454180D01*
X173920806Y-111956327D02*
X173818745Y-111925969D01*
X173763581Y-111887342D01*
X173700147Y-111801820D01*
X173650534Y-111520447D01*
X173680891Y-111418386D01*
X173719518Y-111363222D01*
X173805040Y-111299788D01*
X173945727Y-111274981D01*
X174047787Y-111305339D01*
X174102952Y-111343966D01*
X174166385Y-111429488D01*
X174215999Y-111710862D01*
X174185641Y-111812922D01*
X174147015Y-111868086D01*
X174061492Y-111931520D01*
X173920806Y-111956327D01*
X174977430Y-111093064D02*
X175093196Y-111749603D01*
X174555370Y-111167485D02*
X174646328Y-111683337D01*
X174709762Y-111768859D01*
X174811822Y-111799216D01*
X174952509Y-111774410D01*
X175038031Y-111710976D01*
X175076658Y-111655811D01*
X175562152Y-111666913D02*
X175446386Y-111010375D01*
X175479462Y-111197957D02*
X175509820Y-111095897D01*
X175548447Y-111040732D01*
X175633969Y-110977299D01*
X175727760Y-110960761D01*
X176585586Y-111438100D02*
X176500064Y-111501534D01*
X176312482Y-111534610D01*
X176210421Y-111504252D01*
X176155257Y-111465625D01*
X176091823Y-111380103D01*
X176042210Y-111098729D01*
X176072567Y-110996669D01*
X176111194Y-110941505D01*
X176196716Y-110878071D01*
X176384299Y-110844995D01*
X176486359Y-110875353D01*
X177382812Y-111297528D02*
X177297289Y-111360962D01*
X177109707Y-111394037D01*
X177007647Y-111363680D01*
X176944213Y-111278157D01*
X176878062Y-110902993D01*
X176908419Y-110800932D01*
X176993941Y-110737499D01*
X177181524Y-110704423D01*
X177283584Y-110734781D01*
X177347018Y-110820303D01*
X177363556Y-110914094D01*
X176911137Y-111090575D01*
X178282097Y-111187313D02*
X178108449Y-110202506D01*
X178273828Y-111140418D02*
X178188306Y-111203851D01*
X178000723Y-111236927D01*
X177898663Y-111206569D01*
X177843499Y-111167943D01*
X177780065Y-111082421D01*
X177730451Y-110801047D01*
X177760809Y-110698987D01*
X177799436Y-110643822D01*
X177884958Y-110580389D01*
X178072540Y-110547313D01*
X178174601Y-110577670D01*
X180028336Y-110395868D02*
X179973172Y-110357241D01*
X179871111Y-110326883D01*
X179777320Y-110343421D01*
X179691798Y-110406855D01*
X179653171Y-110462020D01*
X179622814Y-110564080D01*
X179639352Y-110657871D01*
X179702785Y-110743393D01*
X179757950Y-110782020D01*
X179860010Y-110812377D01*
X179953801Y-110795840D01*
X180039323Y-110732406D01*
X180077950Y-110677241D01*
X180011798Y-110302077D02*
X180077950Y-110677241D01*
X180133115Y-110715868D01*
X180180010Y-110707599D01*
X180265532Y-110644166D01*
X180295890Y-110542105D01*
X180254545Y-110307627D01*
X180135947Y-110183479D01*
X179978722Y-110114494D01*
X179782871Y-110100674D01*
X179603558Y-110180646D01*
X179479409Y-110299244D01*
X179410424Y-110456469D01*
X179396605Y-110652320D01*
X179476576Y-110831634D01*
X179595174Y-110955782D01*
X179752399Y-111024767D01*
X179948250Y-111038587D01*
X180127564Y-110958615D01*
X180251713Y-110840017D01*
X181824189Y-109885796D02*
X181964761Y-110683021D01*
X181934404Y-110785081D01*
X181895777Y-110840246D01*
X181810255Y-110903680D01*
X181669568Y-110928486D01*
X181567508Y-110898129D01*
X181931686Y-110495439D02*
X181846163Y-110558872D01*
X181658581Y-110591948D01*
X181556521Y-110561591D01*
X181501356Y-110522964D01*
X181437923Y-110437442D01*
X181388309Y-110156068D01*
X181418667Y-110054008D01*
X181457293Y-109998843D01*
X181542815Y-109935410D01*
X181730398Y-109902334D01*
X181832458Y-109932692D01*
X182408911Y-110459645D02*
X182293145Y-109803106D01*
X182235262Y-109474837D02*
X182196636Y-109530002D01*
X182251800Y-109568628D01*
X182290427Y-109513464D01*
X182235262Y-109474837D01*
X182251800Y-109568628D01*
X182621414Y-109745224D02*
X182996579Y-109679072D01*
X182704218Y-109392147D02*
X182853060Y-110236268D01*
X182916493Y-110321791D01*
X183018553Y-110352148D01*
X183112345Y-110335610D01*
X183440614Y-110277728D02*
X183266966Y-109292920D01*
X183862674Y-110203307D02*
X183771716Y-109687455D01*
X183708282Y-109601933D01*
X183606222Y-109571575D01*
X183465535Y-109596382D01*
X183380013Y-109659816D01*
X183341386Y-109714980D01*
X184637925Y-109389658D02*
X184753691Y-110046197D01*
X184215865Y-109464079D02*
X184306824Y-109979931D01*
X184370257Y-110065453D01*
X184472317Y-110095811D01*
X184613004Y-110071004D01*
X184698526Y-110007570D01*
X184737153Y-109952406D01*
X185222647Y-109963507D02*
X185048999Y-108978699D01*
X185115151Y-109353864D02*
X185200673Y-109290431D01*
X185388255Y-109257355D01*
X185490315Y-109287713D01*
X185545480Y-109326339D01*
X185608913Y-109411861D01*
X185658527Y-109693235D01*
X185628170Y-109795295D01*
X185589543Y-109850460D01*
X185504021Y-109913893D01*
X185316438Y-109946969D01*
X185214378Y-109916612D01*
X186097126Y-109712606D02*
X186152290Y-109751232D01*
X186113664Y-109806397D01*
X186058499Y-109767770D01*
X186097126Y-109712606D01*
X186113664Y-109806397D01*
X186996411Y-109602391D02*
X186910889Y-109665825D01*
X186723306Y-109698900D01*
X186621246Y-109668543D01*
X186566082Y-109629916D01*
X186502648Y-109544394D01*
X186453034Y-109263020D01*
X186483392Y-109160960D01*
X186522019Y-109105795D01*
X186607541Y-109042362D01*
X186795123Y-109009286D01*
X186897184Y-109039644D01*
X187567427Y-109550059D02*
X187465367Y-109519701D01*
X187410203Y-109481075D01*
X187346769Y-109395553D01*
X187297155Y-109114179D01*
X187327513Y-109012119D01*
X187366140Y-108956954D01*
X187451662Y-108893521D01*
X187592349Y-108868714D01*
X187694409Y-108899071D01*
X187749573Y-108937698D01*
X187813007Y-109023220D01*
X187862621Y-109304594D01*
X187832263Y-109406654D01*
X187793636Y-109461819D01*
X187708114Y-109525252D01*
X187567427Y-109550059D01*
X188317757Y-109417756D02*
X188201992Y-108761217D01*
X188218530Y-108855008D02*
X188257156Y-108799844D01*
X188342678Y-108736410D01*
X188483365Y-108711603D01*
X188585425Y-108741961D01*
X188648859Y-108827483D01*
X188739818Y-109343335D01*
X188648859Y-108827483D02*
X188679217Y-108725423D01*
X188764739Y-108661990D01*
X188905426Y-108637183D01*
X189007486Y-108667541D01*
X189070919Y-108753063D01*
X189161878Y-109268914D01*
X190152351Y-108030487D02*
X189531492Y-109445510D01*
X191076329Y-108882991D02*
X190990807Y-108946425D01*
X190803224Y-108979501D01*
X190701164Y-108949143D01*
X190646000Y-108910516D01*
X190582566Y-108824994D01*
X190532952Y-108543621D01*
X190563310Y-108441560D01*
X190601937Y-108386396D01*
X190687459Y-108322962D01*
X190875041Y-108289886D01*
X190977101Y-108320244D01*
X191506658Y-108855466D02*
X191390893Y-108198928D01*
X191423969Y-108386510D02*
X191454326Y-108284450D01*
X191492953Y-108229286D01*
X191578475Y-108165852D01*
X191672267Y-108149314D01*
X192116301Y-108747970D02*
X192000536Y-108091431D01*
X191942653Y-107763162D02*
X191904026Y-107818327D01*
X191959191Y-107856953D01*
X191997818Y-107801789D01*
X191942653Y-107763162D01*
X191959191Y-107856953D01*
X193007318Y-108590860D02*
X192833670Y-107606052D01*
X192999049Y-108543964D02*
X192913527Y-108607398D01*
X192725944Y-108640473D01*
X192623884Y-108610116D01*
X192568719Y-108571489D01*
X192505286Y-108485967D01*
X192455672Y-108204593D01*
X192486030Y-108102533D01*
X192524656Y-108047368D01*
X192610179Y-107983935D01*
X192797761Y-107950859D01*
X192899821Y-107981217D01*
X193843170Y-108395123D02*
X193757648Y-108458556D01*
X193570065Y-108491632D01*
X193468005Y-108461274D01*
X193404571Y-108375752D01*
X193338420Y-108000587D01*
X193368777Y-107898527D01*
X193454300Y-107835094D01*
X193641882Y-107802018D01*
X193743942Y-107832375D01*
X193807376Y-107917898D01*
X193823914Y-108011689D01*
X193371496Y-108188170D01*
X194265230Y-108320702D02*
X194367290Y-108351060D01*
X194554873Y-108317984D01*
X194640395Y-108254550D01*
X194670753Y-108152490D01*
X194662484Y-108105595D01*
X194599050Y-108020072D01*
X194496990Y-107989715D01*
X194356303Y-108014522D01*
X194254243Y-107984164D01*
X194190810Y-107898642D01*
X194182541Y-107851746D01*
X194212898Y-107749686D01*
X194298421Y-107686252D01*
X194439107Y-107661445D01*
X194541168Y-107691803D01*
X195639137Y-107063019D02*
X195018278Y-108478041D01*
X196094159Y-107998213D02*
X196196219Y-108028570D01*
X196383802Y-107995494D01*
X196469324Y-107932061D01*
X196499681Y-107830001D01*
X196491413Y-107783105D01*
X196427979Y-107697583D01*
X196325919Y-107667225D01*
X196185232Y-107692032D01*
X196083172Y-107661674D01*
X196019738Y-107576152D01*
X196011469Y-107529257D01*
X196041827Y-107427196D01*
X196127349Y-107363763D01*
X196268036Y-107338956D01*
X196370096Y-107369314D01*
X196690097Y-107264535D02*
X197065261Y-107198384D01*
X196772901Y-106911459D02*
X196921742Y-107755580D01*
X196985175Y-107841102D01*
X197087236Y-107871460D01*
X197181027Y-107854922D01*
X197876192Y-107683992D02*
X197790670Y-107747426D01*
X197603087Y-107780502D01*
X197501027Y-107750144D01*
X197437594Y-107664622D01*
X197371442Y-107289457D01*
X197401800Y-107187397D01*
X197487322Y-107123963D01*
X197674904Y-107090887D01*
X197776964Y-107121245D01*
X197840398Y-107206767D01*
X197856936Y-107300558D01*
X197404518Y-107477039D01*
X198237652Y-106991660D02*
X198353417Y-107648198D01*
X198254190Y-107085451D02*
X198292816Y-107030286D01*
X198378338Y-106966853D01*
X198519025Y-106942046D01*
X198621085Y-106972404D01*
X198684519Y-107057926D01*
X198775478Y-107573777D01*
X199385120Y-107466281D02*
X199283060Y-107435923D01*
X199227896Y-107397297D01*
X199164462Y-107311774D01*
X199114848Y-107030401D01*
X199145206Y-106928341D01*
X199183833Y-106873176D01*
X199269355Y-106809742D01*
X199410042Y-106784936D01*
X199512102Y-106815293D01*
X199567267Y-106853920D01*
X199630700Y-106939442D01*
X199680314Y-107220816D01*
X199649956Y-107322876D01*
X199611329Y-107378041D01*
X199525807Y-107441474D01*
X199385120Y-107466281D01*
D11*
X162960172Y-107225719D02*
X163228292Y-107265479D01*
X163327588Y-107335007D01*
X163441769Y-107488947D01*
X163486421Y-107742183D01*
X163431777Y-107925891D01*
X163362249Y-108025188D01*
X163208309Y-108139368D01*
X162533012Y-108258441D01*
X162220446Y-106485787D01*
X162811330Y-106381598D01*
X162995039Y-106436242D01*
X163094335Y-106505770D01*
X163208515Y-106659710D01*
X163238284Y-106828534D01*
X163183640Y-107012242D01*
X163114112Y-107111539D01*
X162960172Y-107225719D01*
X162369287Y-107329908D01*
X165065375Y-107811917D02*
X164901650Y-106883384D01*
X164787469Y-106729444D01*
X164603761Y-106674800D01*
X164266113Y-106734337D01*
X164112173Y-106848517D01*
X165050491Y-107727505D02*
X164896551Y-107841685D01*
X164474491Y-107916106D01*
X164290782Y-107861462D01*
X164176602Y-107707522D01*
X164146834Y-107538698D01*
X164201478Y-107354990D01*
X164355418Y-107240809D01*
X164777478Y-107166389D01*
X164931418Y-107052208D01*
X165447882Y-106525959D02*
X166123179Y-106406886D01*
X165596929Y-105890422D02*
X165864844Y-107409839D01*
X165979024Y-107563780D01*
X166162732Y-107618423D01*
X166331557Y-107588655D01*
X166441050Y-105741580D02*
X167175678Y-107439814D01*
X167290064Y-106114096D01*
X167850974Y-107320741D01*
X167960468Y-105473666D01*
X168948332Y-107127247D02*
X168739954Y-105945478D01*
X168635765Y-105354593D02*
X168566237Y-105453889D01*
X168665533Y-105523417D01*
X168735061Y-105424121D01*
X168635765Y-105354593D01*
X168665533Y-105523417D01*
X169584075Y-105796636D02*
X169792452Y-106978406D01*
X169613843Y-105965461D02*
X169683371Y-105866164D01*
X169837311Y-105751984D01*
X170090547Y-105707332D01*
X170274256Y-105761976D01*
X170388436Y-105915916D01*
X170552161Y-106844449D01*
X171947613Y-105379881D02*
X172200643Y-106814886D01*
X172146000Y-106998595D01*
X172076472Y-107097891D01*
X171922532Y-107212071D01*
X171669295Y-107256724D01*
X171485587Y-107202080D01*
X172141107Y-106477238D02*
X171987167Y-106591418D01*
X171649519Y-106650955D01*
X171465810Y-106596311D01*
X171366514Y-106526783D01*
X171252334Y-106372843D01*
X171163029Y-105866371D01*
X171217673Y-105682662D01*
X171287201Y-105583366D01*
X171441141Y-105469186D01*
X171778789Y-105409649D01*
X171962497Y-105464293D01*
X172900816Y-106343281D02*
X173084524Y-106397925D01*
X173422172Y-106338388D01*
X173576113Y-106224208D01*
X173630756Y-106040500D01*
X173615872Y-105956087D01*
X173501692Y-105802147D01*
X173317984Y-105747504D01*
X173064747Y-105792156D01*
X172881039Y-105737512D01*
X172766859Y-105583572D01*
X172751974Y-105499160D01*
X172806618Y-105315452D01*
X172960558Y-105201271D01*
X173213795Y-105156619D01*
X173397503Y-105211263D01*
X162881549Y-110235091D02*
X163472434Y-110130902D01*
X163889395Y-111014783D02*
X163045274Y-111163624D01*
X162732708Y-109390970D01*
X163576829Y-109242129D01*
X164649104Y-110880825D02*
X164440726Y-109699056D01*
X164470495Y-109867880D02*
X164540023Y-109768584D01*
X164693963Y-109654404D01*
X164947199Y-109609751D01*
X165130907Y-109664395D01*
X165245088Y-109818335D01*
X165408813Y-110746868D01*
X165245088Y-109818335D02*
X165299731Y-109634627D01*
X165453672Y-109520447D01*
X165706908Y-109475794D01*
X165890616Y-109530438D01*
X166004796Y-109684378D01*
X166168522Y-110612911D01*
X167012643Y-110464070D02*
X166700076Y-108691416D01*
X166819149Y-109366713D02*
X166973089Y-109252532D01*
X167310738Y-109192996D01*
X167494446Y-109247640D01*
X167593742Y-109317168D01*
X167707922Y-109471108D01*
X167797227Y-109977580D01*
X167742583Y-110161288D01*
X167673055Y-110260585D01*
X167519115Y-110374765D01*
X167181467Y-110434302D01*
X166997759Y-110379658D01*
X169276885Y-109977786D02*
X169122945Y-110091967D01*
X168785297Y-110151503D01*
X168601588Y-110096859D01*
X168487408Y-109942919D01*
X168368335Y-109267622D01*
X168422979Y-109083914D01*
X168576919Y-108969734D01*
X168914567Y-108910197D01*
X169098276Y-108964841D01*
X169212456Y-109118781D01*
X169242224Y-109287605D01*
X168427872Y-109605271D01*
X170895599Y-109779400D02*
X170583032Y-108006746D01*
X170880715Y-109694988D02*
X170726775Y-109809168D01*
X170389127Y-109868705D01*
X170205418Y-109814061D01*
X170106122Y-109744533D01*
X169991942Y-109590593D01*
X169902637Y-109084120D01*
X169957281Y-108900412D01*
X170026809Y-108801116D01*
X170180749Y-108686935D01*
X170518397Y-108627399D01*
X170702105Y-108682043D01*
X172499429Y-109496601D02*
X172186862Y-107723947D01*
X172484545Y-109412189D02*
X172330605Y-109526370D01*
X171992956Y-109585906D01*
X171809248Y-109531262D01*
X171709952Y-109461734D01*
X171595771Y-109307794D01*
X171506467Y-108801322D01*
X171561110Y-108617613D01*
X171630638Y-108518317D01*
X171784579Y-108404137D01*
X172122227Y-108344600D01*
X172305935Y-108399244D01*
X174003962Y-109144275D02*
X173850022Y-109258455D01*
X173512374Y-109317992D01*
X173328666Y-109263348D01*
X173214485Y-109109408D01*
X173095412Y-108434111D01*
X173150056Y-108250403D01*
X173303996Y-108136223D01*
X173641645Y-108076686D01*
X173825353Y-108131330D01*
X173939533Y-108285270D01*
X173969301Y-108454094D01*
X173154949Y-108771760D01*
X175622676Y-108945889D02*
X175310110Y-107173235D01*
X175607792Y-108861477D02*
X175453852Y-108975657D01*
X175116204Y-109035193D01*
X174932495Y-108980550D01*
X174833199Y-108911022D01*
X174719019Y-108757082D01*
X174629714Y-108250609D01*
X174684358Y-108066901D01*
X174753886Y-107967604D01*
X174907826Y-107853424D01*
X175245474Y-107793888D01*
X175429183Y-107848531D01*
X177718095Y-108489373D02*
X177901803Y-108544017D01*
X178239451Y-108484481D01*
X178393391Y-108370300D01*
X178448035Y-108186592D01*
X178433151Y-108102180D01*
X178318971Y-107948240D01*
X178135262Y-107893596D01*
X177882026Y-107938248D01*
X177698318Y-107883604D01*
X177584137Y-107729664D01*
X177569253Y-107645252D01*
X177623897Y-107461544D01*
X177777837Y-107347364D01*
X178031073Y-107302711D01*
X178214782Y-107357355D01*
X178790782Y-107168754D02*
X179466079Y-107049681D01*
X178939830Y-106533217D02*
X179207744Y-108052635D01*
X179321924Y-108206575D01*
X179505633Y-108261219D01*
X179674457Y-108231450D01*
X180925754Y-107923776D02*
X180771814Y-108037957D01*
X180434166Y-108097493D01*
X180250457Y-108042849D01*
X180136277Y-107888909D01*
X180017204Y-107213613D01*
X180071848Y-107029904D01*
X180225788Y-106915724D01*
X180563436Y-106856187D01*
X180747145Y-106910831D01*
X180861325Y-107064771D01*
X180891093Y-107233595D01*
X180076740Y-107551261D01*
X181576381Y-106677578D02*
X181784759Y-107859347D01*
X181606150Y-106846402D02*
X181675678Y-106747106D01*
X181829618Y-106632925D01*
X182082854Y-106588273D01*
X182266562Y-106642917D01*
X182380743Y-106796857D01*
X182544468Y-107725390D01*
X183641825Y-107531896D02*
X183458117Y-107477252D01*
X183358821Y-107407725D01*
X183244640Y-107253784D01*
X183155336Y-106747312D01*
X183209979Y-106563604D01*
X183279507Y-106464307D01*
X183433447Y-106350127D01*
X183686684Y-106305475D01*
X183870392Y-106360118D01*
X183969688Y-106429646D01*
X184083869Y-106583586D01*
X184173173Y-107090059D01*
X184118529Y-107273767D01*
X184049002Y-107373064D01*
X183895061Y-107487244D01*
X183641825Y-107531896D01*
X186894343Y-105739878D02*
X187147373Y-107174883D01*
X187092730Y-107358592D01*
X187023202Y-107457888D01*
X186869262Y-107572068D01*
X186616025Y-107616721D01*
X186432317Y-107562077D01*
X187087837Y-106837235D02*
X186933897Y-106951415D01*
X186596248Y-107010952D01*
X186412540Y-106956308D01*
X186313244Y-106886780D01*
X186199064Y-106732840D01*
X186109759Y-106226367D01*
X186164403Y-106042659D01*
X186233931Y-105943363D01*
X186387871Y-105829182D01*
X186725519Y-105769646D01*
X186909227Y-105824290D01*
X187946842Y-106772806D02*
X187738464Y-105591036D01*
X187634275Y-105000152D02*
X187564747Y-105099448D01*
X187664043Y-105168976D01*
X187733571Y-105069680D01*
X187634275Y-105000152D01*
X187664043Y-105168976D01*
X188413761Y-105471963D02*
X189044199Y-106579312D01*
X189257882Y-105323122D01*
X190801969Y-106182333D02*
X190648029Y-106296514D01*
X190310381Y-106356050D01*
X190126672Y-106301406D01*
X190012492Y-106147466D01*
X189893419Y-105472169D01*
X189948063Y-105288461D01*
X190102003Y-105174281D01*
X190439651Y-105114744D01*
X190623359Y-105169388D01*
X190737540Y-105323328D01*
X190767308Y-105492152D01*
X189952955Y-105809818D01*
X191561678Y-106048376D02*
X191745386Y-106103020D01*
X192083034Y-106043483D01*
X192236975Y-105929303D01*
X192291618Y-105745595D01*
X192276734Y-105661183D01*
X192162554Y-105507243D01*
X191978846Y-105452599D01*
X191725609Y-105497251D01*
X191541901Y-105442607D01*
X191427721Y-105288667D01*
X191412837Y-105204255D01*
X191467480Y-105020547D01*
X191621420Y-104906366D01*
X191874657Y-104861714D01*
X192058365Y-104916358D01*
X194069371Y-104474727D02*
X194699809Y-105582075D01*
X194913492Y-104325885D02*
X194699809Y-105582075D01*
X194605406Y-106033904D01*
X194535878Y-106133200D01*
X194381938Y-106247381D01*
X196050403Y-105343929D02*
X195866695Y-105289285D01*
X195767398Y-105219757D01*
X195653218Y-105065817D01*
X195563913Y-104559345D01*
X195618557Y-104375637D01*
X195688085Y-104276340D01*
X195842025Y-104162160D01*
X196095261Y-104117508D01*
X196278970Y-104172151D01*
X196378266Y-104241679D01*
X196492446Y-104395619D01*
X196581751Y-104902092D01*
X196527107Y-105085800D01*
X196457579Y-105185097D01*
X196303639Y-105299277D01*
X196050403Y-105343929D01*
X197952327Y-103790057D02*
X198160705Y-104971826D01*
X197192619Y-103924014D02*
X197356344Y-104852547D01*
X197470524Y-105006487D01*
X197654233Y-105061131D01*
X197907469Y-105016478D01*
X198061409Y-104902298D01*
X198130937Y-104803002D01*
X199978218Y-103432838D02*
X200524244Y-104555070D01*
X200713051Y-103651413D01*
X201199541Y-104435997D01*
X201328811Y-103194692D01*
X202212486Y-104257388D02*
X202004108Y-103075619D01*
X201899919Y-102484734D02*
X201830391Y-102584030D01*
X201929687Y-102653558D01*
X201999215Y-102554262D01*
X201899919Y-102484734D01*
X201929687Y-102653558D01*
X202848229Y-102926777D02*
X203056607Y-104108547D01*
X202877997Y-103095601D02*
X202947525Y-102996305D01*
X203101465Y-102882125D01*
X203354701Y-102837472D01*
X203538410Y-102892116D01*
X203652590Y-103046056D01*
X203816315Y-103974589D01*
X205211767Y-102510022D02*
X205464798Y-103945027D01*
X205410154Y-104128735D01*
X205340626Y-104228032D01*
X205186686Y-104342212D01*
X204933449Y-104386864D01*
X204749741Y-104332221D01*
X205405261Y-103607379D02*
X205251321Y-103721559D01*
X204913673Y-103781096D01*
X204729964Y-103726452D01*
X204630668Y-103656924D01*
X204516488Y-103502984D01*
X204427183Y-102996511D01*
X204481827Y-102812803D01*
X204551355Y-102713507D01*
X204705295Y-102599326D01*
X205042943Y-102539790D01*
X205226652Y-102594434D01*
X206164970Y-103473422D02*
X206348678Y-103528065D01*
X206686327Y-103468529D01*
X206840267Y-103354349D01*
X206894910Y-103170640D01*
X206880026Y-103086228D01*
X206765846Y-102932288D01*
X206582138Y-102877644D01*
X206328901Y-102922297D01*
X206145193Y-102867653D01*
X206031013Y-102713713D01*
X206016129Y-102629301D01*
X206070772Y-102445592D01*
X206224713Y-102331412D01*
X206477949Y-102286760D01*
X206661657Y-102341403D01*
X207669503Y-103121095D02*
X207768800Y-103190623D01*
X207699272Y-103289919D01*
X207599975Y-103220391D01*
X207669503Y-103121095D01*
X207699272Y-103289919D01*
X207580199Y-102614623D02*
X207317177Y-101616562D01*
X207386705Y-101517265D01*
X207486001Y-101586793D01*
X207580199Y-102614623D01*
X207386705Y-101517265D01*
D12*
X145124474Y-55121488D02*
X145124474Y-53221488D01*
X145124474Y-59021488D02*
X145124474Y-57021488D01*
X135724474Y-55121488D02*
X135724474Y-53221488D01*
X135724474Y-59021488D02*
X135724474Y-57021488D01*
X145124474Y-53221488D02*
X135724474Y-53221488D01*
X170558501Y-94592404D02*
X170905798Y-96562019D01*
X170905798Y-96562019D02*
X174746548Y-95884791D01*
X170558501Y-94592404D02*
X174399252Y-93915176D01*
X188285046Y-91466737D02*
X188632343Y-93436352D01*
X188632343Y-93436352D02*
X192473093Y-92759124D01*
X188285046Y-91466737D02*
X192125797Y-90789509D01*
X205490636Y-85386648D02*
X205837933Y-87356263D01*
X205837933Y-87356263D02*
X209678683Y-86679035D01*
X205490636Y-85386648D02*
X209331387Y-84709420D01*
X223738121Y-85215405D02*
X224085418Y-87185020D01*
X224085418Y-87185020D02*
X227926168Y-86507792D01*
X223738121Y-85215405D02*
X227578872Y-84538177D01*
X242332900Y-87013775D02*
X242680197Y-88983390D01*
X242680197Y-88983390D02*
X246520947Y-88306162D01*
X242332900Y-87013775D02*
X246173651Y-86336547D01*
X260059440Y-83888107D02*
X260406737Y-85857722D01*
X260406737Y-85857722D02*
X264247487Y-85180494D01*
X260059440Y-83888107D02*
X263900191Y-83210879D01*
X167606488Y-77850678D02*
X167953785Y-79820293D01*
X167953785Y-79820293D02*
X171794535Y-79143065D01*
X167606488Y-77850678D02*
X171447239Y-77173450D01*
X185333026Y-74725010D02*
X185680323Y-76694625D01*
X185680323Y-76694625D02*
X189521073Y-76017397D01*
X185333026Y-74725010D02*
X189173777Y-74047782D01*
X202538622Y-68644918D02*
X202885919Y-70614533D01*
X202885919Y-70614533D02*
X206726669Y-69937305D01*
X202538622Y-68644918D02*
X206379373Y-67967690D01*
X220786108Y-68473676D02*
X221133405Y-70443291D01*
X221133405Y-70443291D02*
X224974155Y-69766063D01*
X220786108Y-68473676D02*
X224626859Y-67796448D01*
X239380886Y-70272048D02*
X239728183Y-72241663D01*
X239728183Y-72241663D02*
X243568933Y-71564435D01*
X239380886Y-70272048D02*
X243221637Y-69594820D01*
X257107428Y-67146378D02*
X257454725Y-69115993D01*
X257454725Y-69115993D02*
X261295475Y-68438765D01*
X257107428Y-67146378D02*
X260948179Y-66469150D01*
X163254464Y-130912525D02*
X163601761Y-132882140D01*
X163601761Y-132882140D02*
X167442511Y-132204912D01*
X163254464Y-130912525D02*
X167095215Y-130235297D01*
X180980996Y-127786855D02*
X181328293Y-129756470D01*
X181328293Y-129756470D02*
X185169043Y-129079242D01*
X180980996Y-127786855D02*
X184821747Y-127109627D01*
X198707538Y-124661189D02*
X199054835Y-126630804D01*
X199054835Y-126630804D02*
X202895585Y-125953576D01*
X198707538Y-124661189D02*
X202548289Y-123983961D01*
X19313716Y-66361073D02*
X18966419Y-68330688D01*
X18966419Y-68330688D02*
X22807170Y-69007916D01*
X19313716Y-66361073D02*
X23154466Y-67038301D01*
X113166680Y-130127220D02*
X112819383Y-132096835D01*
X112819383Y-132096835D02*
X116660134Y-132774063D01*
X113166680Y-130127220D02*
X117007430Y-130804448D01*
X95440143Y-127001553D02*
X95092846Y-128971168D01*
X95092846Y-128971168D02*
X98933597Y-129648396D01*
X95440143Y-127001553D02*
X99280893Y-127678781D01*
X77713600Y-123875887D02*
X77366303Y-125845502D01*
X77366303Y-125845502D02*
X81207054Y-126522730D01*
X77713600Y-123875887D02*
X81554350Y-124553115D01*
X105862637Y-93807105D02*
X105515340Y-95776720D01*
X105515340Y-95776720D02*
X109356091Y-96453948D01*
X105862637Y-93807105D02*
X109703387Y-94484333D01*
X88136097Y-90681435D02*
X87788800Y-92651050D01*
X87788800Y-92651050D02*
X91629551Y-93328278D01*
X88136097Y-90681435D02*
X91976847Y-91358663D01*
X70930505Y-84601347D02*
X70583208Y-86570962D01*
X70583208Y-86570962D02*
X74423959Y-87248190D01*
X70930505Y-84601347D02*
X74771255Y-85278575D01*
X52683019Y-84430103D02*
X52335722Y-86399718D01*
X52335722Y-86399718D02*
X56176473Y-87076946D01*
X52683019Y-84430103D02*
X56523769Y-85107331D01*
X34088238Y-86228472D02*
X33740941Y-88198087D01*
X33740941Y-88198087D02*
X37581692Y-88875315D01*
X34088238Y-86228472D02*
X37928988Y-86905700D01*
X16361700Y-83102805D02*
X16014403Y-85072420D01*
X16014403Y-85072420D02*
X19855154Y-85749648D01*
X16361700Y-83102805D02*
X20202450Y-83780033D01*
X108814657Y-77065370D02*
X108467360Y-79034985D01*
X108467360Y-79034985D02*
X112308111Y-79712213D01*
X108814657Y-77065370D02*
X112655407Y-77742598D01*
X91088119Y-73939703D02*
X90740822Y-75909318D01*
X90740822Y-75909318D02*
X94581573Y-76586546D01*
X91088119Y-73939703D02*
X94928869Y-74616931D01*
X73882522Y-67859614D02*
X73535225Y-69829229D01*
X73535225Y-69829229D02*
X77375976Y-70506457D01*
X73882522Y-67859614D02*
X77723272Y-68536842D01*
X55635037Y-67688370D02*
X55287740Y-69657985D01*
X55287740Y-69657985D02*
X59128491Y-70335213D01*
X55635037Y-67688370D02*
X59475787Y-68365598D01*
X37040257Y-69486743D02*
X36692960Y-71456358D01*
X36692960Y-71456358D02*
X40533711Y-72133586D01*
X37040257Y-69486743D02*
X40881007Y-70163971D01*
X160431901Y-119912829D02*
X160431901Y-64712829D01*
X152881901Y-119912829D02*
X160431901Y-119912829D01*
X152881901Y-119612829D02*
X152881901Y-119912829D01*
X127881901Y-119612829D02*
X152881901Y-119612829D01*
X127881901Y-119912829D02*
X127881901Y-119612829D01*
X120331901Y-119912829D02*
X127881901Y-119912829D01*
X120331901Y-64712829D02*
X120331901Y-119912829D01*
X160431901Y-64712829D02*
X120331901Y-64712829D01*
X134531901Y-59871488D02*
X134231901Y-59871488D01*
X134531901Y-56571488D02*
X134531901Y-59871488D01*
X134231901Y-56571488D02*
X134531901Y-56571488D01*
X131731901Y-59871488D02*
X132031901Y-59871488D01*
X131731901Y-56571488D02*
X131731901Y-59871488D01*
X132031901Y-56571488D02*
X131731901Y-56571488D01*
D13*
G36*
X194519908Y-96161330D02*
G01*
X194546086Y-96159539D01*
X194616131Y-96154181D01*
X194720976Y-96143683D01*
X194845076Y-96129686D01*
X194944811Y-96117450D01*
X195069815Y-96103476D01*
X195184509Y-96094149D01*
X195274704Y-96090427D01*
X195320284Y-96092204D01*
X195383475Y-96095675D01*
X195422790Y-96088408D01*
X195424437Y-96087186D01*
X195457513Y-96079636D01*
X195526688Y-96075631D01*
X195617338Y-96075985D01*
X195622290Y-96076136D01*
X195718530Y-96075814D01*
X195798813Y-96069510D01*
X195845789Y-96058590D01*
X195845836Y-96058566D01*
X195898715Y-96048681D01*
X195972491Y-96053958D01*
X195988007Y-96057012D01*
X196050184Y-96067153D01*
X196138772Y-96075134D01*
X196259738Y-96081250D01*
X196419054Y-96085796D01*
X196622688Y-96089067D01*
X196642107Y-96089294D01*
X196742821Y-96091969D01*
X196844321Y-96096898D01*
X196862898Y-96098141D01*
X196954594Y-96103900D01*
X197060637Y-96109423D01*
X197097301Y-96111051D01*
X197181151Y-96116894D01*
X197248405Y-96125696D01*
X197269698Y-96130695D01*
X197317121Y-96139290D01*
X197396015Y-96146826D01*
X197466663Y-96150696D01*
X197556999Y-96157867D01*
X197631174Y-96170484D01*
X197665074Y-96182023D01*
X197726650Y-96198976D01*
X197758052Y-96197375D01*
X197818540Y-96193839D01*
X197886659Y-96199539D01*
X197948421Y-96208491D01*
X198043256Y-96221485D01*
X198153842Y-96236160D01*
X198190564Y-96240934D01*
X198358433Y-96264020D01*
X198510472Y-96287561D01*
X198636726Y-96309859D01*
X198727242Y-96329224D01*
X198755235Y-96337031D01*
X198811977Y-96347344D01*
X198835890Y-96346540D01*
X198879139Y-96349542D01*
X198949247Y-96363956D01*
X198981421Y-96372463D01*
X199053839Y-96390737D01*
X199105990Y-96399926D01*
X199117444Y-96400063D01*
X199151462Y-96404640D01*
X199219920Y-96420135D01*
X199308617Y-96442807D01*
X199403355Y-96468915D01*
X199489934Y-96494722D01*
X199540770Y-96511556D01*
X199599811Y-96530634D01*
X199695525Y-96559423D01*
X199815545Y-96594359D01*
X199947509Y-96631877D01*
X200079053Y-96668413D01*
X200172485Y-96693689D01*
X200257200Y-96718497D01*
X200318892Y-96740808D01*
X200344627Y-96755923D01*
X200344718Y-96756267D01*
X200368472Y-96772514D01*
X200428246Y-96799184D01*
X200511787Y-96830887D01*
X200523876Y-96835139D01*
X200615813Y-96869615D01*
X200691543Y-96902408D01*
X200735490Y-96926739D01*
X200736813Y-96927813D01*
X200783852Y-96951767D01*
X200806283Y-96953406D01*
X200847974Y-96961591D01*
X200909793Y-96989104D01*
X200924167Y-96997099D01*
X200982910Y-97028135D01*
X201021832Y-97043270D01*
X201026350Y-97043561D01*
X201055592Y-97053255D01*
X201116230Y-97081529D01*
X201195248Y-97122309D01*
X201196770Y-97123127D01*
X201301718Y-97178979D01*
X201412519Y-97237117D01*
X201481531Y-97272802D01*
X201601818Y-97335999D01*
X201725442Y-97403736D01*
X201843317Y-97470717D01*
X201946358Y-97531648D01*
X202025477Y-97581232D01*
X202071590Y-97614177D01*
X202077856Y-97620298D01*
X202114371Y-97646738D01*
X202129414Y-97648608D01*
X202165928Y-97658287D01*
X202221613Y-97687745D01*
X202227421Y-97691431D01*
X202274606Y-97726632D01*
X202283496Y-97753022D01*
X202269197Y-97775614D01*
X202228844Y-97801355D01*
X202156141Y-97830440D01*
X202085098Y-97851620D01*
X201995547Y-97878417D01*
X201920991Y-97907601D01*
X201885684Y-97927327D01*
X201838165Y-97955725D01*
X201760863Y-97993178D01*
X201681793Y-98026938D01*
X201598214Y-98063453D01*
X201533742Y-98097246D01*
X201503712Y-98119683D01*
X201464853Y-98145966D01*
X201412799Y-98161844D01*
X201363401Y-98177036D01*
X201346348Y-98194544D01*
X201328959Y-98217632D01*
X201279271Y-98263178D01*
X201205929Y-98323568D01*
X201154032Y-98363862D01*
X201060394Y-98438660D01*
X200975624Y-98512741D01*
X200912936Y-98574301D01*
X200895421Y-98594814D01*
X200852348Y-98647039D01*
X200821563Y-98677082D01*
X200816588Y-98679642D01*
X200790097Y-98702429D01*
X200742600Y-98760604D01*
X200679792Y-98846334D01*
X200607367Y-98951788D01*
X200531022Y-99069136D01*
X200516098Y-99092841D01*
X200376360Y-99341095D01*
X200241911Y-99629283D01*
X200159485Y-99833785D01*
X200127769Y-99919274D01*
X200100371Y-99999153D01*
X200073470Y-100085986D01*
X200043241Y-100192336D01*
X200005863Y-100330766D01*
X199989536Y-100392327D01*
X199963657Y-100480224D01*
X199940761Y-100525404D01*
X199914385Y-100535064D01*
X199878114Y-100516431D01*
X199844701Y-100481672D01*
X199838485Y-100467213D01*
X199822348Y-100437967D01*
X199780740Y-100374895D01*
X199718558Y-100284894D01*
X199640696Y-100174864D01*
X199552051Y-100051701D01*
X199457519Y-99922304D01*
X199361996Y-99793572D01*
X199332158Y-99753830D01*
X199263584Y-99666539D01*
X199195889Y-99586555D01*
X199142947Y-99530220D01*
X199139925Y-99527372D01*
X199091093Y-99474088D01*
X199062781Y-99428248D01*
X199060895Y-99421555D01*
X199033222Y-99382998D01*
X199014005Y-99375036D01*
X198976930Y-99346540D01*
X198965140Y-99317320D01*
X198935978Y-99269976D01*
X198901909Y-99249540D01*
X198848769Y-99212964D01*
X198821843Y-99174345D01*
X198789604Y-99127544D01*
X198762603Y-99110471D01*
X198730039Y-99088004D01*
X198680069Y-99036469D01*
X198635815Y-98982658D01*
X198496678Y-98822568D01*
X198354948Y-98695949D01*
X198306375Y-98649159D01*
X198261016Y-98596448D01*
X198218727Y-98551928D01*
X198148536Y-98488098D01*
X198063087Y-98416263D01*
X198029734Y-98389603D01*
X197949141Y-98324295D01*
X197885970Y-98269590D01*
X197849457Y-98233654D01*
X197844109Y-98225455D01*
X197819361Y-98206746D01*
X197788088Y-98200293D01*
X197739830Y-98174236D01*
X197726519Y-98143661D01*
X197703611Y-98103562D01*
X197679144Y-98098017D01*
X197637421Y-98084102D01*
X197607540Y-98052611D01*
X197553573Y-97984579D01*
X197498553Y-97940484D01*
X197460368Y-97930258D01*
X197430114Y-97916648D01*
X197427102Y-97908310D01*
X197405327Y-97879263D01*
X197354514Y-97833626D01*
X197311330Y-97800260D01*
X197243058Y-97749922D01*
X197148892Y-97679863D01*
X197043464Y-97600989D01*
X196977742Y-97551601D01*
X196885614Y-97484122D01*
X196807515Y-97430432D01*
X196752696Y-97396673D01*
X196731573Y-97388176D01*
X196698391Y-97376160D01*
X196645453Y-97341141D01*
X196630528Y-97329433D01*
X196570957Y-97288496D01*
X196521816Y-97267002D01*
X196514438Y-97266079D01*
X196471401Y-97248202D01*
X196421223Y-97205699D01*
X196420138Y-97204517D01*
X196374724Y-97163551D01*
X196340628Y-97147687D01*
X196339384Y-97147827D01*
X196293502Y-97137606D01*
X196239036Y-97105306D01*
X196199399Y-97066341D01*
X196192723Y-97051255D01*
X196166238Y-97022997D01*
X196118644Y-97005617D01*
X196072763Y-96987579D01*
X196061401Y-96964718D01*
X196048454Y-96940312D01*
X196006749Y-96924313D01*
X195949211Y-96906372D01*
X195919913Y-96888089D01*
X195879519Y-96871743D01*
X195852941Y-96872516D01*
X195803361Y-96861962D01*
X195785163Y-96844144D01*
X195756317Y-96822167D01*
X195741941Y-96826690D01*
X195711879Y-96823386D01*
X195664080Y-96791360D01*
X195651270Y-96779833D01*
X195595725Y-96738341D01*
X195547991Y-96720752D01*
X195541503Y-96721096D01*
X195498152Y-96711271D01*
X195434474Y-96678231D01*
X195401907Y-96656442D01*
X195341326Y-96617300D01*
X195298144Y-96598023D01*
X195287212Y-96598495D01*
X195258743Y-96594317D01*
X195209647Y-96565807D01*
X195202780Y-96560796D01*
X195149547Y-96526794D01*
X195112476Y-96513207D01*
X195110569Y-96513371D01*
X195074524Y-96504957D01*
X195016423Y-96478951D01*
X195006491Y-96473691D01*
X194935077Y-96438605D01*
X194842902Y-96397879D01*
X194792308Y-96377155D01*
X194710363Y-96340755D01*
X194643876Y-96304204D01*
X194618311Y-96285324D01*
X194561935Y-96258047D01*
X194519663Y-96256478D01*
X194464970Y-96253915D01*
X194421660Y-96233212D01*
X194404380Y-96204196D01*
X194414015Y-96185562D01*
X194452321Y-96171445D01*
X194519908Y-96161330D01*
G37*
X194519908Y-96161330D02*
X194546086Y-96159539D01*
X194616131Y-96154181D01*
X194720976Y-96143683D01*
X194845076Y-96129686D01*
X194944811Y-96117450D01*
X195069815Y-96103476D01*
X195184509Y-96094149D01*
X195274704Y-96090427D01*
X195320284Y-96092204D01*
X195383475Y-96095675D01*
X195422790Y-96088408D01*
X195424437Y-96087186D01*
X195457513Y-96079636D01*
X195526688Y-96075631D01*
X195617338Y-96075985D01*
X195622290Y-96076136D01*
X195718530Y-96075814D01*
X195798813Y-96069510D01*
X195845789Y-96058590D01*
X195845836Y-96058566D01*
X195898715Y-96048681D01*
X195972491Y-96053958D01*
X195988007Y-96057012D01*
X196050184Y-96067153D01*
X196138772Y-96075134D01*
X196259738Y-96081250D01*
X196419054Y-96085796D01*
X196622688Y-96089067D01*
X196642107Y-96089294D01*
X196742821Y-96091969D01*
X196844321Y-96096898D01*
X196862898Y-96098141D01*
X196954594Y-96103900D01*
X197060637Y-96109423D01*
X197097301Y-96111051D01*
X197181151Y-96116894D01*
X197248405Y-96125696D01*
X197269698Y-96130695D01*
X197317121Y-96139290D01*
X197396015Y-96146826D01*
X197466663Y-96150696D01*
X197556999Y-96157867D01*
X197631174Y-96170484D01*
X197665074Y-96182023D01*
X197726650Y-96198976D01*
X197758052Y-96197375D01*
X197818540Y-96193839D01*
X197886659Y-96199539D01*
X197948421Y-96208491D01*
X198043256Y-96221485D01*
X198153842Y-96236160D01*
X198190564Y-96240934D01*
X198358433Y-96264020D01*
X198510472Y-96287561D01*
X198636726Y-96309859D01*
X198727242Y-96329224D01*
X198755235Y-96337031D01*
X198811977Y-96347344D01*
X198835890Y-96346540D01*
X198879139Y-96349542D01*
X198949247Y-96363956D01*
X198981421Y-96372463D01*
X199053839Y-96390737D01*
X199105990Y-96399926D01*
X199117444Y-96400063D01*
X199151462Y-96404640D01*
X199219920Y-96420135D01*
X199308617Y-96442807D01*
X199403355Y-96468915D01*
X199489934Y-96494722D01*
X199540770Y-96511556D01*
X199599811Y-96530634D01*
X199695525Y-96559423D01*
X199815545Y-96594359D01*
X199947509Y-96631877D01*
X200079053Y-96668413D01*
X200172485Y-96693689D01*
X200257200Y-96718497D01*
X200318892Y-96740808D01*
X200344627Y-96755923D01*
X200344718Y-96756267D01*
X200368472Y-96772514D01*
X200428246Y-96799184D01*
X200511787Y-96830887D01*
X200523876Y-96835139D01*
X200615813Y-96869615D01*
X200691543Y-96902408D01*
X200735490Y-96926739D01*
X200736813Y-96927813D01*
X200783852Y-96951767D01*
X200806283Y-96953406D01*
X200847974Y-96961591D01*
X200909793Y-96989104D01*
X200924167Y-96997099D01*
X200982910Y-97028135D01*
X201021832Y-97043270D01*
X201026350Y-97043561D01*
X201055592Y-97053255D01*
X201116230Y-97081529D01*
X201195248Y-97122309D01*
X201196770Y-97123127D01*
X201301718Y-97178979D01*
X201412519Y-97237117D01*
X201481531Y-97272802D01*
X201601818Y-97335999D01*
X201725442Y-97403736D01*
X201843317Y-97470717D01*
X201946358Y-97531648D01*
X202025477Y-97581232D01*
X202071590Y-97614177D01*
X202077856Y-97620298D01*
X202114371Y-97646738D01*
X202129414Y-97648608D01*
X202165928Y-97658287D01*
X202221613Y-97687745D01*
X202227421Y-97691431D01*
X202274606Y-97726632D01*
X202283496Y-97753022D01*
X202269197Y-97775614D01*
X202228844Y-97801355D01*
X202156141Y-97830440D01*
X202085098Y-97851620D01*
X201995547Y-97878417D01*
X201920991Y-97907601D01*
X201885684Y-97927327D01*
X201838165Y-97955725D01*
X201760863Y-97993178D01*
X201681793Y-98026938D01*
X201598214Y-98063453D01*
X201533742Y-98097246D01*
X201503712Y-98119683D01*
X201464853Y-98145966D01*
X201412799Y-98161844D01*
X201363401Y-98177036D01*
X201346348Y-98194544D01*
X201328959Y-98217632D01*
X201279271Y-98263178D01*
X201205929Y-98323568D01*
X201154032Y-98363862D01*
X201060394Y-98438660D01*
X200975624Y-98512741D01*
X200912936Y-98574301D01*
X200895421Y-98594814D01*
X200852348Y-98647039D01*
X200821563Y-98677082D01*
X200816588Y-98679642D01*
X200790097Y-98702429D01*
X200742600Y-98760604D01*
X200679792Y-98846334D01*
X200607367Y-98951788D01*
X200531022Y-99069136D01*
X200516098Y-99092841D01*
X200376360Y-99341095D01*
X200241911Y-99629283D01*
X200159485Y-99833785D01*
X200127769Y-99919274D01*
X200100371Y-99999153D01*
X200073470Y-100085986D01*
X200043241Y-100192336D01*
X200005863Y-100330766D01*
X199989536Y-100392327D01*
X199963657Y-100480224D01*
X199940761Y-100525404D01*
X199914385Y-100535064D01*
X199878114Y-100516431D01*
X199844701Y-100481672D01*
X199838485Y-100467213D01*
X199822348Y-100437967D01*
X199780740Y-100374895D01*
X199718558Y-100284894D01*
X199640696Y-100174864D01*
X199552051Y-100051701D01*
X199457519Y-99922304D01*
X199361996Y-99793572D01*
X199332158Y-99753830D01*
X199263584Y-99666539D01*
X199195889Y-99586555D01*
X199142947Y-99530220D01*
X199139925Y-99527372D01*
X199091093Y-99474088D01*
X199062781Y-99428248D01*
X199060895Y-99421555D01*
X199033222Y-99382998D01*
X199014005Y-99375036D01*
X198976930Y-99346540D01*
X198965140Y-99317320D01*
X198935978Y-99269976D01*
X198901909Y-99249540D01*
X198848769Y-99212964D01*
X198821843Y-99174345D01*
X198789604Y-99127544D01*
X198762603Y-99110471D01*
X198730039Y-99088004D01*
X198680069Y-99036469D01*
X198635815Y-98982658D01*
X198496678Y-98822568D01*
X198354948Y-98695949D01*
X198306375Y-98649159D01*
X198261016Y-98596448D01*
X198218727Y-98551928D01*
X198148536Y-98488098D01*
X198063087Y-98416263D01*
X198029734Y-98389603D01*
X197949141Y-98324295D01*
X197885970Y-98269590D01*
X197849457Y-98233654D01*
X197844109Y-98225455D01*
X197819361Y-98206746D01*
X197788088Y-98200293D01*
X197739830Y-98174236D01*
X197726519Y-98143661D01*
X197703611Y-98103562D01*
X197679144Y-98098017D01*
X197637421Y-98084102D01*
X197607540Y-98052611D01*
X197553573Y-97984579D01*
X197498553Y-97940484D01*
X197460368Y-97930258D01*
X197430114Y-97916648D01*
X197427102Y-97908310D01*
X197405327Y-97879263D01*
X197354514Y-97833626D01*
X197311330Y-97800260D01*
X197243058Y-97749922D01*
X197148892Y-97679863D01*
X197043464Y-97600989D01*
X196977742Y-97551601D01*
X196885614Y-97484122D01*
X196807515Y-97430432D01*
X196752696Y-97396673D01*
X196731573Y-97388176D01*
X196698391Y-97376160D01*
X196645453Y-97341141D01*
X196630528Y-97329433D01*
X196570957Y-97288496D01*
X196521816Y-97267002D01*
X196514438Y-97266079D01*
X196471401Y-97248202D01*
X196421223Y-97205699D01*
X196420138Y-97204517D01*
X196374724Y-97163551D01*
X196340628Y-97147687D01*
X196339384Y-97147827D01*
X196293502Y-97137606D01*
X196239036Y-97105306D01*
X196199399Y-97066341D01*
X196192723Y-97051255D01*
X196166238Y-97022997D01*
X196118644Y-97005617D01*
X196072763Y-96987579D01*
X196061401Y-96964718D01*
X196048454Y-96940312D01*
X196006749Y-96924313D01*
X195949211Y-96906372D01*
X195919913Y-96888089D01*
X195879519Y-96871743D01*
X195852941Y-96872516D01*
X195803361Y-96861962D01*
X195785163Y-96844144D01*
X195756317Y-96822167D01*
X195741941Y-96826690D01*
X195711879Y-96823386D01*
X195664080Y-96791360D01*
X195651270Y-96779833D01*
X195595725Y-96738341D01*
X195547991Y-96720752D01*
X195541503Y-96721096D01*
X195498152Y-96711271D01*
X195434474Y-96678231D01*
X195401907Y-96656442D01*
X195341326Y-96617300D01*
X195298144Y-96598023D01*
X195287212Y-96598495D01*
X195258743Y-96594317D01*
X195209647Y-96565807D01*
X195202780Y-96560796D01*
X195149547Y-96526794D01*
X195112476Y-96513207D01*
X195110569Y-96513371D01*
X195074524Y-96504957D01*
X195016423Y-96478951D01*
X195006491Y-96473691D01*
X194935077Y-96438605D01*
X194842902Y-96397879D01*
X194792308Y-96377155D01*
X194710363Y-96340755D01*
X194643876Y-96304204D01*
X194618311Y-96285324D01*
X194561935Y-96258047D01*
X194519663Y-96256478D01*
X194464970Y-96253915D01*
X194421660Y-96233212D01*
X194404380Y-96204196D01*
X194414015Y-96185562D01*
X194452321Y-96171445D01*
X194519908Y-96161330D01*
G36*
X194214643Y-96373377D02*
G01*
X194286652Y-96390409D01*
X194375574Y-96415353D01*
X194466135Y-96443604D01*
X194543058Y-96470551D01*
X194591069Y-96491586D01*
X194598062Y-96496542D01*
X194628638Y-96512089D01*
X194694696Y-96538221D01*
X194783371Y-96569925D01*
X194806764Y-96577865D01*
X194912563Y-96616210D01*
X195011744Y-96656920D01*
X195084259Y-96691718D01*
X195088866Y-96694320D01*
X195198893Y-96756235D01*
X195285984Y-96800552D01*
X195370161Y-96836792D01*
X195456175Y-96869004D01*
X195541451Y-96906373D01*
X195632154Y-96956566D01*
X195716010Y-97011423D01*
X195780744Y-97062784D01*
X195814084Y-97102488D01*
X195815884Y-97108188D01*
X195841079Y-97123105D01*
X195900112Y-97135092D01*
X195931706Y-97138251D01*
X196017408Y-97154412D01*
X196091984Y-97184596D01*
X196106740Y-97194273D01*
X196174798Y-97242623D01*
X196269343Y-97303888D01*
X196395698Y-97381373D01*
X196559182Y-97478387D01*
X196639206Y-97525173D01*
X196769454Y-97605430D01*
X196911568Y-97699913D01*
X197042450Y-97793034D01*
X197091750Y-97830517D01*
X197190375Y-97906958D01*
X197284537Y-97978681D01*
X197360492Y-98035274D01*
X197390547Y-98056895D01*
X197471650Y-98119019D01*
X197551421Y-98187927D01*
X197560334Y-98196342D01*
X197617854Y-98246706D01*
X197701667Y-98314339D01*
X197796627Y-98387133D01*
X197828540Y-98410745D01*
X197916889Y-98476804D01*
X197992641Y-98535919D01*
X198043996Y-98578780D01*
X198055669Y-98589926D01*
X198090860Y-98627301D01*
X198149660Y-98689593D01*
X198220755Y-98764820D01*
X198238031Y-98783088D01*
X198304926Y-98855709D01*
X198356235Y-98914995D01*
X198383378Y-98950910D01*
X198385537Y-98955684D01*
X198409084Y-98982536D01*
X198424290Y-98990571D01*
X198459361Y-99016692D01*
X198519588Y-99073156D01*
X198597201Y-99151621D01*
X198684428Y-99243745D01*
X198773499Y-99341189D01*
X198856642Y-99435610D01*
X198926084Y-99518667D01*
X198970373Y-99576702D01*
X199023345Y-99640982D01*
X199077350Y-99690437D01*
X199085293Y-99695843D01*
X199131011Y-99738328D01*
X199148795Y-99773784D01*
X199172369Y-99821114D01*
X199213676Y-99867962D01*
X199255284Y-99911279D01*
X199316600Y-99982287D01*
X199386679Y-100068167D01*
X199412353Y-100100775D01*
X199477811Y-100183857D01*
X199533025Y-100252225D01*
X199569495Y-100295426D01*
X199577440Y-100303792D01*
X199602985Y-100341056D01*
X199631955Y-100401301D01*
X199632905Y-100403627D01*
X199660102Y-100455669D01*
X199684080Y-100478138D01*
X199685964Y-100478095D01*
X199713122Y-100494632D01*
X199733223Y-100523891D01*
X199773960Y-100576392D01*
X199818029Y-100614684D01*
X199857862Y-100655625D01*
X199857548Y-100683579D01*
X199820411Y-100699979D01*
X199751653Y-100705856D01*
X199669167Y-100702045D01*
X199590848Y-100689380D01*
X199534589Y-100668696D01*
X199534277Y-100668501D01*
X199487339Y-100651547D01*
X199463157Y-100656821D01*
X199425789Y-100663954D01*
X199365795Y-100654282D01*
X199364288Y-100653852D01*
X199150928Y-100613191D01*
X198974545Y-100613977D01*
X198885418Y-100620225D01*
X198807069Y-100622564D01*
X198782527Y-100622032D01*
X198715455Y-100623921D01*
X198617481Y-100633429D01*
X198501376Y-100648537D01*
X198379911Y-100667226D01*
X198265857Y-100687477D01*
X198171985Y-100707271D01*
X198111066Y-100724589D01*
X198099300Y-100730047D01*
X198049671Y-100754063D01*
X197968477Y-100786889D01*
X197872508Y-100821770D01*
X197863964Y-100824697D01*
X197616486Y-100928218D01*
X197375816Y-101069837D01*
X197309252Y-101116179D01*
X197221663Y-101176949D01*
X197131221Y-101236504D01*
X197095802Y-101258666D01*
X197037491Y-101299093D01*
X197004075Y-101331879D01*
X197000748Y-101341248D01*
X196984510Y-101365374D01*
X196972655Y-101369194D01*
X196940044Y-101388508D01*
X196879932Y-101435721D01*
X196801097Y-101503162D01*
X196712312Y-101583166D01*
X196622351Y-101668063D01*
X196559415Y-101730309D01*
X196514688Y-101781323D01*
X196450571Y-101861634D01*
X196376742Y-101958878D01*
X196323510Y-102031732D01*
X196254858Y-102124444D01*
X196194919Y-102200063D01*
X196150832Y-102249910D01*
X196131279Y-102265515D01*
X196119791Y-102250563D01*
X196104336Y-102200360D01*
X196084323Y-102112015D01*
X196059159Y-101982636D01*
X196028255Y-101809332D01*
X195991019Y-101589211D01*
X195982436Y-101537348D01*
X195949530Y-101343052D01*
X195912806Y-101135094D01*
X195873458Y-100919476D01*
X195832684Y-100702197D01*
X195791679Y-100489257D01*
X195751638Y-100286657D01*
X195713757Y-100100396D01*
X195679232Y-99936477D01*
X195649260Y-99800897D01*
X195625035Y-99699659D01*
X195607754Y-99638761D01*
X195601108Y-99623960D01*
X195593827Y-99613889D01*
X195585338Y-99595558D01*
X195573298Y-99561693D01*
X195555368Y-99505023D01*
X195529207Y-99418274D01*
X195492473Y-99294176D01*
X195465956Y-99204110D01*
X195435935Y-99105891D01*
X195409697Y-99026938D01*
X195391412Y-98979536D01*
X195387182Y-98972074D01*
X195374093Y-98941656D01*
X195351080Y-98873330D01*
X195321732Y-98778161D01*
X195298191Y-98697482D01*
X195262745Y-98578419D01*
X195227013Y-98467176D01*
X195196204Y-98379590D01*
X195182195Y-98344858D01*
X195150348Y-98271145D01*
X195125672Y-98209986D01*
X195122244Y-98200678D01*
X195098081Y-98141505D01*
X195086061Y-98116786D01*
X195019578Y-97991404D01*
X194974394Y-97902767D01*
X194946877Y-97843356D01*
X194933393Y-97805655D01*
X194931393Y-97796628D01*
X194917389Y-97755364D01*
X194886901Y-97682351D01*
X194846196Y-97591258D01*
X194801538Y-97495760D01*
X194759195Y-97409526D01*
X194725431Y-97346229D01*
X194723264Y-97342523D01*
X194694741Y-97295782D01*
X194650257Y-97224433D01*
X194614809Y-97168207D01*
X194558564Y-97074505D01*
X194504668Y-96976872D01*
X194481350Y-96930768D01*
X194442429Y-96855414D01*
X194406047Y-96794321D01*
X194394660Y-96778407D01*
X194329621Y-96693908D01*
X194264560Y-96603858D01*
X194207139Y-96519527D01*
X194165016Y-96452185D01*
X194145853Y-96413107D01*
X194145606Y-96411934D01*
X194159260Y-96375809D01*
X194174825Y-96368865D01*
X194214643Y-96373377D01*
G37*
X194214643Y-96373377D02*
X194286652Y-96390409D01*
X194375574Y-96415353D01*
X194466135Y-96443604D01*
X194543058Y-96470551D01*
X194591069Y-96491586D01*
X194598062Y-96496542D01*
X194628638Y-96512089D01*
X194694696Y-96538221D01*
X194783371Y-96569925D01*
X194806764Y-96577865D01*
X194912563Y-96616210D01*
X195011744Y-96656920D01*
X195084259Y-96691718D01*
X195088866Y-96694320D01*
X195198893Y-96756235D01*
X195285984Y-96800552D01*
X195370161Y-96836792D01*
X195456175Y-96869004D01*
X195541451Y-96906373D01*
X195632154Y-96956566D01*
X195716010Y-97011423D01*
X195780744Y-97062784D01*
X195814084Y-97102488D01*
X195815884Y-97108188D01*
X195841079Y-97123105D01*
X195900112Y-97135092D01*
X195931706Y-97138251D01*
X196017408Y-97154412D01*
X196091984Y-97184596D01*
X196106740Y-97194273D01*
X196174798Y-97242623D01*
X196269343Y-97303888D01*
X196395698Y-97381373D01*
X196559182Y-97478387D01*
X196639206Y-97525173D01*
X196769454Y-97605430D01*
X196911568Y-97699913D01*
X197042450Y-97793034D01*
X197091750Y-97830517D01*
X197190375Y-97906958D01*
X197284537Y-97978681D01*
X197360492Y-98035274D01*
X197390547Y-98056895D01*
X197471650Y-98119019D01*
X197551421Y-98187927D01*
X197560334Y-98196342D01*
X197617854Y-98246706D01*
X197701667Y-98314339D01*
X197796627Y-98387133D01*
X197828540Y-98410745D01*
X197916889Y-98476804D01*
X197992641Y-98535919D01*
X198043996Y-98578780D01*
X198055669Y-98589926D01*
X198090860Y-98627301D01*
X198149660Y-98689593D01*
X198220755Y-98764820D01*
X198238031Y-98783088D01*
X198304926Y-98855709D01*
X198356235Y-98914995D01*
X198383378Y-98950910D01*
X198385537Y-98955684D01*
X198409084Y-98982536D01*
X198424290Y-98990571D01*
X198459361Y-99016692D01*
X198519588Y-99073156D01*
X198597201Y-99151621D01*
X198684428Y-99243745D01*
X198773499Y-99341189D01*
X198856642Y-99435610D01*
X198926084Y-99518667D01*
X198970373Y-99576702D01*
X199023345Y-99640982D01*
X199077350Y-99690437D01*
X199085293Y-99695843D01*
X199131011Y-99738328D01*
X199148795Y-99773784D01*
X199172369Y-99821114D01*
X199213676Y-99867962D01*
X199255284Y-99911279D01*
X199316600Y-99982287D01*
X199386679Y-100068167D01*
X199412353Y-100100775D01*
X199477811Y-100183857D01*
X199533025Y-100252225D01*
X199569495Y-100295426D01*
X199577440Y-100303792D01*
X199602985Y-100341056D01*
X199631955Y-100401301D01*
X199632905Y-100403627D01*
X199660102Y-100455669D01*
X199684080Y-100478138D01*
X199685964Y-100478095D01*
X199713122Y-100494632D01*
X199733223Y-100523891D01*
X199773960Y-100576392D01*
X199818029Y-100614684D01*
X199857862Y-100655625D01*
X199857548Y-100683579D01*
X199820411Y-100699979D01*
X199751653Y-100705856D01*
X199669167Y-100702045D01*
X199590848Y-100689380D01*
X199534589Y-100668696D01*
X199534277Y-100668501D01*
X199487339Y-100651547D01*
X199463157Y-100656821D01*
X199425789Y-100663954D01*
X199365795Y-100654282D01*
X199364288Y-100653852D01*
X199150928Y-100613191D01*
X198974545Y-100613977D01*
X198885418Y-100620225D01*
X198807069Y-100622564D01*
X198782527Y-100622032D01*
X198715455Y-100623921D01*
X198617481Y-100633429D01*
X198501376Y-100648537D01*
X198379911Y-100667226D01*
X198265857Y-100687477D01*
X198171985Y-100707271D01*
X198111066Y-100724589D01*
X198099300Y-100730047D01*
X198049671Y-100754063D01*
X197968477Y-100786889D01*
X197872508Y-100821770D01*
X197863964Y-100824697D01*
X197616486Y-100928218D01*
X197375816Y-101069837D01*
X197309252Y-101116179D01*
X197221663Y-101176949D01*
X197131221Y-101236504D01*
X197095802Y-101258666D01*
X197037491Y-101299093D01*
X197004075Y-101331879D01*
X197000748Y-101341248D01*
X196984510Y-101365374D01*
X196972655Y-101369194D01*
X196940044Y-101388508D01*
X196879932Y-101435721D01*
X196801097Y-101503162D01*
X196712312Y-101583166D01*
X196622351Y-101668063D01*
X196559415Y-101730309D01*
X196514688Y-101781323D01*
X196450571Y-101861634D01*
X196376742Y-101958878D01*
X196323510Y-102031732D01*
X196254858Y-102124444D01*
X196194919Y-102200063D01*
X196150832Y-102249910D01*
X196131279Y-102265515D01*
X196119791Y-102250563D01*
X196104336Y-102200360D01*
X196084323Y-102112015D01*
X196059159Y-101982636D01*
X196028255Y-101809332D01*
X195991019Y-101589211D01*
X195982436Y-101537348D01*
X195949530Y-101343052D01*
X195912806Y-101135094D01*
X195873458Y-100919476D01*
X195832684Y-100702197D01*
X195791679Y-100489257D01*
X195751638Y-100286657D01*
X195713757Y-100100396D01*
X195679232Y-99936477D01*
X195649260Y-99800897D01*
X195625035Y-99699659D01*
X195607754Y-99638761D01*
X195601108Y-99623960D01*
X195593827Y-99613889D01*
X195585338Y-99595558D01*
X195573298Y-99561693D01*
X195555368Y-99505023D01*
X195529207Y-99418274D01*
X195492473Y-99294176D01*
X195465956Y-99204110D01*
X195435935Y-99105891D01*
X195409697Y-99026938D01*
X195391412Y-98979536D01*
X195387182Y-98972074D01*
X195374093Y-98941656D01*
X195351080Y-98873330D01*
X195321732Y-98778161D01*
X195298191Y-98697482D01*
X195262745Y-98578419D01*
X195227013Y-98467176D01*
X195196204Y-98379590D01*
X195182195Y-98344858D01*
X195150348Y-98271145D01*
X195125672Y-98209986D01*
X195122244Y-98200678D01*
X195098081Y-98141505D01*
X195086061Y-98116786D01*
X195019578Y-97991404D01*
X194974394Y-97902767D01*
X194946877Y-97843356D01*
X194933393Y-97805655D01*
X194931393Y-97796628D01*
X194917389Y-97755364D01*
X194886901Y-97682351D01*
X194846196Y-97591258D01*
X194801538Y-97495760D01*
X194759195Y-97409526D01*
X194725431Y-97346229D01*
X194723264Y-97342523D01*
X194694741Y-97295782D01*
X194650257Y-97224433D01*
X194614809Y-97168207D01*
X194558564Y-97074505D01*
X194504668Y-96976872D01*
X194481350Y-96930768D01*
X194442429Y-96855414D01*
X194406047Y-96794321D01*
X194394660Y-96778407D01*
X194329621Y-96693908D01*
X194264560Y-96603858D01*
X194207139Y-96519527D01*
X194165016Y-96452185D01*
X194145853Y-96413107D01*
X194145606Y-96411934D01*
X194159260Y-96375809D01*
X194174825Y-96368865D01*
X194214643Y-96373377D01*
G36*
X193939160Y-96446774D02*
G01*
X193987227Y-96485285D01*
X194042054Y-96543297D01*
X194108024Y-96623746D01*
X194176704Y-96714916D01*
X194239663Y-96805095D01*
X194288471Y-96882569D01*
X194314695Y-96935624D01*
X194316603Y-96942892D01*
X194336745Y-96990417D01*
X194377202Y-97053779D01*
X194390949Y-97071983D01*
X194433672Y-97131196D01*
X194459622Y-97176432D01*
X194462466Y-97185030D01*
X194478518Y-97220391D01*
X194514803Y-97282213D01*
X194550505Y-97337535D01*
X194603171Y-97422594D01*
X194647893Y-97505783D01*
X194665865Y-97546082D01*
X194694337Y-97614337D01*
X194735585Y-97706122D01*
X194772822Y-97785141D01*
X194975403Y-98241174D01*
X195165523Y-98743919D01*
X195342264Y-99290618D01*
X195504717Y-99878513D01*
X195608129Y-100307309D01*
X195641633Y-100459312D01*
X195678554Y-100635318D01*
X195717765Y-100829156D01*
X195758143Y-101034658D01*
X195798561Y-101245655D01*
X195837892Y-101455977D01*
X195875012Y-101659455D01*
X195908793Y-101849923D01*
X195938111Y-102021209D01*
X195961839Y-102167145D01*
X195978851Y-102281563D01*
X195988023Y-102358293D01*
X195988392Y-102390802D01*
X195956576Y-102424001D01*
X195916272Y-102411666D01*
X195911732Y-102407003D01*
X195875016Y-102386568D01*
X195811956Y-102366557D01*
X195803289Y-102364523D01*
X195728399Y-102337388D01*
X195642350Y-102292073D01*
X195608748Y-102270256D01*
X195538217Y-102228684D01*
X195477155Y-102205833D01*
X195454679Y-102204275D01*
X195395434Y-102195953D01*
X195369125Y-102180672D01*
X195315567Y-102157078D01*
X195287079Y-102156451D01*
X195238548Y-102145904D01*
X195221776Y-102129278D01*
X195182557Y-102107243D01*
X195126411Y-102107406D01*
X195067004Y-102110010D01*
X195032189Y-102098228D01*
X194992775Y-102082829D01*
X194968127Y-102083732D01*
X194918512Y-102074711D01*
X194858101Y-102042231D01*
X194854160Y-102039348D01*
X194789841Y-102005980D01*
X194729922Y-101996822D01*
X194727686Y-101997169D01*
X194674715Y-101996299D01*
X194651117Y-101984878D01*
X194612072Y-101970005D01*
X194583299Y-101971045D01*
X194528543Y-101967667D01*
X194456375Y-101948381D01*
X194444646Y-101944005D01*
X194371179Y-101922686D01*
X194309231Y-101916679D01*
X194302423Y-101917499D01*
X194238779Y-101913300D01*
X194195875Y-101898322D01*
X194127815Y-101880543D01*
X194073391Y-101881232D01*
X194016380Y-101882005D01*
X193986068Y-101870018D01*
X193947478Y-101855779D01*
X193913361Y-101857046D01*
X193847480Y-101851840D01*
X193814859Y-101838299D01*
X193768040Y-101825167D01*
X193687083Y-101816645D01*
X193588565Y-101814388D01*
X193577326Y-101814594D01*
X193478141Y-101813255D01*
X193394938Y-101805676D01*
X193344157Y-101793440D01*
X193341187Y-101791836D01*
X193289345Y-101776575D01*
X193212136Y-101770659D01*
X193182044Y-101771487D01*
X193097507Y-101773956D01*
X192986309Y-101773921D01*
X192872525Y-101771390D01*
X192735771Y-101767234D01*
X192609519Y-101765145D01*
X192481934Y-101765248D01*
X192341183Y-101767676D01*
X192175433Y-101772555D01*
X191972851Y-101780012D01*
X191932920Y-101781585D01*
X191687889Y-101792130D01*
X191490445Y-101802526D01*
X191337377Y-101813025D01*
X191225472Y-101823876D01*
X191151520Y-101835333D01*
X191116625Y-101845499D01*
X191066823Y-101856329D01*
X191042211Y-101847959D01*
X191004407Y-101835365D01*
X190968030Y-101838471D01*
X190900798Y-101850759D01*
X190794581Y-101866523D01*
X190660963Y-101884381D01*
X190511526Y-101902952D01*
X190357854Y-101920854D01*
X190211529Y-101936704D01*
X190084135Y-101949121D01*
X189987254Y-101956723D01*
X189968274Y-101957751D01*
X189853966Y-101966576D01*
X189713291Y-101982578D01*
X189569689Y-102002938D01*
X189510558Y-102012737D01*
X189299553Y-102048904D01*
X189133041Y-102075487D01*
X189005742Y-102093067D01*
X188912375Y-102102223D01*
X188847658Y-102103537D01*
X188806313Y-102097587D01*
X188792040Y-102091669D01*
X188753648Y-102058208D01*
X188759882Y-102023666D01*
X188812729Y-101984102D01*
X188857927Y-101960883D01*
X188940830Y-101919926D01*
X189017168Y-101879903D01*
X189034117Y-101870481D01*
X189089911Y-101841600D01*
X189176255Y-101800054D01*
X189277141Y-101753493D01*
X189307676Y-101739770D01*
X189404675Y-101695018D01*
X189486802Y-101654502D01*
X189540566Y-101624969D01*
X189550290Y-101618395D01*
X189604035Y-101591425D01*
X189665055Y-101574464D01*
X189716639Y-101558035D01*
X189736150Y-101536915D01*
X189736090Y-101536517D01*
X189754511Y-101512551D01*
X189806182Y-101479852D01*
X189839714Y-101463490D01*
X189906089Y-101429776D01*
X189949579Y-101400230D01*
X189957376Y-101390787D01*
X189987237Y-101368088D01*
X190028465Y-101355634D01*
X190093922Y-101334963D01*
X190129461Y-101315387D01*
X190204131Y-101262117D01*
X190283218Y-101209094D01*
X190353596Y-101164740D01*
X190402134Y-101137477D01*
X190413860Y-101132926D01*
X190454791Y-101113444D01*
X190535342Y-101062499D01*
X190655344Y-100980208D01*
X190814624Y-100866684D01*
X190844448Y-100845118D01*
X190927585Y-100786311D01*
X190993940Y-100742035D01*
X191033912Y-100718566D01*
X191041019Y-100716609D01*
X191062587Y-100705188D01*
X191105077Y-100667704D01*
X191119047Y-100653846D01*
X191167075Y-100608146D01*
X191199734Y-100582644D01*
X191203710Y-100580986D01*
X191229180Y-100564522D01*
X191283274Y-100523116D01*
X191355826Y-100464631D01*
X191381766Y-100443191D01*
X191473949Y-100366658D01*
X191565945Y-100290476D01*
X191639347Y-100229887D01*
X191645522Y-100224806D01*
X191724809Y-100156402D01*
X191812697Y-100075976D01*
X191853798Y-100036562D01*
X191917283Y-99978759D01*
X191970512Y-99938128D01*
X191995422Y-99925549D01*
X192024374Y-99905842D01*
X192025816Y-99894922D01*
X192041482Y-99865662D01*
X192085934Y-99821671D01*
X192106657Y-99804872D01*
X192171180Y-99746721D01*
X192244517Y-99668506D01*
X192286476Y-99617926D01*
X192340637Y-99552642D01*
X192384936Y-99506677D01*
X192406071Y-99491682D01*
X192432238Y-99470507D01*
X192479649Y-99418542D01*
X192539315Y-99345826D01*
X192556910Y-99323224D01*
X192618683Y-99246468D01*
X192671103Y-99187706D01*
X192705035Y-99156991D01*
X192709928Y-99154795D01*
X192737159Y-99132702D01*
X192781941Y-99079609D01*
X192831973Y-99010736D01*
X192901440Y-98910557D01*
X192949846Y-98845857D01*
X192983384Y-98809247D01*
X193008249Y-98793334D01*
X193015893Y-98791315D01*
X193040706Y-98766395D01*
X193065047Y-98712604D01*
X193065348Y-98711666D01*
X193093268Y-98650428D01*
X193140817Y-98569254D01*
X193184282Y-98504782D01*
X193232873Y-98433305D01*
X193265679Y-98377241D01*
X193275260Y-98350777D01*
X193286701Y-98319573D01*
X193320386Y-98261315D01*
X193358884Y-98203376D01*
X193440321Y-98076859D01*
X193514551Y-97943061D01*
X193574531Y-97816085D01*
X193613220Y-97710039D01*
X193620758Y-97678779D01*
X193645061Y-97587972D01*
X193678413Y-97500966D01*
X193705663Y-97433168D01*
X193736552Y-97341353D01*
X193767014Y-97239834D01*
X193792986Y-97142927D01*
X193810402Y-97064948D01*
X193815195Y-97020210D01*
X193815112Y-97019600D01*
X193822157Y-96973316D01*
X193838465Y-96932634D01*
X193856184Y-96864164D01*
X193855084Y-96812121D01*
X193856829Y-96739449D01*
X193871702Y-96691610D01*
X193886688Y-96629455D01*
X193885522Y-96551619D01*
X193884382Y-96544112D01*
X193879049Y-96466738D01*
X193897060Y-96434434D01*
X193939160Y-96446774D01*
G37*
X193939160Y-96446774D02*
X193987227Y-96485285D01*
X194042054Y-96543297D01*
X194108024Y-96623746D01*
X194176704Y-96714916D01*
X194239663Y-96805095D01*
X194288471Y-96882569D01*
X194314695Y-96935624D01*
X194316603Y-96942892D01*
X194336745Y-96990417D01*
X194377202Y-97053779D01*
X194390949Y-97071983D01*
X194433672Y-97131196D01*
X194459622Y-97176432D01*
X194462466Y-97185030D01*
X194478518Y-97220391D01*
X194514803Y-97282213D01*
X194550505Y-97337535D01*
X194603171Y-97422594D01*
X194647893Y-97505783D01*
X194665865Y-97546082D01*
X194694337Y-97614337D01*
X194735585Y-97706122D01*
X194772822Y-97785141D01*
X194975403Y-98241174D01*
X195165523Y-98743919D01*
X195342264Y-99290618D01*
X195504717Y-99878513D01*
X195608129Y-100307309D01*
X195641633Y-100459312D01*
X195678554Y-100635318D01*
X195717765Y-100829156D01*
X195758143Y-101034658D01*
X195798561Y-101245655D01*
X195837892Y-101455977D01*
X195875012Y-101659455D01*
X195908793Y-101849923D01*
X195938111Y-102021209D01*
X195961839Y-102167145D01*
X195978851Y-102281563D01*
X195988023Y-102358293D01*
X195988392Y-102390802D01*
X195956576Y-102424001D01*
X195916272Y-102411666D01*
X195911732Y-102407003D01*
X195875016Y-102386568D01*
X195811956Y-102366557D01*
X195803289Y-102364523D01*
X195728399Y-102337388D01*
X195642350Y-102292073D01*
X195608748Y-102270256D01*
X195538217Y-102228684D01*
X195477155Y-102205833D01*
X195454679Y-102204275D01*
X195395434Y-102195953D01*
X195369125Y-102180672D01*
X195315567Y-102157078D01*
X195287079Y-102156451D01*
X195238548Y-102145904D01*
X195221776Y-102129278D01*
X195182557Y-102107243D01*
X195126411Y-102107406D01*
X195067004Y-102110010D01*
X195032189Y-102098228D01*
X194992775Y-102082829D01*
X194968127Y-102083732D01*
X194918512Y-102074711D01*
X194858101Y-102042231D01*
X194854160Y-102039348D01*
X194789841Y-102005980D01*
X194729922Y-101996822D01*
X194727686Y-101997169D01*
X194674715Y-101996299D01*
X194651117Y-101984878D01*
X194612072Y-101970005D01*
X194583299Y-101971045D01*
X194528543Y-101967667D01*
X194456375Y-101948381D01*
X194444646Y-101944005D01*
X194371179Y-101922686D01*
X194309231Y-101916679D01*
X194302423Y-101917499D01*
X194238779Y-101913300D01*
X194195875Y-101898322D01*
X194127815Y-101880543D01*
X194073391Y-101881232D01*
X194016380Y-101882005D01*
X193986068Y-101870018D01*
X193947478Y-101855779D01*
X193913361Y-101857046D01*
X193847480Y-101851840D01*
X193814859Y-101838299D01*
X193768040Y-101825167D01*
X193687083Y-101816645D01*
X193588565Y-101814388D01*
X193577326Y-101814594D01*
X193478141Y-101813255D01*
X193394938Y-101805676D01*
X193344157Y-101793440D01*
X193341187Y-101791836D01*
X193289345Y-101776575D01*
X193212136Y-101770659D01*
X193182044Y-101771487D01*
X193097507Y-101773956D01*
X192986309Y-101773921D01*
X192872525Y-101771390D01*
X192735771Y-101767234D01*
X192609519Y-101765145D01*
X192481934Y-101765248D01*
X192341183Y-101767676D01*
X192175433Y-101772555D01*
X191972851Y-101780012D01*
X191932920Y-101781585D01*
X191687889Y-101792130D01*
X191490445Y-101802526D01*
X191337377Y-101813025D01*
X191225472Y-101823876D01*
X191151520Y-101835333D01*
X191116625Y-101845499D01*
X191066823Y-101856329D01*
X191042211Y-101847959D01*
X191004407Y-101835365D01*
X190968030Y-101838471D01*
X190900798Y-101850759D01*
X190794581Y-101866523D01*
X190660963Y-101884381D01*
X190511526Y-101902952D01*
X190357854Y-101920854D01*
X190211529Y-101936704D01*
X190084135Y-101949121D01*
X189987254Y-101956723D01*
X189968274Y-101957751D01*
X189853966Y-101966576D01*
X189713291Y-101982578D01*
X189569689Y-102002938D01*
X189510558Y-102012737D01*
X189299553Y-102048904D01*
X189133041Y-102075487D01*
X189005742Y-102093067D01*
X188912375Y-102102223D01*
X188847658Y-102103537D01*
X188806313Y-102097587D01*
X188792040Y-102091669D01*
X188753648Y-102058208D01*
X188759882Y-102023666D01*
X188812729Y-101984102D01*
X188857927Y-101960883D01*
X188940830Y-101919926D01*
X189017168Y-101879903D01*
X189034117Y-101870481D01*
X189089911Y-101841600D01*
X189176255Y-101800054D01*
X189277141Y-101753493D01*
X189307676Y-101739770D01*
X189404675Y-101695018D01*
X189486802Y-101654502D01*
X189540566Y-101624969D01*
X189550290Y-101618395D01*
X189604035Y-101591425D01*
X189665055Y-101574464D01*
X189716639Y-101558035D01*
X189736150Y-101536915D01*
X189736090Y-101536517D01*
X189754511Y-101512551D01*
X189806182Y-101479852D01*
X189839714Y-101463490D01*
X189906089Y-101429776D01*
X189949579Y-101400230D01*
X189957376Y-101390787D01*
X189987237Y-101368088D01*
X190028465Y-101355634D01*
X190093922Y-101334963D01*
X190129461Y-101315387D01*
X190204131Y-101262117D01*
X190283218Y-101209094D01*
X190353596Y-101164740D01*
X190402134Y-101137477D01*
X190413860Y-101132926D01*
X190454791Y-101113444D01*
X190535342Y-101062499D01*
X190655344Y-100980208D01*
X190814624Y-100866684D01*
X190844448Y-100845118D01*
X190927585Y-100786311D01*
X190993940Y-100742035D01*
X191033912Y-100718566D01*
X191041019Y-100716609D01*
X191062587Y-100705188D01*
X191105077Y-100667704D01*
X191119047Y-100653846D01*
X191167075Y-100608146D01*
X191199734Y-100582644D01*
X191203710Y-100580986D01*
X191229180Y-100564522D01*
X191283274Y-100523116D01*
X191355826Y-100464631D01*
X191381766Y-100443191D01*
X191473949Y-100366658D01*
X191565945Y-100290476D01*
X191639347Y-100229887D01*
X191645522Y-100224806D01*
X191724809Y-100156402D01*
X191812697Y-100075976D01*
X191853798Y-100036562D01*
X191917283Y-99978759D01*
X191970512Y-99938128D01*
X191995422Y-99925549D01*
X192024374Y-99905842D01*
X192025816Y-99894922D01*
X192041482Y-99865662D01*
X192085934Y-99821671D01*
X192106657Y-99804872D01*
X192171180Y-99746721D01*
X192244517Y-99668506D01*
X192286476Y-99617926D01*
X192340637Y-99552642D01*
X192384936Y-99506677D01*
X192406071Y-99491682D01*
X192432238Y-99470507D01*
X192479649Y-99418542D01*
X192539315Y-99345826D01*
X192556910Y-99323224D01*
X192618683Y-99246468D01*
X192671103Y-99187706D01*
X192705035Y-99156991D01*
X192709928Y-99154795D01*
X192737159Y-99132702D01*
X192781941Y-99079609D01*
X192831973Y-99010736D01*
X192901440Y-98910557D01*
X192949846Y-98845857D01*
X192983384Y-98809247D01*
X193008249Y-98793334D01*
X193015893Y-98791315D01*
X193040706Y-98766395D01*
X193065047Y-98712604D01*
X193065348Y-98711666D01*
X193093268Y-98650428D01*
X193140817Y-98569254D01*
X193184282Y-98504782D01*
X193232873Y-98433305D01*
X193265679Y-98377241D01*
X193275260Y-98350777D01*
X193286701Y-98319573D01*
X193320386Y-98261315D01*
X193358884Y-98203376D01*
X193440321Y-98076859D01*
X193514551Y-97943061D01*
X193574531Y-97816085D01*
X193613220Y-97710039D01*
X193620758Y-97678779D01*
X193645061Y-97587972D01*
X193678413Y-97500966D01*
X193705663Y-97433168D01*
X193736552Y-97341353D01*
X193767014Y-97239834D01*
X193792986Y-97142927D01*
X193810402Y-97064948D01*
X193815195Y-97020210D01*
X193815112Y-97019600D01*
X193822157Y-96973316D01*
X193838465Y-96932634D01*
X193856184Y-96864164D01*
X193855084Y-96812121D01*
X193856829Y-96739449D01*
X193871702Y-96691610D01*
X193886688Y-96629455D01*
X193885522Y-96551619D01*
X193884382Y-96544112D01*
X193879049Y-96466738D01*
X193897060Y-96434434D01*
X193939160Y-96446774D01*
G36*
X179831553Y-98754657D02*
G01*
X179814079Y-98774323D01*
X179767393Y-98813180D01*
X179730511Y-98841301D01*
X179662805Y-98897031D01*
X179609409Y-98950672D01*
X179594501Y-98970261D01*
X179550544Y-99014972D01*
X179515218Y-99031126D01*
X179478710Y-99049169D01*
X179473478Y-99064277D01*
X179457541Y-99090637D01*
X179444243Y-99095224D01*
X179406447Y-99119566D01*
X179374145Y-99159168D01*
X179339385Y-99203754D01*
X179315078Y-99221167D01*
X179289180Y-99240472D01*
X179237838Y-99289188D01*
X179169600Y-99358967D01*
X179123092Y-99408570D01*
X179050267Y-99485458D01*
X178990615Y-99544736D01*
X178952020Y-99578775D01*
X178942015Y-99583790D01*
X178921974Y-99598056D01*
X178880823Y-99643346D01*
X178828833Y-99708114D01*
X178771500Y-99777239D01*
X178721583Y-99827419D01*
X178691946Y-99846877D01*
X178655176Y-99870176D01*
X178608603Y-99920048D01*
X178597727Y-99934418D01*
X178546307Y-100002100D01*
X178480813Y-100083965D01*
X178445487Y-100126568D01*
X178377084Y-100209672D01*
X178298666Y-100307737D01*
X178247135Y-100373756D01*
X178190634Y-100443385D01*
X178143882Y-100494203D01*
X178117297Y-100515042D01*
X178091519Y-100536772D01*
X178045966Y-100589769D01*
X177989628Y-100663429D01*
X177978522Y-100678782D01*
X177883979Y-100809769D01*
X177813696Y-100904800D01*
X177763068Y-100969725D01*
X177727491Y-101010390D01*
X177702361Y-101032644D01*
X177697295Y-101035940D01*
X177666464Y-101069750D01*
X177627524Y-101131773D01*
X177610619Y-101164081D01*
X177583287Y-101217849D01*
X177552870Y-101272763D01*
X177514482Y-101336665D01*
X177463237Y-101417392D01*
X177394247Y-101522785D01*
X177302629Y-101660685D01*
X177279740Y-101694982D01*
X177210137Y-101803353D01*
X177145016Y-101911962D01*
X177094148Y-102004210D01*
X177076519Y-102040318D01*
X177030920Y-102135284D01*
X176981358Y-102229543D01*
X176961919Y-102263586D01*
X176921020Y-102341728D01*
X176890961Y-102415547D01*
X176886332Y-102431311D01*
X176872773Y-102477619D01*
X176853260Y-102523271D01*
X176820432Y-102583338D01*
X176774093Y-102661064D01*
X176749798Y-102718372D01*
X176745756Y-102756332D01*
X176739975Y-102791701D01*
X176730840Y-102797650D01*
X176712659Y-102820850D01*
X176680473Y-102879554D01*
X176639776Y-102962352D01*
X176596062Y-103057839D01*
X176554827Y-103154606D01*
X176535921Y-103202341D01*
X176521385Y-103240629D01*
X176494552Y-103311574D01*
X176461045Y-103400303D01*
X176458759Y-103406360D01*
X176422583Y-103496540D01*
X176389128Y-103570242D01*
X176365370Y-103612148D01*
X176364577Y-103613115D01*
X176344988Y-103664558D01*
X176345264Y-103703032D01*
X176337592Y-103763994D01*
X176310812Y-103815564D01*
X176284414Y-103865224D01*
X176252575Y-103947048D01*
X176219979Y-104045669D01*
X176191310Y-104145721D01*
X176171248Y-104231837D01*
X176164478Y-104288651D01*
X176164965Y-104294159D01*
X176158133Y-104342080D01*
X176141943Y-104383000D01*
X176122221Y-104440914D01*
X176120307Y-104475055D01*
X176112922Y-104525416D01*
X176096691Y-104560051D01*
X176075567Y-104622432D01*
X176072750Y-104675299D01*
X176065913Y-104739066D01*
X176033456Y-104760543D01*
X175980765Y-104737685D01*
X175958454Y-104718753D01*
X175901763Y-104667684D01*
X175854419Y-104628656D01*
X175815481Y-104583340D01*
X175780906Y-104519107D01*
X175753191Y-104467144D01*
X175728085Y-104444882D01*
X175726072Y-104444952D01*
X175702384Y-104428047D01*
X175696008Y-104409099D01*
X175673867Y-104363835D01*
X175630513Y-104311046D01*
X175630500Y-104311034D01*
X175579288Y-104254500D01*
X175518957Y-104180394D01*
X175496035Y-104150220D01*
X175432991Y-104073813D01*
X175353083Y-103988340D01*
X175302484Y-103939236D01*
X175231328Y-103870803D01*
X175169402Y-103806325D01*
X175138626Y-103770401D01*
X175090598Y-103721055D01*
X175010814Y-103652822D01*
X174910456Y-103573964D01*
X174800704Y-103492741D01*
X174692740Y-103417419D01*
X174597743Y-103356256D01*
X174526895Y-103317516D01*
X174523998Y-103316233D01*
X174438625Y-103274498D01*
X174359343Y-103228609D01*
X174343644Y-103218110D01*
X174274222Y-103183128D01*
X174182015Y-103153177D01*
X174135507Y-103143121D01*
X174052550Y-103124444D01*
X173987445Y-103102025D01*
X173965432Y-103089463D01*
X173923521Y-103071843D01*
X173846836Y-103054025D01*
X173751257Y-103039625D01*
X173742246Y-103038617D01*
X173642553Y-103027152D01*
X173557065Y-103016153D01*
X173503418Y-103007899D01*
X173501592Y-103007540D01*
X173385366Y-102989518D01*
X173237168Y-102976595D01*
X173049713Y-102968016D01*
X172952065Y-102962689D01*
X172876876Y-102954416D01*
X172836121Y-102944681D01*
X172832175Y-102941042D01*
X172845890Y-102912016D01*
X172884688Y-102861628D01*
X172908770Y-102834548D01*
X172971909Y-102763362D01*
X173029902Y-102693051D01*
X173042199Y-102677057D01*
X173117803Y-102580524D01*
X173212718Y-102465732D01*
X173317117Y-102343931D01*
X173421171Y-102226376D01*
X173515053Y-102124323D01*
X173588936Y-102049025D01*
X173598607Y-102039874D01*
X173679112Y-101960929D01*
X173757497Y-101877647D01*
X173802589Y-101825276D01*
X173858414Y-101765746D01*
X173910306Y-101726171D01*
X173929869Y-101718235D01*
X173972149Y-101702026D01*
X173982771Y-101689563D01*
X174003373Y-101660656D01*
X174049969Y-101610335D01*
X174110404Y-101550311D01*
X174172522Y-101492291D01*
X174224172Y-101447983D01*
X174253136Y-101429106D01*
X174286296Y-101407922D01*
X174309374Y-101383631D01*
X174344719Y-101349519D01*
X174408976Y-101295669D01*
X174489949Y-101232189D01*
X174513671Y-101214279D01*
X174620809Y-101131413D01*
X174740550Y-101034756D01*
X174847806Y-100944576D01*
X174852305Y-100940675D01*
X174996470Y-100826072D01*
X175157402Y-100715335D01*
X175314014Y-100622576D01*
X175371379Y-100593353D01*
X175423850Y-100557601D01*
X175470476Y-100513978D01*
X175519026Y-100470999D01*
X175557803Y-100451096D01*
X175605018Y-100431073D01*
X175643038Y-100405690D01*
X175702793Y-100368066D01*
X175741402Y-100351492D01*
X175783736Y-100332745D01*
X175856112Y-100295606D01*
X175944898Y-100247637D01*
X176036464Y-100196398D01*
X176117181Y-100149450D01*
X176173418Y-100114357D01*
X176187847Y-100103830D01*
X176229996Y-100076286D01*
X176297668Y-100038844D01*
X176370024Y-100002381D01*
X176426231Y-99977776D01*
X176434803Y-99974903D01*
X176462912Y-99964853D01*
X176498576Y-99946925D01*
X176555010Y-99913989D01*
X176612410Y-99879131D01*
X176656277Y-99855969D01*
X176732631Y-99819018D01*
X176827481Y-99774993D01*
X176862098Y-99759319D01*
X176970607Y-99709675D01*
X177075669Y-99660194D01*
X177157978Y-99619997D01*
X177171601Y-99613056D01*
X177255293Y-99573894D01*
X177360232Y-99530146D01*
X177435648Y-99501540D01*
X177539941Y-99461028D01*
X177643777Y-99415835D01*
X177703376Y-99386715D01*
X177799629Y-99343381D01*
X177907013Y-99305532D01*
X177938774Y-99296650D01*
X178021110Y-99273402D01*
X178088124Y-99250471D01*
X178109053Y-99241296D01*
X178166702Y-99216831D01*
X178264161Y-99181633D01*
X178392295Y-99138554D01*
X178541967Y-99090449D01*
X178704038Y-99040172D01*
X178869372Y-98990576D01*
X179028832Y-98944515D01*
X179173280Y-98904843D01*
X179248499Y-98885405D01*
X179457154Y-98833812D01*
X179620794Y-98794750D01*
X179738409Y-98768445D01*
X179808991Y-98755125D01*
X179831553Y-98754657D01*
G37*
X179831553Y-98754657D02*
X179814079Y-98774323D01*
X179767393Y-98813180D01*
X179730511Y-98841301D01*
X179662805Y-98897031D01*
X179609409Y-98950672D01*
X179594501Y-98970261D01*
X179550544Y-99014972D01*
X179515218Y-99031126D01*
X179478710Y-99049169D01*
X179473478Y-99064277D01*
X179457541Y-99090637D01*
X179444243Y-99095224D01*
X179406447Y-99119566D01*
X179374145Y-99159168D01*
X179339385Y-99203754D01*
X179315078Y-99221167D01*
X179289180Y-99240472D01*
X179237838Y-99289188D01*
X179169600Y-99358967D01*
X179123092Y-99408570D01*
X179050267Y-99485458D01*
X178990615Y-99544736D01*
X178952020Y-99578775D01*
X178942015Y-99583790D01*
X178921974Y-99598056D01*
X178880823Y-99643346D01*
X178828833Y-99708114D01*
X178771500Y-99777239D01*
X178721583Y-99827419D01*
X178691946Y-99846877D01*
X178655176Y-99870176D01*
X178608603Y-99920048D01*
X178597727Y-99934418D01*
X178546307Y-100002100D01*
X178480813Y-100083965D01*
X178445487Y-100126568D01*
X178377084Y-100209672D01*
X178298666Y-100307737D01*
X178247135Y-100373756D01*
X178190634Y-100443385D01*
X178143882Y-100494203D01*
X178117297Y-100515042D01*
X178091519Y-100536772D01*
X178045966Y-100589769D01*
X177989628Y-100663429D01*
X177978522Y-100678782D01*
X177883979Y-100809769D01*
X177813696Y-100904800D01*
X177763068Y-100969725D01*
X177727491Y-101010390D01*
X177702361Y-101032644D01*
X177697295Y-101035940D01*
X177666464Y-101069750D01*
X177627524Y-101131773D01*
X177610619Y-101164081D01*
X177583287Y-101217849D01*
X177552870Y-101272763D01*
X177514482Y-101336665D01*
X177463237Y-101417392D01*
X177394247Y-101522785D01*
X177302629Y-101660685D01*
X177279740Y-101694982D01*
X177210137Y-101803353D01*
X177145016Y-101911962D01*
X177094148Y-102004210D01*
X177076519Y-102040318D01*
X177030920Y-102135284D01*
X176981358Y-102229543D01*
X176961919Y-102263586D01*
X176921020Y-102341728D01*
X176890961Y-102415547D01*
X176886332Y-102431311D01*
X176872773Y-102477619D01*
X176853260Y-102523271D01*
X176820432Y-102583338D01*
X176774093Y-102661064D01*
X176749798Y-102718372D01*
X176745756Y-102756332D01*
X176739975Y-102791701D01*
X176730840Y-102797650D01*
X176712659Y-102820850D01*
X176680473Y-102879554D01*
X176639776Y-102962352D01*
X176596062Y-103057839D01*
X176554827Y-103154606D01*
X176535921Y-103202341D01*
X176521385Y-103240629D01*
X176494552Y-103311574D01*
X176461045Y-103400303D01*
X176458759Y-103406360D01*
X176422583Y-103496540D01*
X176389128Y-103570242D01*
X176365370Y-103612148D01*
X176364577Y-103613115D01*
X176344988Y-103664558D01*
X176345264Y-103703032D01*
X176337592Y-103763994D01*
X176310812Y-103815564D01*
X176284414Y-103865224D01*
X176252575Y-103947048D01*
X176219979Y-104045669D01*
X176191310Y-104145721D01*
X176171248Y-104231837D01*
X176164478Y-104288651D01*
X176164965Y-104294159D01*
X176158133Y-104342080D01*
X176141943Y-104383000D01*
X176122221Y-104440914D01*
X176120307Y-104475055D01*
X176112922Y-104525416D01*
X176096691Y-104560051D01*
X176075567Y-104622432D01*
X176072750Y-104675299D01*
X176065913Y-104739066D01*
X176033456Y-104760543D01*
X175980765Y-104737685D01*
X175958454Y-104718753D01*
X175901763Y-104667684D01*
X175854419Y-104628656D01*
X175815481Y-104583340D01*
X175780906Y-104519107D01*
X175753191Y-104467144D01*
X175728085Y-104444882D01*
X175726072Y-104444952D01*
X175702384Y-104428047D01*
X175696008Y-104409099D01*
X175673867Y-104363835D01*
X175630513Y-104311046D01*
X175630500Y-104311034D01*
X175579288Y-104254500D01*
X175518957Y-104180394D01*
X175496035Y-104150220D01*
X175432991Y-104073813D01*
X175353083Y-103988340D01*
X175302484Y-103939236D01*
X175231328Y-103870803D01*
X175169402Y-103806325D01*
X175138626Y-103770401D01*
X175090598Y-103721055D01*
X175010814Y-103652822D01*
X174910456Y-103573964D01*
X174800704Y-103492741D01*
X174692740Y-103417419D01*
X174597743Y-103356256D01*
X174526895Y-103317516D01*
X174523998Y-103316233D01*
X174438625Y-103274498D01*
X174359343Y-103228609D01*
X174343644Y-103218110D01*
X174274222Y-103183128D01*
X174182015Y-103153177D01*
X174135507Y-103143121D01*
X174052550Y-103124444D01*
X173987445Y-103102025D01*
X173965432Y-103089463D01*
X173923521Y-103071843D01*
X173846836Y-103054025D01*
X173751257Y-103039625D01*
X173742246Y-103038617D01*
X173642553Y-103027152D01*
X173557065Y-103016153D01*
X173503418Y-103007899D01*
X173501592Y-103007540D01*
X173385366Y-102989518D01*
X173237168Y-102976595D01*
X173049713Y-102968016D01*
X172952065Y-102962689D01*
X172876876Y-102954416D01*
X172836121Y-102944681D01*
X172832175Y-102941042D01*
X172845890Y-102912016D01*
X172884688Y-102861628D01*
X172908770Y-102834548D01*
X172971909Y-102763362D01*
X173029902Y-102693051D01*
X173042199Y-102677057D01*
X173117803Y-102580524D01*
X173212718Y-102465732D01*
X173317117Y-102343931D01*
X173421171Y-102226376D01*
X173515053Y-102124323D01*
X173588936Y-102049025D01*
X173598607Y-102039874D01*
X173679112Y-101960929D01*
X173757497Y-101877647D01*
X173802589Y-101825276D01*
X173858414Y-101765746D01*
X173910306Y-101726171D01*
X173929869Y-101718235D01*
X173972149Y-101702026D01*
X173982771Y-101689563D01*
X174003373Y-101660656D01*
X174049969Y-101610335D01*
X174110404Y-101550311D01*
X174172522Y-101492291D01*
X174224172Y-101447983D01*
X174253136Y-101429106D01*
X174286296Y-101407922D01*
X174309374Y-101383631D01*
X174344719Y-101349519D01*
X174408976Y-101295669D01*
X174489949Y-101232189D01*
X174513671Y-101214279D01*
X174620809Y-101131413D01*
X174740550Y-101034756D01*
X174847806Y-100944576D01*
X174852305Y-100940675D01*
X174996470Y-100826072D01*
X175157402Y-100715335D01*
X175314014Y-100622576D01*
X175371379Y-100593353D01*
X175423850Y-100557601D01*
X175470476Y-100513978D01*
X175519026Y-100470999D01*
X175557803Y-100451096D01*
X175605018Y-100431073D01*
X175643038Y-100405690D01*
X175702793Y-100368066D01*
X175741402Y-100351492D01*
X175783736Y-100332745D01*
X175856112Y-100295606D01*
X175944898Y-100247637D01*
X176036464Y-100196398D01*
X176117181Y-100149450D01*
X176173418Y-100114357D01*
X176187847Y-100103830D01*
X176229996Y-100076286D01*
X176297668Y-100038844D01*
X176370024Y-100002381D01*
X176426231Y-99977776D01*
X176434803Y-99974903D01*
X176462912Y-99964853D01*
X176498576Y-99946925D01*
X176555010Y-99913989D01*
X176612410Y-99879131D01*
X176656277Y-99855969D01*
X176732631Y-99819018D01*
X176827481Y-99774993D01*
X176862098Y-99759319D01*
X176970607Y-99709675D01*
X177075669Y-99660194D01*
X177157978Y-99619997D01*
X177171601Y-99613056D01*
X177255293Y-99573894D01*
X177360232Y-99530146D01*
X177435648Y-99501540D01*
X177539941Y-99461028D01*
X177643777Y-99415835D01*
X177703376Y-99386715D01*
X177799629Y-99343381D01*
X177907013Y-99305532D01*
X177938774Y-99296650D01*
X178021110Y-99273402D01*
X178088124Y-99250471D01*
X178109053Y-99241296D01*
X178166702Y-99216831D01*
X178264161Y-99181633D01*
X178392295Y-99138554D01*
X178541967Y-99090449D01*
X178704038Y-99040172D01*
X178869372Y-98990576D01*
X179028832Y-98944515D01*
X179173280Y-98904843D01*
X179248499Y-98885405D01*
X179457154Y-98833812D01*
X179620794Y-98794750D01*
X179738409Y-98768445D01*
X179808991Y-98755125D01*
X179831553Y-98754657D01*
G36*
X180070334Y-98808830D02*
G01*
X180074949Y-98818570D01*
X180069533Y-98848223D01*
X180052857Y-98913784D01*
X180028213Y-99002491D01*
X180021317Y-99026366D01*
X179995304Y-99120283D01*
X179976847Y-99195731D01*
X179969184Y-99239202D01*
X179969291Y-99243266D01*
X179963124Y-99278715D01*
X179942791Y-99344107D01*
X179924374Y-99394588D01*
X179894557Y-99494950D01*
X179864402Y-99638246D01*
X179834771Y-99816630D01*
X179806527Y-100022251D01*
X179780532Y-100247259D01*
X179757650Y-100483805D01*
X179738744Y-100724039D01*
X179724677Y-100960112D01*
X179716312Y-101184175D01*
X179714420Y-101304370D01*
X179712051Y-101402184D01*
X179707077Y-101496099D01*
X179704667Y-101525321D01*
X179703070Y-101593137D01*
X179706632Y-101693155D01*
X179714592Y-101807121D01*
X179717954Y-101843661D01*
X179726254Y-101953255D01*
X179729214Y-102049949D01*
X179726507Y-102117933D01*
X179723973Y-102132757D01*
X179723568Y-102205066D01*
X179749078Y-102255443D01*
X179775697Y-102314158D01*
X179773061Y-102347933D01*
X179766417Y-102392546D01*
X179767971Y-102480951D01*
X179776871Y-102606954D01*
X179792266Y-102764361D01*
X179813302Y-102946977D01*
X179839126Y-103148608D01*
X179868887Y-103363061D01*
X179901730Y-103584138D01*
X179936805Y-103805648D01*
X179973257Y-104021395D01*
X180010235Y-104225184D01*
X180046886Y-104410822D01*
X180074588Y-104538551D01*
X180104279Y-104675721D01*
X180129693Y-104806053D01*
X180148394Y-104916112D01*
X180157941Y-104992463D01*
X180158469Y-105000910D01*
X180164046Y-105119656D01*
X180118175Y-105056817D01*
X180073123Y-105014375D01*
X180030458Y-105001356D01*
X179984985Y-104991710D01*
X179922368Y-104958638D01*
X179902070Y-104944548D01*
X179817868Y-104885961D01*
X179718219Y-104822454D01*
X179613351Y-104759826D01*
X179513494Y-104703872D01*
X179428874Y-104660390D01*
X179369720Y-104635180D01*
X179349579Y-104631369D01*
X179313312Y-104620147D01*
X179291706Y-104605127D01*
X179243377Y-104576266D01*
X179165586Y-104541568D01*
X179074077Y-104506701D01*
X178984592Y-104477338D01*
X178912873Y-104459147D01*
X178878901Y-104456444D01*
X178826333Y-104447663D01*
X178780446Y-104422220D01*
X178725739Y-104392932D01*
X178686473Y-104387333D01*
X178636060Y-104387583D01*
X178551764Y-104379573D01*
X178449448Y-104365342D01*
X178344975Y-104346932D01*
X178301305Y-104337787D01*
X178228699Y-104328869D01*
X178133245Y-104326079D01*
X178080289Y-104327661D01*
X177969315Y-104331935D01*
X177852633Y-104333653D01*
X177809716Y-104333387D01*
X177665128Y-104338419D01*
X177501391Y-104355624D01*
X177338682Y-104382038D01*
X177197178Y-104414695D01*
X177144244Y-104431178D01*
X177043055Y-104464579D01*
X176939522Y-104495663D01*
X176898675Y-104506770D01*
X176805057Y-104537823D01*
X176687569Y-104586528D01*
X176565770Y-104644177D01*
X176459217Y-104702066D01*
X176457158Y-104703296D01*
X176406290Y-104730915D01*
X176337063Y-104765279D01*
X176267191Y-104797993D01*
X176214391Y-104820658D01*
X176198522Y-104825899D01*
X176181671Y-104808547D01*
X176173134Y-104767485D01*
X176176886Y-104729617D01*
X176183046Y-104721162D01*
X176200529Y-104691146D01*
X176223977Y-104630369D01*
X176247431Y-104557451D01*
X176264935Y-104491012D01*
X176270530Y-104449674D01*
X176270346Y-104448333D01*
X176278967Y-104412797D01*
X176305646Y-104352716D01*
X176317797Y-104329506D01*
X176349939Y-104251078D01*
X176364567Y-104176060D01*
X176364494Y-104161822D01*
X176368535Y-104104984D01*
X176384069Y-104075680D01*
X176403589Y-104042327D01*
X176403165Y-104031401D01*
X176410830Y-103992049D01*
X176436473Y-103926972D01*
X176454722Y-103889052D01*
X176487081Y-103815869D01*
X176504511Y-103756487D01*
X176505489Y-103738147D01*
X176515511Y-103692056D01*
X176548316Y-103633093D01*
X176552026Y-103628011D01*
X176583075Y-103573301D01*
X176589398Y-103532572D01*
X176587950Y-103529333D01*
X176589153Y-103490403D01*
X176611709Y-103448981D01*
X176640529Y-103396782D01*
X176646220Y-103362019D01*
X176654530Y-103316086D01*
X176677916Y-103269041D01*
X176706915Y-103212490D01*
X176741214Y-103129138D01*
X176762899Y-103068144D01*
X176793301Y-102986571D01*
X176822838Y-102923999D01*
X176839850Y-102899657D01*
X176863223Y-102856201D01*
X176863455Y-102838746D01*
X176874676Y-102791693D01*
X176885871Y-102778043D01*
X176910614Y-102741692D01*
X176944833Y-102674434D01*
X176971666Y-102613331D01*
X177020552Y-102507560D01*
X177080494Y-102395068D01*
X177110441Y-102344870D01*
X177153186Y-102270790D01*
X177180548Y-102211141D01*
X177186479Y-102184067D01*
X177199929Y-102145062D01*
X177226017Y-102117267D01*
X177266260Y-102067521D01*
X177294946Y-102005467D01*
X177321913Y-101942512D01*
X177366890Y-101858974D01*
X177406332Y-101794585D01*
X177468823Y-101696218D01*
X177538379Y-101583291D01*
X177583196Y-101508509D01*
X177635654Y-101421400D01*
X177684277Y-101343856D01*
X177715742Y-101296715D01*
X177822308Y-101150952D01*
X177904069Y-101045525D01*
X177963270Y-100977770D01*
X178002153Y-100945020D01*
X178015374Y-100940948D01*
X178046424Y-100927037D01*
X178049299Y-100915623D01*
X178046045Y-100865480D01*
X178045435Y-100857142D01*
X178062601Y-100819908D01*
X178094976Y-100790706D01*
X178133657Y-100758827D01*
X178144202Y-100740767D01*
X178158195Y-100715591D01*
X178198011Y-100660544D01*
X178256535Y-100584431D01*
X178326656Y-100496059D01*
X178401261Y-100404235D01*
X178473238Y-100317766D01*
X178535474Y-100245457D01*
X178580857Y-100196115D01*
X178594486Y-100183242D01*
X178657896Y-100133606D01*
X178698631Y-100104414D01*
X178742034Y-100056790D01*
X178756916Y-100015655D01*
X178774178Y-99970874D01*
X178793969Y-99957847D01*
X178836037Y-99933758D01*
X178854138Y-99913896D01*
X178884081Y-99878906D01*
X178939769Y-99819271D01*
X179010805Y-99746041D01*
X179034882Y-99721742D01*
X179106753Y-99647211D01*
X179164355Y-99583043D01*
X179198210Y-99539959D01*
X179202606Y-99532072D01*
X179236953Y-99495791D01*
X179253005Y-99490030D01*
X179290045Y-99463620D01*
X179311494Y-99428132D01*
X179344767Y-99381551D01*
X179374084Y-99365512D01*
X179432123Y-99340643D01*
X179500961Y-99292856D01*
X179558983Y-99238350D01*
X179577528Y-99213041D01*
X179619153Y-99173000D01*
X179644663Y-99163052D01*
X179682945Y-99135077D01*
X179704091Y-99091744D01*
X179737604Y-99036307D01*
X179810685Y-98996857D01*
X179815223Y-98995260D01*
X179899091Y-98949272D01*
X179957962Y-98889065D01*
X180000404Y-98838339D01*
X180042131Y-98809022D01*
X180070334Y-98808830D01*
G37*
X180070334Y-98808830D02*
X180074949Y-98818570D01*
X180069533Y-98848223D01*
X180052857Y-98913784D01*
X180028213Y-99002491D01*
X180021317Y-99026366D01*
X179995304Y-99120283D01*
X179976847Y-99195731D01*
X179969184Y-99239202D01*
X179969291Y-99243266D01*
X179963124Y-99278715D01*
X179942791Y-99344107D01*
X179924374Y-99394588D01*
X179894557Y-99494950D01*
X179864402Y-99638246D01*
X179834771Y-99816630D01*
X179806527Y-100022251D01*
X179780532Y-100247259D01*
X179757650Y-100483805D01*
X179738744Y-100724039D01*
X179724677Y-100960112D01*
X179716312Y-101184175D01*
X179714420Y-101304370D01*
X179712051Y-101402184D01*
X179707077Y-101496099D01*
X179704667Y-101525321D01*
X179703070Y-101593137D01*
X179706632Y-101693155D01*
X179714592Y-101807121D01*
X179717954Y-101843661D01*
X179726254Y-101953255D01*
X179729214Y-102049949D01*
X179726507Y-102117933D01*
X179723973Y-102132757D01*
X179723568Y-102205066D01*
X179749078Y-102255443D01*
X179775697Y-102314158D01*
X179773061Y-102347933D01*
X179766417Y-102392546D01*
X179767971Y-102480951D01*
X179776871Y-102606954D01*
X179792266Y-102764361D01*
X179813302Y-102946977D01*
X179839126Y-103148608D01*
X179868887Y-103363061D01*
X179901730Y-103584138D01*
X179936805Y-103805648D01*
X179973257Y-104021395D01*
X180010235Y-104225184D01*
X180046886Y-104410822D01*
X180074588Y-104538551D01*
X180104279Y-104675721D01*
X180129693Y-104806053D01*
X180148394Y-104916112D01*
X180157941Y-104992463D01*
X180158469Y-105000910D01*
X180164046Y-105119656D01*
X180118175Y-105056817D01*
X180073123Y-105014375D01*
X180030458Y-105001356D01*
X179984985Y-104991710D01*
X179922368Y-104958638D01*
X179902070Y-104944548D01*
X179817868Y-104885961D01*
X179718219Y-104822454D01*
X179613351Y-104759826D01*
X179513494Y-104703872D01*
X179428874Y-104660390D01*
X179369720Y-104635180D01*
X179349579Y-104631369D01*
X179313312Y-104620147D01*
X179291706Y-104605127D01*
X179243377Y-104576266D01*
X179165586Y-104541568D01*
X179074077Y-104506701D01*
X178984592Y-104477338D01*
X178912873Y-104459147D01*
X178878901Y-104456444D01*
X178826333Y-104447663D01*
X178780446Y-104422220D01*
X178725739Y-104392932D01*
X178686473Y-104387333D01*
X178636060Y-104387583D01*
X178551764Y-104379573D01*
X178449448Y-104365342D01*
X178344975Y-104346932D01*
X178301305Y-104337787D01*
X178228699Y-104328869D01*
X178133245Y-104326079D01*
X178080289Y-104327661D01*
X177969315Y-104331935D01*
X177852633Y-104333653D01*
X177809716Y-104333387D01*
X177665128Y-104338419D01*
X177501391Y-104355624D01*
X177338682Y-104382038D01*
X177197178Y-104414695D01*
X177144244Y-104431178D01*
X177043055Y-104464579D01*
X176939522Y-104495663D01*
X176898675Y-104506770D01*
X176805057Y-104537823D01*
X176687569Y-104586528D01*
X176565770Y-104644177D01*
X176459217Y-104702066D01*
X176457158Y-104703296D01*
X176406290Y-104730915D01*
X176337063Y-104765279D01*
X176267191Y-104797993D01*
X176214391Y-104820658D01*
X176198522Y-104825899D01*
X176181671Y-104808547D01*
X176173134Y-104767485D01*
X176176886Y-104729617D01*
X176183046Y-104721162D01*
X176200529Y-104691146D01*
X176223977Y-104630369D01*
X176247431Y-104557451D01*
X176264935Y-104491012D01*
X176270530Y-104449674D01*
X176270346Y-104448333D01*
X176278967Y-104412797D01*
X176305646Y-104352716D01*
X176317797Y-104329506D01*
X176349939Y-104251078D01*
X176364567Y-104176060D01*
X176364494Y-104161822D01*
X176368535Y-104104984D01*
X176384069Y-104075680D01*
X176403589Y-104042327D01*
X176403165Y-104031401D01*
X176410830Y-103992049D01*
X176436473Y-103926972D01*
X176454722Y-103889052D01*
X176487081Y-103815869D01*
X176504511Y-103756487D01*
X176505489Y-103738147D01*
X176515511Y-103692056D01*
X176548316Y-103633093D01*
X176552026Y-103628011D01*
X176583075Y-103573301D01*
X176589398Y-103532572D01*
X176587950Y-103529333D01*
X176589153Y-103490403D01*
X176611709Y-103448981D01*
X176640529Y-103396782D01*
X176646220Y-103362019D01*
X176654530Y-103316086D01*
X176677916Y-103269041D01*
X176706915Y-103212490D01*
X176741214Y-103129138D01*
X176762899Y-103068144D01*
X176793301Y-102986571D01*
X176822838Y-102923999D01*
X176839850Y-102899657D01*
X176863223Y-102856201D01*
X176863455Y-102838746D01*
X176874676Y-102791693D01*
X176885871Y-102778043D01*
X176910614Y-102741692D01*
X176944833Y-102674434D01*
X176971666Y-102613331D01*
X177020552Y-102507560D01*
X177080494Y-102395068D01*
X177110441Y-102344870D01*
X177153186Y-102270790D01*
X177180548Y-102211141D01*
X177186479Y-102184067D01*
X177199929Y-102145062D01*
X177226017Y-102117267D01*
X177266260Y-102067521D01*
X177294946Y-102005467D01*
X177321913Y-101942512D01*
X177366890Y-101858974D01*
X177406332Y-101794585D01*
X177468823Y-101696218D01*
X177538379Y-101583291D01*
X177583196Y-101508509D01*
X177635654Y-101421400D01*
X177684277Y-101343856D01*
X177715742Y-101296715D01*
X177822308Y-101150952D01*
X177904069Y-101045525D01*
X177963270Y-100977770D01*
X178002153Y-100945020D01*
X178015374Y-100940948D01*
X178046424Y-100927037D01*
X178049299Y-100915623D01*
X178046045Y-100865480D01*
X178045435Y-100857142D01*
X178062601Y-100819908D01*
X178094976Y-100790706D01*
X178133657Y-100758827D01*
X178144202Y-100740767D01*
X178158195Y-100715591D01*
X178198011Y-100660544D01*
X178256535Y-100584431D01*
X178326656Y-100496059D01*
X178401261Y-100404235D01*
X178473238Y-100317766D01*
X178535474Y-100245457D01*
X178580857Y-100196115D01*
X178594486Y-100183242D01*
X178657896Y-100133606D01*
X178698631Y-100104414D01*
X178742034Y-100056790D01*
X178756916Y-100015655D01*
X178774178Y-99970874D01*
X178793969Y-99957847D01*
X178836037Y-99933758D01*
X178854138Y-99913896D01*
X178884081Y-99878906D01*
X178939769Y-99819271D01*
X179010805Y-99746041D01*
X179034882Y-99721742D01*
X179106753Y-99647211D01*
X179164355Y-99583043D01*
X179198210Y-99539959D01*
X179202606Y-99532072D01*
X179236953Y-99495791D01*
X179253005Y-99490030D01*
X179290045Y-99463620D01*
X179311494Y-99428132D01*
X179344767Y-99381551D01*
X179374084Y-99365512D01*
X179432123Y-99340643D01*
X179500961Y-99292856D01*
X179558983Y-99238350D01*
X179577528Y-99213041D01*
X179619153Y-99173000D01*
X179644663Y-99163052D01*
X179682945Y-99135077D01*
X179704091Y-99091744D01*
X179737604Y-99036307D01*
X179810685Y-98996857D01*
X179815223Y-98995260D01*
X179899091Y-98949272D01*
X179957962Y-98889065D01*
X180000404Y-98838339D01*
X180042131Y-98809022D01*
X180070334Y-98808830D01*
G36*
X180280248Y-98841371D02*
G01*
X180312131Y-98892506D01*
X180325862Y-98920427D01*
X180384393Y-99046838D01*
X180426466Y-99134137D01*
X180455941Y-99189773D01*
X180476677Y-99221195D01*
X180487553Y-99232368D01*
X180512624Y-99272347D01*
X180521798Y-99303705D01*
X180540582Y-99346592D01*
X180582767Y-99417045D01*
X180640605Y-99502503D01*
X180665960Y-99537494D01*
X180740786Y-99638058D01*
X180797183Y-99711188D01*
X180846526Y-99770593D01*
X180900189Y-99829975D01*
X180967744Y-99901167D01*
X181019013Y-99957134D01*
X181052199Y-99998082D01*
X181058705Y-100009543D01*
X181077909Y-100031602D01*
X181126960Y-100078203D01*
X181196765Y-100141264D01*
X181278230Y-100212701D01*
X181362261Y-100284431D01*
X181439767Y-100348374D01*
X181441038Y-100349396D01*
X181485591Y-100387401D01*
X181550225Y-100444952D01*
X181596664Y-100487285D01*
X181683485Y-100560147D01*
X181780337Y-100631329D01*
X181823467Y-100659356D01*
X181917224Y-100717850D01*
X182020097Y-100784063D01*
X182063591Y-100812772D01*
X182166786Y-100880659D01*
X182257503Y-100937269D01*
X182349634Y-100990579D01*
X182457067Y-101048567D01*
X182593692Y-101119212D01*
X182624069Y-101134708D01*
X182732516Y-101190135D01*
X182826084Y-101238285D01*
X182894460Y-101273831D01*
X182926694Y-101291074D01*
X182976417Y-101307391D01*
X183029764Y-101315270D01*
X183087616Y-101329052D01*
X183117578Y-101350491D01*
X183147937Y-101373172D01*
X183212677Y-101408052D01*
X183298676Y-101449313D01*
X183392818Y-101491139D01*
X183481983Y-101527713D01*
X183553053Y-101553219D01*
X183592906Y-101561841D01*
X183593963Y-101561704D01*
X183633249Y-101572689D01*
X183662109Y-101592101D01*
X183707347Y-101616546D01*
X183784625Y-101645739D01*
X183868916Y-101671036D01*
X183959048Y-101697900D01*
X184032112Y-101725057D01*
X184070101Y-101745201D01*
X184119228Y-101766480D01*
X184189179Y-101776430D01*
X184192799Y-101776496D01*
X184263500Y-101785998D01*
X184315323Y-101807697D01*
X184316816Y-101808910D01*
X184368756Y-101833316D01*
X184394941Y-101835024D01*
X184445490Y-101840616D01*
X184513329Y-101861423D01*
X184519376Y-101863845D01*
X184635793Y-101905075D01*
X184747385Y-101933433D01*
X184835724Y-101944432D01*
X184849153Y-101944143D01*
X184916447Y-101954942D01*
X184959666Y-101974288D01*
X185015705Y-101998030D01*
X185050719Y-102001218D01*
X185098404Y-102004400D01*
X185110424Y-102010035D01*
X185145976Y-102024529D01*
X185149538Y-102024643D01*
X185184096Y-102028838D01*
X185244211Y-102040146D01*
X185246943Y-102040718D01*
X185312568Y-102053630D01*
X185407808Y-102071303D01*
X185512201Y-102089944D01*
X185513584Y-102090185D01*
X185620784Y-102109495D01*
X185721785Y-102128660D01*
X185793769Y-102143332D01*
X185883503Y-102159065D01*
X186009095Y-102175942D01*
X186155671Y-102192474D01*
X186308357Y-102207172D01*
X186452278Y-102218547D01*
X186572563Y-102225109D01*
X186620811Y-102226126D01*
X186682822Y-102231805D01*
X186752991Y-102244394D01*
X186819713Y-102253593D01*
X186867626Y-102250347D01*
X186867862Y-102250263D01*
X186925740Y-102248155D01*
X186987581Y-102269980D01*
X187030654Y-102306044D01*
X187037607Y-102322663D01*
X187039094Y-102353326D01*
X187028108Y-102379528D01*
X186999222Y-102403261D01*
X186947011Y-102426518D01*
X186866052Y-102451288D01*
X186750917Y-102479562D01*
X186596184Y-102513331D01*
X186417131Y-102550364D01*
X186252123Y-102584826D01*
X186102857Y-102617479D01*
X185976878Y-102646551D01*
X185881736Y-102670271D01*
X185824977Y-102686868D01*
X185813154Y-102692085D01*
X185776065Y-102706366D01*
X185699829Y-102726806D01*
X185595329Y-102750746D01*
X185473446Y-102775525D01*
X185465280Y-102777083D01*
X185220983Y-102825017D01*
X185023565Y-102867064D01*
X184873849Y-102903023D01*
X184772656Y-102932695D01*
X184720808Y-102955877D01*
X184716019Y-102960185D01*
X184681158Y-102979268D01*
X184610404Y-103004306D01*
X184517530Y-103030574D01*
X184493971Y-103036417D01*
X184384646Y-103064193D01*
X184281184Y-103092838D01*
X184204380Y-103116571D01*
X184198968Y-103118451D01*
X184114867Y-103143054D01*
X184012098Y-103166432D01*
X183963955Y-103175213D01*
X183868549Y-103196379D01*
X183780578Y-103225009D01*
X183746324Y-103240460D01*
X183680597Y-103269838D01*
X183573402Y-103310600D01*
X183432107Y-103360143D01*
X183264083Y-103415862D01*
X183123475Y-103460600D01*
X183038488Y-103491685D01*
X182921216Y-103540754D01*
X182784343Y-103602160D01*
X182640556Y-103670257D01*
X182538468Y-103720973D01*
X182424932Y-103777496D01*
X182292290Y-103841811D01*
X182167711Y-103900755D01*
X182158272Y-103905138D01*
X182052719Y-103956618D01*
X181953467Y-104009397D01*
X181878371Y-104053873D01*
X181865262Y-104062712D01*
X181798274Y-104104463D01*
X181741190Y-104131112D01*
X181728802Y-104134472D01*
X181685882Y-104160440D01*
X181674906Y-104182663D01*
X181646639Y-104216948D01*
X181602980Y-104234033D01*
X181539872Y-104258153D01*
X181505179Y-104285382D01*
X181462312Y-104321593D01*
X181395074Y-104364504D01*
X181368607Y-104378977D01*
X181305127Y-104418398D01*
X181265012Y-104455389D01*
X181258924Y-104467379D01*
X181231520Y-104497717D01*
X181188403Y-104513469D01*
X181128562Y-104539301D01*
X181065411Y-104587893D01*
X181057414Y-104596013D01*
X180988491Y-104655128D01*
X180905718Y-104708513D01*
X180891767Y-104715728D01*
X180829134Y-104754332D01*
X180790409Y-104792904D01*
X180785622Y-104803957D01*
X180757138Y-104841309D01*
X180730137Y-104852192D01*
X180677497Y-104880238D01*
X180657614Y-104904060D01*
X180625099Y-104941241D01*
X180567126Y-104992984D01*
X180498602Y-105047537D01*
X180434434Y-105093147D01*
X180389532Y-105118063D01*
X180384308Y-105119506D01*
X180367745Y-105099103D01*
X180349117Y-105042226D01*
X180337090Y-104985977D01*
X180319786Y-104911342D01*
X180300611Y-104863197D01*
X180288391Y-104852709D01*
X180269231Y-104833330D01*
X180252335Y-104779876D01*
X180249268Y-104762888D01*
X180240804Y-104713060D01*
X180224488Y-104620969D01*
X180201708Y-104494300D01*
X180173853Y-104340740D01*
X180142313Y-104167978D01*
X180110423Y-103994271D01*
X180070159Y-103769761D01*
X180033458Y-103553876D01*
X180001164Y-103352538D01*
X179974127Y-103171667D01*
X179953196Y-103017184D01*
X179939217Y-102895009D01*
X179933038Y-102811065D01*
X179935318Y-102771721D01*
X179935151Y-102739775D01*
X179928179Y-102672845D01*
X179917232Y-102594360D01*
X179893440Y-102408212D01*
X179872912Y-102187584D01*
X179856505Y-101948314D01*
X179845077Y-101706239D01*
X179839485Y-101477194D01*
X179840586Y-101277014D01*
X179842685Y-101217274D01*
X179847183Y-101091495D01*
X179850180Y-100957059D01*
X179851001Y-100854722D01*
X179853942Y-100757805D01*
X179862079Y-100673720D01*
X179871855Y-100627061D01*
X179885765Y-100561645D01*
X179885547Y-100521479D01*
X179885131Y-100469799D01*
X179892972Y-100392275D01*
X179898528Y-100356297D01*
X179912642Y-100260897D01*
X179922754Y-100168548D01*
X179924435Y-100145394D01*
X179934624Y-100043776D01*
X179953922Y-99909838D01*
X179979283Y-99760583D01*
X180007662Y-99613015D01*
X180036016Y-99484137D01*
X180057166Y-99404147D01*
X180079679Y-99318027D01*
X180092285Y-99246474D01*
X180093049Y-99213768D01*
X180098786Y-99171066D01*
X180120613Y-99100901D01*
X180152606Y-99017355D01*
X180188846Y-98934514D01*
X180223412Y-98866458D01*
X180250380Y-98827273D01*
X180257392Y-98822885D01*
X180280248Y-98841371D01*
G37*
X180280248Y-98841371D02*
X180312131Y-98892506D01*
X180325862Y-98920427D01*
X180384393Y-99046838D01*
X180426466Y-99134137D01*
X180455941Y-99189773D01*
X180476677Y-99221195D01*
X180487553Y-99232368D01*
X180512624Y-99272347D01*
X180521798Y-99303705D01*
X180540582Y-99346592D01*
X180582767Y-99417045D01*
X180640605Y-99502503D01*
X180665960Y-99537494D01*
X180740786Y-99638058D01*
X180797183Y-99711188D01*
X180846526Y-99770593D01*
X180900189Y-99829975D01*
X180967744Y-99901167D01*
X181019013Y-99957134D01*
X181052199Y-99998082D01*
X181058705Y-100009543D01*
X181077909Y-100031602D01*
X181126960Y-100078203D01*
X181196765Y-100141264D01*
X181278230Y-100212701D01*
X181362261Y-100284431D01*
X181439767Y-100348374D01*
X181441038Y-100349396D01*
X181485591Y-100387401D01*
X181550225Y-100444952D01*
X181596664Y-100487285D01*
X181683485Y-100560147D01*
X181780337Y-100631329D01*
X181823467Y-100659356D01*
X181917224Y-100717850D01*
X182020097Y-100784063D01*
X182063591Y-100812772D01*
X182166786Y-100880659D01*
X182257503Y-100937269D01*
X182349634Y-100990579D01*
X182457067Y-101048567D01*
X182593692Y-101119212D01*
X182624069Y-101134708D01*
X182732516Y-101190135D01*
X182826084Y-101238285D01*
X182894460Y-101273831D01*
X182926694Y-101291074D01*
X182976417Y-101307391D01*
X183029764Y-101315270D01*
X183087616Y-101329052D01*
X183117578Y-101350491D01*
X183147937Y-101373172D01*
X183212677Y-101408052D01*
X183298676Y-101449313D01*
X183392818Y-101491139D01*
X183481983Y-101527713D01*
X183553053Y-101553219D01*
X183592906Y-101561841D01*
X183593963Y-101561704D01*
X183633249Y-101572689D01*
X183662109Y-101592101D01*
X183707347Y-101616546D01*
X183784625Y-101645739D01*
X183868916Y-101671036D01*
X183959048Y-101697900D01*
X184032112Y-101725057D01*
X184070101Y-101745201D01*
X184119228Y-101766480D01*
X184189179Y-101776430D01*
X184192799Y-101776496D01*
X184263500Y-101785998D01*
X184315323Y-101807697D01*
X184316816Y-101808910D01*
X184368756Y-101833316D01*
X184394941Y-101835024D01*
X184445490Y-101840616D01*
X184513329Y-101861423D01*
X184519376Y-101863845D01*
X184635793Y-101905075D01*
X184747385Y-101933433D01*
X184835724Y-101944432D01*
X184849153Y-101944143D01*
X184916447Y-101954942D01*
X184959666Y-101974288D01*
X185015705Y-101998030D01*
X185050719Y-102001218D01*
X185098404Y-102004400D01*
X185110424Y-102010035D01*
X185145976Y-102024529D01*
X185149538Y-102024643D01*
X185184096Y-102028838D01*
X185244211Y-102040146D01*
X185246943Y-102040718D01*
X185312568Y-102053630D01*
X185407808Y-102071303D01*
X185512201Y-102089944D01*
X185513584Y-102090185D01*
X185620784Y-102109495D01*
X185721785Y-102128660D01*
X185793769Y-102143332D01*
X185883503Y-102159065D01*
X186009095Y-102175942D01*
X186155671Y-102192474D01*
X186308357Y-102207172D01*
X186452278Y-102218547D01*
X186572563Y-102225109D01*
X186620811Y-102226126D01*
X186682822Y-102231805D01*
X186752991Y-102244394D01*
X186819713Y-102253593D01*
X186867626Y-102250347D01*
X186867862Y-102250263D01*
X186925740Y-102248155D01*
X186987581Y-102269980D01*
X187030654Y-102306044D01*
X187037607Y-102322663D01*
X187039094Y-102353326D01*
X187028108Y-102379528D01*
X186999222Y-102403261D01*
X186947011Y-102426518D01*
X186866052Y-102451288D01*
X186750917Y-102479562D01*
X186596184Y-102513331D01*
X186417131Y-102550364D01*
X186252123Y-102584826D01*
X186102857Y-102617479D01*
X185976878Y-102646551D01*
X185881736Y-102670271D01*
X185824977Y-102686868D01*
X185813154Y-102692085D01*
X185776065Y-102706366D01*
X185699829Y-102726806D01*
X185595329Y-102750746D01*
X185473446Y-102775525D01*
X185465280Y-102777083D01*
X185220983Y-102825017D01*
X185023565Y-102867064D01*
X184873849Y-102903023D01*
X184772656Y-102932695D01*
X184720808Y-102955877D01*
X184716019Y-102960185D01*
X184681158Y-102979268D01*
X184610404Y-103004306D01*
X184517530Y-103030574D01*
X184493971Y-103036417D01*
X184384646Y-103064193D01*
X184281184Y-103092838D01*
X184204380Y-103116571D01*
X184198968Y-103118451D01*
X184114867Y-103143054D01*
X184012098Y-103166432D01*
X183963955Y-103175213D01*
X183868549Y-103196379D01*
X183780578Y-103225009D01*
X183746324Y-103240460D01*
X183680597Y-103269838D01*
X183573402Y-103310600D01*
X183432107Y-103360143D01*
X183264083Y-103415862D01*
X183123475Y-103460600D01*
X183038488Y-103491685D01*
X182921216Y-103540754D01*
X182784343Y-103602160D01*
X182640556Y-103670257D01*
X182538468Y-103720973D01*
X182424932Y-103777496D01*
X182292290Y-103841811D01*
X182167711Y-103900755D01*
X182158272Y-103905138D01*
X182052719Y-103956618D01*
X181953467Y-104009397D01*
X181878371Y-104053873D01*
X181865262Y-104062712D01*
X181798274Y-104104463D01*
X181741190Y-104131112D01*
X181728802Y-104134472D01*
X181685882Y-104160440D01*
X181674906Y-104182663D01*
X181646639Y-104216948D01*
X181602980Y-104234033D01*
X181539872Y-104258153D01*
X181505179Y-104285382D01*
X181462312Y-104321593D01*
X181395074Y-104364504D01*
X181368607Y-104378977D01*
X181305127Y-104418398D01*
X181265012Y-104455389D01*
X181258924Y-104467379D01*
X181231520Y-104497717D01*
X181188403Y-104513469D01*
X181128562Y-104539301D01*
X181065411Y-104587893D01*
X181057414Y-104596013D01*
X180988491Y-104655128D01*
X180905718Y-104708513D01*
X180891767Y-104715728D01*
X180829134Y-104754332D01*
X180790409Y-104792904D01*
X180785622Y-104803957D01*
X180757138Y-104841309D01*
X180730137Y-104852192D01*
X180677497Y-104880238D01*
X180657614Y-104904060D01*
X180625099Y-104941241D01*
X180567126Y-104992984D01*
X180498602Y-105047537D01*
X180434434Y-105093147D01*
X180389532Y-105118063D01*
X180384308Y-105119506D01*
X180367745Y-105099103D01*
X180349117Y-105042226D01*
X180337090Y-104985977D01*
X180319786Y-104911342D01*
X180300611Y-104863197D01*
X180288391Y-104852709D01*
X180269231Y-104833330D01*
X180252335Y-104779876D01*
X180249268Y-104762888D01*
X180240804Y-104713060D01*
X180224488Y-104620969D01*
X180201708Y-104494300D01*
X180173853Y-104340740D01*
X180142313Y-104167978D01*
X180110423Y-103994271D01*
X180070159Y-103769761D01*
X180033458Y-103553876D01*
X180001164Y-103352538D01*
X179974127Y-103171667D01*
X179953196Y-103017184D01*
X179939217Y-102895009D01*
X179933038Y-102811065D01*
X179935318Y-102771721D01*
X179935151Y-102739775D01*
X179928179Y-102672845D01*
X179917232Y-102594360D01*
X179893440Y-102408212D01*
X179872912Y-102187584D01*
X179856505Y-101948314D01*
X179845077Y-101706239D01*
X179839485Y-101477194D01*
X179840586Y-101277014D01*
X179842685Y-101217274D01*
X179847183Y-101091495D01*
X179850180Y-100957059D01*
X179851001Y-100854722D01*
X179853942Y-100757805D01*
X179862079Y-100673720D01*
X179871855Y-100627061D01*
X179885765Y-100561645D01*
X179885547Y-100521479D01*
X179885131Y-100469799D01*
X179892972Y-100392275D01*
X179898528Y-100356297D01*
X179912642Y-100260897D01*
X179922754Y-100168548D01*
X179924435Y-100145394D01*
X179934624Y-100043776D01*
X179953922Y-99909838D01*
X179979283Y-99760583D01*
X180007662Y-99613015D01*
X180036016Y-99484137D01*
X180057166Y-99404147D01*
X180079679Y-99318027D01*
X180092285Y-99246474D01*
X180093049Y-99213768D01*
X180098786Y-99171066D01*
X180120613Y-99100901D01*
X180152606Y-99017355D01*
X180188846Y-98934514D01*
X180223412Y-98866458D01*
X180250380Y-98827273D01*
X180257392Y-98822885D01*
X180280248Y-98841371D01*
G36*
X193527966Y-95504901D02*
G01*
X193653786Y-95486438D01*
X193777413Y-95471963D01*
X193888295Y-95463285D01*
X193913663Y-95462205D01*
X194009540Y-95456981D01*
X194139099Y-95447113D01*
X194285584Y-95434002D01*
X194432239Y-95419045D01*
X194436772Y-95418549D01*
X194579653Y-95404175D01*
X194719532Y-95392381D01*
X194840973Y-95384330D01*
X194928537Y-95381183D01*
X194933123Y-95381177D01*
X195006661Y-95380065D01*
X195120049Y-95376775D01*
X195262400Y-95371698D01*
X195422830Y-95365221D01*
X195590452Y-95357735D01*
X195597446Y-95357407D01*
X195964356Y-95342965D01*
X196295319Y-95336322D01*
X196604579Y-95337446D01*
X196906381Y-95346303D01*
X197066990Y-95354057D01*
X197182786Y-95360262D01*
X197313614Y-95367143D01*
X197392414Y-95371220D01*
X197507248Y-95379294D01*
X197661114Y-95393315D01*
X197842753Y-95412061D01*
X198040904Y-95434307D01*
X198244309Y-95458832D01*
X198441706Y-95484413D01*
X198470528Y-95488323D01*
X198616817Y-95512667D01*
X198802562Y-95550382D01*
X199018908Y-95599134D01*
X199256996Y-95656587D01*
X199507969Y-95720412D01*
X199762973Y-95788273D01*
X200013152Y-95857836D01*
X200249647Y-95926771D01*
X200463602Y-95992742D01*
X200646163Y-96053416D01*
X200729064Y-96083341D01*
X201014407Y-96197834D01*
X201314957Y-96331972D01*
X201619057Y-96479752D01*
X201915051Y-96635166D01*
X202191285Y-96792212D01*
X202436102Y-96944880D01*
X202544693Y-97018830D01*
X202781149Y-97186329D01*
X202981061Y-97329647D01*
X203149914Y-97453139D01*
X203293190Y-97561158D01*
X203416373Y-97658061D01*
X203524947Y-97748199D01*
X203624396Y-97835931D01*
X203720205Y-97925608D01*
X203817856Y-98021587D01*
X203856445Y-98060474D01*
X203918249Y-98120868D01*
X203975588Y-98173527D01*
X203981336Y-98178499D01*
X204019369Y-98221548D01*
X204030423Y-98253004D01*
X204002895Y-98273649D01*
X203933386Y-98291900D01*
X203830699Y-98306620D01*
X203703638Y-98316671D01*
X203561006Y-98320921D01*
X203505253Y-98320785D01*
X203298079Y-98320007D01*
X203129972Y-98323919D01*
X202989308Y-98333939D01*
X202864461Y-98351487D01*
X202743804Y-98377982D01*
X202615712Y-98414845D01*
X202543417Y-98438213D01*
X202330603Y-98513583D01*
X202157808Y-98586366D01*
X202014830Y-98661607D01*
X201891464Y-98744348D01*
X201837689Y-98786984D01*
X201756683Y-98853792D01*
X201678178Y-98917594D01*
X201635353Y-98951780D01*
X201563913Y-99016496D01*
X201480470Y-99105400D01*
X201391186Y-99210268D01*
X201302222Y-99322877D01*
X201219739Y-99435003D01*
X201149898Y-99538421D01*
X201098860Y-99624906D01*
X201072786Y-99686236D01*
X201071059Y-99705031D01*
X201060460Y-99743290D01*
X201027806Y-99798429D01*
X201022843Y-99805223D01*
X200977658Y-99884915D01*
X200928402Y-100004888D01*
X200878398Y-100155164D01*
X200830967Y-100325764D01*
X200789527Y-100506235D01*
X200765264Y-100635385D01*
X200741977Y-100778779D01*
X200721010Y-100925614D01*
X200703710Y-101065087D01*
X200691420Y-101186399D01*
X200685486Y-101278748D01*
X200686950Y-101329734D01*
X200688204Y-101378706D01*
X200683227Y-101460005D01*
X200673547Y-101552144D01*
X200653403Y-101662476D01*
X200624955Y-101723365D01*
X200585117Y-101735899D01*
X200530801Y-101701165D01*
X200463590Y-101626145D01*
X200381012Y-101536585D01*
X200289274Y-101469467D01*
X200177188Y-101419414D01*
X200033561Y-101381046D01*
X199905163Y-101357769D01*
X199525766Y-101305916D01*
X199185263Y-101278324D01*
X198877299Y-101276157D01*
X198595524Y-101300574D01*
X198333586Y-101352739D01*
X198085132Y-101433812D01*
X197843812Y-101544956D01*
X197603271Y-101687333D01*
X197424857Y-101811409D01*
X197382127Y-101850434D01*
X197321618Y-101914796D01*
X197261868Y-101984099D01*
X197012521Y-102299506D01*
X196805470Y-102590937D01*
X196639386Y-102860451D01*
X196512943Y-103110104D01*
X196472145Y-103207464D01*
X196435198Y-103291858D01*
X196400430Y-103354564D01*
X196374894Y-103383022D01*
X196373340Y-103383465D01*
X196338490Y-103372310D01*
X196275509Y-103337660D01*
X196196889Y-103286523D01*
X196182005Y-103276083D01*
X196101021Y-103225647D01*
X195982349Y-103161011D01*
X195835530Y-103086673D01*
X195670108Y-103007135D01*
X195495626Y-102926898D01*
X195321627Y-102850464D01*
X195157655Y-102782330D01*
X195033164Y-102734261D01*
X194835395Y-102670768D01*
X194598024Y-102610109D01*
X194332245Y-102554536D01*
X194049253Y-102506306D01*
X193760244Y-102467670D01*
X193650923Y-102455949D01*
X193388737Y-102430689D01*
X193166819Y-102411550D01*
X192975045Y-102398203D01*
X192803291Y-102390323D01*
X192641434Y-102387580D01*
X192479353Y-102389651D01*
X192306923Y-102396207D01*
X192120489Y-102406524D01*
X191988647Y-102414129D01*
X191849273Y-102421450D01*
X191729080Y-102427094D01*
X191711576Y-102427824D01*
X191639186Y-102431986D01*
X191524689Y-102440097D01*
X191376567Y-102451483D01*
X191203305Y-102465473D01*
X191013382Y-102481397D01*
X190815283Y-102498582D01*
X190795849Y-102500300D01*
X190579975Y-102519872D01*
X190381703Y-102538980D01*
X190191710Y-102558722D01*
X190000675Y-102580196D01*
X189799279Y-102604501D01*
X189578201Y-102632733D01*
X189328119Y-102665992D01*
X189039714Y-102705374D01*
X188951356Y-102717575D01*
X188871964Y-102729228D01*
X188759978Y-102746525D01*
X188632907Y-102766734D01*
X188553268Y-102779685D01*
X188281069Y-102824380D01*
X188213873Y-102337171D01*
X188198550Y-102223249D01*
X188653755Y-102142985D01*
X188670054Y-102230109D01*
X188687905Y-102292465D01*
X188697492Y-102310107D01*
X188726816Y-102316007D01*
X188796853Y-102311651D01*
X188909932Y-102296743D01*
X189068384Y-102270987D01*
X189224160Y-102243323D01*
X189392864Y-102213410D01*
X189558333Y-102185552D01*
X189708900Y-102161604D01*
X189832893Y-102143426D01*
X189918619Y-102132873D01*
X190042761Y-102120356D01*
X190203640Y-102103563D01*
X190387516Y-102083980D01*
X190580653Y-102063093D01*
X190769312Y-102042393D01*
X190939759Y-102023364D01*
X191078254Y-102007493D01*
X191095475Y-102005471D01*
X191207526Y-101993120D01*
X191314226Y-101982808D01*
X191394126Y-101976594D01*
X191399829Y-101976276D01*
X191498018Y-101970308D01*
X191599042Y-101963016D01*
X191606322Y-101962430D01*
X191679579Y-101959819D01*
X191732860Y-101963822D01*
X191741049Y-101966074D01*
X191779156Y-101969246D01*
X191853650Y-101966993D01*
X191950468Y-101959855D01*
X191981843Y-101956834D01*
X192082248Y-101948525D01*
X192164198Y-101945231D01*
X192213817Y-101947397D01*
X192220396Y-101949212D01*
X192258900Y-101954395D01*
X192331531Y-101954353D01*
X192413920Y-101949699D01*
X192526622Y-101943041D01*
X192655031Y-101939184D01*
X192786748Y-101938057D01*
X192909372Y-101939596D01*
X193010507Y-101943731D01*
X193077753Y-101950395D01*
X193091257Y-101953394D01*
X193151202Y-101959814D01*
X193212500Y-101954835D01*
X193271540Y-101952102D01*
X193305699Y-101963445D01*
X193340381Y-101974932D01*
X193407389Y-101980188D01*
X193452513Y-101979645D01*
X193529187Y-101980071D01*
X193583369Y-101987189D01*
X193597283Y-101993554D01*
X193633058Y-102004664D01*
X193674415Y-102002346D01*
X193744777Y-101999799D01*
X193809223Y-102007579D01*
X193883466Y-102023113D01*
X193937663Y-102034314D01*
X193997716Y-102043358D01*
X194078196Y-102051817D01*
X194095752Y-102053248D01*
X194190625Y-102063962D01*
X194312738Y-102082507D01*
X194445581Y-102105857D01*
X194572642Y-102130987D01*
X194677413Y-102154871D01*
X194728770Y-102169268D01*
X194792089Y-102186020D01*
X194833502Y-102189970D01*
X194837084Y-102188956D01*
X194870938Y-102192640D01*
X194928180Y-102213902D01*
X194936410Y-102217723D01*
X194995122Y-102242466D01*
X195032883Y-102252609D01*
X195035087Y-102252468D01*
X195074033Y-102256881D01*
X195142195Y-102273198D01*
X195222167Y-102296225D01*
X195296546Y-102320770D01*
X195347924Y-102341642D01*
X195359779Y-102349326D01*
X195394974Y-102369148D01*
X195458729Y-102391741D01*
X195479389Y-102397557D01*
X195570772Y-102429595D01*
X195685894Y-102480716D01*
X195806280Y-102541748D01*
X195913453Y-102603517D01*
X195967542Y-102639910D01*
X196023327Y-102674665D01*
X196064445Y-102689130D01*
X196067672Y-102688954D01*
X196097152Y-102668033D01*
X196145858Y-102618106D01*
X196194271Y-102560956D01*
X196251550Y-102482282D01*
X196296869Y-102407421D01*
X196315710Y-102365448D01*
X196345869Y-102298012D01*
X196392123Y-102221352D01*
X196404078Y-102204517D01*
X196450788Y-102140073D01*
X196487022Y-102088015D01*
X196493798Y-102077677D01*
X196557031Y-101980319D01*
X196610818Y-101901949D01*
X196649069Y-101851181D01*
X196664567Y-101836188D01*
X196687951Y-101818811D01*
X196737566Y-101775137D01*
X196803162Y-101714221D01*
X196810451Y-101707297D01*
X196878786Y-101644578D01*
X196934180Y-101598002D01*
X196965476Y-101576903D01*
X196966692Y-101576580D01*
X196985908Y-101553510D01*
X196985526Y-101547467D01*
X197002677Y-101523050D01*
X197028080Y-101514172D01*
X197080145Y-101486259D01*
X197099570Y-101462879D01*
X197141617Y-101422437D01*
X197167997Y-101412126D01*
X197217295Y-101384829D01*
X197236371Y-101361463D01*
X197270820Y-101328041D01*
X197336404Y-101283411D01*
X197409942Y-101242033D01*
X197493889Y-101197133D01*
X197563731Y-101156543D01*
X197600245Y-101132066D01*
X197639742Y-101108617D01*
X197714516Y-101071228D01*
X197812958Y-101025517D01*
X197898608Y-100987739D01*
X198178523Y-100887325D01*
X198474293Y-100822366D01*
X198798239Y-100790189D01*
X198812063Y-100789542D01*
X198923699Y-100783424D01*
X199031229Y-100775714D01*
X199110678Y-100768155D01*
X199185973Y-100765798D01*
X199243191Y-100775526D01*
X199253448Y-100780659D01*
X199306945Y-100797299D01*
X199343989Y-100796313D01*
X199405285Y-100802330D01*
X199436216Y-100818739D01*
X199488720Y-100842468D01*
X199516358Y-100843295D01*
X199561623Y-100846579D01*
X199637678Y-100862545D01*
X199718416Y-100884899D01*
X199800867Y-100907972D01*
X199861774Y-100920750D01*
X199887453Y-100920601D01*
X199915385Y-100918067D01*
X199970292Y-100930190D01*
X199973887Y-100931296D01*
X200030417Y-100947479D01*
X200061200Y-100953535D01*
X200061625Y-100953484D01*
X200077005Y-100928313D01*
X200093480Y-100868197D01*
X200108390Y-100788850D01*
X200119077Y-100705987D01*
X200122881Y-100635324D01*
X200120646Y-100604697D01*
X200118368Y-100527607D01*
X200130465Y-100436618D01*
X200136042Y-100413325D01*
X200179186Y-100256552D01*
X200221166Y-100109473D01*
X200258548Y-99983796D01*
X200287900Y-99891227D01*
X200296088Y-99867573D01*
X200327453Y-99790544D01*
X200371059Y-99695971D01*
X200420465Y-99596382D01*
X200469233Y-99504310D01*
X200510919Y-99432283D01*
X200539084Y-99392833D01*
X200540990Y-99391094D01*
X200566577Y-99353797D01*
X200568035Y-99338874D01*
X200574390Y-99309119D01*
X200602031Y-99254395D01*
X200653815Y-99169770D01*
X200732596Y-99050315D01*
X200750938Y-99023148D01*
X200793130Y-98955392D01*
X200819025Y-98903183D01*
X200823263Y-98884799D01*
X200840503Y-98860547D01*
X200867064Y-98851284D01*
X200912546Y-98824158D01*
X200953441Y-98771574D01*
X200983612Y-98721558D01*
X201004290Y-98698177D01*
X201004839Y-98698032D01*
X201028295Y-98681966D01*
X201083356Y-98639561D01*
X201162429Y-98576790D01*
X201257923Y-98499629D01*
X201284690Y-98477795D01*
X201416696Y-98371315D01*
X201522066Y-98291031D01*
X201612499Y-98229805D01*
X201699692Y-98180500D01*
X201795342Y-98135976D01*
X201911149Y-98089096D01*
X201939884Y-98077992D01*
X202048329Y-98041239D01*
X202174178Y-98006318D01*
X202306865Y-97975243D01*
X202435825Y-97950025D01*
X202550491Y-97932675D01*
X202640295Y-97925206D01*
X202694672Y-97929630D01*
X202701642Y-97932933D01*
X202744069Y-97946660D01*
X202790753Y-97943980D01*
X202818515Y-97927530D01*
X202819574Y-97919529D01*
X202797717Y-97898094D01*
X202742750Y-97858513D01*
X202665376Y-97808359D01*
X202642765Y-97794433D01*
X202540978Y-97726702D01*
X202481292Y-97672142D01*
X202458619Y-97627727D01*
X202435882Y-97580244D01*
X202407939Y-97573705D01*
X202367409Y-97571429D01*
X202309768Y-97550503D01*
X202228910Y-97507763D01*
X202118729Y-97440048D01*
X202001941Y-97363483D01*
X201908662Y-97303522D01*
X201829468Y-97256809D01*
X201774666Y-97229191D01*
X201756548Y-97224310D01*
X201719531Y-97213500D01*
X201661891Y-97180255D01*
X201640359Y-97165118D01*
X201562836Y-97116439D01*
X201483845Y-97079219D01*
X201471320Y-97074886D01*
X201405097Y-97049315D01*
X201315539Y-97008958D01*
X201237069Y-96970190D01*
X201146547Y-96925344D01*
X201063474Y-96887520D01*
X201012826Y-96867452D01*
X200945886Y-96840245D01*
X200900802Y-96815428D01*
X200851833Y-96790503D01*
X200778602Y-96762590D01*
X200754503Y-96754828D01*
X200689055Y-96730534D01*
X200649416Y-96707702D01*
X200644483Y-96700709D01*
X200619735Y-96679258D01*
X200594310Y-96672140D01*
X200529280Y-96655206D01*
X200505882Y-96646022D01*
X200448488Y-96625835D01*
X200396787Y-96612407D01*
X200334129Y-96594045D01*
X200249874Y-96563552D01*
X200204395Y-96545207D01*
X200125979Y-96516148D01*
X200062193Y-96499361D01*
X200038789Y-96497550D01*
X199989446Y-96486726D01*
X199944449Y-96460574D01*
X199896164Y-96430601D01*
X199866770Y-96422688D01*
X199833414Y-96418119D01*
X199763222Y-96402433D01*
X199668207Y-96378432D01*
X199608670Y-96362416D01*
X199409289Y-96308058D01*
X199252864Y-96266518D01*
X199133562Y-96236463D01*
X199045549Y-96216559D01*
X198982994Y-96205472D01*
X198940061Y-96201869D01*
X198914463Y-96203728D01*
X198854577Y-96199822D01*
X198810873Y-96185574D01*
X198755314Y-96168627D01*
X198670158Y-96152112D01*
X198597629Y-96142369D01*
X198504333Y-96129261D01*
X198424682Y-96112674D01*
X198385670Y-96100098D01*
X198319863Y-96082829D01*
X198279435Y-96082698D01*
X198223779Y-96080994D01*
X198146251Y-96066926D01*
X198119991Y-96060104D01*
X198046349Y-96042252D01*
X197990868Y-96034005D01*
X197979202Y-96034220D01*
X197941832Y-96033295D01*
X197866101Y-96027025D01*
X197764036Y-96016514D01*
X197677716Y-96006546D01*
X197553545Y-95992199D01*
X197436668Y-95979798D01*
X197343467Y-95971029D01*
X197304225Y-95968124D01*
X197218373Y-95960352D01*
X197112476Y-95946954D01*
X197050732Y-95937546D01*
X196964421Y-95927659D01*
X196895504Y-95927553D01*
X196865785Y-95934339D01*
X196823816Y-95940835D01*
X196808890Y-95931959D01*
X196772430Y-95920885D01*
X196707957Y-95922766D01*
X196687441Y-95925824D01*
X196606421Y-95932373D01*
X196536382Y-95925685D01*
X196527277Y-95923065D01*
X196478372Y-95909069D01*
X196428935Y-95903854D01*
X196361566Y-95906915D01*
X196276214Y-95915759D01*
X196204111Y-95920290D01*
X196154929Y-95916639D01*
X196145558Y-95912646D01*
X196114554Y-95907315D01*
X196044570Y-95905840D01*
X195947278Y-95908251D01*
X195874618Y-95911935D01*
X195762515Y-95917778D01*
X195666900Y-95921066D01*
X195600853Y-95921435D01*
X195580593Y-95920060D01*
X195520864Y-95915586D01*
X195489672Y-95916372D01*
X195447140Y-95919264D01*
X195364279Y-95924861D01*
X195251444Y-95932465D01*
X195118992Y-95941376D01*
X195056362Y-95945587D01*
X194895117Y-95957751D01*
X194726347Y-95972726D01*
X194568434Y-95988748D01*
X194439766Y-96004052D01*
X194422294Y-96006431D01*
X194288764Y-96022518D01*
X194149620Y-96035117D01*
X194028293Y-96042236D01*
X193991811Y-96043088D01*
X193892257Y-96046321D01*
X193825838Y-96059779D01*
X193785720Y-96092084D01*
X193765068Y-96151861D01*
X193757049Y-96247733D01*
X193755287Y-96341552D01*
X193749698Y-96549144D01*
X193736750Y-96720851D01*
X193714859Y-96871261D01*
X193682439Y-97014958D01*
X193681950Y-97016814D01*
X193660026Y-97104444D01*
X193645272Y-97172381D01*
X193640840Y-97206082D01*
X193640865Y-97206229D01*
X193633902Y-97243631D01*
X193610184Y-97316953D01*
X193573924Y-97415845D01*
X193529333Y-97529958D01*
X193480625Y-97648940D01*
X193432013Y-97762442D01*
X193387710Y-97860113D01*
X193351929Y-97931605D01*
X193333411Y-97961573D01*
X193305789Y-98003752D01*
X193262289Y-98077523D01*
X193210702Y-98169530D01*
X193190902Y-98205931D01*
X193096673Y-98368737D01*
X192983368Y-98545510D01*
X192858812Y-98725511D01*
X192730830Y-98897996D01*
X192607247Y-99052228D01*
X192495887Y-99177465D01*
X192449152Y-99224054D01*
X192377616Y-99298160D01*
X192311746Y-99377075D01*
X192289704Y-99407625D01*
X192242952Y-99465457D01*
X192199088Y-99500753D01*
X192188300Y-99504661D01*
X192145080Y-99530319D01*
X192108571Y-99573649D01*
X192065049Y-99629179D01*
X191994891Y-99703866D01*
X191911055Y-99785036D01*
X191826496Y-99860017D01*
X191769690Y-99905089D01*
X191731413Y-99937220D01*
X191674365Y-99989246D01*
X191647212Y-100014983D01*
X191585312Y-100070646D01*
X191498902Y-100143594D01*
X191403959Y-100220424D01*
X191377589Y-100241145D01*
X191289491Y-100311740D01*
X191211567Y-100377562D01*
X191156634Y-100427671D01*
X191144795Y-100439931D01*
X191096227Y-100483414D01*
X191056802Y-100503723D01*
X191019589Y-100521117D01*
X190957108Y-100560573D01*
X190880097Y-100614104D01*
X190799294Y-100673726D01*
X190725432Y-100731454D01*
X190669249Y-100779302D01*
X190641480Y-100809287D01*
X190640277Y-100813510D01*
X190621854Y-100833454D01*
X190586212Y-100844618D01*
X190522224Y-100871507D01*
X190486378Y-100900089D01*
X190430227Y-100940833D01*
X190389944Y-100955781D01*
X190330865Y-100984196D01*
X190304683Y-101010323D01*
X190257286Y-101051015D01*
X190226132Y-101062862D01*
X190179387Y-101079055D01*
X190165009Y-101090508D01*
X190134455Y-101114696D01*
X190069686Y-101155375D01*
X189981924Y-101206316D01*
X189882387Y-101261290D01*
X189782298Y-101314066D01*
X189692874Y-101358413D01*
X189638720Y-101382742D01*
X189562735Y-101418849D01*
X189505694Y-101454236D01*
X189487909Y-101470909D01*
X189445492Y-101501827D01*
X189390963Y-101519626D01*
X189321217Y-101541281D01*
X189275457Y-101566695D01*
X189226125Y-101593566D01*
X189149260Y-101623663D01*
X189102808Y-101638413D01*
X189021632Y-101665358D01*
X188957294Y-101692779D01*
X188936069Y-101705439D01*
X188891243Y-101731933D01*
X188819153Y-101766390D01*
X188774493Y-101785401D01*
X188694948Y-101823672D01*
X188653070Y-101862140D01*
X188638390Y-101900738D01*
X188635501Y-101961524D01*
X188641430Y-102047865D01*
X188653755Y-102142985D01*
X188198550Y-102223249D01*
X188191920Y-102173956D01*
X188171866Y-102017326D01*
X188155056Y-101878379D01*
X188142836Y-101768213D01*
X188136745Y-101700935D01*
X188126813Y-101551906D01*
X188494016Y-101440323D01*
X188744041Y-101357516D01*
X188961470Y-101269834D01*
X189132801Y-101186826D01*
X189352409Y-101071713D01*
X189547591Y-100968688D01*
X189714456Y-100879835D01*
X189849121Y-100807239D01*
X189947696Y-100752988D01*
X190006294Y-100719165D01*
X190016395Y-100712707D01*
X190266017Y-100541786D01*
X190479559Y-100393665D01*
X190663368Y-100263202D01*
X190823790Y-100145256D01*
X190967171Y-100034687D01*
X191099856Y-99926355D01*
X191228193Y-99815116D01*
X191358527Y-99695833D01*
X191497204Y-99563361D01*
X191650572Y-99412562D01*
X191776713Y-99286689D01*
X191890612Y-99166385D01*
X192017289Y-99022297D01*
X192147960Y-98865373D01*
X192273839Y-98706557D01*
X192386137Y-98556797D01*
X192476070Y-98427037D01*
X192509522Y-98373719D01*
X192568094Y-98275605D01*
X192625383Y-98179708D01*
X192669087Y-98106618D01*
X192669450Y-98106012D01*
X192705159Y-98043102D01*
X192741206Y-97971411D01*
X192783459Y-97878543D01*
X192837783Y-97752099D01*
X192844497Y-97736207D01*
X192862282Y-97694726D01*
X192894735Y-97619617D01*
X192936255Y-97523833D01*
X192958489Y-97472638D01*
X193042055Y-97263146D01*
X193116234Y-97043958D01*
X193177432Y-96828006D01*
X193222055Y-96628219D01*
X193246508Y-96457527D01*
X193248603Y-96429017D01*
X193251406Y-96307721D01*
X193248431Y-96158316D01*
X193240362Y-96003078D01*
X193232548Y-95907927D01*
X193221944Y-95788523D01*
X193214870Y-95687084D01*
X193211964Y-95614593D01*
X193213697Y-95582405D01*
X193242814Y-95566104D01*
X193311931Y-95546546D01*
X193410497Y-95525542D01*
X193527966Y-95504901D01*
G37*
X193527966Y-95504901D02*
X193653786Y-95486438D01*
X193777413Y-95471963D01*
X193888295Y-95463285D01*
X193913663Y-95462205D01*
X194009540Y-95456981D01*
X194139099Y-95447113D01*
X194285584Y-95434002D01*
X194432239Y-95419045D01*
X194436772Y-95418549D01*
X194579653Y-95404175D01*
X194719532Y-95392381D01*
X194840973Y-95384330D01*
X194928537Y-95381183D01*
X194933123Y-95381177D01*
X195006661Y-95380065D01*
X195120049Y-95376775D01*
X195262400Y-95371698D01*
X195422830Y-95365221D01*
X195590452Y-95357735D01*
X195597446Y-95357407D01*
X195964356Y-95342965D01*
X196295319Y-95336322D01*
X196604579Y-95337446D01*
X196906381Y-95346303D01*
X197066990Y-95354057D01*
X197182786Y-95360262D01*
X197313614Y-95367143D01*
X197392414Y-95371220D01*
X197507248Y-95379294D01*
X197661114Y-95393315D01*
X197842753Y-95412061D01*
X198040904Y-95434307D01*
X198244309Y-95458832D01*
X198441706Y-95484413D01*
X198470528Y-95488323D01*
X198616817Y-95512667D01*
X198802562Y-95550382D01*
X199018908Y-95599134D01*
X199256996Y-95656587D01*
X199507969Y-95720412D01*
X199762973Y-95788273D01*
X200013152Y-95857836D01*
X200249647Y-95926771D01*
X200463602Y-95992742D01*
X200646163Y-96053416D01*
X200729064Y-96083341D01*
X201014407Y-96197834D01*
X201314957Y-96331972D01*
X201619057Y-96479752D01*
X201915051Y-96635166D01*
X202191285Y-96792212D01*
X202436102Y-96944880D01*
X202544693Y-97018830D01*
X202781149Y-97186329D01*
X202981061Y-97329647D01*
X203149914Y-97453139D01*
X203293190Y-97561158D01*
X203416373Y-97658061D01*
X203524947Y-97748199D01*
X203624396Y-97835931D01*
X203720205Y-97925608D01*
X203817856Y-98021587D01*
X203856445Y-98060474D01*
X203918249Y-98120868D01*
X203975588Y-98173527D01*
X203981336Y-98178499D01*
X204019369Y-98221548D01*
X204030423Y-98253004D01*
X204002895Y-98273649D01*
X203933386Y-98291900D01*
X203830699Y-98306620D01*
X203703638Y-98316671D01*
X203561006Y-98320921D01*
X203505253Y-98320785D01*
X203298079Y-98320007D01*
X203129972Y-98323919D01*
X202989308Y-98333939D01*
X202864461Y-98351487D01*
X202743804Y-98377982D01*
X202615712Y-98414845D01*
X202543417Y-98438213D01*
X202330603Y-98513583D01*
X202157808Y-98586366D01*
X202014830Y-98661607D01*
X201891464Y-98744348D01*
X201837689Y-98786984D01*
X201756683Y-98853792D01*
X201678178Y-98917594D01*
X201635353Y-98951780D01*
X201563913Y-99016496D01*
X201480470Y-99105400D01*
X201391186Y-99210268D01*
X201302222Y-99322877D01*
X201219739Y-99435003D01*
X201149898Y-99538421D01*
X201098860Y-99624906D01*
X201072786Y-99686236D01*
X201071059Y-99705031D01*
X201060460Y-99743290D01*
X201027806Y-99798429D01*
X201022843Y-99805223D01*
X200977658Y-99884915D01*
X200928402Y-100004888D01*
X200878398Y-100155164D01*
X200830967Y-100325764D01*
X200789527Y-100506235D01*
X200765264Y-100635385D01*
X200741977Y-100778779D01*
X200721010Y-100925614D01*
X200703710Y-101065087D01*
X200691420Y-101186399D01*
X200685486Y-101278748D01*
X200686950Y-101329734D01*
X200688204Y-101378706D01*
X200683227Y-101460005D01*
X200673547Y-101552144D01*
X200653403Y-101662476D01*
X200624955Y-101723365D01*
X200585117Y-101735899D01*
X200530801Y-101701165D01*
X200463590Y-101626145D01*
X200381012Y-101536585D01*
X200289274Y-101469467D01*
X200177188Y-101419414D01*
X200033561Y-101381046D01*
X199905163Y-101357769D01*
X199525766Y-101305916D01*
X199185263Y-101278324D01*
X198877299Y-101276157D01*
X198595524Y-101300574D01*
X198333586Y-101352739D01*
X198085132Y-101433812D01*
X197843812Y-101544956D01*
X197603271Y-101687333D01*
X197424857Y-101811409D01*
X197382127Y-101850434D01*
X197321618Y-101914796D01*
X197261868Y-101984099D01*
X197012521Y-102299506D01*
X196805470Y-102590937D01*
X196639386Y-102860451D01*
X196512943Y-103110104D01*
X196472145Y-103207464D01*
X196435198Y-103291858D01*
X196400430Y-103354564D01*
X196374894Y-103383022D01*
X196373340Y-103383465D01*
X196338490Y-103372310D01*
X196275509Y-103337660D01*
X196196889Y-103286523D01*
X196182005Y-103276083D01*
X196101021Y-103225647D01*
X195982349Y-103161011D01*
X195835530Y-103086673D01*
X195670108Y-103007135D01*
X195495626Y-102926898D01*
X195321627Y-102850464D01*
X195157655Y-102782330D01*
X195033164Y-102734261D01*
X194835395Y-102670768D01*
X194598024Y-102610109D01*
X194332245Y-102554536D01*
X194049253Y-102506306D01*
X193760244Y-102467670D01*
X193650923Y-102455949D01*
X193388737Y-102430689D01*
X193166819Y-102411550D01*
X192975045Y-102398203D01*
X192803291Y-102390323D01*
X192641434Y-102387580D01*
X192479353Y-102389651D01*
X192306923Y-102396207D01*
X192120489Y-102406524D01*
X191988647Y-102414129D01*
X191849273Y-102421450D01*
X191729080Y-102427094D01*
X191711576Y-102427824D01*
X191639186Y-102431986D01*
X191524689Y-102440097D01*
X191376567Y-102451483D01*
X191203305Y-102465473D01*
X191013382Y-102481397D01*
X190815283Y-102498582D01*
X190795849Y-102500300D01*
X190579975Y-102519872D01*
X190381703Y-102538980D01*
X190191710Y-102558722D01*
X190000675Y-102580196D01*
X189799279Y-102604501D01*
X189578201Y-102632733D01*
X189328119Y-102665992D01*
X189039714Y-102705374D01*
X188951356Y-102717575D01*
X188871964Y-102729228D01*
X188759978Y-102746525D01*
X188632907Y-102766734D01*
X188553268Y-102779685D01*
X188281069Y-102824380D01*
X188213873Y-102337171D01*
X188198550Y-102223249D01*
X188653755Y-102142985D01*
X188670054Y-102230109D01*
X188687905Y-102292465D01*
X188697492Y-102310107D01*
X188726816Y-102316007D01*
X188796853Y-102311651D01*
X188909932Y-102296743D01*
X189068384Y-102270987D01*
X189224160Y-102243323D01*
X189392864Y-102213410D01*
X189558333Y-102185552D01*
X189708900Y-102161604D01*
X189832893Y-102143426D01*
X189918619Y-102132873D01*
X190042761Y-102120356D01*
X190203640Y-102103563D01*
X190387516Y-102083980D01*
X190580653Y-102063093D01*
X190769312Y-102042393D01*
X190939759Y-102023364D01*
X191078254Y-102007493D01*
X191095475Y-102005471D01*
X191207526Y-101993120D01*
X191314226Y-101982808D01*
X191394126Y-101976594D01*
X191399829Y-101976276D01*
X191498018Y-101970308D01*
X191599042Y-101963016D01*
X191606322Y-101962430D01*
X191679579Y-101959819D01*
X191732860Y-101963822D01*
X191741049Y-101966074D01*
X191779156Y-101969246D01*
X191853650Y-101966993D01*
X191950468Y-101959855D01*
X191981843Y-101956834D01*
X192082248Y-101948525D01*
X192164198Y-101945231D01*
X192213817Y-101947397D01*
X192220396Y-101949212D01*
X192258900Y-101954395D01*
X192331531Y-101954353D01*
X192413920Y-101949699D01*
X192526622Y-101943041D01*
X192655031Y-101939184D01*
X192786748Y-101938057D01*
X192909372Y-101939596D01*
X193010507Y-101943731D01*
X193077753Y-101950395D01*
X193091257Y-101953394D01*
X193151202Y-101959814D01*
X193212500Y-101954835D01*
X193271540Y-101952102D01*
X193305699Y-101963445D01*
X193340381Y-101974932D01*
X193407389Y-101980188D01*
X193452513Y-101979645D01*
X193529187Y-101980071D01*
X193583369Y-101987189D01*
X193597283Y-101993554D01*
X193633058Y-102004664D01*
X193674415Y-102002346D01*
X193744777Y-101999799D01*
X193809223Y-102007579D01*
X193883466Y-102023113D01*
X193937663Y-102034314D01*
X193997716Y-102043358D01*
X194078196Y-102051817D01*
X194095752Y-102053248D01*
X194190625Y-102063962D01*
X194312738Y-102082507D01*
X194445581Y-102105857D01*
X194572642Y-102130987D01*
X194677413Y-102154871D01*
X194728770Y-102169268D01*
X194792089Y-102186020D01*
X194833502Y-102189970D01*
X194837084Y-102188956D01*
X194870938Y-102192640D01*
X194928180Y-102213902D01*
X194936410Y-102217723D01*
X194995122Y-102242466D01*
X195032883Y-102252609D01*
X195035087Y-102252468D01*
X195074033Y-102256881D01*
X195142195Y-102273198D01*
X195222167Y-102296225D01*
X195296546Y-102320770D01*
X195347924Y-102341642D01*
X195359779Y-102349326D01*
X195394974Y-102369148D01*
X195458729Y-102391741D01*
X195479389Y-102397557D01*
X195570772Y-102429595D01*
X195685894Y-102480716D01*
X195806280Y-102541748D01*
X195913453Y-102603517D01*
X195967542Y-102639910D01*
X196023327Y-102674665D01*
X196064445Y-102689130D01*
X196067672Y-102688954D01*
X196097152Y-102668033D01*
X196145858Y-102618106D01*
X196194271Y-102560956D01*
X196251550Y-102482282D01*
X196296869Y-102407421D01*
X196315710Y-102365448D01*
X196345869Y-102298012D01*
X196392123Y-102221352D01*
X196404078Y-102204517D01*
X196450788Y-102140073D01*
X196487022Y-102088015D01*
X196493798Y-102077677D01*
X196557031Y-101980319D01*
X196610818Y-101901949D01*
X196649069Y-101851181D01*
X196664567Y-101836188D01*
X196687951Y-101818811D01*
X196737566Y-101775137D01*
X196803162Y-101714221D01*
X196810451Y-101707297D01*
X196878786Y-101644578D01*
X196934180Y-101598002D01*
X196965476Y-101576903D01*
X196966692Y-101576580D01*
X196985908Y-101553510D01*
X196985526Y-101547467D01*
X197002677Y-101523050D01*
X197028080Y-101514172D01*
X197080145Y-101486259D01*
X197099570Y-101462879D01*
X197141617Y-101422437D01*
X197167997Y-101412126D01*
X197217295Y-101384829D01*
X197236371Y-101361463D01*
X197270820Y-101328041D01*
X197336404Y-101283411D01*
X197409942Y-101242033D01*
X197493889Y-101197133D01*
X197563731Y-101156543D01*
X197600245Y-101132066D01*
X197639742Y-101108617D01*
X197714516Y-101071228D01*
X197812958Y-101025517D01*
X197898608Y-100987739D01*
X198178523Y-100887325D01*
X198474293Y-100822366D01*
X198798239Y-100790189D01*
X198812063Y-100789542D01*
X198923699Y-100783424D01*
X199031229Y-100775714D01*
X199110678Y-100768155D01*
X199185973Y-100765798D01*
X199243191Y-100775526D01*
X199253448Y-100780659D01*
X199306945Y-100797299D01*
X199343989Y-100796313D01*
X199405285Y-100802330D01*
X199436216Y-100818739D01*
X199488720Y-100842468D01*
X199516358Y-100843295D01*
X199561623Y-100846579D01*
X199637678Y-100862545D01*
X199718416Y-100884899D01*
X199800867Y-100907972D01*
X199861774Y-100920750D01*
X199887453Y-100920601D01*
X199915385Y-100918067D01*
X199970292Y-100930190D01*
X199973887Y-100931296D01*
X200030417Y-100947479D01*
X200061200Y-100953535D01*
X200061625Y-100953484D01*
X200077005Y-100928313D01*
X200093480Y-100868197D01*
X200108390Y-100788850D01*
X200119077Y-100705987D01*
X200122881Y-100635324D01*
X200120646Y-100604697D01*
X200118368Y-100527607D01*
X200130465Y-100436618D01*
X200136042Y-100413325D01*
X200179186Y-100256552D01*
X200221166Y-100109473D01*
X200258548Y-99983796D01*
X200287900Y-99891227D01*
X200296088Y-99867573D01*
X200327453Y-99790544D01*
X200371059Y-99695971D01*
X200420465Y-99596382D01*
X200469233Y-99504310D01*
X200510919Y-99432283D01*
X200539084Y-99392833D01*
X200540990Y-99391094D01*
X200566577Y-99353797D01*
X200568035Y-99338874D01*
X200574390Y-99309119D01*
X200602031Y-99254395D01*
X200653815Y-99169770D01*
X200732596Y-99050315D01*
X200750938Y-99023148D01*
X200793130Y-98955392D01*
X200819025Y-98903183D01*
X200823263Y-98884799D01*
X200840503Y-98860547D01*
X200867064Y-98851284D01*
X200912546Y-98824158D01*
X200953441Y-98771574D01*
X200983612Y-98721558D01*
X201004290Y-98698177D01*
X201004839Y-98698032D01*
X201028295Y-98681966D01*
X201083356Y-98639561D01*
X201162429Y-98576790D01*
X201257923Y-98499629D01*
X201284690Y-98477795D01*
X201416696Y-98371315D01*
X201522066Y-98291031D01*
X201612499Y-98229805D01*
X201699692Y-98180500D01*
X201795342Y-98135976D01*
X201911149Y-98089096D01*
X201939884Y-98077992D01*
X202048329Y-98041239D01*
X202174178Y-98006318D01*
X202306865Y-97975243D01*
X202435825Y-97950025D01*
X202550491Y-97932675D01*
X202640295Y-97925206D01*
X202694672Y-97929630D01*
X202701642Y-97932933D01*
X202744069Y-97946660D01*
X202790753Y-97943980D01*
X202818515Y-97927530D01*
X202819574Y-97919529D01*
X202797717Y-97898094D01*
X202742750Y-97858513D01*
X202665376Y-97808359D01*
X202642765Y-97794433D01*
X202540978Y-97726702D01*
X202481292Y-97672142D01*
X202458619Y-97627727D01*
X202435882Y-97580244D01*
X202407939Y-97573705D01*
X202367409Y-97571429D01*
X202309768Y-97550503D01*
X202228910Y-97507763D01*
X202118729Y-97440048D01*
X202001941Y-97363483D01*
X201908662Y-97303522D01*
X201829468Y-97256809D01*
X201774666Y-97229191D01*
X201756548Y-97224310D01*
X201719531Y-97213500D01*
X201661891Y-97180255D01*
X201640359Y-97165118D01*
X201562836Y-97116439D01*
X201483845Y-97079219D01*
X201471320Y-97074886D01*
X201405097Y-97049315D01*
X201315539Y-97008958D01*
X201237069Y-96970190D01*
X201146547Y-96925344D01*
X201063474Y-96887520D01*
X201012826Y-96867452D01*
X200945886Y-96840245D01*
X200900802Y-96815428D01*
X200851833Y-96790503D01*
X200778602Y-96762590D01*
X200754503Y-96754828D01*
X200689055Y-96730534D01*
X200649416Y-96707702D01*
X200644483Y-96700709D01*
X200619735Y-96679258D01*
X200594310Y-96672140D01*
X200529280Y-96655206D01*
X200505882Y-96646022D01*
X200448488Y-96625835D01*
X200396787Y-96612407D01*
X200334129Y-96594045D01*
X200249874Y-96563552D01*
X200204395Y-96545207D01*
X200125979Y-96516148D01*
X200062193Y-96499361D01*
X200038789Y-96497550D01*
X199989446Y-96486726D01*
X199944449Y-96460574D01*
X199896164Y-96430601D01*
X199866770Y-96422688D01*
X199833414Y-96418119D01*
X199763222Y-96402433D01*
X199668207Y-96378432D01*
X199608670Y-96362416D01*
X199409289Y-96308058D01*
X199252864Y-96266518D01*
X199133562Y-96236463D01*
X199045549Y-96216559D01*
X198982994Y-96205472D01*
X198940061Y-96201869D01*
X198914463Y-96203728D01*
X198854577Y-96199822D01*
X198810873Y-96185574D01*
X198755314Y-96168627D01*
X198670158Y-96152112D01*
X198597629Y-96142369D01*
X198504333Y-96129261D01*
X198424682Y-96112674D01*
X198385670Y-96100098D01*
X198319863Y-96082829D01*
X198279435Y-96082698D01*
X198223779Y-96080994D01*
X198146251Y-96066926D01*
X198119991Y-96060104D01*
X198046349Y-96042252D01*
X197990868Y-96034005D01*
X197979202Y-96034220D01*
X197941832Y-96033295D01*
X197866101Y-96027025D01*
X197764036Y-96016514D01*
X197677716Y-96006546D01*
X197553545Y-95992199D01*
X197436668Y-95979798D01*
X197343467Y-95971029D01*
X197304225Y-95968124D01*
X197218373Y-95960352D01*
X197112476Y-95946954D01*
X197050732Y-95937546D01*
X196964421Y-95927659D01*
X196895504Y-95927553D01*
X196865785Y-95934339D01*
X196823816Y-95940835D01*
X196808890Y-95931959D01*
X196772430Y-95920885D01*
X196707957Y-95922766D01*
X196687441Y-95925824D01*
X196606421Y-95932373D01*
X196536382Y-95925685D01*
X196527277Y-95923065D01*
X196478372Y-95909069D01*
X196428935Y-95903854D01*
X196361566Y-95906915D01*
X196276214Y-95915759D01*
X196204111Y-95920290D01*
X196154929Y-95916639D01*
X196145558Y-95912646D01*
X196114554Y-95907315D01*
X196044570Y-95905840D01*
X195947278Y-95908251D01*
X195874618Y-95911935D01*
X195762515Y-95917778D01*
X195666900Y-95921066D01*
X195600853Y-95921435D01*
X195580593Y-95920060D01*
X195520864Y-95915586D01*
X195489672Y-95916372D01*
X195447140Y-95919264D01*
X195364279Y-95924861D01*
X195251444Y-95932465D01*
X195118992Y-95941376D01*
X195056362Y-95945587D01*
X194895117Y-95957751D01*
X194726347Y-95972726D01*
X194568434Y-95988748D01*
X194439766Y-96004052D01*
X194422294Y-96006431D01*
X194288764Y-96022518D01*
X194149620Y-96035117D01*
X194028293Y-96042236D01*
X193991811Y-96043088D01*
X193892257Y-96046321D01*
X193825838Y-96059779D01*
X193785720Y-96092084D01*
X193765068Y-96151861D01*
X193757049Y-96247733D01*
X193755287Y-96341552D01*
X193749698Y-96549144D01*
X193736750Y-96720851D01*
X193714859Y-96871261D01*
X193682439Y-97014958D01*
X193681950Y-97016814D01*
X193660026Y-97104444D01*
X193645272Y-97172381D01*
X193640840Y-97206082D01*
X193640865Y-97206229D01*
X193633902Y-97243631D01*
X193610184Y-97316953D01*
X193573924Y-97415845D01*
X193529333Y-97529958D01*
X193480625Y-97648940D01*
X193432013Y-97762442D01*
X193387710Y-97860113D01*
X193351929Y-97931605D01*
X193333411Y-97961573D01*
X193305789Y-98003752D01*
X193262289Y-98077523D01*
X193210702Y-98169530D01*
X193190902Y-98205931D01*
X193096673Y-98368737D01*
X192983368Y-98545510D01*
X192858812Y-98725511D01*
X192730830Y-98897996D01*
X192607247Y-99052228D01*
X192495887Y-99177465D01*
X192449152Y-99224054D01*
X192377616Y-99298160D01*
X192311746Y-99377075D01*
X192289704Y-99407625D01*
X192242952Y-99465457D01*
X192199088Y-99500753D01*
X192188300Y-99504661D01*
X192145080Y-99530319D01*
X192108571Y-99573649D01*
X192065049Y-99629179D01*
X191994891Y-99703866D01*
X191911055Y-99785036D01*
X191826496Y-99860017D01*
X191769690Y-99905089D01*
X191731413Y-99937220D01*
X191674365Y-99989246D01*
X191647212Y-100014983D01*
X191585312Y-100070646D01*
X191498902Y-100143594D01*
X191403959Y-100220424D01*
X191377589Y-100241145D01*
X191289491Y-100311740D01*
X191211567Y-100377562D01*
X191156634Y-100427671D01*
X191144795Y-100439931D01*
X191096227Y-100483414D01*
X191056802Y-100503723D01*
X191019589Y-100521117D01*
X190957108Y-100560573D01*
X190880097Y-100614104D01*
X190799294Y-100673726D01*
X190725432Y-100731454D01*
X190669249Y-100779302D01*
X190641480Y-100809287D01*
X190640277Y-100813510D01*
X190621854Y-100833454D01*
X190586212Y-100844618D01*
X190522224Y-100871507D01*
X190486378Y-100900089D01*
X190430227Y-100940833D01*
X190389944Y-100955781D01*
X190330865Y-100984196D01*
X190304683Y-101010323D01*
X190257286Y-101051015D01*
X190226132Y-101062862D01*
X190179387Y-101079055D01*
X190165009Y-101090508D01*
X190134455Y-101114696D01*
X190069686Y-101155375D01*
X189981924Y-101206316D01*
X189882387Y-101261290D01*
X189782298Y-101314066D01*
X189692874Y-101358413D01*
X189638720Y-101382742D01*
X189562735Y-101418849D01*
X189505694Y-101454236D01*
X189487909Y-101470909D01*
X189445492Y-101501827D01*
X189390963Y-101519626D01*
X189321217Y-101541281D01*
X189275457Y-101566695D01*
X189226125Y-101593566D01*
X189149260Y-101623663D01*
X189102808Y-101638413D01*
X189021632Y-101665358D01*
X188957294Y-101692779D01*
X188936069Y-101705439D01*
X188891243Y-101731933D01*
X188819153Y-101766390D01*
X188774493Y-101785401D01*
X188694948Y-101823672D01*
X188653070Y-101862140D01*
X188638390Y-101900738D01*
X188635501Y-101961524D01*
X188641430Y-102047865D01*
X188653755Y-102142985D01*
X188198550Y-102223249D01*
X188191920Y-102173956D01*
X188171866Y-102017326D01*
X188155056Y-101878379D01*
X188142836Y-101768213D01*
X188136745Y-101700935D01*
X188126813Y-101551906D01*
X188494016Y-101440323D01*
X188744041Y-101357516D01*
X188961470Y-101269834D01*
X189132801Y-101186826D01*
X189352409Y-101071713D01*
X189547591Y-100968688D01*
X189714456Y-100879835D01*
X189849121Y-100807239D01*
X189947696Y-100752988D01*
X190006294Y-100719165D01*
X190016395Y-100712707D01*
X190266017Y-100541786D01*
X190479559Y-100393665D01*
X190663368Y-100263202D01*
X190823790Y-100145256D01*
X190967171Y-100034687D01*
X191099856Y-99926355D01*
X191228193Y-99815116D01*
X191358527Y-99695833D01*
X191497204Y-99563361D01*
X191650572Y-99412562D01*
X191776713Y-99286689D01*
X191890612Y-99166385D01*
X192017289Y-99022297D01*
X192147960Y-98865373D01*
X192273839Y-98706557D01*
X192386137Y-98556797D01*
X192476070Y-98427037D01*
X192509522Y-98373719D01*
X192568094Y-98275605D01*
X192625383Y-98179708D01*
X192669087Y-98106618D01*
X192669450Y-98106012D01*
X192705159Y-98043102D01*
X192741206Y-97971411D01*
X192783459Y-97878543D01*
X192837783Y-97752099D01*
X192844497Y-97736207D01*
X192862282Y-97694726D01*
X192894735Y-97619617D01*
X192936255Y-97523833D01*
X192958489Y-97472638D01*
X193042055Y-97263146D01*
X193116234Y-97043958D01*
X193177432Y-96828006D01*
X193222055Y-96628219D01*
X193246508Y-96457527D01*
X193248603Y-96429017D01*
X193251406Y-96307721D01*
X193248431Y-96158316D01*
X193240362Y-96003078D01*
X193232548Y-95907927D01*
X193221944Y-95788523D01*
X193214870Y-95687084D01*
X193211964Y-95614593D01*
X193213697Y-95582405D01*
X193242814Y-95566104D01*
X193311931Y-95546546D01*
X193410497Y-95525542D01*
X193527966Y-95504901D01*
G36*
X180769646Y-98053092D02*
G01*
X180783407Y-98145497D01*
X180797335Y-98222014D01*
X180814758Y-98292228D01*
X180839009Y-98365726D01*
X180873419Y-98452095D01*
X180921315Y-98560921D01*
X180986030Y-98701789D01*
X181021625Y-98778401D01*
X181138696Y-98993454D01*
X181294311Y-99221890D01*
X181481549Y-99454432D01*
X181693487Y-99681801D01*
X181702223Y-99690502D01*
X181806552Y-99787987D01*
X181936226Y-99899838D01*
X182081494Y-100018519D01*
X182232607Y-100136495D01*
X182379814Y-100246229D01*
X182513368Y-100340185D01*
X182623518Y-100410827D01*
X182662784Y-100432966D01*
X182768053Y-100490882D01*
X182879544Y-100555793D01*
X182941342Y-100593692D01*
X183124931Y-100702579D01*
X183307982Y-100794455D01*
X183510626Y-100878946D01*
X183631397Y-100923502D01*
X183754718Y-100968382D01*
X183872408Y-101012843D01*
X183969078Y-101050989D01*
X184018660Y-101071963D01*
X184087842Y-101098579D01*
X184196654Y-101135057D01*
X184335519Y-101178636D01*
X184494861Y-101226549D01*
X184665102Y-101276037D01*
X184836666Y-101324335D01*
X184999978Y-101368682D01*
X185145459Y-101406313D01*
X185263534Y-101434467D01*
X185307384Y-101443749D01*
X185412525Y-101465621D01*
X185506250Y-101486925D01*
X185570915Y-101503616D01*
X185578196Y-101505846D01*
X185694322Y-101535631D01*
X185856649Y-101565748D01*
X186060587Y-101595537D01*
X186301548Y-101624342D01*
X186574939Y-101651500D01*
X186623420Y-101655829D01*
X186685910Y-101661115D01*
X186747754Y-101665742D01*
X186817825Y-101670203D01*
X186905003Y-101674992D01*
X187018164Y-101680606D01*
X187166183Y-101687537D01*
X187313682Y-101694273D01*
X187401229Y-101698404D01*
X187469558Y-101705748D01*
X187522242Y-101722124D01*
X187562856Y-101753354D01*
X187594974Y-101805258D01*
X187622171Y-101883657D01*
X187648022Y-101994373D01*
X187676102Y-102143225D01*
X187709983Y-102336035D01*
X187710857Y-102341016D01*
X187742590Y-102524245D01*
X187765661Y-102664368D01*
X187780760Y-102768216D01*
X187788580Y-102842614D01*
X187789812Y-102894391D01*
X187785146Y-102930373D01*
X187775275Y-102957387D01*
X187773608Y-102960668D01*
X187739268Y-103026428D01*
X187495634Y-103026510D01*
X187332971Y-103034355D01*
X187128062Y-103057025D01*
X186886882Y-103093358D01*
X186615404Y-103142197D01*
X186319602Y-103202380D01*
X186005448Y-103272748D01*
X185678919Y-103352142D01*
X185345988Y-103439401D01*
X185289936Y-103454727D01*
X184963639Y-103545387D01*
X184678816Y-103626816D01*
X184427566Y-103701749D01*
X184201993Y-103772921D01*
X183994199Y-103843069D01*
X183796284Y-103914926D01*
X183600352Y-103991230D01*
X183398505Y-104074714D01*
X183182843Y-104168116D01*
X183017194Y-104241867D01*
X182871457Y-104306835D01*
X182727665Y-104370095D01*
X182598251Y-104426237D01*
X182495647Y-104469848D01*
X182454288Y-104486879D01*
X182331815Y-104539835D01*
X182202220Y-104601751D01*
X182081457Y-104664539D01*
X181985486Y-104720112D01*
X181957093Y-104738875D01*
X181920790Y-104763992D01*
X181851024Y-104811938D01*
X181756278Y-104876895D01*
X181645040Y-104953041D01*
X181583072Y-104995418D01*
X181430971Y-105103366D01*
X181292857Y-105211101D01*
X181162618Y-105324898D01*
X181034146Y-105451032D01*
X180901332Y-105595777D01*
X180758067Y-105765408D01*
X180598240Y-105966200D01*
X180450239Y-106158898D01*
X180403534Y-106216393D01*
X180368169Y-106252769D01*
X180358431Y-106258910D01*
X180328654Y-106247036D01*
X180274942Y-106213316D01*
X180248517Y-106194467D01*
X180171041Y-106127720D01*
X180097558Y-106050007D01*
X180086301Y-106036079D01*
X180033267Y-105969497D01*
X179986646Y-105913446D01*
X179975916Y-105901217D01*
X179861576Y-105777561D01*
X179766715Y-105681783D01*
X179696853Y-105619415D01*
X179687802Y-105612490D01*
X179616396Y-105563925D01*
X179519927Y-105504034D01*
X179407296Y-105437701D01*
X179287403Y-105369816D01*
X179169151Y-105305265D01*
X179061441Y-105248933D01*
X178973175Y-105205708D01*
X178913255Y-105180477D01*
X178892962Y-105176136D01*
X178865577Y-105169399D01*
X178802308Y-105149813D01*
X178715271Y-105121173D01*
X178687062Y-105111630D01*
X178391203Y-105033784D01*
X178085575Y-104999384D01*
X177765428Y-105008407D01*
X177426013Y-105060829D01*
X177242380Y-105104688D01*
X177099875Y-105145674D01*
X176959930Y-105191507D01*
X176838629Y-105236615D01*
X176757380Y-105272657D01*
X176636250Y-105342188D01*
X176493686Y-105435818D01*
X176342039Y-105544282D01*
X176193660Y-105658320D01*
X176060900Y-105768669D01*
X175956111Y-105866066D01*
X175931136Y-105892289D01*
X175862964Y-105960835D01*
X175802473Y-106011042D01*
X175761356Y-106033374D01*
X175757666Y-106033732D01*
X175720011Y-106011092D01*
X175677000Y-105942468D01*
X175652521Y-105889258D01*
X175607184Y-105785852D01*
X175558749Y-105679099D01*
X175534105Y-105626538D01*
X175489993Y-105528450D01*
X175444399Y-105418379D01*
X175427457Y-105374528D01*
X175347936Y-105202484D01*
X175231859Y-105009377D01*
X175084558Y-104802885D01*
X174911364Y-104590686D01*
X174789339Y-104455372D01*
X174642530Y-104305982D01*
X174507855Y-104187585D01*
X174369659Y-104088649D01*
X174212290Y-103997638D01*
X174074743Y-103928827D01*
X173873414Y-103837923D01*
X173702245Y-103773361D01*
X173550331Y-103731579D01*
X173406767Y-103709016D01*
X173399919Y-103708357D01*
X173292376Y-103696143D01*
X173181709Y-103680359D01*
X173141891Y-103673622D01*
X173086570Y-103667187D01*
X173019059Y-103667353D01*
X172931099Y-103674975D01*
X172814424Y-103690905D01*
X172660774Y-103715993D01*
X172559271Y-103733693D01*
X172383860Y-103765563D01*
X172246060Y-103793204D01*
X172133251Y-103820003D01*
X172032819Y-103849340D01*
X171932144Y-103884602D01*
X171818611Y-103929171D01*
X171795827Y-103938446D01*
X171677601Y-103986189D01*
X171573096Y-104027353D01*
X171493081Y-104057766D01*
X171448324Y-104073258D01*
X171446508Y-104073749D01*
X171399461Y-104071205D01*
X171385118Y-104033708D01*
X171403416Y-103965127D01*
X171449715Y-103876766D01*
X171507427Y-103777528D01*
X171565099Y-103671328D01*
X171592085Y-103618166D01*
X171679794Y-103439549D01*
X171695814Y-103407755D01*
X172426124Y-103278981D01*
X172451365Y-103292618D01*
X172502693Y-103271552D01*
X172533599Y-103249375D01*
X172606306Y-103212660D01*
X172716531Y-103182025D01*
X172851206Y-103158870D01*
X172997266Y-103144599D01*
X173141642Y-103140614D01*
X173271270Y-103148319D01*
X173348271Y-103161926D01*
X173402478Y-103169655D01*
X173486555Y-103175493D01*
X173557386Y-103177691D01*
X173650467Y-103182285D01*
X173729843Y-103191933D01*
X173767855Y-103201141D01*
X173819821Y-103217234D01*
X173903655Y-103239234D01*
X174001535Y-103262472D01*
X174004932Y-103263236D01*
X174097036Y-103286468D01*
X174169775Y-103309537D01*
X174208602Y-103327773D01*
X174209977Y-103329062D01*
X174244447Y-103352462D01*
X174309855Y-103387413D01*
X174373473Y-103417768D01*
X174548310Y-103508261D01*
X174729867Y-103620949D01*
X174891901Y-103739378D01*
X174909904Y-103754121D01*
X174976175Y-103811840D01*
X175057498Y-103886447D01*
X175144873Y-103969203D01*
X175229303Y-104051371D01*
X175301790Y-104124211D01*
X175353337Y-104178988D01*
X175373940Y-104204771D01*
X175400378Y-104237899D01*
X175449730Y-104290246D01*
X175477725Y-104317978D01*
X175530942Y-104374577D01*
X175565393Y-104420781D01*
X175571614Y-104434988D01*
X175589142Y-104471869D01*
X175628123Y-104532531D01*
X175659951Y-104576741D01*
X175714692Y-104655984D01*
X175779076Y-104758327D01*
X175839293Y-104861809D01*
X175840063Y-104863201D01*
X175913655Y-104993846D01*
X175968881Y-105083846D01*
X176010230Y-105137926D01*
X176042190Y-105160813D01*
X176069248Y-105157229D01*
X176095620Y-105132238D01*
X176129268Y-105105938D01*
X176189906Y-105069380D01*
X176216504Y-105055090D01*
X176283367Y-105014606D01*
X176330553Y-104975613D01*
X176339097Y-104964509D01*
X176378772Y-104931921D01*
X176431430Y-104913791D01*
X176486211Y-104896643D01*
X176511961Y-104876184D01*
X176539539Y-104851335D01*
X176601000Y-104813392D01*
X176683536Y-104769286D01*
X176774344Y-104725947D01*
X176842932Y-104697037D01*
X177116701Y-104605852D01*
X177404876Y-104542556D01*
X177559658Y-104519880D01*
X177792998Y-104493529D01*
X177987621Y-104479105D01*
X178154254Y-104476892D01*
X178303628Y-104487170D01*
X178446470Y-104510223D01*
X178593510Y-104546332D01*
X178596514Y-104547175D01*
X178676338Y-104567583D01*
X178737128Y-104579461D01*
X178758795Y-104580789D01*
X178803072Y-104586038D01*
X178880767Y-104607666D01*
X178981864Y-104641676D01*
X179096340Y-104684073D01*
X179214178Y-104730858D01*
X179325356Y-104778037D01*
X179419858Y-104821611D01*
X179487662Y-104857586D01*
X179518749Y-104881964D01*
X179519607Y-104884256D01*
X179544576Y-104905476D01*
X179574961Y-104913581D01*
X179622447Y-104932219D01*
X179699093Y-104975534D01*
X179794438Y-105036410D01*
X179898019Y-105107733D01*
X179999371Y-105182390D01*
X180088034Y-105253266D01*
X180132722Y-105292826D01*
X180232377Y-105379786D01*
X180303973Y-105427461D01*
X180341156Y-105436617D01*
X180371829Y-105420398D01*
X180420483Y-105386150D01*
X180471544Y-105339214D01*
X180535320Y-105270252D01*
X180574294Y-105223622D01*
X180671114Y-105105853D01*
X180742751Y-105027335D01*
X180792227Y-104985073D01*
X180822567Y-104976070D01*
X180823762Y-104976488D01*
X180853201Y-104964624D01*
X180904583Y-104923319D01*
X180965270Y-104863086D01*
X181027414Y-104799072D01*
X181077985Y-104752420D01*
X181105056Y-104733736D01*
X181139506Y-104716577D01*
X181196685Y-104679798D01*
X181221436Y-104662396D01*
X181282024Y-104621102D01*
X181326242Y-104595210D01*
X181335421Y-104591588D01*
X181367018Y-104574289D01*
X181426499Y-104534019D01*
X181501953Y-104479383D01*
X181581466Y-104418983D01*
X181646488Y-104366940D01*
X181700758Y-104329817D01*
X181740119Y-104312855D01*
X181779427Y-104297023D01*
X181848200Y-104262297D01*
X181932305Y-104215858D01*
X181941330Y-104210663D01*
X182034197Y-104157787D01*
X182120581Y-104109933D01*
X182181878Y-104077405D01*
X182182174Y-104077257D01*
X182232910Y-104044423D01*
X182254751Y-104015567D01*
X182254668Y-104013005D01*
X182271816Y-103995557D01*
X182304888Y-103994791D01*
X182368961Y-103979405D01*
X182399364Y-103950950D01*
X182444957Y-103914841D01*
X182481860Y-103908103D01*
X182527387Y-103899135D01*
X182591489Y-103866775D01*
X182617800Y-103849219D01*
X182678239Y-103810565D01*
X182722554Y-103791029D01*
X182732703Y-103790676D01*
X182765535Y-103785116D01*
X182828725Y-103761905D01*
X182893163Y-103733239D01*
X182975145Y-103696476D01*
X183043677Y-103669737D01*
X183075884Y-103660509D01*
X183111457Y-103645200D01*
X183116230Y-103633350D01*
X183135961Y-103615895D01*
X183189415Y-103598345D01*
X183206147Y-103594768D01*
X183281436Y-103574510D01*
X183377935Y-103541123D01*
X183448026Y-103513057D01*
X183526971Y-103481663D01*
X183586280Y-103462667D01*
X183611444Y-103459972D01*
X183641517Y-103456053D01*
X183694618Y-103432374D01*
X183700459Y-103429166D01*
X183781553Y-103400166D01*
X183826173Y-103404784D01*
X183882892Y-103405442D01*
X183927947Y-103374748D01*
X183979536Y-103342060D01*
X184060148Y-103307066D01*
X184125251Y-103285472D01*
X184222328Y-103257523D01*
X184313688Y-103231064D01*
X184358381Y-103218026D01*
X184536533Y-103166786D01*
X184671687Y-103130337D01*
X184769015Y-103107334D01*
X184818924Y-103098292D01*
X184877929Y-103082150D01*
X184909829Y-103059048D01*
X184910125Y-103058359D01*
X184939144Y-103039957D01*
X185004408Y-103018949D01*
X185091865Y-102999845D01*
X185093002Y-102999644D01*
X185201751Y-102975513D01*
X185260702Y-102950326D01*
X185271714Y-102935893D01*
X185284929Y-102914570D01*
X185306288Y-102929466D01*
X185345784Y-102941666D01*
X185407257Y-102920660D01*
X185479268Y-102898839D01*
X185514452Y-102908320D01*
X185547499Y-102916547D01*
X185563849Y-102892271D01*
X185589658Y-102865274D01*
X185617485Y-102873427D01*
X185663940Y-102880084D01*
X185735936Y-102872266D01*
X185766351Y-102865470D01*
X185940244Y-102821338D01*
X186112639Y-102779513D01*
X186298212Y-102736560D01*
X186511638Y-102689042D01*
X186633279Y-102662520D01*
X186776520Y-102631389D01*
X186907155Y-102602871D01*
X187014974Y-102579207D01*
X187089764Y-102562634D01*
X187115274Y-102556853D01*
X187187379Y-102540078D01*
X187146575Y-102340938D01*
X187121883Y-102238578D01*
X187095786Y-102160215D01*
X187072509Y-102118279D01*
X187070273Y-102116401D01*
X187027285Y-102103371D01*
X186943469Y-102092327D01*
X186828781Y-102084012D01*
X186693177Y-102079172D01*
X186562283Y-102078396D01*
X186499541Y-102073378D01*
X186461679Y-102060270D01*
X186460667Y-102059258D01*
X186425943Y-102049781D01*
X186365016Y-102053250D01*
X186358396Y-102054350D01*
X186295424Y-102058504D01*
X186255640Y-102048596D01*
X186253929Y-102046978D01*
X186214857Y-102032068D01*
X186186380Y-102033097D01*
X186132209Y-102034981D01*
X186053915Y-102029581D01*
X186025480Y-102026159D01*
X185933626Y-102014207D01*
X185822969Y-102000479D01*
X185760871Y-101993056D01*
X185677648Y-101980824D01*
X185616353Y-101967233D01*
X185593654Y-101957539D01*
X185558995Y-101942933D01*
X185505762Y-101934746D01*
X185430449Y-101925185D01*
X185345190Y-101908789D01*
X185339511Y-101907468D01*
X185247891Y-101885811D01*
X185158211Y-101864581D01*
X185156925Y-101864276D01*
X185089819Y-101851494D01*
X185042910Y-101848011D01*
X185039757Y-101848400D01*
X184997408Y-101844987D01*
X184920640Y-101829725D01*
X184823529Y-101805894D01*
X184720149Y-101776776D01*
X184682512Y-101765123D01*
X184603559Y-101740709D01*
X184511552Y-101713233D01*
X184491803Y-101707471D01*
X184320169Y-101656897D01*
X184191115Y-101616850D01*
X184098050Y-101585089D01*
X184034381Y-101559377D01*
X183996219Y-101539216D01*
X183933178Y-101513723D01*
X183885116Y-101510366D01*
X183830845Y-101505889D01*
X183756656Y-101483808D01*
X183730759Y-101473103D01*
X183663123Y-101445758D01*
X183614491Y-101431485D01*
X183604549Y-101430878D01*
X183570099Y-101421534D01*
X183511215Y-101393239D01*
X183487045Y-101379641D01*
X183409827Y-101339208D01*
X183337708Y-101308792D01*
X183324607Y-101304565D01*
X183250147Y-101277739D01*
X183155356Y-101237136D01*
X183064405Y-101193466D01*
X183022506Y-101170699D01*
X182968837Y-101145769D01*
X182924131Y-101129567D01*
X182867441Y-101106631D01*
X182788146Y-101068710D01*
X182735717Y-101041360D01*
X182649967Y-100998203D01*
X182569804Y-100963110D01*
X182533947Y-100950296D01*
X182474098Y-100922472D01*
X182439489Y-100889797D01*
X182403561Y-100856141D01*
X182341327Y-100823242D01*
X182329824Y-100818801D01*
X182276554Y-100792571D01*
X182196929Y-100744693D01*
X182097481Y-100679935D01*
X181984743Y-100603065D01*
X181865249Y-100518852D01*
X181745531Y-100432062D01*
X181632122Y-100347465D01*
X181531553Y-100269828D01*
X181450361Y-100203919D01*
X181395075Y-100154506D01*
X181372230Y-100126357D01*
X181374805Y-100121781D01*
X181371243Y-100106587D01*
X181333086Y-100071743D01*
X181268766Y-100024601D01*
X181245628Y-100009160D01*
X181197864Y-99971444D01*
X181175664Y-99941492D01*
X181154022Y-99908326D01*
X181119996Y-99876835D01*
X181067362Y-99827469D01*
X180997909Y-99750684D01*
X180919025Y-99656079D01*
X180838099Y-99553253D01*
X180762524Y-99451806D01*
X180699688Y-99361339D01*
X180656980Y-99291451D01*
X180642143Y-99256108D01*
X180621654Y-99205352D01*
X180605363Y-99180295D01*
X180569115Y-99123237D01*
X180525434Y-99041101D01*
X180483082Y-98952088D01*
X180450819Y-98874393D01*
X180438257Y-98833167D01*
X180421879Y-98782423D01*
X180389416Y-98705516D01*
X180357058Y-98637664D01*
X180285615Y-98495510D01*
X180125350Y-98528349D01*
X179933210Y-98569308D01*
X179729227Y-98615593D01*
X179520960Y-98665232D01*
X179315967Y-98716256D01*
X179121809Y-98766695D01*
X178946043Y-98814581D01*
X178796229Y-98857944D01*
X178679925Y-98894812D01*
X178604691Y-98923218D01*
X178598023Y-98926331D01*
X178530393Y-98952887D01*
X178452024Y-98975962D01*
X178357590Y-99001955D01*
X178237807Y-99039689D01*
X178104932Y-99084762D01*
X177971218Y-99132771D01*
X177848920Y-99179309D01*
X177750295Y-99219975D01*
X177687598Y-99250363D01*
X177686281Y-99251142D01*
X177633195Y-99274492D01*
X177600095Y-99277111D01*
X177562063Y-99281015D01*
X177503760Y-99304191D01*
X177497946Y-99307181D01*
X177431818Y-99339945D01*
X177342362Y-99381819D01*
X177277812Y-99410905D01*
X177188240Y-99451297D01*
X177072905Y-99504400D01*
X176951851Y-99560957D01*
X176908139Y-99581611D01*
X176804907Y-99629714D01*
X176713898Y-99670579D01*
X176648232Y-99698386D01*
X176627564Y-99706040D01*
X176568164Y-99737092D01*
X176540883Y-99761209D01*
X176498763Y-99789442D01*
X176426794Y-99819597D01*
X176379161Y-99834439D01*
X176297865Y-99863184D01*
X176234112Y-99897412D01*
X176213553Y-99915453D01*
X176169536Y-99948774D01*
X176138345Y-99953618D01*
X176094386Y-99966425D01*
X176075690Y-99987329D01*
X176037156Y-100026105D01*
X176015059Y-100035176D01*
X175974969Y-100053275D01*
X175911624Y-100092790D01*
X175864502Y-100126203D01*
X175793163Y-100174915D01*
X175732099Y-100209080D01*
X175706230Y-100218590D01*
X175665837Y-100233140D01*
X175600553Y-100268073D01*
X175506514Y-100325770D01*
X175379854Y-100408618D01*
X175216709Y-100519000D01*
X175193432Y-100534939D01*
X175113985Y-100584786D01*
X175036866Y-100626054D01*
X175013238Y-100636518D01*
X174951965Y-100670397D01*
X174913118Y-100708284D01*
X174880884Y-100745559D01*
X174864208Y-100753938D01*
X174832523Y-100772182D01*
X174777383Y-100814569D01*
X174730042Y-100854971D01*
X174666295Y-100908510D01*
X174615686Y-100945538D01*
X174595007Y-100956157D01*
X174562429Y-100976430D01*
X174513447Y-101021292D01*
X174497738Y-101037788D01*
X174443792Y-101088310D01*
X174397457Y-101118664D01*
X174388427Y-101121542D01*
X174344191Y-101147706D01*
X174325552Y-101171316D01*
X174290172Y-101210244D01*
X174269632Y-101219864D01*
X174231564Y-101244634D01*
X174213965Y-101267970D01*
X174179684Y-101308002D01*
X174120775Y-101360457D01*
X174089318Y-101384920D01*
X174022241Y-101440327D01*
X173969525Y-101493791D01*
X173955810Y-101512024D01*
X173914590Y-101556622D01*
X173883004Y-101573056D01*
X173846932Y-101594642D01*
X173788750Y-101643821D01*
X173720348Y-101710444D01*
X173712738Y-101718372D01*
X173631994Y-101801612D01*
X173532676Y-101901895D01*
X173432821Y-102001052D01*
X173406111Y-102027225D01*
X173321321Y-102113295D01*
X173243960Y-102197634D01*
X173186204Y-102266744D01*
X173170151Y-102288831D01*
X173126992Y-102345636D01*
X173091143Y-102379697D01*
X173082968Y-102383403D01*
X173057675Y-102405154D01*
X173011699Y-102459796D01*
X172952587Y-102537989D01*
X172912826Y-102593946D01*
X172847228Y-102682802D01*
X172787225Y-102754143D01*
X172741334Y-102798316D01*
X172724197Y-102807749D01*
X172684841Y-102838739D01*
X172665522Y-102895471D01*
X172651234Y-102951519D01*
X172634315Y-102978277D01*
X172633478Y-102978497D01*
X172607795Y-102998081D01*
X172560751Y-103045412D01*
X172514983Y-103096110D01*
X172457129Y-103174103D01*
X172427778Y-103237268D01*
X172426124Y-103278981D01*
X171695814Y-103407755D01*
X171751643Y-103296961D01*
X171813154Y-103180349D01*
X171869842Y-103079661D01*
X171927231Y-102984842D01*
X171990840Y-102885840D01*
X172010791Y-102855586D01*
X172081170Y-102748070D01*
X172144869Y-102648516D01*
X172194391Y-102568772D01*
X172220419Y-102524155D01*
X172260296Y-102462782D01*
X172320487Y-102384221D01*
X172372308Y-102323272D01*
X172446641Y-102236274D01*
X172530544Y-102132104D01*
X172596859Y-102045321D01*
X172674649Y-101946493D01*
X172762792Y-101844172D01*
X172832156Y-101770756D01*
X172912074Y-101689622D01*
X172992111Y-101605015D01*
X173038852Y-101553394D01*
X173183089Y-101400194D01*
X173362772Y-101227604D01*
X173569891Y-101042547D01*
X173796438Y-100851947D01*
X174034403Y-100662726D01*
X174275778Y-100481809D01*
X174292155Y-100469953D01*
X174519280Y-100306019D01*
X174710954Y-100168233D01*
X174872875Y-100052958D01*
X175010737Y-99956549D01*
X175130238Y-99875367D01*
X175237076Y-99805772D01*
X175336947Y-99744121D01*
X175435547Y-99686773D01*
X175538574Y-99630088D01*
X175651722Y-99570426D01*
X175780692Y-99504143D01*
X175891547Y-99447736D01*
X176159150Y-99312684D01*
X176389430Y-99198680D01*
X176589650Y-99102422D01*
X176767070Y-99020610D01*
X176928953Y-98949941D01*
X177082562Y-98887116D01*
X177235156Y-98828833D01*
X177324221Y-98796465D01*
X177473791Y-98742397D01*
X177619377Y-98688725D01*
X177748819Y-98640007D01*
X177849959Y-98600797D01*
X177892762Y-98583412D01*
X177980791Y-98549254D01*
X178100873Y-98506459D01*
X178236352Y-98460812D01*
X178354530Y-98423048D01*
X178488207Y-98381189D01*
X178619728Y-98339311D01*
X178733071Y-98302553D01*
X178806130Y-98278155D01*
X178911569Y-98242019D01*
X179034265Y-98200052D01*
X179122349Y-98169975D01*
X179219562Y-98140042D01*
X179356229Y-98102414D01*
X179522027Y-98059572D01*
X179706641Y-98013998D01*
X179899749Y-97968173D01*
X180091035Y-97924577D01*
X180270179Y-97885692D01*
X180426862Y-97853999D01*
X180470832Y-97845733D01*
X180733158Y-97797593D01*
X180769646Y-98053092D01*
G37*
X180769646Y-98053092D02*
X180783407Y-98145497D01*
X180797335Y-98222014D01*
X180814758Y-98292228D01*
X180839009Y-98365726D01*
X180873419Y-98452095D01*
X180921315Y-98560921D01*
X180986030Y-98701789D01*
X181021625Y-98778401D01*
X181138696Y-98993454D01*
X181294311Y-99221890D01*
X181481549Y-99454432D01*
X181693487Y-99681801D01*
X181702223Y-99690502D01*
X181806552Y-99787987D01*
X181936226Y-99899838D01*
X182081494Y-100018519D01*
X182232607Y-100136495D01*
X182379814Y-100246229D01*
X182513368Y-100340185D01*
X182623518Y-100410827D01*
X182662784Y-100432966D01*
X182768053Y-100490882D01*
X182879544Y-100555793D01*
X182941342Y-100593692D01*
X183124931Y-100702579D01*
X183307982Y-100794455D01*
X183510626Y-100878946D01*
X183631397Y-100923502D01*
X183754718Y-100968382D01*
X183872408Y-101012843D01*
X183969078Y-101050989D01*
X184018660Y-101071963D01*
X184087842Y-101098579D01*
X184196654Y-101135057D01*
X184335519Y-101178636D01*
X184494861Y-101226549D01*
X184665102Y-101276037D01*
X184836666Y-101324335D01*
X184999978Y-101368682D01*
X185145459Y-101406313D01*
X185263534Y-101434467D01*
X185307384Y-101443749D01*
X185412525Y-101465621D01*
X185506250Y-101486925D01*
X185570915Y-101503616D01*
X185578196Y-101505846D01*
X185694322Y-101535631D01*
X185856649Y-101565748D01*
X186060587Y-101595537D01*
X186301548Y-101624342D01*
X186574939Y-101651500D01*
X186623420Y-101655829D01*
X186685910Y-101661115D01*
X186747754Y-101665742D01*
X186817825Y-101670203D01*
X186905003Y-101674992D01*
X187018164Y-101680606D01*
X187166183Y-101687537D01*
X187313682Y-101694273D01*
X187401229Y-101698404D01*
X187469558Y-101705748D01*
X187522242Y-101722124D01*
X187562856Y-101753354D01*
X187594974Y-101805258D01*
X187622171Y-101883657D01*
X187648022Y-101994373D01*
X187676102Y-102143225D01*
X187709983Y-102336035D01*
X187710857Y-102341016D01*
X187742590Y-102524245D01*
X187765661Y-102664368D01*
X187780760Y-102768216D01*
X187788580Y-102842614D01*
X187789812Y-102894391D01*
X187785146Y-102930373D01*
X187775275Y-102957387D01*
X187773608Y-102960668D01*
X187739268Y-103026428D01*
X187495634Y-103026510D01*
X187332971Y-103034355D01*
X187128062Y-103057025D01*
X186886882Y-103093358D01*
X186615404Y-103142197D01*
X186319602Y-103202380D01*
X186005448Y-103272748D01*
X185678919Y-103352142D01*
X185345988Y-103439401D01*
X185289936Y-103454727D01*
X184963639Y-103545387D01*
X184678816Y-103626816D01*
X184427566Y-103701749D01*
X184201993Y-103772921D01*
X183994199Y-103843069D01*
X183796284Y-103914926D01*
X183600352Y-103991230D01*
X183398505Y-104074714D01*
X183182843Y-104168116D01*
X183017194Y-104241867D01*
X182871457Y-104306835D01*
X182727665Y-104370095D01*
X182598251Y-104426237D01*
X182495647Y-104469848D01*
X182454288Y-104486879D01*
X182331815Y-104539835D01*
X182202220Y-104601751D01*
X182081457Y-104664539D01*
X181985486Y-104720112D01*
X181957093Y-104738875D01*
X181920790Y-104763992D01*
X181851024Y-104811938D01*
X181756278Y-104876895D01*
X181645040Y-104953041D01*
X181583072Y-104995418D01*
X181430971Y-105103366D01*
X181292857Y-105211101D01*
X181162618Y-105324898D01*
X181034146Y-105451032D01*
X180901332Y-105595777D01*
X180758067Y-105765408D01*
X180598240Y-105966200D01*
X180450239Y-106158898D01*
X180403534Y-106216393D01*
X180368169Y-106252769D01*
X180358431Y-106258910D01*
X180328654Y-106247036D01*
X180274942Y-106213316D01*
X180248517Y-106194467D01*
X180171041Y-106127720D01*
X180097558Y-106050007D01*
X180086301Y-106036079D01*
X180033267Y-105969497D01*
X179986646Y-105913446D01*
X179975916Y-105901217D01*
X179861576Y-105777561D01*
X179766715Y-105681783D01*
X179696853Y-105619415D01*
X179687802Y-105612490D01*
X179616396Y-105563925D01*
X179519927Y-105504034D01*
X179407296Y-105437701D01*
X179287403Y-105369816D01*
X179169151Y-105305265D01*
X179061441Y-105248933D01*
X178973175Y-105205708D01*
X178913255Y-105180477D01*
X178892962Y-105176136D01*
X178865577Y-105169399D01*
X178802308Y-105149813D01*
X178715271Y-105121173D01*
X178687062Y-105111630D01*
X178391203Y-105033784D01*
X178085575Y-104999384D01*
X177765428Y-105008407D01*
X177426013Y-105060829D01*
X177242380Y-105104688D01*
X177099875Y-105145674D01*
X176959930Y-105191507D01*
X176838629Y-105236615D01*
X176757380Y-105272657D01*
X176636250Y-105342188D01*
X176493686Y-105435818D01*
X176342039Y-105544282D01*
X176193660Y-105658320D01*
X176060900Y-105768669D01*
X175956111Y-105866066D01*
X175931136Y-105892289D01*
X175862964Y-105960835D01*
X175802473Y-106011042D01*
X175761356Y-106033374D01*
X175757666Y-106033732D01*
X175720011Y-106011092D01*
X175677000Y-105942468D01*
X175652521Y-105889258D01*
X175607184Y-105785852D01*
X175558749Y-105679099D01*
X175534105Y-105626538D01*
X175489993Y-105528450D01*
X175444399Y-105418379D01*
X175427457Y-105374528D01*
X175347936Y-105202484D01*
X175231859Y-105009377D01*
X175084558Y-104802885D01*
X174911364Y-104590686D01*
X174789339Y-104455372D01*
X174642530Y-104305982D01*
X174507855Y-104187585D01*
X174369659Y-104088649D01*
X174212290Y-103997638D01*
X174074743Y-103928827D01*
X173873414Y-103837923D01*
X173702245Y-103773361D01*
X173550331Y-103731579D01*
X173406767Y-103709016D01*
X173399919Y-103708357D01*
X173292376Y-103696143D01*
X173181709Y-103680359D01*
X173141891Y-103673622D01*
X173086570Y-103667187D01*
X173019059Y-103667353D01*
X172931099Y-103674975D01*
X172814424Y-103690905D01*
X172660774Y-103715993D01*
X172559271Y-103733693D01*
X172383860Y-103765563D01*
X172246060Y-103793204D01*
X172133251Y-103820003D01*
X172032819Y-103849340D01*
X171932144Y-103884602D01*
X171818611Y-103929171D01*
X171795827Y-103938446D01*
X171677601Y-103986189D01*
X171573096Y-104027353D01*
X171493081Y-104057766D01*
X171448324Y-104073258D01*
X171446508Y-104073749D01*
X171399461Y-104071205D01*
X171385118Y-104033708D01*
X171403416Y-103965127D01*
X171449715Y-103876766D01*
X171507427Y-103777528D01*
X171565099Y-103671328D01*
X171592085Y-103618166D01*
X171679794Y-103439549D01*
X171695814Y-103407755D01*
X172426124Y-103278981D01*
X172451365Y-103292618D01*
X172502693Y-103271552D01*
X172533599Y-103249375D01*
X172606306Y-103212660D01*
X172716531Y-103182025D01*
X172851206Y-103158870D01*
X172997266Y-103144599D01*
X173141642Y-103140614D01*
X173271270Y-103148319D01*
X173348271Y-103161926D01*
X173402478Y-103169655D01*
X173486555Y-103175493D01*
X173557386Y-103177691D01*
X173650467Y-103182285D01*
X173729843Y-103191933D01*
X173767855Y-103201141D01*
X173819821Y-103217234D01*
X173903655Y-103239234D01*
X174001535Y-103262472D01*
X174004932Y-103263236D01*
X174097036Y-103286468D01*
X174169775Y-103309537D01*
X174208602Y-103327773D01*
X174209977Y-103329062D01*
X174244447Y-103352462D01*
X174309855Y-103387413D01*
X174373473Y-103417768D01*
X174548310Y-103508261D01*
X174729867Y-103620949D01*
X174891901Y-103739378D01*
X174909904Y-103754121D01*
X174976175Y-103811840D01*
X175057498Y-103886447D01*
X175144873Y-103969203D01*
X175229303Y-104051371D01*
X175301790Y-104124211D01*
X175353337Y-104178988D01*
X175373940Y-104204771D01*
X175400378Y-104237899D01*
X175449730Y-104290246D01*
X175477725Y-104317978D01*
X175530942Y-104374577D01*
X175565393Y-104420781D01*
X175571614Y-104434988D01*
X175589142Y-104471869D01*
X175628123Y-104532531D01*
X175659951Y-104576741D01*
X175714692Y-104655984D01*
X175779076Y-104758327D01*
X175839293Y-104861809D01*
X175840063Y-104863201D01*
X175913655Y-104993846D01*
X175968881Y-105083846D01*
X176010230Y-105137926D01*
X176042190Y-105160813D01*
X176069248Y-105157229D01*
X176095620Y-105132238D01*
X176129268Y-105105938D01*
X176189906Y-105069380D01*
X176216504Y-105055090D01*
X176283367Y-105014606D01*
X176330553Y-104975613D01*
X176339097Y-104964509D01*
X176378772Y-104931921D01*
X176431430Y-104913791D01*
X176486211Y-104896643D01*
X176511961Y-104876184D01*
X176539539Y-104851335D01*
X176601000Y-104813392D01*
X176683536Y-104769286D01*
X176774344Y-104725947D01*
X176842932Y-104697037D01*
X177116701Y-104605852D01*
X177404876Y-104542556D01*
X177559658Y-104519880D01*
X177792998Y-104493529D01*
X177987621Y-104479105D01*
X178154254Y-104476892D01*
X178303628Y-104487170D01*
X178446470Y-104510223D01*
X178593510Y-104546332D01*
X178596514Y-104547175D01*
X178676338Y-104567583D01*
X178737128Y-104579461D01*
X178758795Y-104580789D01*
X178803072Y-104586038D01*
X178880767Y-104607666D01*
X178981864Y-104641676D01*
X179096340Y-104684073D01*
X179214178Y-104730858D01*
X179325356Y-104778037D01*
X179419858Y-104821611D01*
X179487662Y-104857586D01*
X179518749Y-104881964D01*
X179519607Y-104884256D01*
X179544576Y-104905476D01*
X179574961Y-104913581D01*
X179622447Y-104932219D01*
X179699093Y-104975534D01*
X179794438Y-105036410D01*
X179898019Y-105107733D01*
X179999371Y-105182390D01*
X180088034Y-105253266D01*
X180132722Y-105292826D01*
X180232377Y-105379786D01*
X180303973Y-105427461D01*
X180341156Y-105436617D01*
X180371829Y-105420398D01*
X180420483Y-105386150D01*
X180471544Y-105339214D01*
X180535320Y-105270252D01*
X180574294Y-105223622D01*
X180671114Y-105105853D01*
X180742751Y-105027335D01*
X180792227Y-104985073D01*
X180822567Y-104976070D01*
X180823762Y-104976488D01*
X180853201Y-104964624D01*
X180904583Y-104923319D01*
X180965270Y-104863086D01*
X181027414Y-104799072D01*
X181077985Y-104752420D01*
X181105056Y-104733736D01*
X181139506Y-104716577D01*
X181196685Y-104679798D01*
X181221436Y-104662396D01*
X181282024Y-104621102D01*
X181326242Y-104595210D01*
X181335421Y-104591588D01*
X181367018Y-104574289D01*
X181426499Y-104534019D01*
X181501953Y-104479383D01*
X181581466Y-104418983D01*
X181646488Y-104366940D01*
X181700758Y-104329817D01*
X181740119Y-104312855D01*
X181779427Y-104297023D01*
X181848200Y-104262297D01*
X181932305Y-104215858D01*
X181941330Y-104210663D01*
X182034197Y-104157787D01*
X182120581Y-104109933D01*
X182181878Y-104077405D01*
X182182174Y-104077257D01*
X182232910Y-104044423D01*
X182254751Y-104015567D01*
X182254668Y-104013005D01*
X182271816Y-103995557D01*
X182304888Y-103994791D01*
X182368961Y-103979405D01*
X182399364Y-103950950D01*
X182444957Y-103914841D01*
X182481860Y-103908103D01*
X182527387Y-103899135D01*
X182591489Y-103866775D01*
X182617800Y-103849219D01*
X182678239Y-103810565D01*
X182722554Y-103791029D01*
X182732703Y-103790676D01*
X182765535Y-103785116D01*
X182828725Y-103761905D01*
X182893163Y-103733239D01*
X182975145Y-103696476D01*
X183043677Y-103669737D01*
X183075884Y-103660509D01*
X183111457Y-103645200D01*
X183116230Y-103633350D01*
X183135961Y-103615895D01*
X183189415Y-103598345D01*
X183206147Y-103594768D01*
X183281436Y-103574510D01*
X183377935Y-103541123D01*
X183448026Y-103513057D01*
X183526971Y-103481663D01*
X183586280Y-103462667D01*
X183611444Y-103459972D01*
X183641517Y-103456053D01*
X183694618Y-103432374D01*
X183700459Y-103429166D01*
X183781553Y-103400166D01*
X183826173Y-103404784D01*
X183882892Y-103405442D01*
X183927947Y-103374748D01*
X183979536Y-103342060D01*
X184060148Y-103307066D01*
X184125251Y-103285472D01*
X184222328Y-103257523D01*
X184313688Y-103231064D01*
X184358381Y-103218026D01*
X184536533Y-103166786D01*
X184671687Y-103130337D01*
X184769015Y-103107334D01*
X184818924Y-103098292D01*
X184877929Y-103082150D01*
X184909829Y-103059048D01*
X184910125Y-103058359D01*
X184939144Y-103039957D01*
X185004408Y-103018949D01*
X185091865Y-102999845D01*
X185093002Y-102999644D01*
X185201751Y-102975513D01*
X185260702Y-102950326D01*
X185271714Y-102935893D01*
X185284929Y-102914570D01*
X185306288Y-102929466D01*
X185345784Y-102941666D01*
X185407257Y-102920660D01*
X185479268Y-102898839D01*
X185514452Y-102908320D01*
X185547499Y-102916547D01*
X185563849Y-102892271D01*
X185589658Y-102865274D01*
X185617485Y-102873427D01*
X185663940Y-102880084D01*
X185735936Y-102872266D01*
X185766351Y-102865470D01*
X185940244Y-102821338D01*
X186112639Y-102779513D01*
X186298212Y-102736560D01*
X186511638Y-102689042D01*
X186633279Y-102662520D01*
X186776520Y-102631389D01*
X186907155Y-102602871D01*
X187014974Y-102579207D01*
X187089764Y-102562634D01*
X187115274Y-102556853D01*
X187187379Y-102540078D01*
X187146575Y-102340938D01*
X187121883Y-102238578D01*
X187095786Y-102160215D01*
X187072509Y-102118279D01*
X187070273Y-102116401D01*
X187027285Y-102103371D01*
X186943469Y-102092327D01*
X186828781Y-102084012D01*
X186693177Y-102079172D01*
X186562283Y-102078396D01*
X186499541Y-102073378D01*
X186461679Y-102060270D01*
X186460667Y-102059258D01*
X186425943Y-102049781D01*
X186365016Y-102053250D01*
X186358396Y-102054350D01*
X186295424Y-102058504D01*
X186255640Y-102048596D01*
X186253929Y-102046978D01*
X186214857Y-102032068D01*
X186186380Y-102033097D01*
X186132209Y-102034981D01*
X186053915Y-102029581D01*
X186025480Y-102026159D01*
X185933626Y-102014207D01*
X185822969Y-102000479D01*
X185760871Y-101993056D01*
X185677648Y-101980824D01*
X185616353Y-101967233D01*
X185593654Y-101957539D01*
X185558995Y-101942933D01*
X185505762Y-101934746D01*
X185430449Y-101925185D01*
X185345190Y-101908789D01*
X185339511Y-101907468D01*
X185247891Y-101885811D01*
X185158211Y-101864581D01*
X185156925Y-101864276D01*
X185089819Y-101851494D01*
X185042910Y-101848011D01*
X185039757Y-101848400D01*
X184997408Y-101844987D01*
X184920640Y-101829725D01*
X184823529Y-101805894D01*
X184720149Y-101776776D01*
X184682512Y-101765123D01*
X184603559Y-101740709D01*
X184511552Y-101713233D01*
X184491803Y-101707471D01*
X184320169Y-101656897D01*
X184191115Y-101616850D01*
X184098050Y-101585089D01*
X184034381Y-101559377D01*
X183996219Y-101539216D01*
X183933178Y-101513723D01*
X183885116Y-101510366D01*
X183830845Y-101505889D01*
X183756656Y-101483808D01*
X183730759Y-101473103D01*
X183663123Y-101445758D01*
X183614491Y-101431485D01*
X183604549Y-101430878D01*
X183570099Y-101421534D01*
X183511215Y-101393239D01*
X183487045Y-101379641D01*
X183409827Y-101339208D01*
X183337708Y-101308792D01*
X183324607Y-101304565D01*
X183250147Y-101277739D01*
X183155356Y-101237136D01*
X183064405Y-101193466D01*
X183022506Y-101170699D01*
X182968837Y-101145769D01*
X182924131Y-101129567D01*
X182867441Y-101106631D01*
X182788146Y-101068710D01*
X182735717Y-101041360D01*
X182649967Y-100998203D01*
X182569804Y-100963110D01*
X182533947Y-100950296D01*
X182474098Y-100922472D01*
X182439489Y-100889797D01*
X182403561Y-100856141D01*
X182341327Y-100823242D01*
X182329824Y-100818801D01*
X182276554Y-100792571D01*
X182196929Y-100744693D01*
X182097481Y-100679935D01*
X181984743Y-100603065D01*
X181865249Y-100518852D01*
X181745531Y-100432062D01*
X181632122Y-100347465D01*
X181531553Y-100269828D01*
X181450361Y-100203919D01*
X181395075Y-100154506D01*
X181372230Y-100126357D01*
X181374805Y-100121781D01*
X181371243Y-100106587D01*
X181333086Y-100071743D01*
X181268766Y-100024601D01*
X181245628Y-100009160D01*
X181197864Y-99971444D01*
X181175664Y-99941492D01*
X181154022Y-99908326D01*
X181119996Y-99876835D01*
X181067362Y-99827469D01*
X180997909Y-99750684D01*
X180919025Y-99656079D01*
X180838099Y-99553253D01*
X180762524Y-99451806D01*
X180699688Y-99361339D01*
X180656980Y-99291451D01*
X180642143Y-99256108D01*
X180621654Y-99205352D01*
X180605363Y-99180295D01*
X180569115Y-99123237D01*
X180525434Y-99041101D01*
X180483082Y-98952088D01*
X180450819Y-98874393D01*
X180438257Y-98833167D01*
X180421879Y-98782423D01*
X180389416Y-98705516D01*
X180357058Y-98637664D01*
X180285615Y-98495510D01*
X180125350Y-98528349D01*
X179933210Y-98569308D01*
X179729227Y-98615593D01*
X179520960Y-98665232D01*
X179315967Y-98716256D01*
X179121809Y-98766695D01*
X178946043Y-98814581D01*
X178796229Y-98857944D01*
X178679925Y-98894812D01*
X178604691Y-98923218D01*
X178598023Y-98926331D01*
X178530393Y-98952887D01*
X178452024Y-98975962D01*
X178357590Y-99001955D01*
X178237807Y-99039689D01*
X178104932Y-99084762D01*
X177971218Y-99132771D01*
X177848920Y-99179309D01*
X177750295Y-99219975D01*
X177687598Y-99250363D01*
X177686281Y-99251142D01*
X177633195Y-99274492D01*
X177600095Y-99277111D01*
X177562063Y-99281015D01*
X177503760Y-99304191D01*
X177497946Y-99307181D01*
X177431818Y-99339945D01*
X177342362Y-99381819D01*
X177277812Y-99410905D01*
X177188240Y-99451297D01*
X177072905Y-99504400D01*
X176951851Y-99560957D01*
X176908139Y-99581611D01*
X176804907Y-99629714D01*
X176713898Y-99670579D01*
X176648232Y-99698386D01*
X176627564Y-99706040D01*
X176568164Y-99737092D01*
X176540883Y-99761209D01*
X176498763Y-99789442D01*
X176426794Y-99819597D01*
X176379161Y-99834439D01*
X176297865Y-99863184D01*
X176234112Y-99897412D01*
X176213553Y-99915453D01*
X176169536Y-99948774D01*
X176138345Y-99953618D01*
X176094386Y-99966425D01*
X176075690Y-99987329D01*
X176037156Y-100026105D01*
X176015059Y-100035176D01*
X175974969Y-100053275D01*
X175911624Y-100092790D01*
X175864502Y-100126203D01*
X175793163Y-100174915D01*
X175732099Y-100209080D01*
X175706230Y-100218590D01*
X175665837Y-100233140D01*
X175600553Y-100268073D01*
X175506514Y-100325770D01*
X175379854Y-100408618D01*
X175216709Y-100519000D01*
X175193432Y-100534939D01*
X175113985Y-100584786D01*
X175036866Y-100626054D01*
X175013238Y-100636518D01*
X174951965Y-100670397D01*
X174913118Y-100708284D01*
X174880884Y-100745559D01*
X174864208Y-100753938D01*
X174832523Y-100772182D01*
X174777383Y-100814569D01*
X174730042Y-100854971D01*
X174666295Y-100908510D01*
X174615686Y-100945538D01*
X174595007Y-100956157D01*
X174562429Y-100976430D01*
X174513447Y-101021292D01*
X174497738Y-101037788D01*
X174443792Y-101088310D01*
X174397457Y-101118664D01*
X174388427Y-101121542D01*
X174344191Y-101147706D01*
X174325552Y-101171316D01*
X174290172Y-101210244D01*
X174269632Y-101219864D01*
X174231564Y-101244634D01*
X174213965Y-101267970D01*
X174179684Y-101308002D01*
X174120775Y-101360457D01*
X174089318Y-101384920D01*
X174022241Y-101440327D01*
X173969525Y-101493791D01*
X173955810Y-101512024D01*
X173914590Y-101556622D01*
X173883004Y-101573056D01*
X173846932Y-101594642D01*
X173788750Y-101643821D01*
X173720348Y-101710444D01*
X173712738Y-101718372D01*
X173631994Y-101801612D01*
X173532676Y-101901895D01*
X173432821Y-102001052D01*
X173406111Y-102027225D01*
X173321321Y-102113295D01*
X173243960Y-102197634D01*
X173186204Y-102266744D01*
X173170151Y-102288831D01*
X173126992Y-102345636D01*
X173091143Y-102379697D01*
X173082968Y-102383403D01*
X173057675Y-102405154D01*
X173011699Y-102459796D01*
X172952587Y-102537989D01*
X172912826Y-102593946D01*
X172847228Y-102682802D01*
X172787225Y-102754143D01*
X172741334Y-102798316D01*
X172724197Y-102807749D01*
X172684841Y-102838739D01*
X172665522Y-102895471D01*
X172651234Y-102951519D01*
X172634315Y-102978277D01*
X172633478Y-102978497D01*
X172607795Y-102998081D01*
X172560751Y-103045412D01*
X172514983Y-103096110D01*
X172457129Y-103174103D01*
X172427778Y-103237268D01*
X172426124Y-103278981D01*
X171695814Y-103407755D01*
X171751643Y-103296961D01*
X171813154Y-103180349D01*
X171869842Y-103079661D01*
X171927231Y-102984842D01*
X171990840Y-102885840D01*
X172010791Y-102855586D01*
X172081170Y-102748070D01*
X172144869Y-102648516D01*
X172194391Y-102568772D01*
X172220419Y-102524155D01*
X172260296Y-102462782D01*
X172320487Y-102384221D01*
X172372308Y-102323272D01*
X172446641Y-102236274D01*
X172530544Y-102132104D01*
X172596859Y-102045321D01*
X172674649Y-101946493D01*
X172762792Y-101844172D01*
X172832156Y-101770756D01*
X172912074Y-101689622D01*
X172992111Y-101605015D01*
X173038852Y-101553394D01*
X173183089Y-101400194D01*
X173362772Y-101227604D01*
X173569891Y-101042547D01*
X173796438Y-100851947D01*
X174034403Y-100662726D01*
X174275778Y-100481809D01*
X174292155Y-100469953D01*
X174519280Y-100306019D01*
X174710954Y-100168233D01*
X174872875Y-100052958D01*
X175010737Y-99956549D01*
X175130238Y-99875367D01*
X175237076Y-99805772D01*
X175336947Y-99744121D01*
X175435547Y-99686773D01*
X175538574Y-99630088D01*
X175651722Y-99570426D01*
X175780692Y-99504143D01*
X175891547Y-99447736D01*
X176159150Y-99312684D01*
X176389430Y-99198680D01*
X176589650Y-99102422D01*
X176767070Y-99020610D01*
X176928953Y-98949941D01*
X177082562Y-98887116D01*
X177235156Y-98828833D01*
X177324221Y-98796465D01*
X177473791Y-98742397D01*
X177619377Y-98688725D01*
X177748819Y-98640007D01*
X177849959Y-98600797D01*
X177892762Y-98583412D01*
X177980791Y-98549254D01*
X178100873Y-98506459D01*
X178236352Y-98460812D01*
X178354530Y-98423048D01*
X178488207Y-98381189D01*
X178619728Y-98339311D01*
X178733071Y-98302553D01*
X178806130Y-98278155D01*
X178911569Y-98242019D01*
X179034265Y-98200052D01*
X179122349Y-98169975D01*
X179219562Y-98140042D01*
X179356229Y-98102414D01*
X179522027Y-98059572D01*
X179706641Y-98013998D01*
X179899749Y-97968173D01*
X180091035Y-97924577D01*
X180270179Y-97885692D01*
X180426862Y-97853999D01*
X180470832Y-97845733D01*
X180733158Y-97797593D01*
X180769646Y-98053092D01*
D12*
X146524474Y-56571488D02*
X146224474Y-56571488D01*
X146224474Y-56571488D02*
X146224474Y-59871488D01*
X146224474Y-59871488D02*
X146524474Y-59871488D01*
X148724474Y-56571488D02*
X149024474Y-56571488D01*
X149024474Y-56571488D02*
X149024474Y-59871488D01*
X149024474Y-59871488D02*
X148724474Y-59871488D01*
D10*
X140091140Y-62218868D02*
X140091140Y-62933154D01*
X140043521Y-63076011D01*
X139948283Y-63171249D01*
X139805426Y-63218868D01*
X139710188Y-63218868D01*
X141091140Y-63218868D02*
X140519712Y-63218868D01*
X140805426Y-63218868D02*
X140805426Y-62218868D01*
X140710188Y-62361726D01*
X140614950Y-62456964D01*
X140519712Y-62504583D01*
X128279175Y-57626249D02*
X128422032Y-57673868D01*
X128660128Y-57673868D01*
X128755366Y-57626249D01*
X128802985Y-57578630D01*
X128850604Y-57483392D01*
X128850604Y-57388154D01*
X128802985Y-57292916D01*
X128755366Y-57245297D01*
X128660128Y-57197678D01*
X128469651Y-57150059D01*
X128374413Y-57102440D01*
X128326794Y-57054821D01*
X128279175Y-56959583D01*
X128279175Y-56864345D01*
X128326794Y-56769107D01*
X128374413Y-56721488D01*
X128469651Y-56673868D01*
X128707747Y-56673868D01*
X128850604Y-56721488D01*
X129183937Y-56673868D02*
X129422032Y-57673868D01*
X129612509Y-56959583D01*
X129802985Y-57673868D01*
X130041080Y-56673868D01*
X130374413Y-56769107D02*
X130422032Y-56721488D01*
X130517270Y-56673868D01*
X130755366Y-56673868D01*
X130850604Y-56721488D01*
X130898223Y-56769107D01*
X130945842Y-56864345D01*
X130945842Y-56959583D01*
X130898223Y-57102440D01*
X130326794Y-57673868D01*
X130945842Y-57673868D01*
X150391140Y-57626249D02*
X150533997Y-57673868D01*
X150772093Y-57673868D01*
X150867331Y-57626249D01*
X150914950Y-57578630D01*
X150962569Y-57483392D01*
X150962569Y-57388154D01*
X150914950Y-57292916D01*
X150867331Y-57245297D01*
X150772093Y-57197678D01*
X150581616Y-57150059D01*
X150486378Y-57102440D01*
X150438759Y-57054821D01*
X150391140Y-56959583D01*
X150391140Y-56864345D01*
X150438759Y-56769107D01*
X150486378Y-56721488D01*
X150581616Y-56673868D01*
X150819712Y-56673868D01*
X150962569Y-56721488D01*
X151295902Y-56673868D02*
X151533997Y-57673868D01*
X151724474Y-56959583D01*
X151914950Y-57673868D01*
X152153045Y-56673868D01*
X153057807Y-57673868D02*
X152486378Y-57673868D01*
X152772093Y-57673868D02*
X152772093Y-56673868D01*
X152676854Y-56816726D01*
X152581616Y-56911964D01*
X152486378Y-56959583D01*
M02*
