M48
; DRILL file {KiCad 5.1.6} date Tue Oct 20 23:03:37 2020
; FORMAT={-:-/ absolute / inch / decimal}
; #@! TF.CreationDate,2020-10-20T23:03:37-05:00
; #@! TF.GenerationSoftware,Kicad,Pcbnew,5.1.6
; #@! TF.FileFunction,NonPlated,1,2,NPTH
FMAT,2
INCH
T1C0.0669
T2C0.0945
T3C0.1339
%
G90
G05
T1
X6.7906Y-2.905
X7.2015Y-2.7683
X7.5987Y-4.773
X8.0096Y-4.6363
X7.0019Y-3.5401
X7.4128Y-3.4034
X8.2722Y-2.8686
X8.6831Y-2.7319
X3.0156Y-2.7319
X3.4265Y-2.8685
X3.0167Y-4.4127
X3.4277Y-4.5494
X8.8079Y-2.2339
X9.2188Y-2.0972
X7.6743Y-3.3164
X8.0852Y-3.1797
X4.3616Y-4.8601
X4.7725Y-4.9968
X8.2711Y-4.5493
X8.6821Y-4.4126
X3.2268Y-2.0968
X3.6378Y-2.2335
X9.704Y-2.6827
X10.115Y-2.546
X1.5837Y-2.546
X1.9946Y-2.6827
X0.9113Y-2.3223
X1.3222Y-2.459
X10.3765Y-2.459
X10.7874Y-2.3223
X9.0192Y-2.869
X9.4301Y-2.7323
X4.2857Y-3.4032
X4.6967Y-3.5399
X2.2686Y-2.7323
X2.6795Y-2.869
X3.6892Y-4.6364
X4.1001Y-4.7731
X7.463Y-2.6813
X7.874Y-2.5446
X8.0609Y-2.2335
X8.4718Y-2.0968
X6.9263Y-4.9967
X7.3372Y-4.86
X10.5877Y-3.0941
X10.9986Y-2.9574
X4.4971Y-2.7683
X4.9081Y-2.905
X0.7Y-2.9574
X1.1109Y-3.0941
X1.3724Y-3.181
X1.7834Y-3.3177
X3.6134Y-3.1797
X4.0244Y-3.3164
X3.8247Y-2.5446
X4.2356Y-2.6813
X9.9153Y-3.3178
X10.3262Y-3.1811
X2.4798Y-2.0972
X2.8908Y-2.2339
T2
X5.1465Y-2.9375
X5.1465Y-5.3375
X6.5465Y-2.9375
X6.5465Y-5.3375
T3
X3.8189Y-3.248
X4.0302Y-2.613
X10.1208Y-3.2494
X2.6853Y-2.1656
X6.9961Y-2.8367
X7.8042Y-4.7046
X7.2073Y-3.4717
X8.4776Y-2.8002
X3.221Y-2.8002
X3.2222Y-4.4811
X9.0134Y-2.1656
X7.8798Y-3.248
X4.5671Y-4.9284
X8.4766Y-4.4809
X3.4323Y-2.1651
X9.9095Y-2.6143
X1.7892Y-2.6143
X1.1167Y-2.3906
X10.5819Y-2.3906
X9.2246Y-2.8007
X4.4912Y-3.4715
X2.474Y-2.8007
X3.8946Y-4.7048
X7.6685Y-2.613
X8.2664Y-2.1651
X7.1317Y-4.9283
X10.7932Y-3.0257
X4.7026Y-2.8366
X0.9055Y-3.0257
X1.5779Y-3.2494
T0
M30
