G04 #@! TF.GenerationSoftware,KiCad,Pcbnew,5.1.8*
G04 #@! TF.CreationDate,2021-02-16T14:53:35-06:00*
G04 #@! TF.ProjectId,steno,7374656e-6f2e-46b6-9963-61645f706362,rev?*
G04 #@! TF.SameCoordinates,Original*
G04 #@! TF.FileFunction,Profile,NP*
%FSLAX46Y46*%
G04 Gerber Fmt 4.6, Leading zero omitted, Abs format (unit mm)*
G04 Created by KiCad (PCBNEW 5.1.8) date 2021-02-16 14:53:35*
%MOMM*%
%LPD*%
G01*
G04 APERTURE LIST*
G04 #@! TA.AperFunction,Profile*
%ADD10C,0.050000*%
G04 #@! TD*
G04 #@! TA.AperFunction,Profile*
%ADD11C,0.150000*%
G04 #@! TD*
G04 APERTURE END LIST*
D10*
X210368636Y-56107564D02*
X208993261Y-56392639D01*
X208993261Y-56392639D02*
X207564862Y-56677621D01*
X207564862Y-56677621D02*
X206085382Y-56961101D01*
X206085382Y-56961101D02*
X204556767Y-57241673D01*
X204556767Y-57241673D02*
X202980959Y-57517929D01*
X202980959Y-57517929D02*
X201359905Y-57788464D01*
X201359905Y-57788464D02*
X199695547Y-58051868D01*
X199695547Y-58051868D02*
X197989830Y-58306737D01*
X197989830Y-58306737D02*
X196244698Y-58551661D01*
X196244698Y-58551661D02*
X194462096Y-58785235D01*
X194462096Y-58785235D02*
X192643967Y-59006051D01*
X192643967Y-59006051D02*
X190792257Y-59212703D01*
X190792257Y-59212703D02*
X188908909Y-59403782D01*
X188908909Y-59403782D02*
X186995868Y-59577883D01*
X186995868Y-59577883D02*
X185055077Y-59733597D01*
X185055077Y-59733597D02*
X183088481Y-59869519D01*
X183088481Y-59869519D02*
X181098025Y-59984240D01*
X181098025Y-59984240D02*
X179085653Y-60076354D01*
X179085653Y-60076354D02*
X177053308Y-60144454D01*
X177053308Y-60144454D02*
X175002935Y-60187133D01*
X175002935Y-60187133D02*
X172936479Y-60202983D01*
X172936479Y-60202983D02*
X170855883Y-60190598D01*
X170855883Y-60190598D02*
X168763093Y-60148571D01*
X168763093Y-60148571D02*
X166660051Y-60075494D01*
X166660051Y-60075494D02*
X164548703Y-59969960D01*
X164548703Y-59969960D02*
X162430993Y-59830562D01*
X162430993Y-59830562D02*
X160308864Y-59655894D01*
X160308864Y-59655894D02*
X158184262Y-59444548D01*
X158184262Y-59444548D02*
X156059130Y-59195117D01*
X156059130Y-59195117D02*
X153935413Y-58906194D01*
X153935413Y-58906194D02*
X151815055Y-58576372D01*
X151815055Y-58576372D02*
X149700000Y-58204245D01*
X264937438Y-54609025D02*
X264763951Y-54124945D01*
X264763951Y-54124945D02*
X264340326Y-53702727D01*
X264340326Y-53702727D02*
X263681694Y-53339611D01*
X263681694Y-53339611D02*
X262803187Y-53032835D01*
X262803187Y-53032835D02*
X261719936Y-52779639D01*
X261719936Y-52779639D02*
X260447072Y-52577261D01*
X260447072Y-52577261D02*
X258999727Y-52422940D01*
X258999727Y-52422940D02*
X257393031Y-52313916D01*
X257393031Y-52313916D02*
X255642117Y-52247427D01*
X255642117Y-52247427D02*
X253762115Y-52220712D01*
X253762115Y-52220712D02*
X251768156Y-52231010D01*
X251768156Y-52231010D02*
X249675373Y-52275561D01*
X249675373Y-52275561D02*
X247498895Y-52351602D01*
X247498895Y-52351602D02*
X245253856Y-52456374D01*
X245253856Y-52456374D02*
X242955385Y-52587115D01*
X242955385Y-52587115D02*
X240618614Y-52741064D01*
X240618614Y-52741064D02*
X238258675Y-52915461D01*
X238258675Y-52915461D02*
X235890698Y-53107543D01*
X235890698Y-53107543D02*
X233529816Y-53314550D01*
X233529816Y-53314550D02*
X231191158Y-53533722D01*
X231191158Y-53533722D02*
X228889858Y-53762296D01*
X228889858Y-53762296D02*
X226641045Y-53997513D01*
X226641045Y-53997513D02*
X224459851Y-54236610D01*
X224459851Y-54236610D02*
X222361408Y-54476828D01*
X222361408Y-54476828D02*
X220360847Y-54715404D01*
X220360847Y-54715404D02*
X218473299Y-54949578D01*
X218473299Y-54949578D02*
X216713895Y-55176589D01*
X216713895Y-55176589D02*
X215097766Y-55393677D01*
X215097766Y-55393677D02*
X213640045Y-55598079D01*
X213640045Y-55598079D02*
X212355862Y-55787034D01*
X212355862Y-55787034D02*
X211260348Y-55957783D01*
X211260348Y-55957783D02*
X210368636Y-56107564D01*
X270494261Y-86122858D02*
X264454793Y-87188693D01*
X264454793Y-87188693D02*
X258792935Y-88193431D01*
X258792935Y-88193431D02*
X253497517Y-89144526D01*
X253497517Y-89144526D02*
X248557375Y-90049432D01*
X248557375Y-90049432D02*
X243961340Y-90915604D01*
X243961340Y-90915604D02*
X239698247Y-91750497D01*
X239698247Y-91750497D02*
X235756928Y-92561563D01*
X235756928Y-92561563D02*
X232126217Y-93356258D01*
X232126217Y-93356258D02*
X228794946Y-94142037D01*
X228794946Y-94142037D02*
X225751950Y-94926352D01*
X225751950Y-94926352D02*
X222986061Y-95716659D01*
X222986061Y-95716659D02*
X220486112Y-96520412D01*
X220486112Y-96520412D02*
X218240937Y-97345066D01*
X218240937Y-97345066D02*
X216239368Y-98198074D01*
X216239368Y-98198074D02*
X214470240Y-99086890D01*
X214470240Y-99086890D02*
X212922386Y-100018971D01*
X212922386Y-100018971D02*
X211584637Y-101001768D01*
X211584637Y-101001768D02*
X210445829Y-102042737D01*
X210445829Y-102042737D02*
X209494793Y-103149333D01*
X209494793Y-103149333D02*
X208720364Y-104329009D01*
X208720364Y-104329009D02*
X208111374Y-105589220D01*
X208111374Y-105589220D02*
X207656656Y-106937420D01*
X207656656Y-106937420D02*
X207345045Y-108381063D01*
X207345045Y-108381063D02*
X207165372Y-109927604D01*
X207165372Y-109927604D02*
X207106472Y-111584497D01*
X207106472Y-111584497D02*
X207157177Y-113359196D01*
X207157177Y-113359196D02*
X207306321Y-115259156D01*
X207306321Y-115259156D02*
X207542736Y-117291832D01*
X207542736Y-117291832D02*
X207855257Y-119464676D01*
X207855257Y-119464676D02*
X208232716Y-121785144D01*
X208232716Y-121785144D02*
X208663946Y-124260690D01*
X208663946Y-124260690D02*
X209137782Y-126898769D01*
X153016247Y-119401076D02*
X128016245Y-119401078D01*
X153016247Y-120401075D02*
X153016247Y-119401076D01*
X128016248Y-120401077D02*
X153016247Y-120401075D01*
X128016245Y-119401078D02*
X128016248Y-120401077D01*
D11*
X264937438Y-54609025D02*
X270494263Y-86122861D01*
X209137782Y-126898769D02*
X158912579Y-135754826D01*
X16187954Y-54604782D02*
X10631133Y-86118618D01*
D10*
X122212812Y-135750587D02*
X123362066Y-135997583D01*
X123362066Y-135997583D02*
X124507147Y-136228605D01*
X124507147Y-136228605D02*
X125648457Y-136443658D01*
X125648457Y-136443658D02*
X126786399Y-136642747D01*
X126786399Y-136642747D02*
X127921373Y-136825876D01*
X127921373Y-136825876D02*
X129053782Y-136993050D01*
X129053782Y-136993050D02*
X130184027Y-137144273D01*
X130184027Y-137144273D02*
X131312512Y-137279551D01*
X131312512Y-137279551D02*
X132439636Y-137398888D01*
X132439636Y-137398888D02*
X133565803Y-137502289D01*
X133565803Y-137502289D02*
X134691414Y-137589758D01*
X134691414Y-137589758D02*
X135816871Y-137661301D01*
X135816871Y-137661301D02*
X136942576Y-137716921D01*
X136942576Y-137716921D02*
X138068930Y-137756625D01*
X138068930Y-137756625D02*
X139196337Y-137780416D01*
X139196337Y-137780416D02*
X140325197Y-137788299D01*
X140325197Y-137788299D02*
X141455912Y-137780279D01*
X141455912Y-137780279D02*
X142588885Y-137756361D01*
X142588885Y-137756361D02*
X143724517Y-137716549D01*
X143724517Y-137716549D02*
X144863210Y-137660848D01*
X144863210Y-137660848D02*
X146005366Y-137589263D01*
X146005366Y-137589263D02*
X147151387Y-137501799D01*
X147151387Y-137501799D02*
X148301675Y-137398460D01*
X148301675Y-137398460D02*
X149456631Y-137279251D01*
X149456631Y-137279251D02*
X150616658Y-137144176D01*
X150616658Y-137144176D02*
X151782157Y-136993241D01*
X151782157Y-136993241D02*
X152953531Y-136826451D01*
X152953531Y-136826451D02*
X154131180Y-136643809D01*
X154131180Y-136643809D02*
X155315508Y-136445321D01*
X155315508Y-136445321D02*
X156506916Y-136230991D01*
X156506916Y-136230991D02*
X157705805Y-136000824D01*
X157705805Y-136000824D02*
X158912579Y-135754826D01*
X10631133Y-86118618D02*
X16670600Y-87184453D01*
X16670600Y-87184453D02*
X22332459Y-88189191D01*
X22332459Y-88189191D02*
X27627876Y-89140286D01*
X27627876Y-89140286D02*
X32568019Y-90045192D01*
X32568019Y-90045192D02*
X37164054Y-90911364D01*
X37164054Y-90911364D02*
X41427147Y-91746256D01*
X41427147Y-91746256D02*
X45368466Y-92557323D01*
X45368466Y-92557323D02*
X48999178Y-93352018D01*
X48999178Y-93352018D02*
X52330448Y-94137796D01*
X52330448Y-94137796D02*
X55373445Y-94922112D01*
X55373445Y-94922112D02*
X58139334Y-95712419D01*
X58139334Y-95712419D02*
X60639283Y-96516172D01*
X60639283Y-96516172D02*
X62884458Y-97340825D01*
X62884458Y-97340825D02*
X64886026Y-98193833D01*
X64886026Y-98193833D02*
X66655154Y-99082649D01*
X66655154Y-99082649D02*
X68203009Y-100014729D01*
X68203009Y-100014729D02*
X69540757Y-100997527D01*
X69540757Y-100997527D02*
X70679565Y-102038496D01*
X70679565Y-102038496D02*
X71630601Y-103145091D01*
X71630601Y-103145091D02*
X72405030Y-104324767D01*
X72405030Y-104324767D02*
X73014020Y-105584978D01*
X73014020Y-105584978D02*
X73468738Y-106933178D01*
X73468738Y-106933178D02*
X73780349Y-108376821D01*
X73780349Y-108376821D02*
X73960022Y-109923362D01*
X73960022Y-109923362D02*
X74018922Y-111580255D01*
X74018922Y-111580255D02*
X73968217Y-113354954D01*
X73968217Y-113354954D02*
X73819074Y-115254914D01*
X73819074Y-115254914D02*
X73582658Y-117287589D01*
X73582658Y-117287589D02*
X73270138Y-119460433D01*
X73270138Y-119460433D02*
X72892679Y-121780901D01*
X72892679Y-121780901D02*
X72461449Y-124256447D01*
X72461449Y-124256447D02*
X71987614Y-126894526D01*
X70756754Y-56103319D02*
X72132140Y-56388394D01*
X72132140Y-56388394D02*
X73560619Y-56673376D01*
X73560619Y-56673376D02*
X75040316Y-56956856D01*
X75040316Y-56956856D02*
X76569354Y-57237428D01*
X76569354Y-57237428D02*
X78145859Y-57513684D01*
X78145859Y-57513684D02*
X79767954Y-57784219D01*
X79767954Y-57784219D02*
X81433764Y-58047623D01*
X81433764Y-58047623D02*
X83141413Y-58302492D01*
X83141413Y-58302492D02*
X84889025Y-58547416D01*
X84889025Y-58547416D02*
X86674726Y-58780990D01*
X86674726Y-58780990D02*
X88496638Y-59001806D01*
X88496638Y-59001806D02*
X90352887Y-59208458D01*
X90352887Y-59208458D02*
X92241597Y-59399537D01*
X92241597Y-59399537D02*
X94160891Y-59573638D01*
X94160891Y-59573638D02*
X96108896Y-59729352D01*
X96108896Y-59729352D02*
X98083734Y-59865274D01*
X98083734Y-59865274D02*
X100083530Y-59979995D01*
X100083530Y-59979995D02*
X102106409Y-60072109D01*
X102106409Y-60072109D02*
X104150494Y-60140209D01*
X104150494Y-60140209D02*
X106213911Y-60182888D01*
X106213911Y-60182888D02*
X108294783Y-60198738D01*
X108294783Y-60198738D02*
X110391235Y-60186353D01*
X110391235Y-60186353D02*
X112501392Y-60144326D01*
X112501392Y-60144326D02*
X114623376Y-60071249D01*
X114623376Y-60071249D02*
X116755314Y-59965715D01*
X116755314Y-59965715D02*
X118895328Y-59826317D01*
X118895328Y-59826317D02*
X121041545Y-59651649D01*
X121041545Y-59651649D02*
X123192087Y-59440303D01*
X123192087Y-59440303D02*
X125345079Y-59190872D01*
X125345079Y-59190872D02*
X127498645Y-58901949D01*
X127498645Y-58901949D02*
X129650911Y-58572127D01*
X129650911Y-58572127D02*
X131800000Y-58200000D01*
X16187954Y-54604782D02*
X16361441Y-54120702D01*
X16361441Y-54120702D02*
X16785065Y-53698484D01*
X16785065Y-53698484D02*
X17443697Y-53335368D01*
X17443697Y-53335368D02*
X18322204Y-53028593D01*
X18322204Y-53028593D02*
X19405455Y-52775396D01*
X19405455Y-52775396D02*
X20678319Y-52573018D01*
X20678319Y-52573018D02*
X22125664Y-52418698D01*
X22125664Y-52418698D02*
X23732360Y-52309673D01*
X23732360Y-52309673D02*
X25483274Y-52243184D01*
X25483274Y-52243184D02*
X27363277Y-52216469D01*
X27363277Y-52216469D02*
X29357235Y-52226767D01*
X29357235Y-52226767D02*
X31450018Y-52271318D01*
X31450018Y-52271318D02*
X33626496Y-52347360D01*
X33626496Y-52347360D02*
X35871535Y-52452131D01*
X35871535Y-52452131D02*
X38170006Y-52582872D01*
X38170006Y-52582872D02*
X40506777Y-52736822D01*
X40506777Y-52736822D02*
X42866716Y-52911218D01*
X42866716Y-52911218D02*
X45234692Y-53103300D01*
X45234692Y-53103300D02*
X47595575Y-53310307D01*
X47595575Y-53310307D02*
X49934232Y-53529479D01*
X49934232Y-53529479D02*
X52235533Y-53758053D01*
X52235533Y-53758053D02*
X54484345Y-53993269D01*
X54484345Y-53993269D02*
X56665539Y-54232367D01*
X56665539Y-54232367D02*
X58763982Y-54472584D01*
X58763982Y-54472584D02*
X60764543Y-54711160D01*
X60764543Y-54711160D02*
X62652091Y-54945335D01*
X62652091Y-54945335D02*
X64411495Y-55172346D01*
X64411495Y-55172346D02*
X66027623Y-55389433D01*
X66027623Y-55389433D02*
X67485344Y-55593834D01*
X67485344Y-55593834D02*
X68769527Y-55782790D01*
X68769527Y-55782790D02*
X69865041Y-55953538D01*
X69865041Y-55953538D02*
X70756754Y-56103319D01*
X149700000Y-58204245D02*
X131800000Y-58200000D01*
D11*
X71987614Y-126894526D02*
X122212812Y-135750587D01*
M02*
