G04 #@! TF.GenerationSoftware,KiCad,Pcbnew,5.1.8*
G04 #@! TF.CreationDate,2021-02-19T14:28:04-06:00*
G04 #@! TF.ProjectId,steno,7374656e-6f2e-46b6-9963-61645f706362,rev?*
G04 #@! TF.SameCoordinates,Original*
G04 #@! TF.FileFunction,Legend,Top*
G04 #@! TF.FilePolarity,Positive*
%FSLAX46Y46*%
G04 Gerber Fmt 4.6, Leading zero omitted, Abs format (unit mm)*
G04 Created by KiCad (PCBNEW 5.1.8) date 2021-02-19 14:28:04*
%MOMM*%
%LPD*%
G01*
G04 APERTURE LIST*
%ADD10C,0.150000*%
%ADD11C,0.250000*%
%ADD12C,0.120000*%
%ADD13C,0.010000*%
%ADD14C,0.300000*%
%ADD15C,0.127000*%
G04 APERTURE END LIST*
D10*
X168620067Y-111878355D02*
X168807649Y-111845279D01*
X168909709Y-111875637D01*
X169020038Y-111952890D01*
X169100010Y-112132203D01*
X169157893Y-112460473D01*
X169144073Y-112656324D01*
X169066820Y-112766653D01*
X168981297Y-112830087D01*
X168793715Y-112863162D01*
X168691655Y-112832805D01*
X168581326Y-112755551D01*
X168501354Y-112576238D01*
X168443471Y-112247969D01*
X168457291Y-112052117D01*
X168534544Y-111941788D01*
X168620067Y-111878355D01*
X169522070Y-112057783D02*
X169695719Y-113042590D01*
X169530339Y-112104678D02*
X169615862Y-112041245D01*
X169803444Y-112008169D01*
X169905504Y-112038527D01*
X169960669Y-112077153D01*
X170024102Y-112162675D01*
X170073716Y-112444049D01*
X170043358Y-112546109D01*
X170004732Y-112601274D01*
X169919209Y-112664707D01*
X169731627Y-112697783D01*
X169629567Y-112667426D01*
X170895748Y-112444164D02*
X170810226Y-112507597D01*
X170622644Y-112540673D01*
X170520583Y-112510315D01*
X170457150Y-112424793D01*
X170390998Y-112049628D01*
X170421356Y-111947568D01*
X170506878Y-111884134D01*
X170694461Y-111851059D01*
X170796521Y-111881416D01*
X170859954Y-111966939D01*
X170876492Y-112060730D01*
X170424074Y-112237211D01*
X171257208Y-111751831D02*
X171372973Y-112408370D01*
X171273746Y-111845622D02*
X171312372Y-111790458D01*
X171397895Y-111727024D01*
X171538581Y-111702217D01*
X171640642Y-111732575D01*
X171704075Y-111818097D01*
X171795034Y-112333949D01*
X172959155Y-112080329D02*
X173061215Y-112110687D01*
X173248798Y-112077611D01*
X173334320Y-112014178D01*
X173364677Y-111912117D01*
X173356409Y-111865222D01*
X173292975Y-111779700D01*
X173190915Y-111749342D01*
X173050228Y-111774149D01*
X172948168Y-111743791D01*
X172884734Y-111658269D01*
X172876465Y-111611373D01*
X172906823Y-111509313D01*
X172992345Y-111445880D01*
X173133032Y-111421073D01*
X173235092Y-111451430D01*
X173952232Y-111953577D02*
X173850171Y-111923219D01*
X173795007Y-111884592D01*
X173731573Y-111799070D01*
X173681960Y-111517697D01*
X173712317Y-111415636D01*
X173750944Y-111360472D01*
X173836466Y-111297038D01*
X173977153Y-111272231D01*
X174079213Y-111302589D01*
X174134378Y-111341216D01*
X174197811Y-111426738D01*
X174247425Y-111708112D01*
X174217067Y-111810172D01*
X174178441Y-111865336D01*
X174092918Y-111928770D01*
X173952232Y-111953577D01*
X175008856Y-111090314D02*
X175124622Y-111746853D01*
X174586796Y-111164735D02*
X174677754Y-111680587D01*
X174741188Y-111766109D01*
X174843248Y-111796466D01*
X174983935Y-111771660D01*
X175069457Y-111708226D01*
X175108084Y-111653061D01*
X175593578Y-111664163D02*
X175477812Y-111007625D01*
X175510888Y-111195207D02*
X175541246Y-111093147D01*
X175579873Y-111037982D01*
X175665395Y-110974549D01*
X175759186Y-110958011D01*
X176617012Y-111435350D02*
X176531490Y-111498784D01*
X176343908Y-111531860D01*
X176241847Y-111501502D01*
X176186683Y-111462875D01*
X176123249Y-111377353D01*
X176073636Y-111095979D01*
X176103993Y-110993919D01*
X176142620Y-110938755D01*
X176228142Y-110875321D01*
X176415725Y-110842245D01*
X176517785Y-110872603D01*
X177414238Y-111294778D02*
X177328715Y-111358212D01*
X177141133Y-111391287D01*
X177039073Y-111360930D01*
X176975639Y-111275407D01*
X176909488Y-110900243D01*
X176939845Y-110798182D01*
X177025367Y-110734749D01*
X177212950Y-110701673D01*
X177315010Y-110732031D01*
X177378444Y-110817553D01*
X177394982Y-110911344D01*
X176942563Y-111087825D01*
X178313523Y-111184563D02*
X178139875Y-110199756D01*
X178305254Y-111137668D02*
X178219732Y-111201101D01*
X178032149Y-111234177D01*
X177930089Y-111203819D01*
X177874925Y-111165193D01*
X177811491Y-111079671D01*
X177761877Y-110798297D01*
X177792235Y-110696237D01*
X177830862Y-110641072D01*
X177916384Y-110577639D01*
X178103966Y-110544563D01*
X178206027Y-110574920D01*
X180059762Y-110393118D02*
X180004598Y-110354491D01*
X179902537Y-110324133D01*
X179808746Y-110340671D01*
X179723224Y-110404105D01*
X179684597Y-110459270D01*
X179654240Y-110561330D01*
X179670778Y-110655121D01*
X179734211Y-110740643D01*
X179789376Y-110779270D01*
X179891436Y-110809627D01*
X179985227Y-110793090D01*
X180070749Y-110729656D01*
X180109376Y-110674491D01*
X180043224Y-110299327D02*
X180109376Y-110674491D01*
X180164541Y-110713118D01*
X180211436Y-110704849D01*
X180296958Y-110641416D01*
X180327316Y-110539355D01*
X180285971Y-110304877D01*
X180167373Y-110180729D01*
X180010148Y-110111744D01*
X179814297Y-110097924D01*
X179634984Y-110177896D01*
X179510835Y-110296494D01*
X179441850Y-110453719D01*
X179428031Y-110649570D01*
X179508002Y-110828884D01*
X179626600Y-110953032D01*
X179783825Y-111022017D01*
X179979676Y-111035837D01*
X180158990Y-110955865D01*
X180283139Y-110837267D01*
X181855615Y-109883046D02*
X181996187Y-110680271D01*
X181965830Y-110782331D01*
X181927203Y-110837496D01*
X181841681Y-110900930D01*
X181700994Y-110925736D01*
X181598934Y-110895379D01*
X181963112Y-110492689D02*
X181877589Y-110556122D01*
X181690007Y-110589198D01*
X181587947Y-110558841D01*
X181532782Y-110520214D01*
X181469349Y-110434692D01*
X181419735Y-110153318D01*
X181450093Y-110051258D01*
X181488719Y-109996093D01*
X181574241Y-109932660D01*
X181761824Y-109899584D01*
X181863884Y-109929942D01*
X182440337Y-110456895D02*
X182324571Y-109800356D01*
X182266688Y-109472087D02*
X182228062Y-109527252D01*
X182283226Y-109565878D01*
X182321853Y-109510714D01*
X182266688Y-109472087D01*
X182283226Y-109565878D01*
X182652840Y-109742474D02*
X183028005Y-109676322D01*
X182735644Y-109389397D02*
X182884486Y-110233518D01*
X182947919Y-110319041D01*
X183049979Y-110349398D01*
X183143771Y-110332860D01*
X183472040Y-110274978D02*
X183298392Y-109290170D01*
X183894100Y-110200557D02*
X183803142Y-109684705D01*
X183739708Y-109599183D01*
X183637648Y-109568825D01*
X183496961Y-109593632D01*
X183411439Y-109657066D01*
X183372812Y-109712230D01*
X184669351Y-109386908D02*
X184785117Y-110043447D01*
X184247291Y-109461329D02*
X184338250Y-109977181D01*
X184401683Y-110062703D01*
X184503743Y-110093061D01*
X184644430Y-110068254D01*
X184729952Y-110004820D01*
X184768579Y-109949656D01*
X185254073Y-109960757D02*
X185080425Y-108975949D01*
X185146577Y-109351114D02*
X185232099Y-109287681D01*
X185419681Y-109254605D01*
X185521741Y-109284963D01*
X185576906Y-109323589D01*
X185640339Y-109409111D01*
X185689953Y-109690485D01*
X185659596Y-109792545D01*
X185620969Y-109847710D01*
X185535447Y-109911143D01*
X185347864Y-109944219D01*
X185245804Y-109913862D01*
X186128552Y-109709856D02*
X186183716Y-109748482D01*
X186145090Y-109803647D01*
X186089925Y-109765020D01*
X186128552Y-109709856D01*
X186145090Y-109803647D01*
X187027837Y-109599641D02*
X186942315Y-109663075D01*
X186754732Y-109696150D01*
X186652672Y-109665793D01*
X186597508Y-109627166D01*
X186534074Y-109541644D01*
X186484460Y-109260270D01*
X186514818Y-109158210D01*
X186553445Y-109103045D01*
X186638967Y-109039612D01*
X186826549Y-109006536D01*
X186928610Y-109036894D01*
X187598853Y-109547309D02*
X187496793Y-109516951D01*
X187441629Y-109478325D01*
X187378195Y-109392803D01*
X187328581Y-109111429D01*
X187358939Y-109009369D01*
X187397566Y-108954204D01*
X187483088Y-108890771D01*
X187623775Y-108865964D01*
X187725835Y-108896321D01*
X187780999Y-108934948D01*
X187844433Y-109020470D01*
X187894047Y-109301844D01*
X187863689Y-109403904D01*
X187825062Y-109459069D01*
X187739540Y-109522502D01*
X187598853Y-109547309D01*
X188349183Y-109415006D02*
X188233418Y-108758467D01*
X188249956Y-108852258D02*
X188288582Y-108797094D01*
X188374104Y-108733660D01*
X188514791Y-108708853D01*
X188616851Y-108739211D01*
X188680285Y-108824733D01*
X188771244Y-109340585D01*
X188680285Y-108824733D02*
X188710643Y-108722673D01*
X188796165Y-108659240D01*
X188936852Y-108634433D01*
X189038912Y-108664791D01*
X189102345Y-108750313D01*
X189193304Y-109266164D01*
X190183777Y-108027737D02*
X189562918Y-109442760D01*
X191107755Y-108880241D02*
X191022233Y-108943675D01*
X190834650Y-108976751D01*
X190732590Y-108946393D01*
X190677426Y-108907766D01*
X190613992Y-108822244D01*
X190564378Y-108540871D01*
X190594736Y-108438810D01*
X190633363Y-108383646D01*
X190718885Y-108320212D01*
X190906467Y-108287136D01*
X191008527Y-108317494D01*
X191538084Y-108852716D02*
X191422319Y-108196178D01*
X191455395Y-108383760D02*
X191485752Y-108281700D01*
X191524379Y-108226536D01*
X191609901Y-108163102D01*
X191703693Y-108146564D01*
X192147727Y-108745220D02*
X192031962Y-108088681D01*
X191974079Y-107760412D02*
X191935452Y-107815577D01*
X191990617Y-107854203D01*
X192029244Y-107799039D01*
X191974079Y-107760412D01*
X191990617Y-107854203D01*
X193038744Y-108588110D02*
X192865096Y-107603302D01*
X193030475Y-108541214D02*
X192944953Y-108604648D01*
X192757370Y-108637723D01*
X192655310Y-108607366D01*
X192600145Y-108568739D01*
X192536712Y-108483217D01*
X192487098Y-108201843D01*
X192517456Y-108099783D01*
X192556082Y-108044618D01*
X192641605Y-107981185D01*
X192829187Y-107948109D01*
X192931247Y-107978467D01*
X193874596Y-108392373D02*
X193789074Y-108455806D01*
X193601491Y-108488882D01*
X193499431Y-108458524D01*
X193435997Y-108373002D01*
X193369846Y-107997837D01*
X193400203Y-107895777D01*
X193485726Y-107832344D01*
X193673308Y-107799268D01*
X193775368Y-107829625D01*
X193838802Y-107915148D01*
X193855340Y-108008939D01*
X193402922Y-108185420D01*
X194296656Y-108317952D02*
X194398716Y-108348310D01*
X194586299Y-108315234D01*
X194671821Y-108251800D01*
X194702179Y-108149740D01*
X194693910Y-108102845D01*
X194630476Y-108017322D01*
X194528416Y-107986965D01*
X194387729Y-108011772D01*
X194285669Y-107981414D01*
X194222236Y-107895892D01*
X194213967Y-107848996D01*
X194244324Y-107746936D01*
X194329847Y-107683502D01*
X194470533Y-107658695D01*
X194572594Y-107689053D01*
X195670563Y-107060269D02*
X195049704Y-108475291D01*
X196125585Y-107995463D02*
X196227645Y-108025820D01*
X196415228Y-107992744D01*
X196500750Y-107929311D01*
X196531107Y-107827251D01*
X196522839Y-107780355D01*
X196459405Y-107694833D01*
X196357345Y-107664475D01*
X196216658Y-107689282D01*
X196114598Y-107658924D01*
X196051164Y-107573402D01*
X196042895Y-107526507D01*
X196073253Y-107424446D01*
X196158775Y-107361013D01*
X196299462Y-107336206D01*
X196401522Y-107366564D01*
X196721523Y-107261785D02*
X197096687Y-107195634D01*
X196804327Y-106908709D02*
X196953168Y-107752830D01*
X197016601Y-107838352D01*
X197118662Y-107868710D01*
X197212453Y-107852172D01*
X197907618Y-107681242D02*
X197822096Y-107744676D01*
X197634513Y-107777752D01*
X197532453Y-107747394D01*
X197469020Y-107661872D01*
X197402868Y-107286707D01*
X197433226Y-107184647D01*
X197518748Y-107121213D01*
X197706330Y-107088137D01*
X197808390Y-107118495D01*
X197871824Y-107204017D01*
X197888362Y-107297808D01*
X197435944Y-107474289D01*
X198269078Y-106988910D02*
X198384843Y-107645448D01*
X198285616Y-107082701D02*
X198324242Y-107027536D01*
X198409764Y-106964103D01*
X198550451Y-106939296D01*
X198652511Y-106969654D01*
X198715945Y-107055176D01*
X198806904Y-107571027D01*
X199416546Y-107463531D02*
X199314486Y-107433173D01*
X199259322Y-107394547D01*
X199195888Y-107309024D01*
X199146274Y-107027651D01*
X199176632Y-106925591D01*
X199215259Y-106870426D01*
X199300781Y-106806992D01*
X199441468Y-106782186D01*
X199543528Y-106812543D01*
X199598693Y-106851170D01*
X199662126Y-106936692D01*
X199711740Y-107218066D01*
X199681382Y-107320126D01*
X199642755Y-107375291D01*
X199557233Y-107438724D01*
X199416546Y-107463531D01*
D11*
X162991599Y-107222969D02*
X163259719Y-107262729D01*
X163359015Y-107332257D01*
X163473196Y-107486197D01*
X163517848Y-107739433D01*
X163463204Y-107923141D01*
X163393676Y-108022438D01*
X163239736Y-108136618D01*
X162564439Y-108255691D01*
X162251873Y-106483037D01*
X162842757Y-106378848D01*
X163026466Y-106433492D01*
X163125762Y-106503020D01*
X163239942Y-106656960D01*
X163269711Y-106825784D01*
X163215067Y-107009492D01*
X163145539Y-107108789D01*
X162991599Y-107222969D01*
X162400714Y-107327158D01*
X165096802Y-107809167D02*
X164933077Y-106880634D01*
X164818896Y-106726694D01*
X164635188Y-106672050D01*
X164297540Y-106731587D01*
X164143600Y-106845767D01*
X165081918Y-107724755D02*
X164927978Y-107838935D01*
X164505918Y-107913356D01*
X164322209Y-107858712D01*
X164208029Y-107704772D01*
X164178261Y-107535948D01*
X164232905Y-107352240D01*
X164386845Y-107238059D01*
X164808905Y-107163639D01*
X164962845Y-107049458D01*
X165479309Y-106523209D02*
X166154606Y-106404136D01*
X165628356Y-105887672D02*
X165896271Y-107407089D01*
X166010451Y-107561030D01*
X166194159Y-107615673D01*
X166362984Y-107585905D01*
X166472477Y-105738830D02*
X167207105Y-107437064D01*
X167321491Y-106111346D01*
X167882401Y-107317991D01*
X167991895Y-105470916D01*
X168979759Y-107124497D02*
X168771381Y-105942728D01*
X168667192Y-105351843D02*
X168597664Y-105451139D01*
X168696960Y-105520667D01*
X168766488Y-105421371D01*
X168667192Y-105351843D01*
X168696960Y-105520667D01*
X169615502Y-105793886D02*
X169823879Y-106975656D01*
X169645270Y-105962711D02*
X169714798Y-105863414D01*
X169868738Y-105749234D01*
X170121974Y-105704582D01*
X170305683Y-105759226D01*
X170419863Y-105913166D01*
X170583588Y-106841699D01*
X171979040Y-105377131D02*
X172232070Y-106812136D01*
X172177427Y-106995845D01*
X172107899Y-107095141D01*
X171953959Y-107209321D01*
X171700722Y-107253974D01*
X171517014Y-107199330D01*
X172172534Y-106474488D02*
X172018594Y-106588668D01*
X171680946Y-106648205D01*
X171497237Y-106593561D01*
X171397941Y-106524033D01*
X171283761Y-106370093D01*
X171194456Y-105863621D01*
X171249100Y-105679912D01*
X171318628Y-105580616D01*
X171472568Y-105466436D01*
X171810216Y-105406899D01*
X171993924Y-105461543D01*
X172932243Y-106340531D02*
X173115951Y-106395175D01*
X173453599Y-106335638D01*
X173607540Y-106221458D01*
X173662183Y-106037750D01*
X173647299Y-105953337D01*
X173533119Y-105799397D01*
X173349411Y-105744754D01*
X173096174Y-105789406D01*
X172912466Y-105734762D01*
X172798286Y-105580822D01*
X172783401Y-105496410D01*
X172838045Y-105312702D01*
X172991985Y-105198521D01*
X173245222Y-105153869D01*
X173428930Y-105208513D01*
X162912976Y-110232341D02*
X163503861Y-110128152D01*
X163920822Y-111012033D02*
X163076701Y-111160874D01*
X162764135Y-109388220D01*
X163608256Y-109239379D01*
X164680531Y-110878075D02*
X164472153Y-109696306D01*
X164501922Y-109865130D02*
X164571450Y-109765834D01*
X164725390Y-109651654D01*
X164978626Y-109607001D01*
X165162334Y-109661645D01*
X165276515Y-109815585D01*
X165440240Y-110744118D01*
X165276515Y-109815585D02*
X165331158Y-109631877D01*
X165485099Y-109517697D01*
X165738335Y-109473044D01*
X165922043Y-109527688D01*
X166036223Y-109681628D01*
X166199949Y-110610161D01*
X167044070Y-110461320D02*
X166731503Y-108688666D01*
X166850576Y-109363963D02*
X167004516Y-109249782D01*
X167342165Y-109190246D01*
X167525873Y-109244890D01*
X167625169Y-109314418D01*
X167739349Y-109468358D01*
X167828654Y-109974830D01*
X167774010Y-110158538D01*
X167704482Y-110257835D01*
X167550542Y-110372015D01*
X167212894Y-110431552D01*
X167029186Y-110376908D01*
X169308312Y-109975036D02*
X169154372Y-110089217D01*
X168816724Y-110148753D01*
X168633015Y-110094109D01*
X168518835Y-109940169D01*
X168399762Y-109264872D01*
X168454406Y-109081164D01*
X168608346Y-108966984D01*
X168945994Y-108907447D01*
X169129703Y-108962091D01*
X169243883Y-109116031D01*
X169273651Y-109284855D01*
X168459299Y-109602521D01*
X170927026Y-109776650D02*
X170614459Y-108003996D01*
X170912142Y-109692238D02*
X170758202Y-109806418D01*
X170420554Y-109865955D01*
X170236845Y-109811311D01*
X170137549Y-109741783D01*
X170023369Y-109587843D01*
X169934064Y-109081370D01*
X169988708Y-108897662D01*
X170058236Y-108798366D01*
X170212176Y-108684185D01*
X170549824Y-108624649D01*
X170733532Y-108679293D01*
X172530856Y-109493851D02*
X172218289Y-107721197D01*
X172515972Y-109409439D02*
X172362032Y-109523620D01*
X172024383Y-109583156D01*
X171840675Y-109528512D01*
X171741379Y-109458984D01*
X171627198Y-109305044D01*
X171537894Y-108798572D01*
X171592537Y-108614863D01*
X171662065Y-108515567D01*
X171816006Y-108401387D01*
X172153654Y-108341850D01*
X172337362Y-108396494D01*
X174035389Y-109141525D02*
X173881449Y-109255705D01*
X173543801Y-109315242D01*
X173360093Y-109260598D01*
X173245912Y-109106658D01*
X173126839Y-108431361D01*
X173181483Y-108247653D01*
X173335423Y-108133473D01*
X173673072Y-108073936D01*
X173856780Y-108128580D01*
X173970960Y-108282520D01*
X174000728Y-108451344D01*
X173186376Y-108769010D01*
X175654103Y-108943139D02*
X175341537Y-107170485D01*
X175639219Y-108858727D02*
X175485279Y-108972907D01*
X175147631Y-109032443D01*
X174963922Y-108977800D01*
X174864626Y-108908272D01*
X174750446Y-108754332D01*
X174661141Y-108247859D01*
X174715785Y-108064151D01*
X174785313Y-107964854D01*
X174939253Y-107850674D01*
X175276901Y-107791138D01*
X175460610Y-107845781D01*
X177749522Y-108486623D02*
X177933230Y-108541267D01*
X178270878Y-108481731D01*
X178424818Y-108367550D01*
X178479462Y-108183842D01*
X178464578Y-108099430D01*
X178350398Y-107945490D01*
X178166689Y-107890846D01*
X177913453Y-107935498D01*
X177729745Y-107880854D01*
X177615564Y-107726914D01*
X177600680Y-107642502D01*
X177655324Y-107458794D01*
X177809264Y-107344614D01*
X178062500Y-107299961D01*
X178246209Y-107354605D01*
X178822209Y-107166004D02*
X179497506Y-107046931D01*
X178971257Y-106530467D02*
X179239171Y-108049885D01*
X179353351Y-108203825D01*
X179537060Y-108258469D01*
X179705884Y-108228700D01*
X180957181Y-107921026D02*
X180803241Y-108035207D01*
X180465593Y-108094743D01*
X180281884Y-108040099D01*
X180167704Y-107886159D01*
X180048631Y-107210863D01*
X180103275Y-107027154D01*
X180257215Y-106912974D01*
X180594863Y-106853437D01*
X180778572Y-106908081D01*
X180892752Y-107062021D01*
X180922520Y-107230845D01*
X180108167Y-107548511D01*
X181607808Y-106674828D02*
X181816186Y-107856597D01*
X181637577Y-106843652D02*
X181707105Y-106744356D01*
X181861045Y-106630175D01*
X182114281Y-106585523D01*
X182297989Y-106640167D01*
X182412170Y-106794107D01*
X182575895Y-107722640D01*
X183673252Y-107529146D02*
X183489544Y-107474502D01*
X183390248Y-107404975D01*
X183276067Y-107251034D01*
X183186763Y-106744562D01*
X183241406Y-106560854D01*
X183310934Y-106461557D01*
X183464874Y-106347377D01*
X183718111Y-106302725D01*
X183901819Y-106357368D01*
X184001115Y-106426896D01*
X184115296Y-106580836D01*
X184204600Y-107087309D01*
X184149956Y-107271017D01*
X184080429Y-107370314D01*
X183926488Y-107484494D01*
X183673252Y-107529146D01*
X186925770Y-105737128D02*
X187178800Y-107172133D01*
X187124157Y-107355842D01*
X187054629Y-107455138D01*
X186900689Y-107569318D01*
X186647452Y-107613971D01*
X186463744Y-107559327D01*
X187119264Y-106834485D02*
X186965324Y-106948665D01*
X186627675Y-107008202D01*
X186443967Y-106953558D01*
X186344671Y-106884030D01*
X186230491Y-106730090D01*
X186141186Y-106223617D01*
X186195830Y-106039909D01*
X186265358Y-105940613D01*
X186419298Y-105826432D01*
X186756946Y-105766896D01*
X186940654Y-105821540D01*
X187978269Y-106770056D02*
X187769891Y-105588286D01*
X187665702Y-104997402D02*
X187596174Y-105096698D01*
X187695470Y-105166226D01*
X187764998Y-105066930D01*
X187665702Y-104997402D01*
X187695470Y-105166226D01*
X188445188Y-105469213D02*
X189075626Y-106576562D01*
X189289309Y-105320372D01*
X190833396Y-106179583D02*
X190679456Y-106293764D01*
X190341808Y-106353300D01*
X190158099Y-106298656D01*
X190043919Y-106144716D01*
X189924846Y-105469419D01*
X189979490Y-105285711D01*
X190133430Y-105171531D01*
X190471078Y-105111994D01*
X190654786Y-105166638D01*
X190768967Y-105320578D01*
X190798735Y-105489402D01*
X189984382Y-105807068D01*
X191593105Y-106045626D02*
X191776813Y-106100270D01*
X192114461Y-106040733D01*
X192268402Y-105926553D01*
X192323045Y-105742845D01*
X192308161Y-105658433D01*
X192193981Y-105504493D01*
X192010273Y-105449849D01*
X191757036Y-105494501D01*
X191573328Y-105439857D01*
X191459148Y-105285917D01*
X191444264Y-105201505D01*
X191498907Y-105017797D01*
X191652847Y-104903616D01*
X191906084Y-104858964D01*
X192089792Y-104913608D01*
X194100798Y-104471977D02*
X194731236Y-105579325D01*
X194944919Y-104323135D02*
X194731236Y-105579325D01*
X194636833Y-106031154D01*
X194567305Y-106130450D01*
X194413365Y-106244631D01*
X196081830Y-105341179D02*
X195898122Y-105286535D01*
X195798825Y-105217007D01*
X195684645Y-105063067D01*
X195595340Y-104556595D01*
X195649984Y-104372887D01*
X195719512Y-104273590D01*
X195873452Y-104159410D01*
X196126688Y-104114758D01*
X196310397Y-104169401D01*
X196409693Y-104238929D01*
X196523873Y-104392869D01*
X196613178Y-104899342D01*
X196558534Y-105083050D01*
X196489006Y-105182347D01*
X196335066Y-105296527D01*
X196081830Y-105341179D01*
X197983754Y-103787307D02*
X198192132Y-104969076D01*
X197224046Y-103921264D02*
X197387771Y-104849797D01*
X197501951Y-105003737D01*
X197685660Y-105058381D01*
X197938896Y-105013728D01*
X198092836Y-104899548D01*
X198162364Y-104800252D01*
X200009645Y-103430088D02*
X200555671Y-104552320D01*
X200744478Y-103648663D01*
X201230968Y-104433247D01*
X201360238Y-103191942D01*
X202243913Y-104254638D02*
X202035535Y-103072869D01*
X201931346Y-102481984D02*
X201861818Y-102581280D01*
X201961114Y-102650808D01*
X202030642Y-102551512D01*
X201931346Y-102481984D01*
X201961114Y-102650808D01*
X202879656Y-102924027D02*
X203088034Y-104105797D01*
X202909424Y-103092851D02*
X202978952Y-102993555D01*
X203132892Y-102879375D01*
X203386128Y-102834722D01*
X203569837Y-102889366D01*
X203684017Y-103043306D01*
X203847742Y-103971839D01*
X205243194Y-102507272D02*
X205496225Y-103942277D01*
X205441581Y-104125985D01*
X205372053Y-104225282D01*
X205218113Y-104339462D01*
X204964876Y-104384114D01*
X204781168Y-104329471D01*
X205436688Y-103604629D02*
X205282748Y-103718809D01*
X204945100Y-103778346D01*
X204761391Y-103723702D01*
X204662095Y-103654174D01*
X204547915Y-103500234D01*
X204458610Y-102993761D01*
X204513254Y-102810053D01*
X204582782Y-102710757D01*
X204736722Y-102596576D01*
X205074370Y-102537040D01*
X205258079Y-102591684D01*
X206196397Y-103470672D02*
X206380105Y-103525315D01*
X206717754Y-103465779D01*
X206871694Y-103351599D01*
X206926337Y-103167890D01*
X206911453Y-103083478D01*
X206797273Y-102929538D01*
X206613565Y-102874894D01*
X206360328Y-102919547D01*
X206176620Y-102864903D01*
X206062440Y-102710963D01*
X206047556Y-102626551D01*
X206102199Y-102442842D01*
X206256140Y-102328662D01*
X206509376Y-102284010D01*
X206693084Y-102338653D01*
X207700930Y-103118345D02*
X207800227Y-103187873D01*
X207730699Y-103287169D01*
X207631402Y-103217641D01*
X207700930Y-103118345D01*
X207730699Y-103287169D01*
X207611626Y-102611873D02*
X207348604Y-101613812D01*
X207418132Y-101514515D01*
X207517428Y-101584043D01*
X207611626Y-102611873D01*
X207418132Y-101514515D01*
D12*
X170589927Y-94589655D02*
X170937224Y-96559270D01*
X170937224Y-96559270D02*
X174777974Y-95882042D01*
X170589927Y-94589655D02*
X174430678Y-93912427D01*
X188168747Y-91490035D02*
X188516044Y-93459650D01*
X188516044Y-93459650D02*
X192356794Y-92782422D01*
X188168747Y-91490035D02*
X192009498Y-90812807D01*
X205522062Y-85383899D02*
X205869359Y-87353514D01*
X205869359Y-87353514D02*
X209710109Y-86676286D01*
X205522062Y-85383899D02*
X209362813Y-84706671D01*
X223769547Y-85212654D02*
X224116844Y-87182269D01*
X224116844Y-87182269D02*
X227957594Y-86505041D01*
X223769547Y-85212654D02*
X227610298Y-84535426D01*
X242364326Y-87011025D02*
X242711623Y-88980640D01*
X242711623Y-88980640D02*
X246552373Y-88303412D01*
X242364326Y-87011025D02*
X246205077Y-86333797D01*
X260090866Y-83885358D02*
X260438163Y-85854973D01*
X260438163Y-85854973D02*
X264278913Y-85177745D01*
X260090866Y-83885358D02*
X263931617Y-83208130D01*
X167637914Y-77847928D02*
X167985211Y-79817543D01*
X167985211Y-79817543D02*
X171825961Y-79140315D01*
X167637914Y-77847928D02*
X171478665Y-77170700D01*
X185364452Y-74722260D02*
X185711749Y-76691875D01*
X185711749Y-76691875D02*
X189552499Y-76014647D01*
X185364452Y-74722260D02*
X189205203Y-74045032D01*
X202535320Y-68445207D02*
X202882617Y-70414822D01*
X202882617Y-70414822D02*
X206723367Y-69737594D01*
X202535320Y-68445207D02*
X206376071Y-67767979D01*
X220817534Y-68470926D02*
X221164831Y-70440541D01*
X221164831Y-70440541D02*
X225005581Y-69763313D01*
X220817534Y-68470926D02*
X224658285Y-67793698D01*
X239412313Y-70269298D02*
X239759610Y-72238913D01*
X239759610Y-72238913D02*
X243600360Y-71561685D01*
X239412313Y-70269298D02*
X243253064Y-69592070D01*
X257138854Y-67143629D02*
X257486151Y-69113244D01*
X257486151Y-69113244D02*
X261326901Y-68436016D01*
X257138854Y-67143629D02*
X260979605Y-66466401D01*
X163285890Y-130909776D02*
X163633187Y-132879391D01*
X163633187Y-132879391D02*
X167473937Y-132202163D01*
X163285890Y-130909776D02*
X167126641Y-130232548D01*
X181012423Y-127784106D02*
X181359720Y-129753721D01*
X181359720Y-129753721D02*
X185200470Y-129076493D01*
X181012423Y-127784106D02*
X184853174Y-127106878D01*
X198738964Y-124658439D02*
X199086261Y-126628054D01*
X199086261Y-126628054D02*
X202927011Y-125950826D01*
X198738964Y-124658439D02*
X202579715Y-123981211D01*
X19345143Y-66358324D02*
X23185893Y-67035552D01*
X18997846Y-68327939D02*
X22838597Y-69005167D01*
X19345143Y-66358324D02*
X18997846Y-68327939D01*
X113198106Y-130124471D02*
X117038856Y-130801699D01*
X112850809Y-132094086D02*
X116691560Y-132771314D01*
X113198106Y-130124471D02*
X112850809Y-132094086D01*
X95471568Y-126998804D02*
X99312318Y-127676032D01*
X95124271Y-128968419D02*
X98965022Y-129645647D01*
X95471568Y-126998804D02*
X95124271Y-128968419D01*
X77745027Y-123873137D02*
X81585777Y-124550365D01*
X77397730Y-125842752D02*
X81238481Y-126519980D01*
X77745027Y-123873137D02*
X77397730Y-125842752D01*
X105894063Y-93804355D02*
X105546766Y-95773970D01*
X105546766Y-95773970D02*
X109387517Y-96451198D01*
X105894063Y-93804355D02*
X109734813Y-94481583D01*
X88167524Y-90678686D02*
X87820227Y-92648301D01*
X87820227Y-92648301D02*
X91660978Y-93325529D01*
X88167524Y-90678686D02*
X92008274Y-91355914D01*
X70961930Y-84598597D02*
X70614633Y-86568212D01*
X70614633Y-86568212D02*
X74455384Y-87245440D01*
X70961930Y-84598597D02*
X74802680Y-85275825D01*
X52714445Y-84427353D02*
X56555195Y-85104581D01*
X52367148Y-86396968D02*
X56207899Y-87074196D01*
X52714445Y-84427353D02*
X52367148Y-86396968D01*
X34119664Y-86225723D02*
X37960414Y-86902951D01*
X33772367Y-88195338D02*
X37613118Y-88872566D01*
X34119664Y-86225723D02*
X33772367Y-88195338D01*
X16393126Y-83100056D02*
X20233876Y-83777284D01*
X16045829Y-85069671D02*
X19886580Y-85746899D01*
X16393126Y-83100056D02*
X16045829Y-85069671D01*
X108846083Y-77062621D02*
X112686833Y-77739849D01*
X108498786Y-79032236D02*
X112339537Y-79709464D01*
X108846083Y-77062621D02*
X108498786Y-79032236D01*
X91154274Y-73739993D02*
X94995024Y-74417221D01*
X90806977Y-75709608D02*
X94647728Y-76386836D01*
X91154274Y-73739993D02*
X90806977Y-75709608D01*
X73913948Y-67856864D02*
X77754698Y-68534092D01*
X73566651Y-69826479D02*
X77407402Y-70503707D01*
X73913948Y-67856864D02*
X73566651Y-69826479D01*
X55666463Y-67685620D02*
X59507213Y-68362848D01*
X55319166Y-69655235D02*
X59159917Y-70332463D01*
X55666463Y-67685620D02*
X55319166Y-69655235D01*
X37071683Y-69483993D02*
X40912433Y-70161221D01*
X36724386Y-71453608D02*
X40565137Y-72130836D01*
X37071683Y-69483993D02*
X36724386Y-71453608D01*
X160463327Y-119910080D02*
X160463327Y-64710080D01*
X152913327Y-119910080D02*
X160463327Y-119910080D01*
X152913327Y-119610080D02*
X152913327Y-119910080D01*
X127913327Y-119610080D02*
X152913327Y-119610080D01*
X127913327Y-119910080D02*
X127913327Y-119610080D01*
X120363327Y-119910080D02*
X127913327Y-119910080D01*
X120363327Y-64710080D02*
X120363327Y-119910080D01*
X160463327Y-64710080D02*
X120363327Y-64710080D01*
X134813328Y-62722239D02*
X134513328Y-62722239D01*
X134813328Y-59422239D02*
X134813328Y-62722239D01*
X134513328Y-59422239D02*
X134813328Y-59422239D01*
X132013328Y-62722239D02*
X132313328Y-62722239D01*
X132013328Y-59422239D02*
X132013328Y-62722239D01*
X132313328Y-59422239D02*
X132013328Y-59422239D01*
D13*
G36*
X194551334Y-96158581D02*
G01*
X194577512Y-96156790D01*
X194647557Y-96151432D01*
X194752402Y-96140934D01*
X194876502Y-96126937D01*
X194976237Y-96114701D01*
X195101241Y-96100727D01*
X195215935Y-96091400D01*
X195306130Y-96087678D01*
X195351710Y-96089455D01*
X195414901Y-96092926D01*
X195454216Y-96085659D01*
X195455863Y-96084437D01*
X195488939Y-96076887D01*
X195558114Y-96072882D01*
X195648764Y-96073236D01*
X195653716Y-96073387D01*
X195749956Y-96073065D01*
X195830239Y-96066761D01*
X195877215Y-96055841D01*
X195877262Y-96055817D01*
X195930141Y-96045932D01*
X196003917Y-96051209D01*
X196019433Y-96054263D01*
X196081610Y-96064404D01*
X196170198Y-96072385D01*
X196291164Y-96078501D01*
X196450480Y-96083047D01*
X196654114Y-96086318D01*
X196673533Y-96086545D01*
X196774247Y-96089220D01*
X196875747Y-96094149D01*
X196894324Y-96095392D01*
X196986020Y-96101151D01*
X197092063Y-96106674D01*
X197128727Y-96108302D01*
X197212577Y-96114145D01*
X197279831Y-96122947D01*
X197301124Y-96127946D01*
X197348547Y-96136541D01*
X197427441Y-96144077D01*
X197498089Y-96147947D01*
X197588425Y-96155118D01*
X197662600Y-96167735D01*
X197696500Y-96179274D01*
X197758076Y-96196227D01*
X197789478Y-96194626D01*
X197849966Y-96191090D01*
X197918085Y-96196790D01*
X197979847Y-96205742D01*
X198074682Y-96218736D01*
X198185268Y-96233411D01*
X198221990Y-96238185D01*
X198389859Y-96261271D01*
X198541898Y-96284812D01*
X198668152Y-96307110D01*
X198758668Y-96326475D01*
X198786661Y-96334282D01*
X198843403Y-96344595D01*
X198867316Y-96343791D01*
X198910565Y-96346793D01*
X198980673Y-96361207D01*
X199012847Y-96369714D01*
X199085265Y-96387988D01*
X199137416Y-96397177D01*
X199148870Y-96397314D01*
X199182888Y-96401891D01*
X199251346Y-96417386D01*
X199340043Y-96440058D01*
X199434781Y-96466166D01*
X199521360Y-96491973D01*
X199572196Y-96508807D01*
X199631237Y-96527885D01*
X199726951Y-96556674D01*
X199846971Y-96591610D01*
X199978935Y-96629128D01*
X200110479Y-96665664D01*
X200203911Y-96690940D01*
X200288626Y-96715748D01*
X200350318Y-96738059D01*
X200376053Y-96753174D01*
X200376144Y-96753518D01*
X200399898Y-96769765D01*
X200459672Y-96796435D01*
X200543213Y-96828138D01*
X200555302Y-96832390D01*
X200647239Y-96866866D01*
X200722969Y-96899659D01*
X200766916Y-96923990D01*
X200768239Y-96925064D01*
X200815278Y-96949018D01*
X200837709Y-96950657D01*
X200879400Y-96958842D01*
X200941219Y-96986355D01*
X200955593Y-96994350D01*
X201014336Y-97025386D01*
X201053258Y-97040521D01*
X201057776Y-97040812D01*
X201087018Y-97050506D01*
X201147656Y-97078780D01*
X201226674Y-97119560D01*
X201228196Y-97120378D01*
X201333144Y-97176230D01*
X201443945Y-97234368D01*
X201512957Y-97270053D01*
X201633244Y-97333250D01*
X201756868Y-97400987D01*
X201874743Y-97467968D01*
X201977784Y-97528899D01*
X202056903Y-97578483D01*
X202103016Y-97611428D01*
X202109282Y-97617549D01*
X202145797Y-97643989D01*
X202160840Y-97645859D01*
X202197354Y-97655538D01*
X202253039Y-97684996D01*
X202258847Y-97688682D01*
X202306032Y-97723883D01*
X202314922Y-97750273D01*
X202300623Y-97772865D01*
X202260270Y-97798606D01*
X202187567Y-97827691D01*
X202116524Y-97848871D01*
X202026973Y-97875668D01*
X201952417Y-97904852D01*
X201917110Y-97924578D01*
X201869591Y-97952976D01*
X201792289Y-97990429D01*
X201713219Y-98024189D01*
X201629640Y-98060704D01*
X201565168Y-98094497D01*
X201535138Y-98116934D01*
X201496279Y-98143217D01*
X201444225Y-98159095D01*
X201394827Y-98174287D01*
X201377774Y-98191795D01*
X201360385Y-98214883D01*
X201310697Y-98260429D01*
X201237355Y-98320819D01*
X201185458Y-98361113D01*
X201091820Y-98435911D01*
X201007050Y-98509992D01*
X200944362Y-98571552D01*
X200926847Y-98592065D01*
X200883774Y-98644290D01*
X200852989Y-98674333D01*
X200848014Y-98676893D01*
X200821523Y-98699680D01*
X200774026Y-98757855D01*
X200711218Y-98843585D01*
X200638793Y-98949039D01*
X200562448Y-99066387D01*
X200547524Y-99090092D01*
X200407786Y-99338346D01*
X200273337Y-99626534D01*
X200190911Y-99831036D01*
X200159195Y-99916525D01*
X200131797Y-99996404D01*
X200104896Y-100083237D01*
X200074667Y-100189587D01*
X200037289Y-100328017D01*
X200020962Y-100389578D01*
X199995083Y-100477475D01*
X199972187Y-100522655D01*
X199945811Y-100532315D01*
X199909540Y-100513682D01*
X199876127Y-100478923D01*
X199869911Y-100464464D01*
X199853774Y-100435218D01*
X199812166Y-100372146D01*
X199749984Y-100282145D01*
X199672122Y-100172115D01*
X199583477Y-100048952D01*
X199488945Y-99919555D01*
X199393422Y-99790823D01*
X199363584Y-99751081D01*
X199295010Y-99663790D01*
X199227315Y-99583806D01*
X199174373Y-99527471D01*
X199171351Y-99524623D01*
X199122519Y-99471339D01*
X199094207Y-99425499D01*
X199092321Y-99418806D01*
X199064648Y-99380249D01*
X199045431Y-99372287D01*
X199008356Y-99343791D01*
X198996566Y-99314571D01*
X198967404Y-99267227D01*
X198933335Y-99246791D01*
X198880195Y-99210215D01*
X198853269Y-99171596D01*
X198821030Y-99124795D01*
X198794029Y-99107722D01*
X198761465Y-99085255D01*
X198711495Y-99033720D01*
X198667241Y-98979909D01*
X198528104Y-98819819D01*
X198386374Y-98693200D01*
X198337801Y-98646410D01*
X198292442Y-98593699D01*
X198250153Y-98549179D01*
X198179962Y-98485349D01*
X198094513Y-98413514D01*
X198061160Y-98386854D01*
X197980567Y-98321546D01*
X197917396Y-98266841D01*
X197880883Y-98230905D01*
X197875535Y-98222706D01*
X197850787Y-98203997D01*
X197819514Y-98197544D01*
X197771256Y-98171487D01*
X197757945Y-98140912D01*
X197735037Y-98100813D01*
X197710570Y-98095268D01*
X197668847Y-98081353D01*
X197638966Y-98049862D01*
X197584999Y-97981830D01*
X197529979Y-97937735D01*
X197491794Y-97927509D01*
X197461540Y-97913899D01*
X197458528Y-97905561D01*
X197436753Y-97876514D01*
X197385940Y-97830877D01*
X197342756Y-97797511D01*
X197274484Y-97747173D01*
X197180318Y-97677114D01*
X197074890Y-97598240D01*
X197009168Y-97548852D01*
X196917040Y-97481373D01*
X196838941Y-97427683D01*
X196784122Y-97393924D01*
X196762999Y-97385427D01*
X196729817Y-97373411D01*
X196676879Y-97338392D01*
X196661954Y-97326684D01*
X196602383Y-97285747D01*
X196553242Y-97264253D01*
X196545864Y-97263330D01*
X196502827Y-97245453D01*
X196452649Y-97202950D01*
X196451564Y-97201768D01*
X196406150Y-97160802D01*
X196372054Y-97144938D01*
X196370810Y-97145078D01*
X196324928Y-97134857D01*
X196270462Y-97102557D01*
X196230825Y-97063592D01*
X196224149Y-97048506D01*
X196197664Y-97020248D01*
X196150070Y-97002868D01*
X196104189Y-96984830D01*
X196092827Y-96961969D01*
X196079880Y-96937563D01*
X196038175Y-96921564D01*
X195980637Y-96903623D01*
X195951339Y-96885340D01*
X195910945Y-96868994D01*
X195884367Y-96869767D01*
X195834787Y-96859213D01*
X195816589Y-96841395D01*
X195787743Y-96819418D01*
X195773367Y-96823941D01*
X195743305Y-96820637D01*
X195695506Y-96788611D01*
X195682696Y-96777084D01*
X195627151Y-96735592D01*
X195579417Y-96718003D01*
X195572929Y-96718347D01*
X195529578Y-96708522D01*
X195465900Y-96675482D01*
X195433333Y-96653693D01*
X195372752Y-96614551D01*
X195329570Y-96595274D01*
X195318638Y-96595746D01*
X195290169Y-96591568D01*
X195241073Y-96563058D01*
X195234206Y-96558047D01*
X195180973Y-96524045D01*
X195143902Y-96510458D01*
X195141995Y-96510622D01*
X195105950Y-96502208D01*
X195047849Y-96476202D01*
X195037917Y-96470942D01*
X194966503Y-96435856D01*
X194874328Y-96395130D01*
X194823734Y-96374406D01*
X194741789Y-96338006D01*
X194675302Y-96301455D01*
X194649737Y-96282575D01*
X194593361Y-96255298D01*
X194551089Y-96253729D01*
X194496396Y-96251166D01*
X194453086Y-96230463D01*
X194435806Y-96201447D01*
X194445441Y-96182813D01*
X194483747Y-96168696D01*
X194551334Y-96158581D01*
G37*
X194551334Y-96158581D02*
X194577512Y-96156790D01*
X194647557Y-96151432D01*
X194752402Y-96140934D01*
X194876502Y-96126937D01*
X194976237Y-96114701D01*
X195101241Y-96100727D01*
X195215935Y-96091400D01*
X195306130Y-96087678D01*
X195351710Y-96089455D01*
X195414901Y-96092926D01*
X195454216Y-96085659D01*
X195455863Y-96084437D01*
X195488939Y-96076887D01*
X195558114Y-96072882D01*
X195648764Y-96073236D01*
X195653716Y-96073387D01*
X195749956Y-96073065D01*
X195830239Y-96066761D01*
X195877215Y-96055841D01*
X195877262Y-96055817D01*
X195930141Y-96045932D01*
X196003917Y-96051209D01*
X196019433Y-96054263D01*
X196081610Y-96064404D01*
X196170198Y-96072385D01*
X196291164Y-96078501D01*
X196450480Y-96083047D01*
X196654114Y-96086318D01*
X196673533Y-96086545D01*
X196774247Y-96089220D01*
X196875747Y-96094149D01*
X196894324Y-96095392D01*
X196986020Y-96101151D01*
X197092063Y-96106674D01*
X197128727Y-96108302D01*
X197212577Y-96114145D01*
X197279831Y-96122947D01*
X197301124Y-96127946D01*
X197348547Y-96136541D01*
X197427441Y-96144077D01*
X197498089Y-96147947D01*
X197588425Y-96155118D01*
X197662600Y-96167735D01*
X197696500Y-96179274D01*
X197758076Y-96196227D01*
X197789478Y-96194626D01*
X197849966Y-96191090D01*
X197918085Y-96196790D01*
X197979847Y-96205742D01*
X198074682Y-96218736D01*
X198185268Y-96233411D01*
X198221990Y-96238185D01*
X198389859Y-96261271D01*
X198541898Y-96284812D01*
X198668152Y-96307110D01*
X198758668Y-96326475D01*
X198786661Y-96334282D01*
X198843403Y-96344595D01*
X198867316Y-96343791D01*
X198910565Y-96346793D01*
X198980673Y-96361207D01*
X199012847Y-96369714D01*
X199085265Y-96387988D01*
X199137416Y-96397177D01*
X199148870Y-96397314D01*
X199182888Y-96401891D01*
X199251346Y-96417386D01*
X199340043Y-96440058D01*
X199434781Y-96466166D01*
X199521360Y-96491973D01*
X199572196Y-96508807D01*
X199631237Y-96527885D01*
X199726951Y-96556674D01*
X199846971Y-96591610D01*
X199978935Y-96629128D01*
X200110479Y-96665664D01*
X200203911Y-96690940D01*
X200288626Y-96715748D01*
X200350318Y-96738059D01*
X200376053Y-96753174D01*
X200376144Y-96753518D01*
X200399898Y-96769765D01*
X200459672Y-96796435D01*
X200543213Y-96828138D01*
X200555302Y-96832390D01*
X200647239Y-96866866D01*
X200722969Y-96899659D01*
X200766916Y-96923990D01*
X200768239Y-96925064D01*
X200815278Y-96949018D01*
X200837709Y-96950657D01*
X200879400Y-96958842D01*
X200941219Y-96986355D01*
X200955593Y-96994350D01*
X201014336Y-97025386D01*
X201053258Y-97040521D01*
X201057776Y-97040812D01*
X201087018Y-97050506D01*
X201147656Y-97078780D01*
X201226674Y-97119560D01*
X201228196Y-97120378D01*
X201333144Y-97176230D01*
X201443945Y-97234368D01*
X201512957Y-97270053D01*
X201633244Y-97333250D01*
X201756868Y-97400987D01*
X201874743Y-97467968D01*
X201977784Y-97528899D01*
X202056903Y-97578483D01*
X202103016Y-97611428D01*
X202109282Y-97617549D01*
X202145797Y-97643989D01*
X202160840Y-97645859D01*
X202197354Y-97655538D01*
X202253039Y-97684996D01*
X202258847Y-97688682D01*
X202306032Y-97723883D01*
X202314922Y-97750273D01*
X202300623Y-97772865D01*
X202260270Y-97798606D01*
X202187567Y-97827691D01*
X202116524Y-97848871D01*
X202026973Y-97875668D01*
X201952417Y-97904852D01*
X201917110Y-97924578D01*
X201869591Y-97952976D01*
X201792289Y-97990429D01*
X201713219Y-98024189D01*
X201629640Y-98060704D01*
X201565168Y-98094497D01*
X201535138Y-98116934D01*
X201496279Y-98143217D01*
X201444225Y-98159095D01*
X201394827Y-98174287D01*
X201377774Y-98191795D01*
X201360385Y-98214883D01*
X201310697Y-98260429D01*
X201237355Y-98320819D01*
X201185458Y-98361113D01*
X201091820Y-98435911D01*
X201007050Y-98509992D01*
X200944362Y-98571552D01*
X200926847Y-98592065D01*
X200883774Y-98644290D01*
X200852989Y-98674333D01*
X200848014Y-98676893D01*
X200821523Y-98699680D01*
X200774026Y-98757855D01*
X200711218Y-98843585D01*
X200638793Y-98949039D01*
X200562448Y-99066387D01*
X200547524Y-99090092D01*
X200407786Y-99338346D01*
X200273337Y-99626534D01*
X200190911Y-99831036D01*
X200159195Y-99916525D01*
X200131797Y-99996404D01*
X200104896Y-100083237D01*
X200074667Y-100189587D01*
X200037289Y-100328017D01*
X200020962Y-100389578D01*
X199995083Y-100477475D01*
X199972187Y-100522655D01*
X199945811Y-100532315D01*
X199909540Y-100513682D01*
X199876127Y-100478923D01*
X199869911Y-100464464D01*
X199853774Y-100435218D01*
X199812166Y-100372146D01*
X199749984Y-100282145D01*
X199672122Y-100172115D01*
X199583477Y-100048952D01*
X199488945Y-99919555D01*
X199393422Y-99790823D01*
X199363584Y-99751081D01*
X199295010Y-99663790D01*
X199227315Y-99583806D01*
X199174373Y-99527471D01*
X199171351Y-99524623D01*
X199122519Y-99471339D01*
X199094207Y-99425499D01*
X199092321Y-99418806D01*
X199064648Y-99380249D01*
X199045431Y-99372287D01*
X199008356Y-99343791D01*
X198996566Y-99314571D01*
X198967404Y-99267227D01*
X198933335Y-99246791D01*
X198880195Y-99210215D01*
X198853269Y-99171596D01*
X198821030Y-99124795D01*
X198794029Y-99107722D01*
X198761465Y-99085255D01*
X198711495Y-99033720D01*
X198667241Y-98979909D01*
X198528104Y-98819819D01*
X198386374Y-98693200D01*
X198337801Y-98646410D01*
X198292442Y-98593699D01*
X198250153Y-98549179D01*
X198179962Y-98485349D01*
X198094513Y-98413514D01*
X198061160Y-98386854D01*
X197980567Y-98321546D01*
X197917396Y-98266841D01*
X197880883Y-98230905D01*
X197875535Y-98222706D01*
X197850787Y-98203997D01*
X197819514Y-98197544D01*
X197771256Y-98171487D01*
X197757945Y-98140912D01*
X197735037Y-98100813D01*
X197710570Y-98095268D01*
X197668847Y-98081353D01*
X197638966Y-98049862D01*
X197584999Y-97981830D01*
X197529979Y-97937735D01*
X197491794Y-97927509D01*
X197461540Y-97913899D01*
X197458528Y-97905561D01*
X197436753Y-97876514D01*
X197385940Y-97830877D01*
X197342756Y-97797511D01*
X197274484Y-97747173D01*
X197180318Y-97677114D01*
X197074890Y-97598240D01*
X197009168Y-97548852D01*
X196917040Y-97481373D01*
X196838941Y-97427683D01*
X196784122Y-97393924D01*
X196762999Y-97385427D01*
X196729817Y-97373411D01*
X196676879Y-97338392D01*
X196661954Y-97326684D01*
X196602383Y-97285747D01*
X196553242Y-97264253D01*
X196545864Y-97263330D01*
X196502827Y-97245453D01*
X196452649Y-97202950D01*
X196451564Y-97201768D01*
X196406150Y-97160802D01*
X196372054Y-97144938D01*
X196370810Y-97145078D01*
X196324928Y-97134857D01*
X196270462Y-97102557D01*
X196230825Y-97063592D01*
X196224149Y-97048506D01*
X196197664Y-97020248D01*
X196150070Y-97002868D01*
X196104189Y-96984830D01*
X196092827Y-96961969D01*
X196079880Y-96937563D01*
X196038175Y-96921564D01*
X195980637Y-96903623D01*
X195951339Y-96885340D01*
X195910945Y-96868994D01*
X195884367Y-96869767D01*
X195834787Y-96859213D01*
X195816589Y-96841395D01*
X195787743Y-96819418D01*
X195773367Y-96823941D01*
X195743305Y-96820637D01*
X195695506Y-96788611D01*
X195682696Y-96777084D01*
X195627151Y-96735592D01*
X195579417Y-96718003D01*
X195572929Y-96718347D01*
X195529578Y-96708522D01*
X195465900Y-96675482D01*
X195433333Y-96653693D01*
X195372752Y-96614551D01*
X195329570Y-96595274D01*
X195318638Y-96595746D01*
X195290169Y-96591568D01*
X195241073Y-96563058D01*
X195234206Y-96558047D01*
X195180973Y-96524045D01*
X195143902Y-96510458D01*
X195141995Y-96510622D01*
X195105950Y-96502208D01*
X195047849Y-96476202D01*
X195037917Y-96470942D01*
X194966503Y-96435856D01*
X194874328Y-96395130D01*
X194823734Y-96374406D01*
X194741789Y-96338006D01*
X194675302Y-96301455D01*
X194649737Y-96282575D01*
X194593361Y-96255298D01*
X194551089Y-96253729D01*
X194496396Y-96251166D01*
X194453086Y-96230463D01*
X194435806Y-96201447D01*
X194445441Y-96182813D01*
X194483747Y-96168696D01*
X194551334Y-96158581D01*
G36*
X194246069Y-96370628D02*
G01*
X194318078Y-96387660D01*
X194407000Y-96412604D01*
X194497561Y-96440855D01*
X194574484Y-96467802D01*
X194622495Y-96488837D01*
X194629488Y-96493793D01*
X194660064Y-96509340D01*
X194726122Y-96535472D01*
X194814797Y-96567176D01*
X194838190Y-96575116D01*
X194943989Y-96613461D01*
X195043170Y-96654171D01*
X195115685Y-96688969D01*
X195120292Y-96691571D01*
X195230319Y-96753486D01*
X195317410Y-96797803D01*
X195401587Y-96834043D01*
X195487601Y-96866255D01*
X195572877Y-96903624D01*
X195663580Y-96953817D01*
X195747436Y-97008674D01*
X195812170Y-97060035D01*
X195845510Y-97099739D01*
X195847310Y-97105439D01*
X195872505Y-97120356D01*
X195931538Y-97132343D01*
X195963132Y-97135502D01*
X196048834Y-97151663D01*
X196123410Y-97181847D01*
X196138166Y-97191524D01*
X196206224Y-97239874D01*
X196300769Y-97301139D01*
X196427124Y-97378624D01*
X196590608Y-97475638D01*
X196670632Y-97522424D01*
X196800880Y-97602681D01*
X196942994Y-97697164D01*
X197073876Y-97790285D01*
X197123176Y-97827768D01*
X197221801Y-97904209D01*
X197315963Y-97975932D01*
X197391918Y-98032525D01*
X197421973Y-98054146D01*
X197503076Y-98116270D01*
X197582847Y-98185178D01*
X197591760Y-98193593D01*
X197649280Y-98243957D01*
X197733093Y-98311590D01*
X197828053Y-98384384D01*
X197859966Y-98407996D01*
X197948315Y-98474055D01*
X198024067Y-98533170D01*
X198075422Y-98576031D01*
X198087095Y-98587177D01*
X198122286Y-98624552D01*
X198181086Y-98686844D01*
X198252181Y-98762071D01*
X198269457Y-98780339D01*
X198336352Y-98852960D01*
X198387661Y-98912246D01*
X198414804Y-98948161D01*
X198416963Y-98952935D01*
X198440510Y-98979787D01*
X198455716Y-98987822D01*
X198490787Y-99013943D01*
X198551014Y-99070407D01*
X198628627Y-99148872D01*
X198715854Y-99240996D01*
X198804925Y-99338440D01*
X198888068Y-99432861D01*
X198957510Y-99515918D01*
X199001799Y-99573953D01*
X199054771Y-99638233D01*
X199108776Y-99687688D01*
X199116719Y-99693094D01*
X199162437Y-99735579D01*
X199180221Y-99771035D01*
X199203795Y-99818365D01*
X199245102Y-99865213D01*
X199286710Y-99908530D01*
X199348026Y-99979538D01*
X199418105Y-100065418D01*
X199443779Y-100098026D01*
X199509237Y-100181108D01*
X199564451Y-100249476D01*
X199600921Y-100292677D01*
X199608866Y-100301043D01*
X199634411Y-100338307D01*
X199663381Y-100398552D01*
X199664331Y-100400878D01*
X199691528Y-100452920D01*
X199715506Y-100475389D01*
X199717390Y-100475346D01*
X199744548Y-100491883D01*
X199764649Y-100521142D01*
X199805386Y-100573643D01*
X199849455Y-100611935D01*
X199889288Y-100652876D01*
X199888974Y-100680830D01*
X199851837Y-100697230D01*
X199783079Y-100703107D01*
X199700593Y-100699296D01*
X199622274Y-100686631D01*
X199566015Y-100665947D01*
X199565703Y-100665752D01*
X199518765Y-100648798D01*
X199494583Y-100654072D01*
X199457215Y-100661205D01*
X199397221Y-100651533D01*
X199395714Y-100651103D01*
X199182354Y-100610442D01*
X199005971Y-100611228D01*
X198916844Y-100617476D01*
X198838495Y-100619815D01*
X198813953Y-100619283D01*
X198746881Y-100621172D01*
X198648907Y-100630680D01*
X198532802Y-100645788D01*
X198411337Y-100664477D01*
X198297283Y-100684728D01*
X198203411Y-100704522D01*
X198142492Y-100721840D01*
X198130726Y-100727298D01*
X198081097Y-100751314D01*
X197999903Y-100784140D01*
X197903934Y-100819021D01*
X197895390Y-100821948D01*
X197647912Y-100925469D01*
X197407242Y-101067088D01*
X197340678Y-101113430D01*
X197253089Y-101174200D01*
X197162647Y-101233755D01*
X197127228Y-101255917D01*
X197068917Y-101296344D01*
X197035501Y-101329130D01*
X197032174Y-101338499D01*
X197015936Y-101362625D01*
X197004081Y-101366445D01*
X196971470Y-101385759D01*
X196911358Y-101432972D01*
X196832523Y-101500413D01*
X196743738Y-101580417D01*
X196653777Y-101665314D01*
X196590841Y-101727560D01*
X196546114Y-101778574D01*
X196481997Y-101858885D01*
X196408168Y-101956129D01*
X196354936Y-102028983D01*
X196286284Y-102121695D01*
X196226345Y-102197314D01*
X196182258Y-102247161D01*
X196162705Y-102262766D01*
X196151217Y-102247814D01*
X196135762Y-102197611D01*
X196115749Y-102109266D01*
X196090585Y-101979887D01*
X196059681Y-101806583D01*
X196022445Y-101586462D01*
X196013862Y-101534599D01*
X195980956Y-101340303D01*
X195944232Y-101132345D01*
X195904884Y-100916727D01*
X195864110Y-100699448D01*
X195823105Y-100486508D01*
X195783064Y-100283908D01*
X195745183Y-100097647D01*
X195710658Y-99933728D01*
X195680686Y-99798148D01*
X195656461Y-99696910D01*
X195639180Y-99636012D01*
X195632534Y-99621211D01*
X195625253Y-99611140D01*
X195616764Y-99592809D01*
X195604724Y-99558944D01*
X195586794Y-99502274D01*
X195560633Y-99415525D01*
X195523899Y-99291427D01*
X195497382Y-99201361D01*
X195467361Y-99103142D01*
X195441123Y-99024189D01*
X195422838Y-98976787D01*
X195418608Y-98969325D01*
X195405519Y-98938907D01*
X195382506Y-98870581D01*
X195353158Y-98775412D01*
X195329617Y-98694733D01*
X195294171Y-98575670D01*
X195258439Y-98464427D01*
X195227630Y-98376841D01*
X195213621Y-98342109D01*
X195181774Y-98268396D01*
X195157098Y-98207237D01*
X195153670Y-98197929D01*
X195129507Y-98138756D01*
X195117487Y-98114037D01*
X195051004Y-97988655D01*
X195005820Y-97900018D01*
X194978303Y-97840607D01*
X194964819Y-97802906D01*
X194962819Y-97793879D01*
X194948815Y-97752615D01*
X194918327Y-97679602D01*
X194877622Y-97588509D01*
X194832964Y-97493011D01*
X194790621Y-97406777D01*
X194756857Y-97343480D01*
X194754690Y-97339774D01*
X194726167Y-97293033D01*
X194681683Y-97221684D01*
X194646235Y-97165458D01*
X194589990Y-97071756D01*
X194536094Y-96974123D01*
X194512776Y-96928019D01*
X194473855Y-96852665D01*
X194437473Y-96791572D01*
X194426086Y-96775658D01*
X194361047Y-96691159D01*
X194295986Y-96601109D01*
X194238565Y-96516778D01*
X194196442Y-96449436D01*
X194177279Y-96410358D01*
X194177032Y-96409185D01*
X194190686Y-96373060D01*
X194206251Y-96366116D01*
X194246069Y-96370628D01*
G37*
X194246069Y-96370628D02*
X194318078Y-96387660D01*
X194407000Y-96412604D01*
X194497561Y-96440855D01*
X194574484Y-96467802D01*
X194622495Y-96488837D01*
X194629488Y-96493793D01*
X194660064Y-96509340D01*
X194726122Y-96535472D01*
X194814797Y-96567176D01*
X194838190Y-96575116D01*
X194943989Y-96613461D01*
X195043170Y-96654171D01*
X195115685Y-96688969D01*
X195120292Y-96691571D01*
X195230319Y-96753486D01*
X195317410Y-96797803D01*
X195401587Y-96834043D01*
X195487601Y-96866255D01*
X195572877Y-96903624D01*
X195663580Y-96953817D01*
X195747436Y-97008674D01*
X195812170Y-97060035D01*
X195845510Y-97099739D01*
X195847310Y-97105439D01*
X195872505Y-97120356D01*
X195931538Y-97132343D01*
X195963132Y-97135502D01*
X196048834Y-97151663D01*
X196123410Y-97181847D01*
X196138166Y-97191524D01*
X196206224Y-97239874D01*
X196300769Y-97301139D01*
X196427124Y-97378624D01*
X196590608Y-97475638D01*
X196670632Y-97522424D01*
X196800880Y-97602681D01*
X196942994Y-97697164D01*
X197073876Y-97790285D01*
X197123176Y-97827768D01*
X197221801Y-97904209D01*
X197315963Y-97975932D01*
X197391918Y-98032525D01*
X197421973Y-98054146D01*
X197503076Y-98116270D01*
X197582847Y-98185178D01*
X197591760Y-98193593D01*
X197649280Y-98243957D01*
X197733093Y-98311590D01*
X197828053Y-98384384D01*
X197859966Y-98407996D01*
X197948315Y-98474055D01*
X198024067Y-98533170D01*
X198075422Y-98576031D01*
X198087095Y-98587177D01*
X198122286Y-98624552D01*
X198181086Y-98686844D01*
X198252181Y-98762071D01*
X198269457Y-98780339D01*
X198336352Y-98852960D01*
X198387661Y-98912246D01*
X198414804Y-98948161D01*
X198416963Y-98952935D01*
X198440510Y-98979787D01*
X198455716Y-98987822D01*
X198490787Y-99013943D01*
X198551014Y-99070407D01*
X198628627Y-99148872D01*
X198715854Y-99240996D01*
X198804925Y-99338440D01*
X198888068Y-99432861D01*
X198957510Y-99515918D01*
X199001799Y-99573953D01*
X199054771Y-99638233D01*
X199108776Y-99687688D01*
X199116719Y-99693094D01*
X199162437Y-99735579D01*
X199180221Y-99771035D01*
X199203795Y-99818365D01*
X199245102Y-99865213D01*
X199286710Y-99908530D01*
X199348026Y-99979538D01*
X199418105Y-100065418D01*
X199443779Y-100098026D01*
X199509237Y-100181108D01*
X199564451Y-100249476D01*
X199600921Y-100292677D01*
X199608866Y-100301043D01*
X199634411Y-100338307D01*
X199663381Y-100398552D01*
X199664331Y-100400878D01*
X199691528Y-100452920D01*
X199715506Y-100475389D01*
X199717390Y-100475346D01*
X199744548Y-100491883D01*
X199764649Y-100521142D01*
X199805386Y-100573643D01*
X199849455Y-100611935D01*
X199889288Y-100652876D01*
X199888974Y-100680830D01*
X199851837Y-100697230D01*
X199783079Y-100703107D01*
X199700593Y-100699296D01*
X199622274Y-100686631D01*
X199566015Y-100665947D01*
X199565703Y-100665752D01*
X199518765Y-100648798D01*
X199494583Y-100654072D01*
X199457215Y-100661205D01*
X199397221Y-100651533D01*
X199395714Y-100651103D01*
X199182354Y-100610442D01*
X199005971Y-100611228D01*
X198916844Y-100617476D01*
X198838495Y-100619815D01*
X198813953Y-100619283D01*
X198746881Y-100621172D01*
X198648907Y-100630680D01*
X198532802Y-100645788D01*
X198411337Y-100664477D01*
X198297283Y-100684728D01*
X198203411Y-100704522D01*
X198142492Y-100721840D01*
X198130726Y-100727298D01*
X198081097Y-100751314D01*
X197999903Y-100784140D01*
X197903934Y-100819021D01*
X197895390Y-100821948D01*
X197647912Y-100925469D01*
X197407242Y-101067088D01*
X197340678Y-101113430D01*
X197253089Y-101174200D01*
X197162647Y-101233755D01*
X197127228Y-101255917D01*
X197068917Y-101296344D01*
X197035501Y-101329130D01*
X197032174Y-101338499D01*
X197015936Y-101362625D01*
X197004081Y-101366445D01*
X196971470Y-101385759D01*
X196911358Y-101432972D01*
X196832523Y-101500413D01*
X196743738Y-101580417D01*
X196653777Y-101665314D01*
X196590841Y-101727560D01*
X196546114Y-101778574D01*
X196481997Y-101858885D01*
X196408168Y-101956129D01*
X196354936Y-102028983D01*
X196286284Y-102121695D01*
X196226345Y-102197314D01*
X196182258Y-102247161D01*
X196162705Y-102262766D01*
X196151217Y-102247814D01*
X196135762Y-102197611D01*
X196115749Y-102109266D01*
X196090585Y-101979887D01*
X196059681Y-101806583D01*
X196022445Y-101586462D01*
X196013862Y-101534599D01*
X195980956Y-101340303D01*
X195944232Y-101132345D01*
X195904884Y-100916727D01*
X195864110Y-100699448D01*
X195823105Y-100486508D01*
X195783064Y-100283908D01*
X195745183Y-100097647D01*
X195710658Y-99933728D01*
X195680686Y-99798148D01*
X195656461Y-99696910D01*
X195639180Y-99636012D01*
X195632534Y-99621211D01*
X195625253Y-99611140D01*
X195616764Y-99592809D01*
X195604724Y-99558944D01*
X195586794Y-99502274D01*
X195560633Y-99415525D01*
X195523899Y-99291427D01*
X195497382Y-99201361D01*
X195467361Y-99103142D01*
X195441123Y-99024189D01*
X195422838Y-98976787D01*
X195418608Y-98969325D01*
X195405519Y-98938907D01*
X195382506Y-98870581D01*
X195353158Y-98775412D01*
X195329617Y-98694733D01*
X195294171Y-98575670D01*
X195258439Y-98464427D01*
X195227630Y-98376841D01*
X195213621Y-98342109D01*
X195181774Y-98268396D01*
X195157098Y-98207237D01*
X195153670Y-98197929D01*
X195129507Y-98138756D01*
X195117487Y-98114037D01*
X195051004Y-97988655D01*
X195005820Y-97900018D01*
X194978303Y-97840607D01*
X194964819Y-97802906D01*
X194962819Y-97793879D01*
X194948815Y-97752615D01*
X194918327Y-97679602D01*
X194877622Y-97588509D01*
X194832964Y-97493011D01*
X194790621Y-97406777D01*
X194756857Y-97343480D01*
X194754690Y-97339774D01*
X194726167Y-97293033D01*
X194681683Y-97221684D01*
X194646235Y-97165458D01*
X194589990Y-97071756D01*
X194536094Y-96974123D01*
X194512776Y-96928019D01*
X194473855Y-96852665D01*
X194437473Y-96791572D01*
X194426086Y-96775658D01*
X194361047Y-96691159D01*
X194295986Y-96601109D01*
X194238565Y-96516778D01*
X194196442Y-96449436D01*
X194177279Y-96410358D01*
X194177032Y-96409185D01*
X194190686Y-96373060D01*
X194206251Y-96366116D01*
X194246069Y-96370628D01*
G36*
X193970586Y-96444025D02*
G01*
X194018653Y-96482536D01*
X194073480Y-96540548D01*
X194139450Y-96620997D01*
X194208130Y-96712167D01*
X194271089Y-96802346D01*
X194319897Y-96879820D01*
X194346121Y-96932875D01*
X194348029Y-96940143D01*
X194368171Y-96987668D01*
X194408628Y-97051030D01*
X194422375Y-97069234D01*
X194465098Y-97128447D01*
X194491048Y-97173683D01*
X194493892Y-97182281D01*
X194509944Y-97217642D01*
X194546229Y-97279464D01*
X194581931Y-97334786D01*
X194634597Y-97419845D01*
X194679319Y-97503034D01*
X194697291Y-97543333D01*
X194725763Y-97611588D01*
X194767011Y-97703373D01*
X194804248Y-97782392D01*
X195006829Y-98238425D01*
X195196949Y-98741170D01*
X195373690Y-99287869D01*
X195536143Y-99875764D01*
X195639555Y-100304560D01*
X195673059Y-100456563D01*
X195709980Y-100632569D01*
X195749191Y-100826407D01*
X195789569Y-101031909D01*
X195829987Y-101242906D01*
X195869318Y-101453228D01*
X195906438Y-101656706D01*
X195940219Y-101847174D01*
X195969537Y-102018460D01*
X195993265Y-102164396D01*
X196010277Y-102278814D01*
X196019449Y-102355544D01*
X196019818Y-102388053D01*
X195988002Y-102421252D01*
X195947698Y-102408917D01*
X195943158Y-102404254D01*
X195906442Y-102383819D01*
X195843382Y-102363808D01*
X195834715Y-102361774D01*
X195759825Y-102334639D01*
X195673776Y-102289324D01*
X195640174Y-102267507D01*
X195569643Y-102225935D01*
X195508581Y-102203084D01*
X195486105Y-102201526D01*
X195426860Y-102193204D01*
X195400551Y-102177923D01*
X195346993Y-102154329D01*
X195318505Y-102153702D01*
X195269974Y-102143155D01*
X195253202Y-102126529D01*
X195213983Y-102104494D01*
X195157837Y-102104657D01*
X195098430Y-102107261D01*
X195063615Y-102095479D01*
X195024201Y-102080080D01*
X194999553Y-102080983D01*
X194949938Y-102071962D01*
X194889527Y-102039482D01*
X194885586Y-102036599D01*
X194821267Y-102003231D01*
X194761348Y-101994073D01*
X194759112Y-101994420D01*
X194706141Y-101993550D01*
X194682543Y-101982129D01*
X194643498Y-101967256D01*
X194614725Y-101968296D01*
X194559969Y-101964918D01*
X194487801Y-101945632D01*
X194476072Y-101941256D01*
X194402605Y-101919937D01*
X194340657Y-101913930D01*
X194333849Y-101914750D01*
X194270205Y-101910551D01*
X194227301Y-101895573D01*
X194159241Y-101877794D01*
X194104817Y-101878483D01*
X194047806Y-101879256D01*
X194017494Y-101867269D01*
X193978904Y-101853030D01*
X193944787Y-101854297D01*
X193878906Y-101849091D01*
X193846285Y-101835550D01*
X193799466Y-101822418D01*
X193718509Y-101813896D01*
X193619991Y-101811639D01*
X193608752Y-101811845D01*
X193509567Y-101810506D01*
X193426364Y-101802927D01*
X193375583Y-101790691D01*
X193372613Y-101789087D01*
X193320771Y-101773826D01*
X193243562Y-101767910D01*
X193213470Y-101768738D01*
X193128933Y-101771207D01*
X193017735Y-101771172D01*
X192903951Y-101768641D01*
X192767197Y-101764485D01*
X192640945Y-101762396D01*
X192513360Y-101762499D01*
X192372609Y-101764927D01*
X192206859Y-101769806D01*
X192004277Y-101777263D01*
X191964346Y-101778836D01*
X191719315Y-101789381D01*
X191521871Y-101799777D01*
X191368803Y-101810276D01*
X191256898Y-101821127D01*
X191182946Y-101832584D01*
X191148051Y-101842750D01*
X191098249Y-101853580D01*
X191073637Y-101845210D01*
X191035833Y-101832616D01*
X190999456Y-101835722D01*
X190932224Y-101848010D01*
X190826007Y-101863774D01*
X190692389Y-101881632D01*
X190542952Y-101900203D01*
X190389280Y-101918105D01*
X190242955Y-101933955D01*
X190115561Y-101946372D01*
X190018680Y-101953974D01*
X189999700Y-101955002D01*
X189885392Y-101963827D01*
X189744717Y-101979829D01*
X189601115Y-102000189D01*
X189541984Y-102009988D01*
X189330979Y-102046155D01*
X189164467Y-102072738D01*
X189037168Y-102090318D01*
X188943801Y-102099474D01*
X188879084Y-102100788D01*
X188837739Y-102094838D01*
X188823466Y-102088920D01*
X188785074Y-102055459D01*
X188791308Y-102020917D01*
X188844155Y-101981353D01*
X188889353Y-101958134D01*
X188972256Y-101917177D01*
X189048594Y-101877154D01*
X189065543Y-101867732D01*
X189121337Y-101838851D01*
X189207681Y-101797305D01*
X189308567Y-101750744D01*
X189339102Y-101737021D01*
X189436101Y-101692269D01*
X189518228Y-101651753D01*
X189571992Y-101622220D01*
X189581716Y-101615646D01*
X189635461Y-101588676D01*
X189696481Y-101571715D01*
X189748065Y-101555286D01*
X189767576Y-101534166D01*
X189767516Y-101533768D01*
X189785937Y-101509802D01*
X189837608Y-101477103D01*
X189871140Y-101460741D01*
X189937515Y-101427027D01*
X189981005Y-101397481D01*
X189988802Y-101388038D01*
X190018663Y-101365339D01*
X190059891Y-101352885D01*
X190125348Y-101332214D01*
X190160887Y-101312638D01*
X190235557Y-101259368D01*
X190314644Y-101206345D01*
X190385022Y-101161991D01*
X190433560Y-101134728D01*
X190445286Y-101130177D01*
X190486217Y-101110695D01*
X190566768Y-101059750D01*
X190686770Y-100977459D01*
X190846050Y-100863935D01*
X190875874Y-100842369D01*
X190959011Y-100783562D01*
X191025366Y-100739286D01*
X191065338Y-100715817D01*
X191072445Y-100713860D01*
X191094013Y-100702439D01*
X191136503Y-100664955D01*
X191150473Y-100651097D01*
X191198501Y-100605397D01*
X191231160Y-100579895D01*
X191235136Y-100578237D01*
X191260606Y-100561773D01*
X191314700Y-100520367D01*
X191387252Y-100461882D01*
X191413192Y-100440442D01*
X191505375Y-100363909D01*
X191597371Y-100287727D01*
X191670773Y-100227138D01*
X191676948Y-100222057D01*
X191756235Y-100153653D01*
X191844123Y-100073227D01*
X191885224Y-100033813D01*
X191948709Y-99976010D01*
X192001938Y-99935379D01*
X192026848Y-99922800D01*
X192055800Y-99903093D01*
X192057242Y-99892173D01*
X192072908Y-99862913D01*
X192117360Y-99818922D01*
X192138083Y-99802123D01*
X192202606Y-99743972D01*
X192275943Y-99665757D01*
X192317902Y-99615177D01*
X192372063Y-99549893D01*
X192416362Y-99503928D01*
X192437497Y-99488933D01*
X192463664Y-99467758D01*
X192511075Y-99415793D01*
X192570741Y-99343077D01*
X192588336Y-99320475D01*
X192650109Y-99243719D01*
X192702529Y-99184957D01*
X192736461Y-99154242D01*
X192741354Y-99152046D01*
X192768585Y-99129953D01*
X192813367Y-99076860D01*
X192863399Y-99007987D01*
X192932866Y-98907808D01*
X192981272Y-98843108D01*
X193014810Y-98806498D01*
X193039675Y-98790585D01*
X193047319Y-98788566D01*
X193072132Y-98763646D01*
X193096473Y-98709855D01*
X193096774Y-98708917D01*
X193124694Y-98647679D01*
X193172243Y-98566505D01*
X193215708Y-98502033D01*
X193264299Y-98430556D01*
X193297105Y-98374492D01*
X193306686Y-98348028D01*
X193318127Y-98316824D01*
X193351812Y-98258566D01*
X193390310Y-98200627D01*
X193471747Y-98074110D01*
X193545977Y-97940312D01*
X193605957Y-97813336D01*
X193644646Y-97707290D01*
X193652184Y-97676030D01*
X193676487Y-97585223D01*
X193709839Y-97498217D01*
X193737089Y-97430419D01*
X193767978Y-97338604D01*
X193798440Y-97237085D01*
X193824412Y-97140178D01*
X193841828Y-97062199D01*
X193846621Y-97017461D01*
X193846538Y-97016851D01*
X193853583Y-96970567D01*
X193869891Y-96929885D01*
X193887610Y-96861415D01*
X193886510Y-96809372D01*
X193888255Y-96736700D01*
X193903128Y-96688861D01*
X193918114Y-96626706D01*
X193916948Y-96548870D01*
X193915808Y-96541363D01*
X193910475Y-96463989D01*
X193928486Y-96431685D01*
X193970586Y-96444025D01*
G37*
X193970586Y-96444025D02*
X194018653Y-96482536D01*
X194073480Y-96540548D01*
X194139450Y-96620997D01*
X194208130Y-96712167D01*
X194271089Y-96802346D01*
X194319897Y-96879820D01*
X194346121Y-96932875D01*
X194348029Y-96940143D01*
X194368171Y-96987668D01*
X194408628Y-97051030D01*
X194422375Y-97069234D01*
X194465098Y-97128447D01*
X194491048Y-97173683D01*
X194493892Y-97182281D01*
X194509944Y-97217642D01*
X194546229Y-97279464D01*
X194581931Y-97334786D01*
X194634597Y-97419845D01*
X194679319Y-97503034D01*
X194697291Y-97543333D01*
X194725763Y-97611588D01*
X194767011Y-97703373D01*
X194804248Y-97782392D01*
X195006829Y-98238425D01*
X195196949Y-98741170D01*
X195373690Y-99287869D01*
X195536143Y-99875764D01*
X195639555Y-100304560D01*
X195673059Y-100456563D01*
X195709980Y-100632569D01*
X195749191Y-100826407D01*
X195789569Y-101031909D01*
X195829987Y-101242906D01*
X195869318Y-101453228D01*
X195906438Y-101656706D01*
X195940219Y-101847174D01*
X195969537Y-102018460D01*
X195993265Y-102164396D01*
X196010277Y-102278814D01*
X196019449Y-102355544D01*
X196019818Y-102388053D01*
X195988002Y-102421252D01*
X195947698Y-102408917D01*
X195943158Y-102404254D01*
X195906442Y-102383819D01*
X195843382Y-102363808D01*
X195834715Y-102361774D01*
X195759825Y-102334639D01*
X195673776Y-102289324D01*
X195640174Y-102267507D01*
X195569643Y-102225935D01*
X195508581Y-102203084D01*
X195486105Y-102201526D01*
X195426860Y-102193204D01*
X195400551Y-102177923D01*
X195346993Y-102154329D01*
X195318505Y-102153702D01*
X195269974Y-102143155D01*
X195253202Y-102126529D01*
X195213983Y-102104494D01*
X195157837Y-102104657D01*
X195098430Y-102107261D01*
X195063615Y-102095479D01*
X195024201Y-102080080D01*
X194999553Y-102080983D01*
X194949938Y-102071962D01*
X194889527Y-102039482D01*
X194885586Y-102036599D01*
X194821267Y-102003231D01*
X194761348Y-101994073D01*
X194759112Y-101994420D01*
X194706141Y-101993550D01*
X194682543Y-101982129D01*
X194643498Y-101967256D01*
X194614725Y-101968296D01*
X194559969Y-101964918D01*
X194487801Y-101945632D01*
X194476072Y-101941256D01*
X194402605Y-101919937D01*
X194340657Y-101913930D01*
X194333849Y-101914750D01*
X194270205Y-101910551D01*
X194227301Y-101895573D01*
X194159241Y-101877794D01*
X194104817Y-101878483D01*
X194047806Y-101879256D01*
X194017494Y-101867269D01*
X193978904Y-101853030D01*
X193944787Y-101854297D01*
X193878906Y-101849091D01*
X193846285Y-101835550D01*
X193799466Y-101822418D01*
X193718509Y-101813896D01*
X193619991Y-101811639D01*
X193608752Y-101811845D01*
X193509567Y-101810506D01*
X193426364Y-101802927D01*
X193375583Y-101790691D01*
X193372613Y-101789087D01*
X193320771Y-101773826D01*
X193243562Y-101767910D01*
X193213470Y-101768738D01*
X193128933Y-101771207D01*
X193017735Y-101771172D01*
X192903951Y-101768641D01*
X192767197Y-101764485D01*
X192640945Y-101762396D01*
X192513360Y-101762499D01*
X192372609Y-101764927D01*
X192206859Y-101769806D01*
X192004277Y-101777263D01*
X191964346Y-101778836D01*
X191719315Y-101789381D01*
X191521871Y-101799777D01*
X191368803Y-101810276D01*
X191256898Y-101821127D01*
X191182946Y-101832584D01*
X191148051Y-101842750D01*
X191098249Y-101853580D01*
X191073637Y-101845210D01*
X191035833Y-101832616D01*
X190999456Y-101835722D01*
X190932224Y-101848010D01*
X190826007Y-101863774D01*
X190692389Y-101881632D01*
X190542952Y-101900203D01*
X190389280Y-101918105D01*
X190242955Y-101933955D01*
X190115561Y-101946372D01*
X190018680Y-101953974D01*
X189999700Y-101955002D01*
X189885392Y-101963827D01*
X189744717Y-101979829D01*
X189601115Y-102000189D01*
X189541984Y-102009988D01*
X189330979Y-102046155D01*
X189164467Y-102072738D01*
X189037168Y-102090318D01*
X188943801Y-102099474D01*
X188879084Y-102100788D01*
X188837739Y-102094838D01*
X188823466Y-102088920D01*
X188785074Y-102055459D01*
X188791308Y-102020917D01*
X188844155Y-101981353D01*
X188889353Y-101958134D01*
X188972256Y-101917177D01*
X189048594Y-101877154D01*
X189065543Y-101867732D01*
X189121337Y-101838851D01*
X189207681Y-101797305D01*
X189308567Y-101750744D01*
X189339102Y-101737021D01*
X189436101Y-101692269D01*
X189518228Y-101651753D01*
X189571992Y-101622220D01*
X189581716Y-101615646D01*
X189635461Y-101588676D01*
X189696481Y-101571715D01*
X189748065Y-101555286D01*
X189767576Y-101534166D01*
X189767516Y-101533768D01*
X189785937Y-101509802D01*
X189837608Y-101477103D01*
X189871140Y-101460741D01*
X189937515Y-101427027D01*
X189981005Y-101397481D01*
X189988802Y-101388038D01*
X190018663Y-101365339D01*
X190059891Y-101352885D01*
X190125348Y-101332214D01*
X190160887Y-101312638D01*
X190235557Y-101259368D01*
X190314644Y-101206345D01*
X190385022Y-101161991D01*
X190433560Y-101134728D01*
X190445286Y-101130177D01*
X190486217Y-101110695D01*
X190566768Y-101059750D01*
X190686770Y-100977459D01*
X190846050Y-100863935D01*
X190875874Y-100842369D01*
X190959011Y-100783562D01*
X191025366Y-100739286D01*
X191065338Y-100715817D01*
X191072445Y-100713860D01*
X191094013Y-100702439D01*
X191136503Y-100664955D01*
X191150473Y-100651097D01*
X191198501Y-100605397D01*
X191231160Y-100579895D01*
X191235136Y-100578237D01*
X191260606Y-100561773D01*
X191314700Y-100520367D01*
X191387252Y-100461882D01*
X191413192Y-100440442D01*
X191505375Y-100363909D01*
X191597371Y-100287727D01*
X191670773Y-100227138D01*
X191676948Y-100222057D01*
X191756235Y-100153653D01*
X191844123Y-100073227D01*
X191885224Y-100033813D01*
X191948709Y-99976010D01*
X192001938Y-99935379D01*
X192026848Y-99922800D01*
X192055800Y-99903093D01*
X192057242Y-99892173D01*
X192072908Y-99862913D01*
X192117360Y-99818922D01*
X192138083Y-99802123D01*
X192202606Y-99743972D01*
X192275943Y-99665757D01*
X192317902Y-99615177D01*
X192372063Y-99549893D01*
X192416362Y-99503928D01*
X192437497Y-99488933D01*
X192463664Y-99467758D01*
X192511075Y-99415793D01*
X192570741Y-99343077D01*
X192588336Y-99320475D01*
X192650109Y-99243719D01*
X192702529Y-99184957D01*
X192736461Y-99154242D01*
X192741354Y-99152046D01*
X192768585Y-99129953D01*
X192813367Y-99076860D01*
X192863399Y-99007987D01*
X192932866Y-98907808D01*
X192981272Y-98843108D01*
X193014810Y-98806498D01*
X193039675Y-98790585D01*
X193047319Y-98788566D01*
X193072132Y-98763646D01*
X193096473Y-98709855D01*
X193096774Y-98708917D01*
X193124694Y-98647679D01*
X193172243Y-98566505D01*
X193215708Y-98502033D01*
X193264299Y-98430556D01*
X193297105Y-98374492D01*
X193306686Y-98348028D01*
X193318127Y-98316824D01*
X193351812Y-98258566D01*
X193390310Y-98200627D01*
X193471747Y-98074110D01*
X193545977Y-97940312D01*
X193605957Y-97813336D01*
X193644646Y-97707290D01*
X193652184Y-97676030D01*
X193676487Y-97585223D01*
X193709839Y-97498217D01*
X193737089Y-97430419D01*
X193767978Y-97338604D01*
X193798440Y-97237085D01*
X193824412Y-97140178D01*
X193841828Y-97062199D01*
X193846621Y-97017461D01*
X193846538Y-97016851D01*
X193853583Y-96970567D01*
X193869891Y-96929885D01*
X193887610Y-96861415D01*
X193886510Y-96809372D01*
X193888255Y-96736700D01*
X193903128Y-96688861D01*
X193918114Y-96626706D01*
X193916948Y-96548870D01*
X193915808Y-96541363D01*
X193910475Y-96463989D01*
X193928486Y-96431685D01*
X193970586Y-96444025D01*
G36*
X179862979Y-98751908D02*
G01*
X179845505Y-98771574D01*
X179798819Y-98810431D01*
X179761937Y-98838552D01*
X179694231Y-98894282D01*
X179640835Y-98947923D01*
X179625927Y-98967512D01*
X179581970Y-99012223D01*
X179546644Y-99028377D01*
X179510136Y-99046420D01*
X179504904Y-99061528D01*
X179488967Y-99087888D01*
X179475669Y-99092475D01*
X179437873Y-99116817D01*
X179405571Y-99156419D01*
X179370811Y-99201005D01*
X179346504Y-99218418D01*
X179320606Y-99237723D01*
X179269264Y-99286439D01*
X179201026Y-99356218D01*
X179154518Y-99405821D01*
X179081693Y-99482709D01*
X179022041Y-99541987D01*
X178983446Y-99576026D01*
X178973441Y-99581041D01*
X178953400Y-99595307D01*
X178912249Y-99640597D01*
X178860259Y-99705365D01*
X178802926Y-99774490D01*
X178753009Y-99824670D01*
X178723372Y-99844128D01*
X178686602Y-99867427D01*
X178640029Y-99917299D01*
X178629153Y-99931669D01*
X178577733Y-99999351D01*
X178512239Y-100081216D01*
X178476913Y-100123819D01*
X178408510Y-100206923D01*
X178330092Y-100304988D01*
X178278561Y-100371007D01*
X178222060Y-100440636D01*
X178175308Y-100491454D01*
X178148723Y-100512293D01*
X178122945Y-100534023D01*
X178077392Y-100587020D01*
X178021054Y-100660680D01*
X178009948Y-100676033D01*
X177915405Y-100807020D01*
X177845122Y-100902051D01*
X177794494Y-100966976D01*
X177758917Y-101007641D01*
X177733787Y-101029895D01*
X177728721Y-101033191D01*
X177697890Y-101067001D01*
X177658950Y-101129024D01*
X177642045Y-101161332D01*
X177614713Y-101215100D01*
X177584296Y-101270014D01*
X177545908Y-101333916D01*
X177494663Y-101414643D01*
X177425673Y-101520036D01*
X177334055Y-101657936D01*
X177311166Y-101692233D01*
X177241563Y-101800604D01*
X177176442Y-101909213D01*
X177125574Y-102001461D01*
X177107945Y-102037569D01*
X177062346Y-102132535D01*
X177012784Y-102226794D01*
X176993345Y-102260837D01*
X176952446Y-102338979D01*
X176922387Y-102412798D01*
X176917758Y-102428562D01*
X176904199Y-102474870D01*
X176884686Y-102520522D01*
X176851858Y-102580589D01*
X176805519Y-102658315D01*
X176781224Y-102715623D01*
X176777182Y-102753583D01*
X176771401Y-102788952D01*
X176762266Y-102794901D01*
X176744085Y-102818101D01*
X176711899Y-102876805D01*
X176671202Y-102959603D01*
X176627488Y-103055090D01*
X176586253Y-103151857D01*
X176567347Y-103199592D01*
X176552811Y-103237880D01*
X176525978Y-103308825D01*
X176492471Y-103397554D01*
X176490185Y-103403611D01*
X176454009Y-103493791D01*
X176420554Y-103567493D01*
X176396796Y-103609399D01*
X176396003Y-103610366D01*
X176376414Y-103661809D01*
X176376690Y-103700283D01*
X176369018Y-103761245D01*
X176342238Y-103812815D01*
X176315840Y-103862475D01*
X176284001Y-103944299D01*
X176251405Y-104042920D01*
X176222736Y-104142972D01*
X176202674Y-104229088D01*
X176195904Y-104285902D01*
X176196391Y-104291410D01*
X176189559Y-104339331D01*
X176173369Y-104380251D01*
X176153647Y-104438165D01*
X176151733Y-104472306D01*
X176144348Y-104522667D01*
X176128117Y-104557302D01*
X176106993Y-104619683D01*
X176104176Y-104672550D01*
X176097339Y-104736317D01*
X176064882Y-104757794D01*
X176012191Y-104734936D01*
X175989880Y-104716004D01*
X175933189Y-104664935D01*
X175885845Y-104625907D01*
X175846907Y-104580591D01*
X175812332Y-104516358D01*
X175784617Y-104464395D01*
X175759511Y-104442133D01*
X175757498Y-104442203D01*
X175733810Y-104425298D01*
X175727434Y-104406350D01*
X175705293Y-104361086D01*
X175661939Y-104308297D01*
X175661926Y-104308285D01*
X175610714Y-104251751D01*
X175550383Y-104177645D01*
X175527461Y-104147471D01*
X175464417Y-104071064D01*
X175384509Y-103985591D01*
X175333910Y-103936487D01*
X175262754Y-103868054D01*
X175200828Y-103803576D01*
X175170052Y-103767652D01*
X175122024Y-103718306D01*
X175042240Y-103650073D01*
X174941882Y-103571215D01*
X174832130Y-103489992D01*
X174724166Y-103414670D01*
X174629169Y-103353507D01*
X174558321Y-103314767D01*
X174555424Y-103313484D01*
X174470051Y-103271749D01*
X174390769Y-103225860D01*
X174375070Y-103215361D01*
X174305648Y-103180379D01*
X174213441Y-103150428D01*
X174166933Y-103140372D01*
X174083976Y-103121695D01*
X174018871Y-103099276D01*
X173996858Y-103086714D01*
X173954947Y-103069094D01*
X173878262Y-103051276D01*
X173782683Y-103036876D01*
X173773672Y-103035868D01*
X173673979Y-103024403D01*
X173588491Y-103013404D01*
X173534844Y-103005150D01*
X173533018Y-103004791D01*
X173416792Y-102986769D01*
X173268594Y-102973846D01*
X173081139Y-102965267D01*
X172983491Y-102959940D01*
X172908302Y-102951667D01*
X172867547Y-102941932D01*
X172863601Y-102938293D01*
X172877316Y-102909267D01*
X172916114Y-102858879D01*
X172940196Y-102831799D01*
X173003335Y-102760613D01*
X173061328Y-102690302D01*
X173073625Y-102674308D01*
X173149229Y-102577775D01*
X173244144Y-102462983D01*
X173348543Y-102341182D01*
X173452597Y-102223627D01*
X173546479Y-102121574D01*
X173620362Y-102046276D01*
X173630033Y-102037125D01*
X173710538Y-101958180D01*
X173788923Y-101874898D01*
X173834015Y-101822527D01*
X173889840Y-101762997D01*
X173941732Y-101723422D01*
X173961295Y-101715486D01*
X174003575Y-101699277D01*
X174014197Y-101686814D01*
X174034799Y-101657907D01*
X174081395Y-101607586D01*
X174141830Y-101547562D01*
X174203948Y-101489542D01*
X174255598Y-101445234D01*
X174284562Y-101426357D01*
X174317722Y-101405173D01*
X174340800Y-101380882D01*
X174376145Y-101346770D01*
X174440402Y-101292920D01*
X174521375Y-101229440D01*
X174545097Y-101211530D01*
X174652235Y-101128664D01*
X174771976Y-101032007D01*
X174879232Y-100941827D01*
X174883731Y-100937926D01*
X175027896Y-100823323D01*
X175188828Y-100712586D01*
X175345440Y-100619827D01*
X175402805Y-100590604D01*
X175455276Y-100554852D01*
X175501902Y-100511229D01*
X175550452Y-100468250D01*
X175589229Y-100448347D01*
X175636444Y-100428324D01*
X175674464Y-100402941D01*
X175734219Y-100365317D01*
X175772828Y-100348743D01*
X175815162Y-100329996D01*
X175887538Y-100292857D01*
X175976324Y-100244888D01*
X176067890Y-100193649D01*
X176148607Y-100146701D01*
X176204844Y-100111608D01*
X176219273Y-100101081D01*
X176261422Y-100073537D01*
X176329094Y-100036095D01*
X176401450Y-99999632D01*
X176457657Y-99975027D01*
X176466229Y-99972154D01*
X176494338Y-99962104D01*
X176530002Y-99944176D01*
X176586436Y-99911240D01*
X176643836Y-99876382D01*
X176687703Y-99853220D01*
X176764057Y-99816269D01*
X176858907Y-99772244D01*
X176893524Y-99756570D01*
X177002033Y-99706926D01*
X177107095Y-99657445D01*
X177189404Y-99617248D01*
X177203027Y-99610307D01*
X177286719Y-99571145D01*
X177391658Y-99527397D01*
X177467074Y-99498791D01*
X177571367Y-99458279D01*
X177675203Y-99413086D01*
X177734802Y-99383966D01*
X177831055Y-99340632D01*
X177938439Y-99302783D01*
X177970200Y-99293901D01*
X178052536Y-99270653D01*
X178119550Y-99247722D01*
X178140479Y-99238547D01*
X178198128Y-99214082D01*
X178295587Y-99178884D01*
X178423721Y-99135805D01*
X178573393Y-99087700D01*
X178735464Y-99037423D01*
X178900798Y-98987827D01*
X179060258Y-98941766D01*
X179204706Y-98902094D01*
X179279925Y-98882656D01*
X179488580Y-98831063D01*
X179652220Y-98792001D01*
X179769835Y-98765696D01*
X179840417Y-98752376D01*
X179862979Y-98751908D01*
G37*
X179862979Y-98751908D02*
X179845505Y-98771574D01*
X179798819Y-98810431D01*
X179761937Y-98838552D01*
X179694231Y-98894282D01*
X179640835Y-98947923D01*
X179625927Y-98967512D01*
X179581970Y-99012223D01*
X179546644Y-99028377D01*
X179510136Y-99046420D01*
X179504904Y-99061528D01*
X179488967Y-99087888D01*
X179475669Y-99092475D01*
X179437873Y-99116817D01*
X179405571Y-99156419D01*
X179370811Y-99201005D01*
X179346504Y-99218418D01*
X179320606Y-99237723D01*
X179269264Y-99286439D01*
X179201026Y-99356218D01*
X179154518Y-99405821D01*
X179081693Y-99482709D01*
X179022041Y-99541987D01*
X178983446Y-99576026D01*
X178973441Y-99581041D01*
X178953400Y-99595307D01*
X178912249Y-99640597D01*
X178860259Y-99705365D01*
X178802926Y-99774490D01*
X178753009Y-99824670D01*
X178723372Y-99844128D01*
X178686602Y-99867427D01*
X178640029Y-99917299D01*
X178629153Y-99931669D01*
X178577733Y-99999351D01*
X178512239Y-100081216D01*
X178476913Y-100123819D01*
X178408510Y-100206923D01*
X178330092Y-100304988D01*
X178278561Y-100371007D01*
X178222060Y-100440636D01*
X178175308Y-100491454D01*
X178148723Y-100512293D01*
X178122945Y-100534023D01*
X178077392Y-100587020D01*
X178021054Y-100660680D01*
X178009948Y-100676033D01*
X177915405Y-100807020D01*
X177845122Y-100902051D01*
X177794494Y-100966976D01*
X177758917Y-101007641D01*
X177733787Y-101029895D01*
X177728721Y-101033191D01*
X177697890Y-101067001D01*
X177658950Y-101129024D01*
X177642045Y-101161332D01*
X177614713Y-101215100D01*
X177584296Y-101270014D01*
X177545908Y-101333916D01*
X177494663Y-101414643D01*
X177425673Y-101520036D01*
X177334055Y-101657936D01*
X177311166Y-101692233D01*
X177241563Y-101800604D01*
X177176442Y-101909213D01*
X177125574Y-102001461D01*
X177107945Y-102037569D01*
X177062346Y-102132535D01*
X177012784Y-102226794D01*
X176993345Y-102260837D01*
X176952446Y-102338979D01*
X176922387Y-102412798D01*
X176917758Y-102428562D01*
X176904199Y-102474870D01*
X176884686Y-102520522D01*
X176851858Y-102580589D01*
X176805519Y-102658315D01*
X176781224Y-102715623D01*
X176777182Y-102753583D01*
X176771401Y-102788952D01*
X176762266Y-102794901D01*
X176744085Y-102818101D01*
X176711899Y-102876805D01*
X176671202Y-102959603D01*
X176627488Y-103055090D01*
X176586253Y-103151857D01*
X176567347Y-103199592D01*
X176552811Y-103237880D01*
X176525978Y-103308825D01*
X176492471Y-103397554D01*
X176490185Y-103403611D01*
X176454009Y-103493791D01*
X176420554Y-103567493D01*
X176396796Y-103609399D01*
X176396003Y-103610366D01*
X176376414Y-103661809D01*
X176376690Y-103700283D01*
X176369018Y-103761245D01*
X176342238Y-103812815D01*
X176315840Y-103862475D01*
X176284001Y-103944299D01*
X176251405Y-104042920D01*
X176222736Y-104142972D01*
X176202674Y-104229088D01*
X176195904Y-104285902D01*
X176196391Y-104291410D01*
X176189559Y-104339331D01*
X176173369Y-104380251D01*
X176153647Y-104438165D01*
X176151733Y-104472306D01*
X176144348Y-104522667D01*
X176128117Y-104557302D01*
X176106993Y-104619683D01*
X176104176Y-104672550D01*
X176097339Y-104736317D01*
X176064882Y-104757794D01*
X176012191Y-104734936D01*
X175989880Y-104716004D01*
X175933189Y-104664935D01*
X175885845Y-104625907D01*
X175846907Y-104580591D01*
X175812332Y-104516358D01*
X175784617Y-104464395D01*
X175759511Y-104442133D01*
X175757498Y-104442203D01*
X175733810Y-104425298D01*
X175727434Y-104406350D01*
X175705293Y-104361086D01*
X175661939Y-104308297D01*
X175661926Y-104308285D01*
X175610714Y-104251751D01*
X175550383Y-104177645D01*
X175527461Y-104147471D01*
X175464417Y-104071064D01*
X175384509Y-103985591D01*
X175333910Y-103936487D01*
X175262754Y-103868054D01*
X175200828Y-103803576D01*
X175170052Y-103767652D01*
X175122024Y-103718306D01*
X175042240Y-103650073D01*
X174941882Y-103571215D01*
X174832130Y-103489992D01*
X174724166Y-103414670D01*
X174629169Y-103353507D01*
X174558321Y-103314767D01*
X174555424Y-103313484D01*
X174470051Y-103271749D01*
X174390769Y-103225860D01*
X174375070Y-103215361D01*
X174305648Y-103180379D01*
X174213441Y-103150428D01*
X174166933Y-103140372D01*
X174083976Y-103121695D01*
X174018871Y-103099276D01*
X173996858Y-103086714D01*
X173954947Y-103069094D01*
X173878262Y-103051276D01*
X173782683Y-103036876D01*
X173773672Y-103035868D01*
X173673979Y-103024403D01*
X173588491Y-103013404D01*
X173534844Y-103005150D01*
X173533018Y-103004791D01*
X173416792Y-102986769D01*
X173268594Y-102973846D01*
X173081139Y-102965267D01*
X172983491Y-102959940D01*
X172908302Y-102951667D01*
X172867547Y-102941932D01*
X172863601Y-102938293D01*
X172877316Y-102909267D01*
X172916114Y-102858879D01*
X172940196Y-102831799D01*
X173003335Y-102760613D01*
X173061328Y-102690302D01*
X173073625Y-102674308D01*
X173149229Y-102577775D01*
X173244144Y-102462983D01*
X173348543Y-102341182D01*
X173452597Y-102223627D01*
X173546479Y-102121574D01*
X173620362Y-102046276D01*
X173630033Y-102037125D01*
X173710538Y-101958180D01*
X173788923Y-101874898D01*
X173834015Y-101822527D01*
X173889840Y-101762997D01*
X173941732Y-101723422D01*
X173961295Y-101715486D01*
X174003575Y-101699277D01*
X174014197Y-101686814D01*
X174034799Y-101657907D01*
X174081395Y-101607586D01*
X174141830Y-101547562D01*
X174203948Y-101489542D01*
X174255598Y-101445234D01*
X174284562Y-101426357D01*
X174317722Y-101405173D01*
X174340800Y-101380882D01*
X174376145Y-101346770D01*
X174440402Y-101292920D01*
X174521375Y-101229440D01*
X174545097Y-101211530D01*
X174652235Y-101128664D01*
X174771976Y-101032007D01*
X174879232Y-100941827D01*
X174883731Y-100937926D01*
X175027896Y-100823323D01*
X175188828Y-100712586D01*
X175345440Y-100619827D01*
X175402805Y-100590604D01*
X175455276Y-100554852D01*
X175501902Y-100511229D01*
X175550452Y-100468250D01*
X175589229Y-100448347D01*
X175636444Y-100428324D01*
X175674464Y-100402941D01*
X175734219Y-100365317D01*
X175772828Y-100348743D01*
X175815162Y-100329996D01*
X175887538Y-100292857D01*
X175976324Y-100244888D01*
X176067890Y-100193649D01*
X176148607Y-100146701D01*
X176204844Y-100111608D01*
X176219273Y-100101081D01*
X176261422Y-100073537D01*
X176329094Y-100036095D01*
X176401450Y-99999632D01*
X176457657Y-99975027D01*
X176466229Y-99972154D01*
X176494338Y-99962104D01*
X176530002Y-99944176D01*
X176586436Y-99911240D01*
X176643836Y-99876382D01*
X176687703Y-99853220D01*
X176764057Y-99816269D01*
X176858907Y-99772244D01*
X176893524Y-99756570D01*
X177002033Y-99706926D01*
X177107095Y-99657445D01*
X177189404Y-99617248D01*
X177203027Y-99610307D01*
X177286719Y-99571145D01*
X177391658Y-99527397D01*
X177467074Y-99498791D01*
X177571367Y-99458279D01*
X177675203Y-99413086D01*
X177734802Y-99383966D01*
X177831055Y-99340632D01*
X177938439Y-99302783D01*
X177970200Y-99293901D01*
X178052536Y-99270653D01*
X178119550Y-99247722D01*
X178140479Y-99238547D01*
X178198128Y-99214082D01*
X178295587Y-99178884D01*
X178423721Y-99135805D01*
X178573393Y-99087700D01*
X178735464Y-99037423D01*
X178900798Y-98987827D01*
X179060258Y-98941766D01*
X179204706Y-98902094D01*
X179279925Y-98882656D01*
X179488580Y-98831063D01*
X179652220Y-98792001D01*
X179769835Y-98765696D01*
X179840417Y-98752376D01*
X179862979Y-98751908D01*
G36*
X180101760Y-98806081D02*
G01*
X180106375Y-98815821D01*
X180100959Y-98845474D01*
X180084283Y-98911035D01*
X180059639Y-98999742D01*
X180052743Y-99023617D01*
X180026730Y-99117534D01*
X180008273Y-99192982D01*
X180000610Y-99236453D01*
X180000717Y-99240517D01*
X179994550Y-99275966D01*
X179974217Y-99341358D01*
X179955800Y-99391839D01*
X179925983Y-99492201D01*
X179895828Y-99635497D01*
X179866197Y-99813881D01*
X179837953Y-100019502D01*
X179811958Y-100244510D01*
X179789076Y-100481056D01*
X179770170Y-100721290D01*
X179756103Y-100957363D01*
X179747738Y-101181426D01*
X179745846Y-101301621D01*
X179743477Y-101399435D01*
X179738503Y-101493350D01*
X179736093Y-101522572D01*
X179734496Y-101590388D01*
X179738058Y-101690406D01*
X179746018Y-101804372D01*
X179749380Y-101840912D01*
X179757680Y-101950506D01*
X179760640Y-102047200D01*
X179757933Y-102115184D01*
X179755399Y-102130008D01*
X179754994Y-102202317D01*
X179780504Y-102252694D01*
X179807123Y-102311409D01*
X179804487Y-102345184D01*
X179797843Y-102389797D01*
X179799397Y-102478202D01*
X179808297Y-102604205D01*
X179823692Y-102761612D01*
X179844728Y-102944228D01*
X179870552Y-103145859D01*
X179900313Y-103360312D01*
X179933156Y-103581389D01*
X179968231Y-103802899D01*
X180004683Y-104018646D01*
X180041661Y-104222435D01*
X180078312Y-104408073D01*
X180106014Y-104535802D01*
X180135705Y-104672972D01*
X180161119Y-104803304D01*
X180179820Y-104913363D01*
X180189367Y-104989714D01*
X180189895Y-104998161D01*
X180195472Y-105116907D01*
X180149601Y-105054068D01*
X180104549Y-105011626D01*
X180061884Y-104998607D01*
X180016411Y-104988961D01*
X179953794Y-104955889D01*
X179933496Y-104941799D01*
X179849294Y-104883212D01*
X179749645Y-104819705D01*
X179644777Y-104757077D01*
X179544920Y-104701123D01*
X179460300Y-104657641D01*
X179401146Y-104632431D01*
X179381005Y-104628620D01*
X179344738Y-104617398D01*
X179323132Y-104602378D01*
X179274803Y-104573517D01*
X179197012Y-104538819D01*
X179105503Y-104503952D01*
X179016018Y-104474589D01*
X178944299Y-104456398D01*
X178910327Y-104453695D01*
X178857759Y-104444914D01*
X178811872Y-104419471D01*
X178757165Y-104390183D01*
X178717899Y-104384584D01*
X178667486Y-104384834D01*
X178583190Y-104376824D01*
X178480874Y-104362593D01*
X178376401Y-104344183D01*
X178332731Y-104335038D01*
X178260125Y-104326120D01*
X178164671Y-104323330D01*
X178111715Y-104324912D01*
X178000741Y-104329186D01*
X177884059Y-104330904D01*
X177841142Y-104330638D01*
X177696554Y-104335670D01*
X177532817Y-104352875D01*
X177370108Y-104379289D01*
X177228604Y-104411946D01*
X177175670Y-104428429D01*
X177074481Y-104461830D01*
X176970948Y-104492914D01*
X176930101Y-104504021D01*
X176836483Y-104535074D01*
X176718995Y-104583779D01*
X176597196Y-104641428D01*
X176490643Y-104699317D01*
X176488584Y-104700547D01*
X176437716Y-104728166D01*
X176368489Y-104762530D01*
X176298617Y-104795244D01*
X176245817Y-104817909D01*
X176229948Y-104823150D01*
X176213097Y-104805798D01*
X176204560Y-104764736D01*
X176208312Y-104726868D01*
X176214472Y-104718413D01*
X176231955Y-104688397D01*
X176255403Y-104627620D01*
X176278857Y-104554702D01*
X176296361Y-104488263D01*
X176301956Y-104446925D01*
X176301772Y-104445584D01*
X176310393Y-104410048D01*
X176337072Y-104349967D01*
X176349223Y-104326757D01*
X176381365Y-104248329D01*
X176395993Y-104173311D01*
X176395920Y-104159073D01*
X176399961Y-104102235D01*
X176415495Y-104072931D01*
X176435015Y-104039578D01*
X176434591Y-104028652D01*
X176442256Y-103989300D01*
X176467899Y-103924223D01*
X176486148Y-103886303D01*
X176518507Y-103813120D01*
X176535937Y-103753738D01*
X176536915Y-103735398D01*
X176546937Y-103689307D01*
X176579742Y-103630344D01*
X176583452Y-103625262D01*
X176614501Y-103570552D01*
X176620824Y-103529823D01*
X176619376Y-103526584D01*
X176620579Y-103487654D01*
X176643135Y-103446232D01*
X176671955Y-103394033D01*
X176677646Y-103359270D01*
X176685956Y-103313337D01*
X176709342Y-103266292D01*
X176738341Y-103209741D01*
X176772640Y-103126389D01*
X176794325Y-103065395D01*
X176824727Y-102983822D01*
X176854264Y-102921250D01*
X176871276Y-102896908D01*
X176894649Y-102853452D01*
X176894881Y-102835997D01*
X176906102Y-102788944D01*
X176917297Y-102775294D01*
X176942040Y-102738943D01*
X176976259Y-102671685D01*
X177003092Y-102610582D01*
X177051978Y-102504811D01*
X177111920Y-102392319D01*
X177141867Y-102342121D01*
X177184612Y-102268041D01*
X177211974Y-102208392D01*
X177217905Y-102181318D01*
X177231355Y-102142313D01*
X177257443Y-102114518D01*
X177297686Y-102064772D01*
X177326372Y-102002718D01*
X177353339Y-101939763D01*
X177398316Y-101856225D01*
X177437758Y-101791836D01*
X177500249Y-101693469D01*
X177569805Y-101580542D01*
X177614622Y-101505760D01*
X177667080Y-101418651D01*
X177715703Y-101341107D01*
X177747168Y-101293966D01*
X177853734Y-101148203D01*
X177935495Y-101042776D01*
X177994696Y-100975021D01*
X178033579Y-100942271D01*
X178046800Y-100938199D01*
X178077850Y-100924288D01*
X178080725Y-100912874D01*
X178077471Y-100862731D01*
X178076861Y-100854393D01*
X178094027Y-100817159D01*
X178126402Y-100787957D01*
X178165083Y-100756078D01*
X178175628Y-100738018D01*
X178189621Y-100712842D01*
X178229437Y-100657795D01*
X178287961Y-100581682D01*
X178358082Y-100493310D01*
X178432687Y-100401486D01*
X178504664Y-100315017D01*
X178566900Y-100242708D01*
X178612283Y-100193366D01*
X178625912Y-100180493D01*
X178689322Y-100130857D01*
X178730057Y-100101665D01*
X178773460Y-100054041D01*
X178788342Y-100012906D01*
X178805604Y-99968125D01*
X178825395Y-99955098D01*
X178867463Y-99931009D01*
X178885564Y-99911147D01*
X178915507Y-99876157D01*
X178971195Y-99816522D01*
X179042231Y-99743292D01*
X179066308Y-99718993D01*
X179138179Y-99644462D01*
X179195781Y-99580294D01*
X179229636Y-99537210D01*
X179234032Y-99529323D01*
X179268379Y-99493042D01*
X179284431Y-99487281D01*
X179321471Y-99460871D01*
X179342920Y-99425383D01*
X179376193Y-99378802D01*
X179405510Y-99362763D01*
X179463549Y-99337894D01*
X179532387Y-99290107D01*
X179590409Y-99235601D01*
X179608954Y-99210292D01*
X179650579Y-99170251D01*
X179676089Y-99160303D01*
X179714371Y-99132328D01*
X179735517Y-99088995D01*
X179769030Y-99033558D01*
X179842111Y-98994108D01*
X179846649Y-98992511D01*
X179930517Y-98946523D01*
X179989388Y-98886316D01*
X180031830Y-98835590D01*
X180073557Y-98806273D01*
X180101760Y-98806081D01*
G37*
X180101760Y-98806081D02*
X180106375Y-98815821D01*
X180100959Y-98845474D01*
X180084283Y-98911035D01*
X180059639Y-98999742D01*
X180052743Y-99023617D01*
X180026730Y-99117534D01*
X180008273Y-99192982D01*
X180000610Y-99236453D01*
X180000717Y-99240517D01*
X179994550Y-99275966D01*
X179974217Y-99341358D01*
X179955800Y-99391839D01*
X179925983Y-99492201D01*
X179895828Y-99635497D01*
X179866197Y-99813881D01*
X179837953Y-100019502D01*
X179811958Y-100244510D01*
X179789076Y-100481056D01*
X179770170Y-100721290D01*
X179756103Y-100957363D01*
X179747738Y-101181426D01*
X179745846Y-101301621D01*
X179743477Y-101399435D01*
X179738503Y-101493350D01*
X179736093Y-101522572D01*
X179734496Y-101590388D01*
X179738058Y-101690406D01*
X179746018Y-101804372D01*
X179749380Y-101840912D01*
X179757680Y-101950506D01*
X179760640Y-102047200D01*
X179757933Y-102115184D01*
X179755399Y-102130008D01*
X179754994Y-102202317D01*
X179780504Y-102252694D01*
X179807123Y-102311409D01*
X179804487Y-102345184D01*
X179797843Y-102389797D01*
X179799397Y-102478202D01*
X179808297Y-102604205D01*
X179823692Y-102761612D01*
X179844728Y-102944228D01*
X179870552Y-103145859D01*
X179900313Y-103360312D01*
X179933156Y-103581389D01*
X179968231Y-103802899D01*
X180004683Y-104018646D01*
X180041661Y-104222435D01*
X180078312Y-104408073D01*
X180106014Y-104535802D01*
X180135705Y-104672972D01*
X180161119Y-104803304D01*
X180179820Y-104913363D01*
X180189367Y-104989714D01*
X180189895Y-104998161D01*
X180195472Y-105116907D01*
X180149601Y-105054068D01*
X180104549Y-105011626D01*
X180061884Y-104998607D01*
X180016411Y-104988961D01*
X179953794Y-104955889D01*
X179933496Y-104941799D01*
X179849294Y-104883212D01*
X179749645Y-104819705D01*
X179644777Y-104757077D01*
X179544920Y-104701123D01*
X179460300Y-104657641D01*
X179401146Y-104632431D01*
X179381005Y-104628620D01*
X179344738Y-104617398D01*
X179323132Y-104602378D01*
X179274803Y-104573517D01*
X179197012Y-104538819D01*
X179105503Y-104503952D01*
X179016018Y-104474589D01*
X178944299Y-104456398D01*
X178910327Y-104453695D01*
X178857759Y-104444914D01*
X178811872Y-104419471D01*
X178757165Y-104390183D01*
X178717899Y-104384584D01*
X178667486Y-104384834D01*
X178583190Y-104376824D01*
X178480874Y-104362593D01*
X178376401Y-104344183D01*
X178332731Y-104335038D01*
X178260125Y-104326120D01*
X178164671Y-104323330D01*
X178111715Y-104324912D01*
X178000741Y-104329186D01*
X177884059Y-104330904D01*
X177841142Y-104330638D01*
X177696554Y-104335670D01*
X177532817Y-104352875D01*
X177370108Y-104379289D01*
X177228604Y-104411946D01*
X177175670Y-104428429D01*
X177074481Y-104461830D01*
X176970948Y-104492914D01*
X176930101Y-104504021D01*
X176836483Y-104535074D01*
X176718995Y-104583779D01*
X176597196Y-104641428D01*
X176490643Y-104699317D01*
X176488584Y-104700547D01*
X176437716Y-104728166D01*
X176368489Y-104762530D01*
X176298617Y-104795244D01*
X176245817Y-104817909D01*
X176229948Y-104823150D01*
X176213097Y-104805798D01*
X176204560Y-104764736D01*
X176208312Y-104726868D01*
X176214472Y-104718413D01*
X176231955Y-104688397D01*
X176255403Y-104627620D01*
X176278857Y-104554702D01*
X176296361Y-104488263D01*
X176301956Y-104446925D01*
X176301772Y-104445584D01*
X176310393Y-104410048D01*
X176337072Y-104349967D01*
X176349223Y-104326757D01*
X176381365Y-104248329D01*
X176395993Y-104173311D01*
X176395920Y-104159073D01*
X176399961Y-104102235D01*
X176415495Y-104072931D01*
X176435015Y-104039578D01*
X176434591Y-104028652D01*
X176442256Y-103989300D01*
X176467899Y-103924223D01*
X176486148Y-103886303D01*
X176518507Y-103813120D01*
X176535937Y-103753738D01*
X176536915Y-103735398D01*
X176546937Y-103689307D01*
X176579742Y-103630344D01*
X176583452Y-103625262D01*
X176614501Y-103570552D01*
X176620824Y-103529823D01*
X176619376Y-103526584D01*
X176620579Y-103487654D01*
X176643135Y-103446232D01*
X176671955Y-103394033D01*
X176677646Y-103359270D01*
X176685956Y-103313337D01*
X176709342Y-103266292D01*
X176738341Y-103209741D01*
X176772640Y-103126389D01*
X176794325Y-103065395D01*
X176824727Y-102983822D01*
X176854264Y-102921250D01*
X176871276Y-102896908D01*
X176894649Y-102853452D01*
X176894881Y-102835997D01*
X176906102Y-102788944D01*
X176917297Y-102775294D01*
X176942040Y-102738943D01*
X176976259Y-102671685D01*
X177003092Y-102610582D01*
X177051978Y-102504811D01*
X177111920Y-102392319D01*
X177141867Y-102342121D01*
X177184612Y-102268041D01*
X177211974Y-102208392D01*
X177217905Y-102181318D01*
X177231355Y-102142313D01*
X177257443Y-102114518D01*
X177297686Y-102064772D01*
X177326372Y-102002718D01*
X177353339Y-101939763D01*
X177398316Y-101856225D01*
X177437758Y-101791836D01*
X177500249Y-101693469D01*
X177569805Y-101580542D01*
X177614622Y-101505760D01*
X177667080Y-101418651D01*
X177715703Y-101341107D01*
X177747168Y-101293966D01*
X177853734Y-101148203D01*
X177935495Y-101042776D01*
X177994696Y-100975021D01*
X178033579Y-100942271D01*
X178046800Y-100938199D01*
X178077850Y-100924288D01*
X178080725Y-100912874D01*
X178077471Y-100862731D01*
X178076861Y-100854393D01*
X178094027Y-100817159D01*
X178126402Y-100787957D01*
X178165083Y-100756078D01*
X178175628Y-100738018D01*
X178189621Y-100712842D01*
X178229437Y-100657795D01*
X178287961Y-100581682D01*
X178358082Y-100493310D01*
X178432687Y-100401486D01*
X178504664Y-100315017D01*
X178566900Y-100242708D01*
X178612283Y-100193366D01*
X178625912Y-100180493D01*
X178689322Y-100130857D01*
X178730057Y-100101665D01*
X178773460Y-100054041D01*
X178788342Y-100012906D01*
X178805604Y-99968125D01*
X178825395Y-99955098D01*
X178867463Y-99931009D01*
X178885564Y-99911147D01*
X178915507Y-99876157D01*
X178971195Y-99816522D01*
X179042231Y-99743292D01*
X179066308Y-99718993D01*
X179138179Y-99644462D01*
X179195781Y-99580294D01*
X179229636Y-99537210D01*
X179234032Y-99529323D01*
X179268379Y-99493042D01*
X179284431Y-99487281D01*
X179321471Y-99460871D01*
X179342920Y-99425383D01*
X179376193Y-99378802D01*
X179405510Y-99362763D01*
X179463549Y-99337894D01*
X179532387Y-99290107D01*
X179590409Y-99235601D01*
X179608954Y-99210292D01*
X179650579Y-99170251D01*
X179676089Y-99160303D01*
X179714371Y-99132328D01*
X179735517Y-99088995D01*
X179769030Y-99033558D01*
X179842111Y-98994108D01*
X179846649Y-98992511D01*
X179930517Y-98946523D01*
X179989388Y-98886316D01*
X180031830Y-98835590D01*
X180073557Y-98806273D01*
X180101760Y-98806081D01*
G36*
X180311674Y-98838622D02*
G01*
X180343557Y-98889757D01*
X180357288Y-98917678D01*
X180415819Y-99044089D01*
X180457892Y-99131388D01*
X180487367Y-99187024D01*
X180508103Y-99218446D01*
X180518979Y-99229619D01*
X180544050Y-99269598D01*
X180553224Y-99300956D01*
X180572008Y-99343843D01*
X180614193Y-99414296D01*
X180672031Y-99499754D01*
X180697386Y-99534745D01*
X180772212Y-99635309D01*
X180828609Y-99708439D01*
X180877952Y-99767844D01*
X180931615Y-99827226D01*
X180999170Y-99898418D01*
X181050439Y-99954385D01*
X181083625Y-99995333D01*
X181090131Y-100006794D01*
X181109335Y-100028853D01*
X181158386Y-100075454D01*
X181228191Y-100138515D01*
X181309656Y-100209952D01*
X181393687Y-100281682D01*
X181471193Y-100345625D01*
X181472464Y-100346647D01*
X181517017Y-100384652D01*
X181581651Y-100442203D01*
X181628090Y-100484536D01*
X181714911Y-100557398D01*
X181811763Y-100628580D01*
X181854893Y-100656607D01*
X181948650Y-100715101D01*
X182051523Y-100781314D01*
X182095017Y-100810023D01*
X182198212Y-100877910D01*
X182288929Y-100934520D01*
X182381060Y-100987830D01*
X182488493Y-101045818D01*
X182625118Y-101116463D01*
X182655495Y-101131959D01*
X182763942Y-101187386D01*
X182857510Y-101235536D01*
X182925886Y-101271082D01*
X182958120Y-101288325D01*
X183007843Y-101304642D01*
X183061190Y-101312521D01*
X183119042Y-101326303D01*
X183149004Y-101347742D01*
X183179363Y-101370423D01*
X183244103Y-101405303D01*
X183330102Y-101446564D01*
X183424244Y-101488390D01*
X183513409Y-101524964D01*
X183584479Y-101550470D01*
X183624332Y-101559092D01*
X183625389Y-101558955D01*
X183664675Y-101569940D01*
X183693535Y-101589352D01*
X183738773Y-101613797D01*
X183816051Y-101642990D01*
X183900342Y-101668287D01*
X183990474Y-101695151D01*
X184063538Y-101722308D01*
X184101527Y-101742452D01*
X184150654Y-101763731D01*
X184220605Y-101773681D01*
X184224225Y-101773747D01*
X184294926Y-101783249D01*
X184346749Y-101804948D01*
X184348242Y-101806161D01*
X184400182Y-101830567D01*
X184426367Y-101832275D01*
X184476916Y-101837867D01*
X184544755Y-101858674D01*
X184550802Y-101861096D01*
X184667219Y-101902326D01*
X184778811Y-101930684D01*
X184867150Y-101941683D01*
X184880579Y-101941394D01*
X184947873Y-101952193D01*
X184991092Y-101971539D01*
X185047131Y-101995281D01*
X185082145Y-101998469D01*
X185129830Y-102001651D01*
X185141850Y-102007286D01*
X185177402Y-102021780D01*
X185180964Y-102021894D01*
X185215522Y-102026089D01*
X185275637Y-102037397D01*
X185278369Y-102037969D01*
X185343994Y-102050881D01*
X185439234Y-102068554D01*
X185543627Y-102087195D01*
X185545010Y-102087436D01*
X185652210Y-102106746D01*
X185753211Y-102125911D01*
X185825195Y-102140583D01*
X185914929Y-102156316D01*
X186040521Y-102173193D01*
X186187097Y-102189725D01*
X186339783Y-102204423D01*
X186483704Y-102215798D01*
X186603989Y-102222360D01*
X186652237Y-102223377D01*
X186714248Y-102229056D01*
X186784417Y-102241645D01*
X186851139Y-102250844D01*
X186899052Y-102247598D01*
X186899288Y-102247514D01*
X186957166Y-102245406D01*
X187019007Y-102267231D01*
X187062080Y-102303295D01*
X187069033Y-102319914D01*
X187070520Y-102350577D01*
X187059534Y-102376779D01*
X187030648Y-102400512D01*
X186978437Y-102423769D01*
X186897478Y-102448539D01*
X186782343Y-102476813D01*
X186627610Y-102510582D01*
X186448557Y-102547615D01*
X186283549Y-102582077D01*
X186134283Y-102614730D01*
X186008304Y-102643802D01*
X185913162Y-102667522D01*
X185856403Y-102684119D01*
X185844580Y-102689336D01*
X185807491Y-102703617D01*
X185731255Y-102724057D01*
X185626755Y-102747997D01*
X185504872Y-102772776D01*
X185496706Y-102774334D01*
X185252409Y-102822268D01*
X185054991Y-102864315D01*
X184905275Y-102900274D01*
X184804082Y-102929946D01*
X184752234Y-102953128D01*
X184747445Y-102957436D01*
X184712584Y-102976519D01*
X184641830Y-103001557D01*
X184548956Y-103027825D01*
X184525397Y-103033668D01*
X184416072Y-103061444D01*
X184312610Y-103090089D01*
X184235806Y-103113822D01*
X184230394Y-103115702D01*
X184146293Y-103140305D01*
X184043524Y-103163683D01*
X183995381Y-103172464D01*
X183899975Y-103193630D01*
X183812004Y-103222260D01*
X183777750Y-103237711D01*
X183712023Y-103267089D01*
X183604828Y-103307851D01*
X183463533Y-103357394D01*
X183295509Y-103413113D01*
X183154901Y-103457851D01*
X183069914Y-103488936D01*
X182952642Y-103538005D01*
X182815769Y-103599411D01*
X182671982Y-103667508D01*
X182569894Y-103718224D01*
X182456358Y-103774747D01*
X182323716Y-103839062D01*
X182199137Y-103898006D01*
X182189698Y-103902389D01*
X182084145Y-103953869D01*
X181984893Y-104006648D01*
X181909797Y-104051124D01*
X181896688Y-104059963D01*
X181829700Y-104101714D01*
X181772616Y-104128363D01*
X181760228Y-104131723D01*
X181717308Y-104157691D01*
X181706332Y-104179914D01*
X181678065Y-104214199D01*
X181634406Y-104231284D01*
X181571298Y-104255404D01*
X181536605Y-104282633D01*
X181493738Y-104318844D01*
X181426500Y-104361755D01*
X181400033Y-104376228D01*
X181336553Y-104415649D01*
X181296438Y-104452640D01*
X181290350Y-104464630D01*
X181262946Y-104494968D01*
X181219829Y-104510720D01*
X181159988Y-104536552D01*
X181096837Y-104585144D01*
X181088840Y-104593264D01*
X181019917Y-104652379D01*
X180937144Y-104705764D01*
X180923193Y-104712979D01*
X180860560Y-104751583D01*
X180821835Y-104790155D01*
X180817048Y-104801208D01*
X180788564Y-104838560D01*
X180761563Y-104849443D01*
X180708923Y-104877489D01*
X180689040Y-104901311D01*
X180656525Y-104938492D01*
X180598552Y-104990235D01*
X180530028Y-105044788D01*
X180465860Y-105090398D01*
X180420958Y-105115314D01*
X180415734Y-105116757D01*
X180399171Y-105096354D01*
X180380543Y-105039477D01*
X180368516Y-104983228D01*
X180351212Y-104908593D01*
X180332037Y-104860448D01*
X180319817Y-104849960D01*
X180300657Y-104830581D01*
X180283761Y-104777127D01*
X180280694Y-104760139D01*
X180272230Y-104710311D01*
X180255914Y-104618220D01*
X180233134Y-104491551D01*
X180205279Y-104337991D01*
X180173739Y-104165229D01*
X180141849Y-103991522D01*
X180101585Y-103767012D01*
X180064884Y-103551127D01*
X180032590Y-103349789D01*
X180005553Y-103168918D01*
X179984622Y-103014435D01*
X179970643Y-102892260D01*
X179964464Y-102808316D01*
X179966744Y-102768972D01*
X179966577Y-102737026D01*
X179959605Y-102670096D01*
X179948658Y-102591611D01*
X179924866Y-102405463D01*
X179904338Y-102184835D01*
X179887931Y-101945565D01*
X179876503Y-101703490D01*
X179870911Y-101474445D01*
X179872012Y-101274265D01*
X179874111Y-101214525D01*
X179878609Y-101088746D01*
X179881606Y-100954310D01*
X179882427Y-100851973D01*
X179885368Y-100755056D01*
X179893505Y-100670971D01*
X179903281Y-100624312D01*
X179917191Y-100558896D01*
X179916973Y-100518730D01*
X179916557Y-100467050D01*
X179924398Y-100389526D01*
X179929954Y-100353548D01*
X179944068Y-100258148D01*
X179954180Y-100165799D01*
X179955861Y-100142645D01*
X179966050Y-100041027D01*
X179985348Y-99907089D01*
X180010709Y-99757834D01*
X180039088Y-99610266D01*
X180067442Y-99481388D01*
X180088592Y-99401398D01*
X180111105Y-99315278D01*
X180123711Y-99243725D01*
X180124475Y-99211019D01*
X180130212Y-99168317D01*
X180152039Y-99098152D01*
X180184032Y-99014606D01*
X180220272Y-98931765D01*
X180254838Y-98863709D01*
X180281806Y-98824524D01*
X180288818Y-98820136D01*
X180311674Y-98838622D01*
G37*
X180311674Y-98838622D02*
X180343557Y-98889757D01*
X180357288Y-98917678D01*
X180415819Y-99044089D01*
X180457892Y-99131388D01*
X180487367Y-99187024D01*
X180508103Y-99218446D01*
X180518979Y-99229619D01*
X180544050Y-99269598D01*
X180553224Y-99300956D01*
X180572008Y-99343843D01*
X180614193Y-99414296D01*
X180672031Y-99499754D01*
X180697386Y-99534745D01*
X180772212Y-99635309D01*
X180828609Y-99708439D01*
X180877952Y-99767844D01*
X180931615Y-99827226D01*
X180999170Y-99898418D01*
X181050439Y-99954385D01*
X181083625Y-99995333D01*
X181090131Y-100006794D01*
X181109335Y-100028853D01*
X181158386Y-100075454D01*
X181228191Y-100138515D01*
X181309656Y-100209952D01*
X181393687Y-100281682D01*
X181471193Y-100345625D01*
X181472464Y-100346647D01*
X181517017Y-100384652D01*
X181581651Y-100442203D01*
X181628090Y-100484536D01*
X181714911Y-100557398D01*
X181811763Y-100628580D01*
X181854893Y-100656607D01*
X181948650Y-100715101D01*
X182051523Y-100781314D01*
X182095017Y-100810023D01*
X182198212Y-100877910D01*
X182288929Y-100934520D01*
X182381060Y-100987830D01*
X182488493Y-101045818D01*
X182625118Y-101116463D01*
X182655495Y-101131959D01*
X182763942Y-101187386D01*
X182857510Y-101235536D01*
X182925886Y-101271082D01*
X182958120Y-101288325D01*
X183007843Y-101304642D01*
X183061190Y-101312521D01*
X183119042Y-101326303D01*
X183149004Y-101347742D01*
X183179363Y-101370423D01*
X183244103Y-101405303D01*
X183330102Y-101446564D01*
X183424244Y-101488390D01*
X183513409Y-101524964D01*
X183584479Y-101550470D01*
X183624332Y-101559092D01*
X183625389Y-101558955D01*
X183664675Y-101569940D01*
X183693535Y-101589352D01*
X183738773Y-101613797D01*
X183816051Y-101642990D01*
X183900342Y-101668287D01*
X183990474Y-101695151D01*
X184063538Y-101722308D01*
X184101527Y-101742452D01*
X184150654Y-101763731D01*
X184220605Y-101773681D01*
X184224225Y-101773747D01*
X184294926Y-101783249D01*
X184346749Y-101804948D01*
X184348242Y-101806161D01*
X184400182Y-101830567D01*
X184426367Y-101832275D01*
X184476916Y-101837867D01*
X184544755Y-101858674D01*
X184550802Y-101861096D01*
X184667219Y-101902326D01*
X184778811Y-101930684D01*
X184867150Y-101941683D01*
X184880579Y-101941394D01*
X184947873Y-101952193D01*
X184991092Y-101971539D01*
X185047131Y-101995281D01*
X185082145Y-101998469D01*
X185129830Y-102001651D01*
X185141850Y-102007286D01*
X185177402Y-102021780D01*
X185180964Y-102021894D01*
X185215522Y-102026089D01*
X185275637Y-102037397D01*
X185278369Y-102037969D01*
X185343994Y-102050881D01*
X185439234Y-102068554D01*
X185543627Y-102087195D01*
X185545010Y-102087436D01*
X185652210Y-102106746D01*
X185753211Y-102125911D01*
X185825195Y-102140583D01*
X185914929Y-102156316D01*
X186040521Y-102173193D01*
X186187097Y-102189725D01*
X186339783Y-102204423D01*
X186483704Y-102215798D01*
X186603989Y-102222360D01*
X186652237Y-102223377D01*
X186714248Y-102229056D01*
X186784417Y-102241645D01*
X186851139Y-102250844D01*
X186899052Y-102247598D01*
X186899288Y-102247514D01*
X186957166Y-102245406D01*
X187019007Y-102267231D01*
X187062080Y-102303295D01*
X187069033Y-102319914D01*
X187070520Y-102350577D01*
X187059534Y-102376779D01*
X187030648Y-102400512D01*
X186978437Y-102423769D01*
X186897478Y-102448539D01*
X186782343Y-102476813D01*
X186627610Y-102510582D01*
X186448557Y-102547615D01*
X186283549Y-102582077D01*
X186134283Y-102614730D01*
X186008304Y-102643802D01*
X185913162Y-102667522D01*
X185856403Y-102684119D01*
X185844580Y-102689336D01*
X185807491Y-102703617D01*
X185731255Y-102724057D01*
X185626755Y-102747997D01*
X185504872Y-102772776D01*
X185496706Y-102774334D01*
X185252409Y-102822268D01*
X185054991Y-102864315D01*
X184905275Y-102900274D01*
X184804082Y-102929946D01*
X184752234Y-102953128D01*
X184747445Y-102957436D01*
X184712584Y-102976519D01*
X184641830Y-103001557D01*
X184548956Y-103027825D01*
X184525397Y-103033668D01*
X184416072Y-103061444D01*
X184312610Y-103090089D01*
X184235806Y-103113822D01*
X184230394Y-103115702D01*
X184146293Y-103140305D01*
X184043524Y-103163683D01*
X183995381Y-103172464D01*
X183899975Y-103193630D01*
X183812004Y-103222260D01*
X183777750Y-103237711D01*
X183712023Y-103267089D01*
X183604828Y-103307851D01*
X183463533Y-103357394D01*
X183295509Y-103413113D01*
X183154901Y-103457851D01*
X183069914Y-103488936D01*
X182952642Y-103538005D01*
X182815769Y-103599411D01*
X182671982Y-103667508D01*
X182569894Y-103718224D01*
X182456358Y-103774747D01*
X182323716Y-103839062D01*
X182199137Y-103898006D01*
X182189698Y-103902389D01*
X182084145Y-103953869D01*
X181984893Y-104006648D01*
X181909797Y-104051124D01*
X181896688Y-104059963D01*
X181829700Y-104101714D01*
X181772616Y-104128363D01*
X181760228Y-104131723D01*
X181717308Y-104157691D01*
X181706332Y-104179914D01*
X181678065Y-104214199D01*
X181634406Y-104231284D01*
X181571298Y-104255404D01*
X181536605Y-104282633D01*
X181493738Y-104318844D01*
X181426500Y-104361755D01*
X181400033Y-104376228D01*
X181336553Y-104415649D01*
X181296438Y-104452640D01*
X181290350Y-104464630D01*
X181262946Y-104494968D01*
X181219829Y-104510720D01*
X181159988Y-104536552D01*
X181096837Y-104585144D01*
X181088840Y-104593264D01*
X181019917Y-104652379D01*
X180937144Y-104705764D01*
X180923193Y-104712979D01*
X180860560Y-104751583D01*
X180821835Y-104790155D01*
X180817048Y-104801208D01*
X180788564Y-104838560D01*
X180761563Y-104849443D01*
X180708923Y-104877489D01*
X180689040Y-104901311D01*
X180656525Y-104938492D01*
X180598552Y-104990235D01*
X180530028Y-105044788D01*
X180465860Y-105090398D01*
X180420958Y-105115314D01*
X180415734Y-105116757D01*
X180399171Y-105096354D01*
X180380543Y-105039477D01*
X180368516Y-104983228D01*
X180351212Y-104908593D01*
X180332037Y-104860448D01*
X180319817Y-104849960D01*
X180300657Y-104830581D01*
X180283761Y-104777127D01*
X180280694Y-104760139D01*
X180272230Y-104710311D01*
X180255914Y-104618220D01*
X180233134Y-104491551D01*
X180205279Y-104337991D01*
X180173739Y-104165229D01*
X180141849Y-103991522D01*
X180101585Y-103767012D01*
X180064884Y-103551127D01*
X180032590Y-103349789D01*
X180005553Y-103168918D01*
X179984622Y-103014435D01*
X179970643Y-102892260D01*
X179964464Y-102808316D01*
X179966744Y-102768972D01*
X179966577Y-102737026D01*
X179959605Y-102670096D01*
X179948658Y-102591611D01*
X179924866Y-102405463D01*
X179904338Y-102184835D01*
X179887931Y-101945565D01*
X179876503Y-101703490D01*
X179870911Y-101474445D01*
X179872012Y-101274265D01*
X179874111Y-101214525D01*
X179878609Y-101088746D01*
X179881606Y-100954310D01*
X179882427Y-100851973D01*
X179885368Y-100755056D01*
X179893505Y-100670971D01*
X179903281Y-100624312D01*
X179917191Y-100558896D01*
X179916973Y-100518730D01*
X179916557Y-100467050D01*
X179924398Y-100389526D01*
X179929954Y-100353548D01*
X179944068Y-100258148D01*
X179954180Y-100165799D01*
X179955861Y-100142645D01*
X179966050Y-100041027D01*
X179985348Y-99907089D01*
X180010709Y-99757834D01*
X180039088Y-99610266D01*
X180067442Y-99481388D01*
X180088592Y-99401398D01*
X180111105Y-99315278D01*
X180123711Y-99243725D01*
X180124475Y-99211019D01*
X180130212Y-99168317D01*
X180152039Y-99098152D01*
X180184032Y-99014606D01*
X180220272Y-98931765D01*
X180254838Y-98863709D01*
X180281806Y-98824524D01*
X180288818Y-98820136D01*
X180311674Y-98838622D01*
G36*
X193559392Y-95502152D02*
G01*
X193685212Y-95483689D01*
X193808839Y-95469214D01*
X193919721Y-95460536D01*
X193945089Y-95459456D01*
X194040966Y-95454232D01*
X194170525Y-95444364D01*
X194317010Y-95431253D01*
X194463665Y-95416296D01*
X194468198Y-95415800D01*
X194611079Y-95401426D01*
X194750958Y-95389632D01*
X194872399Y-95381581D01*
X194959963Y-95378434D01*
X194964549Y-95378428D01*
X195038087Y-95377316D01*
X195151475Y-95374026D01*
X195293826Y-95368949D01*
X195454256Y-95362472D01*
X195621878Y-95354986D01*
X195628872Y-95354658D01*
X195995782Y-95340216D01*
X196326745Y-95333573D01*
X196636005Y-95334697D01*
X196937807Y-95343554D01*
X197098416Y-95351308D01*
X197214212Y-95357513D01*
X197345040Y-95364394D01*
X197423840Y-95368471D01*
X197538674Y-95376545D01*
X197692540Y-95390566D01*
X197874179Y-95409312D01*
X198072330Y-95431558D01*
X198275735Y-95456083D01*
X198473132Y-95481664D01*
X198501954Y-95485574D01*
X198648243Y-95509918D01*
X198833988Y-95547633D01*
X199050334Y-95596385D01*
X199288422Y-95653838D01*
X199539395Y-95717663D01*
X199794399Y-95785524D01*
X200044578Y-95855087D01*
X200281073Y-95924022D01*
X200495028Y-95989993D01*
X200677589Y-96050667D01*
X200760490Y-96080592D01*
X201045833Y-96195085D01*
X201346383Y-96329223D01*
X201650483Y-96477003D01*
X201946477Y-96632417D01*
X202222711Y-96789463D01*
X202467528Y-96942131D01*
X202576119Y-97016081D01*
X202812575Y-97183580D01*
X203012487Y-97326898D01*
X203181340Y-97450390D01*
X203324616Y-97558409D01*
X203447799Y-97655312D01*
X203556373Y-97745450D01*
X203655822Y-97833182D01*
X203751631Y-97922859D01*
X203849282Y-98018838D01*
X203887871Y-98057725D01*
X203949675Y-98118119D01*
X204007014Y-98170778D01*
X204012762Y-98175750D01*
X204050795Y-98218799D01*
X204061849Y-98250255D01*
X204034321Y-98270900D01*
X203964812Y-98289151D01*
X203862125Y-98303871D01*
X203735064Y-98313922D01*
X203592432Y-98318172D01*
X203536679Y-98318036D01*
X203329505Y-98317258D01*
X203161398Y-98321170D01*
X203020734Y-98331190D01*
X202895887Y-98348738D01*
X202775230Y-98375233D01*
X202647138Y-98412096D01*
X202574843Y-98435464D01*
X202362029Y-98510834D01*
X202189234Y-98583617D01*
X202046256Y-98658858D01*
X201922890Y-98741599D01*
X201869115Y-98784235D01*
X201788109Y-98851043D01*
X201709604Y-98914845D01*
X201666779Y-98949031D01*
X201595339Y-99013747D01*
X201511896Y-99102651D01*
X201422612Y-99207519D01*
X201333648Y-99320128D01*
X201251165Y-99432254D01*
X201181324Y-99535672D01*
X201130286Y-99622157D01*
X201104212Y-99683487D01*
X201102485Y-99702282D01*
X201091886Y-99740541D01*
X201059232Y-99795680D01*
X201054269Y-99802474D01*
X201009084Y-99882166D01*
X200959828Y-100002139D01*
X200909824Y-100152415D01*
X200862393Y-100323015D01*
X200820953Y-100503486D01*
X200796690Y-100632636D01*
X200773403Y-100776030D01*
X200752436Y-100922865D01*
X200735136Y-101062338D01*
X200722846Y-101183650D01*
X200716912Y-101275999D01*
X200718376Y-101326985D01*
X200719630Y-101375957D01*
X200714653Y-101457256D01*
X200704973Y-101549395D01*
X200684829Y-101659727D01*
X200656381Y-101720616D01*
X200616543Y-101733150D01*
X200562227Y-101698416D01*
X200495016Y-101623396D01*
X200412438Y-101533836D01*
X200320700Y-101466718D01*
X200208614Y-101416665D01*
X200064987Y-101378297D01*
X199936589Y-101355020D01*
X199557192Y-101303167D01*
X199216689Y-101275575D01*
X198908725Y-101273408D01*
X198626950Y-101297825D01*
X198365012Y-101349990D01*
X198116558Y-101431063D01*
X197875238Y-101542207D01*
X197634697Y-101684584D01*
X197456283Y-101808660D01*
X197413553Y-101847685D01*
X197353044Y-101912047D01*
X197293294Y-101981350D01*
X197043947Y-102296757D01*
X196836896Y-102588188D01*
X196670812Y-102857702D01*
X196544369Y-103107355D01*
X196503571Y-103204715D01*
X196466624Y-103289109D01*
X196431856Y-103351815D01*
X196406320Y-103380273D01*
X196404766Y-103380716D01*
X196369916Y-103369561D01*
X196306935Y-103334911D01*
X196228315Y-103283774D01*
X196213431Y-103273334D01*
X196132447Y-103222898D01*
X196013775Y-103158262D01*
X195866956Y-103083924D01*
X195701534Y-103004386D01*
X195527052Y-102924149D01*
X195353053Y-102847715D01*
X195189081Y-102779581D01*
X195064590Y-102731512D01*
X194866821Y-102668019D01*
X194629450Y-102607360D01*
X194363671Y-102551787D01*
X194080679Y-102503557D01*
X193791670Y-102464921D01*
X193682349Y-102453200D01*
X193420163Y-102427940D01*
X193198245Y-102408801D01*
X193006471Y-102395454D01*
X192834717Y-102387574D01*
X192672860Y-102384831D01*
X192510779Y-102386902D01*
X192338349Y-102393458D01*
X192151915Y-102403775D01*
X192020073Y-102411380D01*
X191880699Y-102418701D01*
X191760506Y-102424345D01*
X191743002Y-102425075D01*
X191670612Y-102429237D01*
X191556115Y-102437348D01*
X191407993Y-102448734D01*
X191234731Y-102462724D01*
X191044808Y-102478648D01*
X190846709Y-102495833D01*
X190827275Y-102497551D01*
X190611401Y-102517123D01*
X190413129Y-102536231D01*
X190223136Y-102555973D01*
X190032101Y-102577447D01*
X189830705Y-102601752D01*
X189609627Y-102629984D01*
X189359545Y-102663243D01*
X189071140Y-102702625D01*
X188982782Y-102714826D01*
X188903390Y-102726479D01*
X188791404Y-102743776D01*
X188664333Y-102763985D01*
X188584694Y-102776936D01*
X188312495Y-102821631D01*
X188245299Y-102334422D01*
X188229976Y-102220500D01*
X188685181Y-102140236D01*
X188701480Y-102227360D01*
X188719331Y-102289716D01*
X188728918Y-102307358D01*
X188758242Y-102313258D01*
X188828279Y-102308902D01*
X188941358Y-102293994D01*
X189099810Y-102268238D01*
X189255586Y-102240574D01*
X189424290Y-102210661D01*
X189589759Y-102182803D01*
X189740326Y-102158855D01*
X189864319Y-102140677D01*
X189950045Y-102130124D01*
X190074187Y-102117607D01*
X190235066Y-102100814D01*
X190418942Y-102081231D01*
X190612079Y-102060344D01*
X190800738Y-102039644D01*
X190971185Y-102020615D01*
X191109680Y-102004744D01*
X191126901Y-102002722D01*
X191238952Y-101990371D01*
X191345652Y-101980059D01*
X191425552Y-101973845D01*
X191431255Y-101973527D01*
X191529444Y-101967559D01*
X191630468Y-101960267D01*
X191637748Y-101959681D01*
X191711005Y-101957070D01*
X191764286Y-101961073D01*
X191772475Y-101963325D01*
X191810582Y-101966497D01*
X191885076Y-101964244D01*
X191981894Y-101957106D01*
X192013269Y-101954085D01*
X192113674Y-101945776D01*
X192195624Y-101942482D01*
X192245243Y-101944648D01*
X192251822Y-101946463D01*
X192290326Y-101951646D01*
X192362957Y-101951604D01*
X192445346Y-101946950D01*
X192558048Y-101940292D01*
X192686457Y-101936435D01*
X192818174Y-101935308D01*
X192940798Y-101936847D01*
X193041933Y-101940982D01*
X193109179Y-101947646D01*
X193122683Y-101950645D01*
X193182628Y-101957065D01*
X193243926Y-101952086D01*
X193302966Y-101949353D01*
X193337125Y-101960696D01*
X193371807Y-101972183D01*
X193438815Y-101977439D01*
X193483939Y-101976896D01*
X193560613Y-101977322D01*
X193614795Y-101984440D01*
X193628709Y-101990805D01*
X193664484Y-102001915D01*
X193705841Y-101999597D01*
X193776203Y-101997050D01*
X193840649Y-102004830D01*
X193914892Y-102020364D01*
X193969089Y-102031565D01*
X194029142Y-102040609D01*
X194109622Y-102049068D01*
X194127178Y-102050499D01*
X194222051Y-102061213D01*
X194344164Y-102079758D01*
X194477007Y-102103108D01*
X194604068Y-102128238D01*
X194708839Y-102152122D01*
X194760196Y-102166519D01*
X194823515Y-102183271D01*
X194864928Y-102187221D01*
X194868510Y-102186207D01*
X194902364Y-102189891D01*
X194959606Y-102211153D01*
X194967836Y-102214974D01*
X195026548Y-102239717D01*
X195064309Y-102249860D01*
X195066513Y-102249719D01*
X195105459Y-102254132D01*
X195173621Y-102270449D01*
X195253593Y-102293476D01*
X195327972Y-102318021D01*
X195379350Y-102338893D01*
X195391205Y-102346577D01*
X195426400Y-102366399D01*
X195490155Y-102388992D01*
X195510815Y-102394808D01*
X195602198Y-102426846D01*
X195717320Y-102477967D01*
X195837706Y-102538999D01*
X195944879Y-102600768D01*
X195998968Y-102637161D01*
X196054753Y-102671916D01*
X196095871Y-102686381D01*
X196099098Y-102686205D01*
X196128578Y-102665284D01*
X196177284Y-102615357D01*
X196225697Y-102558207D01*
X196282976Y-102479533D01*
X196328295Y-102404672D01*
X196347136Y-102362699D01*
X196377295Y-102295263D01*
X196423549Y-102218603D01*
X196435504Y-102201768D01*
X196482214Y-102137324D01*
X196518448Y-102085266D01*
X196525224Y-102074928D01*
X196588457Y-101977570D01*
X196642244Y-101899200D01*
X196680495Y-101848432D01*
X196695993Y-101833439D01*
X196719377Y-101816062D01*
X196768992Y-101772388D01*
X196834588Y-101711472D01*
X196841877Y-101704548D01*
X196910212Y-101641829D01*
X196965606Y-101595253D01*
X196996902Y-101574154D01*
X196998118Y-101573831D01*
X197017334Y-101550761D01*
X197016952Y-101544718D01*
X197034103Y-101520301D01*
X197059506Y-101511423D01*
X197111571Y-101483510D01*
X197130996Y-101460130D01*
X197173043Y-101419688D01*
X197199423Y-101409377D01*
X197248721Y-101382080D01*
X197267797Y-101358714D01*
X197302246Y-101325292D01*
X197367830Y-101280662D01*
X197441368Y-101239284D01*
X197525315Y-101194384D01*
X197595157Y-101153794D01*
X197631671Y-101129317D01*
X197671168Y-101105868D01*
X197745942Y-101068479D01*
X197844384Y-101022768D01*
X197930034Y-100984990D01*
X198209949Y-100884576D01*
X198505719Y-100819617D01*
X198829665Y-100787440D01*
X198843489Y-100786793D01*
X198955125Y-100780675D01*
X199062655Y-100772965D01*
X199142104Y-100765406D01*
X199217399Y-100763049D01*
X199274617Y-100772777D01*
X199284874Y-100777910D01*
X199338371Y-100794550D01*
X199375415Y-100793564D01*
X199436711Y-100799581D01*
X199467642Y-100815990D01*
X199520146Y-100839719D01*
X199547784Y-100840546D01*
X199593049Y-100843830D01*
X199669104Y-100859796D01*
X199749842Y-100882150D01*
X199832293Y-100905223D01*
X199893200Y-100918001D01*
X199918879Y-100917852D01*
X199946811Y-100915318D01*
X200001718Y-100927441D01*
X200005313Y-100928547D01*
X200061843Y-100944730D01*
X200092626Y-100950786D01*
X200093051Y-100950735D01*
X200108431Y-100925564D01*
X200124906Y-100865448D01*
X200139816Y-100786101D01*
X200150503Y-100703238D01*
X200154307Y-100632575D01*
X200152072Y-100601948D01*
X200149794Y-100524858D01*
X200161891Y-100433869D01*
X200167468Y-100410576D01*
X200210612Y-100253803D01*
X200252592Y-100106724D01*
X200289974Y-99981047D01*
X200319326Y-99888478D01*
X200327514Y-99864824D01*
X200358879Y-99787795D01*
X200402485Y-99693222D01*
X200451891Y-99593633D01*
X200500659Y-99501561D01*
X200542345Y-99429534D01*
X200570510Y-99390084D01*
X200572416Y-99388345D01*
X200598003Y-99351048D01*
X200599461Y-99336125D01*
X200605816Y-99306370D01*
X200633457Y-99251646D01*
X200685241Y-99167021D01*
X200764022Y-99047566D01*
X200782364Y-99020399D01*
X200824556Y-98952643D01*
X200850451Y-98900434D01*
X200854689Y-98882050D01*
X200871929Y-98857798D01*
X200898490Y-98848535D01*
X200943972Y-98821409D01*
X200984867Y-98768825D01*
X201015038Y-98718809D01*
X201035716Y-98695428D01*
X201036265Y-98695283D01*
X201059721Y-98679217D01*
X201114782Y-98636812D01*
X201193855Y-98574041D01*
X201289349Y-98496880D01*
X201316116Y-98475046D01*
X201448122Y-98368566D01*
X201553492Y-98288282D01*
X201643925Y-98227056D01*
X201731118Y-98177751D01*
X201826768Y-98133227D01*
X201942575Y-98086347D01*
X201971310Y-98075243D01*
X202079755Y-98038490D01*
X202205604Y-98003569D01*
X202338291Y-97972494D01*
X202467251Y-97947276D01*
X202581917Y-97929926D01*
X202671721Y-97922457D01*
X202726098Y-97926881D01*
X202733068Y-97930184D01*
X202775495Y-97943911D01*
X202822179Y-97941231D01*
X202849941Y-97924781D01*
X202851000Y-97916780D01*
X202829143Y-97895345D01*
X202774176Y-97855764D01*
X202696802Y-97805610D01*
X202674191Y-97791684D01*
X202572404Y-97723953D01*
X202512718Y-97669393D01*
X202490045Y-97624978D01*
X202467308Y-97577495D01*
X202439365Y-97570956D01*
X202398835Y-97568680D01*
X202341194Y-97547754D01*
X202260336Y-97505014D01*
X202150155Y-97437299D01*
X202033367Y-97360734D01*
X201940088Y-97300773D01*
X201860894Y-97254060D01*
X201806092Y-97226442D01*
X201787974Y-97221561D01*
X201750957Y-97210751D01*
X201693317Y-97177506D01*
X201671785Y-97162369D01*
X201594262Y-97113690D01*
X201515271Y-97076470D01*
X201502746Y-97072137D01*
X201436523Y-97046566D01*
X201346965Y-97006209D01*
X201268495Y-96967441D01*
X201177973Y-96922595D01*
X201094900Y-96884771D01*
X201044252Y-96864703D01*
X200977312Y-96837496D01*
X200932228Y-96812679D01*
X200883259Y-96787754D01*
X200810028Y-96759841D01*
X200785929Y-96752079D01*
X200720481Y-96727785D01*
X200680842Y-96704953D01*
X200675909Y-96697960D01*
X200651161Y-96676509D01*
X200625736Y-96669391D01*
X200560706Y-96652457D01*
X200537308Y-96643273D01*
X200479914Y-96623086D01*
X200428213Y-96609658D01*
X200365555Y-96591296D01*
X200281300Y-96560803D01*
X200235821Y-96542458D01*
X200157405Y-96513399D01*
X200093619Y-96496612D01*
X200070215Y-96494801D01*
X200020872Y-96483977D01*
X199975875Y-96457825D01*
X199927590Y-96427852D01*
X199898196Y-96419939D01*
X199864840Y-96415370D01*
X199794648Y-96399684D01*
X199699633Y-96375683D01*
X199640096Y-96359667D01*
X199440715Y-96305309D01*
X199284290Y-96263769D01*
X199164988Y-96233714D01*
X199076975Y-96213810D01*
X199014420Y-96202723D01*
X198971487Y-96199120D01*
X198945889Y-96200979D01*
X198886003Y-96197073D01*
X198842299Y-96182825D01*
X198786740Y-96165878D01*
X198701584Y-96149363D01*
X198629055Y-96139620D01*
X198535759Y-96126512D01*
X198456108Y-96109925D01*
X198417096Y-96097349D01*
X198351289Y-96080080D01*
X198310861Y-96079949D01*
X198255205Y-96078245D01*
X198177677Y-96064177D01*
X198151417Y-96057355D01*
X198077775Y-96039503D01*
X198022294Y-96031256D01*
X198010628Y-96031471D01*
X197973258Y-96030546D01*
X197897527Y-96024276D01*
X197795462Y-96013765D01*
X197709142Y-96003797D01*
X197584971Y-95989450D01*
X197468094Y-95977049D01*
X197374893Y-95968280D01*
X197335651Y-95965375D01*
X197249799Y-95957603D01*
X197143902Y-95944205D01*
X197082158Y-95934797D01*
X196995847Y-95924910D01*
X196926930Y-95924804D01*
X196897211Y-95931590D01*
X196855242Y-95938086D01*
X196840316Y-95929210D01*
X196803856Y-95918136D01*
X196739383Y-95920017D01*
X196718867Y-95923075D01*
X196637847Y-95929624D01*
X196567808Y-95922936D01*
X196558703Y-95920316D01*
X196509798Y-95906320D01*
X196460361Y-95901105D01*
X196392992Y-95904166D01*
X196307640Y-95913010D01*
X196235537Y-95917541D01*
X196186355Y-95913890D01*
X196176984Y-95909897D01*
X196145980Y-95904566D01*
X196075996Y-95903091D01*
X195978704Y-95905502D01*
X195906044Y-95909186D01*
X195793941Y-95915029D01*
X195698326Y-95918317D01*
X195632279Y-95918686D01*
X195612019Y-95917311D01*
X195552290Y-95912837D01*
X195521098Y-95913623D01*
X195478566Y-95916515D01*
X195395705Y-95922112D01*
X195282870Y-95929716D01*
X195150418Y-95938627D01*
X195087788Y-95942838D01*
X194926543Y-95955002D01*
X194757773Y-95969977D01*
X194599860Y-95985999D01*
X194471192Y-96001303D01*
X194453720Y-96003682D01*
X194320190Y-96019769D01*
X194181046Y-96032368D01*
X194059719Y-96039487D01*
X194023237Y-96040339D01*
X193923683Y-96043572D01*
X193857264Y-96057030D01*
X193817146Y-96089335D01*
X193796494Y-96149112D01*
X193788475Y-96244984D01*
X193786713Y-96338803D01*
X193781124Y-96546395D01*
X193768176Y-96718102D01*
X193746285Y-96868512D01*
X193713865Y-97012209D01*
X193713376Y-97014065D01*
X193691452Y-97101695D01*
X193676698Y-97169632D01*
X193672266Y-97203333D01*
X193672291Y-97203480D01*
X193665328Y-97240882D01*
X193641610Y-97314204D01*
X193605350Y-97413096D01*
X193560759Y-97527209D01*
X193512051Y-97646191D01*
X193463439Y-97759693D01*
X193419136Y-97857364D01*
X193383355Y-97928856D01*
X193364837Y-97958824D01*
X193337215Y-98001003D01*
X193293715Y-98074774D01*
X193242128Y-98166781D01*
X193222328Y-98203182D01*
X193128099Y-98365988D01*
X193014794Y-98542761D01*
X192890238Y-98722762D01*
X192762256Y-98895247D01*
X192638673Y-99049479D01*
X192527313Y-99174716D01*
X192480578Y-99221305D01*
X192409042Y-99295411D01*
X192343172Y-99374326D01*
X192321130Y-99404876D01*
X192274378Y-99462708D01*
X192230514Y-99498004D01*
X192219726Y-99501912D01*
X192176506Y-99527570D01*
X192139997Y-99570900D01*
X192096475Y-99626430D01*
X192026317Y-99701117D01*
X191942481Y-99782287D01*
X191857922Y-99857268D01*
X191801116Y-99902340D01*
X191762839Y-99934471D01*
X191705791Y-99986497D01*
X191678638Y-100012234D01*
X191616738Y-100067897D01*
X191530328Y-100140845D01*
X191435385Y-100217675D01*
X191409015Y-100238396D01*
X191320917Y-100308991D01*
X191242993Y-100374813D01*
X191188060Y-100424922D01*
X191176221Y-100437182D01*
X191127653Y-100480665D01*
X191088228Y-100500974D01*
X191051015Y-100518368D01*
X190988534Y-100557824D01*
X190911523Y-100611355D01*
X190830720Y-100670977D01*
X190756858Y-100728705D01*
X190700675Y-100776553D01*
X190672906Y-100806538D01*
X190671703Y-100810761D01*
X190653280Y-100830705D01*
X190617638Y-100841869D01*
X190553650Y-100868758D01*
X190517804Y-100897340D01*
X190461653Y-100938084D01*
X190421370Y-100953032D01*
X190362291Y-100981447D01*
X190336109Y-101007574D01*
X190288712Y-101048266D01*
X190257558Y-101060113D01*
X190210813Y-101076306D01*
X190196435Y-101087759D01*
X190165881Y-101111947D01*
X190101112Y-101152626D01*
X190013350Y-101203567D01*
X189913813Y-101258541D01*
X189813724Y-101311317D01*
X189724300Y-101355664D01*
X189670146Y-101379993D01*
X189594161Y-101416100D01*
X189537120Y-101451487D01*
X189519335Y-101468160D01*
X189476918Y-101499078D01*
X189422389Y-101516877D01*
X189352643Y-101538532D01*
X189306883Y-101563946D01*
X189257551Y-101590817D01*
X189180686Y-101620914D01*
X189134234Y-101635664D01*
X189053058Y-101662609D01*
X188988720Y-101690030D01*
X188967495Y-101702690D01*
X188922669Y-101729184D01*
X188850579Y-101763641D01*
X188805919Y-101782652D01*
X188726374Y-101820923D01*
X188684496Y-101859391D01*
X188669816Y-101897989D01*
X188666927Y-101958775D01*
X188672856Y-102045116D01*
X188685181Y-102140236D01*
X188229976Y-102220500D01*
X188223346Y-102171207D01*
X188203292Y-102014577D01*
X188186482Y-101875630D01*
X188174262Y-101765464D01*
X188168171Y-101698186D01*
X188158239Y-101549157D01*
X188525442Y-101437574D01*
X188775467Y-101354767D01*
X188992896Y-101267085D01*
X189164227Y-101184077D01*
X189383835Y-101068964D01*
X189579017Y-100965939D01*
X189745882Y-100877086D01*
X189880547Y-100804490D01*
X189979122Y-100750239D01*
X190037720Y-100716416D01*
X190047821Y-100709958D01*
X190297443Y-100539037D01*
X190510985Y-100390916D01*
X190694794Y-100260453D01*
X190855216Y-100142507D01*
X190998597Y-100031938D01*
X191131282Y-99923606D01*
X191259619Y-99812367D01*
X191389953Y-99693084D01*
X191528630Y-99560612D01*
X191681998Y-99409813D01*
X191808139Y-99283940D01*
X191922038Y-99163636D01*
X192048715Y-99019548D01*
X192179386Y-98862624D01*
X192305265Y-98703808D01*
X192417563Y-98554048D01*
X192507496Y-98424288D01*
X192540948Y-98370970D01*
X192599520Y-98272856D01*
X192656809Y-98176959D01*
X192700513Y-98103869D01*
X192700876Y-98103263D01*
X192736585Y-98040353D01*
X192772632Y-97968662D01*
X192814885Y-97875794D01*
X192869209Y-97749350D01*
X192875923Y-97733458D01*
X192893708Y-97691977D01*
X192926161Y-97616868D01*
X192967681Y-97521084D01*
X192989915Y-97469889D01*
X193073481Y-97260397D01*
X193147660Y-97041209D01*
X193208858Y-96825257D01*
X193253481Y-96625470D01*
X193277934Y-96454778D01*
X193280029Y-96426268D01*
X193282832Y-96304972D01*
X193279857Y-96155567D01*
X193271788Y-96000329D01*
X193263974Y-95905178D01*
X193253370Y-95785774D01*
X193246296Y-95684335D01*
X193243390Y-95611844D01*
X193245123Y-95579656D01*
X193274240Y-95563355D01*
X193343357Y-95543797D01*
X193441923Y-95522793D01*
X193559392Y-95502152D01*
G37*
X193559392Y-95502152D02*
X193685212Y-95483689D01*
X193808839Y-95469214D01*
X193919721Y-95460536D01*
X193945089Y-95459456D01*
X194040966Y-95454232D01*
X194170525Y-95444364D01*
X194317010Y-95431253D01*
X194463665Y-95416296D01*
X194468198Y-95415800D01*
X194611079Y-95401426D01*
X194750958Y-95389632D01*
X194872399Y-95381581D01*
X194959963Y-95378434D01*
X194964549Y-95378428D01*
X195038087Y-95377316D01*
X195151475Y-95374026D01*
X195293826Y-95368949D01*
X195454256Y-95362472D01*
X195621878Y-95354986D01*
X195628872Y-95354658D01*
X195995782Y-95340216D01*
X196326745Y-95333573D01*
X196636005Y-95334697D01*
X196937807Y-95343554D01*
X197098416Y-95351308D01*
X197214212Y-95357513D01*
X197345040Y-95364394D01*
X197423840Y-95368471D01*
X197538674Y-95376545D01*
X197692540Y-95390566D01*
X197874179Y-95409312D01*
X198072330Y-95431558D01*
X198275735Y-95456083D01*
X198473132Y-95481664D01*
X198501954Y-95485574D01*
X198648243Y-95509918D01*
X198833988Y-95547633D01*
X199050334Y-95596385D01*
X199288422Y-95653838D01*
X199539395Y-95717663D01*
X199794399Y-95785524D01*
X200044578Y-95855087D01*
X200281073Y-95924022D01*
X200495028Y-95989993D01*
X200677589Y-96050667D01*
X200760490Y-96080592D01*
X201045833Y-96195085D01*
X201346383Y-96329223D01*
X201650483Y-96477003D01*
X201946477Y-96632417D01*
X202222711Y-96789463D01*
X202467528Y-96942131D01*
X202576119Y-97016081D01*
X202812575Y-97183580D01*
X203012487Y-97326898D01*
X203181340Y-97450390D01*
X203324616Y-97558409D01*
X203447799Y-97655312D01*
X203556373Y-97745450D01*
X203655822Y-97833182D01*
X203751631Y-97922859D01*
X203849282Y-98018838D01*
X203887871Y-98057725D01*
X203949675Y-98118119D01*
X204007014Y-98170778D01*
X204012762Y-98175750D01*
X204050795Y-98218799D01*
X204061849Y-98250255D01*
X204034321Y-98270900D01*
X203964812Y-98289151D01*
X203862125Y-98303871D01*
X203735064Y-98313922D01*
X203592432Y-98318172D01*
X203536679Y-98318036D01*
X203329505Y-98317258D01*
X203161398Y-98321170D01*
X203020734Y-98331190D01*
X202895887Y-98348738D01*
X202775230Y-98375233D01*
X202647138Y-98412096D01*
X202574843Y-98435464D01*
X202362029Y-98510834D01*
X202189234Y-98583617D01*
X202046256Y-98658858D01*
X201922890Y-98741599D01*
X201869115Y-98784235D01*
X201788109Y-98851043D01*
X201709604Y-98914845D01*
X201666779Y-98949031D01*
X201595339Y-99013747D01*
X201511896Y-99102651D01*
X201422612Y-99207519D01*
X201333648Y-99320128D01*
X201251165Y-99432254D01*
X201181324Y-99535672D01*
X201130286Y-99622157D01*
X201104212Y-99683487D01*
X201102485Y-99702282D01*
X201091886Y-99740541D01*
X201059232Y-99795680D01*
X201054269Y-99802474D01*
X201009084Y-99882166D01*
X200959828Y-100002139D01*
X200909824Y-100152415D01*
X200862393Y-100323015D01*
X200820953Y-100503486D01*
X200796690Y-100632636D01*
X200773403Y-100776030D01*
X200752436Y-100922865D01*
X200735136Y-101062338D01*
X200722846Y-101183650D01*
X200716912Y-101275999D01*
X200718376Y-101326985D01*
X200719630Y-101375957D01*
X200714653Y-101457256D01*
X200704973Y-101549395D01*
X200684829Y-101659727D01*
X200656381Y-101720616D01*
X200616543Y-101733150D01*
X200562227Y-101698416D01*
X200495016Y-101623396D01*
X200412438Y-101533836D01*
X200320700Y-101466718D01*
X200208614Y-101416665D01*
X200064987Y-101378297D01*
X199936589Y-101355020D01*
X199557192Y-101303167D01*
X199216689Y-101275575D01*
X198908725Y-101273408D01*
X198626950Y-101297825D01*
X198365012Y-101349990D01*
X198116558Y-101431063D01*
X197875238Y-101542207D01*
X197634697Y-101684584D01*
X197456283Y-101808660D01*
X197413553Y-101847685D01*
X197353044Y-101912047D01*
X197293294Y-101981350D01*
X197043947Y-102296757D01*
X196836896Y-102588188D01*
X196670812Y-102857702D01*
X196544369Y-103107355D01*
X196503571Y-103204715D01*
X196466624Y-103289109D01*
X196431856Y-103351815D01*
X196406320Y-103380273D01*
X196404766Y-103380716D01*
X196369916Y-103369561D01*
X196306935Y-103334911D01*
X196228315Y-103283774D01*
X196213431Y-103273334D01*
X196132447Y-103222898D01*
X196013775Y-103158262D01*
X195866956Y-103083924D01*
X195701534Y-103004386D01*
X195527052Y-102924149D01*
X195353053Y-102847715D01*
X195189081Y-102779581D01*
X195064590Y-102731512D01*
X194866821Y-102668019D01*
X194629450Y-102607360D01*
X194363671Y-102551787D01*
X194080679Y-102503557D01*
X193791670Y-102464921D01*
X193682349Y-102453200D01*
X193420163Y-102427940D01*
X193198245Y-102408801D01*
X193006471Y-102395454D01*
X192834717Y-102387574D01*
X192672860Y-102384831D01*
X192510779Y-102386902D01*
X192338349Y-102393458D01*
X192151915Y-102403775D01*
X192020073Y-102411380D01*
X191880699Y-102418701D01*
X191760506Y-102424345D01*
X191743002Y-102425075D01*
X191670612Y-102429237D01*
X191556115Y-102437348D01*
X191407993Y-102448734D01*
X191234731Y-102462724D01*
X191044808Y-102478648D01*
X190846709Y-102495833D01*
X190827275Y-102497551D01*
X190611401Y-102517123D01*
X190413129Y-102536231D01*
X190223136Y-102555973D01*
X190032101Y-102577447D01*
X189830705Y-102601752D01*
X189609627Y-102629984D01*
X189359545Y-102663243D01*
X189071140Y-102702625D01*
X188982782Y-102714826D01*
X188903390Y-102726479D01*
X188791404Y-102743776D01*
X188664333Y-102763985D01*
X188584694Y-102776936D01*
X188312495Y-102821631D01*
X188245299Y-102334422D01*
X188229976Y-102220500D01*
X188685181Y-102140236D01*
X188701480Y-102227360D01*
X188719331Y-102289716D01*
X188728918Y-102307358D01*
X188758242Y-102313258D01*
X188828279Y-102308902D01*
X188941358Y-102293994D01*
X189099810Y-102268238D01*
X189255586Y-102240574D01*
X189424290Y-102210661D01*
X189589759Y-102182803D01*
X189740326Y-102158855D01*
X189864319Y-102140677D01*
X189950045Y-102130124D01*
X190074187Y-102117607D01*
X190235066Y-102100814D01*
X190418942Y-102081231D01*
X190612079Y-102060344D01*
X190800738Y-102039644D01*
X190971185Y-102020615D01*
X191109680Y-102004744D01*
X191126901Y-102002722D01*
X191238952Y-101990371D01*
X191345652Y-101980059D01*
X191425552Y-101973845D01*
X191431255Y-101973527D01*
X191529444Y-101967559D01*
X191630468Y-101960267D01*
X191637748Y-101959681D01*
X191711005Y-101957070D01*
X191764286Y-101961073D01*
X191772475Y-101963325D01*
X191810582Y-101966497D01*
X191885076Y-101964244D01*
X191981894Y-101957106D01*
X192013269Y-101954085D01*
X192113674Y-101945776D01*
X192195624Y-101942482D01*
X192245243Y-101944648D01*
X192251822Y-101946463D01*
X192290326Y-101951646D01*
X192362957Y-101951604D01*
X192445346Y-101946950D01*
X192558048Y-101940292D01*
X192686457Y-101936435D01*
X192818174Y-101935308D01*
X192940798Y-101936847D01*
X193041933Y-101940982D01*
X193109179Y-101947646D01*
X193122683Y-101950645D01*
X193182628Y-101957065D01*
X193243926Y-101952086D01*
X193302966Y-101949353D01*
X193337125Y-101960696D01*
X193371807Y-101972183D01*
X193438815Y-101977439D01*
X193483939Y-101976896D01*
X193560613Y-101977322D01*
X193614795Y-101984440D01*
X193628709Y-101990805D01*
X193664484Y-102001915D01*
X193705841Y-101999597D01*
X193776203Y-101997050D01*
X193840649Y-102004830D01*
X193914892Y-102020364D01*
X193969089Y-102031565D01*
X194029142Y-102040609D01*
X194109622Y-102049068D01*
X194127178Y-102050499D01*
X194222051Y-102061213D01*
X194344164Y-102079758D01*
X194477007Y-102103108D01*
X194604068Y-102128238D01*
X194708839Y-102152122D01*
X194760196Y-102166519D01*
X194823515Y-102183271D01*
X194864928Y-102187221D01*
X194868510Y-102186207D01*
X194902364Y-102189891D01*
X194959606Y-102211153D01*
X194967836Y-102214974D01*
X195026548Y-102239717D01*
X195064309Y-102249860D01*
X195066513Y-102249719D01*
X195105459Y-102254132D01*
X195173621Y-102270449D01*
X195253593Y-102293476D01*
X195327972Y-102318021D01*
X195379350Y-102338893D01*
X195391205Y-102346577D01*
X195426400Y-102366399D01*
X195490155Y-102388992D01*
X195510815Y-102394808D01*
X195602198Y-102426846D01*
X195717320Y-102477967D01*
X195837706Y-102538999D01*
X195944879Y-102600768D01*
X195998968Y-102637161D01*
X196054753Y-102671916D01*
X196095871Y-102686381D01*
X196099098Y-102686205D01*
X196128578Y-102665284D01*
X196177284Y-102615357D01*
X196225697Y-102558207D01*
X196282976Y-102479533D01*
X196328295Y-102404672D01*
X196347136Y-102362699D01*
X196377295Y-102295263D01*
X196423549Y-102218603D01*
X196435504Y-102201768D01*
X196482214Y-102137324D01*
X196518448Y-102085266D01*
X196525224Y-102074928D01*
X196588457Y-101977570D01*
X196642244Y-101899200D01*
X196680495Y-101848432D01*
X196695993Y-101833439D01*
X196719377Y-101816062D01*
X196768992Y-101772388D01*
X196834588Y-101711472D01*
X196841877Y-101704548D01*
X196910212Y-101641829D01*
X196965606Y-101595253D01*
X196996902Y-101574154D01*
X196998118Y-101573831D01*
X197017334Y-101550761D01*
X197016952Y-101544718D01*
X197034103Y-101520301D01*
X197059506Y-101511423D01*
X197111571Y-101483510D01*
X197130996Y-101460130D01*
X197173043Y-101419688D01*
X197199423Y-101409377D01*
X197248721Y-101382080D01*
X197267797Y-101358714D01*
X197302246Y-101325292D01*
X197367830Y-101280662D01*
X197441368Y-101239284D01*
X197525315Y-101194384D01*
X197595157Y-101153794D01*
X197631671Y-101129317D01*
X197671168Y-101105868D01*
X197745942Y-101068479D01*
X197844384Y-101022768D01*
X197930034Y-100984990D01*
X198209949Y-100884576D01*
X198505719Y-100819617D01*
X198829665Y-100787440D01*
X198843489Y-100786793D01*
X198955125Y-100780675D01*
X199062655Y-100772965D01*
X199142104Y-100765406D01*
X199217399Y-100763049D01*
X199274617Y-100772777D01*
X199284874Y-100777910D01*
X199338371Y-100794550D01*
X199375415Y-100793564D01*
X199436711Y-100799581D01*
X199467642Y-100815990D01*
X199520146Y-100839719D01*
X199547784Y-100840546D01*
X199593049Y-100843830D01*
X199669104Y-100859796D01*
X199749842Y-100882150D01*
X199832293Y-100905223D01*
X199893200Y-100918001D01*
X199918879Y-100917852D01*
X199946811Y-100915318D01*
X200001718Y-100927441D01*
X200005313Y-100928547D01*
X200061843Y-100944730D01*
X200092626Y-100950786D01*
X200093051Y-100950735D01*
X200108431Y-100925564D01*
X200124906Y-100865448D01*
X200139816Y-100786101D01*
X200150503Y-100703238D01*
X200154307Y-100632575D01*
X200152072Y-100601948D01*
X200149794Y-100524858D01*
X200161891Y-100433869D01*
X200167468Y-100410576D01*
X200210612Y-100253803D01*
X200252592Y-100106724D01*
X200289974Y-99981047D01*
X200319326Y-99888478D01*
X200327514Y-99864824D01*
X200358879Y-99787795D01*
X200402485Y-99693222D01*
X200451891Y-99593633D01*
X200500659Y-99501561D01*
X200542345Y-99429534D01*
X200570510Y-99390084D01*
X200572416Y-99388345D01*
X200598003Y-99351048D01*
X200599461Y-99336125D01*
X200605816Y-99306370D01*
X200633457Y-99251646D01*
X200685241Y-99167021D01*
X200764022Y-99047566D01*
X200782364Y-99020399D01*
X200824556Y-98952643D01*
X200850451Y-98900434D01*
X200854689Y-98882050D01*
X200871929Y-98857798D01*
X200898490Y-98848535D01*
X200943972Y-98821409D01*
X200984867Y-98768825D01*
X201015038Y-98718809D01*
X201035716Y-98695428D01*
X201036265Y-98695283D01*
X201059721Y-98679217D01*
X201114782Y-98636812D01*
X201193855Y-98574041D01*
X201289349Y-98496880D01*
X201316116Y-98475046D01*
X201448122Y-98368566D01*
X201553492Y-98288282D01*
X201643925Y-98227056D01*
X201731118Y-98177751D01*
X201826768Y-98133227D01*
X201942575Y-98086347D01*
X201971310Y-98075243D01*
X202079755Y-98038490D01*
X202205604Y-98003569D01*
X202338291Y-97972494D01*
X202467251Y-97947276D01*
X202581917Y-97929926D01*
X202671721Y-97922457D01*
X202726098Y-97926881D01*
X202733068Y-97930184D01*
X202775495Y-97943911D01*
X202822179Y-97941231D01*
X202849941Y-97924781D01*
X202851000Y-97916780D01*
X202829143Y-97895345D01*
X202774176Y-97855764D01*
X202696802Y-97805610D01*
X202674191Y-97791684D01*
X202572404Y-97723953D01*
X202512718Y-97669393D01*
X202490045Y-97624978D01*
X202467308Y-97577495D01*
X202439365Y-97570956D01*
X202398835Y-97568680D01*
X202341194Y-97547754D01*
X202260336Y-97505014D01*
X202150155Y-97437299D01*
X202033367Y-97360734D01*
X201940088Y-97300773D01*
X201860894Y-97254060D01*
X201806092Y-97226442D01*
X201787974Y-97221561D01*
X201750957Y-97210751D01*
X201693317Y-97177506D01*
X201671785Y-97162369D01*
X201594262Y-97113690D01*
X201515271Y-97076470D01*
X201502746Y-97072137D01*
X201436523Y-97046566D01*
X201346965Y-97006209D01*
X201268495Y-96967441D01*
X201177973Y-96922595D01*
X201094900Y-96884771D01*
X201044252Y-96864703D01*
X200977312Y-96837496D01*
X200932228Y-96812679D01*
X200883259Y-96787754D01*
X200810028Y-96759841D01*
X200785929Y-96752079D01*
X200720481Y-96727785D01*
X200680842Y-96704953D01*
X200675909Y-96697960D01*
X200651161Y-96676509D01*
X200625736Y-96669391D01*
X200560706Y-96652457D01*
X200537308Y-96643273D01*
X200479914Y-96623086D01*
X200428213Y-96609658D01*
X200365555Y-96591296D01*
X200281300Y-96560803D01*
X200235821Y-96542458D01*
X200157405Y-96513399D01*
X200093619Y-96496612D01*
X200070215Y-96494801D01*
X200020872Y-96483977D01*
X199975875Y-96457825D01*
X199927590Y-96427852D01*
X199898196Y-96419939D01*
X199864840Y-96415370D01*
X199794648Y-96399684D01*
X199699633Y-96375683D01*
X199640096Y-96359667D01*
X199440715Y-96305309D01*
X199284290Y-96263769D01*
X199164988Y-96233714D01*
X199076975Y-96213810D01*
X199014420Y-96202723D01*
X198971487Y-96199120D01*
X198945889Y-96200979D01*
X198886003Y-96197073D01*
X198842299Y-96182825D01*
X198786740Y-96165878D01*
X198701584Y-96149363D01*
X198629055Y-96139620D01*
X198535759Y-96126512D01*
X198456108Y-96109925D01*
X198417096Y-96097349D01*
X198351289Y-96080080D01*
X198310861Y-96079949D01*
X198255205Y-96078245D01*
X198177677Y-96064177D01*
X198151417Y-96057355D01*
X198077775Y-96039503D01*
X198022294Y-96031256D01*
X198010628Y-96031471D01*
X197973258Y-96030546D01*
X197897527Y-96024276D01*
X197795462Y-96013765D01*
X197709142Y-96003797D01*
X197584971Y-95989450D01*
X197468094Y-95977049D01*
X197374893Y-95968280D01*
X197335651Y-95965375D01*
X197249799Y-95957603D01*
X197143902Y-95944205D01*
X197082158Y-95934797D01*
X196995847Y-95924910D01*
X196926930Y-95924804D01*
X196897211Y-95931590D01*
X196855242Y-95938086D01*
X196840316Y-95929210D01*
X196803856Y-95918136D01*
X196739383Y-95920017D01*
X196718867Y-95923075D01*
X196637847Y-95929624D01*
X196567808Y-95922936D01*
X196558703Y-95920316D01*
X196509798Y-95906320D01*
X196460361Y-95901105D01*
X196392992Y-95904166D01*
X196307640Y-95913010D01*
X196235537Y-95917541D01*
X196186355Y-95913890D01*
X196176984Y-95909897D01*
X196145980Y-95904566D01*
X196075996Y-95903091D01*
X195978704Y-95905502D01*
X195906044Y-95909186D01*
X195793941Y-95915029D01*
X195698326Y-95918317D01*
X195632279Y-95918686D01*
X195612019Y-95917311D01*
X195552290Y-95912837D01*
X195521098Y-95913623D01*
X195478566Y-95916515D01*
X195395705Y-95922112D01*
X195282870Y-95929716D01*
X195150418Y-95938627D01*
X195087788Y-95942838D01*
X194926543Y-95955002D01*
X194757773Y-95969977D01*
X194599860Y-95985999D01*
X194471192Y-96001303D01*
X194453720Y-96003682D01*
X194320190Y-96019769D01*
X194181046Y-96032368D01*
X194059719Y-96039487D01*
X194023237Y-96040339D01*
X193923683Y-96043572D01*
X193857264Y-96057030D01*
X193817146Y-96089335D01*
X193796494Y-96149112D01*
X193788475Y-96244984D01*
X193786713Y-96338803D01*
X193781124Y-96546395D01*
X193768176Y-96718102D01*
X193746285Y-96868512D01*
X193713865Y-97012209D01*
X193713376Y-97014065D01*
X193691452Y-97101695D01*
X193676698Y-97169632D01*
X193672266Y-97203333D01*
X193672291Y-97203480D01*
X193665328Y-97240882D01*
X193641610Y-97314204D01*
X193605350Y-97413096D01*
X193560759Y-97527209D01*
X193512051Y-97646191D01*
X193463439Y-97759693D01*
X193419136Y-97857364D01*
X193383355Y-97928856D01*
X193364837Y-97958824D01*
X193337215Y-98001003D01*
X193293715Y-98074774D01*
X193242128Y-98166781D01*
X193222328Y-98203182D01*
X193128099Y-98365988D01*
X193014794Y-98542761D01*
X192890238Y-98722762D01*
X192762256Y-98895247D01*
X192638673Y-99049479D01*
X192527313Y-99174716D01*
X192480578Y-99221305D01*
X192409042Y-99295411D01*
X192343172Y-99374326D01*
X192321130Y-99404876D01*
X192274378Y-99462708D01*
X192230514Y-99498004D01*
X192219726Y-99501912D01*
X192176506Y-99527570D01*
X192139997Y-99570900D01*
X192096475Y-99626430D01*
X192026317Y-99701117D01*
X191942481Y-99782287D01*
X191857922Y-99857268D01*
X191801116Y-99902340D01*
X191762839Y-99934471D01*
X191705791Y-99986497D01*
X191678638Y-100012234D01*
X191616738Y-100067897D01*
X191530328Y-100140845D01*
X191435385Y-100217675D01*
X191409015Y-100238396D01*
X191320917Y-100308991D01*
X191242993Y-100374813D01*
X191188060Y-100424922D01*
X191176221Y-100437182D01*
X191127653Y-100480665D01*
X191088228Y-100500974D01*
X191051015Y-100518368D01*
X190988534Y-100557824D01*
X190911523Y-100611355D01*
X190830720Y-100670977D01*
X190756858Y-100728705D01*
X190700675Y-100776553D01*
X190672906Y-100806538D01*
X190671703Y-100810761D01*
X190653280Y-100830705D01*
X190617638Y-100841869D01*
X190553650Y-100868758D01*
X190517804Y-100897340D01*
X190461653Y-100938084D01*
X190421370Y-100953032D01*
X190362291Y-100981447D01*
X190336109Y-101007574D01*
X190288712Y-101048266D01*
X190257558Y-101060113D01*
X190210813Y-101076306D01*
X190196435Y-101087759D01*
X190165881Y-101111947D01*
X190101112Y-101152626D01*
X190013350Y-101203567D01*
X189913813Y-101258541D01*
X189813724Y-101311317D01*
X189724300Y-101355664D01*
X189670146Y-101379993D01*
X189594161Y-101416100D01*
X189537120Y-101451487D01*
X189519335Y-101468160D01*
X189476918Y-101499078D01*
X189422389Y-101516877D01*
X189352643Y-101538532D01*
X189306883Y-101563946D01*
X189257551Y-101590817D01*
X189180686Y-101620914D01*
X189134234Y-101635664D01*
X189053058Y-101662609D01*
X188988720Y-101690030D01*
X188967495Y-101702690D01*
X188922669Y-101729184D01*
X188850579Y-101763641D01*
X188805919Y-101782652D01*
X188726374Y-101820923D01*
X188684496Y-101859391D01*
X188669816Y-101897989D01*
X188666927Y-101958775D01*
X188672856Y-102045116D01*
X188685181Y-102140236D01*
X188229976Y-102220500D01*
X188223346Y-102171207D01*
X188203292Y-102014577D01*
X188186482Y-101875630D01*
X188174262Y-101765464D01*
X188168171Y-101698186D01*
X188158239Y-101549157D01*
X188525442Y-101437574D01*
X188775467Y-101354767D01*
X188992896Y-101267085D01*
X189164227Y-101184077D01*
X189383835Y-101068964D01*
X189579017Y-100965939D01*
X189745882Y-100877086D01*
X189880547Y-100804490D01*
X189979122Y-100750239D01*
X190037720Y-100716416D01*
X190047821Y-100709958D01*
X190297443Y-100539037D01*
X190510985Y-100390916D01*
X190694794Y-100260453D01*
X190855216Y-100142507D01*
X190998597Y-100031938D01*
X191131282Y-99923606D01*
X191259619Y-99812367D01*
X191389953Y-99693084D01*
X191528630Y-99560612D01*
X191681998Y-99409813D01*
X191808139Y-99283940D01*
X191922038Y-99163636D01*
X192048715Y-99019548D01*
X192179386Y-98862624D01*
X192305265Y-98703808D01*
X192417563Y-98554048D01*
X192507496Y-98424288D01*
X192540948Y-98370970D01*
X192599520Y-98272856D01*
X192656809Y-98176959D01*
X192700513Y-98103869D01*
X192700876Y-98103263D01*
X192736585Y-98040353D01*
X192772632Y-97968662D01*
X192814885Y-97875794D01*
X192869209Y-97749350D01*
X192875923Y-97733458D01*
X192893708Y-97691977D01*
X192926161Y-97616868D01*
X192967681Y-97521084D01*
X192989915Y-97469889D01*
X193073481Y-97260397D01*
X193147660Y-97041209D01*
X193208858Y-96825257D01*
X193253481Y-96625470D01*
X193277934Y-96454778D01*
X193280029Y-96426268D01*
X193282832Y-96304972D01*
X193279857Y-96155567D01*
X193271788Y-96000329D01*
X193263974Y-95905178D01*
X193253370Y-95785774D01*
X193246296Y-95684335D01*
X193243390Y-95611844D01*
X193245123Y-95579656D01*
X193274240Y-95563355D01*
X193343357Y-95543797D01*
X193441923Y-95522793D01*
X193559392Y-95502152D01*
G36*
X180801072Y-98050343D02*
G01*
X180814833Y-98142748D01*
X180828761Y-98219265D01*
X180846184Y-98289479D01*
X180870435Y-98362977D01*
X180904845Y-98449346D01*
X180952741Y-98558172D01*
X181017456Y-98699040D01*
X181053051Y-98775652D01*
X181170122Y-98990705D01*
X181325737Y-99219141D01*
X181512975Y-99451683D01*
X181724913Y-99679052D01*
X181733649Y-99687753D01*
X181837978Y-99785238D01*
X181967652Y-99897089D01*
X182112920Y-100015770D01*
X182264033Y-100133746D01*
X182411240Y-100243480D01*
X182544794Y-100337436D01*
X182654944Y-100408078D01*
X182694210Y-100430217D01*
X182799479Y-100488133D01*
X182910970Y-100553044D01*
X182972768Y-100590943D01*
X183156357Y-100699830D01*
X183339408Y-100791706D01*
X183542052Y-100876197D01*
X183662823Y-100920753D01*
X183786144Y-100965633D01*
X183903834Y-101010094D01*
X184000504Y-101048240D01*
X184050086Y-101069214D01*
X184119268Y-101095830D01*
X184228080Y-101132308D01*
X184366945Y-101175887D01*
X184526287Y-101223800D01*
X184696528Y-101273288D01*
X184868092Y-101321586D01*
X185031404Y-101365933D01*
X185176885Y-101403564D01*
X185294960Y-101431718D01*
X185338810Y-101441000D01*
X185443951Y-101462872D01*
X185537676Y-101484176D01*
X185602341Y-101500867D01*
X185609622Y-101503097D01*
X185725748Y-101532882D01*
X185888075Y-101562999D01*
X186092013Y-101592788D01*
X186332974Y-101621593D01*
X186606365Y-101648751D01*
X186654846Y-101653080D01*
X186717336Y-101658366D01*
X186779180Y-101662993D01*
X186849251Y-101667454D01*
X186936429Y-101672243D01*
X187049590Y-101677857D01*
X187197609Y-101684788D01*
X187345108Y-101691524D01*
X187432655Y-101695655D01*
X187500984Y-101702999D01*
X187553668Y-101719375D01*
X187594282Y-101750605D01*
X187626400Y-101802509D01*
X187653597Y-101880908D01*
X187679448Y-101991624D01*
X187707528Y-102140476D01*
X187741409Y-102333286D01*
X187742283Y-102338267D01*
X187774016Y-102521496D01*
X187797087Y-102661619D01*
X187812186Y-102765467D01*
X187820006Y-102839865D01*
X187821238Y-102891642D01*
X187816572Y-102927624D01*
X187806701Y-102954638D01*
X187805034Y-102957919D01*
X187770694Y-103023679D01*
X187527060Y-103023761D01*
X187364397Y-103031606D01*
X187159488Y-103054276D01*
X186918308Y-103090609D01*
X186646830Y-103139448D01*
X186351028Y-103199631D01*
X186036874Y-103269999D01*
X185710345Y-103349393D01*
X185377414Y-103436652D01*
X185321362Y-103451978D01*
X184995065Y-103542638D01*
X184710242Y-103624067D01*
X184458992Y-103699000D01*
X184233419Y-103770172D01*
X184025625Y-103840320D01*
X183827710Y-103912177D01*
X183631778Y-103988481D01*
X183429931Y-104071965D01*
X183214269Y-104165367D01*
X183048620Y-104239118D01*
X182902883Y-104304086D01*
X182759091Y-104367346D01*
X182629677Y-104423488D01*
X182527073Y-104467099D01*
X182485714Y-104484130D01*
X182363241Y-104537086D01*
X182233646Y-104599002D01*
X182112883Y-104661790D01*
X182016912Y-104717363D01*
X181988519Y-104736126D01*
X181952216Y-104761243D01*
X181882450Y-104809189D01*
X181787704Y-104874146D01*
X181676466Y-104950292D01*
X181614498Y-104992669D01*
X181462397Y-105100617D01*
X181324283Y-105208352D01*
X181194044Y-105322149D01*
X181065572Y-105448283D01*
X180932758Y-105593028D01*
X180789493Y-105762659D01*
X180629666Y-105963451D01*
X180481665Y-106156149D01*
X180434960Y-106213644D01*
X180399595Y-106250020D01*
X180389857Y-106256161D01*
X180360080Y-106244287D01*
X180306368Y-106210567D01*
X180279943Y-106191718D01*
X180202467Y-106124971D01*
X180128984Y-106047258D01*
X180117727Y-106033330D01*
X180064693Y-105966748D01*
X180018072Y-105910697D01*
X180007342Y-105898468D01*
X179893002Y-105774812D01*
X179798141Y-105679034D01*
X179728279Y-105616666D01*
X179719228Y-105609741D01*
X179647822Y-105561176D01*
X179551353Y-105501285D01*
X179438722Y-105434952D01*
X179318829Y-105367067D01*
X179200577Y-105302516D01*
X179092867Y-105246184D01*
X179004601Y-105202959D01*
X178944681Y-105177728D01*
X178924388Y-105173387D01*
X178897003Y-105166650D01*
X178833734Y-105147064D01*
X178746697Y-105118424D01*
X178718488Y-105108881D01*
X178422629Y-105031035D01*
X178117001Y-104996635D01*
X177796854Y-105005658D01*
X177457439Y-105058080D01*
X177273806Y-105101939D01*
X177131301Y-105142925D01*
X176991356Y-105188758D01*
X176870055Y-105233866D01*
X176788806Y-105269908D01*
X176667676Y-105339439D01*
X176525112Y-105433069D01*
X176373465Y-105541533D01*
X176225086Y-105655571D01*
X176092326Y-105765920D01*
X175987537Y-105863317D01*
X175962562Y-105889540D01*
X175894390Y-105958086D01*
X175833899Y-106008293D01*
X175792782Y-106030625D01*
X175789092Y-106030983D01*
X175751437Y-106008343D01*
X175708426Y-105939719D01*
X175683947Y-105886509D01*
X175638610Y-105783103D01*
X175590175Y-105676350D01*
X175565531Y-105623789D01*
X175521419Y-105525701D01*
X175475825Y-105415630D01*
X175458883Y-105371779D01*
X175379362Y-105199735D01*
X175263285Y-105006628D01*
X175115984Y-104800136D01*
X174942790Y-104587937D01*
X174820765Y-104452623D01*
X174673956Y-104303233D01*
X174539281Y-104184836D01*
X174401085Y-104085900D01*
X174243716Y-103994889D01*
X174106169Y-103926078D01*
X173904840Y-103835174D01*
X173733671Y-103770612D01*
X173581757Y-103728830D01*
X173438193Y-103706267D01*
X173431345Y-103705608D01*
X173323802Y-103693394D01*
X173213135Y-103677610D01*
X173173317Y-103670873D01*
X173117996Y-103664438D01*
X173050485Y-103664604D01*
X172962525Y-103672226D01*
X172845850Y-103688156D01*
X172692200Y-103713244D01*
X172590697Y-103730944D01*
X172415286Y-103762814D01*
X172277486Y-103790455D01*
X172164677Y-103817254D01*
X172064245Y-103846591D01*
X171963570Y-103881853D01*
X171850037Y-103926422D01*
X171827253Y-103935697D01*
X171709027Y-103983440D01*
X171604522Y-104024604D01*
X171524507Y-104055017D01*
X171479750Y-104070509D01*
X171477934Y-104071000D01*
X171430887Y-104068456D01*
X171416544Y-104030959D01*
X171434842Y-103962378D01*
X171481141Y-103874017D01*
X171538853Y-103774779D01*
X171596525Y-103668579D01*
X171623511Y-103615417D01*
X171711220Y-103436800D01*
X171727240Y-103405006D01*
X172457550Y-103276232D01*
X172482791Y-103289869D01*
X172534119Y-103268803D01*
X172565025Y-103246626D01*
X172637732Y-103209911D01*
X172747957Y-103179276D01*
X172882632Y-103156121D01*
X173028692Y-103141850D01*
X173173068Y-103137865D01*
X173302696Y-103145570D01*
X173379697Y-103159177D01*
X173433904Y-103166906D01*
X173517981Y-103172744D01*
X173588812Y-103174942D01*
X173681893Y-103179536D01*
X173761269Y-103189184D01*
X173799281Y-103198392D01*
X173851247Y-103214485D01*
X173935081Y-103236485D01*
X174032961Y-103259723D01*
X174036358Y-103260487D01*
X174128462Y-103283719D01*
X174201201Y-103306788D01*
X174240028Y-103325024D01*
X174241403Y-103326313D01*
X174275873Y-103349713D01*
X174341281Y-103384664D01*
X174404899Y-103415019D01*
X174579736Y-103505512D01*
X174761293Y-103618200D01*
X174923327Y-103736629D01*
X174941330Y-103751372D01*
X175007601Y-103809091D01*
X175088924Y-103883698D01*
X175176299Y-103966454D01*
X175260729Y-104048622D01*
X175333216Y-104121462D01*
X175384763Y-104176239D01*
X175405366Y-104202022D01*
X175431804Y-104235150D01*
X175481156Y-104287497D01*
X175509151Y-104315229D01*
X175562368Y-104371828D01*
X175596819Y-104418032D01*
X175603040Y-104432239D01*
X175620568Y-104469120D01*
X175659549Y-104529782D01*
X175691377Y-104573992D01*
X175746118Y-104653235D01*
X175810502Y-104755578D01*
X175870719Y-104859060D01*
X175871489Y-104860452D01*
X175945081Y-104991097D01*
X176000307Y-105081097D01*
X176041656Y-105135177D01*
X176073616Y-105158064D01*
X176100674Y-105154480D01*
X176127046Y-105129489D01*
X176160694Y-105103189D01*
X176221332Y-105066631D01*
X176247930Y-105052341D01*
X176314793Y-105011857D01*
X176361979Y-104972864D01*
X176370523Y-104961760D01*
X176410198Y-104929172D01*
X176462856Y-104911042D01*
X176517637Y-104893894D01*
X176543387Y-104873435D01*
X176570965Y-104848586D01*
X176632426Y-104810643D01*
X176714962Y-104766537D01*
X176805770Y-104723198D01*
X176874358Y-104694288D01*
X177148127Y-104603103D01*
X177436302Y-104539807D01*
X177591084Y-104517131D01*
X177824424Y-104490780D01*
X178019047Y-104476356D01*
X178185680Y-104474143D01*
X178335054Y-104484421D01*
X178477896Y-104507474D01*
X178624936Y-104543583D01*
X178627940Y-104544426D01*
X178707764Y-104564834D01*
X178768554Y-104576712D01*
X178790221Y-104578040D01*
X178834498Y-104583289D01*
X178912193Y-104604917D01*
X179013290Y-104638927D01*
X179127766Y-104681324D01*
X179245604Y-104728109D01*
X179356782Y-104775288D01*
X179451284Y-104818862D01*
X179519088Y-104854837D01*
X179550175Y-104879215D01*
X179551033Y-104881507D01*
X179576002Y-104902727D01*
X179606387Y-104910832D01*
X179653873Y-104929470D01*
X179730519Y-104972785D01*
X179825864Y-105033661D01*
X179929445Y-105104984D01*
X180030797Y-105179641D01*
X180119460Y-105250517D01*
X180164148Y-105290077D01*
X180263803Y-105377037D01*
X180335399Y-105424712D01*
X180372582Y-105433868D01*
X180403255Y-105417649D01*
X180451909Y-105383401D01*
X180502970Y-105336465D01*
X180566746Y-105267503D01*
X180605720Y-105220873D01*
X180702540Y-105103104D01*
X180774177Y-105024586D01*
X180823653Y-104982324D01*
X180853993Y-104973321D01*
X180855188Y-104973739D01*
X180884627Y-104961875D01*
X180936009Y-104920570D01*
X180996696Y-104860337D01*
X181058840Y-104796323D01*
X181109411Y-104749671D01*
X181136482Y-104730987D01*
X181170932Y-104713828D01*
X181228111Y-104677049D01*
X181252862Y-104659647D01*
X181313450Y-104618353D01*
X181357668Y-104592461D01*
X181366847Y-104588839D01*
X181398444Y-104571540D01*
X181457925Y-104531270D01*
X181533379Y-104476634D01*
X181612892Y-104416234D01*
X181677914Y-104364191D01*
X181732184Y-104327068D01*
X181771545Y-104310106D01*
X181810853Y-104294274D01*
X181879626Y-104259548D01*
X181963731Y-104213109D01*
X181972756Y-104207914D01*
X182065623Y-104155038D01*
X182152007Y-104107184D01*
X182213304Y-104074656D01*
X182213600Y-104074508D01*
X182264336Y-104041674D01*
X182286177Y-104012818D01*
X182286094Y-104010256D01*
X182303242Y-103992808D01*
X182336314Y-103992042D01*
X182400387Y-103976656D01*
X182430790Y-103948201D01*
X182476383Y-103912092D01*
X182513286Y-103905354D01*
X182558813Y-103896386D01*
X182622915Y-103864026D01*
X182649226Y-103846470D01*
X182709665Y-103807816D01*
X182753980Y-103788280D01*
X182764129Y-103787927D01*
X182796961Y-103782367D01*
X182860151Y-103759156D01*
X182924589Y-103730490D01*
X183006571Y-103693727D01*
X183075103Y-103666988D01*
X183107310Y-103657760D01*
X183142883Y-103642451D01*
X183147656Y-103630601D01*
X183167387Y-103613146D01*
X183220841Y-103595596D01*
X183237573Y-103592019D01*
X183312862Y-103571761D01*
X183409361Y-103538374D01*
X183479452Y-103510308D01*
X183558397Y-103478914D01*
X183617706Y-103459918D01*
X183642870Y-103457223D01*
X183672943Y-103453304D01*
X183726044Y-103429625D01*
X183731885Y-103426417D01*
X183812979Y-103397417D01*
X183857599Y-103402035D01*
X183914318Y-103402693D01*
X183959373Y-103371999D01*
X184010962Y-103339311D01*
X184091574Y-103304317D01*
X184156677Y-103282723D01*
X184253754Y-103254774D01*
X184345114Y-103228315D01*
X184389807Y-103215277D01*
X184567959Y-103164037D01*
X184703113Y-103127588D01*
X184800441Y-103104585D01*
X184850350Y-103095543D01*
X184909355Y-103079401D01*
X184941255Y-103056299D01*
X184941551Y-103055610D01*
X184970570Y-103037208D01*
X185035834Y-103016200D01*
X185123291Y-102997096D01*
X185124428Y-102996895D01*
X185233177Y-102972764D01*
X185292128Y-102947577D01*
X185303140Y-102933144D01*
X185316355Y-102911821D01*
X185337714Y-102926717D01*
X185377210Y-102938917D01*
X185438683Y-102917911D01*
X185510694Y-102896090D01*
X185545878Y-102905571D01*
X185578925Y-102913798D01*
X185595275Y-102889522D01*
X185621084Y-102862525D01*
X185648911Y-102870678D01*
X185695366Y-102877335D01*
X185767362Y-102869517D01*
X185797777Y-102862721D01*
X185971670Y-102818589D01*
X186144065Y-102776764D01*
X186329638Y-102733811D01*
X186543064Y-102686293D01*
X186664705Y-102659771D01*
X186807946Y-102628640D01*
X186938581Y-102600122D01*
X187046400Y-102576458D01*
X187121190Y-102559885D01*
X187146700Y-102554104D01*
X187218805Y-102537329D01*
X187178001Y-102338189D01*
X187153309Y-102235829D01*
X187127212Y-102157466D01*
X187103935Y-102115530D01*
X187101699Y-102113652D01*
X187058711Y-102100622D01*
X186974895Y-102089578D01*
X186860207Y-102081263D01*
X186724603Y-102076423D01*
X186593709Y-102075647D01*
X186530967Y-102070629D01*
X186493105Y-102057521D01*
X186492093Y-102056509D01*
X186457369Y-102047032D01*
X186396442Y-102050501D01*
X186389822Y-102051601D01*
X186326850Y-102055755D01*
X186287066Y-102045847D01*
X186285355Y-102044229D01*
X186246283Y-102029319D01*
X186217806Y-102030348D01*
X186163635Y-102032232D01*
X186085341Y-102026832D01*
X186056906Y-102023410D01*
X185965052Y-102011458D01*
X185854395Y-101997730D01*
X185792297Y-101990307D01*
X185709074Y-101978075D01*
X185647779Y-101964484D01*
X185625080Y-101954790D01*
X185590421Y-101940184D01*
X185537188Y-101931997D01*
X185461875Y-101922436D01*
X185376616Y-101906040D01*
X185370937Y-101904719D01*
X185279317Y-101883062D01*
X185189637Y-101861832D01*
X185188351Y-101861527D01*
X185121245Y-101848745D01*
X185074336Y-101845262D01*
X185071183Y-101845651D01*
X185028834Y-101842238D01*
X184952066Y-101826976D01*
X184854955Y-101803145D01*
X184751575Y-101774027D01*
X184713938Y-101762374D01*
X184634985Y-101737960D01*
X184542978Y-101710484D01*
X184523229Y-101704722D01*
X184351595Y-101654148D01*
X184222541Y-101614101D01*
X184129476Y-101582340D01*
X184065807Y-101556628D01*
X184027645Y-101536467D01*
X183964604Y-101510974D01*
X183916542Y-101507617D01*
X183862271Y-101503140D01*
X183788082Y-101481059D01*
X183762185Y-101470354D01*
X183694549Y-101443009D01*
X183645917Y-101428736D01*
X183635975Y-101428129D01*
X183601525Y-101418785D01*
X183542641Y-101390490D01*
X183518471Y-101376892D01*
X183441253Y-101336459D01*
X183369134Y-101306043D01*
X183356033Y-101301816D01*
X183281573Y-101274990D01*
X183186782Y-101234387D01*
X183095831Y-101190717D01*
X183053932Y-101167950D01*
X183000263Y-101143020D01*
X182955557Y-101126818D01*
X182898867Y-101103882D01*
X182819572Y-101065961D01*
X182767143Y-101038611D01*
X182681393Y-100995454D01*
X182601230Y-100960361D01*
X182565373Y-100947547D01*
X182505524Y-100919723D01*
X182470915Y-100887048D01*
X182434987Y-100853392D01*
X182372753Y-100820493D01*
X182361250Y-100816052D01*
X182307980Y-100789822D01*
X182228355Y-100741944D01*
X182128907Y-100677186D01*
X182016169Y-100600316D01*
X181896675Y-100516103D01*
X181776957Y-100429313D01*
X181663548Y-100344716D01*
X181562979Y-100267079D01*
X181481787Y-100201170D01*
X181426501Y-100151757D01*
X181403656Y-100123608D01*
X181406231Y-100119032D01*
X181402669Y-100103838D01*
X181364512Y-100068994D01*
X181300192Y-100021852D01*
X181277054Y-100006411D01*
X181229290Y-99968695D01*
X181207090Y-99938743D01*
X181185448Y-99905577D01*
X181151422Y-99874086D01*
X181098788Y-99824720D01*
X181029335Y-99747935D01*
X180950451Y-99653330D01*
X180869525Y-99550504D01*
X180793950Y-99449057D01*
X180731114Y-99358590D01*
X180688406Y-99288702D01*
X180673569Y-99253359D01*
X180653080Y-99202603D01*
X180636789Y-99177546D01*
X180600541Y-99120488D01*
X180556860Y-99038352D01*
X180514508Y-98949339D01*
X180482245Y-98871644D01*
X180469683Y-98830418D01*
X180453305Y-98779674D01*
X180420842Y-98702767D01*
X180388484Y-98634915D01*
X180317041Y-98492761D01*
X180156776Y-98525600D01*
X179964636Y-98566559D01*
X179760653Y-98612844D01*
X179552386Y-98662483D01*
X179347393Y-98713507D01*
X179153235Y-98763946D01*
X178977469Y-98811832D01*
X178827655Y-98855195D01*
X178711351Y-98892063D01*
X178636117Y-98920469D01*
X178629449Y-98923582D01*
X178561819Y-98950138D01*
X178483450Y-98973213D01*
X178389016Y-98999206D01*
X178269233Y-99036940D01*
X178136358Y-99082013D01*
X178002644Y-99130022D01*
X177880346Y-99176560D01*
X177781721Y-99217226D01*
X177719024Y-99247614D01*
X177717707Y-99248393D01*
X177664621Y-99271743D01*
X177631521Y-99274362D01*
X177593489Y-99278266D01*
X177535186Y-99301442D01*
X177529372Y-99304432D01*
X177463244Y-99337196D01*
X177373788Y-99379070D01*
X177309238Y-99408156D01*
X177219666Y-99448548D01*
X177104331Y-99501651D01*
X176983277Y-99558208D01*
X176939565Y-99578862D01*
X176836333Y-99626965D01*
X176745324Y-99667830D01*
X176679658Y-99695637D01*
X176658990Y-99703291D01*
X176599590Y-99734343D01*
X176572309Y-99758460D01*
X176530189Y-99786693D01*
X176458220Y-99816848D01*
X176410587Y-99831690D01*
X176329291Y-99860435D01*
X176265538Y-99894663D01*
X176244979Y-99912704D01*
X176200962Y-99946025D01*
X176169771Y-99950869D01*
X176125812Y-99963676D01*
X176107116Y-99984580D01*
X176068582Y-100023356D01*
X176046485Y-100032427D01*
X176006395Y-100050526D01*
X175943050Y-100090041D01*
X175895928Y-100123454D01*
X175824589Y-100172166D01*
X175763525Y-100206331D01*
X175737656Y-100215841D01*
X175697263Y-100230391D01*
X175631979Y-100265324D01*
X175537940Y-100323021D01*
X175411280Y-100405869D01*
X175248135Y-100516251D01*
X175224858Y-100532190D01*
X175145411Y-100582037D01*
X175068292Y-100623305D01*
X175044664Y-100633769D01*
X174983391Y-100667648D01*
X174944544Y-100705535D01*
X174912310Y-100742810D01*
X174895634Y-100751189D01*
X174863949Y-100769433D01*
X174808809Y-100811820D01*
X174761468Y-100852222D01*
X174697721Y-100905761D01*
X174647112Y-100942789D01*
X174626433Y-100953408D01*
X174593855Y-100973681D01*
X174544873Y-101018543D01*
X174529164Y-101035039D01*
X174475218Y-101085561D01*
X174428883Y-101115915D01*
X174419853Y-101118793D01*
X174375617Y-101144957D01*
X174356978Y-101168567D01*
X174321598Y-101207495D01*
X174301058Y-101217115D01*
X174262990Y-101241885D01*
X174245391Y-101265221D01*
X174211110Y-101305253D01*
X174152201Y-101357708D01*
X174120744Y-101382171D01*
X174053667Y-101437578D01*
X174000951Y-101491042D01*
X173987236Y-101509275D01*
X173946016Y-101553873D01*
X173914430Y-101570307D01*
X173878358Y-101591893D01*
X173820176Y-101641072D01*
X173751774Y-101707695D01*
X173744164Y-101715623D01*
X173663420Y-101798863D01*
X173564102Y-101899146D01*
X173464247Y-101998303D01*
X173437537Y-102024476D01*
X173352747Y-102110546D01*
X173275386Y-102194885D01*
X173217630Y-102263995D01*
X173201577Y-102286082D01*
X173158418Y-102342887D01*
X173122569Y-102376948D01*
X173114394Y-102380654D01*
X173089101Y-102402405D01*
X173043125Y-102457047D01*
X172984013Y-102535240D01*
X172944252Y-102591197D01*
X172878654Y-102680053D01*
X172818651Y-102751394D01*
X172772760Y-102795567D01*
X172755623Y-102805000D01*
X172716267Y-102835990D01*
X172696948Y-102892722D01*
X172682660Y-102948770D01*
X172665741Y-102975528D01*
X172664904Y-102975748D01*
X172639221Y-102995332D01*
X172592177Y-103042663D01*
X172546409Y-103093361D01*
X172488555Y-103171354D01*
X172459204Y-103234519D01*
X172457550Y-103276232D01*
X171727240Y-103405006D01*
X171783069Y-103294212D01*
X171844580Y-103177600D01*
X171901268Y-103076912D01*
X171958657Y-102982093D01*
X172022266Y-102883091D01*
X172042217Y-102852837D01*
X172112596Y-102745321D01*
X172176295Y-102645767D01*
X172225817Y-102566023D01*
X172251845Y-102521406D01*
X172291722Y-102460033D01*
X172351913Y-102381472D01*
X172403734Y-102320523D01*
X172478067Y-102233525D01*
X172561970Y-102129355D01*
X172628285Y-102042572D01*
X172706075Y-101943744D01*
X172794218Y-101841423D01*
X172863582Y-101768007D01*
X172943500Y-101686873D01*
X173023537Y-101602266D01*
X173070278Y-101550645D01*
X173214515Y-101397445D01*
X173394198Y-101224855D01*
X173601317Y-101039798D01*
X173827864Y-100849198D01*
X174065829Y-100659977D01*
X174307204Y-100479060D01*
X174323581Y-100467204D01*
X174550706Y-100303270D01*
X174742380Y-100165484D01*
X174904301Y-100050209D01*
X175042163Y-99953800D01*
X175161664Y-99872618D01*
X175268502Y-99803023D01*
X175368373Y-99741372D01*
X175466973Y-99684024D01*
X175570000Y-99627339D01*
X175683148Y-99567677D01*
X175812118Y-99501394D01*
X175922973Y-99444987D01*
X176190576Y-99309935D01*
X176420856Y-99195931D01*
X176621076Y-99099673D01*
X176798496Y-99017861D01*
X176960379Y-98947192D01*
X177113988Y-98884367D01*
X177266582Y-98826084D01*
X177355647Y-98793716D01*
X177505217Y-98739648D01*
X177650803Y-98685976D01*
X177780245Y-98637258D01*
X177881385Y-98598048D01*
X177924188Y-98580663D01*
X178012217Y-98546505D01*
X178132299Y-98503710D01*
X178267778Y-98458063D01*
X178385956Y-98420299D01*
X178519633Y-98378440D01*
X178651154Y-98336562D01*
X178764497Y-98299804D01*
X178837556Y-98275406D01*
X178942995Y-98239270D01*
X179065691Y-98197303D01*
X179153775Y-98167226D01*
X179250988Y-98137293D01*
X179387655Y-98099665D01*
X179553453Y-98056823D01*
X179738067Y-98011249D01*
X179931175Y-97965424D01*
X180122461Y-97921828D01*
X180301605Y-97882943D01*
X180458288Y-97851250D01*
X180502258Y-97842984D01*
X180764584Y-97794844D01*
X180801072Y-98050343D01*
G37*
X180801072Y-98050343D02*
X180814833Y-98142748D01*
X180828761Y-98219265D01*
X180846184Y-98289479D01*
X180870435Y-98362977D01*
X180904845Y-98449346D01*
X180952741Y-98558172D01*
X181017456Y-98699040D01*
X181053051Y-98775652D01*
X181170122Y-98990705D01*
X181325737Y-99219141D01*
X181512975Y-99451683D01*
X181724913Y-99679052D01*
X181733649Y-99687753D01*
X181837978Y-99785238D01*
X181967652Y-99897089D01*
X182112920Y-100015770D01*
X182264033Y-100133746D01*
X182411240Y-100243480D01*
X182544794Y-100337436D01*
X182654944Y-100408078D01*
X182694210Y-100430217D01*
X182799479Y-100488133D01*
X182910970Y-100553044D01*
X182972768Y-100590943D01*
X183156357Y-100699830D01*
X183339408Y-100791706D01*
X183542052Y-100876197D01*
X183662823Y-100920753D01*
X183786144Y-100965633D01*
X183903834Y-101010094D01*
X184000504Y-101048240D01*
X184050086Y-101069214D01*
X184119268Y-101095830D01*
X184228080Y-101132308D01*
X184366945Y-101175887D01*
X184526287Y-101223800D01*
X184696528Y-101273288D01*
X184868092Y-101321586D01*
X185031404Y-101365933D01*
X185176885Y-101403564D01*
X185294960Y-101431718D01*
X185338810Y-101441000D01*
X185443951Y-101462872D01*
X185537676Y-101484176D01*
X185602341Y-101500867D01*
X185609622Y-101503097D01*
X185725748Y-101532882D01*
X185888075Y-101562999D01*
X186092013Y-101592788D01*
X186332974Y-101621593D01*
X186606365Y-101648751D01*
X186654846Y-101653080D01*
X186717336Y-101658366D01*
X186779180Y-101662993D01*
X186849251Y-101667454D01*
X186936429Y-101672243D01*
X187049590Y-101677857D01*
X187197609Y-101684788D01*
X187345108Y-101691524D01*
X187432655Y-101695655D01*
X187500984Y-101702999D01*
X187553668Y-101719375D01*
X187594282Y-101750605D01*
X187626400Y-101802509D01*
X187653597Y-101880908D01*
X187679448Y-101991624D01*
X187707528Y-102140476D01*
X187741409Y-102333286D01*
X187742283Y-102338267D01*
X187774016Y-102521496D01*
X187797087Y-102661619D01*
X187812186Y-102765467D01*
X187820006Y-102839865D01*
X187821238Y-102891642D01*
X187816572Y-102927624D01*
X187806701Y-102954638D01*
X187805034Y-102957919D01*
X187770694Y-103023679D01*
X187527060Y-103023761D01*
X187364397Y-103031606D01*
X187159488Y-103054276D01*
X186918308Y-103090609D01*
X186646830Y-103139448D01*
X186351028Y-103199631D01*
X186036874Y-103269999D01*
X185710345Y-103349393D01*
X185377414Y-103436652D01*
X185321362Y-103451978D01*
X184995065Y-103542638D01*
X184710242Y-103624067D01*
X184458992Y-103699000D01*
X184233419Y-103770172D01*
X184025625Y-103840320D01*
X183827710Y-103912177D01*
X183631778Y-103988481D01*
X183429931Y-104071965D01*
X183214269Y-104165367D01*
X183048620Y-104239118D01*
X182902883Y-104304086D01*
X182759091Y-104367346D01*
X182629677Y-104423488D01*
X182527073Y-104467099D01*
X182485714Y-104484130D01*
X182363241Y-104537086D01*
X182233646Y-104599002D01*
X182112883Y-104661790D01*
X182016912Y-104717363D01*
X181988519Y-104736126D01*
X181952216Y-104761243D01*
X181882450Y-104809189D01*
X181787704Y-104874146D01*
X181676466Y-104950292D01*
X181614498Y-104992669D01*
X181462397Y-105100617D01*
X181324283Y-105208352D01*
X181194044Y-105322149D01*
X181065572Y-105448283D01*
X180932758Y-105593028D01*
X180789493Y-105762659D01*
X180629666Y-105963451D01*
X180481665Y-106156149D01*
X180434960Y-106213644D01*
X180399595Y-106250020D01*
X180389857Y-106256161D01*
X180360080Y-106244287D01*
X180306368Y-106210567D01*
X180279943Y-106191718D01*
X180202467Y-106124971D01*
X180128984Y-106047258D01*
X180117727Y-106033330D01*
X180064693Y-105966748D01*
X180018072Y-105910697D01*
X180007342Y-105898468D01*
X179893002Y-105774812D01*
X179798141Y-105679034D01*
X179728279Y-105616666D01*
X179719228Y-105609741D01*
X179647822Y-105561176D01*
X179551353Y-105501285D01*
X179438722Y-105434952D01*
X179318829Y-105367067D01*
X179200577Y-105302516D01*
X179092867Y-105246184D01*
X179004601Y-105202959D01*
X178944681Y-105177728D01*
X178924388Y-105173387D01*
X178897003Y-105166650D01*
X178833734Y-105147064D01*
X178746697Y-105118424D01*
X178718488Y-105108881D01*
X178422629Y-105031035D01*
X178117001Y-104996635D01*
X177796854Y-105005658D01*
X177457439Y-105058080D01*
X177273806Y-105101939D01*
X177131301Y-105142925D01*
X176991356Y-105188758D01*
X176870055Y-105233866D01*
X176788806Y-105269908D01*
X176667676Y-105339439D01*
X176525112Y-105433069D01*
X176373465Y-105541533D01*
X176225086Y-105655571D01*
X176092326Y-105765920D01*
X175987537Y-105863317D01*
X175962562Y-105889540D01*
X175894390Y-105958086D01*
X175833899Y-106008293D01*
X175792782Y-106030625D01*
X175789092Y-106030983D01*
X175751437Y-106008343D01*
X175708426Y-105939719D01*
X175683947Y-105886509D01*
X175638610Y-105783103D01*
X175590175Y-105676350D01*
X175565531Y-105623789D01*
X175521419Y-105525701D01*
X175475825Y-105415630D01*
X175458883Y-105371779D01*
X175379362Y-105199735D01*
X175263285Y-105006628D01*
X175115984Y-104800136D01*
X174942790Y-104587937D01*
X174820765Y-104452623D01*
X174673956Y-104303233D01*
X174539281Y-104184836D01*
X174401085Y-104085900D01*
X174243716Y-103994889D01*
X174106169Y-103926078D01*
X173904840Y-103835174D01*
X173733671Y-103770612D01*
X173581757Y-103728830D01*
X173438193Y-103706267D01*
X173431345Y-103705608D01*
X173323802Y-103693394D01*
X173213135Y-103677610D01*
X173173317Y-103670873D01*
X173117996Y-103664438D01*
X173050485Y-103664604D01*
X172962525Y-103672226D01*
X172845850Y-103688156D01*
X172692200Y-103713244D01*
X172590697Y-103730944D01*
X172415286Y-103762814D01*
X172277486Y-103790455D01*
X172164677Y-103817254D01*
X172064245Y-103846591D01*
X171963570Y-103881853D01*
X171850037Y-103926422D01*
X171827253Y-103935697D01*
X171709027Y-103983440D01*
X171604522Y-104024604D01*
X171524507Y-104055017D01*
X171479750Y-104070509D01*
X171477934Y-104071000D01*
X171430887Y-104068456D01*
X171416544Y-104030959D01*
X171434842Y-103962378D01*
X171481141Y-103874017D01*
X171538853Y-103774779D01*
X171596525Y-103668579D01*
X171623511Y-103615417D01*
X171711220Y-103436800D01*
X171727240Y-103405006D01*
X172457550Y-103276232D01*
X172482791Y-103289869D01*
X172534119Y-103268803D01*
X172565025Y-103246626D01*
X172637732Y-103209911D01*
X172747957Y-103179276D01*
X172882632Y-103156121D01*
X173028692Y-103141850D01*
X173173068Y-103137865D01*
X173302696Y-103145570D01*
X173379697Y-103159177D01*
X173433904Y-103166906D01*
X173517981Y-103172744D01*
X173588812Y-103174942D01*
X173681893Y-103179536D01*
X173761269Y-103189184D01*
X173799281Y-103198392D01*
X173851247Y-103214485D01*
X173935081Y-103236485D01*
X174032961Y-103259723D01*
X174036358Y-103260487D01*
X174128462Y-103283719D01*
X174201201Y-103306788D01*
X174240028Y-103325024D01*
X174241403Y-103326313D01*
X174275873Y-103349713D01*
X174341281Y-103384664D01*
X174404899Y-103415019D01*
X174579736Y-103505512D01*
X174761293Y-103618200D01*
X174923327Y-103736629D01*
X174941330Y-103751372D01*
X175007601Y-103809091D01*
X175088924Y-103883698D01*
X175176299Y-103966454D01*
X175260729Y-104048622D01*
X175333216Y-104121462D01*
X175384763Y-104176239D01*
X175405366Y-104202022D01*
X175431804Y-104235150D01*
X175481156Y-104287497D01*
X175509151Y-104315229D01*
X175562368Y-104371828D01*
X175596819Y-104418032D01*
X175603040Y-104432239D01*
X175620568Y-104469120D01*
X175659549Y-104529782D01*
X175691377Y-104573992D01*
X175746118Y-104653235D01*
X175810502Y-104755578D01*
X175870719Y-104859060D01*
X175871489Y-104860452D01*
X175945081Y-104991097D01*
X176000307Y-105081097D01*
X176041656Y-105135177D01*
X176073616Y-105158064D01*
X176100674Y-105154480D01*
X176127046Y-105129489D01*
X176160694Y-105103189D01*
X176221332Y-105066631D01*
X176247930Y-105052341D01*
X176314793Y-105011857D01*
X176361979Y-104972864D01*
X176370523Y-104961760D01*
X176410198Y-104929172D01*
X176462856Y-104911042D01*
X176517637Y-104893894D01*
X176543387Y-104873435D01*
X176570965Y-104848586D01*
X176632426Y-104810643D01*
X176714962Y-104766537D01*
X176805770Y-104723198D01*
X176874358Y-104694288D01*
X177148127Y-104603103D01*
X177436302Y-104539807D01*
X177591084Y-104517131D01*
X177824424Y-104490780D01*
X178019047Y-104476356D01*
X178185680Y-104474143D01*
X178335054Y-104484421D01*
X178477896Y-104507474D01*
X178624936Y-104543583D01*
X178627940Y-104544426D01*
X178707764Y-104564834D01*
X178768554Y-104576712D01*
X178790221Y-104578040D01*
X178834498Y-104583289D01*
X178912193Y-104604917D01*
X179013290Y-104638927D01*
X179127766Y-104681324D01*
X179245604Y-104728109D01*
X179356782Y-104775288D01*
X179451284Y-104818862D01*
X179519088Y-104854837D01*
X179550175Y-104879215D01*
X179551033Y-104881507D01*
X179576002Y-104902727D01*
X179606387Y-104910832D01*
X179653873Y-104929470D01*
X179730519Y-104972785D01*
X179825864Y-105033661D01*
X179929445Y-105104984D01*
X180030797Y-105179641D01*
X180119460Y-105250517D01*
X180164148Y-105290077D01*
X180263803Y-105377037D01*
X180335399Y-105424712D01*
X180372582Y-105433868D01*
X180403255Y-105417649D01*
X180451909Y-105383401D01*
X180502970Y-105336465D01*
X180566746Y-105267503D01*
X180605720Y-105220873D01*
X180702540Y-105103104D01*
X180774177Y-105024586D01*
X180823653Y-104982324D01*
X180853993Y-104973321D01*
X180855188Y-104973739D01*
X180884627Y-104961875D01*
X180936009Y-104920570D01*
X180996696Y-104860337D01*
X181058840Y-104796323D01*
X181109411Y-104749671D01*
X181136482Y-104730987D01*
X181170932Y-104713828D01*
X181228111Y-104677049D01*
X181252862Y-104659647D01*
X181313450Y-104618353D01*
X181357668Y-104592461D01*
X181366847Y-104588839D01*
X181398444Y-104571540D01*
X181457925Y-104531270D01*
X181533379Y-104476634D01*
X181612892Y-104416234D01*
X181677914Y-104364191D01*
X181732184Y-104327068D01*
X181771545Y-104310106D01*
X181810853Y-104294274D01*
X181879626Y-104259548D01*
X181963731Y-104213109D01*
X181972756Y-104207914D01*
X182065623Y-104155038D01*
X182152007Y-104107184D01*
X182213304Y-104074656D01*
X182213600Y-104074508D01*
X182264336Y-104041674D01*
X182286177Y-104012818D01*
X182286094Y-104010256D01*
X182303242Y-103992808D01*
X182336314Y-103992042D01*
X182400387Y-103976656D01*
X182430790Y-103948201D01*
X182476383Y-103912092D01*
X182513286Y-103905354D01*
X182558813Y-103896386D01*
X182622915Y-103864026D01*
X182649226Y-103846470D01*
X182709665Y-103807816D01*
X182753980Y-103788280D01*
X182764129Y-103787927D01*
X182796961Y-103782367D01*
X182860151Y-103759156D01*
X182924589Y-103730490D01*
X183006571Y-103693727D01*
X183075103Y-103666988D01*
X183107310Y-103657760D01*
X183142883Y-103642451D01*
X183147656Y-103630601D01*
X183167387Y-103613146D01*
X183220841Y-103595596D01*
X183237573Y-103592019D01*
X183312862Y-103571761D01*
X183409361Y-103538374D01*
X183479452Y-103510308D01*
X183558397Y-103478914D01*
X183617706Y-103459918D01*
X183642870Y-103457223D01*
X183672943Y-103453304D01*
X183726044Y-103429625D01*
X183731885Y-103426417D01*
X183812979Y-103397417D01*
X183857599Y-103402035D01*
X183914318Y-103402693D01*
X183959373Y-103371999D01*
X184010962Y-103339311D01*
X184091574Y-103304317D01*
X184156677Y-103282723D01*
X184253754Y-103254774D01*
X184345114Y-103228315D01*
X184389807Y-103215277D01*
X184567959Y-103164037D01*
X184703113Y-103127588D01*
X184800441Y-103104585D01*
X184850350Y-103095543D01*
X184909355Y-103079401D01*
X184941255Y-103056299D01*
X184941551Y-103055610D01*
X184970570Y-103037208D01*
X185035834Y-103016200D01*
X185123291Y-102997096D01*
X185124428Y-102996895D01*
X185233177Y-102972764D01*
X185292128Y-102947577D01*
X185303140Y-102933144D01*
X185316355Y-102911821D01*
X185337714Y-102926717D01*
X185377210Y-102938917D01*
X185438683Y-102917911D01*
X185510694Y-102896090D01*
X185545878Y-102905571D01*
X185578925Y-102913798D01*
X185595275Y-102889522D01*
X185621084Y-102862525D01*
X185648911Y-102870678D01*
X185695366Y-102877335D01*
X185767362Y-102869517D01*
X185797777Y-102862721D01*
X185971670Y-102818589D01*
X186144065Y-102776764D01*
X186329638Y-102733811D01*
X186543064Y-102686293D01*
X186664705Y-102659771D01*
X186807946Y-102628640D01*
X186938581Y-102600122D01*
X187046400Y-102576458D01*
X187121190Y-102559885D01*
X187146700Y-102554104D01*
X187218805Y-102537329D01*
X187178001Y-102338189D01*
X187153309Y-102235829D01*
X187127212Y-102157466D01*
X187103935Y-102115530D01*
X187101699Y-102113652D01*
X187058711Y-102100622D01*
X186974895Y-102089578D01*
X186860207Y-102081263D01*
X186724603Y-102076423D01*
X186593709Y-102075647D01*
X186530967Y-102070629D01*
X186493105Y-102057521D01*
X186492093Y-102056509D01*
X186457369Y-102047032D01*
X186396442Y-102050501D01*
X186389822Y-102051601D01*
X186326850Y-102055755D01*
X186287066Y-102045847D01*
X186285355Y-102044229D01*
X186246283Y-102029319D01*
X186217806Y-102030348D01*
X186163635Y-102032232D01*
X186085341Y-102026832D01*
X186056906Y-102023410D01*
X185965052Y-102011458D01*
X185854395Y-101997730D01*
X185792297Y-101990307D01*
X185709074Y-101978075D01*
X185647779Y-101964484D01*
X185625080Y-101954790D01*
X185590421Y-101940184D01*
X185537188Y-101931997D01*
X185461875Y-101922436D01*
X185376616Y-101906040D01*
X185370937Y-101904719D01*
X185279317Y-101883062D01*
X185189637Y-101861832D01*
X185188351Y-101861527D01*
X185121245Y-101848745D01*
X185074336Y-101845262D01*
X185071183Y-101845651D01*
X185028834Y-101842238D01*
X184952066Y-101826976D01*
X184854955Y-101803145D01*
X184751575Y-101774027D01*
X184713938Y-101762374D01*
X184634985Y-101737960D01*
X184542978Y-101710484D01*
X184523229Y-101704722D01*
X184351595Y-101654148D01*
X184222541Y-101614101D01*
X184129476Y-101582340D01*
X184065807Y-101556628D01*
X184027645Y-101536467D01*
X183964604Y-101510974D01*
X183916542Y-101507617D01*
X183862271Y-101503140D01*
X183788082Y-101481059D01*
X183762185Y-101470354D01*
X183694549Y-101443009D01*
X183645917Y-101428736D01*
X183635975Y-101428129D01*
X183601525Y-101418785D01*
X183542641Y-101390490D01*
X183518471Y-101376892D01*
X183441253Y-101336459D01*
X183369134Y-101306043D01*
X183356033Y-101301816D01*
X183281573Y-101274990D01*
X183186782Y-101234387D01*
X183095831Y-101190717D01*
X183053932Y-101167950D01*
X183000263Y-101143020D01*
X182955557Y-101126818D01*
X182898867Y-101103882D01*
X182819572Y-101065961D01*
X182767143Y-101038611D01*
X182681393Y-100995454D01*
X182601230Y-100960361D01*
X182565373Y-100947547D01*
X182505524Y-100919723D01*
X182470915Y-100887048D01*
X182434987Y-100853392D01*
X182372753Y-100820493D01*
X182361250Y-100816052D01*
X182307980Y-100789822D01*
X182228355Y-100741944D01*
X182128907Y-100677186D01*
X182016169Y-100600316D01*
X181896675Y-100516103D01*
X181776957Y-100429313D01*
X181663548Y-100344716D01*
X181562979Y-100267079D01*
X181481787Y-100201170D01*
X181426501Y-100151757D01*
X181403656Y-100123608D01*
X181406231Y-100119032D01*
X181402669Y-100103838D01*
X181364512Y-100068994D01*
X181300192Y-100021852D01*
X181277054Y-100006411D01*
X181229290Y-99968695D01*
X181207090Y-99938743D01*
X181185448Y-99905577D01*
X181151422Y-99874086D01*
X181098788Y-99824720D01*
X181029335Y-99747935D01*
X180950451Y-99653330D01*
X180869525Y-99550504D01*
X180793950Y-99449057D01*
X180731114Y-99358590D01*
X180688406Y-99288702D01*
X180673569Y-99253359D01*
X180653080Y-99202603D01*
X180636789Y-99177546D01*
X180600541Y-99120488D01*
X180556860Y-99038352D01*
X180514508Y-98949339D01*
X180482245Y-98871644D01*
X180469683Y-98830418D01*
X180453305Y-98779674D01*
X180420842Y-98702767D01*
X180388484Y-98634915D01*
X180317041Y-98492761D01*
X180156776Y-98525600D01*
X179964636Y-98566559D01*
X179760653Y-98612844D01*
X179552386Y-98662483D01*
X179347393Y-98713507D01*
X179153235Y-98763946D01*
X178977469Y-98811832D01*
X178827655Y-98855195D01*
X178711351Y-98892063D01*
X178636117Y-98920469D01*
X178629449Y-98923582D01*
X178561819Y-98950138D01*
X178483450Y-98973213D01*
X178389016Y-98999206D01*
X178269233Y-99036940D01*
X178136358Y-99082013D01*
X178002644Y-99130022D01*
X177880346Y-99176560D01*
X177781721Y-99217226D01*
X177719024Y-99247614D01*
X177717707Y-99248393D01*
X177664621Y-99271743D01*
X177631521Y-99274362D01*
X177593489Y-99278266D01*
X177535186Y-99301442D01*
X177529372Y-99304432D01*
X177463244Y-99337196D01*
X177373788Y-99379070D01*
X177309238Y-99408156D01*
X177219666Y-99448548D01*
X177104331Y-99501651D01*
X176983277Y-99558208D01*
X176939565Y-99578862D01*
X176836333Y-99626965D01*
X176745324Y-99667830D01*
X176679658Y-99695637D01*
X176658990Y-99703291D01*
X176599590Y-99734343D01*
X176572309Y-99758460D01*
X176530189Y-99786693D01*
X176458220Y-99816848D01*
X176410587Y-99831690D01*
X176329291Y-99860435D01*
X176265538Y-99894663D01*
X176244979Y-99912704D01*
X176200962Y-99946025D01*
X176169771Y-99950869D01*
X176125812Y-99963676D01*
X176107116Y-99984580D01*
X176068582Y-100023356D01*
X176046485Y-100032427D01*
X176006395Y-100050526D01*
X175943050Y-100090041D01*
X175895928Y-100123454D01*
X175824589Y-100172166D01*
X175763525Y-100206331D01*
X175737656Y-100215841D01*
X175697263Y-100230391D01*
X175631979Y-100265324D01*
X175537940Y-100323021D01*
X175411280Y-100405869D01*
X175248135Y-100516251D01*
X175224858Y-100532190D01*
X175145411Y-100582037D01*
X175068292Y-100623305D01*
X175044664Y-100633769D01*
X174983391Y-100667648D01*
X174944544Y-100705535D01*
X174912310Y-100742810D01*
X174895634Y-100751189D01*
X174863949Y-100769433D01*
X174808809Y-100811820D01*
X174761468Y-100852222D01*
X174697721Y-100905761D01*
X174647112Y-100942789D01*
X174626433Y-100953408D01*
X174593855Y-100973681D01*
X174544873Y-101018543D01*
X174529164Y-101035039D01*
X174475218Y-101085561D01*
X174428883Y-101115915D01*
X174419853Y-101118793D01*
X174375617Y-101144957D01*
X174356978Y-101168567D01*
X174321598Y-101207495D01*
X174301058Y-101217115D01*
X174262990Y-101241885D01*
X174245391Y-101265221D01*
X174211110Y-101305253D01*
X174152201Y-101357708D01*
X174120744Y-101382171D01*
X174053667Y-101437578D01*
X174000951Y-101491042D01*
X173987236Y-101509275D01*
X173946016Y-101553873D01*
X173914430Y-101570307D01*
X173878358Y-101591893D01*
X173820176Y-101641072D01*
X173751774Y-101707695D01*
X173744164Y-101715623D01*
X173663420Y-101798863D01*
X173564102Y-101899146D01*
X173464247Y-101998303D01*
X173437537Y-102024476D01*
X173352747Y-102110546D01*
X173275386Y-102194885D01*
X173217630Y-102263995D01*
X173201577Y-102286082D01*
X173158418Y-102342887D01*
X173122569Y-102376948D01*
X173114394Y-102380654D01*
X173089101Y-102402405D01*
X173043125Y-102457047D01*
X172984013Y-102535240D01*
X172944252Y-102591197D01*
X172878654Y-102680053D01*
X172818651Y-102751394D01*
X172772760Y-102795567D01*
X172755623Y-102805000D01*
X172716267Y-102835990D01*
X172696948Y-102892722D01*
X172682660Y-102948770D01*
X172665741Y-102975528D01*
X172664904Y-102975748D01*
X172639221Y-102995332D01*
X172592177Y-103042663D01*
X172546409Y-103093361D01*
X172488555Y-103171354D01*
X172459204Y-103234519D01*
X172457550Y-103276232D01*
X171727240Y-103405006D01*
X171783069Y-103294212D01*
X171844580Y-103177600D01*
X171901268Y-103076912D01*
X171958657Y-102982093D01*
X172022266Y-102883091D01*
X172042217Y-102852837D01*
X172112596Y-102745321D01*
X172176295Y-102645767D01*
X172225817Y-102566023D01*
X172251845Y-102521406D01*
X172291722Y-102460033D01*
X172351913Y-102381472D01*
X172403734Y-102320523D01*
X172478067Y-102233525D01*
X172561970Y-102129355D01*
X172628285Y-102042572D01*
X172706075Y-101943744D01*
X172794218Y-101841423D01*
X172863582Y-101768007D01*
X172943500Y-101686873D01*
X173023537Y-101602266D01*
X173070278Y-101550645D01*
X173214515Y-101397445D01*
X173394198Y-101224855D01*
X173601317Y-101039798D01*
X173827864Y-100849198D01*
X174065829Y-100659977D01*
X174307204Y-100479060D01*
X174323581Y-100467204D01*
X174550706Y-100303270D01*
X174742380Y-100165484D01*
X174904301Y-100050209D01*
X175042163Y-99953800D01*
X175161664Y-99872618D01*
X175268502Y-99803023D01*
X175368373Y-99741372D01*
X175466973Y-99684024D01*
X175570000Y-99627339D01*
X175683148Y-99567677D01*
X175812118Y-99501394D01*
X175922973Y-99444987D01*
X176190576Y-99309935D01*
X176420856Y-99195931D01*
X176621076Y-99099673D01*
X176798496Y-99017861D01*
X176960379Y-98947192D01*
X177113988Y-98884367D01*
X177266582Y-98826084D01*
X177355647Y-98793716D01*
X177505217Y-98739648D01*
X177650803Y-98685976D01*
X177780245Y-98637258D01*
X177881385Y-98598048D01*
X177924188Y-98580663D01*
X178012217Y-98546505D01*
X178132299Y-98503710D01*
X178267778Y-98458063D01*
X178385956Y-98420299D01*
X178519633Y-98378440D01*
X178651154Y-98336562D01*
X178764497Y-98299804D01*
X178837556Y-98275406D01*
X178942995Y-98239270D01*
X179065691Y-98197303D01*
X179153775Y-98167226D01*
X179250988Y-98137293D01*
X179387655Y-98099665D01*
X179553453Y-98056823D01*
X179738067Y-98011249D01*
X179931175Y-97965424D01*
X180122461Y-97921828D01*
X180301605Y-97882943D01*
X180458288Y-97851250D01*
X180502258Y-97842984D01*
X180764584Y-97794844D01*
X180801072Y-98050343D01*
D12*
X146793937Y-59422240D02*
X146493937Y-59422240D01*
X146493937Y-59422240D02*
X146493937Y-62722240D01*
X146493937Y-62722240D02*
X146793937Y-62722240D01*
X148993937Y-59422240D02*
X149293937Y-59422240D01*
X149293937Y-59422240D02*
X149293937Y-62722240D01*
X149293937Y-62722240D02*
X148993937Y-62722240D01*
D14*
X142205898Y-64372239D02*
G75*
G03*
X142205898Y-64372239I-100000J0D01*
G01*
D15*
X138985898Y-63297239D02*
X138875898Y-63297239D01*
X142535898Y-63297239D02*
X142425898Y-63297239D01*
X136955898Y-58947239D02*
X136955898Y-59222239D01*
X144455898Y-58947239D02*
X136955898Y-58947239D01*
X144455898Y-59222239D02*
X144455898Y-58947239D01*
X136955898Y-61922239D02*
X136955898Y-61572239D01*
X144455898Y-61922239D02*
X144455898Y-61572239D01*
D10*
X128560602Y-60477000D02*
X128703459Y-60524619D01*
X128941555Y-60524619D01*
X129036793Y-60477000D01*
X129084412Y-60429381D01*
X129132031Y-60334143D01*
X129132031Y-60238905D01*
X129084412Y-60143667D01*
X129036793Y-60096048D01*
X128941555Y-60048429D01*
X128751078Y-60000810D01*
X128655840Y-59953191D01*
X128608221Y-59905572D01*
X128560602Y-59810334D01*
X128560602Y-59715096D01*
X128608221Y-59619858D01*
X128655840Y-59572239D01*
X128751078Y-59524619D01*
X128989174Y-59524619D01*
X129132031Y-59572239D01*
X129465364Y-59524619D02*
X129703459Y-60524619D01*
X129893936Y-59810334D01*
X130084412Y-60524619D01*
X130322507Y-59524619D01*
X130655840Y-59619858D02*
X130703459Y-59572239D01*
X130798697Y-59524619D01*
X131036793Y-59524619D01*
X131132031Y-59572239D01*
X131179650Y-59619858D01*
X131227269Y-59715096D01*
X131227269Y-59810334D01*
X131179650Y-59953191D01*
X130608221Y-60524619D01*
X131227269Y-60524619D01*
X150660603Y-60477001D02*
X150803460Y-60524620D01*
X151041556Y-60524620D01*
X151136794Y-60477001D01*
X151184413Y-60429382D01*
X151232032Y-60334144D01*
X151232032Y-60238906D01*
X151184413Y-60143668D01*
X151136794Y-60096049D01*
X151041556Y-60048430D01*
X150851079Y-60000811D01*
X150755841Y-59953192D01*
X150708222Y-59905573D01*
X150660603Y-59810335D01*
X150660603Y-59715097D01*
X150708222Y-59619859D01*
X150755841Y-59572240D01*
X150851079Y-59524620D01*
X151089175Y-59524620D01*
X151232032Y-59572240D01*
X151565365Y-59524620D02*
X151803460Y-60524620D01*
X151993937Y-59810335D01*
X152184413Y-60524620D01*
X152422508Y-59524620D01*
X153327270Y-60524620D02*
X152755841Y-60524620D01*
X153041556Y-60524620D02*
X153041556Y-59524620D01*
X152946317Y-59667478D01*
X152851079Y-59762716D01*
X152755841Y-59810335D01*
M02*
