G04 #@! TF.GenerationSoftware,KiCad,Pcbnew,5.1.5-52549c5~84~ubuntu19.04.1*
G04 #@! TF.CreationDate,2020-02-26T12:25:17-06:00*
G04 #@! TF.ProjectId,fissure,66697373-7572-4652-9e6b-696361645f70,rev?*
G04 #@! TF.SameCoordinates,Original*
G04 #@! TF.FileFunction,Legend,Bot*
G04 #@! TF.FilePolarity,Positive*
%FSLAX46Y46*%
G04 Gerber Fmt 4.6, Leading zero omitted, Abs format (unit mm)*
G04 Created by KiCad (PCBNEW 5.1.5-52549c5~84~ubuntu19.04.1) date 2020-02-26 12:25:17*
%MOMM*%
%LPD*%
G04 APERTURE LIST*
%ADD10C,0.150000*%
%ADD11C,0.300000*%
%ADD12C,0.120000*%
%ADD13C,0.250000*%
G04 APERTURE END LIST*
D10*
X148666047Y-87751380D02*
X148666047Y-88465666D01*
X148713666Y-88608523D01*
X148808904Y-88703761D01*
X148951761Y-88751380D01*
X149047000Y-88751380D01*
X147713666Y-88751380D02*
X148189857Y-88751380D01*
X148189857Y-87751380D01*
X146808904Y-88656142D02*
X146856523Y-88703761D01*
X146999380Y-88751380D01*
X147094619Y-88751380D01*
X147237476Y-88703761D01*
X147332714Y-88608523D01*
X147380333Y-88513285D01*
X147427952Y-88322809D01*
X147427952Y-88179952D01*
X147380333Y-87989476D01*
X147332714Y-87894238D01*
X147237476Y-87799000D01*
X147094619Y-87751380D01*
X146999380Y-87751380D01*
X146856523Y-87799000D01*
X146808904Y-87846619D01*
X146094619Y-87751380D02*
X146094619Y-88465666D01*
X146142238Y-88608523D01*
X146237476Y-88703761D01*
X146380333Y-88751380D01*
X146475571Y-88751380D01*
X145142238Y-88751380D02*
X145618428Y-88751380D01*
X145618428Y-87751380D01*
X144237476Y-88656142D02*
X144285095Y-88703761D01*
X144427952Y-88751380D01*
X144523190Y-88751380D01*
X144666047Y-88703761D01*
X144761285Y-88608523D01*
X144808904Y-88513285D01*
X144856523Y-88322809D01*
X144856523Y-88179952D01*
X144808904Y-87989476D01*
X144761285Y-87894238D01*
X144666047Y-87799000D01*
X144523190Y-87751380D01*
X144427952Y-87751380D01*
X144285095Y-87799000D01*
X144237476Y-87846619D01*
X143523190Y-87751380D02*
X143523190Y-88465666D01*
X143570809Y-88608523D01*
X143666047Y-88703761D01*
X143808904Y-88751380D01*
X143904142Y-88751380D01*
X142570809Y-88751380D02*
X143047000Y-88751380D01*
X143047000Y-87751380D01*
X141666047Y-88656142D02*
X141713666Y-88703761D01*
X141856523Y-88751380D01*
X141951761Y-88751380D01*
X142094619Y-88703761D01*
X142189857Y-88608523D01*
X142237476Y-88513285D01*
X142285095Y-88322809D01*
X142285095Y-88179952D01*
X142237476Y-87989476D01*
X142189857Y-87894238D01*
X142094619Y-87799000D01*
X141951761Y-87751380D01*
X141856523Y-87751380D01*
X141713666Y-87799000D01*
X141666047Y-87846619D01*
X140951761Y-87751380D02*
X140951761Y-88465666D01*
X140999380Y-88608523D01*
X141094619Y-88703761D01*
X141237476Y-88751380D01*
X141332714Y-88751380D01*
X139999380Y-88751380D02*
X140475571Y-88751380D01*
X140475571Y-87751380D01*
X139094619Y-88656142D02*
X139142238Y-88703761D01*
X139285095Y-88751380D01*
X139380333Y-88751380D01*
X139523190Y-88703761D01*
X139618428Y-88608523D01*
X139666047Y-88513285D01*
X139713666Y-88322809D01*
X139713666Y-88179952D01*
X139666047Y-87989476D01*
X139618428Y-87894238D01*
X139523190Y-87799000D01*
X139380333Y-87751380D01*
X139285095Y-87751380D01*
X139142238Y-87799000D01*
X139094619Y-87846619D01*
D11*
X151475571Y-118120428D02*
X152618428Y-117691857D01*
X151475571Y-117263285D01*
X151475571Y-115620428D02*
X152618428Y-115191857D01*
X151475571Y-114763285D01*
X151475571Y-113120428D02*
X152618428Y-112691857D01*
X151475571Y-112263285D01*
X151475571Y-110620428D02*
X152618428Y-110191857D01*
X151475571Y-109763285D01*
X151475571Y-108120428D02*
X152618428Y-107691857D01*
X151475571Y-107263285D01*
X151475571Y-105120428D02*
X152618428Y-104691857D01*
X151475571Y-104263285D01*
X151475571Y-97620428D02*
X152618428Y-97191857D01*
X151475571Y-96763285D01*
X151475571Y-95120428D02*
X152618428Y-94691857D01*
X151475571Y-94263285D01*
X151475571Y-92620428D02*
X152618428Y-92191857D01*
X151475571Y-91763285D01*
X136618428Y-104977571D02*
X135475571Y-105406142D01*
X136618428Y-105834714D01*
X136618428Y-107477571D02*
X135475571Y-107906142D01*
X136618428Y-108334714D01*
X136618428Y-109977571D02*
X135475571Y-110406142D01*
X136618428Y-110834714D01*
X136618428Y-112477571D02*
X135475571Y-112906142D01*
X136618428Y-113334714D01*
X136618428Y-114977571D02*
X135475571Y-115406142D01*
X136618428Y-115834714D01*
D12*
X168747000Y-114299000D02*
X164897000Y-114299000D01*
X168747000Y-116299000D02*
X164897000Y-116299000D01*
X168747000Y-114299000D02*
X168747000Y-116299000D01*
X168747000Y-110299000D02*
X164897000Y-110299000D01*
X168747000Y-112299000D02*
X164897000Y-112299000D01*
X168747000Y-110299000D02*
X168747000Y-112299000D01*
X168747000Y-112299000D02*
X164897000Y-112299000D01*
X168747000Y-114299000D02*
X164897000Y-114299000D01*
X168747000Y-112299000D02*
X168747000Y-114299000D01*
D10*
X132617000Y-126699000D02*
X132617000Y-75899000D01*
X155477000Y-126699000D02*
X132617000Y-126699000D01*
X155477000Y-75899000D02*
X155477000Y-126699000D01*
X132617000Y-75899000D02*
X155477000Y-75899000D01*
D12*
X186747000Y-114299000D02*
X182897000Y-114299000D01*
X186747000Y-116299000D02*
X182897000Y-116299000D01*
X186747000Y-114299000D02*
X186747000Y-116299000D01*
X146347000Y-116299000D02*
X150197000Y-116299000D01*
X146347000Y-114299000D02*
X150197000Y-114299000D01*
X146347000Y-116299000D02*
X146347000Y-114299000D01*
X125147000Y-116299000D02*
X128997000Y-116299000D01*
X125147000Y-114299000D02*
X128997000Y-114299000D01*
X125147000Y-116299000D02*
X125147000Y-114299000D01*
X107347000Y-116299000D02*
X111197000Y-116299000D01*
X107347000Y-114299000D02*
X111197000Y-114299000D01*
X107347000Y-116299000D02*
X107347000Y-114299000D01*
X88347000Y-116299000D02*
X92197000Y-116299000D01*
X88347000Y-114299000D02*
X92197000Y-114299000D01*
X88347000Y-116299000D02*
X88347000Y-114299000D01*
X223747000Y-112299000D02*
X219897000Y-112299000D01*
X223747000Y-114299000D02*
X219897000Y-114299000D01*
X223747000Y-112299000D02*
X223747000Y-114299000D01*
X205747000Y-112299000D02*
X201897000Y-112299000D01*
X205747000Y-114299000D02*
X201897000Y-114299000D01*
X205747000Y-112299000D02*
X205747000Y-114299000D01*
X186747000Y-112299000D02*
X182897000Y-112299000D01*
X186747000Y-114299000D02*
X182897000Y-114299000D01*
X186747000Y-112299000D02*
X186747000Y-114299000D01*
X146347000Y-114299000D02*
X150197000Y-114299000D01*
X146347000Y-112299000D02*
X150197000Y-112299000D01*
X146347000Y-114299000D02*
X146347000Y-112299000D01*
X241747000Y-112299000D02*
X237897000Y-112299000D01*
X241747000Y-114299000D02*
X237897000Y-114299000D01*
X241747000Y-112299000D02*
X241747000Y-114299000D01*
X125147000Y-114299000D02*
X128997000Y-114299000D01*
X125147000Y-112299000D02*
X128997000Y-112299000D01*
X125147000Y-114299000D02*
X125147000Y-112299000D01*
X107347000Y-114299000D02*
X111197000Y-114299000D01*
X107347000Y-112299000D02*
X111197000Y-112299000D01*
X107347000Y-114299000D02*
X107347000Y-112299000D01*
X88347000Y-114299000D02*
X92197000Y-114299000D01*
X88347000Y-112299000D02*
X92197000Y-112299000D01*
X88347000Y-114299000D02*
X88347000Y-112299000D01*
X71747000Y-114299000D02*
X75597000Y-114299000D01*
X71747000Y-112299000D02*
X75597000Y-112299000D01*
X71747000Y-114299000D02*
X71747000Y-112299000D01*
X58097000Y-114299000D02*
X61947000Y-114299000D01*
X58097000Y-112299000D02*
X61947000Y-112299000D01*
X58097000Y-114299000D02*
X58097000Y-112299000D01*
X223747000Y-110299000D02*
X219897000Y-110299000D01*
X223747000Y-112299000D02*
X219897000Y-112299000D01*
X223747000Y-110299000D02*
X223747000Y-112299000D01*
X205747000Y-110299000D02*
X201897000Y-110299000D01*
X205747000Y-112299000D02*
X201897000Y-112299000D01*
X205747000Y-110299000D02*
X205747000Y-112299000D01*
X186747000Y-110299000D02*
X182897000Y-110299000D01*
X186747000Y-112299000D02*
X182897000Y-112299000D01*
X186747000Y-110299000D02*
X186747000Y-112299000D01*
X146347000Y-112299000D02*
X150197000Y-112299000D01*
X146347000Y-110299000D02*
X150197000Y-110299000D01*
X146347000Y-112299000D02*
X146347000Y-110299000D01*
X241747000Y-110299000D02*
X237897000Y-110299000D01*
X241747000Y-112299000D02*
X237897000Y-112299000D01*
X241747000Y-110299000D02*
X241747000Y-112299000D01*
X125147000Y-112349000D02*
X128997000Y-112349000D01*
X125147000Y-110349000D02*
X128997000Y-110349000D01*
X125147000Y-112349000D02*
X125147000Y-110349000D01*
X107347000Y-112299000D02*
X111197000Y-112299000D01*
X107347000Y-110299000D02*
X111197000Y-110299000D01*
X107347000Y-112299000D02*
X107347000Y-110299000D01*
X88347000Y-112299000D02*
X92197000Y-112299000D01*
X88347000Y-110299000D02*
X92197000Y-110299000D01*
X88347000Y-112299000D02*
X88347000Y-110299000D01*
X71747000Y-112299000D02*
X75597000Y-112299000D01*
X71747000Y-110299000D02*
X75597000Y-110299000D01*
X71747000Y-112299000D02*
X71747000Y-110299000D01*
X58097000Y-112299000D02*
X61947000Y-112299000D01*
X58097000Y-110299000D02*
X61947000Y-110299000D01*
X58097000Y-112299000D02*
X58097000Y-110299000D01*
D13*
X144808904Y-74335380D02*
X144808904Y-75144904D01*
X144761285Y-75240142D01*
X144713666Y-75287761D01*
X144618428Y-75335380D01*
X144427952Y-75335380D01*
X144332714Y-75287761D01*
X144285095Y-75240142D01*
X144237476Y-75144904D01*
X144237476Y-74335380D01*
X143237476Y-75335380D02*
X143808904Y-75335380D01*
X143523190Y-75335380D02*
X143523190Y-74335380D01*
X143618428Y-74478238D01*
X143713666Y-74573476D01*
X143808904Y-74621095D01*
D10*
X149634285Y-117656380D02*
X149634285Y-116656380D01*
X149396190Y-116656380D01*
X149253333Y-116704000D01*
X149158095Y-116799238D01*
X149110476Y-116894476D01*
X149062857Y-117084952D01*
X149062857Y-117227809D01*
X149110476Y-117418285D01*
X149158095Y-117513523D01*
X149253333Y-117608761D01*
X149396190Y-117656380D01*
X149634285Y-117656380D01*
X148681904Y-116751619D02*
X148634285Y-116704000D01*
X148539047Y-116656380D01*
X148300952Y-116656380D01*
X148205714Y-116704000D01*
X148158095Y-116751619D01*
X148110476Y-116846857D01*
X148110476Y-116942095D01*
X148158095Y-117084952D01*
X148729523Y-117656380D01*
X148110476Y-117656380D01*
X147253333Y-116656380D02*
X147443809Y-116656380D01*
X147539047Y-116704000D01*
X147586666Y-116751619D01*
X147681904Y-116894476D01*
X147729523Y-117084952D01*
X147729523Y-117465904D01*
X147681904Y-117561142D01*
X147634285Y-117608761D01*
X147539047Y-117656380D01*
X147348571Y-117656380D01*
X147253333Y-117608761D01*
X147205714Y-117561142D01*
X147158095Y-117465904D01*
X147158095Y-117227809D01*
X147205714Y-117132571D01*
X147253333Y-117084952D01*
X147348571Y-117037333D01*
X147539047Y-117037333D01*
X147634285Y-117084952D01*
X147681904Y-117132571D01*
X147729523Y-117227809D01*
X149634285Y-115656380D02*
X149634285Y-114656380D01*
X149396190Y-114656380D01*
X149253333Y-114704000D01*
X149158095Y-114799238D01*
X149110476Y-114894476D01*
X149062857Y-115084952D01*
X149062857Y-115227809D01*
X149110476Y-115418285D01*
X149158095Y-115513523D01*
X149253333Y-115608761D01*
X149396190Y-115656380D01*
X149634285Y-115656380D01*
X148110476Y-115656380D02*
X148681904Y-115656380D01*
X148396190Y-115656380D02*
X148396190Y-114656380D01*
X148491428Y-114799238D01*
X148586666Y-114894476D01*
X148681904Y-114942095D01*
X147777142Y-114656380D02*
X147110476Y-114656380D01*
X147539047Y-115656380D01*
X143285095Y-111751380D02*
X143285095Y-110751380D01*
X143047000Y-110751380D01*
X142904142Y-110799000D01*
X142808904Y-110894238D01*
X142761285Y-110989476D01*
X142713666Y-111179952D01*
X142713666Y-111322809D01*
X142761285Y-111513285D01*
X142808904Y-111608523D01*
X142904142Y-111703761D01*
X143047000Y-111751380D01*
X143285095Y-111751380D01*
X141856523Y-110751380D02*
X142047000Y-110751380D01*
X142142238Y-110799000D01*
X142189857Y-110846619D01*
X142285095Y-110989476D01*
X142332714Y-111179952D01*
X142332714Y-111560904D01*
X142285095Y-111656142D01*
X142237476Y-111703761D01*
X142142238Y-111751380D01*
X141951761Y-111751380D01*
X141856523Y-111703761D01*
X141808904Y-111656142D01*
X141761285Y-111560904D01*
X141761285Y-111322809D01*
X141808904Y-111227571D01*
X141856523Y-111179952D01*
X141951761Y-111132333D01*
X142142238Y-111132333D01*
X142237476Y-111179952D01*
X142285095Y-111227571D01*
X142332714Y-111322809D01*
M02*
