G04 #@! TF.GenerationSoftware,KiCad,Pcbnew,5.1.6*
G04 #@! TF.CreationDate,2020-06-14T17:45:57-05:00*
G04 #@! TF.ProjectId,steno-v2,7374656e-6f2d-4763-922e-6b696361645f,rev?*
G04 #@! TF.SameCoordinates,Original*
G04 #@! TF.FileFunction,Legend,Top*
G04 #@! TF.FilePolarity,Positive*
%FSLAX46Y46*%
G04 Gerber Fmt 4.6, Leading zero omitted, Abs format (unit mm)*
G04 Created by KiCad (PCBNEW 5.1.6) date 2020-06-14 17:45:57*
%MOMM*%
%LPD*%
G01*
G04 APERTURE LIST*
%ADD10C,0.150000*%
%ADD11C,0.120000*%
G04 APERTURE END LIST*
D10*
X151698936Y-80617558D02*
X151603698Y-80569938D01*
X151460841Y-80569938D01*
X151317983Y-80617558D01*
X151222745Y-80712796D01*
X151175126Y-80808034D01*
X151127507Y-80998510D01*
X151127507Y-81141367D01*
X151175126Y-81331843D01*
X151222745Y-81427081D01*
X151317983Y-81522319D01*
X151460841Y-81569938D01*
X151556079Y-81569938D01*
X151698936Y-81522319D01*
X151746555Y-81474700D01*
X151746555Y-81141367D01*
X151556079Y-81141367D01*
X152175126Y-81569938D02*
X152175126Y-80569938D01*
X152746555Y-81569938D01*
X152746555Y-80569938D01*
X153222745Y-81569938D02*
X153222745Y-80569938D01*
X153460841Y-80569938D01*
X153603698Y-80617558D01*
X153698936Y-80712796D01*
X153746555Y-80808034D01*
X153794174Y-80998510D01*
X153794174Y-81141367D01*
X153746555Y-81331843D01*
X153698936Y-81427081D01*
X153603698Y-81522319D01*
X153460841Y-81569938D01*
X153222745Y-81569938D01*
X155222745Y-81046129D02*
X155365602Y-81093748D01*
X155413221Y-81141367D01*
X155460841Y-81236605D01*
X155460841Y-81379462D01*
X155413221Y-81474700D01*
X155365602Y-81522319D01*
X155270364Y-81569938D01*
X154889412Y-81569938D01*
X154889412Y-80569938D01*
X155222745Y-80569938D01*
X155317983Y-80617558D01*
X155365602Y-80665177D01*
X155413221Y-80760415D01*
X155413221Y-80855653D01*
X155365602Y-80950891D01*
X155317983Y-80998510D01*
X155222745Y-81046129D01*
X154889412Y-81046129D01*
X155841793Y-81284224D02*
X156317983Y-81284224D01*
X155746555Y-81569938D02*
X156079888Y-80569938D01*
X156413221Y-81569938D01*
X156603698Y-80569938D02*
X157175126Y-80569938D01*
X156889412Y-81569938D02*
X156889412Y-80569938D01*
X149341793Y-103569939D02*
X149341793Y-104284225D01*
X149294174Y-104427082D01*
X149198936Y-104522320D01*
X149056079Y-104569939D01*
X148960841Y-104569939D01*
X150294174Y-104569939D02*
X149817983Y-104569939D01*
X149817983Y-103569939D01*
X151198936Y-104474701D02*
X151151317Y-104522320D01*
X151008460Y-104569939D01*
X150913221Y-104569939D01*
X150770364Y-104522320D01*
X150675126Y-104427082D01*
X150627507Y-104331844D01*
X150579888Y-104141368D01*
X150579888Y-103998511D01*
X150627507Y-103808035D01*
X150675126Y-103712797D01*
X150770364Y-103617559D01*
X150913221Y-103569939D01*
X151008460Y-103569939D01*
X151151317Y-103617559D01*
X151198936Y-103665178D01*
X151913221Y-103569939D02*
X151913221Y-104284225D01*
X151865602Y-104427082D01*
X151770364Y-104522320D01*
X151627507Y-104569939D01*
X151532269Y-104569939D01*
X152865602Y-104569939D02*
X152389412Y-104569939D01*
X152389412Y-103569939D01*
X153770364Y-104474701D02*
X153722745Y-104522320D01*
X153579888Y-104569939D01*
X153484650Y-104569939D01*
X153341793Y-104522320D01*
X153246555Y-104427082D01*
X153198936Y-104331844D01*
X153151317Y-104141368D01*
X153151317Y-103998511D01*
X153198936Y-103808035D01*
X153246555Y-103712797D01*
X153341793Y-103617559D01*
X153484650Y-103569939D01*
X153579888Y-103569939D01*
X153722745Y-103617559D01*
X153770364Y-103665178D01*
X154484650Y-103569939D02*
X154484650Y-104284225D01*
X154437031Y-104427082D01*
X154341793Y-104522320D01*
X154198936Y-104569939D01*
X154103698Y-104569939D01*
X155437031Y-104569939D02*
X154960841Y-104569939D01*
X154960841Y-103569939D01*
X156341793Y-104474701D02*
X156294174Y-104522320D01*
X156151317Y-104569939D01*
X156056079Y-104569939D01*
X155913221Y-104522320D01*
X155817983Y-104427082D01*
X155770364Y-104331844D01*
X155722745Y-104141368D01*
X155722745Y-103998511D01*
X155770364Y-103808035D01*
X155817983Y-103712797D01*
X155913221Y-103617559D01*
X156056079Y-103569939D01*
X156151317Y-103569939D01*
X156294174Y-103617559D01*
X156341793Y-103665178D01*
X157056079Y-103569939D02*
X157056079Y-104284225D01*
X157008460Y-104427082D01*
X156913221Y-104522320D01*
X156770364Y-104569939D01*
X156675126Y-104569939D01*
X158008460Y-104569939D02*
X157532269Y-104569939D01*
X157532269Y-103569939D01*
X158913221Y-104474701D02*
X158865602Y-104522320D01*
X158722745Y-104569939D01*
X158627507Y-104569939D01*
X158484650Y-104522320D01*
X158389412Y-104427082D01*
X158341793Y-104331844D01*
X158294174Y-104141368D01*
X158294174Y-103998511D01*
X158341793Y-103808035D01*
X158389412Y-103712797D01*
X158484650Y-103617559D01*
X158627507Y-103569939D01*
X158722745Y-103569939D01*
X158865602Y-103617559D01*
X158913221Y-103665178D01*
D11*
X156790841Y-82787558D02*
X156790841Y-84117558D01*
X155460841Y-82787558D02*
X156790841Y-82787558D01*
X154190841Y-82787558D02*
X154190841Y-85447558D01*
X154190841Y-85447558D02*
X151590841Y-85447558D01*
X154190841Y-82787558D02*
X151590841Y-82787558D01*
X151590841Y-82787558D02*
X151590841Y-85447558D01*
D10*
X164834902Y-130469035D02*
X164834902Y-79669035D01*
X141974902Y-130469035D02*
X164834902Y-130469035D01*
X141974902Y-79669035D02*
X141974902Y-130469035D01*
X164834902Y-79669035D02*
X141974902Y-79669035D01*
D11*
X172390841Y-112247559D02*
X171060841Y-112247559D01*
X172390841Y-109647559D02*
X172390841Y-101967559D01*
X172390841Y-101967559D02*
X169730841Y-101967559D01*
X169730841Y-109647559D02*
X169730841Y-101967559D01*
X172390841Y-109647559D02*
X169730841Y-109647559D01*
X172390841Y-110917559D02*
X172390841Y-112247559D01*
X172460841Y-101117559D02*
X172460841Y-113117559D01*
X172460841Y-113117559D02*
X134460841Y-113117559D01*
X134460841Y-113117559D02*
X134460841Y-101117559D01*
X134460841Y-101117559D02*
X172460841Y-101117559D01*
X156425841Y-121367558D02*
X156425841Y-119717558D01*
X156685841Y-121367558D02*
X156425841Y-121367558D01*
X156685841Y-124117558D02*
X156685841Y-121367558D01*
X156685841Y-126867558D02*
X156425841Y-126867558D01*
X156685841Y-124117558D02*
X156685841Y-126867558D01*
X151235841Y-121367558D02*
X151495841Y-121367558D01*
X151235841Y-124117558D02*
X151235841Y-121367558D01*
X151235841Y-126867558D02*
X151495841Y-126867558D01*
X151235841Y-124117558D02*
X151235841Y-126867558D01*
M02*
