G04 #@! TF.GenerationSoftware,KiCad,Pcbnew,5.1.8*
G04 #@! TF.CreationDate,2021-03-01T17:51:10-06:00*
G04 #@! TF.ProjectId,steno,7374656e-6f2e-46b6-9963-61645f706362,rev?*
G04 #@! TF.SameCoordinates,Original*
G04 #@! TF.FileFunction,Soldermask,Bot*
G04 #@! TF.FilePolarity,Negative*
%FSLAX46Y46*%
G04 Gerber Fmt 4.6, Leading zero omitted, Abs format (unit mm)*
G04 Created by KiCad (PCBNEW 5.1.8) date 2021-03-01 17:51:10*
%MOMM*%
%LPD*%
G01*
G04 APERTURE LIST*
%ADD10O,1.102000X2.202000*%
%ADD11C,0.752000*%
%ADD12O,1.102000X1.702000*%
%ADD13C,2.102000*%
%ADD14C,3.502000*%
%ADD15C,1.802000*%
%ADD16C,1.102000*%
%ADD17C,0.100000*%
G04 APERTURE END LIST*
G36*
G01*
X157074473Y-79922490D02*
X156074473Y-79922490D01*
G75*
G02*
X156023473Y-79871490I0J51000D01*
G01*
X156023473Y-78571490D01*
G75*
G02*
X156074473Y-78520490I51000J0D01*
G01*
X157074473Y-78520490D01*
G75*
G02*
X157125473Y-78571490I0J-51000D01*
G01*
X157125473Y-79871490D01*
G75*
G02*
X157074473Y-79922490I-51000J0D01*
G01*
G37*
G36*
G01*
X157074473Y-77722490D02*
X156074473Y-77722490D01*
G75*
G02*
X156023473Y-77671490I0J51000D01*
G01*
X156023473Y-76371490D01*
G75*
G02*
X156074473Y-76320490I51000J0D01*
G01*
X157074473Y-76320490D01*
G75*
G02*
X157125473Y-76371490I0J-51000D01*
G01*
X157125473Y-77671490D01*
G75*
G02*
X157074473Y-77722490I-51000J0D01*
G01*
G37*
G36*
G01*
X155274473Y-77722490D02*
X154274473Y-77722490D01*
G75*
G02*
X154223473Y-77671490I0J51000D01*
G01*
X154223473Y-76371490D01*
G75*
G02*
X154274473Y-76320490I51000J0D01*
G01*
X155274473Y-76320490D01*
G75*
G02*
X155325473Y-76371490I0J-51000D01*
G01*
X155325473Y-77671490D01*
G75*
G02*
X155274473Y-77722490I-51000J0D01*
G01*
G37*
G36*
G01*
X155274473Y-79922490D02*
X154274473Y-79922490D01*
G75*
G02*
X154223473Y-79871490I0J51000D01*
G01*
X154223473Y-78571490D01*
G75*
G02*
X154274473Y-78520490I51000J0D01*
G01*
X155274473Y-78520490D01*
G75*
G02*
X155325473Y-78571490I0J-51000D01*
G01*
X155325473Y-79871490D01*
G75*
G02*
X155274473Y-79922490I-51000J0D01*
G01*
G37*
G36*
G01*
X140749473Y-66840487D02*
X141399475Y-66840487D01*
G75*
G02*
X141450474Y-66891486I0J-50999D01*
G01*
X141450474Y-67951488D01*
G75*
G02*
X141399475Y-68002487I-50999J0D01*
G01*
X140749473Y-68002487D01*
G75*
G02*
X140698474Y-67951488I0J50999D01*
G01*
X140698474Y-66891486D01*
G75*
G02*
X140749473Y-66840487I50999J0D01*
G01*
G37*
G36*
G01*
X139799473Y-66840487D02*
X140449475Y-66840487D01*
G75*
G02*
X140500474Y-66891486I0J-50999D01*
G01*
X140500474Y-67951488D01*
G75*
G02*
X140449475Y-68002487I-50999J0D01*
G01*
X139799473Y-68002487D01*
G75*
G02*
X139748474Y-67951488I0J50999D01*
G01*
X139748474Y-66891486D01*
G75*
G02*
X139799473Y-66840487I50999J0D01*
G01*
G37*
G36*
G01*
X141699473Y-66840487D02*
X142349475Y-66840487D01*
G75*
G02*
X142400474Y-66891486I0J-50999D01*
G01*
X142400474Y-67951488D01*
G75*
G02*
X142349475Y-68002487I-50999J0D01*
G01*
X141699473Y-68002487D01*
G75*
G02*
X141648474Y-67951488I0J50999D01*
G01*
X141648474Y-66891486D01*
G75*
G02*
X141699473Y-66840487I50999J0D01*
G01*
G37*
G36*
G01*
X141699473Y-64640487D02*
X142349475Y-64640487D01*
G75*
G02*
X142400474Y-64691486I0J-50999D01*
G01*
X142400474Y-65751488D01*
G75*
G02*
X142349475Y-65802487I-50999J0D01*
G01*
X141699473Y-65802487D01*
G75*
G02*
X141648474Y-65751488I0J50999D01*
G01*
X141648474Y-64691486D01*
G75*
G02*
X141699473Y-64640487I50999J0D01*
G01*
G37*
G36*
G01*
X140749473Y-64640487D02*
X141399475Y-64640487D01*
G75*
G02*
X141450474Y-64691486I0J-50999D01*
G01*
X141450474Y-65751488D01*
G75*
G02*
X141399475Y-65802487I-50999J0D01*
G01*
X140749473Y-65802487D01*
G75*
G02*
X140698474Y-65751488I0J50999D01*
G01*
X140698474Y-64691486D01*
G75*
G02*
X140749473Y-64640487I50999J0D01*
G01*
G37*
G36*
G01*
X139799473Y-64640487D02*
X140449475Y-64640487D01*
G75*
G02*
X140500474Y-64691486I0J-50999D01*
G01*
X140500474Y-65751488D01*
G75*
G02*
X140449475Y-65802487I-50999J0D01*
G01*
X139799473Y-65802487D01*
G75*
G02*
X139748474Y-65751488I0J50999D01*
G01*
X139748474Y-64691486D01*
G75*
G02*
X139799473Y-64640487I50999J0D01*
G01*
G37*
G36*
G01*
X138474974Y-65347487D02*
X137873974Y-65347487D01*
G75*
G02*
X137648474Y-65121987I0J225500D01*
G01*
X137648474Y-64670987D01*
G75*
G02*
X137873974Y-64445487I225500J0D01*
G01*
X138474974Y-64445487D01*
G75*
G02*
X138700474Y-64670987I0J-225500D01*
G01*
X138700474Y-65121987D01*
G75*
G02*
X138474974Y-65347487I-225500J0D01*
G01*
G37*
G36*
G01*
X138474974Y-66997487D02*
X137873974Y-66997487D01*
G75*
G02*
X137648474Y-66771987I0J225500D01*
G01*
X137648474Y-66320987D01*
G75*
G02*
X137873974Y-66095487I225500J0D01*
G01*
X138474974Y-66095487D01*
G75*
G02*
X138700474Y-66320987I0J-225500D01*
G01*
X138700474Y-66771987D01*
G75*
G02*
X138474974Y-66997487I-225500J0D01*
G01*
G37*
G36*
G01*
X144474974Y-66997487D02*
X143873974Y-66997487D01*
G75*
G02*
X143648474Y-66771987I0J225500D01*
G01*
X143648474Y-66320987D01*
G75*
G02*
X143873974Y-66095487I225500J0D01*
G01*
X144474974Y-66095487D01*
G75*
G02*
X144700474Y-66320987I0J-225500D01*
G01*
X144700474Y-66771987D01*
G75*
G02*
X144474974Y-66997487I-225500J0D01*
G01*
G37*
G36*
G01*
X144474974Y-65347487D02*
X143873974Y-65347487D01*
G75*
G02*
X143648474Y-65121987I0J225500D01*
G01*
X143648474Y-64670987D01*
G75*
G02*
X143873974Y-64445487I225500J0D01*
G01*
X144474974Y-64445487D01*
G75*
G02*
X144700474Y-64670987I0J-225500D01*
G01*
X144700474Y-65121987D01*
G75*
G02*
X144474974Y-65347487I-225500J0D01*
G01*
G37*
D10*
X136104474Y-60251488D03*
X144744474Y-60251488D03*
D11*
X143314474Y-59721488D03*
D12*
X144744474Y-56071488D03*
D11*
X137534474Y-59721488D03*
D12*
X136104474Y-56071488D03*
G36*
G01*
X148225474Y-95440987D02*
X148225474Y-95791987D01*
G75*
G02*
X148049974Y-95967487I-175500J0D01*
G01*
X146698974Y-95967487D01*
G75*
G02*
X146523474Y-95791987I0J175500D01*
G01*
X146523474Y-95440987D01*
G75*
G02*
X146698974Y-95265487I175500J0D01*
G01*
X148049974Y-95265487D01*
G75*
G02*
X148225474Y-95440987I0J-175500D01*
G01*
G37*
G36*
G01*
X148225474Y-96710987D02*
X148225474Y-97061987D01*
G75*
G02*
X148049974Y-97237487I-175500J0D01*
G01*
X146698974Y-97237487D01*
G75*
G02*
X146523474Y-97061987I0J175500D01*
G01*
X146523474Y-96710987D01*
G75*
G02*
X146698974Y-96535487I175500J0D01*
G01*
X148049974Y-96535487D01*
G75*
G02*
X148225474Y-96710987I0J-175500D01*
G01*
G37*
G36*
G01*
X148225474Y-97980987D02*
X148225474Y-98331987D01*
G75*
G02*
X148049974Y-98507487I-175500J0D01*
G01*
X146698974Y-98507487D01*
G75*
G02*
X146523474Y-98331987I0J175500D01*
G01*
X146523474Y-97980987D01*
G75*
G02*
X146698974Y-97805487I175500J0D01*
G01*
X148049974Y-97805487D01*
G75*
G02*
X148225474Y-97980987I0J-175500D01*
G01*
G37*
G36*
G01*
X148225474Y-99250987D02*
X148225474Y-99601987D01*
G75*
G02*
X148049974Y-99777487I-175500J0D01*
G01*
X146698974Y-99777487D01*
G75*
G02*
X146523474Y-99601987I0J175500D01*
G01*
X146523474Y-99250987D01*
G75*
G02*
X146698974Y-99075487I175500J0D01*
G01*
X148049974Y-99075487D01*
G75*
G02*
X148225474Y-99250987I0J-175500D01*
G01*
G37*
G36*
G01*
X141025474Y-99250987D02*
X141025474Y-99601987D01*
G75*
G02*
X140849974Y-99777487I-175500J0D01*
G01*
X139498974Y-99777487D01*
G75*
G02*
X139323474Y-99601987I0J175500D01*
G01*
X139323474Y-99250987D01*
G75*
G02*
X139498974Y-99075487I175500J0D01*
G01*
X140849974Y-99075487D01*
G75*
G02*
X141025474Y-99250987I0J-175500D01*
G01*
G37*
G36*
G01*
X141025474Y-97980987D02*
X141025474Y-98331987D01*
G75*
G02*
X140849974Y-98507487I-175500J0D01*
G01*
X139498974Y-98507487D01*
G75*
G02*
X139323474Y-98331987I0J175500D01*
G01*
X139323474Y-97980987D01*
G75*
G02*
X139498974Y-97805487I175500J0D01*
G01*
X140849974Y-97805487D01*
G75*
G02*
X141025474Y-97980987I0J-175500D01*
G01*
G37*
G36*
G01*
X141025474Y-96710987D02*
X141025474Y-97061987D01*
G75*
G02*
X140849974Y-97237487I-175500J0D01*
G01*
X139498974Y-97237487D01*
G75*
G02*
X139323474Y-97061987I0J175500D01*
G01*
X139323474Y-96710987D01*
G75*
G02*
X139498974Y-96535487I175500J0D01*
G01*
X140849974Y-96535487D01*
G75*
G02*
X141025474Y-96710987I0J-175500D01*
G01*
G37*
G36*
G01*
X141025474Y-95440987D02*
X141025474Y-95791987D01*
G75*
G02*
X140849974Y-95967487I-175500J0D01*
G01*
X139498974Y-95967487D01*
G75*
G02*
X139323474Y-95791987I0J175500D01*
G01*
X139323474Y-95440987D01*
G75*
G02*
X139498974Y-95265487I175500J0D01*
G01*
X140849974Y-95265487D01*
G75*
G02*
X141025474Y-95440987I0J-175500D01*
G01*
G37*
D13*
X176430726Y-86144358D03*
D14*
X172166550Y-90754868D03*
D15*
X177582993Y-89799803D03*
X166750108Y-91709933D03*
D13*
X171142026Y-84944502D03*
X194157271Y-83018691D03*
D14*
X189893095Y-87629201D03*
D15*
X195309538Y-86674136D03*
X184476653Y-88584266D03*
D13*
X188868571Y-81818835D03*
X211362861Y-76938602D03*
D14*
X207098685Y-81549112D03*
D15*
X212515128Y-80594047D03*
X201682243Y-82504177D03*
D13*
X206074161Y-75738746D03*
X229610346Y-76767359D03*
D14*
X225346170Y-81377869D03*
D15*
X230762613Y-80422804D03*
X219929728Y-82332934D03*
D13*
X224321646Y-75567503D03*
X248205125Y-78565729D03*
D14*
X243940949Y-83176239D03*
D15*
X249357392Y-82221174D03*
X238524507Y-84131304D03*
D13*
X242916425Y-77365873D03*
X265931665Y-75440061D03*
D14*
X261667489Y-80050571D03*
D15*
X267083932Y-79095506D03*
X256251047Y-81005636D03*
D13*
X260642965Y-74240205D03*
X173478713Y-69402632D03*
D14*
X169214537Y-74013142D03*
D15*
X174630980Y-73058077D03*
X163798095Y-74968207D03*
D13*
X168190013Y-68202776D03*
X191205251Y-66276964D03*
D14*
X186941075Y-70887474D03*
D15*
X192357518Y-69932409D03*
X181524633Y-71842539D03*
D13*
X185916551Y-65077108D03*
X208410847Y-60196872D03*
D14*
X204146671Y-64807382D03*
D15*
X209563114Y-63852317D03*
X198730229Y-65762447D03*
D13*
X203122147Y-58997016D03*
X226658333Y-60025630D03*
D14*
X222394157Y-64636140D03*
D15*
X227810600Y-63681075D03*
X216977715Y-65591205D03*
D13*
X221369633Y-58825774D03*
X245253111Y-61824002D03*
D14*
X240988935Y-66434512D03*
D15*
X246405378Y-65479447D03*
X235572493Y-67389577D03*
D13*
X239964411Y-60624146D03*
X262979653Y-58698332D03*
D14*
X258715477Y-63308842D03*
D15*
X264131920Y-62353777D03*
X253299035Y-64263907D03*
D13*
X257690953Y-57498476D03*
X169126689Y-122464479D03*
D14*
X164862513Y-127074989D03*
D15*
X170278956Y-126119924D03*
X159446071Y-128030054D03*
D13*
X163837989Y-121264623D03*
X186853221Y-119338809D03*
D14*
X182589045Y-123949319D03*
D15*
X188005488Y-122994254D03*
X177172603Y-124904384D03*
D13*
X181564521Y-118138953D03*
X204579763Y-116213143D03*
D14*
X200315587Y-120823653D03*
D15*
X205732030Y-119868588D03*
X194899145Y-121778718D03*
D13*
X199291063Y-115013287D03*
X27721204Y-60430926D03*
D14*
X22137302Y-63304954D03*
D15*
X27553744Y-64260019D03*
X16720859Y-62349889D03*
D13*
X23161826Y-57494588D03*
X121574168Y-124197073D03*
D14*
X115990266Y-127071101D03*
D15*
X121406708Y-128026166D03*
X110573823Y-126116036D03*
D13*
X117014790Y-121260735D03*
X103847631Y-121071406D03*
D14*
X98263729Y-123945434D03*
D15*
X103680171Y-124900499D03*
X92847286Y-122990369D03*
D13*
X99288253Y-118135068D03*
X86121088Y-117945740D03*
D14*
X80537186Y-120819768D03*
D15*
X85953628Y-121774833D03*
X75120743Y-119864703D03*
D13*
X81561710Y-115009402D03*
X114270125Y-87876958D03*
D14*
X108686223Y-90750986D03*
D15*
X114102665Y-91706051D03*
X103269780Y-89795921D03*
D13*
X109710747Y-84940620D03*
X96543585Y-84751288D03*
D14*
X90959683Y-87625316D03*
D15*
X96376125Y-88580381D03*
X85543240Y-86670251D03*
D13*
X91984207Y-81814950D03*
X79337993Y-78671200D03*
D14*
X73754091Y-81545228D03*
D15*
X79170533Y-82500293D03*
X68337648Y-80590163D03*
D13*
X74778615Y-75734862D03*
X61090507Y-78499956D03*
D14*
X55506605Y-81373984D03*
D15*
X60923047Y-82329049D03*
X50090162Y-80418919D03*
D13*
X56531129Y-75563618D03*
X42495726Y-80298325D03*
D14*
X36911824Y-83172353D03*
D15*
X42328266Y-84127418D03*
X31495381Y-82217288D03*
D13*
X37936348Y-77361987D03*
X24769188Y-77172658D03*
D14*
X19185286Y-80046686D03*
D15*
X24601728Y-81001751D03*
X13768843Y-79091621D03*
D13*
X20209810Y-74236320D03*
X117222145Y-71135223D03*
D14*
X111638243Y-74009251D03*
D15*
X117054685Y-74964316D03*
X106221800Y-73054186D03*
D13*
X112662767Y-68198885D03*
X99495607Y-68009556D03*
D14*
X93911705Y-70883584D03*
D15*
X99328147Y-71838649D03*
X88495262Y-69928519D03*
D13*
X94936229Y-65073218D03*
X82290010Y-61929467D03*
D14*
X76706108Y-64803495D03*
D15*
X82122550Y-65758560D03*
X71289665Y-63848430D03*
D13*
X77730632Y-58993129D03*
X64042525Y-61758223D03*
D14*
X58458623Y-64632251D03*
D15*
X63875065Y-65587316D03*
X53042180Y-63677186D03*
D13*
X59483147Y-58821885D03*
X45447745Y-63556596D03*
D14*
X39863843Y-66430624D03*
D15*
X45280285Y-67385689D03*
X34447400Y-65475559D03*
D13*
X40888367Y-60620258D03*
D16*
X158881901Y-116812829D03*
X158881901Y-70312829D03*
X121881901Y-70312829D03*
G36*
G01*
X145832901Y-103112829D02*
X145832901Y-108112829D01*
G75*
G02*
X145781901Y-108163829I-51000J0D01*
G01*
X145381901Y-108163829D01*
G75*
G02*
X145330901Y-108112829I0J51000D01*
G01*
X145330901Y-103112829D01*
G75*
G02*
X145381901Y-103061829I51000J0D01*
G01*
X145781901Y-103061829D01*
G75*
G02*
X145832901Y-103112829I0J-51000D01*
G01*
G37*
G36*
G01*
X145032901Y-103112829D02*
X145032901Y-108112829D01*
G75*
G02*
X144981901Y-108163829I-51000J0D01*
G01*
X144581901Y-108163829D01*
G75*
G02*
X144530901Y-108112829I0J51000D01*
G01*
X144530901Y-103112829D01*
G75*
G02*
X144581901Y-103061829I51000J0D01*
G01*
X144981901Y-103061829D01*
G75*
G02*
X145032901Y-103112829I0J-51000D01*
G01*
G37*
G36*
G01*
X144232901Y-103112829D02*
X144232901Y-108112829D01*
G75*
G02*
X144181901Y-108163829I-51000J0D01*
G01*
X143781901Y-108163829D01*
G75*
G02*
X143730901Y-108112829I0J51000D01*
G01*
X143730901Y-103112829D01*
G75*
G02*
X143781901Y-103061829I51000J0D01*
G01*
X144181901Y-103061829D01*
G75*
G02*
X144232901Y-103112829I0J-51000D01*
G01*
G37*
G36*
G01*
X143432901Y-103112829D02*
X143432901Y-108112829D01*
G75*
G02*
X143381901Y-108163829I-51000J0D01*
G01*
X142981901Y-108163829D01*
G75*
G02*
X142930901Y-108112829I0J51000D01*
G01*
X142930901Y-103112829D01*
G75*
G02*
X142981901Y-103061829I51000J0D01*
G01*
X143381901Y-103061829D01*
G75*
G02*
X143432901Y-103112829I0J-51000D01*
G01*
G37*
G36*
G01*
X142632901Y-103112829D02*
X142632901Y-108112829D01*
G75*
G02*
X142581901Y-108163829I-51000J0D01*
G01*
X142181901Y-108163829D01*
G75*
G02*
X142130901Y-108112829I0J51000D01*
G01*
X142130901Y-103112829D01*
G75*
G02*
X142181901Y-103061829I51000J0D01*
G01*
X142581901Y-103061829D01*
G75*
G02*
X142632901Y-103112829I0J-51000D01*
G01*
G37*
G36*
G01*
X141832901Y-103112829D02*
X141832901Y-108112829D01*
G75*
G02*
X141781901Y-108163829I-51000J0D01*
G01*
X141381901Y-108163829D01*
G75*
G02*
X141330901Y-108112829I0J51000D01*
G01*
X141330901Y-103112829D01*
G75*
G02*
X141381901Y-103061829I51000J0D01*
G01*
X141781901Y-103061829D01*
G75*
G02*
X141832901Y-103112829I0J-51000D01*
G01*
G37*
G36*
G01*
X141032901Y-103112829D02*
X141032901Y-108112829D01*
G75*
G02*
X140981901Y-108163829I-51000J0D01*
G01*
X140581901Y-108163829D01*
G75*
G02*
X140530901Y-108112829I0J51000D01*
G01*
X140530901Y-103112829D01*
G75*
G02*
X140581901Y-103061829I51000J0D01*
G01*
X140981901Y-103061829D01*
G75*
G02*
X141032901Y-103112829I0J-51000D01*
G01*
G37*
G36*
G01*
X140232901Y-103112829D02*
X140232901Y-108112829D01*
G75*
G02*
X140181901Y-108163829I-51000J0D01*
G01*
X139781901Y-108163829D01*
G75*
G02*
X139730901Y-108112829I0J51000D01*
G01*
X139730901Y-103112829D01*
G75*
G02*
X139781901Y-103061829I51000J0D01*
G01*
X140181901Y-103061829D01*
G75*
G02*
X140232901Y-103112829I0J-51000D01*
G01*
G37*
G36*
G01*
X139432901Y-103112829D02*
X139432901Y-108112829D01*
G75*
G02*
X139381901Y-108163829I-51000J0D01*
G01*
X138981901Y-108163829D01*
G75*
G02*
X138930901Y-108112829I0J51000D01*
G01*
X138930901Y-103112829D01*
G75*
G02*
X138981901Y-103061829I51000J0D01*
G01*
X139381901Y-103061829D01*
G75*
G02*
X139432901Y-103112829I0J-51000D01*
G01*
G37*
G36*
G01*
X138632901Y-103112829D02*
X138632901Y-108112829D01*
G75*
G02*
X138581901Y-108163829I-51000J0D01*
G01*
X138181901Y-108163829D01*
G75*
G02*
X138130901Y-108112829I0J51000D01*
G01*
X138130901Y-103112829D01*
G75*
G02*
X138181901Y-103061829I51000J0D01*
G01*
X138581901Y-103061829D01*
G75*
G02*
X138632901Y-103112829I0J-51000D01*
G01*
G37*
G36*
G01*
X137832901Y-103112829D02*
X137832901Y-108112829D01*
G75*
G02*
X137781901Y-108163829I-51000J0D01*
G01*
X137381901Y-108163829D01*
G75*
G02*
X137330901Y-108112829I0J51000D01*
G01*
X137330901Y-103112829D01*
G75*
G02*
X137381901Y-103061829I51000J0D01*
G01*
X137781901Y-103061829D01*
G75*
G02*
X137832901Y-103112829I0J-51000D01*
G01*
G37*
G36*
G01*
X137032901Y-103112829D02*
X137032901Y-108112829D01*
G75*
G02*
X136981901Y-108163829I-51000J0D01*
G01*
X136581901Y-108163829D01*
G75*
G02*
X136530901Y-108112829I0J51000D01*
G01*
X136530901Y-103112829D01*
G75*
G02*
X136581901Y-103061829I51000J0D01*
G01*
X136981901Y-103061829D01*
G75*
G02*
X137032901Y-103112829I0J-51000D01*
G01*
G37*
G36*
G01*
X136232901Y-103112829D02*
X136232901Y-108112829D01*
G75*
G02*
X136181901Y-108163829I-51000J0D01*
G01*
X135781901Y-108163829D01*
G75*
G02*
X135730901Y-108112829I0J51000D01*
G01*
X135730901Y-103112829D01*
G75*
G02*
X135781901Y-103061829I51000J0D01*
G01*
X136181901Y-103061829D01*
G75*
G02*
X136232901Y-103112829I0J-51000D01*
G01*
G37*
G36*
G01*
X135432901Y-103112829D02*
X135432901Y-108112829D01*
G75*
G02*
X135381901Y-108163829I-51000J0D01*
G01*
X134981901Y-108163829D01*
G75*
G02*
X134930901Y-108112829I0J51000D01*
G01*
X134930901Y-103112829D01*
G75*
G02*
X134981901Y-103061829I51000J0D01*
G01*
X135381901Y-103061829D01*
G75*
G02*
X135432901Y-103112829I0J-51000D01*
G01*
G37*
G36*
G01*
X145273474Y-69203237D02*
X145273474Y-68239737D01*
G75*
G02*
X145542724Y-67970487I269250J0D01*
G01*
X146081224Y-67970487D01*
G75*
G02*
X146350474Y-68239737I0J-269250D01*
G01*
X146350474Y-69203237D01*
G75*
G02*
X146081224Y-69472487I-269250J0D01*
G01*
X145542724Y-69472487D01*
G75*
G02*
X145273474Y-69203237I0J269250D01*
G01*
G37*
G36*
G01*
X143398474Y-69203237D02*
X143398474Y-68239737D01*
G75*
G02*
X143667724Y-67970487I269250J0D01*
G01*
X144206224Y-67970487D01*
G75*
G02*
X144475474Y-68239737I0J-269250D01*
G01*
X144475474Y-69203237D01*
G75*
G02*
X144206224Y-69472487I-269250J0D01*
G01*
X143667724Y-69472487D01*
G75*
G02*
X143398474Y-69203237I0J269250D01*
G01*
G37*
G36*
G01*
X150448474Y-106221988D02*
X150448474Y-105620988D01*
G75*
G02*
X150673974Y-105395488I225500J0D01*
G01*
X151124974Y-105395488D01*
G75*
G02*
X151350474Y-105620988I0J-225500D01*
G01*
X151350474Y-106221988D01*
G75*
G02*
X151124974Y-106447488I-225500J0D01*
G01*
X150673974Y-106447488D01*
G75*
G02*
X150448474Y-106221988I0J225500D01*
G01*
G37*
G36*
G01*
X148798474Y-106221988D02*
X148798474Y-105620988D01*
G75*
G02*
X149023974Y-105395488I225500J0D01*
G01*
X149474974Y-105395488D01*
G75*
G02*
X149700474Y-105620988I0J-225500D01*
G01*
X149700474Y-106221988D01*
G75*
G02*
X149474974Y-106447488I-225500J0D01*
G01*
X149023974Y-106447488D01*
G75*
G02*
X148798474Y-106221988I0J225500D01*
G01*
G37*
G36*
G01*
X150448474Y-107721988D02*
X150448474Y-107120988D01*
G75*
G02*
X150673974Y-106895488I225500J0D01*
G01*
X151124974Y-106895488D01*
G75*
G02*
X151350474Y-107120988I0J-225500D01*
G01*
X151350474Y-107721988D01*
G75*
G02*
X151124974Y-107947488I-225500J0D01*
G01*
X150673974Y-107947488D01*
G75*
G02*
X150448474Y-107721988I0J225500D01*
G01*
G37*
G36*
G01*
X148798474Y-107721988D02*
X148798474Y-107120988D01*
G75*
G02*
X149023974Y-106895488I225500J0D01*
G01*
X149474974Y-106895488D01*
G75*
G02*
X149700474Y-107120988I0J-225500D01*
G01*
X149700474Y-107721988D01*
G75*
G02*
X149474974Y-107947488I-225500J0D01*
G01*
X149023974Y-107947488D01*
G75*
G02*
X148798474Y-107721988I0J225500D01*
G01*
G37*
G36*
G01*
X150448473Y-109221987D02*
X150448473Y-108620987D01*
G75*
G02*
X150673973Y-108395487I225500J0D01*
G01*
X151124973Y-108395487D01*
G75*
G02*
X151350473Y-108620987I0J-225500D01*
G01*
X151350473Y-109221987D01*
G75*
G02*
X151124973Y-109447487I-225500J0D01*
G01*
X150673973Y-109447487D01*
G75*
G02*
X150448473Y-109221987I0J225500D01*
G01*
G37*
G36*
G01*
X148798473Y-109221987D02*
X148798473Y-108620987D01*
G75*
G02*
X149023973Y-108395487I225500J0D01*
G01*
X149474973Y-108395487D01*
G75*
G02*
X149700473Y-108620987I0J-225500D01*
G01*
X149700473Y-109221987D01*
G75*
G02*
X149474973Y-109447487I-225500J0D01*
G01*
X149023973Y-109447487D01*
G75*
G02*
X148798473Y-109221987I0J225500D01*
G01*
G37*
G36*
G01*
X150448475Y-110721988D02*
X150448475Y-110120988D01*
G75*
G02*
X150673975Y-109895488I225500J0D01*
G01*
X151124975Y-109895488D01*
G75*
G02*
X151350475Y-110120988I0J-225500D01*
G01*
X151350475Y-110721988D01*
G75*
G02*
X151124975Y-110947488I-225500J0D01*
G01*
X150673975Y-110947488D01*
G75*
G02*
X150448475Y-110721988I0J225500D01*
G01*
G37*
G36*
G01*
X148798475Y-110721988D02*
X148798475Y-110120988D01*
G75*
G02*
X149023975Y-109895488I225500J0D01*
G01*
X149474975Y-109895488D01*
G75*
G02*
X149700475Y-110120988I0J-225500D01*
G01*
X149700475Y-110721988D01*
G75*
G02*
X149474975Y-110947488I-225500J0D01*
G01*
X149023975Y-110947488D01*
G75*
G02*
X148798475Y-110721988I0J225500D01*
G01*
G37*
G36*
G01*
X126553974Y-100570489D02*
X126904974Y-100570489D01*
G75*
G02*
X127080474Y-100745989I0J-175500D01*
G01*
X127080474Y-102446989D01*
G75*
G02*
X126904974Y-102622489I-175500J0D01*
G01*
X126553974Y-102622489D01*
G75*
G02*
X126378474Y-102446989I0J175500D01*
G01*
X126378474Y-100745989D01*
G75*
G02*
X126553974Y-100570489I175500J0D01*
G01*
G37*
G36*
G01*
X127823974Y-100570489D02*
X128174974Y-100570489D01*
G75*
G02*
X128350474Y-100745989I0J-175500D01*
G01*
X128350474Y-102446989D01*
G75*
G02*
X128174974Y-102622489I-175500J0D01*
G01*
X127823974Y-102622489D01*
G75*
G02*
X127648474Y-102446989I0J175500D01*
G01*
X127648474Y-100745989D01*
G75*
G02*
X127823974Y-100570489I175500J0D01*
G01*
G37*
G36*
G01*
X129093974Y-100570489D02*
X129444974Y-100570489D01*
G75*
G02*
X129620474Y-100745989I0J-175500D01*
G01*
X129620474Y-102446989D01*
G75*
G02*
X129444974Y-102622489I-175500J0D01*
G01*
X129093974Y-102622489D01*
G75*
G02*
X128918474Y-102446989I0J175500D01*
G01*
X128918474Y-100745989D01*
G75*
G02*
X129093974Y-100570489I175500J0D01*
G01*
G37*
G36*
G01*
X130363974Y-100570489D02*
X130714974Y-100570489D01*
G75*
G02*
X130890474Y-100745989I0J-175500D01*
G01*
X130890474Y-102446989D01*
G75*
G02*
X130714974Y-102622489I-175500J0D01*
G01*
X130363974Y-102622489D01*
G75*
G02*
X130188474Y-102446989I0J175500D01*
G01*
X130188474Y-100745989D01*
G75*
G02*
X130363974Y-100570489I175500J0D01*
G01*
G37*
G36*
G01*
X131633974Y-100570489D02*
X131984974Y-100570489D01*
G75*
G02*
X132160474Y-100745989I0J-175500D01*
G01*
X132160474Y-102446989D01*
G75*
G02*
X131984974Y-102622489I-175500J0D01*
G01*
X131633974Y-102622489D01*
G75*
G02*
X131458474Y-102446989I0J175500D01*
G01*
X131458474Y-100745989D01*
G75*
G02*
X131633974Y-100570489I175500J0D01*
G01*
G37*
G36*
G01*
X132903974Y-100570489D02*
X133254974Y-100570489D01*
G75*
G02*
X133430474Y-100745989I0J-175500D01*
G01*
X133430474Y-102446989D01*
G75*
G02*
X133254974Y-102622489I-175500J0D01*
G01*
X132903974Y-102622489D01*
G75*
G02*
X132728474Y-102446989I0J175500D01*
G01*
X132728474Y-100745989D01*
G75*
G02*
X132903974Y-100570489I175500J0D01*
G01*
G37*
G36*
G01*
X134173974Y-100570489D02*
X134524974Y-100570489D01*
G75*
G02*
X134700474Y-100745989I0J-175500D01*
G01*
X134700474Y-102446989D01*
G75*
G02*
X134524974Y-102622489I-175500J0D01*
G01*
X134173974Y-102622489D01*
G75*
G02*
X133998474Y-102446989I0J175500D01*
G01*
X133998474Y-100745989D01*
G75*
G02*
X134173974Y-100570489I175500J0D01*
G01*
G37*
G36*
G01*
X135443974Y-100570489D02*
X135794974Y-100570489D01*
G75*
G02*
X135970474Y-100745989I0J-175500D01*
G01*
X135970474Y-102446989D01*
G75*
G02*
X135794974Y-102622489I-175500J0D01*
G01*
X135443974Y-102622489D01*
G75*
G02*
X135268474Y-102446989I0J175500D01*
G01*
X135268474Y-100745989D01*
G75*
G02*
X135443974Y-100570489I175500J0D01*
G01*
G37*
G36*
G01*
X135443974Y-95620489D02*
X135794974Y-95620489D01*
G75*
G02*
X135970474Y-95795989I0J-175500D01*
G01*
X135970474Y-97496989D01*
G75*
G02*
X135794974Y-97672489I-175500J0D01*
G01*
X135443974Y-97672489D01*
G75*
G02*
X135268474Y-97496989I0J175500D01*
G01*
X135268474Y-95795989D01*
G75*
G02*
X135443974Y-95620489I175500J0D01*
G01*
G37*
G36*
G01*
X134173974Y-95620489D02*
X134524974Y-95620489D01*
G75*
G02*
X134700474Y-95795989I0J-175500D01*
G01*
X134700474Y-97496989D01*
G75*
G02*
X134524974Y-97672489I-175500J0D01*
G01*
X134173974Y-97672489D01*
G75*
G02*
X133998474Y-97496989I0J175500D01*
G01*
X133998474Y-95795989D01*
G75*
G02*
X134173974Y-95620489I175500J0D01*
G01*
G37*
G36*
G01*
X132903974Y-95620489D02*
X133254974Y-95620489D01*
G75*
G02*
X133430474Y-95795989I0J-175500D01*
G01*
X133430474Y-97496989D01*
G75*
G02*
X133254974Y-97672489I-175500J0D01*
G01*
X132903974Y-97672489D01*
G75*
G02*
X132728474Y-97496989I0J175500D01*
G01*
X132728474Y-95795989D01*
G75*
G02*
X132903974Y-95620489I175500J0D01*
G01*
G37*
G36*
G01*
X131633974Y-95620489D02*
X131984974Y-95620489D01*
G75*
G02*
X132160474Y-95795989I0J-175500D01*
G01*
X132160474Y-97496989D01*
G75*
G02*
X131984974Y-97672489I-175500J0D01*
G01*
X131633974Y-97672489D01*
G75*
G02*
X131458474Y-97496989I0J175500D01*
G01*
X131458474Y-95795989D01*
G75*
G02*
X131633974Y-95620489I175500J0D01*
G01*
G37*
G36*
G01*
X130363974Y-95620489D02*
X130714974Y-95620489D01*
G75*
G02*
X130890474Y-95795989I0J-175500D01*
G01*
X130890474Y-97496989D01*
G75*
G02*
X130714974Y-97672489I-175500J0D01*
G01*
X130363974Y-97672489D01*
G75*
G02*
X130188474Y-97496989I0J175500D01*
G01*
X130188474Y-95795989D01*
G75*
G02*
X130363974Y-95620489I175500J0D01*
G01*
G37*
G36*
G01*
X129093974Y-95620489D02*
X129444974Y-95620489D01*
G75*
G02*
X129620474Y-95795989I0J-175500D01*
G01*
X129620474Y-97496989D01*
G75*
G02*
X129444974Y-97672489I-175500J0D01*
G01*
X129093974Y-97672489D01*
G75*
G02*
X128918474Y-97496989I0J175500D01*
G01*
X128918474Y-95795989D01*
G75*
G02*
X129093974Y-95620489I175500J0D01*
G01*
G37*
G36*
G01*
X127823974Y-95620489D02*
X128174974Y-95620489D01*
G75*
G02*
X128350474Y-95795989I0J-175500D01*
G01*
X128350474Y-97496989D01*
G75*
G02*
X128174974Y-97672489I-175500J0D01*
G01*
X127823974Y-97672489D01*
G75*
G02*
X127648474Y-97496989I0J175500D01*
G01*
X127648474Y-95795989D01*
G75*
G02*
X127823974Y-95620489I175500J0D01*
G01*
G37*
G36*
G01*
X126553974Y-95620489D02*
X126904974Y-95620489D01*
G75*
G02*
X127080474Y-95795989I0J-175500D01*
G01*
X127080474Y-97496989D01*
G75*
G02*
X126904974Y-97672489I-175500J0D01*
G01*
X126553974Y-97672489D01*
G75*
G02*
X126378474Y-97496989I0J175500D01*
G01*
X126378474Y-95795989D01*
G75*
G02*
X126553974Y-95620489I175500J0D01*
G01*
G37*
G36*
G01*
X142047406Y-69775988D02*
X141483906Y-69775988D01*
G75*
G02*
X141239656Y-69531738I0J244250D01*
G01*
X141239656Y-69043238D01*
G75*
G02*
X141483906Y-68798988I244250J0D01*
G01*
X142047406Y-68798988D01*
G75*
G02*
X142291656Y-69043238I0J-244250D01*
G01*
X142291656Y-69531738D01*
G75*
G02*
X142047406Y-69775988I-244250J0D01*
G01*
G37*
G36*
G01*
X142047406Y-71350988D02*
X141483906Y-71350988D01*
G75*
G02*
X141239656Y-71106738I0J244250D01*
G01*
X141239656Y-70618238D01*
G75*
G02*
X141483906Y-70373988I244250J0D01*
G01*
X142047406Y-70373988D01*
G75*
G02*
X142291656Y-70618238I0J-244250D01*
G01*
X142291656Y-71106738D01*
G75*
G02*
X142047406Y-71350988I-244250J0D01*
G01*
G37*
G36*
G01*
X135750599Y-73272488D02*
X134798349Y-73272488D01*
G75*
G02*
X134523474Y-72997613I0J274875D01*
G01*
X134523474Y-72420363D01*
G75*
G02*
X134798349Y-72145488I274875J0D01*
G01*
X135750599Y-72145488D01*
G75*
G02*
X136025474Y-72420363I0J-274875D01*
G01*
X136025474Y-72997613D01*
G75*
G02*
X135750599Y-73272488I-274875J0D01*
G01*
G37*
G36*
G01*
X135750599Y-75097488D02*
X134798349Y-75097488D01*
G75*
G02*
X134523474Y-74822613I0J274875D01*
G01*
X134523474Y-74245363D01*
G75*
G02*
X134798349Y-73970488I274875J0D01*
G01*
X135750599Y-73970488D01*
G75*
G02*
X136025474Y-74245363I0J-274875D01*
G01*
X136025474Y-74822613D01*
G75*
G02*
X135750599Y-75097488I-274875J0D01*
G01*
G37*
G36*
G01*
X133492724Y-82420488D02*
X134056224Y-82420488D01*
G75*
G02*
X134300474Y-82664738I0J-244250D01*
G01*
X134300474Y-83153238D01*
G75*
G02*
X134056224Y-83397488I-244250J0D01*
G01*
X133492724Y-83397488D01*
G75*
G02*
X133248474Y-83153238I0J244250D01*
G01*
X133248474Y-82664738D01*
G75*
G02*
X133492724Y-82420488I244250J0D01*
G01*
G37*
G36*
G01*
X133492724Y-80845488D02*
X134056224Y-80845488D01*
G75*
G02*
X134300474Y-81089738I0J-244250D01*
G01*
X134300474Y-81578238D01*
G75*
G02*
X134056224Y-81822488I-244250J0D01*
G01*
X133492724Y-81822488D01*
G75*
G02*
X133248474Y-81578238I0J244250D01*
G01*
X133248474Y-81089738D01*
G75*
G02*
X133492724Y-80845488I244250J0D01*
G01*
G37*
G36*
G01*
X146982900Y-86339738D02*
X146982900Y-86903238D01*
G75*
G02*
X146738650Y-87147488I-244250J0D01*
G01*
X146250150Y-87147488D01*
G75*
G02*
X146005900Y-86903238I0J244250D01*
G01*
X146005900Y-86339738D01*
G75*
G02*
X146250150Y-86095488I244250J0D01*
G01*
X146738650Y-86095488D01*
G75*
G02*
X146982900Y-86339738I0J-244250D01*
G01*
G37*
G36*
G01*
X148557900Y-86339738D02*
X148557900Y-86903238D01*
G75*
G02*
X148313650Y-87147488I-244250J0D01*
G01*
X147825150Y-87147488D01*
G75*
G02*
X147580900Y-86903238I0J244250D01*
G01*
X147580900Y-86339738D01*
G75*
G02*
X147825150Y-86095488I244250J0D01*
G01*
X148313650Y-86095488D01*
G75*
G02*
X148557900Y-86339738I0J-244250D01*
G01*
G37*
G36*
G01*
X134056222Y-78312754D02*
X133092722Y-78312754D01*
G75*
G02*
X132823472Y-78043504I0J269250D01*
G01*
X132823472Y-77505004D01*
G75*
G02*
X133092722Y-77235754I269250J0D01*
G01*
X134056222Y-77235754D01*
G75*
G02*
X134325472Y-77505004I0J-269250D01*
G01*
X134325472Y-78043504D01*
G75*
G02*
X134056222Y-78312754I-269250J0D01*
G01*
G37*
G36*
G01*
X134056222Y-80187754D02*
X133092722Y-80187754D01*
G75*
G02*
X132823472Y-79918504I0J269250D01*
G01*
X132823472Y-79380004D01*
G75*
G02*
X133092722Y-79110754I269250J0D01*
G01*
X134056222Y-79110754D01*
G75*
G02*
X134325472Y-79380004I0J-269250D01*
G01*
X134325472Y-79918504D01*
G75*
G02*
X134056222Y-80187754I-269250J0D01*
G01*
G37*
G36*
G01*
X138456224Y-95922488D02*
X137492724Y-95922488D01*
G75*
G02*
X137223474Y-95653238I0J269250D01*
G01*
X137223474Y-95114738D01*
G75*
G02*
X137492724Y-94845488I269250J0D01*
G01*
X138456224Y-94845488D01*
G75*
G02*
X138725474Y-95114738I0J-269250D01*
G01*
X138725474Y-95653238D01*
G75*
G02*
X138456224Y-95922488I-269250J0D01*
G01*
G37*
G36*
G01*
X138456224Y-97797488D02*
X137492724Y-97797488D01*
G75*
G02*
X137223474Y-97528238I0J269250D01*
G01*
X137223474Y-96989738D01*
G75*
G02*
X137492724Y-96720488I269250J0D01*
G01*
X138456224Y-96720488D01*
G75*
G02*
X138725474Y-96989738I0J-269250D01*
G01*
X138725474Y-97528238D01*
G75*
G02*
X138456224Y-97797488I-269250J0D01*
G01*
G37*
G36*
G01*
X130973472Y-78103239D02*
X130973472Y-77139739D01*
G75*
G02*
X131242722Y-76870489I269250J0D01*
G01*
X131781222Y-76870489D01*
G75*
G02*
X132050472Y-77139739I0J-269250D01*
G01*
X132050472Y-78103239D01*
G75*
G02*
X131781222Y-78372489I-269250J0D01*
G01*
X131242722Y-78372489D01*
G75*
G02*
X130973472Y-78103239I0J269250D01*
G01*
G37*
G36*
G01*
X129098472Y-78103239D02*
X129098472Y-77139739D01*
G75*
G02*
X129367722Y-76870489I269250J0D01*
G01*
X129906222Y-76870489D01*
G75*
G02*
X130175472Y-77139739I0J-269250D01*
G01*
X130175472Y-78103239D01*
G75*
G02*
X129906222Y-78372489I-269250J0D01*
G01*
X129367722Y-78372489D01*
G75*
G02*
X129098472Y-78103239I0J269250D01*
G01*
G37*
G36*
G01*
X128056225Y-80122488D02*
X127092725Y-80122488D01*
G75*
G02*
X126823475Y-79853238I0J269250D01*
G01*
X126823475Y-79314738D01*
G75*
G02*
X127092725Y-79045488I269250J0D01*
G01*
X128056225Y-79045488D01*
G75*
G02*
X128325475Y-79314738I0J-269250D01*
G01*
X128325475Y-79853238D01*
G75*
G02*
X128056225Y-80122488I-269250J0D01*
G01*
G37*
G36*
G01*
X128056225Y-81997488D02*
X127092725Y-81997488D01*
G75*
G02*
X126823475Y-81728238I0J269250D01*
G01*
X126823475Y-81189738D01*
G75*
G02*
X127092725Y-80920488I269250J0D01*
G01*
X128056225Y-80920488D01*
G75*
G02*
X128325475Y-81189738I0J-269250D01*
G01*
X128325475Y-81728238D01*
G75*
G02*
X128056225Y-81997488I-269250J0D01*
G01*
G37*
G36*
G01*
X151556224Y-75822488D02*
X150992724Y-75822488D01*
G75*
G02*
X150748474Y-75578238I0J244250D01*
G01*
X150748474Y-75089738D01*
G75*
G02*
X150992724Y-74845488I244250J0D01*
G01*
X151556224Y-74845488D01*
G75*
G02*
X151800474Y-75089738I0J-244250D01*
G01*
X151800474Y-75578238D01*
G75*
G02*
X151556224Y-75822488I-244250J0D01*
G01*
G37*
G36*
G01*
X151556224Y-77397488D02*
X150992724Y-77397488D01*
G75*
G02*
X150748474Y-77153238I0J244250D01*
G01*
X150748474Y-76664738D01*
G75*
G02*
X150992724Y-76420488I244250J0D01*
G01*
X151556224Y-76420488D01*
G75*
G02*
X151800474Y-76664738I0J-244250D01*
G01*
X151800474Y-77153238D01*
G75*
G02*
X151556224Y-77397488I-244250J0D01*
G01*
G37*
G36*
G01*
X155375474Y-74839737D02*
X155375474Y-75403237D01*
G75*
G02*
X155131224Y-75647487I-244250J0D01*
G01*
X154642724Y-75647487D01*
G75*
G02*
X154398474Y-75403237I0J244250D01*
G01*
X154398474Y-74839737D01*
G75*
G02*
X154642724Y-74595487I244250J0D01*
G01*
X155131224Y-74595487D01*
G75*
G02*
X155375474Y-74839737I0J-244250D01*
G01*
G37*
G36*
G01*
X156950474Y-74839737D02*
X156950474Y-75403237D01*
G75*
G02*
X156706224Y-75647487I-244250J0D01*
G01*
X156217724Y-75647487D01*
G75*
G02*
X155973474Y-75403237I0J244250D01*
G01*
X155973474Y-74839737D01*
G75*
G02*
X156217724Y-74595487I244250J0D01*
G01*
X156706224Y-74595487D01*
G75*
G02*
X156950474Y-74839737I0J-244250D01*
G01*
G37*
G36*
G01*
X155973472Y-81403237D02*
X155973472Y-80839737D01*
G75*
G02*
X156217722Y-80595487I244250J0D01*
G01*
X156706222Y-80595487D01*
G75*
G02*
X156950472Y-80839737I0J-244250D01*
G01*
X156950472Y-81403237D01*
G75*
G02*
X156706222Y-81647487I-244250J0D01*
G01*
X156217722Y-81647487D01*
G75*
G02*
X155973472Y-81403237I0J244250D01*
G01*
G37*
G36*
G01*
X154398472Y-81403237D02*
X154398472Y-80839737D01*
G75*
G02*
X154642722Y-80595487I244250J0D01*
G01*
X155131222Y-80595487D01*
G75*
G02*
X155375472Y-80839737I0J-244250D01*
G01*
X155375472Y-81403237D01*
G75*
G02*
X155131222Y-81647487I-244250J0D01*
G01*
X154642722Y-81647487D01*
G75*
G02*
X154398472Y-81403237I0J244250D01*
G01*
G37*
G36*
G01*
X131073473Y-81021486D02*
X131073473Y-80221486D01*
G75*
G02*
X131124473Y-80170486I51000J0D01*
G01*
X132024473Y-80170486D01*
G75*
G02*
X132075473Y-80221486I0J-51000D01*
G01*
X132075473Y-81021486D01*
G75*
G02*
X132024473Y-81072486I-51000J0D01*
G01*
X131124473Y-81072486D01*
G75*
G02*
X131073473Y-81021486I0J51000D01*
G01*
G37*
G36*
G01*
X129073473Y-80071486D02*
X129073473Y-79271486D01*
G75*
G02*
X129124473Y-79220486I51000J0D01*
G01*
X130024473Y-79220486D01*
G75*
G02*
X130075473Y-79271486I0J-51000D01*
G01*
X130075473Y-80071486D01*
G75*
G02*
X130024473Y-80122486I-51000J0D01*
G01*
X129124473Y-80122486D01*
G75*
G02*
X129073473Y-80071486I0J51000D01*
G01*
G37*
G36*
G01*
X129073473Y-81971486D02*
X129073473Y-81171486D01*
G75*
G02*
X129124473Y-81120486I51000J0D01*
G01*
X130024473Y-81120486D01*
G75*
G02*
X130075473Y-81171486I0J-51000D01*
G01*
X130075473Y-81971486D01*
G75*
G02*
X130024473Y-82022486I-51000J0D01*
G01*
X129124473Y-82022486D01*
G75*
G02*
X129073473Y-81971486I0J51000D01*
G01*
G37*
G36*
G01*
X138175474Y-74346487D02*
X138175474Y-74896487D01*
G75*
G02*
X138124474Y-74947487I-51000J0D01*
G01*
X136624474Y-74947487D01*
G75*
G02*
X136573474Y-74896487I0J51000D01*
G01*
X136573474Y-74346487D01*
G75*
G02*
X136624474Y-74295487I51000J0D01*
G01*
X138124474Y-74295487D01*
G75*
G02*
X138175474Y-74346487I0J-51000D01*
G01*
G37*
G36*
G01*
X138175474Y-75146487D02*
X138175474Y-75696487D01*
G75*
G02*
X138124474Y-75747487I-51000J0D01*
G01*
X136624474Y-75747487D01*
G75*
G02*
X136573474Y-75696487I0J51000D01*
G01*
X136573474Y-75146487D01*
G75*
G02*
X136624474Y-75095487I51000J0D01*
G01*
X138124474Y-75095487D01*
G75*
G02*
X138175474Y-75146487I0J-51000D01*
G01*
G37*
G36*
G01*
X138175474Y-75946487D02*
X138175474Y-76496487D01*
G75*
G02*
X138124474Y-76547487I-51000J0D01*
G01*
X136624474Y-76547487D01*
G75*
G02*
X136573474Y-76496487I0J51000D01*
G01*
X136573474Y-75946487D01*
G75*
G02*
X136624474Y-75895487I51000J0D01*
G01*
X138124474Y-75895487D01*
G75*
G02*
X138175474Y-75946487I0J-51000D01*
G01*
G37*
G36*
G01*
X138175474Y-76746487D02*
X138175474Y-77296487D01*
G75*
G02*
X138124474Y-77347487I-51000J0D01*
G01*
X136624474Y-77347487D01*
G75*
G02*
X136573474Y-77296487I0J51000D01*
G01*
X136573474Y-76746487D01*
G75*
G02*
X136624474Y-76695487I51000J0D01*
G01*
X138124474Y-76695487D01*
G75*
G02*
X138175474Y-76746487I0J-51000D01*
G01*
G37*
G36*
G01*
X138175474Y-77546487D02*
X138175474Y-78096487D01*
G75*
G02*
X138124474Y-78147487I-51000J0D01*
G01*
X136624474Y-78147487D01*
G75*
G02*
X136573474Y-78096487I0J51000D01*
G01*
X136573474Y-77546487D01*
G75*
G02*
X136624474Y-77495487I51000J0D01*
G01*
X138124474Y-77495487D01*
G75*
G02*
X138175474Y-77546487I0J-51000D01*
G01*
G37*
G36*
G01*
X138175474Y-78346487D02*
X138175474Y-78896487D01*
G75*
G02*
X138124474Y-78947487I-51000J0D01*
G01*
X136624474Y-78947487D01*
G75*
G02*
X136573474Y-78896487I0J51000D01*
G01*
X136573474Y-78346487D01*
G75*
G02*
X136624474Y-78295487I51000J0D01*
G01*
X138124474Y-78295487D01*
G75*
G02*
X138175474Y-78346487I0J-51000D01*
G01*
G37*
G36*
G01*
X138175474Y-79146487D02*
X138175474Y-79696487D01*
G75*
G02*
X138124474Y-79747487I-51000J0D01*
G01*
X136624474Y-79747487D01*
G75*
G02*
X136573474Y-79696487I0J51000D01*
G01*
X136573474Y-79146487D01*
G75*
G02*
X136624474Y-79095487I51000J0D01*
G01*
X138124474Y-79095487D01*
G75*
G02*
X138175474Y-79146487I0J-51000D01*
G01*
G37*
G36*
G01*
X138175474Y-79946487D02*
X138175474Y-80496487D01*
G75*
G02*
X138124474Y-80547487I-51000J0D01*
G01*
X136624474Y-80547487D01*
G75*
G02*
X136573474Y-80496487I0J51000D01*
G01*
X136573474Y-79946487D01*
G75*
G02*
X136624474Y-79895487I51000J0D01*
G01*
X138124474Y-79895487D01*
G75*
G02*
X138175474Y-79946487I0J-51000D01*
G01*
G37*
G36*
G01*
X138175474Y-80746487D02*
X138175474Y-81296487D01*
G75*
G02*
X138124474Y-81347487I-51000J0D01*
G01*
X136624474Y-81347487D01*
G75*
G02*
X136573474Y-81296487I0J51000D01*
G01*
X136573474Y-80746487D01*
G75*
G02*
X136624474Y-80695487I51000J0D01*
G01*
X138124474Y-80695487D01*
G75*
G02*
X138175474Y-80746487I0J-51000D01*
G01*
G37*
G36*
G01*
X138175474Y-81546487D02*
X138175474Y-82096487D01*
G75*
G02*
X138124474Y-82147487I-51000J0D01*
G01*
X136624474Y-82147487D01*
G75*
G02*
X136573474Y-82096487I0J51000D01*
G01*
X136573474Y-81546487D01*
G75*
G02*
X136624474Y-81495487I51000J0D01*
G01*
X138124474Y-81495487D01*
G75*
G02*
X138175474Y-81546487I0J-51000D01*
G01*
G37*
G36*
G01*
X138175474Y-82346487D02*
X138175474Y-82896487D01*
G75*
G02*
X138124474Y-82947487I-51000J0D01*
G01*
X136624474Y-82947487D01*
G75*
G02*
X136573474Y-82896487I0J51000D01*
G01*
X136573474Y-82346487D01*
G75*
G02*
X136624474Y-82295487I51000J0D01*
G01*
X138124474Y-82295487D01*
G75*
G02*
X138175474Y-82346487I0J-51000D01*
G01*
G37*
G36*
G01*
X138799474Y-83520487D02*
X139349474Y-83520487D01*
G75*
G02*
X139400474Y-83571487I0J-51000D01*
G01*
X139400474Y-85071487D01*
G75*
G02*
X139349474Y-85122487I-51000J0D01*
G01*
X138799474Y-85122487D01*
G75*
G02*
X138748474Y-85071487I0J51000D01*
G01*
X138748474Y-83571487D01*
G75*
G02*
X138799474Y-83520487I51000J0D01*
G01*
G37*
G36*
G01*
X139599474Y-83520487D02*
X140149474Y-83520487D01*
G75*
G02*
X140200474Y-83571487I0J-51000D01*
G01*
X140200474Y-85071487D01*
G75*
G02*
X140149474Y-85122487I-51000J0D01*
G01*
X139599474Y-85122487D01*
G75*
G02*
X139548474Y-85071487I0J51000D01*
G01*
X139548474Y-83571487D01*
G75*
G02*
X139599474Y-83520487I51000J0D01*
G01*
G37*
G36*
G01*
X140399474Y-83520487D02*
X140949474Y-83520487D01*
G75*
G02*
X141000474Y-83571487I0J-51000D01*
G01*
X141000474Y-85071487D01*
G75*
G02*
X140949474Y-85122487I-51000J0D01*
G01*
X140399474Y-85122487D01*
G75*
G02*
X140348474Y-85071487I0J51000D01*
G01*
X140348474Y-83571487D01*
G75*
G02*
X140399474Y-83520487I51000J0D01*
G01*
G37*
G36*
G01*
X141199474Y-83520487D02*
X141749474Y-83520487D01*
G75*
G02*
X141800474Y-83571487I0J-51000D01*
G01*
X141800474Y-85071487D01*
G75*
G02*
X141749474Y-85122487I-51000J0D01*
G01*
X141199474Y-85122487D01*
G75*
G02*
X141148474Y-85071487I0J51000D01*
G01*
X141148474Y-83571487D01*
G75*
G02*
X141199474Y-83520487I51000J0D01*
G01*
G37*
G36*
G01*
X141999474Y-83520487D02*
X142549474Y-83520487D01*
G75*
G02*
X142600474Y-83571487I0J-51000D01*
G01*
X142600474Y-85071487D01*
G75*
G02*
X142549474Y-85122487I-51000J0D01*
G01*
X141999474Y-85122487D01*
G75*
G02*
X141948474Y-85071487I0J51000D01*
G01*
X141948474Y-83571487D01*
G75*
G02*
X141999474Y-83520487I51000J0D01*
G01*
G37*
G36*
G01*
X142799474Y-83520487D02*
X143349474Y-83520487D01*
G75*
G02*
X143400474Y-83571487I0J-51000D01*
G01*
X143400474Y-85071487D01*
G75*
G02*
X143349474Y-85122487I-51000J0D01*
G01*
X142799474Y-85122487D01*
G75*
G02*
X142748474Y-85071487I0J51000D01*
G01*
X142748474Y-83571487D01*
G75*
G02*
X142799474Y-83520487I51000J0D01*
G01*
G37*
G36*
G01*
X143599474Y-83520487D02*
X144149474Y-83520487D01*
G75*
G02*
X144200474Y-83571487I0J-51000D01*
G01*
X144200474Y-85071487D01*
G75*
G02*
X144149474Y-85122487I-51000J0D01*
G01*
X143599474Y-85122487D01*
G75*
G02*
X143548474Y-85071487I0J51000D01*
G01*
X143548474Y-83571487D01*
G75*
G02*
X143599474Y-83520487I51000J0D01*
G01*
G37*
G36*
G01*
X144399474Y-83520487D02*
X144949474Y-83520487D01*
G75*
G02*
X145000474Y-83571487I0J-51000D01*
G01*
X145000474Y-85071487D01*
G75*
G02*
X144949474Y-85122487I-51000J0D01*
G01*
X144399474Y-85122487D01*
G75*
G02*
X144348474Y-85071487I0J51000D01*
G01*
X144348474Y-83571487D01*
G75*
G02*
X144399474Y-83520487I51000J0D01*
G01*
G37*
G36*
G01*
X145199474Y-83520487D02*
X145749474Y-83520487D01*
G75*
G02*
X145800474Y-83571487I0J-51000D01*
G01*
X145800474Y-85071487D01*
G75*
G02*
X145749474Y-85122487I-51000J0D01*
G01*
X145199474Y-85122487D01*
G75*
G02*
X145148474Y-85071487I0J51000D01*
G01*
X145148474Y-83571487D01*
G75*
G02*
X145199474Y-83520487I51000J0D01*
G01*
G37*
G36*
G01*
X145999474Y-83520487D02*
X146549474Y-83520487D01*
G75*
G02*
X146600474Y-83571487I0J-51000D01*
G01*
X146600474Y-85071487D01*
G75*
G02*
X146549474Y-85122487I-51000J0D01*
G01*
X145999474Y-85122487D01*
G75*
G02*
X145948474Y-85071487I0J51000D01*
G01*
X145948474Y-83571487D01*
G75*
G02*
X145999474Y-83520487I51000J0D01*
G01*
G37*
G36*
G01*
X146799474Y-83520487D02*
X147349474Y-83520487D01*
G75*
G02*
X147400474Y-83571487I0J-51000D01*
G01*
X147400474Y-85071487D01*
G75*
G02*
X147349474Y-85122487I-51000J0D01*
G01*
X146799474Y-85122487D01*
G75*
G02*
X146748474Y-85071487I0J51000D01*
G01*
X146748474Y-83571487D01*
G75*
G02*
X146799474Y-83520487I51000J0D01*
G01*
G37*
G36*
G01*
X149575474Y-82346487D02*
X149575474Y-82896487D01*
G75*
G02*
X149524474Y-82947487I-51000J0D01*
G01*
X148024474Y-82947487D01*
G75*
G02*
X147973474Y-82896487I0J51000D01*
G01*
X147973474Y-82346487D01*
G75*
G02*
X148024474Y-82295487I51000J0D01*
G01*
X149524474Y-82295487D01*
G75*
G02*
X149575474Y-82346487I0J-51000D01*
G01*
G37*
G36*
G01*
X149575474Y-81546487D02*
X149575474Y-82096487D01*
G75*
G02*
X149524474Y-82147487I-51000J0D01*
G01*
X148024474Y-82147487D01*
G75*
G02*
X147973474Y-82096487I0J51000D01*
G01*
X147973474Y-81546487D01*
G75*
G02*
X148024474Y-81495487I51000J0D01*
G01*
X149524474Y-81495487D01*
G75*
G02*
X149575474Y-81546487I0J-51000D01*
G01*
G37*
G36*
G01*
X149575474Y-80746487D02*
X149575474Y-81296487D01*
G75*
G02*
X149524474Y-81347487I-51000J0D01*
G01*
X148024474Y-81347487D01*
G75*
G02*
X147973474Y-81296487I0J51000D01*
G01*
X147973474Y-80746487D01*
G75*
G02*
X148024474Y-80695487I51000J0D01*
G01*
X149524474Y-80695487D01*
G75*
G02*
X149575474Y-80746487I0J-51000D01*
G01*
G37*
G36*
G01*
X149575474Y-79946487D02*
X149575474Y-80496487D01*
G75*
G02*
X149524474Y-80547487I-51000J0D01*
G01*
X148024474Y-80547487D01*
G75*
G02*
X147973474Y-80496487I0J51000D01*
G01*
X147973474Y-79946487D01*
G75*
G02*
X148024474Y-79895487I51000J0D01*
G01*
X149524474Y-79895487D01*
G75*
G02*
X149575474Y-79946487I0J-51000D01*
G01*
G37*
G36*
G01*
X149575474Y-79146487D02*
X149575474Y-79696487D01*
G75*
G02*
X149524474Y-79747487I-51000J0D01*
G01*
X148024474Y-79747487D01*
G75*
G02*
X147973474Y-79696487I0J51000D01*
G01*
X147973474Y-79146487D01*
G75*
G02*
X148024474Y-79095487I51000J0D01*
G01*
X149524474Y-79095487D01*
G75*
G02*
X149575474Y-79146487I0J-51000D01*
G01*
G37*
G36*
G01*
X149575474Y-78346487D02*
X149575474Y-78896487D01*
G75*
G02*
X149524474Y-78947487I-51000J0D01*
G01*
X148024474Y-78947487D01*
G75*
G02*
X147973474Y-78896487I0J51000D01*
G01*
X147973474Y-78346487D01*
G75*
G02*
X148024474Y-78295487I51000J0D01*
G01*
X149524474Y-78295487D01*
G75*
G02*
X149575474Y-78346487I0J-51000D01*
G01*
G37*
G36*
G01*
X149575474Y-77546487D02*
X149575474Y-78096487D01*
G75*
G02*
X149524474Y-78147487I-51000J0D01*
G01*
X148024474Y-78147487D01*
G75*
G02*
X147973474Y-78096487I0J51000D01*
G01*
X147973474Y-77546487D01*
G75*
G02*
X148024474Y-77495487I51000J0D01*
G01*
X149524474Y-77495487D01*
G75*
G02*
X149575474Y-77546487I0J-51000D01*
G01*
G37*
G36*
G01*
X149575474Y-76746487D02*
X149575474Y-77296487D01*
G75*
G02*
X149524474Y-77347487I-51000J0D01*
G01*
X148024474Y-77347487D01*
G75*
G02*
X147973474Y-77296487I0J51000D01*
G01*
X147973474Y-76746487D01*
G75*
G02*
X148024474Y-76695487I51000J0D01*
G01*
X149524474Y-76695487D01*
G75*
G02*
X149575474Y-76746487I0J-51000D01*
G01*
G37*
G36*
G01*
X149575474Y-75946487D02*
X149575474Y-76496487D01*
G75*
G02*
X149524474Y-76547487I-51000J0D01*
G01*
X148024474Y-76547487D01*
G75*
G02*
X147973474Y-76496487I0J51000D01*
G01*
X147973474Y-75946487D01*
G75*
G02*
X148024474Y-75895487I51000J0D01*
G01*
X149524474Y-75895487D01*
G75*
G02*
X149575474Y-75946487I0J-51000D01*
G01*
G37*
G36*
G01*
X149575474Y-75146487D02*
X149575474Y-75696487D01*
G75*
G02*
X149524474Y-75747487I-51000J0D01*
G01*
X148024474Y-75747487D01*
G75*
G02*
X147973474Y-75696487I0J51000D01*
G01*
X147973474Y-75146487D01*
G75*
G02*
X148024474Y-75095487I51000J0D01*
G01*
X149524474Y-75095487D01*
G75*
G02*
X149575474Y-75146487I0J-51000D01*
G01*
G37*
G36*
G01*
X149575474Y-74346487D02*
X149575474Y-74896487D01*
G75*
G02*
X149524474Y-74947487I-51000J0D01*
G01*
X148024474Y-74947487D01*
G75*
G02*
X147973474Y-74896487I0J51000D01*
G01*
X147973474Y-74346487D01*
G75*
G02*
X148024474Y-74295487I51000J0D01*
G01*
X149524474Y-74295487D01*
G75*
G02*
X149575474Y-74346487I0J-51000D01*
G01*
G37*
G36*
G01*
X146799474Y-72120487D02*
X147349474Y-72120487D01*
G75*
G02*
X147400474Y-72171487I0J-51000D01*
G01*
X147400474Y-73671487D01*
G75*
G02*
X147349474Y-73722487I-51000J0D01*
G01*
X146799474Y-73722487D01*
G75*
G02*
X146748474Y-73671487I0J51000D01*
G01*
X146748474Y-72171487D01*
G75*
G02*
X146799474Y-72120487I51000J0D01*
G01*
G37*
G36*
G01*
X145999474Y-72120487D02*
X146549474Y-72120487D01*
G75*
G02*
X146600474Y-72171487I0J-51000D01*
G01*
X146600474Y-73671487D01*
G75*
G02*
X146549474Y-73722487I-51000J0D01*
G01*
X145999474Y-73722487D01*
G75*
G02*
X145948474Y-73671487I0J51000D01*
G01*
X145948474Y-72171487D01*
G75*
G02*
X145999474Y-72120487I51000J0D01*
G01*
G37*
G36*
G01*
X145199474Y-72120487D02*
X145749474Y-72120487D01*
G75*
G02*
X145800474Y-72171487I0J-51000D01*
G01*
X145800474Y-73671487D01*
G75*
G02*
X145749474Y-73722487I-51000J0D01*
G01*
X145199474Y-73722487D01*
G75*
G02*
X145148474Y-73671487I0J51000D01*
G01*
X145148474Y-72171487D01*
G75*
G02*
X145199474Y-72120487I51000J0D01*
G01*
G37*
G36*
G01*
X144399474Y-72120487D02*
X144949474Y-72120487D01*
G75*
G02*
X145000474Y-72171487I0J-51000D01*
G01*
X145000474Y-73671487D01*
G75*
G02*
X144949474Y-73722487I-51000J0D01*
G01*
X144399474Y-73722487D01*
G75*
G02*
X144348474Y-73671487I0J51000D01*
G01*
X144348474Y-72171487D01*
G75*
G02*
X144399474Y-72120487I51000J0D01*
G01*
G37*
G36*
G01*
X143599474Y-72120487D02*
X144149474Y-72120487D01*
G75*
G02*
X144200474Y-72171487I0J-51000D01*
G01*
X144200474Y-73671487D01*
G75*
G02*
X144149474Y-73722487I-51000J0D01*
G01*
X143599474Y-73722487D01*
G75*
G02*
X143548474Y-73671487I0J51000D01*
G01*
X143548474Y-72171487D01*
G75*
G02*
X143599474Y-72120487I51000J0D01*
G01*
G37*
G36*
G01*
X142799474Y-72120487D02*
X143349474Y-72120487D01*
G75*
G02*
X143400474Y-72171487I0J-51000D01*
G01*
X143400474Y-73671487D01*
G75*
G02*
X143349474Y-73722487I-51000J0D01*
G01*
X142799474Y-73722487D01*
G75*
G02*
X142748474Y-73671487I0J51000D01*
G01*
X142748474Y-72171487D01*
G75*
G02*
X142799474Y-72120487I51000J0D01*
G01*
G37*
G36*
G01*
X141999474Y-72120487D02*
X142549474Y-72120487D01*
G75*
G02*
X142600474Y-72171487I0J-51000D01*
G01*
X142600474Y-73671487D01*
G75*
G02*
X142549474Y-73722487I-51000J0D01*
G01*
X141999474Y-73722487D01*
G75*
G02*
X141948474Y-73671487I0J51000D01*
G01*
X141948474Y-72171487D01*
G75*
G02*
X141999474Y-72120487I51000J0D01*
G01*
G37*
G36*
G01*
X141199474Y-72120487D02*
X141749474Y-72120487D01*
G75*
G02*
X141800474Y-72171487I0J-51000D01*
G01*
X141800474Y-73671487D01*
G75*
G02*
X141749474Y-73722487I-51000J0D01*
G01*
X141199474Y-73722487D01*
G75*
G02*
X141148474Y-73671487I0J51000D01*
G01*
X141148474Y-72171487D01*
G75*
G02*
X141199474Y-72120487I51000J0D01*
G01*
G37*
G36*
G01*
X140399474Y-72120487D02*
X140949474Y-72120487D01*
G75*
G02*
X141000474Y-72171487I0J-51000D01*
G01*
X141000474Y-73671487D01*
G75*
G02*
X140949474Y-73722487I-51000J0D01*
G01*
X140399474Y-73722487D01*
G75*
G02*
X140348474Y-73671487I0J51000D01*
G01*
X140348474Y-72171487D01*
G75*
G02*
X140399474Y-72120487I51000J0D01*
G01*
G37*
G36*
G01*
X139599474Y-72120487D02*
X140149474Y-72120487D01*
G75*
G02*
X140200474Y-72171487I0J-51000D01*
G01*
X140200474Y-73671487D01*
G75*
G02*
X140149474Y-73722487I-51000J0D01*
G01*
X139599474Y-73722487D01*
G75*
G02*
X139548474Y-73671487I0J51000D01*
G01*
X139548474Y-72171487D01*
G75*
G02*
X139599474Y-72120487I51000J0D01*
G01*
G37*
G36*
G01*
X138799474Y-72120487D02*
X139349474Y-72120487D01*
G75*
G02*
X139400474Y-72171487I0J-51000D01*
G01*
X139400474Y-73671487D01*
G75*
G02*
X139349474Y-73722487I-51000J0D01*
G01*
X138799474Y-73722487D01*
G75*
G02*
X138748474Y-73671487I0J51000D01*
G01*
X138748474Y-72171487D01*
G75*
G02*
X138799474Y-72120487I51000J0D01*
G01*
G37*
G36*
G01*
X130973470Y-84103237D02*
X130973470Y-83139737D01*
G75*
G02*
X131242720Y-82870487I269250J0D01*
G01*
X131781220Y-82870487D01*
G75*
G02*
X132050470Y-83139737I0J-269250D01*
G01*
X132050470Y-84103237D01*
G75*
G02*
X131781220Y-84372487I-269250J0D01*
G01*
X131242720Y-84372487D01*
G75*
G02*
X130973470Y-84103237I0J269250D01*
G01*
G37*
G36*
G01*
X129098470Y-84103237D02*
X129098470Y-83139737D01*
G75*
G02*
X129367720Y-82870487I269250J0D01*
G01*
X129906220Y-82870487D01*
G75*
G02*
X130175470Y-83139737I0J-269250D01*
G01*
X130175470Y-84103237D01*
G75*
G02*
X129906220Y-84372487I-269250J0D01*
G01*
X129367720Y-84372487D01*
G75*
G02*
X129098470Y-84103237I0J269250D01*
G01*
G37*
G36*
G01*
X140647405Y-69775989D02*
X140083905Y-69775989D01*
G75*
G02*
X139839655Y-69531739I0J244250D01*
G01*
X139839655Y-69043239D01*
G75*
G02*
X140083905Y-68798989I244250J0D01*
G01*
X140647405Y-68798989D01*
G75*
G02*
X140891655Y-69043239I0J-244250D01*
G01*
X140891655Y-69531739D01*
G75*
G02*
X140647405Y-69775989I-244250J0D01*
G01*
G37*
G36*
G01*
X140647405Y-71350989D02*
X140083905Y-71350989D01*
G75*
G02*
X139839655Y-71106739I0J244250D01*
G01*
X139839655Y-70618239D01*
G75*
G02*
X140083905Y-70373989I244250J0D01*
G01*
X140647405Y-70373989D01*
G75*
G02*
X140891655Y-70618239I0J-244250D01*
G01*
X140891655Y-71106739D01*
G75*
G02*
X140647405Y-71350989I-244250J0D01*
G01*
G37*
G36*
G01*
X150773474Y-69303238D02*
X150773474Y-68339738D01*
G75*
G02*
X151042724Y-68070488I269250J0D01*
G01*
X151581224Y-68070488D01*
G75*
G02*
X151850474Y-68339738I0J-269250D01*
G01*
X151850474Y-69303238D01*
G75*
G02*
X151581224Y-69572488I-269250J0D01*
G01*
X151042724Y-69572488D01*
G75*
G02*
X150773474Y-69303238I0J269250D01*
G01*
G37*
G36*
G01*
X148898474Y-69303238D02*
X148898474Y-68339738D01*
G75*
G02*
X149167724Y-68070488I269250J0D01*
G01*
X149706224Y-68070488D01*
G75*
G02*
X149975474Y-68339738I0J-269250D01*
G01*
X149975474Y-69303238D01*
G75*
G02*
X149706224Y-69572488I-269250J0D01*
G01*
X149167724Y-69572488D01*
G75*
G02*
X148898474Y-69303238I0J269250D01*
G01*
G37*
G36*
G01*
X147100474Y-65111425D02*
X147100474Y-66331551D01*
G75*
G02*
X146834537Y-66597488I-265937J0D01*
G01*
X145664411Y-66597488D01*
G75*
G02*
X145398474Y-66331551I0J265937D01*
G01*
X145398474Y-65111425D01*
G75*
G02*
X145664411Y-64845488I265937J0D01*
G01*
X146834537Y-64845488D01*
G75*
G02*
X147100474Y-65111425I0J-265937D01*
G01*
G37*
G36*
G01*
X149950474Y-65111425D02*
X149950474Y-66331551D01*
G75*
G02*
X149684537Y-66597488I-265937J0D01*
G01*
X148514411Y-66597488D01*
G75*
G02*
X148248474Y-66331551I0J265937D01*
G01*
X148248474Y-65111425D01*
G75*
G02*
X148514411Y-64845488I265937J0D01*
G01*
X149684537Y-64845488D01*
G75*
G02*
X149950474Y-65111425I0J-265937D01*
G01*
G37*
G36*
G01*
X148898473Y-71303237D02*
X148898473Y-70339737D01*
G75*
G02*
X149167723Y-70070487I269250J0D01*
G01*
X149706223Y-70070487D01*
G75*
G02*
X149975473Y-70339737I0J-269250D01*
G01*
X149975473Y-71303237D01*
G75*
G02*
X149706223Y-71572487I-269250J0D01*
G01*
X149167723Y-71572487D01*
G75*
G02*
X148898473Y-71303237I0J269250D01*
G01*
G37*
G36*
G01*
X150773473Y-71303237D02*
X150773473Y-70339737D01*
G75*
G02*
X151042723Y-70070487I269250J0D01*
G01*
X151581223Y-70070487D01*
G75*
G02*
X151850473Y-70339737I0J-269250D01*
G01*
X151850473Y-71303237D01*
G75*
G02*
X151581223Y-71572487I-269250J0D01*
G01*
X151042723Y-71572487D01*
G75*
G02*
X150773473Y-71303237I0J269250D01*
G01*
G37*
D17*
G36*
X146750206Y-83519487D02*
G01*
X146750474Y-83520487D01*
X146750474Y-85122487D01*
X146749474Y-85124219D01*
X146748474Y-85124487D01*
X146600474Y-85124487D01*
X146598742Y-85123487D01*
X146598474Y-85122487D01*
X146598474Y-83522487D01*
X145950474Y-83522487D01*
X145950474Y-85122487D01*
X145949474Y-85124219D01*
X145948474Y-85124487D01*
X145800474Y-85124487D01*
X145798742Y-85123487D01*
X145798474Y-85122487D01*
X145798474Y-83522487D01*
X145150474Y-83522487D01*
X145150474Y-85122487D01*
X145149474Y-85124219D01*
X145148474Y-85124487D01*
X145000474Y-85124487D01*
X144998742Y-85123487D01*
X144998474Y-85122487D01*
X144998474Y-83522487D01*
X144350474Y-83522487D01*
X144350474Y-85122487D01*
X144349474Y-85124219D01*
X144348474Y-85124487D01*
X144200474Y-85124487D01*
X144198742Y-85123487D01*
X144198474Y-85122487D01*
X144198474Y-83522487D01*
X143550474Y-83522487D01*
X143550474Y-85122487D01*
X143549474Y-85124219D01*
X143548474Y-85124487D01*
X143400474Y-85124487D01*
X143398742Y-85123487D01*
X143398474Y-85122487D01*
X143398474Y-83522487D01*
X142750474Y-83522487D01*
X142750474Y-85122487D01*
X142749474Y-85124219D01*
X142748474Y-85124487D01*
X142600474Y-85124487D01*
X142598742Y-85123487D01*
X142598474Y-85122487D01*
X142598474Y-83522487D01*
X141950474Y-83522487D01*
X141950474Y-85122487D01*
X141949474Y-85124219D01*
X141948474Y-85124487D01*
X141800474Y-85124487D01*
X141798742Y-85123487D01*
X141798474Y-85122487D01*
X141798474Y-83522487D01*
X141150474Y-83522487D01*
X141150474Y-85122487D01*
X141149474Y-85124219D01*
X141148474Y-85124487D01*
X141000474Y-85124487D01*
X140998742Y-85123487D01*
X140998474Y-85122487D01*
X140998474Y-83522487D01*
X140350474Y-83522487D01*
X140350474Y-85122487D01*
X140349474Y-85124219D01*
X140348474Y-85124487D01*
X140200474Y-85124487D01*
X140198742Y-85123487D01*
X140198474Y-85122487D01*
X140198474Y-83522487D01*
X139550474Y-83522487D01*
X139550474Y-85122487D01*
X139549474Y-85124219D01*
X139548474Y-85124487D01*
X139400474Y-85124487D01*
X139398742Y-85123487D01*
X139398474Y-85122487D01*
X139398474Y-83520487D01*
X139399474Y-83518755D01*
X139400474Y-83518487D01*
X146748474Y-83518487D01*
X146750206Y-83519487D01*
G37*
G36*
X138177206Y-82146487D02*
G01*
X138177474Y-82147487D01*
X138177474Y-82295487D01*
X138176474Y-82297219D01*
X138175474Y-82297487D01*
X136573474Y-82297487D01*
X136571742Y-82296487D01*
X136571474Y-82295487D01*
X136571474Y-82147487D01*
X136572474Y-82145755D01*
X136573474Y-82145487D01*
X138175474Y-82145487D01*
X138177206Y-82146487D01*
G37*
G36*
X149577206Y-82146487D02*
G01*
X149577474Y-82147487D01*
X149577474Y-82295487D01*
X149576474Y-82297219D01*
X149575474Y-82297487D01*
X147973474Y-82297487D01*
X147971742Y-82296487D01*
X147971474Y-82295487D01*
X147971474Y-82147487D01*
X147972474Y-82145755D01*
X147973474Y-82145487D01*
X149575474Y-82145487D01*
X149577206Y-82146487D01*
G37*
G36*
X138177206Y-81346487D02*
G01*
X138177474Y-81347487D01*
X138177474Y-81495487D01*
X138176474Y-81497219D01*
X138175474Y-81497487D01*
X136573474Y-81497487D01*
X136571742Y-81496487D01*
X136571474Y-81495487D01*
X136571474Y-81347487D01*
X136572474Y-81345755D01*
X136573474Y-81345487D01*
X138175474Y-81345487D01*
X138177206Y-81346487D01*
G37*
G36*
X149577206Y-81346487D02*
G01*
X149577474Y-81347487D01*
X149577474Y-81495487D01*
X149576474Y-81497219D01*
X149575474Y-81497487D01*
X147973474Y-81497487D01*
X147971742Y-81496487D01*
X147971474Y-81495487D01*
X147971474Y-81347487D01*
X147972474Y-81345755D01*
X147973474Y-81345487D01*
X149575474Y-81345487D01*
X149577206Y-81346487D01*
G37*
G36*
X149577206Y-80546487D02*
G01*
X149577474Y-80547487D01*
X149577474Y-80695487D01*
X149576474Y-80697219D01*
X149575474Y-80697487D01*
X147973474Y-80697487D01*
X147971742Y-80696487D01*
X147971474Y-80695487D01*
X147971474Y-80547487D01*
X147972474Y-80545755D01*
X147973474Y-80545487D01*
X149575474Y-80545487D01*
X149577206Y-80546487D01*
G37*
G36*
X138177206Y-80546487D02*
G01*
X138177474Y-80547487D01*
X138177474Y-80695487D01*
X138176474Y-80697219D01*
X138175474Y-80697487D01*
X136573474Y-80697487D01*
X136571742Y-80696487D01*
X136571474Y-80695487D01*
X136571474Y-80547487D01*
X136572474Y-80545755D01*
X136573474Y-80545487D01*
X138175474Y-80545487D01*
X138177206Y-80546487D01*
G37*
G36*
X138177206Y-79746487D02*
G01*
X138177474Y-79747487D01*
X138177474Y-79895487D01*
X138176474Y-79897219D01*
X138175474Y-79897487D01*
X136573474Y-79897487D01*
X136571742Y-79896487D01*
X136571474Y-79895487D01*
X136571474Y-79747487D01*
X136572474Y-79745755D01*
X136573474Y-79745487D01*
X138175474Y-79745487D01*
X138177206Y-79746487D01*
G37*
G36*
X149577206Y-79746487D02*
G01*
X149577474Y-79747487D01*
X149577474Y-79895487D01*
X149576474Y-79897219D01*
X149575474Y-79897487D01*
X147973474Y-79897487D01*
X147971742Y-79896487D01*
X147971474Y-79895487D01*
X147971474Y-79747487D01*
X147972474Y-79745755D01*
X147973474Y-79745487D01*
X149575474Y-79745487D01*
X149577206Y-79746487D01*
G37*
G36*
X149577206Y-78946487D02*
G01*
X149577474Y-78947487D01*
X149577474Y-79095487D01*
X149576474Y-79097219D01*
X149575474Y-79097487D01*
X147973474Y-79097487D01*
X147971742Y-79096487D01*
X147971474Y-79095487D01*
X147971474Y-78947487D01*
X147972474Y-78945755D01*
X147973474Y-78945487D01*
X149575474Y-78945487D01*
X149577206Y-78946487D01*
G37*
G36*
X138177206Y-78946487D02*
G01*
X138177474Y-78947487D01*
X138177474Y-79095487D01*
X138176474Y-79097219D01*
X138175474Y-79097487D01*
X136573474Y-79097487D01*
X136571742Y-79096487D01*
X136571474Y-79095487D01*
X136571474Y-78947487D01*
X136572474Y-78945755D01*
X136573474Y-78945487D01*
X138175474Y-78945487D01*
X138177206Y-78946487D01*
G37*
G36*
X138177206Y-78146487D02*
G01*
X138177474Y-78147487D01*
X138177474Y-78295487D01*
X138176474Y-78297219D01*
X138175474Y-78297487D01*
X136573474Y-78297487D01*
X136571742Y-78296487D01*
X136571474Y-78295487D01*
X136571474Y-78147487D01*
X136572474Y-78145755D01*
X136573474Y-78145487D01*
X138175474Y-78145487D01*
X138177206Y-78146487D01*
G37*
G36*
X149577206Y-78146487D02*
G01*
X149577474Y-78147487D01*
X149577474Y-78295487D01*
X149576474Y-78297219D01*
X149575474Y-78297487D01*
X147973474Y-78297487D01*
X147971742Y-78296487D01*
X147971474Y-78295487D01*
X147971474Y-78147487D01*
X147972474Y-78145755D01*
X147973474Y-78145487D01*
X149575474Y-78145487D01*
X149577206Y-78146487D01*
G37*
G36*
X149577206Y-77346487D02*
G01*
X149577474Y-77347487D01*
X149577474Y-77495487D01*
X149576474Y-77497219D01*
X149575474Y-77497487D01*
X147973474Y-77497487D01*
X147971742Y-77496487D01*
X147971474Y-77495487D01*
X147971474Y-77347487D01*
X147972474Y-77345755D01*
X147973474Y-77345487D01*
X149575474Y-77345487D01*
X149577206Y-77346487D01*
G37*
G36*
X138177206Y-77346487D02*
G01*
X138177474Y-77347487D01*
X138177474Y-77495487D01*
X138176474Y-77497219D01*
X138175474Y-77497487D01*
X136573474Y-77497487D01*
X136571742Y-77496487D01*
X136571474Y-77495487D01*
X136571474Y-77347487D01*
X136572474Y-77345755D01*
X136573474Y-77345487D01*
X138175474Y-77345487D01*
X138177206Y-77346487D01*
G37*
G36*
X149577206Y-76546487D02*
G01*
X149577474Y-76547487D01*
X149577474Y-76695487D01*
X149576474Y-76697219D01*
X149575474Y-76697487D01*
X147973474Y-76697487D01*
X147971742Y-76696487D01*
X147971474Y-76695487D01*
X147971474Y-76547487D01*
X147972474Y-76545755D01*
X147973474Y-76545487D01*
X149575474Y-76545487D01*
X149577206Y-76546487D01*
G37*
G36*
X138177206Y-76546487D02*
G01*
X138177474Y-76547487D01*
X138177474Y-76695487D01*
X138176474Y-76697219D01*
X138175474Y-76697487D01*
X136573474Y-76697487D01*
X136571742Y-76696487D01*
X136571474Y-76695487D01*
X136571474Y-76547487D01*
X136572474Y-76545755D01*
X136573474Y-76545487D01*
X138175474Y-76545487D01*
X138177206Y-76546487D01*
G37*
G36*
X149577206Y-75746487D02*
G01*
X149577474Y-75747487D01*
X149577474Y-75895487D01*
X149576474Y-75897219D01*
X149575474Y-75897487D01*
X147973474Y-75897487D01*
X147971742Y-75896487D01*
X147971474Y-75895487D01*
X147971474Y-75747487D01*
X147972474Y-75745755D01*
X147973474Y-75745487D01*
X149575474Y-75745487D01*
X149577206Y-75746487D01*
G37*
G36*
X138177206Y-75746487D02*
G01*
X138177474Y-75747487D01*
X138177474Y-75895487D01*
X138176474Y-75897219D01*
X138175474Y-75897487D01*
X136573474Y-75897487D01*
X136571742Y-75896487D01*
X136571474Y-75895487D01*
X136571474Y-75747487D01*
X136572474Y-75745755D01*
X136573474Y-75745487D01*
X138175474Y-75745487D01*
X138177206Y-75746487D01*
G37*
G36*
X149577206Y-74946487D02*
G01*
X149577474Y-74947487D01*
X149577474Y-75095487D01*
X149576474Y-75097219D01*
X149575474Y-75097487D01*
X147973474Y-75097487D01*
X147971742Y-75096487D01*
X147971474Y-75095487D01*
X147971474Y-74947487D01*
X147972474Y-74945755D01*
X147973474Y-74945487D01*
X149575474Y-74945487D01*
X149577206Y-74946487D01*
G37*
G36*
X138177206Y-74946487D02*
G01*
X138177474Y-74947487D01*
X138177474Y-75095487D01*
X138176474Y-75097219D01*
X138175474Y-75097487D01*
X136573474Y-75097487D01*
X136571742Y-75096487D01*
X136571474Y-75095487D01*
X136571474Y-74947487D01*
X136572474Y-74945755D01*
X136573474Y-74945487D01*
X138175474Y-74945487D01*
X138177206Y-74946487D01*
G37*
G36*
X146750206Y-72119487D02*
G01*
X146750474Y-72120487D01*
X146750474Y-73722487D01*
X146749474Y-73724219D01*
X146748474Y-73724487D01*
X146600474Y-73724487D01*
X146598742Y-73723487D01*
X146598474Y-73722487D01*
X146598474Y-72122487D01*
X145950474Y-72122487D01*
X145950474Y-73722487D01*
X145949474Y-73724219D01*
X145948474Y-73724487D01*
X145800474Y-73724487D01*
X145798742Y-73723487D01*
X145798474Y-73722487D01*
X145798474Y-72122487D01*
X145150474Y-72122487D01*
X145150474Y-73722487D01*
X145149474Y-73724219D01*
X145148474Y-73724487D01*
X145000474Y-73724487D01*
X144998742Y-73723487D01*
X144998474Y-73722487D01*
X144998474Y-72122487D01*
X144350474Y-72122487D01*
X144350474Y-73722487D01*
X144349474Y-73724219D01*
X144348474Y-73724487D01*
X144200474Y-73724487D01*
X144198742Y-73723487D01*
X144198474Y-73722487D01*
X144198474Y-72122487D01*
X143550474Y-72122487D01*
X143550474Y-73722487D01*
X143549474Y-73724219D01*
X143548474Y-73724487D01*
X143400474Y-73724487D01*
X143398742Y-73723487D01*
X143398474Y-73722487D01*
X143398474Y-72122487D01*
X142750474Y-72122487D01*
X142750474Y-73722487D01*
X142749474Y-73724219D01*
X142748474Y-73724487D01*
X142600474Y-73724487D01*
X142598742Y-73723487D01*
X142598474Y-73722487D01*
X142598474Y-72122487D01*
X141950474Y-72122487D01*
X141950474Y-73722487D01*
X141949474Y-73724219D01*
X141948474Y-73724487D01*
X141800474Y-73724487D01*
X141798742Y-73723487D01*
X141798474Y-73722487D01*
X141798474Y-72122487D01*
X141150474Y-72122487D01*
X141150474Y-73722487D01*
X141149474Y-73724219D01*
X141148474Y-73724487D01*
X141000474Y-73724487D01*
X140998742Y-73723487D01*
X140998474Y-73722487D01*
X140998474Y-72122487D01*
X140350474Y-72122487D01*
X140350474Y-73722487D01*
X140349474Y-73724219D01*
X140348474Y-73724487D01*
X140200474Y-73724487D01*
X140198742Y-73723487D01*
X140198474Y-73722487D01*
X140198474Y-72122487D01*
X139550474Y-72122487D01*
X139550474Y-73722487D01*
X139549474Y-73724219D01*
X139548474Y-73724487D01*
X139400474Y-73724487D01*
X139398742Y-73723487D01*
X139398474Y-73722487D01*
X139398474Y-72120487D01*
X139399474Y-72118755D01*
X139400474Y-72118487D01*
X146748474Y-72118487D01*
X146750206Y-72119487D01*
G37*
G36*
X141650206Y-66839487D02*
G01*
X141650474Y-66840487D01*
X141650474Y-68002487D01*
X141649474Y-68004219D01*
X141648474Y-68004487D01*
X141450474Y-68004487D01*
X141448742Y-68003487D01*
X141448474Y-68002487D01*
X141448474Y-66842487D01*
X140700474Y-66842487D01*
X140700474Y-68002487D01*
X140699474Y-68004219D01*
X140698474Y-68004487D01*
X140500474Y-68004487D01*
X140498742Y-68003487D01*
X140498474Y-68002487D01*
X140498474Y-66840487D01*
X140499474Y-66838755D01*
X140500474Y-66838487D01*
X141648474Y-66838487D01*
X141650206Y-66839487D01*
G37*
G36*
X141650206Y-64639487D02*
G01*
X141650474Y-64640487D01*
X141650474Y-65802487D01*
X141649474Y-65804219D01*
X141648474Y-65804487D01*
X141450474Y-65804487D01*
X141448742Y-65803487D01*
X141448474Y-65802487D01*
X141448474Y-64642487D01*
X140700474Y-64642487D01*
X140700474Y-65802487D01*
X140699474Y-65804219D01*
X140698474Y-65804487D01*
X140500474Y-65804487D01*
X140498742Y-65803487D01*
X140498474Y-65802487D01*
X140498474Y-64640487D01*
X140499474Y-64638755D01*
X140500474Y-64638487D01*
X141648474Y-64638487D01*
X141650206Y-64639487D01*
G37*
M02*
