G04 #@! TF.GenerationSoftware,KiCad,Pcbnew,5.1.5*
G04 #@! TF.CreationDate,2020-05-14T17:03:41-05:00*
G04 #@! TF.ProjectId,steno-v2,7374656e-6f2d-4763-922e-6b696361645f,rev?*
G04 #@! TF.SameCoordinates,Original*
G04 #@! TF.FileFunction,Copper,L1,Top*
G04 #@! TF.FilePolarity,Positive*
%FSLAX46Y46*%
G04 Gerber Fmt 4.6, Leading zero omitted, Abs format (unit mm)*
G04 Created by KiCad (PCBNEW 5.1.5) date 2020-05-14 17:03:41*
%MOMM*%
%LPD*%
G04 APERTURE LIST*
%ADD10C,2.000000*%
%ADD11O,1.700000X1.700000*%
%ADD12R,1.700000X1.700000*%
%ADD13R,1.500000X1.150000*%
%ADD14R,1.150000X2.200000*%
%ADD15R,1.160000X1.200000*%
%ADD16R,1.160000X1.250000*%
%ADD17R,0.950000X2.500000*%
%ADD18R,0.800000X1.240000*%
%ADD19R,0.600000X2.200000*%
%ADD20C,0.100000*%
%ADD21C,1.500000*%
%ADD22C,1.778000*%
%ADD23R,1.778000X1.778000*%
%ADD24C,3.302000*%
%ADD25C,0.800000*%
%ADD26C,0.254000*%
%ADD27C,0.508000*%
G04 APERTURE END LIST*
D10*
X197202217Y-47550001D03*
X191785511Y-47286748D03*
X271016449Y-39839018D03*
X265599743Y-39575765D03*
X265202108Y-23864243D03*
X259785402Y-23600990D03*
X212636170Y-77916165D03*
X207219464Y-77652912D03*
X195721702Y-84072528D03*
X190304996Y-83809275D03*
X178807235Y-90228890D03*
X173390529Y-89965637D03*
X127691662Y-93651060D03*
X123711441Y-89967605D03*
X110777195Y-87494697D03*
X106796974Y-83811242D03*
X93862728Y-81338334D03*
X89882507Y-77654879D03*
X254101983Y-45995380D03*
X248685277Y-45732127D03*
X231031152Y-35237277D03*
X225614446Y-34974024D03*
X212064565Y-35755482D03*
X206647859Y-35492229D03*
X180287750Y-53706363D03*
X174871044Y-53443110D03*
X128208140Y-57119269D03*
X124227919Y-53435814D03*
X111296633Y-50967508D03*
X107316412Y-47284053D03*
X96434287Y-39172989D03*
X92454066Y-35489534D03*
X77467699Y-38654782D03*
X73487478Y-34971327D03*
X54396869Y-49412887D03*
X50416648Y-45729432D03*
X248287640Y-30020606D03*
X242870934Y-29757353D03*
X225216810Y-19262501D03*
X219800104Y-18999248D03*
X206250222Y-19780708D03*
X200833516Y-19517455D03*
X191387875Y-31575227D03*
X185971169Y-31311974D03*
X174473408Y-37731589D03*
X169056702Y-37468336D03*
X134025443Y-41149095D03*
X130045222Y-37465640D03*
X117110975Y-34992732D03*
X113130754Y-31309277D03*
X102248630Y-23198215D03*
X98268409Y-19514760D03*
X83282042Y-22680008D03*
X79301821Y-18996553D03*
X60211212Y-33438113D03*
X56230991Y-29754658D03*
D11*
X130800000Y-105120000D03*
X130800000Y-102580000D03*
X130800000Y-100040000D03*
D12*
X130800000Y-97500000D03*
D13*
X144760000Y-90700000D03*
X152540000Y-90700000D03*
D14*
X156845000Y-91495000D03*
D15*
X142960000Y-91825000D03*
D16*
X142960000Y-100825000D03*
D14*
X142555000Y-102975000D03*
D17*
X156945000Y-102825000D03*
D18*
X144900000Y-103455000D03*
X146000000Y-103455000D03*
X147100000Y-103455000D03*
X148200000Y-103455000D03*
X149300000Y-103455000D03*
X150400000Y-103455000D03*
X151500000Y-103455000D03*
X152600000Y-103455000D03*
D19*
X149905000Y-75400000D03*
X149905000Y-70200000D03*
X148635000Y-75400000D03*
X148635000Y-70200000D03*
X147365000Y-75400000D03*
X147365000Y-70200000D03*
X146095000Y-75400000D03*
X146095000Y-70200000D03*
G04 #@! TA.AperFunction,SMDPad,CuDef*
D20*
G36*
X146330142Y-66101174D02*
G01*
X146353803Y-66104684D01*
X146377007Y-66110496D01*
X146399529Y-66118554D01*
X146421153Y-66128782D01*
X146441670Y-66141079D01*
X146460883Y-66155329D01*
X146478607Y-66171393D01*
X146494671Y-66189117D01*
X146508921Y-66208330D01*
X146521218Y-66228847D01*
X146531446Y-66250471D01*
X146539504Y-66272993D01*
X146545316Y-66296197D01*
X146548826Y-66319858D01*
X146550000Y-66343750D01*
X146550000Y-67256250D01*
X146548826Y-67280142D01*
X146545316Y-67303803D01*
X146539504Y-67327007D01*
X146531446Y-67349529D01*
X146521218Y-67371153D01*
X146508921Y-67391670D01*
X146494671Y-67410883D01*
X146478607Y-67428607D01*
X146460883Y-67444671D01*
X146441670Y-67458921D01*
X146421153Y-67471218D01*
X146399529Y-67481446D01*
X146377007Y-67489504D01*
X146353803Y-67495316D01*
X146330142Y-67498826D01*
X146306250Y-67500000D01*
X145818750Y-67500000D01*
X145794858Y-67498826D01*
X145771197Y-67495316D01*
X145747993Y-67489504D01*
X145725471Y-67481446D01*
X145703847Y-67471218D01*
X145683330Y-67458921D01*
X145664117Y-67444671D01*
X145646393Y-67428607D01*
X145630329Y-67410883D01*
X145616079Y-67391670D01*
X145603782Y-67371153D01*
X145593554Y-67349529D01*
X145585496Y-67327007D01*
X145579684Y-67303803D01*
X145576174Y-67280142D01*
X145575000Y-67256250D01*
X145575000Y-66343750D01*
X145576174Y-66319858D01*
X145579684Y-66296197D01*
X145585496Y-66272993D01*
X145593554Y-66250471D01*
X145603782Y-66228847D01*
X145616079Y-66208330D01*
X145630329Y-66189117D01*
X145646393Y-66171393D01*
X145664117Y-66155329D01*
X145683330Y-66141079D01*
X145703847Y-66128782D01*
X145725471Y-66118554D01*
X145747993Y-66110496D01*
X145771197Y-66104684D01*
X145794858Y-66101174D01*
X145818750Y-66100000D01*
X146306250Y-66100000D01*
X146330142Y-66101174D01*
G37*
G04 #@! TD.AperFunction*
G04 #@! TA.AperFunction,SMDPad,CuDef*
G36*
X148205142Y-66101174D02*
G01*
X148228803Y-66104684D01*
X148252007Y-66110496D01*
X148274529Y-66118554D01*
X148296153Y-66128782D01*
X148316670Y-66141079D01*
X148335883Y-66155329D01*
X148353607Y-66171393D01*
X148369671Y-66189117D01*
X148383921Y-66208330D01*
X148396218Y-66228847D01*
X148406446Y-66250471D01*
X148414504Y-66272993D01*
X148420316Y-66296197D01*
X148423826Y-66319858D01*
X148425000Y-66343750D01*
X148425000Y-67256250D01*
X148423826Y-67280142D01*
X148420316Y-67303803D01*
X148414504Y-67327007D01*
X148406446Y-67349529D01*
X148396218Y-67371153D01*
X148383921Y-67391670D01*
X148369671Y-67410883D01*
X148353607Y-67428607D01*
X148335883Y-67444671D01*
X148316670Y-67458921D01*
X148296153Y-67471218D01*
X148274529Y-67481446D01*
X148252007Y-67489504D01*
X148228803Y-67495316D01*
X148205142Y-67498826D01*
X148181250Y-67500000D01*
X147693750Y-67500000D01*
X147669858Y-67498826D01*
X147646197Y-67495316D01*
X147622993Y-67489504D01*
X147600471Y-67481446D01*
X147578847Y-67471218D01*
X147558330Y-67458921D01*
X147539117Y-67444671D01*
X147521393Y-67428607D01*
X147505329Y-67410883D01*
X147491079Y-67391670D01*
X147478782Y-67371153D01*
X147468554Y-67349529D01*
X147460496Y-67327007D01*
X147454684Y-67303803D01*
X147451174Y-67280142D01*
X147450000Y-67256250D01*
X147450000Y-66343750D01*
X147451174Y-66319858D01*
X147454684Y-66296197D01*
X147460496Y-66272993D01*
X147468554Y-66250471D01*
X147478782Y-66228847D01*
X147491079Y-66208330D01*
X147505329Y-66189117D01*
X147521393Y-66171393D01*
X147539117Y-66155329D01*
X147558330Y-66141079D01*
X147578847Y-66128782D01*
X147600471Y-66118554D01*
X147622993Y-66110496D01*
X147646197Y-66104684D01*
X147669858Y-66101174D01*
X147693750Y-66100000D01*
X148181250Y-66100000D01*
X148205142Y-66101174D01*
G37*
G04 #@! TD.AperFunction*
D21*
X203461154Y-70925335D02*
X203461154Y-70925335D01*
G04 #@! TA.AperFunction,ComponentPad*
D20*
G36*
X199893676Y-63316623D02*
G01*
X201303215Y-62803592D01*
X201816246Y-64213131D01*
X200406707Y-64726162D01*
X199893676Y-63316623D01*
G37*
G04 #@! TD.AperFunction*
D21*
X197822998Y-72977456D02*
X197822998Y-72977456D01*
G04 #@! TA.AperFunction,ComponentPad*
D20*
G36*
X194255520Y-65368744D02*
G01*
X195665059Y-64855713D01*
X196178090Y-66265252D01*
X194768551Y-66778283D01*
X194255520Y-65368744D01*
G37*
G04 #@! TD.AperFunction*
D21*
X188426072Y-76397657D02*
X188426072Y-76397657D01*
G04 #@! TA.AperFunction,ComponentPad*
D20*
G36*
X184858594Y-68788945D02*
G01*
X186268133Y-68275914D01*
X186781164Y-69685453D01*
X185371625Y-70198484D01*
X184858594Y-68788945D01*
G37*
G04 #@! TD.AperFunction*
D21*
X182787916Y-78449778D02*
X182787916Y-78449778D01*
G04 #@! TA.AperFunction,ComponentPad*
D20*
G36*
X179220438Y-70841066D02*
G01*
X180629977Y-70328035D01*
X181143008Y-71737574D01*
X179733469Y-72250605D01*
X179220438Y-70841066D01*
G37*
G04 #@! TD.AperFunction*
D21*
X177149760Y-80501899D02*
X177149760Y-80501899D01*
G04 #@! TA.AperFunction,ComponentPad*
D20*
G36*
X173582282Y-72893187D02*
G01*
X174991821Y-72380156D01*
X175504852Y-73789695D01*
X174095313Y-74302726D01*
X173582282Y-72893187D01*
G37*
G04 #@! TD.AperFunction*
D21*
X121478996Y-81271686D02*
X121478996Y-81271686D01*
G04 #@! TA.AperFunction,ComponentPad*
D20*
G36*
X123636935Y-73149943D02*
G01*
X125046474Y-73662974D01*
X124533443Y-75072513D01*
X123123904Y-74559482D01*
X123636935Y-73149943D01*
G37*
G04 #@! TD.AperFunction*
D21*
X115840840Y-79219565D02*
X115840840Y-79219565D01*
G04 #@! TA.AperFunction,ComponentPad*
D20*
G36*
X117998779Y-71097822D02*
G01*
X119408318Y-71610853D01*
X118895287Y-73020392D01*
X117485748Y-72507361D01*
X117998779Y-71097822D01*
G37*
G04 #@! TD.AperFunction*
D21*
X110202685Y-77167444D02*
X110202685Y-77167444D01*
G04 #@! TA.AperFunction,ComponentPad*
D20*
G36*
X112360624Y-69045701D02*
G01*
X113770163Y-69558732D01*
X113257132Y-70968271D01*
X111847593Y-70455240D01*
X112360624Y-69045701D01*
G37*
G04 #@! TD.AperFunction*
D21*
X201581768Y-71609376D02*
X201581768Y-71609376D01*
G04 #@! TA.AperFunction,ComponentPad*
D20*
G36*
X198014290Y-64000664D02*
G01*
X199423829Y-63487633D01*
X199936860Y-64897172D01*
X198527321Y-65410203D01*
X198014290Y-64000664D01*
G37*
G04 #@! TD.AperFunction*
D21*
X195943613Y-73661496D02*
X195943613Y-73661496D01*
G04 #@! TA.AperFunction,ComponentPad*
D20*
G36*
X192376135Y-66052784D02*
G01*
X193785674Y-65539753D01*
X194298705Y-66949292D01*
X192889166Y-67462323D01*
X192376135Y-66052784D01*
G37*
G04 #@! TD.AperFunction*
D21*
X192184842Y-75029577D02*
X192184842Y-75029577D01*
G04 #@! TA.AperFunction,ComponentPad*
D20*
G36*
X188617364Y-67420865D02*
G01*
X190026903Y-66907834D01*
X190539934Y-68317373D01*
X189130395Y-68830404D01*
X188617364Y-67420865D01*
G37*
G04 #@! TD.AperFunction*
D21*
X186546686Y-77081698D02*
X186546686Y-77081698D01*
G04 #@! TA.AperFunction,ComponentPad*
D20*
G36*
X182979208Y-69472986D02*
G01*
X184388747Y-68959955D01*
X184901778Y-70369494D01*
X183492239Y-70882525D01*
X182979208Y-69472986D01*
G37*
G04 #@! TD.AperFunction*
D21*
X180908530Y-79133819D02*
X180908530Y-79133819D01*
G04 #@! TA.AperFunction,ComponentPad*
D20*
G36*
X177341052Y-71525107D02*
G01*
X178750591Y-71012076D01*
X179263622Y-72421615D01*
X177854083Y-72934646D01*
X177341052Y-71525107D01*
G37*
G04 #@! TD.AperFunction*
D21*
X119599611Y-80587646D02*
X119599611Y-80587646D01*
G04 #@! TA.AperFunction,ComponentPad*
D20*
G36*
X121757550Y-72465903D02*
G01*
X123167089Y-72978934D01*
X122654058Y-74388473D01*
X121244519Y-73875442D01*
X121757550Y-72465903D01*
G37*
G04 #@! TD.AperFunction*
D21*
X112082070Y-77851485D02*
X112082070Y-77851485D01*
G04 #@! TA.AperFunction,ComponentPad*
D20*
G36*
X114240009Y-69729742D02*
G01*
X115649548Y-70242773D01*
X115136517Y-71652312D01*
X113726978Y-71139281D01*
X114240009Y-69729742D01*
G37*
G04 #@! TD.AperFunction*
D21*
X106443914Y-75799364D02*
X106443914Y-75799364D01*
G04 #@! TA.AperFunction,ComponentPad*
D20*
G36*
X108601853Y-67677621D02*
G01*
X110011392Y-68190652D01*
X109498361Y-69600191D01*
X108088822Y-69087160D01*
X108601853Y-67677621D01*
G37*
G04 #@! TD.AperFunction*
D21*
X102685144Y-74431283D02*
X102685144Y-74431283D01*
G04 #@! TA.AperFunction,ComponentPad*
D20*
G36*
X104843083Y-66309540D02*
G01*
X106252622Y-66822571D01*
X105739591Y-68232110D01*
X104330052Y-67719079D01*
X104843083Y-66309540D01*
G37*
G04 #@! TD.AperFunction*
D21*
X98926373Y-73063203D02*
X98926373Y-73063203D01*
G04 #@! TA.AperFunction,ComponentPad*
D20*
G36*
X101084312Y-64941460D02*
G01*
X102493851Y-65454491D01*
X101980820Y-66864030D01*
X100571281Y-66350999D01*
X101084312Y-64941460D01*
G37*
G04 #@! TD.AperFunction*
D21*
X199702383Y-72293416D02*
X199702383Y-72293416D01*
G04 #@! TA.AperFunction,ComponentPad*
D20*
G36*
X196134905Y-64684704D02*
G01*
X197544444Y-64171673D01*
X198057475Y-65581212D01*
X196647936Y-66094243D01*
X196134905Y-64684704D01*
G37*
G04 #@! TD.AperFunction*
D21*
X194064227Y-74345536D02*
X194064227Y-74345536D01*
G04 #@! TA.AperFunction,ComponentPad*
D20*
G36*
X190496749Y-66736824D02*
G01*
X191906288Y-66223793D01*
X192419319Y-67633332D01*
X191009780Y-68146363D01*
X190496749Y-66736824D01*
G37*
G04 #@! TD.AperFunction*
D21*
X190305457Y-75713617D02*
X190305457Y-75713617D01*
G04 #@! TA.AperFunction,ComponentPad*
D20*
G36*
X186737979Y-68104905D02*
G01*
X188147518Y-67591874D01*
X188660549Y-69001413D01*
X187251010Y-69514444D01*
X186737979Y-68104905D01*
G37*
G04 #@! TD.AperFunction*
D21*
X184667301Y-77765738D02*
X184667301Y-77765738D01*
G04 #@! TA.AperFunction,ComponentPad*
D20*
G36*
X181099823Y-70157026D02*
G01*
X182509362Y-69643995D01*
X183022393Y-71053534D01*
X181612854Y-71566565D01*
X181099823Y-70157026D01*
G37*
G04 #@! TD.AperFunction*
D21*
X179029145Y-79817859D02*
X179029145Y-79817859D01*
G04 #@! TA.AperFunction,ComponentPad*
D20*
G36*
X175461667Y-72209147D02*
G01*
X176871206Y-71696116D01*
X177384237Y-73105655D01*
X175974698Y-73618686D01*
X175461667Y-72209147D01*
G37*
G04 #@! TD.AperFunction*
D21*
X117720226Y-79903605D02*
X117720226Y-79903605D01*
G04 #@! TA.AperFunction,ComponentPad*
D20*
G36*
X119878165Y-71781862D02*
G01*
X121287704Y-72294893D01*
X120774673Y-73704432D01*
X119365134Y-73191401D01*
X119878165Y-71781862D01*
G37*
G04 #@! TD.AperFunction*
D21*
X113961455Y-78535525D02*
X113961455Y-78535525D01*
G04 #@! TA.AperFunction,ComponentPad*
D20*
G36*
X116119394Y-70413782D02*
G01*
X117528933Y-70926813D01*
X117015902Y-72336352D01*
X115606363Y-71823321D01*
X116119394Y-70413782D01*
G37*
G04 #@! TD.AperFunction*
D21*
X108323299Y-76483404D02*
X108323299Y-76483404D01*
G04 #@! TA.AperFunction,ComponentPad*
D20*
G36*
X110481238Y-68361661D02*
G01*
X111890777Y-68874692D01*
X111377746Y-70284231D01*
X109968207Y-69771200D01*
X110481238Y-68361661D01*
G37*
G04 #@! TD.AperFunction*
D21*
X104564529Y-75115323D02*
X104564529Y-75115323D01*
G04 #@! TA.AperFunction,ComponentPad*
D20*
G36*
X106722468Y-66993580D02*
G01*
X108132007Y-67506611D01*
X107618976Y-68916150D01*
X106209437Y-68403119D01*
X106722468Y-66993580D01*
G37*
G04 #@! TD.AperFunction*
D21*
X100805758Y-73747243D02*
X100805758Y-73747243D01*
G04 #@! TA.AperFunction,ComponentPad*
D20*
G36*
X102963697Y-65625500D02*
G01*
X104373236Y-66138531D01*
X103860205Y-67548070D01*
X102450666Y-67035039D01*
X102963697Y-65625500D01*
G37*
G04 #@! TD.AperFunction*
G04 #@! TA.AperFunction,SMDPad,CuDef*
G36*
X212129169Y-66604573D02*
G01*
X212153258Y-66609228D01*
X212176773Y-66616222D01*
X212199491Y-66625487D01*
X212221190Y-66636934D01*
X212241663Y-66650453D01*
X212260713Y-66665913D01*
X212278155Y-66683166D01*
X212293823Y-66702046D01*
X212307564Y-66722371D01*
X212319247Y-66743944D01*
X212328759Y-66766559D01*
X212704981Y-67800221D01*
X212712231Y-67823659D01*
X212717148Y-67847695D01*
X212719686Y-67872097D01*
X212719820Y-67896631D01*
X212717549Y-67921059D01*
X212712894Y-67945148D01*
X212705900Y-67968663D01*
X212696635Y-67991381D01*
X212685188Y-68013080D01*
X212671669Y-68033553D01*
X212656209Y-68052603D01*
X212638956Y-68070045D01*
X212620076Y-68085713D01*
X212599751Y-68099454D01*
X212578178Y-68111137D01*
X212555563Y-68120649D01*
X210206331Y-68975699D01*
X210182893Y-68982949D01*
X210158857Y-68987866D01*
X210134455Y-68990404D01*
X210109921Y-68990538D01*
X210085493Y-68988267D01*
X210061404Y-68983612D01*
X210037889Y-68976618D01*
X210015171Y-68967353D01*
X209993472Y-68955906D01*
X209972999Y-68942387D01*
X209953949Y-68926927D01*
X209936507Y-68909674D01*
X209920839Y-68890794D01*
X209907098Y-68870469D01*
X209895415Y-68848896D01*
X209885903Y-68826281D01*
X209509681Y-67792619D01*
X209502431Y-67769181D01*
X209497514Y-67745145D01*
X209494976Y-67720743D01*
X209494842Y-67696209D01*
X209497113Y-67671781D01*
X209501768Y-67647692D01*
X209508762Y-67624177D01*
X209518027Y-67601459D01*
X209529474Y-67579760D01*
X209542993Y-67559287D01*
X209558453Y-67540237D01*
X209575706Y-67522795D01*
X209594586Y-67507127D01*
X209614911Y-67493386D01*
X209636484Y-67481703D01*
X209659099Y-67472191D01*
X212008331Y-66617141D01*
X212031769Y-66609891D01*
X212055805Y-66604974D01*
X212080207Y-66602436D01*
X212104741Y-66602302D01*
X212129169Y-66604573D01*
G37*
G04 #@! TD.AperFunction*
G04 #@! TA.AperFunction,SMDPad,CuDef*
G36*
X209803432Y-60214663D02*
G01*
X209827521Y-60219318D01*
X209851036Y-60226312D01*
X209873754Y-60235577D01*
X209895453Y-60247024D01*
X209915926Y-60260543D01*
X209934976Y-60276003D01*
X209952418Y-60293256D01*
X209968086Y-60312136D01*
X209981827Y-60332461D01*
X209993510Y-60354034D01*
X210003022Y-60376649D01*
X210379244Y-61410311D01*
X210386494Y-61433749D01*
X210391411Y-61457785D01*
X210393949Y-61482187D01*
X210394083Y-61506721D01*
X210391812Y-61531149D01*
X210387157Y-61555238D01*
X210380163Y-61578753D01*
X210370898Y-61601471D01*
X210359451Y-61623170D01*
X210345932Y-61643643D01*
X210330472Y-61662693D01*
X210313219Y-61680135D01*
X210294339Y-61695803D01*
X210274014Y-61709544D01*
X210252441Y-61721227D01*
X210229826Y-61730739D01*
X207880594Y-62585789D01*
X207857156Y-62593039D01*
X207833120Y-62597956D01*
X207808718Y-62600494D01*
X207784184Y-62600628D01*
X207759756Y-62598357D01*
X207735667Y-62593702D01*
X207712152Y-62586708D01*
X207689434Y-62577443D01*
X207667735Y-62565996D01*
X207647262Y-62552477D01*
X207628212Y-62537017D01*
X207610770Y-62519764D01*
X207595102Y-62500884D01*
X207581361Y-62480559D01*
X207569678Y-62458986D01*
X207560166Y-62436371D01*
X207183944Y-61402709D01*
X207176694Y-61379271D01*
X207171777Y-61355235D01*
X207169239Y-61330833D01*
X207169105Y-61306299D01*
X207171376Y-61281871D01*
X207176031Y-61257782D01*
X207183025Y-61234267D01*
X207192290Y-61211549D01*
X207203737Y-61189850D01*
X207217256Y-61169377D01*
X207232716Y-61150327D01*
X207249969Y-61132885D01*
X207268849Y-61117217D01*
X207289174Y-61103476D01*
X207310747Y-61091793D01*
X207333362Y-61082281D01*
X209682594Y-60227231D01*
X209706032Y-60219981D01*
X209730068Y-60215064D01*
X209754470Y-60212526D01*
X209779004Y-60212392D01*
X209803432Y-60214663D01*
G37*
G04 #@! TD.AperFunction*
G04 #@! TA.AperFunction,SMDPad,CuDef*
G36*
X210471234Y-64973238D02*
G01*
X210495322Y-64977893D01*
X210518838Y-64984887D01*
X210541556Y-64994152D01*
X210563255Y-65005599D01*
X210583728Y-65019118D01*
X210602778Y-65034578D01*
X210620220Y-65051831D01*
X210635888Y-65070711D01*
X210649629Y-65091036D01*
X210661312Y-65112609D01*
X210670824Y-65135224D01*
X210841834Y-65605071D01*
X210849084Y-65628509D01*
X210854001Y-65652545D01*
X210856539Y-65676948D01*
X210856673Y-65701481D01*
X210854401Y-65725909D01*
X210849746Y-65749998D01*
X210842753Y-65773514D01*
X210833488Y-65796231D01*
X210822041Y-65817930D01*
X210808522Y-65838404D01*
X210793062Y-65857453D01*
X210775808Y-65874895D01*
X210756929Y-65890563D01*
X210736604Y-65904304D01*
X210715031Y-65915987D01*
X210692416Y-65925499D01*
X205993952Y-67635600D01*
X205970514Y-67642850D01*
X205946478Y-67647767D01*
X205922076Y-67650305D01*
X205897542Y-67650439D01*
X205873114Y-67648168D01*
X205849026Y-67643513D01*
X205825510Y-67636519D01*
X205802792Y-67627254D01*
X205781093Y-67615807D01*
X205760620Y-67602288D01*
X205741570Y-67586828D01*
X205724128Y-67569575D01*
X205708460Y-67550695D01*
X205694719Y-67530370D01*
X205683036Y-67508797D01*
X205673524Y-67486182D01*
X205502514Y-67016335D01*
X205495264Y-66992897D01*
X205490347Y-66968861D01*
X205487809Y-66944458D01*
X205487675Y-66919925D01*
X205489947Y-66895497D01*
X205494602Y-66871408D01*
X205501595Y-66847892D01*
X205510860Y-66825175D01*
X205522307Y-66803476D01*
X205535826Y-66783002D01*
X205551286Y-66763953D01*
X205568540Y-66746511D01*
X205587419Y-66730843D01*
X205607744Y-66717102D01*
X205629317Y-66705419D01*
X205651932Y-66695907D01*
X210350396Y-64985806D01*
X210373834Y-64978556D01*
X210397870Y-64973639D01*
X210422272Y-64971101D01*
X210446806Y-64970967D01*
X210471234Y-64973238D01*
G37*
G04 #@! TD.AperFunction*
G04 #@! TA.AperFunction,SMDPad,CuDef*
G36*
X209787194Y-63093852D02*
G01*
X209811282Y-63098507D01*
X209834798Y-63105501D01*
X209857516Y-63114766D01*
X209879215Y-63126213D01*
X209899688Y-63139732D01*
X209918738Y-63155192D01*
X209936180Y-63172445D01*
X209951848Y-63191325D01*
X209965589Y-63211650D01*
X209977272Y-63233223D01*
X209986784Y-63255838D01*
X210157794Y-63725685D01*
X210165044Y-63749123D01*
X210169961Y-63773159D01*
X210172499Y-63797562D01*
X210172633Y-63822095D01*
X210170361Y-63846523D01*
X210165706Y-63870612D01*
X210158713Y-63894128D01*
X210149448Y-63916845D01*
X210138001Y-63938544D01*
X210124482Y-63959018D01*
X210109022Y-63978067D01*
X210091768Y-63995509D01*
X210072889Y-64011177D01*
X210052564Y-64024918D01*
X210030991Y-64036601D01*
X210008376Y-64046113D01*
X205309912Y-65756214D01*
X205286474Y-65763464D01*
X205262438Y-65768381D01*
X205238036Y-65770919D01*
X205213502Y-65771053D01*
X205189074Y-65768782D01*
X205164986Y-65764127D01*
X205141470Y-65757133D01*
X205118752Y-65747868D01*
X205097053Y-65736421D01*
X205076580Y-65722902D01*
X205057530Y-65707442D01*
X205040088Y-65690189D01*
X205024420Y-65671309D01*
X205010679Y-65650984D01*
X204998996Y-65629411D01*
X204989484Y-65606796D01*
X204818474Y-65136949D01*
X204811224Y-65113511D01*
X204806307Y-65089475D01*
X204803769Y-65065072D01*
X204803635Y-65040539D01*
X204805907Y-65016111D01*
X204810562Y-64992022D01*
X204817555Y-64968506D01*
X204826820Y-64945789D01*
X204838267Y-64924090D01*
X204851786Y-64903616D01*
X204867246Y-64884567D01*
X204884500Y-64867125D01*
X204903379Y-64851457D01*
X204923704Y-64837716D01*
X204945277Y-64826033D01*
X204967892Y-64816521D01*
X209666356Y-63106420D01*
X209689794Y-63099170D01*
X209713830Y-63094253D01*
X209738232Y-63091715D01*
X209762766Y-63091581D01*
X209787194Y-63093852D01*
G37*
G04 #@! TD.AperFunction*
D22*
X159660000Y-82850000D03*
X159660000Y-80310000D03*
X159660000Y-77770000D03*
X159660000Y-75230000D03*
X159660000Y-72690000D03*
X159660000Y-70150000D03*
X159660000Y-67610000D03*
X159660000Y-65070000D03*
X159660000Y-62530000D03*
X159660000Y-59990000D03*
D23*
X159660000Y-54910000D03*
D22*
X159660000Y-57450000D03*
D23*
X139340000Y-82850000D03*
D22*
X139340000Y-80310000D03*
X139340000Y-77770000D03*
X139340000Y-75230000D03*
X139340000Y-72690000D03*
X139340000Y-70150000D03*
X139340000Y-67610000D03*
X139340000Y-65070000D03*
X139340000Y-62530000D03*
X139340000Y-59990000D03*
X139340000Y-57450000D03*
X139340000Y-54910000D03*
X139340000Y-52370000D03*
X139340000Y-49830000D03*
X139340000Y-47290000D03*
X139340000Y-44750000D03*
D24*
X158390000Y-86660000D03*
X140610000Y-86660000D03*
X140610000Y-40940000D03*
X158390000Y-40940000D03*
D25*
X207488134Y-64431317D03*
X162800000Y-97100000D03*
X147100000Y-103400000D03*
X208172174Y-66310703D03*
X143500000Y-53800000D03*
X134500000Y-87300000D03*
X133900000Y-88600000D03*
X152540000Y-90700000D03*
X156845000Y-91495000D03*
X143500000Y-73800000D03*
X150000000Y-64800000D03*
X152000000Y-72100000D03*
X150000000Y-84800000D03*
D26*
X61211211Y-37653278D02*
X87857933Y-64300000D01*
X60211212Y-33438113D02*
X61211211Y-34438112D01*
X61211211Y-34438112D02*
X61211211Y-37653278D01*
X87857933Y-64300000D02*
X103000000Y-64300000D01*
X103411951Y-64711951D02*
X103411951Y-66586785D01*
X103000000Y-64300000D02*
X103411951Y-64711951D01*
X83282042Y-24094221D02*
X87500000Y-28312179D01*
X83282042Y-22680008D02*
X83282042Y-24094221D01*
X87500000Y-28312179D02*
X87500000Y-45300000D01*
X107170722Y-64970722D02*
X107170722Y-67954865D01*
X87500000Y-45300000D02*
X107170722Y-64970722D01*
X103248629Y-24198214D02*
X103248629Y-46548629D01*
X102248630Y-23198215D02*
X103248629Y-24198214D01*
X103248629Y-46548629D02*
X108500000Y-51800000D01*
X108500000Y-51800000D02*
X108500000Y-60800000D01*
X110929492Y-63229492D02*
X110929492Y-69322946D01*
X108500000Y-60800000D02*
X110929492Y-63229492D01*
X117110975Y-34992732D02*
X118800000Y-36681757D01*
X118800000Y-69142715D02*
X116567648Y-71375067D01*
X118800000Y-36681757D02*
X118800000Y-69142715D01*
X119741265Y-55433273D02*
X134025443Y-41149095D01*
X120326419Y-72743147D02*
X119741265Y-72157993D01*
X119741265Y-72157993D02*
X119741265Y-55433273D01*
X175837798Y-72072247D02*
X176422952Y-72657401D01*
X173473409Y-69707858D02*
X175837798Y-72072247D01*
X173473409Y-38731588D02*
X173473409Y-69707858D01*
X174473408Y-37731589D02*
X173473409Y-38731588D01*
X191387875Y-31575227D02*
X188924773Y-31575227D01*
X188924773Y-31575227D02*
X188624773Y-31575227D01*
X188624773Y-31575227D02*
X185300000Y-34900000D01*
X185300000Y-34900000D02*
X185300000Y-59500000D01*
X182061108Y-62738892D02*
X185300000Y-59500000D01*
X182061108Y-70605280D02*
X182061108Y-62738892D01*
X201600000Y-51000000D02*
X187699264Y-64900736D01*
X187699264Y-64900736D02*
X187699264Y-68553159D01*
X201600000Y-36400000D02*
X201600000Y-51000000D01*
X206250222Y-19780708D02*
X206250222Y-31749778D01*
X206250222Y-31749778D02*
X201600000Y-36400000D01*
X225216810Y-19262501D02*
X225216810Y-30783190D01*
X191458034Y-64541966D02*
X191458034Y-67185078D01*
X225216810Y-30783190D02*
X191458034Y-64541966D01*
X197096190Y-65132958D02*
X197096190Y-63703810D01*
X197096190Y-63703810D02*
X209500000Y-51300000D01*
X209500000Y-51300000D02*
X238500000Y-51300000D01*
X248287640Y-41512360D02*
X248287640Y-30020606D01*
X238500000Y-51300000D02*
X248287640Y-41512360D01*
X70886727Y-65902745D02*
X101532566Y-65902745D01*
X54396869Y-49412887D02*
X70886727Y-65902745D01*
X105291337Y-66472692D02*
X105291337Y-67270825D01*
X105291337Y-65064207D02*
X105291337Y-66472692D01*
X78881912Y-38654782D02*
X105291337Y-65064207D01*
X77467699Y-38654782D02*
X78881912Y-38654782D01*
X96434287Y-39172989D02*
X102500000Y-45238702D01*
X102500000Y-45238702D02*
X102500000Y-57300000D01*
X109050107Y-63850107D02*
X109050107Y-68638906D01*
X102500000Y-57300000D02*
X109050107Y-63850107D01*
X114688263Y-54359138D02*
X111296633Y-50967508D01*
X114688263Y-70691027D02*
X114688263Y-54359138D01*
X128208140Y-57119269D02*
X128319269Y-57119269D01*
X122205804Y-63232734D02*
X122205804Y-73427188D01*
X128319269Y-57119269D02*
X122205804Y-63232734D01*
X180287750Y-53706363D02*
X180287750Y-64512250D01*
X178302337Y-66497663D02*
X178302337Y-71973361D01*
X180287750Y-64512250D02*
X178302337Y-66497663D01*
X183940493Y-69921240D02*
X183940493Y-63059507D01*
X183940493Y-63059507D02*
X191300000Y-55700000D01*
X191300000Y-55700000D02*
X191300000Y-51700000D01*
X195449999Y-47550001D02*
X197202217Y-47550001D01*
X191300000Y-51700000D02*
X195449999Y-47550001D01*
X189578649Y-67869119D02*
X189578649Y-64521351D01*
X212064565Y-42035435D02*
X212064565Y-35755482D01*
X189578649Y-64521351D02*
X212064565Y-42035435D01*
D27*
X154580000Y-52370000D02*
X159660000Y-57450000D01*
X139340000Y-52370000D02*
X154580000Y-52370000D01*
X149905000Y-73792000D02*
X150397000Y-73300000D01*
X149905000Y-75400000D02*
X149905000Y-73792000D01*
X150397000Y-73300000D02*
X153500000Y-73300000D01*
X153500000Y-73300000D02*
X156000000Y-70800000D01*
X156000000Y-61110000D02*
X159660000Y-57450000D01*
X156000000Y-70800000D02*
X156000000Y-61110000D01*
X162800000Y-60590000D02*
X159660000Y-57450000D01*
X162800000Y-97100000D02*
X162800000Y-60590000D01*
X147100000Y-103455000D02*
X147100000Y-103400000D01*
D26*
X198975575Y-63650785D02*
X206826360Y-55800000D01*
X198975575Y-64448918D02*
X198975575Y-63650785D01*
X206826360Y-55800000D02*
X252500000Y-55800000D01*
X254101983Y-54198017D02*
X254101983Y-45995380D01*
X252500000Y-55800000D02*
X254101983Y-54198017D01*
X93862728Y-81338334D02*
X93862728Y-72937272D01*
X93862728Y-72937272D02*
X95500000Y-71300000D01*
X111515864Y-71300000D02*
X112808878Y-70006986D01*
X95500000Y-71300000D02*
X111515864Y-71300000D01*
X193337420Y-64162580D02*
X193337420Y-66501038D01*
X219600000Y-37900000D02*
X193337420Y-64162580D01*
X231031152Y-35237277D02*
X228368429Y-37900000D01*
X228368429Y-37900000D02*
X219600000Y-37900000D01*
X110777195Y-87494697D02*
X119105303Y-87494697D01*
X119105303Y-87494697D02*
X123400000Y-83200000D01*
X123400000Y-83200000D02*
X123400000Y-79800000D01*
X118447033Y-74847033D02*
X118447033Y-72059107D01*
X123400000Y-79800000D02*
X118447033Y-74847033D01*
X127691662Y-77717701D02*
X124085189Y-74111228D01*
X127691662Y-93651060D02*
X127691662Y-77717701D01*
X174543567Y-74139574D02*
X174543567Y-73341441D01*
X174543567Y-87379435D02*
X174543567Y-74139574D01*
X177393022Y-90228890D02*
X174543567Y-87379435D01*
X178807235Y-90228890D02*
X177393022Y-90228890D01*
X180181723Y-71289320D02*
X180181723Y-74618277D01*
X180181723Y-74618277D02*
X175600000Y-79200000D01*
X175600000Y-79200000D02*
X175600000Y-83000000D01*
X175600000Y-83000000D02*
X178600000Y-86000000D01*
X193794230Y-86000000D02*
X195721702Y-84072528D01*
X178600000Y-86000000D02*
X193794230Y-86000000D01*
X212636170Y-77916165D02*
X212636170Y-75836170D01*
X212636170Y-75836170D02*
X204900000Y-68100000D01*
X204900000Y-68100000D02*
X194300000Y-68100000D01*
X194300000Y-68100000D02*
X191700000Y-70700000D01*
X187282680Y-70700000D02*
X185819879Y-69237199D01*
X191700000Y-70700000D02*
X187282680Y-70700000D01*
X262766351Y-26300000D02*
X265202108Y-23864243D01*
X240500000Y-26300000D02*
X262766351Y-26300000D01*
X236900000Y-29900000D02*
X240500000Y-26300000D01*
X195216805Y-65816998D02*
X195216805Y-64083195D01*
X211500000Y-47800000D02*
X231400000Y-47800000D01*
X195216805Y-64083195D02*
X211500000Y-47800000D01*
X236900000Y-42300000D02*
X236900000Y-29900000D01*
X231400000Y-47800000D02*
X236900000Y-42300000D01*
X200854961Y-63764877D02*
X206819838Y-57800000D01*
X206819838Y-57800000D02*
X261000000Y-57800000D01*
X271016449Y-47783551D02*
X271016449Y-39839018D01*
X261000000Y-57800000D02*
X271016449Y-47783551D01*
D27*
X128500000Y-100280000D02*
X130800000Y-102580000D01*
X128500000Y-95800000D02*
X128500000Y-100280000D01*
X134500000Y-52130000D02*
X134500000Y-65800000D01*
X139340000Y-47290000D02*
X134500000Y-52130000D01*
X134500000Y-65800000D02*
X129500000Y-70800000D01*
X129500000Y-94800000D02*
X128500000Y-95800000D01*
X129500000Y-70800000D02*
X129500000Y-94800000D01*
X146095000Y-66832500D02*
X146062500Y-66800000D01*
X146095000Y-70200000D02*
X146095000Y-66832500D01*
X146062500Y-66800000D02*
X146062500Y-56362500D01*
X146062500Y-56362500D02*
X143500000Y-53800000D01*
X149300000Y-104583000D02*
X149300000Y-103455000D01*
X148047981Y-105835019D02*
X149300000Y-104583000D01*
X132002081Y-102580000D02*
X135257100Y-105835019D01*
X135257100Y-105835019D02*
X148047981Y-105835019D01*
X130800000Y-102580000D02*
X132002081Y-102580000D01*
D26*
X130800000Y-100040000D02*
X135300000Y-95540000D01*
X135300000Y-88100000D02*
X134500000Y-87300000D01*
X135300000Y-95540000D02*
X135300000Y-88100000D01*
X131904000Y-97500000D02*
X130800000Y-97500000D01*
X134500000Y-94904000D02*
X131904000Y-97500000D01*
X133900000Y-88600000D02*
X134500000Y-89200000D01*
X134500000Y-89200000D02*
X134500000Y-94904000D01*
X141726000Y-102975000D02*
X141500000Y-102749000D01*
X142555000Y-102975000D02*
X141726000Y-102975000D01*
X141500000Y-102749000D02*
X141500000Y-90800000D01*
X141600000Y-90700000D02*
X152540000Y-90700000D01*
X141500000Y-90800000D02*
X141600000Y-90700000D01*
X156945000Y-102825000D02*
X156945000Y-91595000D01*
X147119000Y-73800000D02*
X143500000Y-73800000D01*
X147365000Y-75400000D02*
X147365000Y-74046000D01*
X147365000Y-74046000D02*
X147119000Y-73800000D01*
X137100000Y-77470000D02*
X139340000Y-75230000D01*
X146000000Y-104329000D02*
X145529000Y-104800000D01*
X145529000Y-104800000D02*
X141700000Y-104800000D01*
X141700000Y-104800000D02*
X137100000Y-100200000D01*
X146000000Y-103455000D02*
X146000000Y-104329000D01*
X137100000Y-100200000D02*
X137100000Y-77470000D01*
X150000000Y-67481000D02*
X150000000Y-64800000D01*
X148635000Y-70200000D02*
X148635000Y-68846000D01*
X148635000Y-68846000D02*
X150000000Y-67481000D01*
X136100000Y-73390000D02*
X139340000Y-70150000D01*
X148200000Y-104329000D02*
X147274990Y-105254010D01*
X147274990Y-105254010D02*
X141511943Y-105254009D01*
X148200000Y-103455000D02*
X148200000Y-104329000D01*
X141511943Y-105254009D02*
X136100000Y-99842066D01*
X136100000Y-99842066D02*
X136100000Y-73390000D01*
X150400000Y-104329000D02*
X151471000Y-105400000D01*
X150400000Y-103455000D02*
X150400000Y-104329000D01*
X151471000Y-105400000D02*
X155000000Y-105400000D01*
X155000000Y-88350000D02*
X139340000Y-72690000D01*
X155000000Y-105400000D02*
X155000000Y-88350000D01*
X149905000Y-70200000D02*
X149905000Y-71705000D01*
X149905000Y-71705000D02*
X150300000Y-72100000D01*
X150300000Y-72100000D02*
X152000000Y-72100000D01*
X151844000Y-104673000D02*
X154100000Y-104673000D01*
X151500000Y-103455000D02*
X151500000Y-104329000D01*
X151500000Y-104329000D02*
X151844000Y-104673000D01*
X154100000Y-104673000D02*
X154100000Y-88900000D01*
X154100000Y-88900000D02*
X150000000Y-84800000D01*
X146095000Y-75400000D02*
X146095000Y-76754000D01*
X147111000Y-77770000D02*
X159660000Y-77770000D01*
X146095000Y-76754000D02*
X147111000Y-77770000D01*
X147365000Y-67372500D02*
X147937500Y-66800000D01*
X147365000Y-70200000D02*
X147365000Y-67372500D01*
X147365000Y-72776000D02*
X147365000Y-71554000D01*
X147365000Y-71554000D02*
X147365000Y-70200000D01*
X148635000Y-74046000D02*
X147365000Y-72776000D01*
X148635000Y-75400000D02*
X148635000Y-74046000D01*
M02*
