M48
; DRILL file {KiCad 5.1.8} date Sun Feb 14 21:35:48 2021
; FORMAT={-:-/ absolute / inch / decimal}
; #@! TF.CreationDate,2021-02-14T21:35:48-06:00
; #@! TF.GenerationSoftware,Kicad,Pcbnew,5.1.8
; #@! TF.FileFunction,Plated,1,2,PTH
FMAT,2
INCH
T1C0.0157
T2C0.0472
%
G90
G05
T1
X2.5694Y-3.6166
X3.9171Y-4.4134
X4.0972Y-3.8717
X4.5895Y-4.6371
X4.7821Y-4.058
X4.8922Y-3.8135
X4.9513Y-5.2308
X5.1088Y-4.2465
X5.1521Y-3.5654
X5.2072Y-3.8725
X5.2466Y-4.6205
X5.3253Y-3.3607
X5.3565Y-3.865
X5.4041Y-4.6205
X5.4549Y-3.8453
X5.467Y-4.6835
X5.4789Y-3.6087
X5.4828Y-3.5237
X5.4828Y-3.5632
X5.5261Y-4.2426
X5.5419Y-4.3922
X5.5615Y-3.282
X5.5615Y-3.8922
X5.6009Y-4.404
X5.6009Y-3.9709
X5.6363Y-4.5182
X5.6505Y-4.0205
X5.6664Y-3.0973
X5.688Y-4.0581
X5.7254Y-4.0954
X5.7305Y-2.9631
X5.754Y-4.1328
X5.7584Y-4.4434
X5.7781Y-3.5576
X5.7781Y-3.656
X5.7802Y-4.17
X5.782Y-2.9068
X5.8171Y-4.2075
X5.8371Y-4.2465
X5.8371Y-4.3843
X5.8568Y-3.2426
X5.8683Y-2.9004
X5.8763Y-4.2658
X5.8962Y-3.2623
X5.8962Y-4.3056
X5.8962Y-4.5221
X5.9159Y-3.3017
X5.9274Y-3.0973
X5.9554Y-3.3017
X6.0143Y-3.2426
X6.0143Y-3.3607
X6.0143Y-3.7938
X6.0537Y-3.8922
X6.0537Y-4.2662
X6.093Y-3.2032
X6.093Y-3.9906
X6.1324Y-3.6362
X6.2308Y-3.0457
X6.2308Y-3.3607
X6.408Y-3.8135
X6.5216Y-4.0207
X6.6164Y-5.2429
X6.6836Y-3.8135
X6.7515Y-4.7118
X7.2065Y-3.8344
X7.4239Y-4.4881
X7.8913Y-3.6481
X8.0964Y-4.2644
X9.5773Y-3.3804
T2
X8.9763Y-2.6067
X9.1892Y-2.623
X4.145Y-2.419
X4.3057Y-2.5595
X10.5449Y-2.8317
X10.7578Y-2.848
X4.682Y-4.7344
X4.8426Y-4.875
X6.8835Y-4.7343
X7.0963Y-4.7506
X7.6315Y-3.054
X7.8444Y-3.0703
X8.2283Y-4.2869
X8.4412Y-4.3033
X4.8175Y-2.6426
X4.9782Y-2.7832
X8.0181Y-1.9711
X8.231Y-1.9874
X10.3336Y-2.1966
X10.5465Y-2.213
X4.6061Y-3.2775
X4.7668Y-3.4181
X3.9338Y-3.054
X4.0945Y-3.1946
X6.7478Y-2.6426
X6.9607Y-2.659
X1.6928Y-3.0554
X1.8535Y-3.196
X3.5472Y-1.9711
X3.7079Y-2.1117
X7.5559Y-4.5106
X7.7688Y-4.5269
X6.959Y-3.2777
X7.1719Y-3.294
X9.8725Y-3.0554
X10.0853Y-3.0717
X2.5889Y-2.6066
X2.7496Y-2.7472
X1.9041Y-2.4203
X2.0647Y-2.5609
X1.0204Y-2.8317
X1.181Y-2.9723
X4.0095Y-4.5108
X4.1702Y-4.6513
X7.4202Y-2.419
X7.6331Y-2.4353
X8.2293Y-2.6062
X8.4422Y-2.6225
X3.3359Y-2.6062
X3.4966Y-2.7468
X8.7651Y-1.9716
X8.978Y-1.9879
X2.8002Y-1.9716
X2.9609Y-2.1122
X1.2316Y-2.1966
X1.3923Y-2.3372
X3.3371Y-4.2871
X3.4978Y-4.4277
X9.6612Y-2.4203
X9.8741Y-2.4366
T0
M30
