G04 #@! TF.GenerationSoftware,KiCad,Pcbnew,5.1.8*
G04 #@! TF.CreationDate,2021-03-01T17:51:10-06:00*
G04 #@! TF.ProjectId,steno,7374656e-6f2e-46b6-9963-61645f706362,rev?*
G04 #@! TF.SameCoordinates,Original*
G04 #@! TF.FileFunction,Profile,NP*
%FSLAX46Y46*%
G04 Gerber Fmt 4.6, Leading zero omitted, Abs format (unit mm)*
G04 Created by KiCad (PCBNEW 5.1.8) date 2021-03-01 17:51:10*
%MOMM*%
%LPD*%
G01*
G04 APERTURE LIST*
G04 #@! TA.AperFunction,Profile*
%ADD10C,0.050000*%
G04 #@! TD*
G04 APERTURE END LIST*
D10*
X264972815Y-55605229D02*
X264783551Y-55031678D01*
X264783551Y-55031678D02*
X264345136Y-54525580D01*
X264345136Y-54525580D02*
X263672667Y-54083993D01*
X263672667Y-54083993D02*
X262781246Y-53703976D01*
X262781246Y-53703976D02*
X261685970Y-53382588D01*
X261685970Y-53382588D02*
X260401941Y-53116886D01*
X260401941Y-53116886D02*
X258944256Y-52903930D01*
X258944256Y-52903930D02*
X257328017Y-52740779D01*
X257328017Y-52740779D02*
X255568321Y-52624490D01*
X255568321Y-52624490D02*
X253680269Y-52552123D01*
X253680269Y-52552123D02*
X251678961Y-52520737D01*
X251678961Y-52520737D02*
X249579495Y-52527389D01*
X249579495Y-52527389D02*
X247396971Y-52569139D01*
X247396971Y-52569139D02*
X245146489Y-52643046D01*
X245146489Y-52643046D02*
X242843148Y-52746167D01*
X242843148Y-52746167D02*
X240502048Y-52875562D01*
X240502048Y-52875562D02*
X238138288Y-53028290D01*
X238138288Y-53028290D02*
X235766967Y-53201408D01*
X235766967Y-53201408D02*
X233403186Y-53391976D01*
X233403186Y-53391976D02*
X231062043Y-53597052D01*
X231062043Y-53597052D02*
X228758639Y-53813695D01*
X228758639Y-53813695D02*
X226508072Y-54038963D01*
X226508072Y-54038963D02*
X224325443Y-54269916D01*
X224325443Y-54269916D02*
X222225850Y-54503611D01*
X222225850Y-54503611D02*
X220224393Y-54737108D01*
X220224393Y-54737108D02*
X218336172Y-54967466D01*
X218336172Y-54967466D02*
X216576286Y-55191742D01*
X216576286Y-55191742D02*
X214959834Y-55406995D01*
X214959834Y-55406995D02*
X213501917Y-55610285D01*
X213501917Y-55610285D02*
X212217633Y-55798670D01*
X212217633Y-55798670D02*
X211122082Y-55969207D01*
X211122082Y-55969207D02*
X210230365Y-56118958D01*
X210230365Y-56118958D02*
X208854865Y-56403921D01*
X208854865Y-56403921D02*
X207425594Y-56688114D01*
X207425594Y-56688114D02*
X205943746Y-56969454D01*
X205943746Y-56969454D02*
X204410520Y-57245860D01*
X204410520Y-57245860D02*
X202827111Y-57515247D01*
X202827111Y-57515247D02*
X201194716Y-57775533D01*
X201194716Y-57775533D02*
X199514532Y-58024635D01*
X199514532Y-58024635D02*
X197787755Y-58260471D01*
X197787755Y-58260471D02*
X196015581Y-58480957D01*
X196015581Y-58480957D02*
X194199208Y-58684012D01*
X194199208Y-58684012D02*
X192339831Y-58867552D01*
X192339831Y-58867552D02*
X190438648Y-59029494D01*
X190438648Y-59029494D02*
X188496855Y-59167755D01*
X188496855Y-59167755D02*
X186515648Y-59280254D01*
X186515648Y-59280254D02*
X184496225Y-59364907D01*
X184496225Y-59364907D02*
X182439781Y-59419631D01*
X182439781Y-59419631D02*
X180347513Y-59442343D01*
X180347513Y-59442343D02*
X178220618Y-59430962D01*
X178220618Y-59430962D02*
X176060292Y-59383403D01*
X176060292Y-59383403D02*
X173867732Y-59297585D01*
X173867732Y-59297585D02*
X171644135Y-59171424D01*
X171644135Y-59171424D02*
X169390696Y-59002838D01*
X169390696Y-59002838D02*
X167108613Y-58789743D01*
X167108613Y-58789743D02*
X164799082Y-58530058D01*
X164799082Y-58530058D02*
X162463300Y-58221699D01*
X162463300Y-58221699D02*
X160102463Y-57862584D01*
X160102463Y-57862584D02*
X157717768Y-57450630D01*
X157717768Y-57450630D02*
X155310411Y-56983753D01*
X155310411Y-56983753D02*
X152881589Y-56459872D01*
X152881589Y-56459872D02*
X150432499Y-55876904D01*
X150432499Y-55876904D02*
X147964336Y-55232765D01*
X147964336Y-55232765D02*
X145478299Y-54525374D01*
X145478299Y-54525374D02*
X135374474Y-54521487D01*
X270182260Y-85149460D02*
X264972815Y-55605229D01*
X270182261Y-85149460D02*
G75*
G02*
X269371101Y-86307916I-984808J-173648D01*
G01*
X208830360Y-125922540D02*
G75*
G02*
X208019200Y-127080998I-984809J-173649D01*
G01*
X158777709Y-135763604D02*
X208019200Y-127080998D01*
X72833575Y-127077112D02*
X122078467Y-135762340D01*
X72833575Y-127077110D02*
G75*
G02*
X72022417Y-125918656I173648J984806D01*
G01*
X10670513Y-85145575D02*
X15879958Y-55601342D01*
X11481673Y-86304031D02*
G75*
G02*
X10670513Y-85145575I173648J984808D01*
G01*
X269371101Y-86307916D02*
X263421463Y-87357976D01*
X263421463Y-87357976D02*
X257843789Y-88347741D01*
X257843789Y-88347741D02*
X252627062Y-89284454D01*
X252627062Y-89284454D02*
X247760264Y-90175356D01*
X247760264Y-90175356D02*
X243232377Y-91027689D01*
X243232377Y-91027689D02*
X239032384Y-91848694D01*
X239032384Y-91848694D02*
X235149268Y-92645613D01*
X235149268Y-92645613D02*
X231572012Y-93425687D01*
X231572012Y-93425687D02*
X228289597Y-94196159D01*
X228289597Y-94196159D02*
X225291007Y-94964270D01*
X225291007Y-94964270D02*
X222565224Y-95737262D01*
X222565224Y-95737262D02*
X220101230Y-96522376D01*
X220101230Y-96522376D02*
X217888009Y-97326854D01*
X217888009Y-97326854D02*
X215914542Y-98157938D01*
X215914542Y-98157938D02*
X214169813Y-99022869D01*
X214169813Y-99022869D02*
X212642804Y-99928889D01*
X212642804Y-99928889D02*
X211322498Y-100883240D01*
X211322498Y-100883240D02*
X210197876Y-101893164D01*
X210197876Y-101893164D02*
X209257922Y-102965901D01*
X209257922Y-102965901D02*
X208491619Y-104108695D01*
X208491619Y-104108695D02*
X207887948Y-105328786D01*
X207887948Y-105328786D02*
X207435893Y-106633416D01*
X207435893Y-106633416D02*
X207124436Y-108029827D01*
X207124436Y-108029827D02*
X206942559Y-109525261D01*
X206942559Y-109525261D02*
X206879246Y-111126958D01*
X206879246Y-111126958D02*
X206923478Y-112842162D01*
X206923478Y-112842162D02*
X207064239Y-114678113D01*
X207064239Y-114678113D02*
X207290510Y-116642054D01*
X207290510Y-116642054D02*
X207591275Y-118741225D01*
X207591275Y-118741225D02*
X207955517Y-120982869D01*
X207955517Y-120982869D02*
X208372216Y-123374227D01*
X208372216Y-123374227D02*
X208830358Y-125922542D01*
X152881901Y-119412829D02*
X127881899Y-119412831D01*
X152881901Y-120412831D02*
X152881901Y-119412829D01*
X127881902Y-120412830D02*
X152881901Y-120412831D01*
X127881899Y-119412831D02*
X127881902Y-120412830D01*
X122078467Y-135762340D02*
X123211459Y-135988400D01*
X123211459Y-135988400D02*
X124344066Y-136199877D01*
X124344066Y-136199877D02*
X125476414Y-136396769D01*
X125476414Y-136396769D02*
X126608633Y-136579077D01*
X126608633Y-136579077D02*
X127740849Y-136746802D01*
X127740849Y-136746802D02*
X128873191Y-136899943D01*
X128873191Y-136899943D02*
X130005787Y-137038502D01*
X130005787Y-137038502D02*
X131138764Y-137162477D01*
X131138764Y-137162477D02*
X132272252Y-137271869D01*
X132272252Y-137271869D02*
X133406378Y-137366680D01*
X133406378Y-137366680D02*
X134541270Y-137446907D01*
X134541270Y-137446907D02*
X135677056Y-137512553D01*
X135677056Y-137512553D02*
X136813864Y-137563617D01*
X136813864Y-137563617D02*
X137951822Y-137600100D01*
X137951822Y-137600100D02*
X139091059Y-137622001D01*
X139091059Y-137622001D02*
X140231702Y-137629321D01*
X140231702Y-137629321D02*
X141373878Y-137622060D01*
X141373878Y-137622060D02*
X142517718Y-137600219D01*
X142517718Y-137600219D02*
X143663347Y-137563797D01*
X143663347Y-137563797D02*
X144810895Y-137512795D01*
X144810895Y-137512795D02*
X145960490Y-137447213D01*
X145960490Y-137447213D02*
X147112258Y-137367052D01*
X147112258Y-137367052D02*
X148266330Y-137272311D01*
X148266330Y-137272311D02*
X149422832Y-137162990D01*
X149422832Y-137162990D02*
X150581892Y-137039091D01*
X150581892Y-137039091D02*
X151743639Y-136900613D01*
X151743639Y-136900613D02*
X152908200Y-136747556D01*
X152908200Y-136747556D02*
X154075705Y-136579922D01*
X154075705Y-136579922D02*
X155246279Y-136397709D01*
X155246279Y-136397709D02*
X156420053Y-136200918D01*
X156420053Y-136200918D02*
X157597153Y-135989549D01*
X157597153Y-135989549D02*
X158777709Y-135763604D01*
X11481672Y-86304036D02*
X17431666Y-87354063D01*
X17431666Y-87354063D02*
X23009674Y-88343798D01*
X23009674Y-88343798D02*
X28226713Y-89280483D01*
X28226713Y-89280483D02*
X33093799Y-90171359D01*
X33093799Y-90171359D02*
X37621951Y-91023667D01*
X37621951Y-91023667D02*
X41822186Y-91844650D01*
X41822186Y-91844650D02*
X45705521Y-92641549D01*
X45705521Y-92641549D02*
X49282973Y-93421605D01*
X49282973Y-93421605D02*
X52565560Y-94192061D01*
X52565560Y-94192061D02*
X55564300Y-94960158D01*
X55564300Y-94960158D02*
X58290210Y-95733138D01*
X58290210Y-95733138D02*
X60754307Y-96518243D01*
X60754307Y-96518243D02*
X62967609Y-97322713D01*
X62967609Y-97322713D02*
X64941133Y-98153792D01*
X64941133Y-98153792D02*
X66685897Y-99018720D01*
X66685897Y-99018720D02*
X68212917Y-99924739D01*
X68212917Y-99924739D02*
X69533212Y-100879091D01*
X69533212Y-100879091D02*
X70657799Y-101889017D01*
X70657799Y-101889017D02*
X71597695Y-102961760D01*
X71597695Y-102961760D02*
X72363918Y-104104561D01*
X72363918Y-104104561D02*
X72967485Y-105324661D01*
X72967485Y-105324661D02*
X73419414Y-106629302D01*
X73419414Y-106629302D02*
X73730721Y-108025727D01*
X73730721Y-108025727D02*
X73912425Y-109521176D01*
X73912425Y-109521176D02*
X73975543Y-111122891D01*
X73975543Y-111122891D02*
X73931092Y-112838114D01*
X73931092Y-112838114D02*
X73790089Y-114674087D01*
X73790089Y-114674087D02*
X73563553Y-116638052D01*
X73563553Y-116638052D02*
X73262500Y-118737249D01*
X73262500Y-118737249D02*
X72897948Y-120978921D01*
X72897948Y-120978921D02*
X72480914Y-123370309D01*
X72480914Y-123370309D02*
X72022417Y-125918656D01*
X70622408Y-56115073D02*
X71997907Y-56400035D01*
X71997907Y-56400035D02*
X73427178Y-56684229D01*
X73427178Y-56684229D02*
X74909026Y-56965569D01*
X74909026Y-56965569D02*
X76442252Y-57241974D01*
X76442252Y-57241974D02*
X78025661Y-57511361D01*
X78025661Y-57511361D02*
X79658056Y-57771647D01*
X79658056Y-57771647D02*
X81338240Y-58020749D01*
X81338240Y-58020749D02*
X83065017Y-58256585D01*
X83065017Y-58256585D02*
X84837191Y-58477071D01*
X84837191Y-58477071D02*
X86653564Y-58680126D01*
X86653564Y-58680126D02*
X88512940Y-58863665D01*
X88512940Y-58863665D02*
X90414123Y-59025607D01*
X90414123Y-59025607D02*
X92355917Y-59163869D01*
X92355917Y-59163869D02*
X94337123Y-59276368D01*
X94337123Y-59276368D02*
X96356547Y-59361020D01*
X96356547Y-59361020D02*
X98412991Y-59415744D01*
X98412991Y-59415744D02*
X100505259Y-59438457D01*
X100505259Y-59438457D02*
X102632154Y-59427075D01*
X102632154Y-59427075D02*
X104792479Y-59379517D01*
X104792479Y-59379517D02*
X106985039Y-59293698D01*
X106985039Y-59293698D02*
X109208637Y-59167537D01*
X109208637Y-59167537D02*
X111462075Y-58998951D01*
X111462075Y-58998951D02*
X113744158Y-58785857D01*
X113744158Y-58785857D02*
X116053689Y-58526172D01*
X116053689Y-58526172D02*
X118389471Y-58217813D01*
X118389471Y-58217813D02*
X120750308Y-57858697D01*
X120750308Y-57858697D02*
X123135004Y-57446743D01*
X123135004Y-57446743D02*
X125542361Y-56979867D01*
X125542361Y-56979867D02*
X127971183Y-56455986D01*
X127971183Y-56455986D02*
X130420273Y-55873017D01*
X130420273Y-55873017D02*
X132888436Y-55228878D01*
X132888436Y-55228878D02*
X135374474Y-54521487D01*
X15879958Y-55601342D02*
X16069221Y-55027791D01*
X16069221Y-55027791D02*
X16507636Y-54521693D01*
X16507636Y-54521693D02*
X17180105Y-54080107D01*
X17180105Y-54080107D02*
X18071526Y-53700090D01*
X18071526Y-53700090D02*
X19166802Y-53378701D01*
X19166802Y-53378701D02*
X20450831Y-53112999D01*
X20450831Y-53112999D02*
X21908516Y-52900044D01*
X21908516Y-52900044D02*
X23524755Y-52736892D01*
X23524755Y-52736892D02*
X25284451Y-52620604D01*
X25284451Y-52620604D02*
X27172503Y-52548237D01*
X27172503Y-52548237D02*
X29173811Y-52516850D01*
X29173811Y-52516850D02*
X31273277Y-52523503D01*
X31273277Y-52523503D02*
X33455801Y-52565253D01*
X33455801Y-52565253D02*
X35706283Y-52639160D01*
X35706283Y-52639160D02*
X38009624Y-52742281D01*
X38009624Y-52742281D02*
X40350724Y-52871676D01*
X40350724Y-52871676D02*
X42714484Y-53024404D01*
X42714484Y-53024404D02*
X45085805Y-53197522D01*
X45085805Y-53197522D02*
X47449586Y-53388090D01*
X47449586Y-53388090D02*
X49790729Y-53593166D01*
X49790729Y-53593166D02*
X52094133Y-53809809D01*
X52094133Y-53809809D02*
X54344700Y-54035077D01*
X54344700Y-54035077D02*
X56527329Y-54266030D01*
X56527329Y-54266030D02*
X58626922Y-54499726D01*
X58626922Y-54499726D02*
X60628379Y-54733223D01*
X60628379Y-54733223D02*
X62516600Y-54963580D01*
X62516600Y-54963580D02*
X64276486Y-55187856D01*
X64276486Y-55187856D02*
X65892938Y-55403110D01*
X65892938Y-55403110D02*
X67350855Y-55606400D01*
X67350855Y-55606400D02*
X68635139Y-55794784D01*
X68635139Y-55794784D02*
X69730690Y-55965322D01*
X69730690Y-55965322D02*
X70622408Y-56115073D01*
M02*
