G04 #@! TF.GenerationSoftware,KiCad,Pcbnew,5.1.8*
G04 #@! TF.CreationDate,2021-02-19T14:28:04-06:00*
G04 #@! TF.ProjectId,steno,7374656e-6f2e-46b6-9963-61645f706362,rev?*
G04 #@! TF.SameCoordinates,Original*
G04 #@! TF.FileFunction,Soldermask,Bot*
G04 #@! TF.FilePolarity,Negative*
%FSLAX46Y46*%
G04 Gerber Fmt 4.6, Leading zero omitted, Abs format (unit mm)*
G04 Created by KiCad (PCBNEW 5.1.8) date 2021-02-19 14:28:04*
%MOMM*%
%LPD*%
G01*
G04 APERTURE LIST*
%ADD10C,2.102000*%
%ADD11C,3.502000*%
%ADD12C,1.802000*%
%ADD13C,1.102000*%
%ADD14C,0.100000*%
G04 APERTURE END LIST*
D10*
X176462152Y-86141609D03*
D11*
X172197976Y-90752119D03*
D12*
X177614419Y-89797054D03*
X166781534Y-91707184D03*
D10*
X171173452Y-84941753D03*
X194040972Y-83041989D03*
D11*
X189776796Y-87652499D03*
D12*
X195193239Y-86697434D03*
X184360354Y-88607564D03*
D10*
X188752272Y-81842133D03*
X211394287Y-76935853D03*
D11*
X207130111Y-81546363D03*
D12*
X212546554Y-80591298D03*
X201713669Y-82501428D03*
D10*
X206105587Y-75735997D03*
X229641772Y-76764608D03*
D11*
X225377596Y-81375118D03*
D12*
X230794039Y-80420053D03*
X219961154Y-82330183D03*
D10*
X224353072Y-75564752D03*
X248236551Y-78562979D03*
D11*
X243972375Y-83173489D03*
D12*
X249388818Y-82218424D03*
X238555933Y-84128554D03*
D10*
X242947851Y-77363123D03*
X265963091Y-75437312D03*
D11*
X261698915Y-80047822D03*
D12*
X267115358Y-79092757D03*
X256282473Y-81002887D03*
D10*
X260674391Y-74237456D03*
X173510139Y-69399882D03*
D11*
X169245963Y-74010392D03*
D12*
X174662406Y-73055327D03*
X163829521Y-74965457D03*
D10*
X168221439Y-68200026D03*
X191236677Y-66274214D03*
D11*
X186972501Y-70884724D03*
D12*
X192388944Y-69929659D03*
X181556059Y-71839789D03*
D10*
X185947977Y-65074358D03*
X208407545Y-59997161D03*
D11*
X204143369Y-64607671D03*
D12*
X209559812Y-63652606D03*
X198726927Y-65562736D03*
D10*
X203118845Y-58797305D03*
X226689759Y-60022880D03*
D11*
X222425583Y-64633390D03*
D12*
X227842026Y-63678325D03*
X217009141Y-65588455D03*
D10*
X221401059Y-58823024D03*
X245284538Y-61821252D03*
D11*
X241020362Y-66431762D03*
D12*
X246436805Y-65476697D03*
X235603920Y-67386827D03*
D10*
X239995838Y-60621396D03*
X263011079Y-58695583D03*
D11*
X258746903Y-63306093D03*
D12*
X264163346Y-62351028D03*
X253330461Y-64261158D03*
D10*
X257722379Y-57495727D03*
X169158115Y-122461730D03*
D11*
X164893939Y-127072240D03*
D12*
X170310382Y-126117175D03*
X159477497Y-128027305D03*
D10*
X163869415Y-121261874D03*
X186884648Y-119336060D03*
D11*
X182620472Y-123946570D03*
D12*
X188036915Y-122991505D03*
X177204030Y-124901635D03*
D10*
X181595948Y-118136204D03*
X204611189Y-116210393D03*
D11*
X200347013Y-120820903D03*
D12*
X205763456Y-119865838D03*
X194930571Y-121775968D03*
D10*
X199322489Y-115010537D03*
X27752631Y-60428177D03*
D11*
X22168729Y-63302205D03*
D12*
X27585171Y-64257270D03*
X16752286Y-62347140D03*
D10*
X23193253Y-57491839D03*
X121605594Y-124194324D03*
D11*
X116021692Y-127068352D03*
D12*
X121438134Y-128023417D03*
X110605249Y-126113287D03*
D10*
X117046216Y-121257986D03*
X103879056Y-121068657D03*
D11*
X98295154Y-123942685D03*
D12*
X103711596Y-124897750D03*
X92878711Y-122987620D03*
D10*
X99319678Y-118132319D03*
X86152515Y-117942990D03*
D11*
X80568613Y-120817018D03*
D12*
X85985055Y-121772083D03*
X75152170Y-119861953D03*
D10*
X81593137Y-115006652D03*
X109742173Y-84937870D03*
D12*
X103301206Y-89793171D03*
X114134091Y-91703301D03*
D11*
X108717649Y-90748236D03*
D10*
X114301551Y-87874208D03*
X92015634Y-81812201D03*
D12*
X85574667Y-86667502D03*
X96407552Y-88577632D03*
D11*
X90991110Y-87622567D03*
D10*
X96575012Y-84748539D03*
X74810040Y-75732112D03*
D12*
X68369073Y-80587413D03*
X79201958Y-82497543D03*
D11*
X73785516Y-81542478D03*
D10*
X79369418Y-78668450D03*
X61121933Y-78497206D03*
D11*
X55538031Y-81371234D03*
D12*
X60954473Y-82326299D03*
X50121588Y-80416169D03*
D10*
X56562555Y-75560868D03*
X42527152Y-80295576D03*
D11*
X36943250Y-83169604D03*
D12*
X42359692Y-84124669D03*
X31526807Y-82214539D03*
D10*
X37967774Y-77359238D03*
X24800614Y-77169909D03*
D11*
X19216712Y-80043937D03*
D12*
X24633154Y-80999002D03*
X13800269Y-79088872D03*
D10*
X20241236Y-74233571D03*
X117253571Y-71132474D03*
D11*
X111669669Y-74006502D03*
D12*
X117086111Y-74961567D03*
X106253226Y-73051437D03*
D10*
X112694193Y-68196136D03*
X99561762Y-67809846D03*
D11*
X93977860Y-70683874D03*
D12*
X99394302Y-71638939D03*
X88561417Y-69728809D03*
D10*
X95002384Y-64873508D03*
X82321436Y-61926717D03*
D11*
X76737534Y-64800745D03*
D12*
X82153976Y-65755810D03*
X71321091Y-63845680D03*
D10*
X77762058Y-58990379D03*
X64073951Y-61755473D03*
D11*
X58490049Y-64629501D03*
D12*
X63906491Y-65584566D03*
X53073606Y-63674436D03*
D10*
X59514573Y-58819135D03*
X45479171Y-63553846D03*
D11*
X39895269Y-66427874D03*
D12*
X45311711Y-67382939D03*
X34478826Y-65472809D03*
D10*
X40919793Y-60617508D03*
G36*
G01*
X157405899Y-79969740D02*
X156305899Y-79969740D01*
G75*
G02*
X156254899Y-79918740I0J51000D01*
G01*
X156254899Y-78018740D01*
G75*
G02*
X156305899Y-77967740I51000J0D01*
G01*
X157405899Y-77967740D01*
G75*
G02*
X157456899Y-78018740I0J-51000D01*
G01*
X157456899Y-79918740D01*
G75*
G02*
X157405899Y-79969740I-51000J0D01*
G01*
G37*
G36*
G01*
X157405899Y-76269740D02*
X156305899Y-76269740D01*
G75*
G02*
X156254899Y-76218740I0J51000D01*
G01*
X156254899Y-74318740D01*
G75*
G02*
X156305899Y-74267740I51000J0D01*
G01*
X157405899Y-74267740D01*
G75*
G02*
X157456899Y-74318740I0J-51000D01*
G01*
X157456899Y-76218740D01*
G75*
G02*
X157405899Y-76269740I-51000J0D01*
G01*
G37*
G36*
G01*
X155105899Y-76269740D02*
X154005899Y-76269740D01*
G75*
G02*
X153954899Y-76218740I0J51000D01*
G01*
X153954899Y-74318740D01*
G75*
G02*
X154005899Y-74267740I51000J0D01*
G01*
X155105899Y-74267740D01*
G75*
G02*
X155156899Y-74318740I0J-51000D01*
G01*
X155156899Y-76218740D01*
G75*
G02*
X155105899Y-76269740I-51000J0D01*
G01*
G37*
G36*
G01*
X155105899Y-79969740D02*
X154005899Y-79969740D01*
G75*
G02*
X153954899Y-79918740I0J51000D01*
G01*
X153954899Y-78018740D01*
G75*
G02*
X154005899Y-77967740I51000J0D01*
G01*
X155105899Y-77967740D01*
G75*
G02*
X155156899Y-78018740I0J-51000D01*
G01*
X155156899Y-79918740D01*
G75*
G02*
X155105899Y-79969740I-51000J0D01*
G01*
G37*
D13*
X158913327Y-116810080D03*
X158913327Y-70310080D03*
X121913327Y-70310080D03*
G36*
G01*
X145864327Y-103110080D02*
X145864327Y-108110080D01*
G75*
G02*
X145813327Y-108161080I-51000J0D01*
G01*
X145413327Y-108161080D01*
G75*
G02*
X145362327Y-108110080I0J51000D01*
G01*
X145362327Y-103110080D01*
G75*
G02*
X145413327Y-103059080I51000J0D01*
G01*
X145813327Y-103059080D01*
G75*
G02*
X145864327Y-103110080I0J-51000D01*
G01*
G37*
G36*
G01*
X145064327Y-103110080D02*
X145064327Y-108110080D01*
G75*
G02*
X145013327Y-108161080I-51000J0D01*
G01*
X144613327Y-108161080D01*
G75*
G02*
X144562327Y-108110080I0J51000D01*
G01*
X144562327Y-103110080D01*
G75*
G02*
X144613327Y-103059080I51000J0D01*
G01*
X145013327Y-103059080D01*
G75*
G02*
X145064327Y-103110080I0J-51000D01*
G01*
G37*
G36*
G01*
X144264327Y-103110080D02*
X144264327Y-108110080D01*
G75*
G02*
X144213327Y-108161080I-51000J0D01*
G01*
X143813327Y-108161080D01*
G75*
G02*
X143762327Y-108110080I0J51000D01*
G01*
X143762327Y-103110080D01*
G75*
G02*
X143813327Y-103059080I51000J0D01*
G01*
X144213327Y-103059080D01*
G75*
G02*
X144264327Y-103110080I0J-51000D01*
G01*
G37*
G36*
G01*
X143464327Y-103110080D02*
X143464327Y-108110080D01*
G75*
G02*
X143413327Y-108161080I-51000J0D01*
G01*
X143013327Y-108161080D01*
G75*
G02*
X142962327Y-108110080I0J51000D01*
G01*
X142962327Y-103110080D01*
G75*
G02*
X143013327Y-103059080I51000J0D01*
G01*
X143413327Y-103059080D01*
G75*
G02*
X143464327Y-103110080I0J-51000D01*
G01*
G37*
G36*
G01*
X142664327Y-103110080D02*
X142664327Y-108110080D01*
G75*
G02*
X142613327Y-108161080I-51000J0D01*
G01*
X142213327Y-108161080D01*
G75*
G02*
X142162327Y-108110080I0J51000D01*
G01*
X142162327Y-103110080D01*
G75*
G02*
X142213327Y-103059080I51000J0D01*
G01*
X142613327Y-103059080D01*
G75*
G02*
X142664327Y-103110080I0J-51000D01*
G01*
G37*
G36*
G01*
X141864327Y-103110080D02*
X141864327Y-108110080D01*
G75*
G02*
X141813327Y-108161080I-51000J0D01*
G01*
X141413327Y-108161080D01*
G75*
G02*
X141362327Y-108110080I0J51000D01*
G01*
X141362327Y-103110080D01*
G75*
G02*
X141413327Y-103059080I51000J0D01*
G01*
X141813327Y-103059080D01*
G75*
G02*
X141864327Y-103110080I0J-51000D01*
G01*
G37*
G36*
G01*
X141064327Y-103110080D02*
X141064327Y-108110080D01*
G75*
G02*
X141013327Y-108161080I-51000J0D01*
G01*
X140613327Y-108161080D01*
G75*
G02*
X140562327Y-108110080I0J51000D01*
G01*
X140562327Y-103110080D01*
G75*
G02*
X140613327Y-103059080I51000J0D01*
G01*
X141013327Y-103059080D01*
G75*
G02*
X141064327Y-103110080I0J-51000D01*
G01*
G37*
G36*
G01*
X140264327Y-103110080D02*
X140264327Y-108110080D01*
G75*
G02*
X140213327Y-108161080I-51000J0D01*
G01*
X139813327Y-108161080D01*
G75*
G02*
X139762327Y-108110080I0J51000D01*
G01*
X139762327Y-103110080D01*
G75*
G02*
X139813327Y-103059080I51000J0D01*
G01*
X140213327Y-103059080D01*
G75*
G02*
X140264327Y-103110080I0J-51000D01*
G01*
G37*
G36*
G01*
X139464327Y-103110080D02*
X139464327Y-108110080D01*
G75*
G02*
X139413327Y-108161080I-51000J0D01*
G01*
X139013327Y-108161080D01*
G75*
G02*
X138962327Y-108110080I0J51000D01*
G01*
X138962327Y-103110080D01*
G75*
G02*
X139013327Y-103059080I51000J0D01*
G01*
X139413327Y-103059080D01*
G75*
G02*
X139464327Y-103110080I0J-51000D01*
G01*
G37*
G36*
G01*
X138664327Y-103110080D02*
X138664327Y-108110080D01*
G75*
G02*
X138613327Y-108161080I-51000J0D01*
G01*
X138213327Y-108161080D01*
G75*
G02*
X138162327Y-108110080I0J51000D01*
G01*
X138162327Y-103110080D01*
G75*
G02*
X138213327Y-103059080I51000J0D01*
G01*
X138613327Y-103059080D01*
G75*
G02*
X138664327Y-103110080I0J-51000D01*
G01*
G37*
G36*
G01*
X137864327Y-103110080D02*
X137864327Y-108110080D01*
G75*
G02*
X137813327Y-108161080I-51000J0D01*
G01*
X137413327Y-108161080D01*
G75*
G02*
X137362327Y-108110080I0J51000D01*
G01*
X137362327Y-103110080D01*
G75*
G02*
X137413327Y-103059080I51000J0D01*
G01*
X137813327Y-103059080D01*
G75*
G02*
X137864327Y-103110080I0J-51000D01*
G01*
G37*
G36*
G01*
X137064327Y-103110080D02*
X137064327Y-108110080D01*
G75*
G02*
X137013327Y-108161080I-51000J0D01*
G01*
X136613327Y-108161080D01*
G75*
G02*
X136562327Y-108110080I0J51000D01*
G01*
X136562327Y-103110080D01*
G75*
G02*
X136613327Y-103059080I51000J0D01*
G01*
X137013327Y-103059080D01*
G75*
G02*
X137064327Y-103110080I0J-51000D01*
G01*
G37*
G36*
G01*
X136264327Y-103110080D02*
X136264327Y-108110080D01*
G75*
G02*
X136213327Y-108161080I-51000J0D01*
G01*
X135813327Y-108161080D01*
G75*
G02*
X135762327Y-108110080I0J51000D01*
G01*
X135762327Y-103110080D01*
G75*
G02*
X135813327Y-103059080I51000J0D01*
G01*
X136213327Y-103059080D01*
G75*
G02*
X136264327Y-103110080I0J-51000D01*
G01*
G37*
G36*
G01*
X135464327Y-103110080D02*
X135464327Y-108110080D01*
G75*
G02*
X135413327Y-108161080I-51000J0D01*
G01*
X135013327Y-108161080D01*
G75*
G02*
X134962327Y-108110080I0J51000D01*
G01*
X134962327Y-103110080D01*
G75*
G02*
X135013327Y-103059080I51000J0D01*
G01*
X135413327Y-103059080D01*
G75*
G02*
X135464327Y-103110080I0J-51000D01*
G01*
G37*
G36*
G01*
X144078830Y-66310004D02*
X143115330Y-66310004D01*
G75*
G02*
X142846080Y-66040754I0J269250D01*
G01*
X142846080Y-65502254D01*
G75*
G02*
X143115330Y-65233004I269250J0D01*
G01*
X144078830Y-65233004D01*
G75*
G02*
X144348080Y-65502254I0J-269250D01*
G01*
X144348080Y-66040754D01*
G75*
G02*
X144078830Y-66310004I-269250J0D01*
G01*
G37*
G36*
G01*
X144078830Y-68185004D02*
X143115330Y-68185004D01*
G75*
G02*
X142846080Y-67915754I0J269250D01*
G01*
X142846080Y-67377254D01*
G75*
G02*
X143115330Y-67108004I269250J0D01*
G01*
X144078830Y-67108004D01*
G75*
G02*
X144348080Y-67377254I0J-269250D01*
G01*
X144348080Y-67915754D01*
G75*
G02*
X144078830Y-68185004I-269250J0D01*
G01*
G37*
G36*
G01*
X150487328Y-106210581D02*
X150487328Y-105609581D01*
G75*
G02*
X150712828Y-105384081I225500J0D01*
G01*
X151163828Y-105384081D01*
G75*
G02*
X151389328Y-105609581I0J-225500D01*
G01*
X151389328Y-106210581D01*
G75*
G02*
X151163828Y-106436081I-225500J0D01*
G01*
X150712828Y-106436081D01*
G75*
G02*
X150487328Y-106210581I0J225500D01*
G01*
G37*
G36*
G01*
X148837328Y-106210581D02*
X148837328Y-105609581D01*
G75*
G02*
X149062828Y-105384081I225500J0D01*
G01*
X149513828Y-105384081D01*
G75*
G02*
X149739328Y-105609581I0J-225500D01*
G01*
X149739328Y-106210581D01*
G75*
G02*
X149513828Y-106436081I-225500J0D01*
G01*
X149062828Y-106436081D01*
G75*
G02*
X148837328Y-106210581I0J225500D01*
G01*
G37*
G36*
G01*
X150487330Y-107710581D02*
X150487330Y-107109581D01*
G75*
G02*
X150712830Y-106884081I225500J0D01*
G01*
X151163830Y-106884081D01*
G75*
G02*
X151389330Y-107109581I0J-225500D01*
G01*
X151389330Y-107710581D01*
G75*
G02*
X151163830Y-107936081I-225500J0D01*
G01*
X150712830Y-107936081D01*
G75*
G02*
X150487330Y-107710581I0J225500D01*
G01*
G37*
G36*
G01*
X148837330Y-107710581D02*
X148837330Y-107109581D01*
G75*
G02*
X149062830Y-106884081I225500J0D01*
G01*
X149513830Y-106884081D01*
G75*
G02*
X149739330Y-107109581I0J-225500D01*
G01*
X149739330Y-107710581D01*
G75*
G02*
X149513830Y-107936081I-225500J0D01*
G01*
X149062830Y-107936081D01*
G75*
G02*
X148837330Y-107710581I0J225500D01*
G01*
G37*
G36*
G01*
X150487325Y-109210582D02*
X150487325Y-108609582D01*
G75*
G02*
X150712825Y-108384082I225500J0D01*
G01*
X151163825Y-108384082D01*
G75*
G02*
X151389325Y-108609582I0J-225500D01*
G01*
X151389325Y-109210582D01*
G75*
G02*
X151163825Y-109436082I-225500J0D01*
G01*
X150712825Y-109436082D01*
G75*
G02*
X150487325Y-109210582I0J225500D01*
G01*
G37*
G36*
G01*
X148837325Y-109210582D02*
X148837325Y-108609582D01*
G75*
G02*
X149062825Y-108384082I225500J0D01*
G01*
X149513825Y-108384082D01*
G75*
G02*
X149739325Y-108609582I0J-225500D01*
G01*
X149739325Y-109210582D01*
G75*
G02*
X149513825Y-109436082I-225500J0D01*
G01*
X149062825Y-109436082D01*
G75*
G02*
X148837325Y-109210582I0J225500D01*
G01*
G37*
G36*
G01*
X150487327Y-110710581D02*
X150487327Y-110109581D01*
G75*
G02*
X150712827Y-109884081I225500J0D01*
G01*
X151163827Y-109884081D01*
G75*
G02*
X151389327Y-110109581I0J-225500D01*
G01*
X151389327Y-110710581D01*
G75*
G02*
X151163827Y-110936081I-225500J0D01*
G01*
X150712827Y-110936081D01*
G75*
G02*
X150487327Y-110710581I0J225500D01*
G01*
G37*
G36*
G01*
X148837327Y-110710581D02*
X148837327Y-110109581D01*
G75*
G02*
X149062827Y-109884081I225500J0D01*
G01*
X149513827Y-109884081D01*
G75*
G02*
X149739327Y-110109581I0J-225500D01*
G01*
X149739327Y-110710581D01*
G75*
G02*
X149513827Y-110936081I-225500J0D01*
G01*
X149062827Y-110936081D01*
G75*
G02*
X148837327Y-110710581I0J225500D01*
G01*
G37*
G36*
G01*
X126576580Y-100558004D02*
X126927580Y-100558004D01*
G75*
G02*
X127103080Y-100733504I0J-175500D01*
G01*
X127103080Y-102434504D01*
G75*
G02*
X126927580Y-102610004I-175500J0D01*
G01*
X126576580Y-102610004D01*
G75*
G02*
X126401080Y-102434504I0J175500D01*
G01*
X126401080Y-100733504D01*
G75*
G02*
X126576580Y-100558004I175500J0D01*
G01*
G37*
G36*
G01*
X127846580Y-100558004D02*
X128197580Y-100558004D01*
G75*
G02*
X128373080Y-100733504I0J-175500D01*
G01*
X128373080Y-102434504D01*
G75*
G02*
X128197580Y-102610004I-175500J0D01*
G01*
X127846580Y-102610004D01*
G75*
G02*
X127671080Y-102434504I0J175500D01*
G01*
X127671080Y-100733504D01*
G75*
G02*
X127846580Y-100558004I175500J0D01*
G01*
G37*
G36*
G01*
X129116580Y-100558004D02*
X129467580Y-100558004D01*
G75*
G02*
X129643080Y-100733504I0J-175500D01*
G01*
X129643080Y-102434504D01*
G75*
G02*
X129467580Y-102610004I-175500J0D01*
G01*
X129116580Y-102610004D01*
G75*
G02*
X128941080Y-102434504I0J175500D01*
G01*
X128941080Y-100733504D01*
G75*
G02*
X129116580Y-100558004I175500J0D01*
G01*
G37*
G36*
G01*
X130386580Y-100558004D02*
X130737580Y-100558004D01*
G75*
G02*
X130913080Y-100733504I0J-175500D01*
G01*
X130913080Y-102434504D01*
G75*
G02*
X130737580Y-102610004I-175500J0D01*
G01*
X130386580Y-102610004D01*
G75*
G02*
X130211080Y-102434504I0J175500D01*
G01*
X130211080Y-100733504D01*
G75*
G02*
X130386580Y-100558004I175500J0D01*
G01*
G37*
G36*
G01*
X131656580Y-100558004D02*
X132007580Y-100558004D01*
G75*
G02*
X132183080Y-100733504I0J-175500D01*
G01*
X132183080Y-102434504D01*
G75*
G02*
X132007580Y-102610004I-175500J0D01*
G01*
X131656580Y-102610004D01*
G75*
G02*
X131481080Y-102434504I0J175500D01*
G01*
X131481080Y-100733504D01*
G75*
G02*
X131656580Y-100558004I175500J0D01*
G01*
G37*
G36*
G01*
X132926580Y-100558004D02*
X133277580Y-100558004D01*
G75*
G02*
X133453080Y-100733504I0J-175500D01*
G01*
X133453080Y-102434504D01*
G75*
G02*
X133277580Y-102610004I-175500J0D01*
G01*
X132926580Y-102610004D01*
G75*
G02*
X132751080Y-102434504I0J175500D01*
G01*
X132751080Y-100733504D01*
G75*
G02*
X132926580Y-100558004I175500J0D01*
G01*
G37*
G36*
G01*
X134196580Y-100558004D02*
X134547580Y-100558004D01*
G75*
G02*
X134723080Y-100733504I0J-175500D01*
G01*
X134723080Y-102434504D01*
G75*
G02*
X134547580Y-102610004I-175500J0D01*
G01*
X134196580Y-102610004D01*
G75*
G02*
X134021080Y-102434504I0J175500D01*
G01*
X134021080Y-100733504D01*
G75*
G02*
X134196580Y-100558004I175500J0D01*
G01*
G37*
G36*
G01*
X135466580Y-100558004D02*
X135817580Y-100558004D01*
G75*
G02*
X135993080Y-100733504I0J-175500D01*
G01*
X135993080Y-102434504D01*
G75*
G02*
X135817580Y-102610004I-175500J0D01*
G01*
X135466580Y-102610004D01*
G75*
G02*
X135291080Y-102434504I0J175500D01*
G01*
X135291080Y-100733504D01*
G75*
G02*
X135466580Y-100558004I175500J0D01*
G01*
G37*
G36*
G01*
X135466580Y-95608004D02*
X135817580Y-95608004D01*
G75*
G02*
X135993080Y-95783504I0J-175500D01*
G01*
X135993080Y-97484504D01*
G75*
G02*
X135817580Y-97660004I-175500J0D01*
G01*
X135466580Y-97660004D01*
G75*
G02*
X135291080Y-97484504I0J175500D01*
G01*
X135291080Y-95783504D01*
G75*
G02*
X135466580Y-95608004I175500J0D01*
G01*
G37*
G36*
G01*
X134196580Y-95608004D02*
X134547580Y-95608004D01*
G75*
G02*
X134723080Y-95783504I0J-175500D01*
G01*
X134723080Y-97484504D01*
G75*
G02*
X134547580Y-97660004I-175500J0D01*
G01*
X134196580Y-97660004D01*
G75*
G02*
X134021080Y-97484504I0J175500D01*
G01*
X134021080Y-95783504D01*
G75*
G02*
X134196580Y-95608004I175500J0D01*
G01*
G37*
G36*
G01*
X132926580Y-95608004D02*
X133277580Y-95608004D01*
G75*
G02*
X133453080Y-95783504I0J-175500D01*
G01*
X133453080Y-97484504D01*
G75*
G02*
X133277580Y-97660004I-175500J0D01*
G01*
X132926580Y-97660004D01*
G75*
G02*
X132751080Y-97484504I0J175500D01*
G01*
X132751080Y-95783504D01*
G75*
G02*
X132926580Y-95608004I175500J0D01*
G01*
G37*
G36*
G01*
X131656580Y-95608004D02*
X132007580Y-95608004D01*
G75*
G02*
X132183080Y-95783504I0J-175500D01*
G01*
X132183080Y-97484504D01*
G75*
G02*
X132007580Y-97660004I-175500J0D01*
G01*
X131656580Y-97660004D01*
G75*
G02*
X131481080Y-97484504I0J175500D01*
G01*
X131481080Y-95783504D01*
G75*
G02*
X131656580Y-95608004I175500J0D01*
G01*
G37*
G36*
G01*
X130386580Y-95608004D02*
X130737580Y-95608004D01*
G75*
G02*
X130913080Y-95783504I0J-175500D01*
G01*
X130913080Y-97484504D01*
G75*
G02*
X130737580Y-97660004I-175500J0D01*
G01*
X130386580Y-97660004D01*
G75*
G02*
X130211080Y-97484504I0J175500D01*
G01*
X130211080Y-95783504D01*
G75*
G02*
X130386580Y-95608004I175500J0D01*
G01*
G37*
G36*
G01*
X129116580Y-95608004D02*
X129467580Y-95608004D01*
G75*
G02*
X129643080Y-95783504I0J-175500D01*
G01*
X129643080Y-97484504D01*
G75*
G02*
X129467580Y-97660004I-175500J0D01*
G01*
X129116580Y-97660004D01*
G75*
G02*
X128941080Y-97484504I0J175500D01*
G01*
X128941080Y-95783504D01*
G75*
G02*
X129116580Y-95608004I175500J0D01*
G01*
G37*
G36*
G01*
X127846580Y-95608004D02*
X128197580Y-95608004D01*
G75*
G02*
X128373080Y-95783504I0J-175500D01*
G01*
X128373080Y-97484504D01*
G75*
G02*
X128197580Y-97660004I-175500J0D01*
G01*
X127846580Y-97660004D01*
G75*
G02*
X127671080Y-97484504I0J175500D01*
G01*
X127671080Y-95783504D01*
G75*
G02*
X127846580Y-95608004I175500J0D01*
G01*
G37*
G36*
G01*
X126576580Y-95608004D02*
X126927580Y-95608004D01*
G75*
G02*
X127103080Y-95783504I0J-175500D01*
G01*
X127103080Y-97484504D01*
G75*
G02*
X126927580Y-97660004I-175500J0D01*
G01*
X126576580Y-97660004D01*
G75*
G02*
X126401080Y-97484504I0J175500D01*
G01*
X126401080Y-95783504D01*
G75*
G02*
X126576580Y-95608004I175500J0D01*
G01*
G37*
G36*
G01*
X142078832Y-67273239D02*
X141515332Y-67273239D01*
G75*
G02*
X141271082Y-67028989I0J244250D01*
G01*
X141271082Y-66540489D01*
G75*
G02*
X141515332Y-66296239I244250J0D01*
G01*
X142078832Y-66296239D01*
G75*
G02*
X142323082Y-66540489I0J-244250D01*
G01*
X142323082Y-67028989D01*
G75*
G02*
X142078832Y-67273239I-244250J0D01*
G01*
G37*
G36*
G01*
X142078832Y-68848239D02*
X141515332Y-68848239D01*
G75*
G02*
X141271082Y-68603989I0J244250D01*
G01*
X141271082Y-68115489D01*
G75*
G02*
X141515332Y-67871239I244250J0D01*
G01*
X142078832Y-67871239D01*
G75*
G02*
X142323082Y-68115489I0J-244250D01*
G01*
X142323082Y-68603989D01*
G75*
G02*
X142078832Y-68848239I-244250J0D01*
G01*
G37*
G36*
G01*
X137873206Y-68660006D02*
X136920956Y-68660006D01*
G75*
G02*
X136646081Y-68385131I0J274875D01*
G01*
X136646081Y-67807881D01*
G75*
G02*
X136920956Y-67533006I274875J0D01*
G01*
X137873206Y-67533006D01*
G75*
G02*
X138148081Y-67807881I0J-274875D01*
G01*
X138148081Y-68385131D01*
G75*
G02*
X137873206Y-68660006I-274875J0D01*
G01*
G37*
G36*
G01*
X137873206Y-70485006D02*
X136920956Y-70485006D01*
G75*
G02*
X136646081Y-70210131I0J274875D01*
G01*
X136646081Y-69632881D01*
G75*
G02*
X136920956Y-69358006I274875J0D01*
G01*
X137873206Y-69358006D01*
G75*
G02*
X138148081Y-69632881I0J-274875D01*
G01*
X138148081Y-70210131D01*
G75*
G02*
X137873206Y-70485006I-274875J0D01*
G01*
G37*
G36*
G01*
X148264327Y-94729582D02*
X148264327Y-95080582D01*
G75*
G02*
X148088827Y-95256082I-175500J0D01*
G01*
X146737827Y-95256082D01*
G75*
G02*
X146562327Y-95080582I0J175500D01*
G01*
X146562327Y-94729582D01*
G75*
G02*
X146737827Y-94554082I175500J0D01*
G01*
X148088827Y-94554082D01*
G75*
G02*
X148264327Y-94729582I0J-175500D01*
G01*
G37*
G36*
G01*
X148264327Y-95999582D02*
X148264327Y-96350582D01*
G75*
G02*
X148088827Y-96526082I-175500J0D01*
G01*
X146737827Y-96526082D01*
G75*
G02*
X146562327Y-96350582I0J175500D01*
G01*
X146562327Y-95999582D01*
G75*
G02*
X146737827Y-95824082I175500J0D01*
G01*
X148088827Y-95824082D01*
G75*
G02*
X148264327Y-95999582I0J-175500D01*
G01*
G37*
G36*
G01*
X148264327Y-97269582D02*
X148264327Y-97620582D01*
G75*
G02*
X148088827Y-97796082I-175500J0D01*
G01*
X146737827Y-97796082D01*
G75*
G02*
X146562327Y-97620582I0J175500D01*
G01*
X146562327Y-97269582D01*
G75*
G02*
X146737827Y-97094082I175500J0D01*
G01*
X148088827Y-97094082D01*
G75*
G02*
X148264327Y-97269582I0J-175500D01*
G01*
G37*
G36*
G01*
X148264327Y-98539582D02*
X148264327Y-98890582D01*
G75*
G02*
X148088827Y-99066082I-175500J0D01*
G01*
X146737827Y-99066082D01*
G75*
G02*
X146562327Y-98890582I0J175500D01*
G01*
X146562327Y-98539582D01*
G75*
G02*
X146737827Y-98364082I175500J0D01*
G01*
X148088827Y-98364082D01*
G75*
G02*
X148264327Y-98539582I0J-175500D01*
G01*
G37*
G36*
G01*
X141064327Y-98539582D02*
X141064327Y-98890582D01*
G75*
G02*
X140888827Y-99066082I-175500J0D01*
G01*
X139537827Y-99066082D01*
G75*
G02*
X139362327Y-98890582I0J175500D01*
G01*
X139362327Y-98539582D01*
G75*
G02*
X139537827Y-98364082I175500J0D01*
G01*
X140888827Y-98364082D01*
G75*
G02*
X141064327Y-98539582I0J-175500D01*
G01*
G37*
G36*
G01*
X141064327Y-97269582D02*
X141064327Y-97620582D01*
G75*
G02*
X140888827Y-97796082I-175500J0D01*
G01*
X139537827Y-97796082D01*
G75*
G02*
X139362327Y-97620582I0J175500D01*
G01*
X139362327Y-97269582D01*
G75*
G02*
X139537827Y-97094082I175500J0D01*
G01*
X140888827Y-97094082D01*
G75*
G02*
X141064327Y-97269582I0J-175500D01*
G01*
G37*
G36*
G01*
X141064327Y-95999582D02*
X141064327Y-96350582D01*
G75*
G02*
X140888827Y-96526082I-175500J0D01*
G01*
X139537827Y-96526082D01*
G75*
G02*
X139362327Y-96350582I0J175500D01*
G01*
X139362327Y-95999582D01*
G75*
G02*
X139537827Y-95824082I175500J0D01*
G01*
X140888827Y-95824082D01*
G75*
G02*
X141064327Y-95999582I0J-175500D01*
G01*
G37*
G36*
G01*
X141064327Y-94729582D02*
X141064327Y-95080582D01*
G75*
G02*
X140888827Y-95256082I-175500J0D01*
G01*
X139537827Y-95256082D01*
G75*
G02*
X139362327Y-95080582I0J175500D01*
G01*
X139362327Y-94729582D01*
G75*
G02*
X139537827Y-94554082I175500J0D01*
G01*
X140888827Y-94554082D01*
G75*
G02*
X141064327Y-94729582I0J-175500D01*
G01*
G37*
G36*
G01*
X133515330Y-81408004D02*
X134078830Y-81408004D01*
G75*
G02*
X134323080Y-81652254I0J-244250D01*
G01*
X134323080Y-82140754D01*
G75*
G02*
X134078830Y-82385004I-244250J0D01*
G01*
X133515330Y-82385004D01*
G75*
G02*
X133271080Y-82140754I0J244250D01*
G01*
X133271080Y-81652254D01*
G75*
G02*
X133515330Y-81408004I244250J0D01*
G01*
G37*
G36*
G01*
X133515330Y-79833004D02*
X134078830Y-79833004D01*
G75*
G02*
X134323080Y-80077254I0J-244250D01*
G01*
X134323080Y-80565754D01*
G75*
G02*
X134078830Y-80810004I-244250J0D01*
G01*
X133515330Y-80810004D01*
G75*
G02*
X133271080Y-80565754I0J244250D01*
G01*
X133271080Y-80077254D01*
G75*
G02*
X133515330Y-79833004I244250J0D01*
G01*
G37*
G36*
G01*
X147014326Y-85336988D02*
X147014326Y-85900488D01*
G75*
G02*
X146770076Y-86144738I-244250J0D01*
G01*
X146281576Y-86144738D01*
G75*
G02*
X146037326Y-85900488I0J244250D01*
G01*
X146037326Y-85336988D01*
G75*
G02*
X146281576Y-85092738I244250J0D01*
G01*
X146770076Y-85092738D01*
G75*
G02*
X147014326Y-85336988I0J-244250D01*
G01*
G37*
G36*
G01*
X148589326Y-85336988D02*
X148589326Y-85900488D01*
G75*
G02*
X148345076Y-86144738I-244250J0D01*
G01*
X147856576Y-86144738D01*
G75*
G02*
X147612326Y-85900488I0J244250D01*
G01*
X147612326Y-85336988D01*
G75*
G02*
X147856576Y-85092738I244250J0D01*
G01*
X148345076Y-85092738D01*
G75*
G02*
X148589326Y-85336988I0J-244250D01*
G01*
G37*
G36*
G01*
X134087648Y-77310004D02*
X133124148Y-77310004D01*
G75*
G02*
X132854898Y-77040754I0J269250D01*
G01*
X132854898Y-76502254D01*
G75*
G02*
X133124148Y-76233004I269250J0D01*
G01*
X134087648Y-76233004D01*
G75*
G02*
X134356898Y-76502254I0J-269250D01*
G01*
X134356898Y-77040754D01*
G75*
G02*
X134087648Y-77310004I-269250J0D01*
G01*
G37*
G36*
G01*
X134087648Y-79185004D02*
X133124148Y-79185004D01*
G75*
G02*
X132854898Y-78915754I0J269250D01*
G01*
X132854898Y-78377254D01*
G75*
G02*
X133124148Y-78108004I269250J0D01*
G01*
X134087648Y-78108004D01*
G75*
G02*
X134356898Y-78377254I0J-269250D01*
G01*
X134356898Y-78915754D01*
G75*
G02*
X134087648Y-79185004I-269250J0D01*
G01*
G37*
G36*
G01*
X138278830Y-95410004D02*
X137315330Y-95410004D01*
G75*
G02*
X137046080Y-95140754I0J269250D01*
G01*
X137046080Y-94602254D01*
G75*
G02*
X137315330Y-94333004I269250J0D01*
G01*
X138278830Y-94333004D01*
G75*
G02*
X138548080Y-94602254I0J-269250D01*
G01*
X138548080Y-95140754D01*
G75*
G02*
X138278830Y-95410004I-269250J0D01*
G01*
G37*
G36*
G01*
X138278830Y-97285004D02*
X137315330Y-97285004D01*
G75*
G02*
X137046080Y-97015754I0J269250D01*
G01*
X137046080Y-96477254D01*
G75*
G02*
X137315330Y-96208004I269250J0D01*
G01*
X138278830Y-96208004D01*
G75*
G02*
X138548080Y-96477254I0J-269250D01*
G01*
X138548080Y-97015754D01*
G75*
G02*
X138278830Y-97285004I-269250J0D01*
G01*
G37*
G36*
G01*
X131004898Y-77100489D02*
X131004898Y-76136989D01*
G75*
G02*
X131274148Y-75867739I269250J0D01*
G01*
X131812648Y-75867739D01*
G75*
G02*
X132081898Y-76136989I0J-269250D01*
G01*
X132081898Y-77100489D01*
G75*
G02*
X131812648Y-77369739I-269250J0D01*
G01*
X131274148Y-77369739D01*
G75*
G02*
X131004898Y-77100489I0J269250D01*
G01*
G37*
G36*
G01*
X129129898Y-77100489D02*
X129129898Y-76136989D01*
G75*
G02*
X129399148Y-75867739I269250J0D01*
G01*
X129937648Y-75867739D01*
G75*
G02*
X130206898Y-76136989I0J-269250D01*
G01*
X130206898Y-77100489D01*
G75*
G02*
X129937648Y-77369739I-269250J0D01*
G01*
X129399148Y-77369739D01*
G75*
G02*
X129129898Y-77100489I0J269250D01*
G01*
G37*
G36*
G01*
X128078830Y-79110004D02*
X127115330Y-79110004D01*
G75*
G02*
X126846080Y-78840754I0J269250D01*
G01*
X126846080Y-78302254D01*
G75*
G02*
X127115330Y-78033004I269250J0D01*
G01*
X128078830Y-78033004D01*
G75*
G02*
X128348080Y-78302254I0J-269250D01*
G01*
X128348080Y-78840754D01*
G75*
G02*
X128078830Y-79110004I-269250J0D01*
G01*
G37*
G36*
G01*
X128078830Y-80985004D02*
X127115330Y-80985004D01*
G75*
G02*
X126846080Y-80715754I0J269250D01*
G01*
X126846080Y-80177254D01*
G75*
G02*
X127115330Y-79908004I269250J0D01*
G01*
X128078830Y-79908004D01*
G75*
G02*
X128348080Y-80177254I0J-269250D01*
G01*
X128348080Y-80715754D01*
G75*
G02*
X128078830Y-80985004I-269250J0D01*
G01*
G37*
G36*
G01*
X151478832Y-74819739D02*
X150915332Y-74819739D01*
G75*
G02*
X150671082Y-74575489I0J244250D01*
G01*
X150671082Y-74086989D01*
G75*
G02*
X150915332Y-73842739I244250J0D01*
G01*
X151478832Y-73842739D01*
G75*
G02*
X151723082Y-74086989I0J-244250D01*
G01*
X151723082Y-74575489D01*
G75*
G02*
X151478832Y-74819739I-244250J0D01*
G01*
G37*
G36*
G01*
X151478832Y-76394739D02*
X150915332Y-76394739D01*
G75*
G02*
X150671082Y-76150489I0J244250D01*
G01*
X150671082Y-75661989D01*
G75*
G02*
X150915332Y-75417739I244250J0D01*
G01*
X151478832Y-75417739D01*
G75*
G02*
X151723082Y-75661989I0J-244250D01*
G01*
X151723082Y-76150489D01*
G75*
G02*
X151478832Y-76394739I-244250J0D01*
G01*
G37*
G36*
G01*
X155398080Y-72227254D02*
X155398080Y-72790754D01*
G75*
G02*
X155153830Y-73035004I-244250J0D01*
G01*
X154665330Y-73035004D01*
G75*
G02*
X154421080Y-72790754I0J244250D01*
G01*
X154421080Y-72227254D01*
G75*
G02*
X154665330Y-71983004I244250J0D01*
G01*
X155153830Y-71983004D01*
G75*
G02*
X155398080Y-72227254I0J-244250D01*
G01*
G37*
G36*
G01*
X156973080Y-72227254D02*
X156973080Y-72790754D01*
G75*
G02*
X156728830Y-73035004I-244250J0D01*
G01*
X156240330Y-73035004D01*
G75*
G02*
X155996080Y-72790754I0J244250D01*
G01*
X155996080Y-72227254D01*
G75*
G02*
X156240330Y-71983004I244250J0D01*
G01*
X156728830Y-71983004D01*
G75*
G02*
X156973080Y-72227254I0J-244250D01*
G01*
G37*
G36*
G01*
X156004899Y-81990754D02*
X156004899Y-81427254D01*
G75*
G02*
X156249149Y-81183004I244250J0D01*
G01*
X156737649Y-81183004D01*
G75*
G02*
X156981899Y-81427254I0J-244250D01*
G01*
X156981899Y-81990754D01*
G75*
G02*
X156737649Y-82235004I-244250J0D01*
G01*
X156249149Y-82235004D01*
G75*
G02*
X156004899Y-81990754I0J244250D01*
G01*
G37*
G36*
G01*
X154429899Y-81990754D02*
X154429899Y-81427254D01*
G75*
G02*
X154674149Y-81183004I244250J0D01*
G01*
X155162649Y-81183004D01*
G75*
G02*
X155406899Y-81427254I0J-244250D01*
G01*
X155406899Y-81990754D01*
G75*
G02*
X155162649Y-82235004I-244250J0D01*
G01*
X154674149Y-82235004D01*
G75*
G02*
X154429899Y-81990754I0J244250D01*
G01*
G37*
G36*
G01*
X131104899Y-80018737D02*
X131104899Y-79218737D01*
G75*
G02*
X131155899Y-79167737I51000J0D01*
G01*
X132055899Y-79167737D01*
G75*
G02*
X132106899Y-79218737I0J-51000D01*
G01*
X132106899Y-80018737D01*
G75*
G02*
X132055899Y-80069737I-51000J0D01*
G01*
X131155899Y-80069737D01*
G75*
G02*
X131104899Y-80018737I0J51000D01*
G01*
G37*
G36*
G01*
X129104899Y-79068737D02*
X129104899Y-78268737D01*
G75*
G02*
X129155899Y-78217737I51000J0D01*
G01*
X130055899Y-78217737D01*
G75*
G02*
X130106899Y-78268737I0J-51000D01*
G01*
X130106899Y-79068737D01*
G75*
G02*
X130055899Y-79119737I-51000J0D01*
G01*
X129155899Y-79119737D01*
G75*
G02*
X129104899Y-79068737I0J51000D01*
G01*
G37*
G36*
G01*
X129104899Y-80968737D02*
X129104899Y-80168737D01*
G75*
G02*
X129155899Y-80117737I51000J0D01*
G01*
X130055899Y-80117737D01*
G75*
G02*
X130106899Y-80168737I0J-51000D01*
G01*
X130106899Y-80968737D01*
G75*
G02*
X130055899Y-81019737I-51000J0D01*
G01*
X129155899Y-81019737D01*
G75*
G02*
X129104899Y-80968737I0J51000D01*
G01*
G37*
G36*
G01*
X138206900Y-73343738D02*
X138206900Y-73893738D01*
G75*
G02*
X138155900Y-73944738I-51000J0D01*
G01*
X136655900Y-73944738D01*
G75*
G02*
X136604900Y-73893738I0J51000D01*
G01*
X136604900Y-73343738D01*
G75*
G02*
X136655900Y-73292738I51000J0D01*
G01*
X138155900Y-73292738D01*
G75*
G02*
X138206900Y-73343738I0J-51000D01*
G01*
G37*
G36*
G01*
X138206900Y-74143738D02*
X138206900Y-74693738D01*
G75*
G02*
X138155900Y-74744738I-51000J0D01*
G01*
X136655900Y-74744738D01*
G75*
G02*
X136604900Y-74693738I0J51000D01*
G01*
X136604900Y-74143738D01*
G75*
G02*
X136655900Y-74092738I51000J0D01*
G01*
X138155900Y-74092738D01*
G75*
G02*
X138206900Y-74143738I0J-51000D01*
G01*
G37*
G36*
G01*
X138206900Y-74943738D02*
X138206900Y-75493738D01*
G75*
G02*
X138155900Y-75544738I-51000J0D01*
G01*
X136655900Y-75544738D01*
G75*
G02*
X136604900Y-75493738I0J51000D01*
G01*
X136604900Y-74943738D01*
G75*
G02*
X136655900Y-74892738I51000J0D01*
G01*
X138155900Y-74892738D01*
G75*
G02*
X138206900Y-74943738I0J-51000D01*
G01*
G37*
G36*
G01*
X138206900Y-75743738D02*
X138206900Y-76293738D01*
G75*
G02*
X138155900Y-76344738I-51000J0D01*
G01*
X136655900Y-76344738D01*
G75*
G02*
X136604900Y-76293738I0J51000D01*
G01*
X136604900Y-75743738D01*
G75*
G02*
X136655900Y-75692738I51000J0D01*
G01*
X138155900Y-75692738D01*
G75*
G02*
X138206900Y-75743738I0J-51000D01*
G01*
G37*
G36*
G01*
X138206900Y-76543738D02*
X138206900Y-77093738D01*
G75*
G02*
X138155900Y-77144738I-51000J0D01*
G01*
X136655900Y-77144738D01*
G75*
G02*
X136604900Y-77093738I0J51000D01*
G01*
X136604900Y-76543738D01*
G75*
G02*
X136655900Y-76492738I51000J0D01*
G01*
X138155900Y-76492738D01*
G75*
G02*
X138206900Y-76543738I0J-51000D01*
G01*
G37*
G36*
G01*
X138206900Y-77343738D02*
X138206900Y-77893738D01*
G75*
G02*
X138155900Y-77944738I-51000J0D01*
G01*
X136655900Y-77944738D01*
G75*
G02*
X136604900Y-77893738I0J51000D01*
G01*
X136604900Y-77343738D01*
G75*
G02*
X136655900Y-77292738I51000J0D01*
G01*
X138155900Y-77292738D01*
G75*
G02*
X138206900Y-77343738I0J-51000D01*
G01*
G37*
G36*
G01*
X138206900Y-78143738D02*
X138206900Y-78693738D01*
G75*
G02*
X138155900Y-78744738I-51000J0D01*
G01*
X136655900Y-78744738D01*
G75*
G02*
X136604900Y-78693738I0J51000D01*
G01*
X136604900Y-78143738D01*
G75*
G02*
X136655900Y-78092738I51000J0D01*
G01*
X138155900Y-78092738D01*
G75*
G02*
X138206900Y-78143738I0J-51000D01*
G01*
G37*
G36*
G01*
X138206900Y-78943738D02*
X138206900Y-79493738D01*
G75*
G02*
X138155900Y-79544738I-51000J0D01*
G01*
X136655900Y-79544738D01*
G75*
G02*
X136604900Y-79493738I0J51000D01*
G01*
X136604900Y-78943738D01*
G75*
G02*
X136655900Y-78892738I51000J0D01*
G01*
X138155900Y-78892738D01*
G75*
G02*
X138206900Y-78943738I0J-51000D01*
G01*
G37*
G36*
G01*
X138206900Y-79743738D02*
X138206900Y-80293738D01*
G75*
G02*
X138155900Y-80344738I-51000J0D01*
G01*
X136655900Y-80344738D01*
G75*
G02*
X136604900Y-80293738I0J51000D01*
G01*
X136604900Y-79743738D01*
G75*
G02*
X136655900Y-79692738I51000J0D01*
G01*
X138155900Y-79692738D01*
G75*
G02*
X138206900Y-79743738I0J-51000D01*
G01*
G37*
G36*
G01*
X138206900Y-80543738D02*
X138206900Y-81093738D01*
G75*
G02*
X138155900Y-81144738I-51000J0D01*
G01*
X136655900Y-81144738D01*
G75*
G02*
X136604900Y-81093738I0J51000D01*
G01*
X136604900Y-80543738D01*
G75*
G02*
X136655900Y-80492738I51000J0D01*
G01*
X138155900Y-80492738D01*
G75*
G02*
X138206900Y-80543738I0J-51000D01*
G01*
G37*
G36*
G01*
X138206900Y-81343738D02*
X138206900Y-81893738D01*
G75*
G02*
X138155900Y-81944738I-51000J0D01*
G01*
X136655900Y-81944738D01*
G75*
G02*
X136604900Y-81893738I0J51000D01*
G01*
X136604900Y-81343738D01*
G75*
G02*
X136655900Y-81292738I51000J0D01*
G01*
X138155900Y-81292738D01*
G75*
G02*
X138206900Y-81343738I0J-51000D01*
G01*
G37*
G36*
G01*
X138830900Y-82517738D02*
X139380900Y-82517738D01*
G75*
G02*
X139431900Y-82568738I0J-51000D01*
G01*
X139431900Y-84068738D01*
G75*
G02*
X139380900Y-84119738I-51000J0D01*
G01*
X138830900Y-84119738D01*
G75*
G02*
X138779900Y-84068738I0J51000D01*
G01*
X138779900Y-82568738D01*
G75*
G02*
X138830900Y-82517738I51000J0D01*
G01*
G37*
G36*
G01*
X139630900Y-82517738D02*
X140180900Y-82517738D01*
G75*
G02*
X140231900Y-82568738I0J-51000D01*
G01*
X140231900Y-84068738D01*
G75*
G02*
X140180900Y-84119738I-51000J0D01*
G01*
X139630900Y-84119738D01*
G75*
G02*
X139579900Y-84068738I0J51000D01*
G01*
X139579900Y-82568738D01*
G75*
G02*
X139630900Y-82517738I51000J0D01*
G01*
G37*
G36*
G01*
X140430900Y-82517738D02*
X140980900Y-82517738D01*
G75*
G02*
X141031900Y-82568738I0J-51000D01*
G01*
X141031900Y-84068738D01*
G75*
G02*
X140980900Y-84119738I-51000J0D01*
G01*
X140430900Y-84119738D01*
G75*
G02*
X140379900Y-84068738I0J51000D01*
G01*
X140379900Y-82568738D01*
G75*
G02*
X140430900Y-82517738I51000J0D01*
G01*
G37*
G36*
G01*
X141230900Y-82517738D02*
X141780900Y-82517738D01*
G75*
G02*
X141831900Y-82568738I0J-51000D01*
G01*
X141831900Y-84068738D01*
G75*
G02*
X141780900Y-84119738I-51000J0D01*
G01*
X141230900Y-84119738D01*
G75*
G02*
X141179900Y-84068738I0J51000D01*
G01*
X141179900Y-82568738D01*
G75*
G02*
X141230900Y-82517738I51000J0D01*
G01*
G37*
G36*
G01*
X142030900Y-82517738D02*
X142580900Y-82517738D01*
G75*
G02*
X142631900Y-82568738I0J-51000D01*
G01*
X142631900Y-84068738D01*
G75*
G02*
X142580900Y-84119738I-51000J0D01*
G01*
X142030900Y-84119738D01*
G75*
G02*
X141979900Y-84068738I0J51000D01*
G01*
X141979900Y-82568738D01*
G75*
G02*
X142030900Y-82517738I51000J0D01*
G01*
G37*
G36*
G01*
X142830900Y-82517738D02*
X143380900Y-82517738D01*
G75*
G02*
X143431900Y-82568738I0J-51000D01*
G01*
X143431900Y-84068738D01*
G75*
G02*
X143380900Y-84119738I-51000J0D01*
G01*
X142830900Y-84119738D01*
G75*
G02*
X142779900Y-84068738I0J51000D01*
G01*
X142779900Y-82568738D01*
G75*
G02*
X142830900Y-82517738I51000J0D01*
G01*
G37*
G36*
G01*
X143630900Y-82517738D02*
X144180900Y-82517738D01*
G75*
G02*
X144231900Y-82568738I0J-51000D01*
G01*
X144231900Y-84068738D01*
G75*
G02*
X144180900Y-84119738I-51000J0D01*
G01*
X143630900Y-84119738D01*
G75*
G02*
X143579900Y-84068738I0J51000D01*
G01*
X143579900Y-82568738D01*
G75*
G02*
X143630900Y-82517738I51000J0D01*
G01*
G37*
G36*
G01*
X144430900Y-82517738D02*
X144980900Y-82517738D01*
G75*
G02*
X145031900Y-82568738I0J-51000D01*
G01*
X145031900Y-84068738D01*
G75*
G02*
X144980900Y-84119738I-51000J0D01*
G01*
X144430900Y-84119738D01*
G75*
G02*
X144379900Y-84068738I0J51000D01*
G01*
X144379900Y-82568738D01*
G75*
G02*
X144430900Y-82517738I51000J0D01*
G01*
G37*
G36*
G01*
X145230900Y-82517738D02*
X145780900Y-82517738D01*
G75*
G02*
X145831900Y-82568738I0J-51000D01*
G01*
X145831900Y-84068738D01*
G75*
G02*
X145780900Y-84119738I-51000J0D01*
G01*
X145230900Y-84119738D01*
G75*
G02*
X145179900Y-84068738I0J51000D01*
G01*
X145179900Y-82568738D01*
G75*
G02*
X145230900Y-82517738I51000J0D01*
G01*
G37*
G36*
G01*
X146030900Y-82517738D02*
X146580900Y-82517738D01*
G75*
G02*
X146631900Y-82568738I0J-51000D01*
G01*
X146631900Y-84068738D01*
G75*
G02*
X146580900Y-84119738I-51000J0D01*
G01*
X146030900Y-84119738D01*
G75*
G02*
X145979900Y-84068738I0J51000D01*
G01*
X145979900Y-82568738D01*
G75*
G02*
X146030900Y-82517738I51000J0D01*
G01*
G37*
G36*
G01*
X146830900Y-82517738D02*
X147380900Y-82517738D01*
G75*
G02*
X147431900Y-82568738I0J-51000D01*
G01*
X147431900Y-84068738D01*
G75*
G02*
X147380900Y-84119738I-51000J0D01*
G01*
X146830900Y-84119738D01*
G75*
G02*
X146779900Y-84068738I0J51000D01*
G01*
X146779900Y-82568738D01*
G75*
G02*
X146830900Y-82517738I51000J0D01*
G01*
G37*
G36*
G01*
X149606900Y-81343738D02*
X149606900Y-81893738D01*
G75*
G02*
X149555900Y-81944738I-51000J0D01*
G01*
X148055900Y-81944738D01*
G75*
G02*
X148004900Y-81893738I0J51000D01*
G01*
X148004900Y-81343738D01*
G75*
G02*
X148055900Y-81292738I51000J0D01*
G01*
X149555900Y-81292738D01*
G75*
G02*
X149606900Y-81343738I0J-51000D01*
G01*
G37*
G36*
G01*
X149606900Y-80543738D02*
X149606900Y-81093738D01*
G75*
G02*
X149555900Y-81144738I-51000J0D01*
G01*
X148055900Y-81144738D01*
G75*
G02*
X148004900Y-81093738I0J51000D01*
G01*
X148004900Y-80543738D01*
G75*
G02*
X148055900Y-80492738I51000J0D01*
G01*
X149555900Y-80492738D01*
G75*
G02*
X149606900Y-80543738I0J-51000D01*
G01*
G37*
G36*
G01*
X149606900Y-79743738D02*
X149606900Y-80293738D01*
G75*
G02*
X149555900Y-80344738I-51000J0D01*
G01*
X148055900Y-80344738D01*
G75*
G02*
X148004900Y-80293738I0J51000D01*
G01*
X148004900Y-79743738D01*
G75*
G02*
X148055900Y-79692738I51000J0D01*
G01*
X149555900Y-79692738D01*
G75*
G02*
X149606900Y-79743738I0J-51000D01*
G01*
G37*
G36*
G01*
X149606900Y-78943738D02*
X149606900Y-79493738D01*
G75*
G02*
X149555900Y-79544738I-51000J0D01*
G01*
X148055900Y-79544738D01*
G75*
G02*
X148004900Y-79493738I0J51000D01*
G01*
X148004900Y-78943738D01*
G75*
G02*
X148055900Y-78892738I51000J0D01*
G01*
X149555900Y-78892738D01*
G75*
G02*
X149606900Y-78943738I0J-51000D01*
G01*
G37*
G36*
G01*
X149606900Y-78143738D02*
X149606900Y-78693738D01*
G75*
G02*
X149555900Y-78744738I-51000J0D01*
G01*
X148055900Y-78744738D01*
G75*
G02*
X148004900Y-78693738I0J51000D01*
G01*
X148004900Y-78143738D01*
G75*
G02*
X148055900Y-78092738I51000J0D01*
G01*
X149555900Y-78092738D01*
G75*
G02*
X149606900Y-78143738I0J-51000D01*
G01*
G37*
G36*
G01*
X149606900Y-77343738D02*
X149606900Y-77893738D01*
G75*
G02*
X149555900Y-77944738I-51000J0D01*
G01*
X148055900Y-77944738D01*
G75*
G02*
X148004900Y-77893738I0J51000D01*
G01*
X148004900Y-77343738D01*
G75*
G02*
X148055900Y-77292738I51000J0D01*
G01*
X149555900Y-77292738D01*
G75*
G02*
X149606900Y-77343738I0J-51000D01*
G01*
G37*
G36*
G01*
X149606900Y-76543738D02*
X149606900Y-77093738D01*
G75*
G02*
X149555900Y-77144738I-51000J0D01*
G01*
X148055900Y-77144738D01*
G75*
G02*
X148004900Y-77093738I0J51000D01*
G01*
X148004900Y-76543738D01*
G75*
G02*
X148055900Y-76492738I51000J0D01*
G01*
X149555900Y-76492738D01*
G75*
G02*
X149606900Y-76543738I0J-51000D01*
G01*
G37*
G36*
G01*
X149606900Y-75743738D02*
X149606900Y-76293738D01*
G75*
G02*
X149555900Y-76344738I-51000J0D01*
G01*
X148055900Y-76344738D01*
G75*
G02*
X148004900Y-76293738I0J51000D01*
G01*
X148004900Y-75743738D01*
G75*
G02*
X148055900Y-75692738I51000J0D01*
G01*
X149555900Y-75692738D01*
G75*
G02*
X149606900Y-75743738I0J-51000D01*
G01*
G37*
G36*
G01*
X149606900Y-74943738D02*
X149606900Y-75493738D01*
G75*
G02*
X149555900Y-75544738I-51000J0D01*
G01*
X148055900Y-75544738D01*
G75*
G02*
X148004900Y-75493738I0J51000D01*
G01*
X148004900Y-74943738D01*
G75*
G02*
X148055900Y-74892738I51000J0D01*
G01*
X149555900Y-74892738D01*
G75*
G02*
X149606900Y-74943738I0J-51000D01*
G01*
G37*
G36*
G01*
X149606900Y-74143738D02*
X149606900Y-74693738D01*
G75*
G02*
X149555900Y-74744738I-51000J0D01*
G01*
X148055900Y-74744738D01*
G75*
G02*
X148004900Y-74693738I0J51000D01*
G01*
X148004900Y-74143738D01*
G75*
G02*
X148055900Y-74092738I51000J0D01*
G01*
X149555900Y-74092738D01*
G75*
G02*
X149606900Y-74143738I0J-51000D01*
G01*
G37*
G36*
G01*
X149606900Y-73343738D02*
X149606900Y-73893738D01*
G75*
G02*
X149555900Y-73944738I-51000J0D01*
G01*
X148055900Y-73944738D01*
G75*
G02*
X148004900Y-73893738I0J51000D01*
G01*
X148004900Y-73343738D01*
G75*
G02*
X148055900Y-73292738I51000J0D01*
G01*
X149555900Y-73292738D01*
G75*
G02*
X149606900Y-73343738I0J-51000D01*
G01*
G37*
G36*
G01*
X146830900Y-71117738D02*
X147380900Y-71117738D01*
G75*
G02*
X147431900Y-71168738I0J-51000D01*
G01*
X147431900Y-72668738D01*
G75*
G02*
X147380900Y-72719738I-51000J0D01*
G01*
X146830900Y-72719738D01*
G75*
G02*
X146779900Y-72668738I0J51000D01*
G01*
X146779900Y-71168738D01*
G75*
G02*
X146830900Y-71117738I51000J0D01*
G01*
G37*
G36*
G01*
X146030900Y-71117738D02*
X146580900Y-71117738D01*
G75*
G02*
X146631900Y-71168738I0J-51000D01*
G01*
X146631900Y-72668738D01*
G75*
G02*
X146580900Y-72719738I-51000J0D01*
G01*
X146030900Y-72719738D01*
G75*
G02*
X145979900Y-72668738I0J51000D01*
G01*
X145979900Y-71168738D01*
G75*
G02*
X146030900Y-71117738I51000J0D01*
G01*
G37*
G36*
G01*
X145230900Y-71117738D02*
X145780900Y-71117738D01*
G75*
G02*
X145831900Y-71168738I0J-51000D01*
G01*
X145831900Y-72668738D01*
G75*
G02*
X145780900Y-72719738I-51000J0D01*
G01*
X145230900Y-72719738D01*
G75*
G02*
X145179900Y-72668738I0J51000D01*
G01*
X145179900Y-71168738D01*
G75*
G02*
X145230900Y-71117738I51000J0D01*
G01*
G37*
G36*
G01*
X144430900Y-71117738D02*
X144980900Y-71117738D01*
G75*
G02*
X145031900Y-71168738I0J-51000D01*
G01*
X145031900Y-72668738D01*
G75*
G02*
X144980900Y-72719738I-51000J0D01*
G01*
X144430900Y-72719738D01*
G75*
G02*
X144379900Y-72668738I0J51000D01*
G01*
X144379900Y-71168738D01*
G75*
G02*
X144430900Y-71117738I51000J0D01*
G01*
G37*
G36*
G01*
X143630900Y-71117738D02*
X144180900Y-71117738D01*
G75*
G02*
X144231900Y-71168738I0J-51000D01*
G01*
X144231900Y-72668738D01*
G75*
G02*
X144180900Y-72719738I-51000J0D01*
G01*
X143630900Y-72719738D01*
G75*
G02*
X143579900Y-72668738I0J51000D01*
G01*
X143579900Y-71168738D01*
G75*
G02*
X143630900Y-71117738I51000J0D01*
G01*
G37*
G36*
G01*
X142830900Y-71117738D02*
X143380900Y-71117738D01*
G75*
G02*
X143431900Y-71168738I0J-51000D01*
G01*
X143431900Y-72668738D01*
G75*
G02*
X143380900Y-72719738I-51000J0D01*
G01*
X142830900Y-72719738D01*
G75*
G02*
X142779900Y-72668738I0J51000D01*
G01*
X142779900Y-71168738D01*
G75*
G02*
X142830900Y-71117738I51000J0D01*
G01*
G37*
G36*
G01*
X142030900Y-71117738D02*
X142580900Y-71117738D01*
G75*
G02*
X142631900Y-71168738I0J-51000D01*
G01*
X142631900Y-72668738D01*
G75*
G02*
X142580900Y-72719738I-51000J0D01*
G01*
X142030900Y-72719738D01*
G75*
G02*
X141979900Y-72668738I0J51000D01*
G01*
X141979900Y-71168738D01*
G75*
G02*
X142030900Y-71117738I51000J0D01*
G01*
G37*
G36*
G01*
X141230900Y-71117738D02*
X141780900Y-71117738D01*
G75*
G02*
X141831900Y-71168738I0J-51000D01*
G01*
X141831900Y-72668738D01*
G75*
G02*
X141780900Y-72719738I-51000J0D01*
G01*
X141230900Y-72719738D01*
G75*
G02*
X141179900Y-72668738I0J51000D01*
G01*
X141179900Y-71168738D01*
G75*
G02*
X141230900Y-71117738I51000J0D01*
G01*
G37*
G36*
G01*
X140430900Y-71117738D02*
X140980900Y-71117738D01*
G75*
G02*
X141031900Y-71168738I0J-51000D01*
G01*
X141031900Y-72668738D01*
G75*
G02*
X140980900Y-72719738I-51000J0D01*
G01*
X140430900Y-72719738D01*
G75*
G02*
X140379900Y-72668738I0J51000D01*
G01*
X140379900Y-71168738D01*
G75*
G02*
X140430900Y-71117738I51000J0D01*
G01*
G37*
G36*
G01*
X139630900Y-71117738D02*
X140180900Y-71117738D01*
G75*
G02*
X140231900Y-71168738I0J-51000D01*
G01*
X140231900Y-72668738D01*
G75*
G02*
X140180900Y-72719738I-51000J0D01*
G01*
X139630900Y-72719738D01*
G75*
G02*
X139579900Y-72668738I0J51000D01*
G01*
X139579900Y-71168738D01*
G75*
G02*
X139630900Y-71117738I51000J0D01*
G01*
G37*
G36*
G01*
X138830900Y-71117738D02*
X139380900Y-71117738D01*
G75*
G02*
X139431900Y-71168738I0J-51000D01*
G01*
X139431900Y-72668738D01*
G75*
G02*
X139380900Y-72719738I-51000J0D01*
G01*
X138830900Y-72719738D01*
G75*
G02*
X138779900Y-72668738I0J51000D01*
G01*
X138779900Y-71168738D01*
G75*
G02*
X138830900Y-71117738I51000J0D01*
G01*
G37*
G36*
G01*
X131004896Y-83100488D02*
X131004896Y-82136988D01*
G75*
G02*
X131274146Y-81867738I269250J0D01*
G01*
X131812646Y-81867738D01*
G75*
G02*
X132081896Y-82136988I0J-269250D01*
G01*
X132081896Y-83100488D01*
G75*
G02*
X131812646Y-83369738I-269250J0D01*
G01*
X131274146Y-83369738D01*
G75*
G02*
X131004896Y-83100488I0J269250D01*
G01*
G37*
G36*
G01*
X129129896Y-83100488D02*
X129129896Y-82136988D01*
G75*
G02*
X129399146Y-81867738I269250J0D01*
G01*
X129937646Y-81867738D01*
G75*
G02*
X130206896Y-82136988I0J-269250D01*
G01*
X130206896Y-83100488D01*
G75*
G02*
X129937646Y-83369738I-269250J0D01*
G01*
X129399146Y-83369738D01*
G75*
G02*
X129129896Y-83100488I0J269250D01*
G01*
G37*
G36*
G01*
X140678831Y-67273240D02*
X140115331Y-67273240D01*
G75*
G02*
X139871081Y-67028990I0J244250D01*
G01*
X139871081Y-66540490D01*
G75*
G02*
X140115331Y-66296240I244250J0D01*
G01*
X140678831Y-66296240D01*
G75*
G02*
X140923081Y-66540490I0J-244250D01*
G01*
X140923081Y-67028990D01*
G75*
G02*
X140678831Y-67273240I-244250J0D01*
G01*
G37*
G36*
G01*
X140678831Y-68848240D02*
X140115331Y-68848240D01*
G75*
G02*
X139871081Y-68603990I0J244250D01*
G01*
X139871081Y-68115490D01*
G75*
G02*
X140115331Y-67871240I244250J0D01*
G01*
X140678831Y-67871240D01*
G75*
G02*
X140923081Y-68115490I0J-244250D01*
G01*
X140923081Y-68603990D01*
G75*
G02*
X140678831Y-68848240I-244250J0D01*
G01*
G37*
G36*
G01*
X151578830Y-68710004D02*
X150615330Y-68710004D01*
G75*
G02*
X150346080Y-68440754I0J269250D01*
G01*
X150346080Y-67902254D01*
G75*
G02*
X150615330Y-67633004I269250J0D01*
G01*
X151578830Y-67633004D01*
G75*
G02*
X151848080Y-67902254I0J-269250D01*
G01*
X151848080Y-68440754D01*
G75*
G02*
X151578830Y-68710004I-269250J0D01*
G01*
G37*
G36*
G01*
X151578830Y-70585004D02*
X150615330Y-70585004D01*
G75*
G02*
X150346080Y-70315754I0J269250D01*
G01*
X150346080Y-69777254D01*
G75*
G02*
X150615330Y-69508004I269250J0D01*
G01*
X151578830Y-69508004D01*
G75*
G02*
X151848080Y-69777254I0J-269250D01*
G01*
X151848080Y-70315754D01*
G75*
G02*
X151578830Y-70585004I-269250J0D01*
G01*
G37*
G36*
G01*
X147719936Y-65598941D02*
X147719936Y-66819067D01*
G75*
G02*
X147453999Y-67085004I-265937J0D01*
G01*
X146283873Y-67085004D01*
G75*
G02*
X146017936Y-66819067I0J265937D01*
G01*
X146017936Y-65598941D01*
G75*
G02*
X146283873Y-65333004I265937J0D01*
G01*
X147453999Y-65333004D01*
G75*
G02*
X147719936Y-65598941I0J-265937D01*
G01*
G37*
G36*
G01*
X150569936Y-65598941D02*
X150569936Y-66819067D01*
G75*
G02*
X150303999Y-67085004I-265937J0D01*
G01*
X149133873Y-67085004D01*
G75*
G02*
X148867936Y-66819067I0J265937D01*
G01*
X148867936Y-65598941D01*
G75*
G02*
X149133873Y-65333004I265937J0D01*
G01*
X150303999Y-65333004D01*
G75*
G02*
X150569936Y-65598941I0J-265937D01*
G01*
G37*
G36*
G01*
X149416537Y-70585004D02*
X148453037Y-70585004D01*
G75*
G02*
X148183787Y-70315754I0J269250D01*
G01*
X148183787Y-69777254D01*
G75*
G02*
X148453037Y-69508004I269250J0D01*
G01*
X149416537Y-69508004D01*
G75*
G02*
X149685787Y-69777254I0J-269250D01*
G01*
X149685787Y-70315754D01*
G75*
G02*
X149416537Y-70585004I-269250J0D01*
G01*
G37*
G36*
G01*
X149416537Y-68710004D02*
X148453037Y-68710004D01*
G75*
G02*
X148183787Y-68440754I0J269250D01*
G01*
X148183787Y-67902254D01*
G75*
G02*
X148453037Y-67633004I269250J0D01*
G01*
X149416537Y-67633004D01*
G75*
G02*
X149685787Y-67902254I0J-269250D01*
G01*
X149685787Y-68440754D01*
G75*
G02*
X149416537Y-68710004I-269250J0D01*
G01*
G37*
D14*
G36*
X146781632Y-82516738D02*
G01*
X146781900Y-82517738D01*
X146781900Y-84119738D01*
X146780900Y-84121470D01*
X146779900Y-84121738D01*
X146631900Y-84121738D01*
X146630168Y-84120738D01*
X146629900Y-84119738D01*
X146629900Y-82519738D01*
X145981900Y-82519738D01*
X145981900Y-84119738D01*
X145980900Y-84121470D01*
X145979900Y-84121738D01*
X145831900Y-84121738D01*
X145830168Y-84120738D01*
X145829900Y-84119738D01*
X145829900Y-82519738D01*
X145181900Y-82519738D01*
X145181900Y-84119738D01*
X145180900Y-84121470D01*
X145179900Y-84121738D01*
X145031900Y-84121738D01*
X145030168Y-84120738D01*
X145029900Y-84119738D01*
X145029900Y-82519738D01*
X144381900Y-82519738D01*
X144381900Y-84119738D01*
X144380900Y-84121470D01*
X144379900Y-84121738D01*
X144231900Y-84121738D01*
X144230168Y-84120738D01*
X144229900Y-84119738D01*
X144229900Y-82519738D01*
X143581900Y-82519738D01*
X143581900Y-84119738D01*
X143580900Y-84121470D01*
X143579900Y-84121738D01*
X143431900Y-84121738D01*
X143430168Y-84120738D01*
X143429900Y-84119738D01*
X143429900Y-82519738D01*
X142781900Y-82519738D01*
X142781900Y-84119738D01*
X142780900Y-84121470D01*
X142779900Y-84121738D01*
X142631900Y-84121738D01*
X142630168Y-84120738D01*
X142629900Y-84119738D01*
X142629900Y-82519738D01*
X141981900Y-82519738D01*
X141981900Y-84119738D01*
X141980900Y-84121470D01*
X141979900Y-84121738D01*
X141831900Y-84121738D01*
X141830168Y-84120738D01*
X141829900Y-84119738D01*
X141829900Y-82519738D01*
X141181900Y-82519738D01*
X141181900Y-84119738D01*
X141180900Y-84121470D01*
X141179900Y-84121738D01*
X141031900Y-84121738D01*
X141030168Y-84120738D01*
X141029900Y-84119738D01*
X141029900Y-82519738D01*
X140381900Y-82519738D01*
X140381900Y-84119738D01*
X140380900Y-84121470D01*
X140379900Y-84121738D01*
X140231900Y-84121738D01*
X140230168Y-84120738D01*
X140229900Y-84119738D01*
X140229900Y-82519738D01*
X139581900Y-82519738D01*
X139581900Y-84119738D01*
X139580900Y-84121470D01*
X139579900Y-84121738D01*
X139431900Y-84121738D01*
X139430168Y-84120738D01*
X139429900Y-84119738D01*
X139429900Y-82517738D01*
X139430900Y-82516006D01*
X139431900Y-82515738D01*
X146779900Y-82515738D01*
X146781632Y-82516738D01*
G37*
G36*
X149608632Y-81143738D02*
G01*
X149608900Y-81144738D01*
X149608900Y-81292738D01*
X149607900Y-81294470D01*
X149606900Y-81294738D01*
X148004900Y-81294738D01*
X148003168Y-81293738D01*
X148002900Y-81292738D01*
X148002900Y-81144738D01*
X148003900Y-81143006D01*
X148004900Y-81142738D01*
X149606900Y-81142738D01*
X149608632Y-81143738D01*
G37*
G36*
X138208632Y-81143738D02*
G01*
X138208900Y-81144738D01*
X138208900Y-81292738D01*
X138207900Y-81294470D01*
X138206900Y-81294738D01*
X136604900Y-81294738D01*
X136603168Y-81293738D01*
X136602900Y-81292738D01*
X136602900Y-81144738D01*
X136603900Y-81143006D01*
X136604900Y-81142738D01*
X138206900Y-81142738D01*
X138208632Y-81143738D01*
G37*
G36*
X149608632Y-80343738D02*
G01*
X149608900Y-80344738D01*
X149608900Y-80492738D01*
X149607900Y-80494470D01*
X149606900Y-80494738D01*
X148004900Y-80494738D01*
X148003168Y-80493738D01*
X148002900Y-80492738D01*
X148002900Y-80344738D01*
X148003900Y-80343006D01*
X148004900Y-80342738D01*
X149606900Y-80342738D01*
X149608632Y-80343738D01*
G37*
G36*
X138208632Y-80343738D02*
G01*
X138208900Y-80344738D01*
X138208900Y-80492738D01*
X138207900Y-80494470D01*
X138206900Y-80494738D01*
X136604900Y-80494738D01*
X136603168Y-80493738D01*
X136602900Y-80492738D01*
X136602900Y-80344738D01*
X136603900Y-80343006D01*
X136604900Y-80342738D01*
X138206900Y-80342738D01*
X138208632Y-80343738D01*
G37*
G36*
X138208632Y-79543738D02*
G01*
X138208900Y-79544738D01*
X138208900Y-79692738D01*
X138207900Y-79694470D01*
X138206900Y-79694738D01*
X136604900Y-79694738D01*
X136603168Y-79693738D01*
X136602900Y-79692738D01*
X136602900Y-79544738D01*
X136603900Y-79543006D01*
X136604900Y-79542738D01*
X138206900Y-79542738D01*
X138208632Y-79543738D01*
G37*
G36*
X149608632Y-79543738D02*
G01*
X149608900Y-79544738D01*
X149608900Y-79692738D01*
X149607900Y-79694470D01*
X149606900Y-79694738D01*
X148004900Y-79694738D01*
X148003168Y-79693738D01*
X148002900Y-79692738D01*
X148002900Y-79544738D01*
X148003900Y-79543006D01*
X148004900Y-79542738D01*
X149606900Y-79542738D01*
X149608632Y-79543738D01*
G37*
G36*
X138208632Y-78743738D02*
G01*
X138208900Y-78744738D01*
X138208900Y-78892738D01*
X138207900Y-78894470D01*
X138206900Y-78894738D01*
X136604900Y-78894738D01*
X136603168Y-78893738D01*
X136602900Y-78892738D01*
X136602900Y-78744738D01*
X136603900Y-78743006D01*
X136604900Y-78742738D01*
X138206900Y-78742738D01*
X138208632Y-78743738D01*
G37*
G36*
X149608632Y-78743738D02*
G01*
X149608900Y-78744738D01*
X149608900Y-78892738D01*
X149607900Y-78894470D01*
X149606900Y-78894738D01*
X148004900Y-78894738D01*
X148003168Y-78893738D01*
X148002900Y-78892738D01*
X148002900Y-78744738D01*
X148003900Y-78743006D01*
X148004900Y-78742738D01*
X149606900Y-78742738D01*
X149608632Y-78743738D01*
G37*
G36*
X149608632Y-77943738D02*
G01*
X149608900Y-77944738D01*
X149608900Y-78092738D01*
X149607900Y-78094470D01*
X149606900Y-78094738D01*
X148004900Y-78094738D01*
X148003168Y-78093738D01*
X148002900Y-78092738D01*
X148002900Y-77944738D01*
X148003900Y-77943006D01*
X148004900Y-77942738D01*
X149606900Y-77942738D01*
X149608632Y-77943738D01*
G37*
G36*
X138208632Y-77943738D02*
G01*
X138208900Y-77944738D01*
X138208900Y-78092738D01*
X138207900Y-78094470D01*
X138206900Y-78094738D01*
X136604900Y-78094738D01*
X136603168Y-78093738D01*
X136602900Y-78092738D01*
X136602900Y-77944738D01*
X136603900Y-77943006D01*
X136604900Y-77942738D01*
X138206900Y-77942738D01*
X138208632Y-77943738D01*
G37*
G36*
X149608632Y-77143738D02*
G01*
X149608900Y-77144738D01*
X149608900Y-77292738D01*
X149607900Y-77294470D01*
X149606900Y-77294738D01*
X148004900Y-77294738D01*
X148003168Y-77293738D01*
X148002900Y-77292738D01*
X148002900Y-77144738D01*
X148003900Y-77143006D01*
X148004900Y-77142738D01*
X149606900Y-77142738D01*
X149608632Y-77143738D01*
G37*
G36*
X138208632Y-77143738D02*
G01*
X138208900Y-77144738D01*
X138208900Y-77292738D01*
X138207900Y-77294470D01*
X138206900Y-77294738D01*
X136604900Y-77294738D01*
X136603168Y-77293738D01*
X136602900Y-77292738D01*
X136602900Y-77144738D01*
X136603900Y-77143006D01*
X136604900Y-77142738D01*
X138206900Y-77142738D01*
X138208632Y-77143738D01*
G37*
G36*
X149608632Y-76343738D02*
G01*
X149608900Y-76344738D01*
X149608900Y-76492738D01*
X149607900Y-76494470D01*
X149606900Y-76494738D01*
X148004900Y-76494738D01*
X148003168Y-76493738D01*
X148002900Y-76492738D01*
X148002900Y-76344738D01*
X148003900Y-76343006D01*
X148004900Y-76342738D01*
X149606900Y-76342738D01*
X149608632Y-76343738D01*
G37*
G36*
X138208632Y-76343738D02*
G01*
X138208900Y-76344738D01*
X138208900Y-76492738D01*
X138207900Y-76494470D01*
X138206900Y-76494738D01*
X136604900Y-76494738D01*
X136603168Y-76493738D01*
X136602900Y-76492738D01*
X136602900Y-76344738D01*
X136603900Y-76343006D01*
X136604900Y-76342738D01*
X138206900Y-76342738D01*
X138208632Y-76343738D01*
G37*
G36*
X138208632Y-75543738D02*
G01*
X138208900Y-75544738D01*
X138208900Y-75692738D01*
X138207900Y-75694470D01*
X138206900Y-75694738D01*
X136604900Y-75694738D01*
X136603168Y-75693738D01*
X136602900Y-75692738D01*
X136602900Y-75544738D01*
X136603900Y-75543006D01*
X136604900Y-75542738D01*
X138206900Y-75542738D01*
X138208632Y-75543738D01*
G37*
G36*
X149608632Y-75543738D02*
G01*
X149608900Y-75544738D01*
X149608900Y-75692738D01*
X149607900Y-75694470D01*
X149606900Y-75694738D01*
X148004900Y-75694738D01*
X148003168Y-75693738D01*
X148002900Y-75692738D01*
X148002900Y-75544738D01*
X148003900Y-75543006D01*
X148004900Y-75542738D01*
X149606900Y-75542738D01*
X149608632Y-75543738D01*
G37*
G36*
X138208632Y-74743738D02*
G01*
X138208900Y-74744738D01*
X138208900Y-74892738D01*
X138207900Y-74894470D01*
X138206900Y-74894738D01*
X136604900Y-74894738D01*
X136603168Y-74893738D01*
X136602900Y-74892738D01*
X136602900Y-74744738D01*
X136603900Y-74743006D01*
X136604900Y-74742738D01*
X138206900Y-74742738D01*
X138208632Y-74743738D01*
G37*
G36*
X149608632Y-74743738D02*
G01*
X149608900Y-74744738D01*
X149608900Y-74892738D01*
X149607900Y-74894470D01*
X149606900Y-74894738D01*
X148004900Y-74894738D01*
X148003168Y-74893738D01*
X148002900Y-74892738D01*
X148002900Y-74744738D01*
X148003900Y-74743006D01*
X148004900Y-74742738D01*
X149606900Y-74742738D01*
X149608632Y-74743738D01*
G37*
G36*
X149608632Y-73943738D02*
G01*
X149608900Y-73944738D01*
X149608900Y-74092738D01*
X149607900Y-74094470D01*
X149606900Y-74094738D01*
X148004900Y-74094738D01*
X148003168Y-74093738D01*
X148002900Y-74092738D01*
X148002900Y-73944738D01*
X148003900Y-73943006D01*
X148004900Y-73942738D01*
X149606900Y-73942738D01*
X149608632Y-73943738D01*
G37*
G36*
X138208632Y-73943738D02*
G01*
X138208900Y-73944738D01*
X138208900Y-74092738D01*
X138207900Y-74094470D01*
X138206900Y-74094738D01*
X136604900Y-74094738D01*
X136603168Y-74093738D01*
X136602900Y-74092738D01*
X136602900Y-73944738D01*
X136603900Y-73943006D01*
X136604900Y-73942738D01*
X138206900Y-73942738D01*
X138208632Y-73943738D01*
G37*
G36*
X146781632Y-71116738D02*
G01*
X146781900Y-71117738D01*
X146781900Y-72719738D01*
X146780900Y-72721470D01*
X146779900Y-72721738D01*
X146631900Y-72721738D01*
X146630168Y-72720738D01*
X146629900Y-72719738D01*
X146629900Y-71119738D01*
X145981900Y-71119738D01*
X145981900Y-72719738D01*
X145980900Y-72721470D01*
X145979900Y-72721738D01*
X145831900Y-72721738D01*
X145830168Y-72720738D01*
X145829900Y-72719738D01*
X145829900Y-71119738D01*
X145181900Y-71119738D01*
X145181900Y-72719738D01*
X145180900Y-72721470D01*
X145179900Y-72721738D01*
X145031900Y-72721738D01*
X145030168Y-72720738D01*
X145029900Y-72719738D01*
X145029900Y-71119738D01*
X144381900Y-71119738D01*
X144381900Y-72719738D01*
X144380900Y-72721470D01*
X144379900Y-72721738D01*
X144231900Y-72721738D01*
X144230168Y-72720738D01*
X144229900Y-72719738D01*
X144229900Y-71119738D01*
X143581900Y-71119738D01*
X143581900Y-72719738D01*
X143580900Y-72721470D01*
X143579900Y-72721738D01*
X143431900Y-72721738D01*
X143430168Y-72720738D01*
X143429900Y-72719738D01*
X143429900Y-71119738D01*
X142781900Y-71119738D01*
X142781900Y-72719738D01*
X142780900Y-72721470D01*
X142779900Y-72721738D01*
X142631900Y-72721738D01*
X142630168Y-72720738D01*
X142629900Y-72719738D01*
X142629900Y-71119738D01*
X141981900Y-71119738D01*
X141981900Y-72719738D01*
X141980900Y-72721470D01*
X141979900Y-72721738D01*
X141831900Y-72721738D01*
X141830168Y-72720738D01*
X141829900Y-72719738D01*
X141829900Y-71119738D01*
X141181900Y-71119738D01*
X141181900Y-72719738D01*
X141180900Y-72721470D01*
X141179900Y-72721738D01*
X141031900Y-72721738D01*
X141030168Y-72720738D01*
X141029900Y-72719738D01*
X141029900Y-71119738D01*
X140381900Y-71119738D01*
X140381900Y-72719738D01*
X140380900Y-72721470D01*
X140379900Y-72721738D01*
X140231900Y-72721738D01*
X140230168Y-72720738D01*
X140229900Y-72719738D01*
X140229900Y-71119738D01*
X139581900Y-71119738D01*
X139581900Y-72719738D01*
X139580900Y-72721470D01*
X139579900Y-72721738D01*
X139431900Y-72721738D01*
X139430168Y-72720738D01*
X139429900Y-72719738D01*
X139429900Y-71117738D01*
X139430900Y-71116006D01*
X139431900Y-71115738D01*
X146779900Y-71115738D01*
X146781632Y-71116738D01*
G37*
M02*
