M48
; DRILL file {KiCad 5.1.8} date Sun Feb 14 21:35:48 2021
; FORMAT={-:-/ absolute / inch / decimal}
; #@! TF.CreationDate,2021-02-14T21:35:48-06:00
; #@! TF.GenerationSoftware,Kicad,Pcbnew,5.1.8
; #@! TF.FileFunction,NonPlated,1,2,NPTH
FMAT,2
INCH
T1C0.0394
T2C0.0669
T3C0.1339
%
G90
G05
T1
X5.0497Y-3.3017
X6.5064Y-3.3017
X6.5064Y-5.1324
T2
X3.0571Y-2.7583
X3.4681Y-2.895
X8.6329Y-2.2603
X9.0439Y-2.1236
X2.5214Y-2.1236
X2.9323Y-2.2603
X0.9528Y-2.3487
X1.3638Y-2.4854
X3.0583Y-4.4391
X3.4692Y-4.5758
X9.529Y-2.7091
X9.94Y-2.5724
X8.8442Y-2.8954
X9.2551Y-2.7587
X3.8663Y-2.571
X4.2772Y-2.7077
X10.4127Y-3.1205
X10.8237Y-2.9838
X4.4032Y-4.8865
X4.8141Y-5.0232
X6.7513Y-5.0231
X7.1622Y-4.8864
X7.4993Y-3.3428
X7.9103Y-3.2061
X8.0962Y-4.5757
X8.5071Y-4.439
X4.5387Y-2.7947
X4.9496Y-2.9314
X7.8859Y-2.2599
X8.2969Y-2.1232
X10.2015Y-2.4854
X10.6124Y-2.3487
X4.3273Y-3.4296
X4.7382Y-3.5663
X3.655Y-3.2061
X4.0659Y-3.3428
X6.6156Y-2.9314
X7.0266Y-2.7947
X1.414Y-3.2075
X1.8249Y-3.3442
X3.2684Y-2.1232
X3.6793Y-2.2599
X7.4237Y-4.7994
X7.8347Y-4.6627
X6.8269Y-3.5665
X7.2378Y-3.4298
X9.7403Y-3.3442
X10.1512Y-3.2075
X2.3101Y-2.7587
X2.7211Y-2.8954
X1.6253Y-2.5724
X2.0362Y-2.7091
X0.7416Y-2.9838
X1.1525Y-3.1205
X3.7307Y-4.6628
X4.1417Y-4.7995
X7.2881Y-2.7077
X7.699Y-2.571
X8.0972Y-2.895
X8.5081Y-2.7583
T3
X9.0497Y-2.8271
X4.0717Y-2.6394
X10.6182Y-3.0521
X4.6086Y-4.9549
X6.9568Y-4.9547
X7.7048Y-3.2744
X8.3016Y-4.5073
X4.7442Y-2.863
X8.0914Y-2.1915
X10.4069Y-2.417
X4.5328Y-3.4979
X3.8605Y-3.2744
X6.8211Y-2.8631
X1.6195Y-3.2758
X3.4739Y-2.1915
X7.6292Y-4.731
X7.0324Y-3.4981
X9.9458Y-3.2758
X2.5156Y-2.8271
X1.8307Y-2.6407
X0.947Y-3.0521
X3.9362Y-4.7312
X7.4935Y-2.6394
X8.3027Y-2.8266
X3.2626Y-2.8266
X8.8384Y-2.192
X2.7269Y-2.192
X1.1583Y-2.417
X3.2638Y-4.5075
X9.7345Y-2.6407
T0
M30
