G04 #@! TF.GenerationSoftware,KiCad,Pcbnew,5.1.6*
G04 #@! TF.CreationDate,2020-10-20T23:03:34-05:00*
G04 #@! TF.ProjectId,steno,7374656e-6f2e-46b6-9963-61645f706362,rev?*
G04 #@! TF.SameCoordinates,Original*
G04 #@! TF.FileFunction,Soldermask,Bot*
G04 #@! TF.FilePolarity,Negative*
%FSLAX46Y46*%
G04 Gerber Fmt 4.6, Leading zero omitted, Abs format (unit mm)*
G04 Created by KiCad (PCBNEW 5.1.6) date 2020-10-20 23:03:34*
%MOMM*%
%LPD*%
G01*
G04 APERTURE LIST*
%ADD10C,0.100000*%
G04 APERTURE END LIST*
D10*
G36*
X166582585Y-134051119D02*
G01*
X166732410Y-134080921D01*
X167014674Y-134197838D01*
X167268705Y-134367576D01*
X167484741Y-134583612D01*
X167654479Y-134837643D01*
X167771396Y-135119907D01*
X167831000Y-135419557D01*
X167831000Y-135725077D01*
X167771396Y-136024727D01*
X167654479Y-136306991D01*
X167484741Y-136561022D01*
X167268705Y-136777058D01*
X167014674Y-136946796D01*
X166732410Y-137063713D01*
X166582585Y-137093515D01*
X166432761Y-137123317D01*
X166127239Y-137123317D01*
X165977415Y-137093515D01*
X165827590Y-137063713D01*
X165545326Y-136946796D01*
X165291295Y-136777058D01*
X165075259Y-136561022D01*
X164905521Y-136306991D01*
X164788604Y-136024727D01*
X164729000Y-135725077D01*
X164729000Y-135419557D01*
X164788604Y-135119907D01*
X164905521Y-134837643D01*
X165075259Y-134583612D01*
X165291295Y-134367576D01*
X165545326Y-134197838D01*
X165827590Y-134080921D01*
X165977415Y-134051119D01*
X166127239Y-134021317D01*
X166432761Y-134021317D01*
X166582585Y-134051119D01*
G37*
G36*
X131022585Y-134051119D02*
G01*
X131172410Y-134080921D01*
X131454674Y-134197838D01*
X131708705Y-134367576D01*
X131924741Y-134583612D01*
X132094479Y-134837643D01*
X132211396Y-135119907D01*
X132271000Y-135419557D01*
X132271000Y-135725077D01*
X132211396Y-136024727D01*
X132094479Y-136306991D01*
X131924741Y-136561022D01*
X131708705Y-136777058D01*
X131454674Y-136946796D01*
X131172410Y-137063713D01*
X131022585Y-137093515D01*
X130872761Y-137123317D01*
X130567239Y-137123317D01*
X130417415Y-137093515D01*
X130267590Y-137063713D01*
X129985326Y-136946796D01*
X129731295Y-136777058D01*
X129515259Y-136561022D01*
X129345521Y-136306991D01*
X129228604Y-136024727D01*
X129169000Y-135725077D01*
X129169000Y-135419557D01*
X129228604Y-135119907D01*
X129345521Y-134837643D01*
X129515259Y-134583612D01*
X129731295Y-134367576D01*
X129985326Y-134197838D01*
X130267590Y-134080921D01*
X130417415Y-134051119D01*
X130567239Y-134021317D01*
X130872761Y-134021317D01*
X131022585Y-134051119D01*
G37*
G36*
X154963512Y-134676244D02*
G01*
X155112812Y-134705941D01*
X155276784Y-134773861D01*
X155424354Y-134872464D01*
X155549853Y-134997963D01*
X155648456Y-135145533D01*
X155716376Y-135309505D01*
X155751000Y-135483576D01*
X155751000Y-135661058D01*
X155716376Y-135835129D01*
X155648456Y-135999101D01*
X155549853Y-136146671D01*
X155424354Y-136272170D01*
X155276784Y-136370773D01*
X155112812Y-136438693D01*
X154963512Y-136468390D01*
X154938742Y-136473317D01*
X154761258Y-136473317D01*
X154736488Y-136468390D01*
X154587188Y-136438693D01*
X154423216Y-136370773D01*
X154275646Y-136272170D01*
X154150147Y-136146671D01*
X154051544Y-135999101D01*
X153983624Y-135835129D01*
X153949000Y-135661058D01*
X153949000Y-135483576D01*
X153983624Y-135309505D01*
X154051544Y-135145533D01*
X154150147Y-134997963D01*
X154275646Y-134872464D01*
X154423216Y-134773861D01*
X154587188Y-134705941D01*
X154736488Y-134676244D01*
X154761258Y-134671317D01*
X154938742Y-134671317D01*
X154963512Y-134676244D01*
G37*
G36*
X152423512Y-134676244D02*
G01*
X152572812Y-134705941D01*
X152736784Y-134773861D01*
X152884354Y-134872464D01*
X153009853Y-134997963D01*
X153108456Y-135145533D01*
X153176376Y-135309505D01*
X153211000Y-135483576D01*
X153211000Y-135661058D01*
X153176376Y-135835129D01*
X153108456Y-135999101D01*
X153009853Y-136146671D01*
X152884354Y-136272170D01*
X152736784Y-136370773D01*
X152572812Y-136438693D01*
X152423512Y-136468390D01*
X152398742Y-136473317D01*
X152221258Y-136473317D01*
X152196488Y-136468390D01*
X152047188Y-136438693D01*
X151883216Y-136370773D01*
X151735646Y-136272170D01*
X151610147Y-136146671D01*
X151511544Y-135999101D01*
X151443624Y-135835129D01*
X151409000Y-135661058D01*
X151409000Y-135483576D01*
X151443624Y-135309505D01*
X151511544Y-135145533D01*
X151610147Y-134997963D01*
X151735646Y-134872464D01*
X151883216Y-134773861D01*
X152047188Y-134705941D01*
X152196488Y-134676244D01*
X152221258Y-134671317D01*
X152398742Y-134671317D01*
X152423512Y-134676244D01*
G37*
G36*
X137183512Y-134676244D02*
G01*
X137332812Y-134705941D01*
X137496784Y-134773861D01*
X137644354Y-134872464D01*
X137769853Y-134997963D01*
X137868456Y-135145533D01*
X137936376Y-135309505D01*
X137971000Y-135483576D01*
X137971000Y-135661058D01*
X137936376Y-135835129D01*
X137868456Y-135999101D01*
X137769853Y-136146671D01*
X137644354Y-136272170D01*
X137496784Y-136370773D01*
X137332812Y-136438693D01*
X137183512Y-136468390D01*
X137158742Y-136473317D01*
X136981258Y-136473317D01*
X136956488Y-136468390D01*
X136807188Y-136438693D01*
X136643216Y-136370773D01*
X136495646Y-136272170D01*
X136370147Y-136146671D01*
X136271544Y-135999101D01*
X136203624Y-135835129D01*
X136169000Y-135661058D01*
X136169000Y-135483576D01*
X136203624Y-135309505D01*
X136271544Y-135145533D01*
X136370147Y-134997963D01*
X136495646Y-134872464D01*
X136643216Y-134773861D01*
X136807188Y-134705941D01*
X136956488Y-134676244D01*
X136981258Y-134671317D01*
X137158742Y-134671317D01*
X137183512Y-134676244D01*
G37*
G36*
X139723512Y-134676244D02*
G01*
X139872812Y-134705941D01*
X140036784Y-134773861D01*
X140184354Y-134872464D01*
X140309853Y-134997963D01*
X140408456Y-135145533D01*
X140476376Y-135309505D01*
X140511000Y-135483576D01*
X140511000Y-135661058D01*
X140476376Y-135835129D01*
X140408456Y-135999101D01*
X140309853Y-136146671D01*
X140184354Y-136272170D01*
X140036784Y-136370773D01*
X139872812Y-136438693D01*
X139723512Y-136468390D01*
X139698742Y-136473317D01*
X139521258Y-136473317D01*
X139496488Y-136468390D01*
X139347188Y-136438693D01*
X139183216Y-136370773D01*
X139035646Y-136272170D01*
X138910147Y-136146671D01*
X138811544Y-135999101D01*
X138743624Y-135835129D01*
X138709000Y-135661058D01*
X138709000Y-135483576D01*
X138743624Y-135309505D01*
X138811544Y-135145533D01*
X138910147Y-134997963D01*
X139035646Y-134872464D01*
X139183216Y-134773861D01*
X139347188Y-134705941D01*
X139496488Y-134676244D01*
X139521258Y-134671317D01*
X139698742Y-134671317D01*
X139723512Y-134676244D01*
G37*
G36*
X144803512Y-134676244D02*
G01*
X144952812Y-134705941D01*
X145116784Y-134773861D01*
X145264354Y-134872464D01*
X145389853Y-134997963D01*
X145488456Y-135145533D01*
X145556376Y-135309505D01*
X145591000Y-135483576D01*
X145591000Y-135661058D01*
X145556376Y-135835129D01*
X145488456Y-135999101D01*
X145389853Y-136146671D01*
X145264354Y-136272170D01*
X145116784Y-136370773D01*
X144952812Y-136438693D01*
X144803512Y-136468390D01*
X144778742Y-136473317D01*
X144601258Y-136473317D01*
X144576488Y-136468390D01*
X144427188Y-136438693D01*
X144263216Y-136370773D01*
X144115646Y-136272170D01*
X143990147Y-136146671D01*
X143891544Y-135999101D01*
X143823624Y-135835129D01*
X143789000Y-135661058D01*
X143789000Y-135483576D01*
X143823624Y-135309505D01*
X143891544Y-135145533D01*
X143990147Y-134997963D01*
X144115646Y-134872464D01*
X144263216Y-134773861D01*
X144427188Y-134705941D01*
X144576488Y-134676244D01*
X144601258Y-134671317D01*
X144778742Y-134671317D01*
X144803512Y-134676244D01*
G37*
G36*
X142263512Y-134676244D02*
G01*
X142412812Y-134705941D01*
X142576784Y-134773861D01*
X142724354Y-134872464D01*
X142849853Y-134997963D01*
X142948456Y-135145533D01*
X143016376Y-135309505D01*
X143051000Y-135483576D01*
X143051000Y-135661058D01*
X143016376Y-135835129D01*
X142948456Y-135999101D01*
X142849853Y-136146671D01*
X142724354Y-136272170D01*
X142576784Y-136370773D01*
X142412812Y-136438693D01*
X142263512Y-136468390D01*
X142238742Y-136473317D01*
X142061258Y-136473317D01*
X142036488Y-136468390D01*
X141887188Y-136438693D01*
X141723216Y-136370773D01*
X141575646Y-136272170D01*
X141450147Y-136146671D01*
X141351544Y-135999101D01*
X141283624Y-135835129D01*
X141249000Y-135661058D01*
X141249000Y-135483576D01*
X141283624Y-135309505D01*
X141351544Y-135145533D01*
X141450147Y-134997963D01*
X141575646Y-134872464D01*
X141723216Y-134773861D01*
X141887188Y-134705941D01*
X142036488Y-134676244D01*
X142061258Y-134671317D01*
X142238742Y-134671317D01*
X142263512Y-134676244D01*
G37*
G36*
X160831000Y-136473317D02*
G01*
X159029000Y-136473317D01*
X159029000Y-134671317D01*
X160831000Y-134671317D01*
X160831000Y-136473317D01*
G37*
G36*
X157503512Y-134676244D02*
G01*
X157652812Y-134705941D01*
X157816784Y-134773861D01*
X157964354Y-134872464D01*
X158089853Y-134997963D01*
X158188456Y-135145533D01*
X158256376Y-135309505D01*
X158291000Y-135483576D01*
X158291000Y-135661058D01*
X158256376Y-135835129D01*
X158188456Y-135999101D01*
X158089853Y-136146671D01*
X157964354Y-136272170D01*
X157816784Y-136370773D01*
X157652812Y-136438693D01*
X157503512Y-136468390D01*
X157478742Y-136473317D01*
X157301258Y-136473317D01*
X157276488Y-136468390D01*
X157127188Y-136438693D01*
X156963216Y-136370773D01*
X156815646Y-136272170D01*
X156690147Y-136146671D01*
X156591544Y-135999101D01*
X156523624Y-135835129D01*
X156489000Y-135661058D01*
X156489000Y-135483576D01*
X156523624Y-135309505D01*
X156591544Y-135145533D01*
X156690147Y-134997963D01*
X156815646Y-134872464D01*
X156963216Y-134773861D01*
X157127188Y-134705941D01*
X157276488Y-134676244D01*
X157301258Y-134671317D01*
X157478742Y-134671317D01*
X157503512Y-134676244D01*
G37*
G36*
X147343512Y-134676244D02*
G01*
X147492812Y-134705941D01*
X147656784Y-134773861D01*
X147804354Y-134872464D01*
X147929853Y-134997963D01*
X148028456Y-135145533D01*
X148096376Y-135309505D01*
X148131000Y-135483576D01*
X148131000Y-135661058D01*
X148096376Y-135835129D01*
X148028456Y-135999101D01*
X147929853Y-136146671D01*
X147804354Y-136272170D01*
X147656784Y-136370773D01*
X147492812Y-136438693D01*
X147343512Y-136468390D01*
X147318742Y-136473317D01*
X147141258Y-136473317D01*
X147116488Y-136468390D01*
X146967188Y-136438693D01*
X146803216Y-136370773D01*
X146655646Y-136272170D01*
X146530147Y-136146671D01*
X146431544Y-135999101D01*
X146363624Y-135835129D01*
X146329000Y-135661058D01*
X146329000Y-135483576D01*
X146363624Y-135309505D01*
X146431544Y-135145533D01*
X146530147Y-134997963D01*
X146655646Y-134872464D01*
X146803216Y-134773861D01*
X146967188Y-134705941D01*
X147116488Y-134676244D01*
X147141258Y-134671317D01*
X147318742Y-134671317D01*
X147343512Y-134676244D01*
G37*
G36*
X149883512Y-134676244D02*
G01*
X150032812Y-134705941D01*
X150196784Y-134773861D01*
X150344354Y-134872464D01*
X150469853Y-134997963D01*
X150568456Y-135145533D01*
X150636376Y-135309505D01*
X150671000Y-135483576D01*
X150671000Y-135661058D01*
X150636376Y-135835129D01*
X150568456Y-135999101D01*
X150469853Y-136146671D01*
X150344354Y-136272170D01*
X150196784Y-136370773D01*
X150032812Y-136438693D01*
X149883512Y-136468390D01*
X149858742Y-136473317D01*
X149681258Y-136473317D01*
X149656488Y-136468390D01*
X149507188Y-136438693D01*
X149343216Y-136370773D01*
X149195646Y-136272170D01*
X149070147Y-136146671D01*
X148971544Y-135999101D01*
X148903624Y-135835129D01*
X148869000Y-135661058D01*
X148869000Y-135483576D01*
X148903624Y-135309505D01*
X148971544Y-135145533D01*
X149070147Y-134997963D01*
X149195646Y-134872464D01*
X149343216Y-134773861D01*
X149507188Y-134705941D01*
X149656488Y-134676244D01*
X149681258Y-134671317D01*
X149858742Y-134671317D01*
X149883512Y-134676244D01*
G37*
G36*
X121336073Y-126022608D02*
G01*
X121485373Y-126052305D01*
X121649345Y-126120225D01*
X121796915Y-126218828D01*
X121922414Y-126344327D01*
X122021017Y-126491897D01*
X122088937Y-126655869D01*
X122123561Y-126829940D01*
X122123561Y-127007422D01*
X122088937Y-127181493D01*
X122021017Y-127345465D01*
X121922414Y-127493035D01*
X121796915Y-127618534D01*
X121649345Y-127717137D01*
X121485373Y-127785057D01*
X121336073Y-127814754D01*
X121311303Y-127819681D01*
X121133819Y-127819681D01*
X121109049Y-127814754D01*
X120959749Y-127785057D01*
X120795777Y-127717137D01*
X120648207Y-127618534D01*
X120522708Y-127493035D01*
X120424105Y-127345465D01*
X120356185Y-127181493D01*
X120321561Y-127007422D01*
X120321561Y-126829940D01*
X120356185Y-126655869D01*
X120424105Y-126491897D01*
X120522708Y-126344327D01*
X120648207Y-126218828D01*
X120795777Y-126120225D01*
X120959749Y-126052305D01*
X121109049Y-126022608D01*
X121133819Y-126017681D01*
X121311303Y-126017681D01*
X121336073Y-126022608D01*
G37*
G36*
X176041054Y-126019389D02*
G01*
X176190354Y-126049086D01*
X176354326Y-126117006D01*
X176501896Y-126215609D01*
X176627395Y-126341108D01*
X176725998Y-126488678D01*
X176793918Y-126652650D01*
X176828542Y-126826721D01*
X176828542Y-127004203D01*
X176793918Y-127178274D01*
X176725998Y-127342246D01*
X176627395Y-127489816D01*
X176501896Y-127615315D01*
X176354326Y-127713918D01*
X176190354Y-127781838D01*
X176041054Y-127811535D01*
X176016284Y-127816462D01*
X175838800Y-127816462D01*
X175814030Y-127811535D01*
X175664730Y-127781838D01*
X175500758Y-127713918D01*
X175353188Y-127615315D01*
X175227689Y-127489816D01*
X175129086Y-127342246D01*
X175061166Y-127178274D01*
X175026542Y-127004203D01*
X175026542Y-126826721D01*
X175061166Y-126652650D01*
X175129086Y-126488678D01*
X175227689Y-126341108D01*
X175353188Y-126215609D01*
X175500758Y-126117006D01*
X175664730Y-126049086D01*
X175814030Y-126019389D01*
X175838800Y-126014462D01*
X176016284Y-126014462D01*
X176041054Y-126019389D01*
G37*
G36*
X116327424Y-123461691D02*
G01*
X116514491Y-123498901D01*
X116646484Y-123553574D01*
X116833151Y-123630894D01*
X117119939Y-123822520D01*
X117363834Y-124066415D01*
X117555460Y-124353203D01*
X117632780Y-124539870D01*
X117686120Y-124668644D01*
X117687453Y-124671864D01*
X117754743Y-125010151D01*
X117754743Y-125355071D01*
X117687453Y-125693358D01*
X117555460Y-126012019D01*
X117363834Y-126298807D01*
X117119939Y-126542702D01*
X116833151Y-126734328D01*
X116646484Y-126811648D01*
X116514491Y-126866321D01*
X116401728Y-126888751D01*
X116176203Y-126933611D01*
X115831283Y-126933611D01*
X115605758Y-126888751D01*
X115492995Y-126866321D01*
X115361002Y-126811648D01*
X115174335Y-126734328D01*
X114887547Y-126542702D01*
X114643652Y-126298807D01*
X114452026Y-126012019D01*
X114320033Y-125693358D01*
X114252743Y-125355071D01*
X114252743Y-125010151D01*
X114320033Y-124671864D01*
X114321367Y-124668644D01*
X114374706Y-124539870D01*
X114452026Y-124353203D01*
X114643652Y-124066415D01*
X114887547Y-123822520D01*
X115174335Y-123630894D01*
X115361002Y-123553574D01*
X115492995Y-123498901D01*
X115680062Y-123461691D01*
X115831283Y-123431611D01*
X116176203Y-123431611D01*
X116327424Y-123461691D01*
G37*
G36*
X181486224Y-123461691D02*
G01*
X181657108Y-123495682D01*
X181752713Y-123535283D01*
X181975768Y-123627675D01*
X182262556Y-123819301D01*
X182506451Y-124063196D01*
X182698077Y-124349984D01*
X182830070Y-124668645D01*
X182897360Y-125006932D01*
X182897360Y-125351852D01*
X182852500Y-125577377D01*
X182830070Y-125690140D01*
X182775397Y-125822133D01*
X182698077Y-126008800D01*
X182506451Y-126295588D01*
X182262556Y-126539483D01*
X181975768Y-126731109D01*
X181789101Y-126808429D01*
X181657108Y-126863102D01*
X181544345Y-126885532D01*
X181318820Y-126930392D01*
X180973900Y-126930392D01*
X180748375Y-126885532D01*
X180635612Y-126863102D01*
X180503619Y-126808429D01*
X180316952Y-126731109D01*
X180030164Y-126539483D01*
X179786269Y-126295588D01*
X179594643Y-126008800D01*
X179517323Y-125822133D01*
X179462650Y-125690140D01*
X179440220Y-125577377D01*
X179395360Y-125351852D01*
X179395360Y-125006932D01*
X179462650Y-124668645D01*
X179594643Y-124349984D01*
X179786269Y-124063196D01*
X180030164Y-123819301D01*
X180316952Y-123627675D01*
X180540007Y-123535283D01*
X180635612Y-123495682D01*
X180806496Y-123461691D01*
X180973900Y-123428392D01*
X181318820Y-123428392D01*
X181486224Y-123461691D01*
G37*
G36*
X110898437Y-122550468D02*
G01*
X111047737Y-122580165D01*
X111211709Y-122648085D01*
X111359279Y-122746688D01*
X111484778Y-122872187D01*
X111583381Y-123019757D01*
X111651301Y-123183729D01*
X111685925Y-123357800D01*
X111685925Y-123535282D01*
X111651301Y-123709353D01*
X111583381Y-123873325D01*
X111484778Y-124020895D01*
X111359279Y-124146394D01*
X111211709Y-124244997D01*
X111047737Y-124312917D01*
X110898437Y-124342614D01*
X110873667Y-124347541D01*
X110696183Y-124347541D01*
X110671413Y-124342614D01*
X110522113Y-124312917D01*
X110358141Y-124244997D01*
X110210571Y-124146394D01*
X110085072Y-124020895D01*
X109986469Y-123873325D01*
X109918549Y-123709353D01*
X109883925Y-123535282D01*
X109883925Y-123357800D01*
X109918549Y-123183729D01*
X109986469Y-123019757D01*
X110085072Y-122872187D01*
X110210571Y-122746688D01*
X110358141Y-122648085D01*
X110522113Y-122580165D01*
X110671413Y-122550468D01*
X110696183Y-122545541D01*
X110873667Y-122545541D01*
X110898437Y-122550468D01*
G37*
G36*
X186478690Y-122547249D02*
G01*
X186627990Y-122576946D01*
X186791962Y-122644866D01*
X186939532Y-122743469D01*
X187065031Y-122868968D01*
X187163634Y-123016538D01*
X187231554Y-123180510D01*
X187266178Y-123354581D01*
X187266178Y-123532063D01*
X187231554Y-123706134D01*
X187163634Y-123870106D01*
X187065031Y-124017676D01*
X186939532Y-124143175D01*
X186791962Y-124241778D01*
X186627990Y-124309698D01*
X186478690Y-124339395D01*
X186453920Y-124344322D01*
X186276436Y-124344322D01*
X186251666Y-124339395D01*
X186102366Y-124309698D01*
X185938394Y-124241778D01*
X185790824Y-124143175D01*
X185665325Y-124017676D01*
X185566722Y-123870106D01*
X185498802Y-123706134D01*
X185464178Y-123532063D01*
X185464178Y-123354581D01*
X185498802Y-123180510D01*
X185566722Y-123016538D01*
X185665325Y-122868968D01*
X185790824Y-122743469D01*
X185938394Y-122644866D01*
X186102366Y-122576946D01*
X186251666Y-122547249D01*
X186276436Y-122542322D01*
X186453920Y-122542322D01*
X186478690Y-122547249D01*
G37*
G36*
X122254153Y-122144516D02*
G01*
X122445422Y-122223742D01*
X122445424Y-122223743D01*
X122617562Y-122338762D01*
X122763954Y-122485154D01*
X122878974Y-122657294D01*
X122958200Y-122848563D01*
X122998589Y-123051611D01*
X122998589Y-123258643D01*
X122958200Y-123461691D01*
X122878974Y-123652960D01*
X122878973Y-123652962D01*
X122763954Y-123825100D01*
X122617562Y-123971492D01*
X122445424Y-124086511D01*
X122445423Y-124086512D01*
X122445422Y-124086512D01*
X122254153Y-124165738D01*
X122051105Y-124206127D01*
X121844073Y-124206127D01*
X121641025Y-124165738D01*
X121449756Y-124086512D01*
X121449755Y-124086512D01*
X121449754Y-124086511D01*
X121277616Y-123971492D01*
X121131224Y-123825100D01*
X121016205Y-123652962D01*
X121016204Y-123652960D01*
X120936978Y-123461691D01*
X120896589Y-123258643D01*
X120896589Y-123051611D01*
X120936978Y-122848563D01*
X121016204Y-122657294D01*
X121131224Y-122485154D01*
X121277616Y-122338762D01*
X121449754Y-122223743D01*
X121449756Y-122223742D01*
X121641025Y-122144516D01*
X121844073Y-122104127D01*
X122051105Y-122104127D01*
X122254153Y-122144516D01*
G37*
G36*
X104256309Y-120340923D02*
G01*
X104405609Y-120370620D01*
X104569581Y-120438540D01*
X104717151Y-120537143D01*
X104842650Y-120662642D01*
X104941253Y-120810212D01*
X105009173Y-120974184D01*
X105043797Y-121148255D01*
X105043797Y-121325737D01*
X105009173Y-121499808D01*
X104941253Y-121663780D01*
X104842650Y-121811350D01*
X104717151Y-121936849D01*
X104569581Y-122035452D01*
X104405609Y-122103372D01*
X104256309Y-122133069D01*
X104231539Y-122137996D01*
X104054055Y-122137996D01*
X104029285Y-122133069D01*
X103879985Y-122103372D01*
X103716013Y-122035452D01*
X103568443Y-121936849D01*
X103442944Y-121811350D01*
X103344341Y-121663780D01*
X103276421Y-121499808D01*
X103241797Y-121325737D01*
X103241797Y-121148255D01*
X103276421Y-120974184D01*
X103344341Y-120810212D01*
X103442944Y-120662642D01*
X103568443Y-120537143D01*
X103716013Y-120438540D01*
X103879985Y-120370620D01*
X104029285Y-120340923D01*
X104054055Y-120335996D01*
X104231539Y-120335996D01*
X104256309Y-120340923D01*
G37*
G36*
X193120822Y-120337709D02*
G01*
X193270122Y-120367406D01*
X193434094Y-120435326D01*
X193581664Y-120533929D01*
X193707163Y-120659428D01*
X193805766Y-120806998D01*
X193873686Y-120970970D01*
X193908310Y-121145041D01*
X193908310Y-121322523D01*
X193873686Y-121496594D01*
X193805766Y-121660566D01*
X193707163Y-121808136D01*
X193581664Y-121933635D01*
X193434094Y-122032238D01*
X193270122Y-122100158D01*
X193120822Y-122129855D01*
X193096052Y-122134782D01*
X192918568Y-122134782D01*
X192893798Y-122129855D01*
X192744498Y-122100158D01*
X192580526Y-122032238D01*
X192432956Y-121933635D01*
X192307457Y-121808136D01*
X192208854Y-121660566D01*
X192140934Y-121496594D01*
X192106310Y-121322523D01*
X192106310Y-121145041D01*
X192140934Y-120970970D01*
X192208854Y-120806998D01*
X192307457Y-120659428D01*
X192432956Y-120533929D01*
X192580526Y-120435326D01*
X192744498Y-120367406D01*
X192893798Y-120337709D01*
X192918568Y-120332782D01*
X193096052Y-120332782D01*
X193120822Y-120337709D01*
G37*
G36*
X99247660Y-117780006D02*
G01*
X99434727Y-117817216D01*
X99566720Y-117871889D01*
X99753387Y-117949209D01*
X100040175Y-118140835D01*
X100284070Y-118384730D01*
X100475696Y-118671518D01*
X100514276Y-118764659D01*
X100606358Y-118986964D01*
X100607689Y-118990179D01*
X100674979Y-119328466D01*
X100674979Y-119673386D01*
X100672760Y-119684540D01*
X100607689Y-120011674D01*
X100571545Y-120098932D01*
X100475696Y-120330334D01*
X100284070Y-120617122D01*
X100040175Y-120861017D01*
X99753387Y-121052643D01*
X99566720Y-121129963D01*
X99434727Y-121184636D01*
X99321964Y-121207066D01*
X99096439Y-121251926D01*
X98751519Y-121251926D01*
X98525994Y-121207066D01*
X98413231Y-121184636D01*
X98281238Y-121129963D01*
X98094571Y-121052643D01*
X97807783Y-120861017D01*
X97563888Y-120617122D01*
X97372262Y-120330334D01*
X97276413Y-120098932D01*
X97240269Y-120011674D01*
X97175198Y-119684540D01*
X97172979Y-119673386D01*
X97172979Y-119328466D01*
X97240269Y-118990179D01*
X97241601Y-118986964D01*
X97333682Y-118764659D01*
X97372262Y-118671518D01*
X97563888Y-118384730D01*
X97807783Y-118140835D01*
X98094571Y-117949209D01*
X98281238Y-117871889D01*
X98413231Y-117817216D01*
X98600298Y-117780006D01*
X98751519Y-117749926D01*
X99096439Y-117749926D01*
X99247660Y-117780006D01*
G37*
G36*
X198624113Y-117791572D02*
G01*
X198736876Y-117814002D01*
X198832469Y-117853598D01*
X199055536Y-117945995D01*
X199342324Y-118137621D01*
X199586219Y-118381516D01*
X199777845Y-118668304D01*
X199855165Y-118854971D01*
X199909838Y-118986964D01*
X199925168Y-119064033D01*
X199977128Y-119325252D01*
X199977128Y-119670172D01*
X199973412Y-119688853D01*
X199909838Y-120008460D01*
X199880678Y-120078859D01*
X199777845Y-120327120D01*
X199586219Y-120613908D01*
X199342324Y-120857803D01*
X199055536Y-121049429D01*
X198868869Y-121126749D01*
X198736876Y-121181422D01*
X198624113Y-121203852D01*
X198398588Y-121248712D01*
X198053668Y-121248712D01*
X197828143Y-121203852D01*
X197715380Y-121181422D01*
X197583387Y-121126749D01*
X197396720Y-121049429D01*
X197109932Y-120857803D01*
X196866037Y-120613908D01*
X196674411Y-120327120D01*
X196571578Y-120078859D01*
X196542418Y-120008460D01*
X196478844Y-119688853D01*
X196475128Y-119670172D01*
X196475128Y-119325252D01*
X196527088Y-119064033D01*
X196542418Y-118986964D01*
X196597091Y-118854971D01*
X196674411Y-118668304D01*
X196866037Y-118381516D01*
X197109932Y-118137621D01*
X197396720Y-117945995D01*
X197619787Y-117853598D01*
X197715380Y-117814002D01*
X197828143Y-117791572D01*
X198053668Y-117746712D01*
X198398588Y-117746712D01*
X198624113Y-117791572D01*
G37*
G36*
X184997838Y-118984807D02*
G01*
X185189107Y-119064033D01*
X185189109Y-119064034D01*
X185361247Y-119179053D01*
X185507639Y-119325445D01*
X185611397Y-119480729D01*
X185622659Y-119497585D01*
X185701885Y-119688854D01*
X185742274Y-119891902D01*
X185742274Y-120098934D01*
X185701885Y-120301982D01*
X185662366Y-120397389D01*
X185622658Y-120493253D01*
X185507639Y-120665391D01*
X185361247Y-120811783D01*
X185189109Y-120926802D01*
X185189108Y-120926803D01*
X185189107Y-120926803D01*
X184997838Y-121006029D01*
X184794790Y-121046418D01*
X184587758Y-121046418D01*
X184384710Y-121006029D01*
X184193441Y-120926803D01*
X184193440Y-120926803D01*
X184193439Y-120926802D01*
X184021301Y-120811783D01*
X183874909Y-120665391D01*
X183759890Y-120493253D01*
X183720182Y-120397389D01*
X183680663Y-120301982D01*
X183640274Y-120098934D01*
X183640274Y-119891902D01*
X183680663Y-119688854D01*
X183759889Y-119497585D01*
X183771152Y-119480729D01*
X183874909Y-119325445D01*
X184021301Y-119179053D01*
X184193439Y-119064034D01*
X184193441Y-119064033D01*
X184384710Y-118984807D01*
X184587758Y-118944418D01*
X184794790Y-118944418D01*
X184997838Y-118984807D01*
G37*
G36*
X118172636Y-118573632D02*
G01*
X118356136Y-118649640D01*
X118363907Y-118652859D01*
X118536045Y-118767878D01*
X118682437Y-118914270D01*
X118731010Y-118986964D01*
X118797457Y-119086410D01*
X118876683Y-119277679D01*
X118917072Y-119480727D01*
X118917072Y-119687759D01*
X118876683Y-119890807D01*
X118797457Y-120082076D01*
X118797456Y-120082078D01*
X118682437Y-120254216D01*
X118536045Y-120400608D01*
X118363907Y-120515627D01*
X118363906Y-120515628D01*
X118363905Y-120515628D01*
X118172636Y-120594854D01*
X117969588Y-120635243D01*
X117762556Y-120635243D01*
X117559508Y-120594854D01*
X117368239Y-120515628D01*
X117368238Y-120515628D01*
X117368237Y-120515627D01*
X117196099Y-120400608D01*
X117049707Y-120254216D01*
X116934688Y-120082078D01*
X116934687Y-120082076D01*
X116855461Y-119890807D01*
X116815072Y-119687759D01*
X116815072Y-119480727D01*
X116855461Y-119277679D01*
X116934687Y-119086410D01*
X117001135Y-118986964D01*
X117049707Y-118914270D01*
X117196099Y-118767878D01*
X117368237Y-118652859D01*
X117376008Y-118649640D01*
X117559508Y-118573632D01*
X117762556Y-118533243D01*
X117969588Y-118533243D01*
X118172636Y-118573632D01*
G37*
G36*
X179590595Y-118570413D02*
G01*
X179737425Y-118631232D01*
X179781866Y-118649640D01*
X179954004Y-118764659D01*
X180100396Y-118911051D01*
X180215416Y-119083191D01*
X180294642Y-119274460D01*
X180335031Y-119477508D01*
X180335031Y-119684540D01*
X180294642Y-119887588D01*
X180244575Y-120008460D01*
X180215415Y-120078859D01*
X180100396Y-120250997D01*
X179954004Y-120397389D01*
X179781866Y-120512408D01*
X179781865Y-120512409D01*
X179781864Y-120512409D01*
X179590595Y-120591635D01*
X179387547Y-120632024D01*
X179180515Y-120632024D01*
X178977467Y-120591635D01*
X178786198Y-120512409D01*
X178786197Y-120512409D01*
X178786196Y-120512408D01*
X178614058Y-120397389D01*
X178467666Y-120250997D01*
X178352647Y-120078859D01*
X178323487Y-120008460D01*
X178273420Y-119887588D01*
X178233031Y-119684540D01*
X178233031Y-119477508D01*
X178273420Y-119274460D01*
X178352646Y-119083191D01*
X178467666Y-118911051D01*
X178614058Y-118764659D01*
X178786196Y-118649640D01*
X178830637Y-118631232D01*
X178977467Y-118570413D01*
X179180515Y-118530024D01*
X179387547Y-118530024D01*
X179590595Y-118570413D01*
G37*
G36*
X93818673Y-116868783D02*
G01*
X93967973Y-116898480D01*
X94131945Y-116966400D01*
X94279515Y-117065003D01*
X94405014Y-117190502D01*
X94503617Y-117338072D01*
X94571537Y-117502044D01*
X94606161Y-117676115D01*
X94606161Y-117853597D01*
X94571537Y-118027668D01*
X94503617Y-118191640D01*
X94405014Y-118339210D01*
X94279515Y-118464709D01*
X94131945Y-118563312D01*
X93967973Y-118631232D01*
X93818673Y-118660929D01*
X93793903Y-118665856D01*
X93616419Y-118665856D01*
X93591649Y-118660929D01*
X93442349Y-118631232D01*
X93278377Y-118563312D01*
X93130807Y-118464709D01*
X93005308Y-118339210D01*
X92906705Y-118191640D01*
X92838785Y-118027668D01*
X92804161Y-117853597D01*
X92804161Y-117676115D01*
X92838785Y-117502044D01*
X92906705Y-117338072D01*
X93005308Y-117190502D01*
X93130807Y-117065003D01*
X93278377Y-116966400D01*
X93442349Y-116898480D01*
X93591649Y-116868783D01*
X93616419Y-116863856D01*
X93793903Y-116863856D01*
X93818673Y-116868783D01*
G37*
G36*
X203558458Y-116865569D02*
G01*
X203707758Y-116895266D01*
X203871730Y-116963186D01*
X204019300Y-117061789D01*
X204144799Y-117187288D01*
X204243402Y-117334858D01*
X204311322Y-117498830D01*
X204345946Y-117672901D01*
X204345946Y-117850383D01*
X204311322Y-118024454D01*
X204243402Y-118188426D01*
X204144799Y-118335996D01*
X204019300Y-118461495D01*
X203871730Y-118560098D01*
X203707758Y-118628018D01*
X203558458Y-118657715D01*
X203533688Y-118662642D01*
X203356204Y-118662642D01*
X203331434Y-118657715D01*
X203182134Y-118628018D01*
X203018162Y-118560098D01*
X202870592Y-118461495D01*
X202745093Y-118335996D01*
X202646490Y-118188426D01*
X202578570Y-118024454D01*
X202543946Y-117850383D01*
X202543946Y-117672901D01*
X202578570Y-117498830D01*
X202646490Y-117334858D01*
X202745093Y-117187288D01*
X202870592Y-117061789D01*
X203018162Y-116963186D01*
X203182134Y-116895266D01*
X203331434Y-116865569D01*
X203356204Y-116860642D01*
X203533688Y-116860642D01*
X203558458Y-116865569D01*
G37*
G36*
X105174389Y-116462831D02*
G01*
X105365658Y-116542057D01*
X105365660Y-116542058D01*
X105537798Y-116657077D01*
X105684190Y-116803469D01*
X105790910Y-116963186D01*
X105799210Y-116975609D01*
X105878436Y-117166878D01*
X105918825Y-117369926D01*
X105918825Y-117576958D01*
X105878436Y-117780006D01*
X105799210Y-117971275D01*
X105799209Y-117971277D01*
X105684190Y-118143415D01*
X105537798Y-118289807D01*
X105365660Y-118404826D01*
X105365659Y-118404827D01*
X105365658Y-118404827D01*
X105174389Y-118484053D01*
X104971341Y-118524442D01*
X104764309Y-118524442D01*
X104561261Y-118484053D01*
X104369992Y-118404827D01*
X104369991Y-118404827D01*
X104369990Y-118404826D01*
X104197852Y-118289807D01*
X104051460Y-118143415D01*
X103936441Y-117971277D01*
X103936440Y-117971275D01*
X103857214Y-117780006D01*
X103816825Y-117576958D01*
X103816825Y-117369926D01*
X103857214Y-117166878D01*
X103936440Y-116975609D01*
X103944741Y-116963186D01*
X104051460Y-116803469D01*
X104197852Y-116657077D01*
X104369990Y-116542058D01*
X104369992Y-116542057D01*
X104561261Y-116462831D01*
X104764309Y-116422442D01*
X104971341Y-116422442D01*
X105174389Y-116462831D01*
G37*
G36*
X87176539Y-114659237D02*
G01*
X87325839Y-114688934D01*
X87489811Y-114756854D01*
X87637381Y-114855457D01*
X87762880Y-114980956D01*
X87861483Y-115128526D01*
X87929403Y-115292498D01*
X87964027Y-115466569D01*
X87964027Y-115644051D01*
X87929403Y-115818122D01*
X87861483Y-115982094D01*
X87762880Y-116129664D01*
X87637381Y-116255163D01*
X87489811Y-116353766D01*
X87325839Y-116421686D01*
X87176539Y-116451383D01*
X87151769Y-116456310D01*
X86974285Y-116456310D01*
X86949515Y-116451383D01*
X86800215Y-116421686D01*
X86636243Y-116353766D01*
X86488673Y-116255163D01*
X86363174Y-116129664D01*
X86264571Y-115982094D01*
X86196651Y-115818122D01*
X86162027Y-115644051D01*
X86162027Y-115466569D01*
X86196651Y-115292498D01*
X86264571Y-115128526D01*
X86363174Y-114980956D01*
X86488673Y-114855457D01*
X86636243Y-114756854D01*
X86800215Y-114688934D01*
X86949515Y-114659237D01*
X86974285Y-114654310D01*
X87151769Y-114654310D01*
X87176539Y-114659237D01*
G37*
G36*
X210200594Y-114656026D02*
G01*
X210349894Y-114685723D01*
X210513866Y-114753643D01*
X210661436Y-114852246D01*
X210786935Y-114977745D01*
X210885538Y-115125315D01*
X210953458Y-115289287D01*
X210988082Y-115463358D01*
X210988082Y-115640840D01*
X210953458Y-115814911D01*
X210885538Y-115978883D01*
X210786935Y-116126453D01*
X210661436Y-116251952D01*
X210513866Y-116350555D01*
X210349894Y-116418475D01*
X210200594Y-116448172D01*
X210175824Y-116453099D01*
X209998340Y-116453099D01*
X209973570Y-116448172D01*
X209824270Y-116418475D01*
X209660298Y-116350555D01*
X209512728Y-116251952D01*
X209387229Y-116126453D01*
X209288626Y-115978883D01*
X209220706Y-115814911D01*
X209186082Y-115640840D01*
X209186082Y-115463358D01*
X209220706Y-115289287D01*
X209288626Y-115125315D01*
X209387229Y-114977745D01*
X209512728Y-114852246D01*
X209660298Y-114753643D01*
X209824270Y-114685723D01*
X209973570Y-114656026D01*
X209998340Y-114651099D01*
X210175824Y-114651099D01*
X210200594Y-114656026D01*
G37*
G36*
X82167890Y-112098320D02*
G01*
X82354957Y-112135530D01*
X82486950Y-112190203D01*
X82673617Y-112267523D01*
X82960405Y-112459149D01*
X83204300Y-112703044D01*
X83395926Y-112989832D01*
X83435840Y-113086193D01*
X83527919Y-113308492D01*
X83547061Y-113404725D01*
X83595209Y-113646780D01*
X83595209Y-113991700D01*
X83592131Y-114007173D01*
X83527919Y-114329988D01*
X83498757Y-114400391D01*
X83395926Y-114648648D01*
X83204300Y-114935436D01*
X82960405Y-115179331D01*
X82673617Y-115370957D01*
X82486950Y-115448277D01*
X82354957Y-115502950D01*
X82242194Y-115525380D01*
X82016669Y-115570240D01*
X81671749Y-115570240D01*
X81446224Y-115525380D01*
X81333461Y-115502950D01*
X81201468Y-115448277D01*
X81014801Y-115370957D01*
X80728013Y-115179331D01*
X80484118Y-114935436D01*
X80292492Y-114648648D01*
X80189661Y-114400391D01*
X80160499Y-114329988D01*
X80096287Y-114007173D01*
X80093209Y-113991700D01*
X80093209Y-113646780D01*
X80141357Y-113404725D01*
X80160499Y-113308492D01*
X80252578Y-113086193D01*
X80292492Y-112989832D01*
X80484118Y-112703044D01*
X80728013Y-112459149D01*
X81014801Y-112267523D01*
X81201468Y-112190203D01*
X81333461Y-112135530D01*
X81520528Y-112098320D01*
X81671749Y-112068240D01*
X82016669Y-112068240D01*
X82167890Y-112098320D01*
G37*
G36*
X215703885Y-112109889D02*
G01*
X215816648Y-112132319D01*
X215948641Y-112186992D01*
X216135308Y-112264312D01*
X216422096Y-112455938D01*
X216665991Y-112699833D01*
X216857617Y-112986621D01*
X216898861Y-113086193D01*
X216989610Y-113305281D01*
X217004941Y-113382354D01*
X217056900Y-113643569D01*
X217056900Y-113988489D01*
X216989610Y-114326776D01*
X216857617Y-114645437D01*
X216665991Y-114932225D01*
X216422096Y-115176120D01*
X216135308Y-115367746D01*
X215948641Y-115445066D01*
X215816648Y-115499739D01*
X215703885Y-115522169D01*
X215478360Y-115567029D01*
X215133440Y-115567029D01*
X214907915Y-115522169D01*
X214795152Y-115499739D01*
X214663159Y-115445066D01*
X214476492Y-115367746D01*
X214189704Y-115176120D01*
X213945809Y-114932225D01*
X213754183Y-114645437D01*
X213622190Y-114326776D01*
X213554900Y-113988489D01*
X213554900Y-113643569D01*
X213606859Y-113382354D01*
X213622190Y-113305281D01*
X213712939Y-113086193D01*
X213754183Y-112986621D01*
X213945809Y-112699833D01*
X214189704Y-112455938D01*
X214476492Y-112264312D01*
X214663159Y-112186992D01*
X214795152Y-112132319D01*
X214907915Y-112109889D01*
X215133440Y-112065029D01*
X215478360Y-112065029D01*
X215703885Y-112109889D01*
G37*
G36*
X202077606Y-113303127D02*
G01*
X202268875Y-113382353D01*
X202268877Y-113382354D01*
X202441015Y-113497373D01*
X202587407Y-113643765D01*
X202689014Y-113795830D01*
X202702427Y-113815905D01*
X202781653Y-114007174D01*
X202822042Y-114210222D01*
X202822042Y-114417254D01*
X202781653Y-114620302D01*
X202753224Y-114688935D01*
X202702426Y-114811573D01*
X202587407Y-114983711D01*
X202441015Y-115130103D01*
X202268877Y-115245122D01*
X202268876Y-115245123D01*
X202268875Y-115245123D01*
X202077606Y-115324349D01*
X201874558Y-115364738D01*
X201667526Y-115364738D01*
X201464478Y-115324349D01*
X201273209Y-115245123D01*
X201273208Y-115245123D01*
X201273207Y-115245122D01*
X201101069Y-115130103D01*
X200954677Y-114983711D01*
X200839658Y-114811573D01*
X200788860Y-114688935D01*
X200760431Y-114620302D01*
X200720042Y-114417254D01*
X200720042Y-114210222D01*
X200760431Y-114007174D01*
X200839657Y-113815905D01*
X200853071Y-113795830D01*
X200954677Y-113643765D01*
X201101069Y-113497373D01*
X201273207Y-113382354D01*
X201273209Y-113382353D01*
X201464478Y-113303127D01*
X201667526Y-113262738D01*
X201874558Y-113262738D01*
X202077606Y-113303127D01*
G37*
G36*
X101092872Y-112891947D02*
G01*
X101276384Y-112967960D01*
X101284143Y-112971174D01*
X101456281Y-113086193D01*
X101602673Y-113232585D01*
X101715546Y-113401511D01*
X101717693Y-113404725D01*
X101796919Y-113595994D01*
X101837308Y-113799042D01*
X101837308Y-114006074D01*
X101796919Y-114209122D01*
X101719024Y-114397177D01*
X101717692Y-114400393D01*
X101602673Y-114572531D01*
X101456281Y-114718923D01*
X101284143Y-114833942D01*
X101284142Y-114833943D01*
X101284141Y-114833943D01*
X101092872Y-114913169D01*
X100889824Y-114953558D01*
X100682792Y-114953558D01*
X100479744Y-114913169D01*
X100288475Y-114833943D01*
X100288474Y-114833943D01*
X100288473Y-114833942D01*
X100116335Y-114718923D01*
X99969943Y-114572531D01*
X99854924Y-114400393D01*
X99853592Y-114397177D01*
X99775697Y-114209122D01*
X99735308Y-114006074D01*
X99735308Y-113799042D01*
X99775697Y-113595994D01*
X99854923Y-113404725D01*
X99857071Y-113401511D01*
X99969943Y-113232585D01*
X100116335Y-113086193D01*
X100288473Y-112971174D01*
X100296232Y-112967960D01*
X100479744Y-112891947D01*
X100682792Y-112851558D01*
X100889824Y-112851558D01*
X101092872Y-112891947D01*
G37*
G36*
X196670363Y-112888733D02*
G01*
X196861632Y-112967959D01*
X196861634Y-112967960D01*
X197033772Y-113082979D01*
X197180164Y-113229371D01*
X197295184Y-113401511D01*
X197374410Y-113592780D01*
X197414799Y-113795828D01*
X197414799Y-114002860D01*
X197374410Y-114205908D01*
X197295184Y-114397177D01*
X197295183Y-114397179D01*
X197180164Y-114569317D01*
X197033772Y-114715709D01*
X196861634Y-114830728D01*
X196861633Y-114830729D01*
X196861632Y-114830729D01*
X196670363Y-114909955D01*
X196467315Y-114950344D01*
X196260283Y-114950344D01*
X196057235Y-114909955D01*
X195865966Y-114830729D01*
X195865965Y-114830729D01*
X195865964Y-114830728D01*
X195693826Y-114715709D01*
X195547434Y-114569317D01*
X195432415Y-114397179D01*
X195432414Y-114397177D01*
X195353188Y-114205908D01*
X195312799Y-114002860D01*
X195312799Y-113795828D01*
X195353188Y-113592780D01*
X195432414Y-113401511D01*
X195547434Y-113229371D01*
X195693826Y-113082979D01*
X195865964Y-112967960D01*
X195865966Y-112967959D01*
X196057235Y-112888733D01*
X196260283Y-112848344D01*
X196467315Y-112848344D01*
X196670363Y-112888733D01*
G37*
G36*
X76738903Y-111187097D02*
G01*
X76888203Y-111216794D01*
X77052175Y-111284714D01*
X77199745Y-111383317D01*
X77325244Y-111508816D01*
X77423847Y-111656386D01*
X77491767Y-111820358D01*
X77526391Y-111994429D01*
X77526391Y-112171911D01*
X77491767Y-112345982D01*
X77423847Y-112509954D01*
X77325244Y-112657524D01*
X77199745Y-112783023D01*
X77052175Y-112881626D01*
X76888203Y-112949546D01*
X76738903Y-112979243D01*
X76714133Y-112984170D01*
X76536649Y-112984170D01*
X76511879Y-112979243D01*
X76362579Y-112949546D01*
X76198607Y-112881626D01*
X76051037Y-112783023D01*
X75925538Y-112657524D01*
X75826935Y-112509954D01*
X75759015Y-112345982D01*
X75724391Y-112171911D01*
X75724391Y-111994429D01*
X75759015Y-111820358D01*
X75826935Y-111656386D01*
X75925538Y-111508816D01*
X76051037Y-111383317D01*
X76198607Y-111284714D01*
X76362579Y-111216794D01*
X76511879Y-111187097D01*
X76536649Y-111182170D01*
X76714133Y-111182170D01*
X76738903Y-111187097D01*
G37*
G36*
X220638230Y-111183886D02*
G01*
X220787530Y-111213583D01*
X220951502Y-111281503D01*
X221099072Y-111380106D01*
X221224571Y-111505605D01*
X221323174Y-111653175D01*
X221391094Y-111817147D01*
X221425718Y-111991218D01*
X221425718Y-112168700D01*
X221391094Y-112342771D01*
X221323174Y-112506743D01*
X221224571Y-112654313D01*
X221099072Y-112779812D01*
X220951502Y-112878415D01*
X220787530Y-112946335D01*
X220638230Y-112976032D01*
X220613460Y-112980959D01*
X220435976Y-112980959D01*
X220411206Y-112976032D01*
X220261906Y-112946335D01*
X220097934Y-112878415D01*
X219950364Y-112779812D01*
X219824865Y-112654313D01*
X219726262Y-112506743D01*
X219658342Y-112342771D01*
X219623718Y-112168700D01*
X219623718Y-111991218D01*
X219658342Y-111817147D01*
X219726262Y-111653175D01*
X219824865Y-111505605D01*
X219950364Y-111380106D01*
X220097934Y-111281503D01*
X220261906Y-111213583D01*
X220411206Y-111183886D01*
X220435976Y-111178959D01*
X220613460Y-111178959D01*
X220638230Y-111183886D01*
G37*
G36*
X88094619Y-110781145D02*
G01*
X88285888Y-110860371D01*
X88285890Y-110860372D01*
X88458028Y-110975391D01*
X88604420Y-111121783D01*
X88711142Y-111281503D01*
X88719440Y-111293923D01*
X88798666Y-111485192D01*
X88839055Y-111688240D01*
X88839055Y-111895272D01*
X88798666Y-112098320D01*
X88719440Y-112289589D01*
X88719439Y-112289591D01*
X88604420Y-112461729D01*
X88458028Y-112608121D01*
X88285890Y-112723140D01*
X88285889Y-112723141D01*
X88285888Y-112723141D01*
X88094619Y-112802367D01*
X87891571Y-112842756D01*
X87684539Y-112842756D01*
X87481491Y-112802367D01*
X87290222Y-112723141D01*
X87290221Y-112723141D01*
X87290220Y-112723140D01*
X87118082Y-112608121D01*
X86971690Y-112461729D01*
X86856671Y-112289591D01*
X86856670Y-112289589D01*
X86777444Y-112098320D01*
X86737055Y-111895272D01*
X86737055Y-111688240D01*
X86777444Y-111485192D01*
X86856670Y-111293923D01*
X86864969Y-111281503D01*
X86971690Y-111121783D01*
X87118082Y-110975391D01*
X87290220Y-110860372D01*
X87290222Y-110860371D01*
X87481491Y-110781145D01*
X87684539Y-110740756D01*
X87891571Y-110740756D01*
X88094619Y-110781145D01*
G37*
G36*
X219157378Y-107621444D02*
G01*
X219348647Y-107700670D01*
X219348649Y-107700671D01*
X219520787Y-107815690D01*
X219667179Y-107962082D01*
X219768786Y-108114147D01*
X219782199Y-108134222D01*
X219861425Y-108325491D01*
X219901814Y-108528539D01*
X219901814Y-108735571D01*
X219861425Y-108938619D01*
X219821906Y-109034026D01*
X219782198Y-109129890D01*
X219667179Y-109302028D01*
X219520787Y-109448420D01*
X219348649Y-109563439D01*
X219348648Y-109563440D01*
X219348647Y-109563440D01*
X219157378Y-109642666D01*
X218954330Y-109683055D01*
X218747298Y-109683055D01*
X218544250Y-109642666D01*
X218352981Y-109563440D01*
X218352980Y-109563440D01*
X218352979Y-109563439D01*
X218180841Y-109448420D01*
X218034449Y-109302028D01*
X217919430Y-109129890D01*
X217879722Y-109034026D01*
X217840203Y-108938619D01*
X217799814Y-108735571D01*
X217799814Y-108528539D01*
X217840203Y-108325491D01*
X217919429Y-108134222D01*
X217932843Y-108114147D01*
X218034449Y-107962082D01*
X218180841Y-107815690D01*
X218352979Y-107700671D01*
X218352981Y-107700670D01*
X218544250Y-107621444D01*
X218747298Y-107581055D01*
X218954330Y-107581055D01*
X219157378Y-107621444D01*
G37*
G36*
X84013102Y-107210261D02*
G01*
X84196621Y-107286277D01*
X84204373Y-107289488D01*
X84376511Y-107404507D01*
X84522903Y-107550899D01*
X84635778Y-107719828D01*
X84637923Y-107723039D01*
X84717149Y-107914308D01*
X84757538Y-108117356D01*
X84757538Y-108324388D01*
X84717149Y-108527436D01*
X84716692Y-108528539D01*
X84637922Y-108718707D01*
X84522903Y-108890845D01*
X84376511Y-109037237D01*
X84204373Y-109152256D01*
X84204372Y-109152257D01*
X84204371Y-109152257D01*
X84013102Y-109231483D01*
X83810054Y-109271872D01*
X83603022Y-109271872D01*
X83399974Y-109231483D01*
X83208705Y-109152257D01*
X83208704Y-109152257D01*
X83208703Y-109152256D01*
X83036565Y-109037237D01*
X82890173Y-108890845D01*
X82775154Y-108718707D01*
X82696384Y-108528539D01*
X82695927Y-108527436D01*
X82655538Y-108324388D01*
X82655538Y-108117356D01*
X82695927Y-107914308D01*
X82775153Y-107723039D01*
X82777299Y-107719828D01*
X82890173Y-107550899D01*
X83036565Y-107404507D01*
X83208703Y-107289488D01*
X83216455Y-107286277D01*
X83399974Y-107210261D01*
X83603022Y-107169872D01*
X83810054Y-107169872D01*
X84013102Y-107210261D01*
G37*
G36*
X213750135Y-107207050D02*
G01*
X213941404Y-107286276D01*
X213941406Y-107286277D01*
X214113544Y-107401296D01*
X214259936Y-107547688D01*
X214374956Y-107719828D01*
X214454182Y-107911097D01*
X214494571Y-108114145D01*
X214494571Y-108321177D01*
X214454182Y-108524225D01*
X214452395Y-108528539D01*
X214374955Y-108715496D01*
X214259936Y-108887634D01*
X214113544Y-109034026D01*
X213941406Y-109149045D01*
X213941405Y-109149046D01*
X213941404Y-109149046D01*
X213750135Y-109228272D01*
X213547087Y-109268661D01*
X213340055Y-109268661D01*
X213137007Y-109228272D01*
X212945738Y-109149046D01*
X212945737Y-109149046D01*
X212945736Y-109149045D01*
X212773598Y-109034026D01*
X212627206Y-108887634D01*
X212512187Y-108715496D01*
X212434747Y-108528539D01*
X212432960Y-108524225D01*
X212392571Y-108321177D01*
X212392571Y-108114145D01*
X212432960Y-107911097D01*
X212512186Y-107719828D01*
X212627206Y-107547688D01*
X212773598Y-107401296D01*
X212945736Y-107286277D01*
X212945738Y-107286276D01*
X213137007Y-107207050D01*
X213340055Y-107166661D01*
X213547087Y-107166661D01*
X213750135Y-107207050D01*
G37*
G36*
X177960990Y-89021903D02*
G01*
X178110290Y-89051600D01*
X178274262Y-89119520D01*
X178421832Y-89218123D01*
X178547331Y-89343622D01*
X178645934Y-89491192D01*
X178713854Y-89655164D01*
X178748478Y-89829235D01*
X178748478Y-90006717D01*
X178713854Y-90180788D01*
X178645934Y-90344760D01*
X178547331Y-90492330D01*
X178421832Y-90617829D01*
X178274262Y-90716432D01*
X178110290Y-90784352D01*
X177960990Y-90814049D01*
X177936220Y-90818976D01*
X177758736Y-90818976D01*
X177733966Y-90814049D01*
X177584666Y-90784352D01*
X177420694Y-90716432D01*
X177273124Y-90617829D01*
X177147625Y-90492330D01*
X177049022Y-90344760D01*
X176981102Y-90180788D01*
X176946478Y-90006717D01*
X176946478Y-89829235D01*
X176981102Y-89655164D01*
X177049022Y-89491192D01*
X177147625Y-89343622D01*
X177273124Y-89218123D01*
X177420694Y-89119520D01*
X177584666Y-89051600D01*
X177733966Y-89021903D01*
X177758736Y-89016976D01*
X177936220Y-89016976D01*
X177960990Y-89021903D01*
G37*
G36*
X119408082Y-89016976D02*
G01*
X119558313Y-89046858D01*
X119722285Y-89114778D01*
X119869855Y-89213381D01*
X119995354Y-89338880D01*
X120093957Y-89486450D01*
X120161877Y-89650422D01*
X120196501Y-89824493D01*
X120196501Y-90001975D01*
X120161877Y-90176046D01*
X120093957Y-90340018D01*
X119995354Y-90487588D01*
X119869855Y-90613087D01*
X119722285Y-90711690D01*
X119558313Y-90779610D01*
X119409013Y-90809307D01*
X119384243Y-90814234D01*
X119206759Y-90814234D01*
X119181989Y-90809307D01*
X119032689Y-90779610D01*
X118868717Y-90711690D01*
X118721147Y-90613087D01*
X118595648Y-90487588D01*
X118497045Y-90340018D01*
X118429125Y-90176046D01*
X118394501Y-90001975D01*
X118394501Y-89824493D01*
X118429125Y-89650422D01*
X118497045Y-89486450D01*
X118595648Y-89338880D01*
X118721147Y-89213381D01*
X118868717Y-89114778D01*
X119032689Y-89046858D01*
X119182920Y-89016976D01*
X119206759Y-89012234D01*
X119384243Y-89012234D01*
X119408082Y-89016976D01*
G37*
G36*
X183464281Y-86475766D02*
G01*
X183577044Y-86498196D01*
X183709037Y-86552869D01*
X183895704Y-86630189D01*
X184182492Y-86821815D01*
X184426387Y-87065710D01*
X184618013Y-87352498D01*
X184695333Y-87539165D01*
X184748042Y-87666416D01*
X184750006Y-87671159D01*
X184817296Y-88009446D01*
X184817296Y-88354366D01*
X184750006Y-88692653D01*
X184618013Y-89011314D01*
X184426387Y-89298102D01*
X184182492Y-89541997D01*
X183895704Y-89733623D01*
X183709037Y-89810943D01*
X183577044Y-89865616D01*
X183464281Y-89888046D01*
X183238756Y-89932906D01*
X182893836Y-89932906D01*
X182668311Y-89888046D01*
X182555548Y-89865616D01*
X182423555Y-89810943D01*
X182236888Y-89733623D01*
X181950100Y-89541997D01*
X181706205Y-89298102D01*
X181514579Y-89011314D01*
X181382586Y-88692653D01*
X181315296Y-88354366D01*
X181315296Y-88009446D01*
X181382586Y-87671159D01*
X181384551Y-87666416D01*
X181437259Y-87539165D01*
X181514579Y-87352498D01*
X181706205Y-87065710D01*
X181950100Y-86821815D01*
X182236888Y-86630189D01*
X182423555Y-86552869D01*
X182555548Y-86498196D01*
X182668311Y-86475766D01*
X182893836Y-86430906D01*
X183238756Y-86430906D01*
X183464281Y-86475766D01*
G37*
G36*
X114400364Y-86456244D02*
G01*
X114587431Y-86493454D01*
X114686710Y-86534577D01*
X114906091Y-86625447D01*
X115192879Y-86817073D01*
X115436774Y-87060968D01*
X115628400Y-87347756D01*
X115760393Y-87666417D01*
X115827683Y-88004704D01*
X115827683Y-88349624D01*
X115782823Y-88575149D01*
X115760393Y-88687912D01*
X115705720Y-88819905D01*
X115628400Y-89006572D01*
X115436774Y-89293360D01*
X115192879Y-89537255D01*
X114906091Y-89728881D01*
X114719424Y-89806201D01*
X114587431Y-89860874D01*
X114563591Y-89865616D01*
X114249143Y-89928164D01*
X113904223Y-89928164D01*
X113589775Y-89865616D01*
X113565935Y-89860874D01*
X113433942Y-89806201D01*
X113247275Y-89728881D01*
X112960487Y-89537255D01*
X112716592Y-89293360D01*
X112524966Y-89006572D01*
X112447646Y-88819905D01*
X112392973Y-88687912D01*
X112370543Y-88575149D01*
X112325683Y-88349624D01*
X112325683Y-88004704D01*
X112392973Y-87666417D01*
X112524966Y-87347756D01*
X112716592Y-87060968D01*
X112960487Y-86817073D01*
X113247275Y-86625447D01*
X113466656Y-86534577D01*
X113565935Y-86493454D01*
X113753002Y-86456244D01*
X113904223Y-86426164D01*
X114249143Y-86426164D01*
X114400364Y-86456244D01*
G37*
G36*
X188398626Y-85549763D02*
G01*
X188547926Y-85579460D01*
X188711898Y-85647380D01*
X188859468Y-85745983D01*
X188984967Y-85871482D01*
X189083570Y-86019052D01*
X189151490Y-86183024D01*
X189186114Y-86357095D01*
X189186114Y-86534577D01*
X189151490Y-86708648D01*
X189083570Y-86872620D01*
X188984967Y-87020190D01*
X188859468Y-87145689D01*
X188711898Y-87244292D01*
X188547926Y-87312212D01*
X188398626Y-87341909D01*
X188373856Y-87346836D01*
X188196372Y-87346836D01*
X188171602Y-87341909D01*
X188022302Y-87312212D01*
X187858330Y-87244292D01*
X187710760Y-87145689D01*
X187585261Y-87020190D01*
X187486658Y-86872620D01*
X187418738Y-86708648D01*
X187384114Y-86534577D01*
X187384114Y-86357095D01*
X187418738Y-86183024D01*
X187486658Y-86019052D01*
X187585261Y-85871482D01*
X187710760Y-85745983D01*
X187858330Y-85647380D01*
X188022302Y-85579460D01*
X188171602Y-85549763D01*
X188196372Y-85544836D01*
X188373856Y-85544836D01*
X188398626Y-85549763D01*
G37*
G36*
X108970446Y-85544836D02*
G01*
X109120677Y-85574718D01*
X109284649Y-85642638D01*
X109432219Y-85741241D01*
X109557718Y-85866740D01*
X109656321Y-86014310D01*
X109724241Y-86178282D01*
X109758865Y-86352353D01*
X109758865Y-86529835D01*
X109724241Y-86703906D01*
X109656321Y-86867878D01*
X109557718Y-87015448D01*
X109432219Y-87140947D01*
X109284649Y-87239550D01*
X109120677Y-87307470D01*
X108971377Y-87337167D01*
X108946607Y-87342094D01*
X108769123Y-87342094D01*
X108744353Y-87337167D01*
X108595053Y-87307470D01*
X108431081Y-87239550D01*
X108283511Y-87140947D01*
X108158012Y-87015448D01*
X108059409Y-86867878D01*
X107991489Y-86703906D01*
X107956865Y-86529835D01*
X107956865Y-86352353D01*
X107991489Y-86178282D01*
X108059409Y-86014310D01*
X108158012Y-85866740D01*
X108283511Y-85741241D01*
X108431081Y-85642638D01*
X108595053Y-85574718D01*
X108745284Y-85544836D01*
X108769123Y-85540094D01*
X108946607Y-85540094D01*
X108970446Y-85544836D01*
G37*
G36*
X120327093Y-85139069D02*
G01*
X120518362Y-85218295D01*
X120518364Y-85218296D01*
X120690502Y-85333315D01*
X120836894Y-85479707D01*
X120948930Y-85647380D01*
X120951914Y-85651847D01*
X121031140Y-85843116D01*
X121071529Y-86046164D01*
X121071529Y-86253196D01*
X121031140Y-86456244D01*
X120959090Y-86630189D01*
X120951913Y-86647515D01*
X120836894Y-86819653D01*
X120690502Y-86966045D01*
X120518364Y-87081064D01*
X120518363Y-87081065D01*
X120518362Y-87081065D01*
X120327093Y-87160291D01*
X120124045Y-87200680D01*
X119917013Y-87200680D01*
X119713965Y-87160291D01*
X119522696Y-87081065D01*
X119522695Y-87081065D01*
X119522694Y-87081064D01*
X119350556Y-86966045D01*
X119204164Y-86819653D01*
X119089145Y-86647515D01*
X119081968Y-86630189D01*
X119009918Y-86456244D01*
X118969529Y-86253196D01*
X118969529Y-86046164D01*
X119009918Y-85843116D01*
X119089144Y-85651847D01*
X119092129Y-85647380D01*
X119204164Y-85479707D01*
X119350556Y-85333315D01*
X119522694Y-85218296D01*
X119522696Y-85218295D01*
X119713965Y-85139069D01*
X119917013Y-85098680D01*
X120124045Y-85098680D01*
X120327093Y-85139069D01*
G37*
G36*
X251961747Y-83374948D02*
G01*
X252111047Y-83404645D01*
X252275019Y-83472565D01*
X252422589Y-83571168D01*
X252548088Y-83696667D01*
X252646691Y-83844237D01*
X252714611Y-84008209D01*
X252749235Y-84182280D01*
X252749235Y-84359762D01*
X252714611Y-84533833D01*
X252646691Y-84697805D01*
X252548088Y-84845375D01*
X252422589Y-84970874D01*
X252275019Y-85069477D01*
X252111047Y-85137397D01*
X251961747Y-85167094D01*
X251936977Y-85172021D01*
X251759493Y-85172021D01*
X251734723Y-85167094D01*
X251585423Y-85137397D01*
X251421451Y-85069477D01*
X251273881Y-84970874D01*
X251148382Y-84845375D01*
X251049779Y-84697805D01*
X250981859Y-84533833D01*
X250947235Y-84359762D01*
X250947235Y-84182280D01*
X250981859Y-84008209D01*
X251049779Y-83844237D01*
X251148382Y-83696667D01*
X251273881Y-83571168D01*
X251421451Y-83472565D01*
X251585423Y-83404645D01*
X251734723Y-83374948D01*
X251759493Y-83370021D01*
X251936977Y-83370021D01*
X251961747Y-83374948D01*
G37*
G36*
X45411346Y-83374718D02*
G01*
X45560646Y-83404415D01*
X45724618Y-83472335D01*
X45872188Y-83570938D01*
X45997687Y-83696437D01*
X46096290Y-83844007D01*
X46164210Y-84007979D01*
X46198834Y-84182050D01*
X46198834Y-84359532D01*
X46164210Y-84533603D01*
X46096290Y-84697575D01*
X45997687Y-84845145D01*
X45872188Y-84970644D01*
X45724618Y-85069247D01*
X45560646Y-85137167D01*
X45411346Y-85166864D01*
X45386576Y-85171791D01*
X45209092Y-85171791D01*
X45184322Y-85166864D01*
X45035022Y-85137167D01*
X44871050Y-85069247D01*
X44723480Y-84970644D01*
X44597981Y-84845145D01*
X44499378Y-84697575D01*
X44431458Y-84533603D01*
X44396834Y-84359532D01*
X44396834Y-84182050D01*
X44431458Y-84007979D01*
X44499378Y-83844007D01*
X44597981Y-83696437D01*
X44723480Y-83570938D01*
X44871050Y-83472335D01*
X45035022Y-83404415D01*
X45184322Y-83374718D01*
X45209092Y-83369791D01*
X45386576Y-83369791D01*
X45411346Y-83374718D01*
G37*
G36*
X195040759Y-83340224D02*
G01*
X195190059Y-83369921D01*
X195354031Y-83437841D01*
X195501601Y-83536444D01*
X195627100Y-83661943D01*
X195725703Y-83809513D01*
X195793623Y-83973485D01*
X195828247Y-84147556D01*
X195828247Y-84325038D01*
X195793623Y-84499109D01*
X195725703Y-84663081D01*
X195627100Y-84810651D01*
X195501601Y-84936150D01*
X195354031Y-85034753D01*
X195190059Y-85102673D01*
X195040759Y-85132370D01*
X195015989Y-85137297D01*
X194838505Y-85137297D01*
X194813735Y-85132370D01*
X194664435Y-85102673D01*
X194500463Y-85034753D01*
X194352893Y-84936150D01*
X194227394Y-84810651D01*
X194128791Y-84663081D01*
X194060871Y-84499109D01*
X194026247Y-84325038D01*
X194026247Y-84147556D01*
X194060871Y-83973485D01*
X194128791Y-83809513D01*
X194227394Y-83661943D01*
X194352893Y-83536444D01*
X194500463Y-83437841D01*
X194664435Y-83369921D01*
X194813735Y-83340224D01*
X194838505Y-83335297D01*
X195015989Y-83335297D01*
X195040759Y-83340224D01*
G37*
G36*
X102332330Y-83339997D02*
G01*
X102481630Y-83369694D01*
X102645602Y-83437614D01*
X102793172Y-83536217D01*
X102918671Y-83661716D01*
X103017274Y-83809286D01*
X103085194Y-83973258D01*
X103119818Y-84147329D01*
X103119818Y-84324811D01*
X103085194Y-84498882D01*
X103017274Y-84662854D01*
X102918671Y-84810424D01*
X102793172Y-84935923D01*
X102645602Y-85034526D01*
X102481630Y-85102446D01*
X102332330Y-85132143D01*
X102307560Y-85137070D01*
X102130076Y-85137070D01*
X102105306Y-85132143D01*
X101956006Y-85102446D01*
X101792034Y-85034526D01*
X101644464Y-84935923D01*
X101518965Y-84810424D01*
X101420362Y-84662854D01*
X101352442Y-84498882D01*
X101317818Y-84324811D01*
X101317818Y-84147329D01*
X101352442Y-83973258D01*
X101420362Y-83809286D01*
X101518965Y-83661716D01*
X101644464Y-83536217D01*
X101792034Y-83437614D01*
X101956006Y-83369694D01*
X102105306Y-83339997D01*
X102130076Y-83335070D01*
X102307560Y-83335070D01*
X102332330Y-83339997D01*
G37*
G36*
X257465038Y-80828811D02*
G01*
X257577801Y-80851241D01*
X257709794Y-80905914D01*
X257896461Y-80983234D01*
X258183249Y-81174860D01*
X258427144Y-81418755D01*
X258618770Y-81705543D01*
X258696090Y-81892210D01*
X258750668Y-82023973D01*
X258750763Y-82024204D01*
X258818008Y-82362263D01*
X258818053Y-82362493D01*
X258818053Y-82707409D01*
X258750763Y-83045699D01*
X258735987Y-83081371D01*
X258618770Y-83364359D01*
X258427144Y-83651147D01*
X258183249Y-83895042D01*
X257896461Y-84086668D01*
X257709794Y-84163988D01*
X257577801Y-84218661D01*
X257465038Y-84241091D01*
X257239513Y-84285951D01*
X256894593Y-84285951D01*
X256669068Y-84241091D01*
X256556305Y-84218661D01*
X256424312Y-84163988D01*
X256237645Y-84086668D01*
X255950857Y-83895042D01*
X255706962Y-83651147D01*
X255515336Y-83364359D01*
X255398119Y-83081371D01*
X255383343Y-83045699D01*
X255316053Y-82707409D01*
X255316053Y-82362493D01*
X255316099Y-82362263D01*
X255383343Y-82024204D01*
X255383439Y-82023973D01*
X255438016Y-81892210D01*
X255515336Y-81705543D01*
X255706962Y-81418755D01*
X255950857Y-81174860D01*
X256237645Y-80983234D01*
X256424312Y-80905914D01*
X256556305Y-80851241D01*
X256669068Y-80828811D01*
X256894593Y-80783951D01*
X257239513Y-80783951D01*
X257465038Y-80828811D01*
G37*
G36*
X40402697Y-80813801D02*
G01*
X40589764Y-80851011D01*
X40678153Y-80887623D01*
X40908424Y-80983004D01*
X41195212Y-81174630D01*
X41439107Y-81418525D01*
X41630733Y-81705313D01*
X41630828Y-81705543D01*
X41747545Y-81987322D01*
X41762726Y-82023974D01*
X41830016Y-82362261D01*
X41830016Y-82707181D01*
X41793630Y-82890102D01*
X41762726Y-83045469D01*
X41708053Y-83177462D01*
X41630733Y-83364129D01*
X41439107Y-83650917D01*
X41195212Y-83894812D01*
X40908424Y-84086438D01*
X40760871Y-84147556D01*
X40589764Y-84218431D01*
X40477001Y-84240861D01*
X40251476Y-84285721D01*
X39906556Y-84285721D01*
X39681031Y-84240861D01*
X39568268Y-84218431D01*
X39397161Y-84147556D01*
X39249608Y-84086438D01*
X38962820Y-83894812D01*
X38718925Y-83650917D01*
X38527299Y-83364129D01*
X38449979Y-83177462D01*
X38395306Y-83045469D01*
X38364402Y-82890102D01*
X38328016Y-82707181D01*
X38328016Y-82362261D01*
X38395306Y-82023974D01*
X38410488Y-81987322D01*
X38527204Y-81705543D01*
X38527299Y-81705313D01*
X38718925Y-81418525D01*
X38962820Y-81174630D01*
X39249608Y-80983004D01*
X39479879Y-80887623D01*
X39568268Y-80851011D01*
X39755335Y-80813801D01*
X39906556Y-80783721D01*
X40251476Y-80783721D01*
X40402697Y-80813801D01*
G37*
G36*
X200493093Y-80783951D02*
G01*
X200656813Y-80816517D01*
X200788806Y-80871190D01*
X200975473Y-80948510D01*
X201262261Y-81140136D01*
X201506156Y-81384031D01*
X201697782Y-81670819D01*
X201737693Y-81767173D01*
X201829775Y-81989479D01*
X201852205Y-82102242D01*
X201897065Y-82327767D01*
X201897065Y-82672687D01*
X201890158Y-82707409D01*
X201829775Y-83010975D01*
X201792300Y-83101448D01*
X201697782Y-83329635D01*
X201506156Y-83616423D01*
X201262261Y-83860318D01*
X200975473Y-84051944D01*
X200891641Y-84086668D01*
X200656813Y-84183937D01*
X200544050Y-84206367D01*
X200318525Y-84251227D01*
X199973605Y-84251227D01*
X199748080Y-84206367D01*
X199635317Y-84183937D01*
X199400489Y-84086668D01*
X199316657Y-84051944D01*
X199029869Y-83860318D01*
X198785974Y-83616423D01*
X198594348Y-83329635D01*
X198499830Y-83101448D01*
X198462355Y-83010975D01*
X198401972Y-82707409D01*
X198395065Y-82672687D01*
X198395065Y-82327767D01*
X198439925Y-82102242D01*
X198462355Y-81989479D01*
X198554437Y-81767173D01*
X198594348Y-81670819D01*
X198785974Y-81384031D01*
X199029869Y-81140136D01*
X199316657Y-80948510D01*
X199503324Y-80871190D01*
X199635317Y-80816517D01*
X199799037Y-80783951D01*
X199973605Y-80749227D01*
X200318525Y-80749227D01*
X200493093Y-80783951D01*
G37*
G36*
X97348169Y-80783951D02*
G01*
X97510748Y-80816290D01*
X97642741Y-80870963D01*
X97829408Y-80948283D01*
X98116196Y-81139909D01*
X98360091Y-81383804D01*
X98551717Y-81670592D01*
X98591722Y-81767173D01*
X98683710Y-81989252D01*
X98690662Y-82024203D01*
X98751000Y-82327540D01*
X98751000Y-82672460D01*
X98708651Y-82885360D01*
X98683710Y-83010748D01*
X98646141Y-83101448D01*
X98551717Y-83329408D01*
X98360091Y-83616196D01*
X98116196Y-83860091D01*
X97829408Y-84051717D01*
X97745028Y-84086668D01*
X97510748Y-84183710D01*
X97397985Y-84206140D01*
X97172460Y-84251000D01*
X96827540Y-84251000D01*
X96602015Y-84206140D01*
X96489252Y-84183710D01*
X96254972Y-84086668D01*
X96170592Y-84051717D01*
X95883804Y-83860091D01*
X95639909Y-83616196D01*
X95448283Y-83329408D01*
X95353859Y-83101448D01*
X95316290Y-83010748D01*
X95291349Y-82885360D01*
X95249000Y-82672460D01*
X95249000Y-82327540D01*
X95309338Y-82024203D01*
X95316290Y-81989252D01*
X95408278Y-81767173D01*
X95448283Y-81670592D01*
X95639909Y-81383804D01*
X95883804Y-81139909D01*
X96170592Y-80948283D01*
X96357259Y-80870963D01*
X96489252Y-80816290D01*
X96651831Y-80783951D01*
X96827540Y-80749000D01*
X97172460Y-80749000D01*
X97348169Y-80783951D01*
G37*
G36*
X186917774Y-81987321D02*
G01*
X187109043Y-82066547D01*
X187109045Y-82066548D01*
X187281183Y-82181567D01*
X187427575Y-82327959D01*
X187529182Y-82480024D01*
X187542595Y-82500099D01*
X187621821Y-82691368D01*
X187662210Y-82894416D01*
X187662210Y-83101448D01*
X187621821Y-83304496D01*
X187566682Y-83437614D01*
X187542594Y-83495767D01*
X187427575Y-83667905D01*
X187281183Y-83814297D01*
X187109045Y-83929316D01*
X187109044Y-83929317D01*
X187109043Y-83929317D01*
X186917774Y-84008543D01*
X186714726Y-84048932D01*
X186507694Y-84048932D01*
X186304646Y-84008543D01*
X186113377Y-83929317D01*
X186113376Y-83929317D01*
X186113375Y-83929316D01*
X185941237Y-83814297D01*
X185794845Y-83667905D01*
X185679826Y-83495767D01*
X185655738Y-83437614D01*
X185600599Y-83304496D01*
X185560210Y-83101448D01*
X185560210Y-82894416D01*
X185600599Y-82691368D01*
X185679825Y-82500099D01*
X185693239Y-82480024D01*
X185794845Y-82327959D01*
X185941237Y-82181567D01*
X186113375Y-82066548D01*
X186113377Y-82066547D01*
X186304646Y-81987321D01*
X186507694Y-81946932D01*
X186714726Y-81946932D01*
X186917774Y-81987321D01*
G37*
G36*
X181510531Y-81572927D02*
G01*
X181690354Y-81647412D01*
X181701802Y-81652154D01*
X181873940Y-81767173D01*
X182020332Y-81913565D01*
X182094259Y-82024204D01*
X182135352Y-82085705D01*
X182214578Y-82276974D01*
X182254967Y-82480022D01*
X182254967Y-82687054D01*
X182214578Y-82890102D01*
X182212791Y-82894416D01*
X182135351Y-83081373D01*
X182020332Y-83253511D01*
X181873940Y-83399903D01*
X181701802Y-83514922D01*
X181701801Y-83514923D01*
X181701800Y-83514923D01*
X181510531Y-83594149D01*
X181307483Y-83634538D01*
X181100451Y-83634538D01*
X180897403Y-83594149D01*
X180706134Y-83514923D01*
X180706133Y-83514923D01*
X180706132Y-83514922D01*
X180533994Y-83399903D01*
X180387602Y-83253511D01*
X180272583Y-83081373D01*
X180195143Y-82894416D01*
X180193356Y-82890102D01*
X180152967Y-82687054D01*
X180152967Y-82480022D01*
X180193356Y-82276974D01*
X180272582Y-82085705D01*
X180313676Y-82024204D01*
X180387602Y-81913565D01*
X180533994Y-81767173D01*
X180706132Y-81652154D01*
X180717580Y-81647412D01*
X180897403Y-81572927D01*
X181100451Y-81532538D01*
X181307483Y-81532538D01*
X181510531Y-81572927D01*
G37*
G36*
X116245576Y-81568185D02*
G01*
X116436845Y-81647411D01*
X116436847Y-81647412D01*
X116608985Y-81762431D01*
X116755377Y-81908823D01*
X116860766Y-82066548D01*
X116870397Y-82080963D01*
X116949623Y-82272232D01*
X116990012Y-82475280D01*
X116990012Y-82682312D01*
X116949623Y-82885360D01*
X116870397Y-83076629D01*
X116870396Y-83076631D01*
X116755377Y-83248769D01*
X116608985Y-83395161D01*
X116436847Y-83510180D01*
X116436846Y-83510181D01*
X116436845Y-83510181D01*
X116245576Y-83589407D01*
X116042528Y-83629796D01*
X115835496Y-83629796D01*
X115632448Y-83589407D01*
X115441179Y-83510181D01*
X115441178Y-83510181D01*
X115441177Y-83510180D01*
X115269039Y-83395161D01*
X115122647Y-83248769D01*
X115007628Y-83076631D01*
X115007627Y-83076629D01*
X114928401Y-82885360D01*
X114888012Y-82682312D01*
X114888012Y-82475280D01*
X114928401Y-82272232D01*
X115007627Y-82080963D01*
X115017259Y-82066548D01*
X115122647Y-81908823D01*
X115269039Y-81762431D01*
X115441177Y-81647412D01*
X115441179Y-81647411D01*
X115632448Y-81568185D01*
X115835496Y-81527796D01*
X116042528Y-81527796D01*
X116245576Y-81568185D01*
G37*
G36*
X262399383Y-79902808D02*
G01*
X262548683Y-79932505D01*
X262712655Y-80000425D01*
X262860225Y-80099028D01*
X262985724Y-80224527D01*
X263084327Y-80372097D01*
X263152247Y-80536069D01*
X263186871Y-80710140D01*
X263186871Y-80887622D01*
X263152247Y-81061693D01*
X263084327Y-81225665D01*
X262985724Y-81373235D01*
X262860225Y-81498734D01*
X262712655Y-81597337D01*
X262548683Y-81665257D01*
X262399383Y-81694954D01*
X262374613Y-81699881D01*
X262197129Y-81699881D01*
X262172359Y-81694954D01*
X262023059Y-81665257D01*
X261859087Y-81597337D01*
X261711517Y-81498734D01*
X261586018Y-81373235D01*
X261487415Y-81225665D01*
X261419495Y-81061693D01*
X261384871Y-80887622D01*
X261384871Y-80710140D01*
X261419495Y-80536069D01*
X261487415Y-80372097D01*
X261586018Y-80224527D01*
X261711517Y-80099028D01*
X261859087Y-80000425D01*
X262023059Y-79932505D01*
X262172359Y-79902808D01*
X262197129Y-79897881D01*
X262374613Y-79897881D01*
X262399383Y-79902808D01*
G37*
G36*
X34973710Y-79902578D02*
G01*
X35123010Y-79932275D01*
X35286982Y-80000195D01*
X35434552Y-80098798D01*
X35560051Y-80224297D01*
X35658654Y-80371867D01*
X35726574Y-80535839D01*
X35761198Y-80709910D01*
X35761198Y-80887392D01*
X35726574Y-81061463D01*
X35658654Y-81225435D01*
X35560051Y-81373005D01*
X35434552Y-81498504D01*
X35286982Y-81597107D01*
X35123010Y-81665027D01*
X34973710Y-81694724D01*
X34948940Y-81699651D01*
X34771456Y-81699651D01*
X34746686Y-81694724D01*
X34597386Y-81665027D01*
X34433414Y-81597107D01*
X34285844Y-81498504D01*
X34160345Y-81373005D01*
X34061742Y-81225435D01*
X33993822Y-81061463D01*
X33959198Y-80887392D01*
X33959198Y-80709910D01*
X33993822Y-80535839D01*
X34061742Y-80371867D01*
X34160345Y-80224297D01*
X34285844Y-80098798D01*
X34433414Y-80000195D01*
X34597386Y-79932275D01*
X34746686Y-79902578D01*
X34771456Y-79897651D01*
X34948940Y-79897651D01*
X34973710Y-79902578D01*
G37*
G36*
X205478395Y-79868084D02*
G01*
X205627695Y-79897781D01*
X205791667Y-79965701D01*
X205939237Y-80064304D01*
X206064736Y-80189803D01*
X206163339Y-80337373D01*
X206231259Y-80501345D01*
X206265883Y-80675416D01*
X206265883Y-80852898D01*
X206231259Y-81026969D01*
X206163339Y-81190941D01*
X206064736Y-81338511D01*
X205939237Y-81464010D01*
X205791667Y-81562613D01*
X205627695Y-81630533D01*
X205478395Y-81660230D01*
X205453625Y-81665157D01*
X205276141Y-81665157D01*
X205251371Y-81660230D01*
X205102071Y-81630533D01*
X204938099Y-81562613D01*
X204790529Y-81464010D01*
X204665030Y-81338511D01*
X204566427Y-81190941D01*
X204498507Y-81026969D01*
X204463883Y-80852898D01*
X204463883Y-80675416D01*
X204498507Y-80501345D01*
X204566427Y-80337373D01*
X204665030Y-80189803D01*
X204790529Y-80064304D01*
X204938099Y-79965701D01*
X205102071Y-79897781D01*
X205251371Y-79868084D01*
X205276141Y-79863157D01*
X205453625Y-79863157D01*
X205478395Y-79868084D01*
G37*
G36*
X91894694Y-79867857D02*
G01*
X92043994Y-79897554D01*
X92207966Y-79965474D01*
X92355536Y-80064077D01*
X92481035Y-80189576D01*
X92579638Y-80337146D01*
X92647558Y-80501118D01*
X92682182Y-80675189D01*
X92682182Y-80852671D01*
X92647558Y-81026742D01*
X92579638Y-81190714D01*
X92481035Y-81338284D01*
X92355536Y-81463783D01*
X92207966Y-81562386D01*
X92043994Y-81630306D01*
X91894694Y-81660003D01*
X91869924Y-81664930D01*
X91692440Y-81664930D01*
X91667670Y-81660003D01*
X91518370Y-81630306D01*
X91354398Y-81562386D01*
X91206828Y-81463783D01*
X91081329Y-81338284D01*
X90982726Y-81190714D01*
X90914806Y-81026742D01*
X90880182Y-80852671D01*
X90880182Y-80675189D01*
X90914806Y-80501118D01*
X90982726Y-80337146D01*
X91081329Y-80189576D01*
X91206828Y-80064077D01*
X91354398Y-79965474D01*
X91518370Y-79897554D01*
X91667670Y-79867857D01*
X91692440Y-79862930D01*
X91869924Y-79862930D01*
X91894694Y-79867857D01*
G37*
G36*
X46329426Y-79496626D02*
G01*
X46520695Y-79575852D01*
X46520697Y-79575853D01*
X46692835Y-79690872D01*
X46839227Y-79837264D01*
X46948248Y-80000425D01*
X46954247Y-80009404D01*
X47033473Y-80200673D01*
X47073862Y-80403721D01*
X47073862Y-80610753D01*
X47033473Y-80813801D01*
X46963292Y-80983234D01*
X46954246Y-81005072D01*
X46839227Y-81177210D01*
X46692835Y-81323602D01*
X46520697Y-81438621D01*
X46520696Y-81438622D01*
X46520695Y-81438622D01*
X46329426Y-81517848D01*
X46126378Y-81558237D01*
X45919346Y-81558237D01*
X45716298Y-81517848D01*
X45525029Y-81438622D01*
X45525028Y-81438622D01*
X45525027Y-81438621D01*
X45352889Y-81323602D01*
X45206497Y-81177210D01*
X45091478Y-81005072D01*
X45082432Y-80983234D01*
X45012251Y-80813801D01*
X44971862Y-80610753D01*
X44971862Y-80403721D01*
X45012251Y-80200673D01*
X45091477Y-80009404D01*
X45097477Y-80000425D01*
X45206497Y-79837264D01*
X45352889Y-79690872D01*
X45525027Y-79575853D01*
X45525029Y-79575852D01*
X45716298Y-79496626D01*
X45919346Y-79456237D01*
X46126378Y-79456237D01*
X46329426Y-79496626D01*
G37*
G36*
X103250410Y-79461905D02*
G01*
X103441679Y-79541131D01*
X103441681Y-79541132D01*
X103613819Y-79656151D01*
X103760211Y-79802543D01*
X103869230Y-79965701D01*
X103875231Y-79974683D01*
X103954457Y-80165952D01*
X103994846Y-80369000D01*
X103994846Y-80576032D01*
X103954457Y-80779080D01*
X103875231Y-80970349D01*
X103875230Y-80970351D01*
X103760211Y-81142489D01*
X103613819Y-81288881D01*
X103441681Y-81403900D01*
X103441680Y-81403901D01*
X103441679Y-81403901D01*
X103250410Y-81483127D01*
X103047362Y-81523516D01*
X102840330Y-81523516D01*
X102637282Y-81483127D01*
X102446013Y-81403901D01*
X102446012Y-81403901D01*
X102446011Y-81403900D01*
X102273873Y-81288881D01*
X102127481Y-81142489D01*
X102012462Y-80970351D01*
X102012461Y-80970349D01*
X101933235Y-80779080D01*
X101892846Y-80576032D01*
X101892846Y-80369000D01*
X101933235Y-80165952D01*
X102012461Y-79974683D01*
X102018463Y-79965701D01*
X102127481Y-79802543D01*
X102273873Y-79656151D01*
X102446011Y-79541132D01*
X102446013Y-79541131D01*
X102637282Y-79461905D01*
X102840330Y-79421516D01*
X103047362Y-79421516D01*
X103250410Y-79461905D01*
G37*
G36*
X269041513Y-77693262D02*
G01*
X269190813Y-77722959D01*
X269354785Y-77790879D01*
X269502355Y-77889482D01*
X269627854Y-78014981D01*
X269726457Y-78162551D01*
X269794377Y-78326523D01*
X269809983Y-78404982D01*
X269828952Y-78500345D01*
X269829001Y-78500594D01*
X269829001Y-78678076D01*
X269794377Y-78852147D01*
X269726457Y-79016119D01*
X269627854Y-79163689D01*
X269502355Y-79289188D01*
X269354785Y-79387791D01*
X269190813Y-79455711D01*
X269041513Y-79485408D01*
X269016743Y-79490335D01*
X268839259Y-79490335D01*
X268814489Y-79485408D01*
X268665189Y-79455711D01*
X268501217Y-79387791D01*
X268353647Y-79289188D01*
X268228148Y-79163689D01*
X268129545Y-79016119D01*
X268061625Y-78852147D01*
X268027001Y-78678076D01*
X268027001Y-78500594D01*
X268027051Y-78500345D01*
X268046019Y-78404982D01*
X268061625Y-78326523D01*
X268129545Y-78162551D01*
X268228148Y-78014981D01*
X268353647Y-77889482D01*
X268501217Y-77790879D01*
X268665189Y-77722959D01*
X268814489Y-77693262D01*
X268839259Y-77688335D01*
X269016743Y-77688335D01*
X269041513Y-77693262D01*
G37*
G36*
X28331500Y-77693013D02*
G01*
X28480800Y-77722710D01*
X28644772Y-77790630D01*
X28792342Y-77889233D01*
X28917841Y-78014732D01*
X29016444Y-78162302D01*
X29084364Y-78326274D01*
X29114061Y-78475574D01*
X29118988Y-78500344D01*
X29118988Y-78677828D01*
X29118938Y-78678077D01*
X29084364Y-78851898D01*
X29016444Y-79015870D01*
X28917841Y-79163440D01*
X28792342Y-79288939D01*
X28644772Y-79387542D01*
X28480800Y-79455462D01*
X28331500Y-79485159D01*
X28306730Y-79490086D01*
X28129246Y-79490086D01*
X28104476Y-79485159D01*
X27955176Y-79455462D01*
X27791204Y-79387542D01*
X27643634Y-79288939D01*
X27518135Y-79163440D01*
X27419532Y-79015870D01*
X27351612Y-78851898D01*
X27317038Y-78678077D01*
X27316988Y-78677828D01*
X27316988Y-78500344D01*
X27321915Y-78475574D01*
X27351612Y-78326274D01*
X27419532Y-78162302D01*
X27518135Y-78014732D01*
X27643634Y-77889233D01*
X27791204Y-77790630D01*
X27955176Y-77722710D01*
X28104476Y-77693013D01*
X28129246Y-77688086D01*
X28306730Y-77688086D01*
X28331500Y-77693013D01*
G37*
G36*
X274469248Y-75132096D02*
G01*
X274657567Y-75169555D01*
X274789560Y-75224228D01*
X274976227Y-75301548D01*
X275263015Y-75493174D01*
X275506910Y-75737069D01*
X275698536Y-76023857D01*
X275738450Y-76120218D01*
X275830529Y-76342517D01*
X275849671Y-76438750D01*
X275897819Y-76680805D01*
X275897819Y-77025725D01*
X275861523Y-77208196D01*
X275830579Y-77363764D01*
X275830529Y-77364012D01*
X275698536Y-77682673D01*
X275506910Y-77969461D01*
X275263015Y-78213356D01*
X274976227Y-78404982D01*
X274789560Y-78482302D01*
X274657567Y-78536975D01*
X274544804Y-78559405D01*
X274319279Y-78604265D01*
X273974359Y-78604265D01*
X273748834Y-78559405D01*
X273636071Y-78536975D01*
X273504078Y-78482302D01*
X273317411Y-78404982D01*
X273030623Y-78213356D01*
X272786728Y-77969461D01*
X272595102Y-77682673D01*
X272463109Y-77364012D01*
X272463060Y-77363764D01*
X272432115Y-77208196D01*
X272395819Y-77025725D01*
X272395819Y-76680805D01*
X272443967Y-76438750D01*
X272463109Y-76342517D01*
X272555188Y-76120218D01*
X272595102Y-76023857D01*
X272786728Y-75737069D01*
X273030623Y-75493174D01*
X273317411Y-75301548D01*
X273504078Y-75224228D01*
X273636071Y-75169555D01*
X273824390Y-75132096D01*
X273974359Y-75102265D01*
X274319279Y-75102265D01*
X274469248Y-75132096D01*
G37*
G36*
X23322851Y-75132096D02*
G01*
X23509918Y-75169306D01*
X23598350Y-75205936D01*
X23828578Y-75301299D01*
X24115366Y-75492925D01*
X24359261Y-75736820D01*
X24550887Y-76023608D01*
X24590904Y-76120218D01*
X24682880Y-76342268D01*
X24682930Y-76342518D01*
X24750170Y-76680556D01*
X24750170Y-77025476D01*
X24747261Y-77040099D01*
X24682880Y-77363764D01*
X24645299Y-77454493D01*
X24550887Y-77682424D01*
X24359261Y-77969212D01*
X24115366Y-78213107D01*
X23828578Y-78404733D01*
X23641911Y-78482053D01*
X23509918Y-78536726D01*
X23397155Y-78559156D01*
X23171630Y-78604016D01*
X22826710Y-78604016D01*
X22601185Y-78559156D01*
X22488422Y-78536726D01*
X22356429Y-78482053D01*
X22169762Y-78404733D01*
X21882974Y-78213107D01*
X21639079Y-77969212D01*
X21447453Y-77682424D01*
X21353041Y-77454493D01*
X21315460Y-77363764D01*
X21251079Y-77040099D01*
X21248170Y-77025476D01*
X21248170Y-76680556D01*
X21315410Y-76342518D01*
X21315460Y-76342268D01*
X21407436Y-76120218D01*
X21447453Y-76023608D01*
X21639079Y-75736820D01*
X21882974Y-75492925D01*
X22169762Y-75301299D01*
X22399990Y-75205936D01*
X22488422Y-75169306D01*
X22675489Y-75132096D01*
X22826710Y-75102016D01*
X23171630Y-75102016D01*
X23322851Y-75132096D01*
G37*
G36*
X260918531Y-76340366D02*
G01*
X261071667Y-76403797D01*
X261109802Y-76419593D01*
X261281940Y-76534612D01*
X261428332Y-76681004D01*
X261529939Y-76833069D01*
X261543352Y-76853144D01*
X261622578Y-77044413D01*
X261662967Y-77247461D01*
X261662967Y-77454493D01*
X261622578Y-77657541D01*
X261543352Y-77848810D01*
X261543351Y-77848812D01*
X261428332Y-78020950D01*
X261281940Y-78167342D01*
X261109802Y-78282361D01*
X261109801Y-78282362D01*
X261109800Y-78282362D01*
X260918531Y-78361588D01*
X260715483Y-78401977D01*
X260508451Y-78401977D01*
X260305403Y-78361588D01*
X260114134Y-78282362D01*
X260114133Y-78282362D01*
X260114132Y-78282361D01*
X259941994Y-78167342D01*
X259795602Y-78020950D01*
X259680583Y-77848812D01*
X259680582Y-77848810D01*
X259601356Y-77657541D01*
X259560967Y-77454493D01*
X259560967Y-77247461D01*
X259601356Y-77044413D01*
X259680582Y-76853144D01*
X259693996Y-76833069D01*
X259795602Y-76681004D01*
X259941994Y-76534612D01*
X260114132Y-76419593D01*
X260152267Y-76403797D01*
X260305403Y-76340366D01*
X260508451Y-76299977D01*
X260715483Y-76299977D01*
X260918531Y-76340366D01*
G37*
G36*
X203997543Y-76305642D02*
G01*
X204188812Y-76384868D01*
X204188814Y-76384869D01*
X204360952Y-76499888D01*
X204507344Y-76646280D01*
X204608951Y-76798345D01*
X204622364Y-76818420D01*
X204701590Y-77009689D01*
X204741979Y-77212737D01*
X204741979Y-77419769D01*
X204701590Y-77622817D01*
X204622364Y-77814086D01*
X204622363Y-77814088D01*
X204507344Y-77986226D01*
X204360952Y-78132618D01*
X204188814Y-78247637D01*
X204188813Y-78247638D01*
X204188812Y-78247638D01*
X203997543Y-78326864D01*
X203794495Y-78367253D01*
X203587463Y-78367253D01*
X203384415Y-78326864D01*
X203193146Y-78247638D01*
X203193145Y-78247638D01*
X203193144Y-78247637D01*
X203021006Y-78132618D01*
X202874614Y-77986226D01*
X202759595Y-77814088D01*
X202759594Y-77814086D01*
X202680368Y-77622817D01*
X202639979Y-77419769D01*
X202639979Y-77212737D01*
X202680368Y-77009689D01*
X202759594Y-76818420D01*
X202773008Y-76798345D01*
X202874614Y-76646280D01*
X203021006Y-76499888D01*
X203193144Y-76384869D01*
X203193146Y-76384868D01*
X203384415Y-76305642D01*
X203587463Y-76265253D01*
X203794495Y-76265253D01*
X203997543Y-76305642D01*
G37*
G36*
X255511288Y-75925972D02*
G01*
X255702004Y-76004969D01*
X255702559Y-76005199D01*
X255874697Y-76120218D01*
X256021089Y-76266610D01*
X256135956Y-76438520D01*
X256136109Y-76438750D01*
X256215335Y-76630019D01*
X256255724Y-76833067D01*
X256255724Y-77040099D01*
X256215335Y-77243147D01*
X256150586Y-77399465D01*
X256136108Y-77434418D01*
X256021089Y-77606556D01*
X255874697Y-77752948D01*
X255702559Y-77867967D01*
X255702558Y-77867968D01*
X255702557Y-77867968D01*
X255511288Y-77947194D01*
X255308240Y-77987583D01*
X255101208Y-77987583D01*
X254898160Y-77947194D01*
X254706891Y-77867968D01*
X254706890Y-77867968D01*
X254706889Y-77867967D01*
X254534751Y-77752948D01*
X254388359Y-77606556D01*
X254273340Y-77434418D01*
X254258862Y-77399465D01*
X254194113Y-77243147D01*
X254153724Y-77040099D01*
X254153724Y-76833067D01*
X254194113Y-76630019D01*
X254273339Y-76438750D01*
X254273493Y-76438520D01*
X254388359Y-76266610D01*
X254534751Y-76120218D01*
X254706889Y-76005199D01*
X254707444Y-76004969D01*
X254898160Y-75925972D01*
X255101208Y-75885583D01*
X255308240Y-75885583D01*
X255511288Y-75925972D01*
G37*
G36*
X42247909Y-75925742D02*
G01*
X42439178Y-76004968D01*
X42439180Y-76004969D01*
X42611318Y-76119988D01*
X42757710Y-76266380D01*
X42860084Y-76419593D01*
X42872730Y-76438520D01*
X42951956Y-76629789D01*
X42992345Y-76832837D01*
X42992345Y-77039869D01*
X42951956Y-77242917D01*
X42872730Y-77434186D01*
X42872729Y-77434188D01*
X42757710Y-77606326D01*
X42611318Y-77752718D01*
X42439180Y-77867737D01*
X42439179Y-77867738D01*
X42439178Y-77867738D01*
X42247909Y-77946964D01*
X42044861Y-77987353D01*
X41837829Y-77987353D01*
X41634781Y-77946964D01*
X41443512Y-77867738D01*
X41443511Y-77867738D01*
X41443510Y-77867737D01*
X41271372Y-77752718D01*
X41124980Y-77606326D01*
X41009961Y-77434188D01*
X41009960Y-77434186D01*
X40930734Y-77242917D01*
X40890345Y-77039869D01*
X40890345Y-76832837D01*
X40930734Y-76629789D01*
X41009960Y-76438520D01*
X41022607Y-76419593D01*
X41124980Y-76266380D01*
X41271372Y-76119988D01*
X41443510Y-76004969D01*
X41443512Y-76004968D01*
X41634781Y-75925742D01*
X41837829Y-75885353D01*
X42044861Y-75885353D01*
X42247909Y-75925742D01*
G37*
G36*
X198590300Y-75891248D02*
G01*
X198781021Y-75970247D01*
X198781571Y-75970475D01*
X198953709Y-76085494D01*
X199100101Y-76231886D01*
X199214970Y-76403799D01*
X199215121Y-76404026D01*
X199294347Y-76595295D01*
X199334736Y-76798343D01*
X199334736Y-77005375D01*
X199294347Y-77208423D01*
X199215215Y-77399465D01*
X199215120Y-77399694D01*
X199100101Y-77571832D01*
X198953709Y-77718224D01*
X198781571Y-77833243D01*
X198781570Y-77833244D01*
X198781569Y-77833244D01*
X198590300Y-77912470D01*
X198387252Y-77952859D01*
X198180220Y-77952859D01*
X197977172Y-77912470D01*
X197785903Y-77833244D01*
X197785902Y-77833244D01*
X197785901Y-77833243D01*
X197613763Y-77718224D01*
X197467371Y-77571832D01*
X197352352Y-77399694D01*
X197352257Y-77399465D01*
X197273125Y-77208423D01*
X197232736Y-77005375D01*
X197232736Y-76798343D01*
X197273125Y-76595295D01*
X197352351Y-76404026D01*
X197352503Y-76403799D01*
X197467371Y-76231886D01*
X197613763Y-76085494D01*
X197785901Y-75970475D01*
X197786451Y-75970247D01*
X197977172Y-75891248D01*
X198180220Y-75850859D01*
X198387252Y-75850859D01*
X198590300Y-75891248D01*
G37*
G36*
X99168893Y-75891021D02*
G01*
X99360162Y-75970247D01*
X99360164Y-75970248D01*
X99532302Y-76085267D01*
X99678694Y-76231659D01*
X99781066Y-76384869D01*
X99793714Y-76403799D01*
X99872940Y-76595068D01*
X99913329Y-76798116D01*
X99913329Y-77005148D01*
X99872940Y-77208196D01*
X99793714Y-77399465D01*
X99793713Y-77399467D01*
X99678694Y-77571605D01*
X99532302Y-77717997D01*
X99360164Y-77833016D01*
X99360163Y-77833017D01*
X99360162Y-77833017D01*
X99168893Y-77912243D01*
X98965845Y-77952632D01*
X98758813Y-77952632D01*
X98555765Y-77912243D01*
X98364496Y-77833017D01*
X98364495Y-77833017D01*
X98364494Y-77833016D01*
X98192356Y-77717997D01*
X98045964Y-77571605D01*
X97930945Y-77399467D01*
X97930944Y-77399465D01*
X97851718Y-77208196D01*
X97811329Y-77005148D01*
X97811329Y-76798116D01*
X97851718Y-76595068D01*
X97930944Y-76403799D01*
X97943593Y-76384869D01*
X98045964Y-76231659D01*
X98192356Y-76085267D01*
X98364494Y-75970248D01*
X98364496Y-75970247D01*
X98555765Y-75891021D01*
X98758813Y-75850632D01*
X98965845Y-75850632D01*
X99168893Y-75891021D01*
G37*
G36*
X166561913Y-73087007D02*
G01*
X166732410Y-73120921D01*
X167014674Y-73237838D01*
X167268705Y-73407576D01*
X167484741Y-73623612D01*
X167654479Y-73877643D01*
X167771396Y-74159907D01*
X167782085Y-74213644D01*
X167831000Y-74459556D01*
X167831000Y-74765078D01*
X167813285Y-74854135D01*
X167771396Y-75064727D01*
X167654479Y-75346991D01*
X167484741Y-75601022D01*
X167268705Y-75817058D01*
X167014674Y-75986796D01*
X166732410Y-76103713D01*
X166582585Y-76133515D01*
X166432761Y-76163317D01*
X166127239Y-76163317D01*
X165977415Y-76133515D01*
X165827590Y-76103713D01*
X165545326Y-75986796D01*
X165291295Y-75817058D01*
X165075259Y-75601022D01*
X164905521Y-75346991D01*
X164788604Y-75064727D01*
X164746715Y-74854135D01*
X164729000Y-74765078D01*
X164729000Y-74459556D01*
X164777915Y-74213644D01*
X164788604Y-74159907D01*
X164905521Y-73877643D01*
X165075259Y-73623612D01*
X165291295Y-73407576D01*
X165545326Y-73237838D01*
X165827590Y-73120921D01*
X165998087Y-73087007D01*
X166127239Y-73061317D01*
X166432761Y-73061317D01*
X166561913Y-73087007D01*
G37*
G36*
X131001913Y-73087007D02*
G01*
X131172410Y-73120921D01*
X131454674Y-73237838D01*
X131708705Y-73407576D01*
X131924741Y-73623612D01*
X132094479Y-73877643D01*
X132211396Y-74159907D01*
X132222085Y-74213644D01*
X132271000Y-74459556D01*
X132271000Y-74765078D01*
X132253285Y-74854135D01*
X132211396Y-75064727D01*
X132094479Y-75346991D01*
X131924741Y-75601022D01*
X131708705Y-75817058D01*
X131454674Y-75986796D01*
X131172410Y-76103713D01*
X131022585Y-76133515D01*
X130872761Y-76163317D01*
X130567239Y-76163317D01*
X130417415Y-76133515D01*
X130267590Y-76103713D01*
X129985326Y-75986796D01*
X129731295Y-75817058D01*
X129515259Y-75601022D01*
X129345521Y-75346991D01*
X129228604Y-75064727D01*
X129186715Y-74854135D01*
X129169000Y-74765078D01*
X129169000Y-74459556D01*
X129217915Y-74213644D01*
X129228604Y-74159907D01*
X129345521Y-73877643D01*
X129515259Y-73623612D01*
X129731295Y-73407576D01*
X129985326Y-73237838D01*
X130267590Y-73120921D01*
X130438087Y-73087007D01*
X130567239Y-73061317D01*
X130872761Y-73061317D01*
X131001913Y-73087007D01*
G37*
G36*
X279479149Y-74221122D02*
G01*
X279628449Y-74250819D01*
X279792421Y-74318739D01*
X279939991Y-74417342D01*
X280065490Y-74542841D01*
X280164093Y-74690411D01*
X280232013Y-74854383D01*
X280246864Y-74929048D01*
X280266588Y-75028205D01*
X280266637Y-75028454D01*
X280266637Y-75205936D01*
X280232013Y-75380007D01*
X280164093Y-75543979D01*
X280065490Y-75691549D01*
X279939991Y-75817048D01*
X279792421Y-75915651D01*
X279628449Y-75983571D01*
X279479149Y-76013268D01*
X279454379Y-76018195D01*
X279276895Y-76018195D01*
X279252125Y-76013268D01*
X279102825Y-75983571D01*
X278938853Y-75915651D01*
X278791283Y-75817048D01*
X278665784Y-75691549D01*
X278567181Y-75543979D01*
X278499261Y-75380007D01*
X278464637Y-75205936D01*
X278464637Y-75028454D01*
X278464687Y-75028205D01*
X278484410Y-74929048D01*
X278499261Y-74854383D01*
X278567181Y-74690411D01*
X278665784Y-74542841D01*
X278791283Y-74417342D01*
X278938853Y-74318739D01*
X279102825Y-74250819D01*
X279252125Y-74221122D01*
X279276895Y-74216195D01*
X279454379Y-74216195D01*
X279479149Y-74221122D01*
G37*
G36*
X17893864Y-74220873D02*
G01*
X18043164Y-74250570D01*
X18207136Y-74318490D01*
X18354706Y-74417093D01*
X18480205Y-74542592D01*
X18578808Y-74690162D01*
X18646728Y-74854134D01*
X18676425Y-75003434D01*
X18681352Y-75028204D01*
X18681352Y-75205688D01*
X18681302Y-75205937D01*
X18646728Y-75379758D01*
X18578808Y-75543730D01*
X18480205Y-75691300D01*
X18354706Y-75816799D01*
X18207136Y-75915402D01*
X18043164Y-75983322D01*
X17893864Y-76013019D01*
X17869094Y-76017946D01*
X17691610Y-76017946D01*
X17666840Y-76013019D01*
X17517540Y-75983322D01*
X17353568Y-75915402D01*
X17205998Y-75816799D01*
X17080499Y-75691300D01*
X16981896Y-75543730D01*
X16913976Y-75379758D01*
X16879402Y-75205937D01*
X16879352Y-75205688D01*
X16879352Y-75028204D01*
X16884279Y-75003434D01*
X16913976Y-74854134D01*
X16981896Y-74690162D01*
X17080499Y-74542592D01*
X17205998Y-74417093D01*
X17353568Y-74318490D01*
X17517540Y-74250570D01*
X17666840Y-74220873D01*
X17691610Y-74215946D01*
X17869094Y-74215946D01*
X17893864Y-74220873D01*
G37*
G36*
X29249580Y-73814921D02*
G01*
X29440849Y-73894147D01*
X29440851Y-73894148D01*
X29612989Y-74009167D01*
X29759381Y-74155559D01*
X29798343Y-74213869D01*
X29874401Y-74327699D01*
X29953627Y-74518968D01*
X29994016Y-74722016D01*
X29994016Y-74929048D01*
X29953627Y-75132096D01*
X29883438Y-75301548D01*
X29874400Y-75323367D01*
X29759381Y-75495505D01*
X29612989Y-75641897D01*
X29440851Y-75756916D01*
X29440850Y-75756917D01*
X29440849Y-75756917D01*
X29249580Y-75836143D01*
X29046532Y-75876532D01*
X28839500Y-75876532D01*
X28636452Y-75836143D01*
X28445183Y-75756917D01*
X28445182Y-75756917D01*
X28445181Y-75756916D01*
X28273043Y-75641897D01*
X28126651Y-75495505D01*
X28011632Y-75323367D01*
X28002594Y-75301548D01*
X27932405Y-75132096D01*
X27892016Y-74929048D01*
X27892016Y-74722016D01*
X27932405Y-74518968D01*
X28011631Y-74327699D01*
X28087690Y-74213869D01*
X28126651Y-74155559D01*
X28273043Y-74009167D01*
X28445181Y-73894148D01*
X28445183Y-73894147D01*
X28636452Y-73814921D01*
X28839500Y-73774532D01*
X29046532Y-73774532D01*
X29249580Y-73814921D01*
G37*
G36*
X172577970Y-72887633D02*
G01*
X172744258Y-72920709D01*
X172908230Y-72988629D01*
X173055800Y-73087232D01*
X173181299Y-73212731D01*
X173279902Y-73360301D01*
X173347822Y-73524273D01*
X173382446Y-73698344D01*
X173382446Y-73875826D01*
X173347822Y-74049897D01*
X173279902Y-74213869D01*
X173181299Y-74361439D01*
X173055800Y-74486938D01*
X172908230Y-74585541D01*
X172744258Y-74653461D01*
X172594958Y-74683158D01*
X172570188Y-74688085D01*
X172392704Y-74688085D01*
X172367934Y-74683158D01*
X172218634Y-74653461D01*
X172054662Y-74585541D01*
X171907092Y-74486938D01*
X171781593Y-74361439D01*
X171682990Y-74213869D01*
X171615070Y-74049897D01*
X171580446Y-73875826D01*
X171580446Y-73698344D01*
X171615070Y-73524273D01*
X171682990Y-73360301D01*
X171781593Y-73212731D01*
X171907092Y-73087232D01*
X172054662Y-72988629D01*
X172218634Y-72920709D01*
X172384922Y-72887633D01*
X172392704Y-72886085D01*
X172570188Y-72886085D01*
X172577970Y-72887633D01*
G37*
G36*
X124778134Y-72890787D02*
G01*
X124927434Y-72920484D01*
X125091406Y-72988404D01*
X125238976Y-73087007D01*
X125364475Y-73212506D01*
X125463078Y-73360076D01*
X125530998Y-73524048D01*
X125550802Y-73623612D01*
X125565622Y-73698118D01*
X125565622Y-73875602D01*
X125561933Y-73894147D01*
X125530998Y-74049672D01*
X125463078Y-74213644D01*
X125364475Y-74361214D01*
X125238976Y-74486713D01*
X125091406Y-74585316D01*
X124927434Y-74653236D01*
X124778134Y-74682933D01*
X124753364Y-74687860D01*
X124575880Y-74687860D01*
X124551110Y-74682933D01*
X124401810Y-74653236D01*
X124237838Y-74585316D01*
X124090268Y-74486713D01*
X123964769Y-74361214D01*
X123866166Y-74213644D01*
X123798246Y-74049672D01*
X123767311Y-73894147D01*
X123763622Y-73875602D01*
X123763622Y-73698118D01*
X123778442Y-73623612D01*
X123798246Y-73524048D01*
X123866166Y-73360076D01*
X123964769Y-73212506D01*
X124090268Y-73087007D01*
X124237838Y-72988404D01*
X124401810Y-72920484D01*
X124551110Y-72890787D01*
X124575880Y-72885860D01*
X124753364Y-72885860D01*
X124778134Y-72890787D01*
G37*
G36*
X178098249Y-70344875D02*
G01*
X178211012Y-70367305D01*
X178343005Y-70421978D01*
X178529672Y-70499298D01*
X178816460Y-70690924D01*
X179060355Y-70934819D01*
X179251981Y-71221607D01*
X179329301Y-71408274D01*
X179383881Y-71540042D01*
X179383974Y-71540268D01*
X179451264Y-71878555D01*
X179451264Y-72223475D01*
X179434869Y-72305897D01*
X179383974Y-72561763D01*
X179335039Y-72679902D01*
X179251981Y-72880423D01*
X179060355Y-73167211D01*
X178816460Y-73411106D01*
X178529672Y-73602732D01*
X178391868Y-73659812D01*
X178211012Y-73734725D01*
X178098249Y-73757155D01*
X177872724Y-73802015D01*
X177527804Y-73802015D01*
X177302279Y-73757155D01*
X177189516Y-73734725D01*
X177008660Y-73659812D01*
X176870856Y-73602732D01*
X176584068Y-73411106D01*
X176340173Y-73167211D01*
X176148547Y-72880423D01*
X176065489Y-72679902D01*
X176016554Y-72561763D01*
X175965659Y-72305897D01*
X175949264Y-72223475D01*
X175949264Y-71878555D01*
X176016554Y-71540268D01*
X176016648Y-71540042D01*
X176071227Y-71408274D01*
X176148547Y-71221607D01*
X176340173Y-70934819D01*
X176584068Y-70690924D01*
X176870856Y-70499298D01*
X177057523Y-70421978D01*
X177189516Y-70367305D01*
X177302279Y-70344875D01*
X177527804Y-70300015D01*
X177872724Y-70300015D01*
X178098249Y-70344875D01*
G37*
G36*
X119769485Y-70329870D02*
G01*
X119956552Y-70367080D01*
X120044929Y-70403687D01*
X120275212Y-70499073D01*
X120562000Y-70690699D01*
X120805895Y-70934594D01*
X120997521Y-71221382D01*
X121054280Y-71358411D01*
X121129514Y-71540042D01*
X121134633Y-71565777D01*
X121196804Y-71878330D01*
X121196804Y-72223250D01*
X121181820Y-72298577D01*
X121129514Y-72561538D01*
X121081687Y-72677002D01*
X120997521Y-72880198D01*
X120805895Y-73166986D01*
X120562000Y-73410881D01*
X120275212Y-73602507D01*
X120108922Y-73671386D01*
X119956552Y-73734500D01*
X119843789Y-73756930D01*
X119618264Y-73801790D01*
X119273344Y-73801790D01*
X119047819Y-73756930D01*
X118935056Y-73734500D01*
X118782686Y-73671386D01*
X118616396Y-73602507D01*
X118329608Y-73410881D01*
X118085713Y-73166986D01*
X117894087Y-72880198D01*
X117809921Y-72677002D01*
X117762094Y-72561538D01*
X117709788Y-72298577D01*
X117694804Y-72223250D01*
X117694804Y-71878330D01*
X117756975Y-71565777D01*
X117762094Y-71540042D01*
X117837328Y-71358411D01*
X117894087Y-71221382D01*
X118085713Y-70934594D01*
X118329608Y-70690699D01*
X118616396Y-70499073D01*
X118846679Y-70403687D01*
X118935056Y-70367080D01*
X119122123Y-70329870D01*
X119273344Y-70299790D01*
X119618264Y-70299790D01*
X119769485Y-70329870D01*
G37*
G36*
X229195254Y-71975855D02*
G01*
X229349592Y-72006554D01*
X229513564Y-72074474D01*
X229661134Y-72173077D01*
X229786633Y-72298576D01*
X229885236Y-72446146D01*
X229953156Y-72610118D01*
X229987780Y-72784189D01*
X229987780Y-72961671D01*
X229953156Y-73135742D01*
X229885236Y-73299714D01*
X229786633Y-73447284D01*
X229661134Y-73572783D01*
X229513564Y-73671386D01*
X229349592Y-73739306D01*
X229200292Y-73769003D01*
X229175522Y-73773930D01*
X228998038Y-73773930D01*
X228973268Y-73769003D01*
X228823968Y-73739306D01*
X228659996Y-73671386D01*
X228512426Y-73572783D01*
X228386927Y-73447284D01*
X228288324Y-73299714D01*
X228220404Y-73135742D01*
X228185780Y-72961671D01*
X228185780Y-72784189D01*
X228220404Y-72610118D01*
X228288324Y-72446146D01*
X228386927Y-72298576D01*
X228512426Y-72173077D01*
X228659996Y-72074474D01*
X228823968Y-72006554D01*
X228978306Y-71975855D01*
X228998038Y-71971930D01*
X229175522Y-71971930D01*
X229195254Y-71975855D01*
G37*
G36*
X68168898Y-71975855D02*
G01*
X68322095Y-72006327D01*
X68486067Y-72074247D01*
X68633637Y-72172850D01*
X68759136Y-72298349D01*
X68857739Y-72445919D01*
X68925659Y-72609891D01*
X68941310Y-72688577D01*
X68957982Y-72772391D01*
X68960283Y-72783962D01*
X68960283Y-72961444D01*
X68925659Y-73135515D01*
X68857739Y-73299487D01*
X68759136Y-73447057D01*
X68633637Y-73572556D01*
X68486067Y-73671159D01*
X68322095Y-73739079D01*
X68172795Y-73768776D01*
X68148025Y-73773703D01*
X67970541Y-73773703D01*
X67945771Y-73768776D01*
X67796471Y-73739079D01*
X67632499Y-73671159D01*
X67484929Y-73572556D01*
X67359430Y-73447057D01*
X67260827Y-73299487D01*
X67192907Y-73135515D01*
X67158283Y-72961444D01*
X67158283Y-72783962D01*
X67160585Y-72772391D01*
X67177256Y-72688577D01*
X67192907Y-72609891D01*
X67260827Y-72445919D01*
X67359430Y-72298349D01*
X67484929Y-72172850D01*
X67632499Y-72074247D01*
X67796471Y-72006327D01*
X67949668Y-71975855D01*
X67970541Y-71971703D01*
X68148025Y-71971703D01*
X68168898Y-71975855D01*
G37*
G36*
X210226630Y-71965283D02*
G01*
X210375930Y-71994980D01*
X210539902Y-72062900D01*
X210687472Y-72161503D01*
X210812971Y-72287002D01*
X210911574Y-72434572D01*
X210979494Y-72598544D01*
X210997357Y-72688350D01*
X211014074Y-72772391D01*
X211014118Y-72772615D01*
X211014118Y-72950097D01*
X210979494Y-73124168D01*
X210911574Y-73288140D01*
X210812971Y-73435710D01*
X210687472Y-73561209D01*
X210539902Y-73659812D01*
X210375930Y-73727732D01*
X210226630Y-73757429D01*
X210201860Y-73762356D01*
X210024376Y-73762356D01*
X209999606Y-73757429D01*
X209850306Y-73727732D01*
X209686334Y-73659812D01*
X209538764Y-73561209D01*
X209413265Y-73435710D01*
X209314662Y-73288140D01*
X209246742Y-73124168D01*
X209212118Y-72950097D01*
X209212118Y-72772615D01*
X209212163Y-72772391D01*
X209228879Y-72688350D01*
X209246742Y-72598544D01*
X209314662Y-72434572D01*
X209413265Y-72287002D01*
X209538764Y-72161503D01*
X209686334Y-72062900D01*
X209850306Y-71994980D01*
X209999606Y-71965283D01*
X210024376Y-71960356D01*
X210201860Y-71960356D01*
X210226630Y-71965283D01*
G37*
G36*
X87146459Y-71965059D02*
G01*
X87295759Y-71994756D01*
X87459731Y-72062676D01*
X87607301Y-72161279D01*
X87732800Y-72286778D01*
X87831403Y-72434348D01*
X87899323Y-72598320D01*
X87923584Y-72720291D01*
X87933947Y-72772390D01*
X87933947Y-72949874D01*
X87931645Y-72961445D01*
X87899323Y-73123944D01*
X87831403Y-73287916D01*
X87732800Y-73435486D01*
X87607301Y-73560985D01*
X87459731Y-73659588D01*
X87295759Y-73727508D01*
X87146459Y-73757205D01*
X87121689Y-73762132D01*
X86944205Y-73762132D01*
X86919435Y-73757205D01*
X86770135Y-73727508D01*
X86606163Y-73659588D01*
X86458593Y-73560985D01*
X86333094Y-73435486D01*
X86234491Y-73287916D01*
X86166571Y-73123944D01*
X86134249Y-72961445D01*
X86131947Y-72949874D01*
X86131947Y-72772390D01*
X86142310Y-72720291D01*
X86166571Y-72598320D01*
X86234491Y-72434348D01*
X86333094Y-72286778D01*
X86458593Y-72161279D01*
X86606163Y-72062676D01*
X86770135Y-71994756D01*
X86919435Y-71965059D01*
X86944205Y-71960132D01*
X87121689Y-71960132D01*
X87146459Y-71965059D01*
G37*
G36*
X234703583Y-69430720D02*
G01*
X234816346Y-69453150D01*
X234948339Y-69507823D01*
X235135006Y-69585143D01*
X235421794Y-69776769D01*
X235665689Y-70020664D01*
X235857315Y-70307452D01*
X235911507Y-70438283D01*
X235984422Y-70614315D01*
X235989308Y-70626113D01*
X236056598Y-70964400D01*
X236056598Y-71309320D01*
X235989308Y-71647607D01*
X235857315Y-71966268D01*
X235665689Y-72253056D01*
X235421794Y-72496951D01*
X235135006Y-72688577D01*
X234948339Y-72765897D01*
X234816346Y-72820570D01*
X234703583Y-72843000D01*
X234478058Y-72887860D01*
X234133138Y-72887860D01*
X233907613Y-72843000D01*
X233794850Y-72820570D01*
X233662857Y-72765897D01*
X233476190Y-72688577D01*
X233189402Y-72496951D01*
X232945507Y-72253056D01*
X232753881Y-71966268D01*
X232621888Y-71647607D01*
X232554598Y-71309320D01*
X232554598Y-70964400D01*
X232621888Y-70626113D01*
X232626775Y-70614315D01*
X232699689Y-70438283D01*
X232753881Y-70307452D01*
X232945507Y-70020664D01*
X233189402Y-69776769D01*
X233476190Y-69585143D01*
X233662857Y-69507823D01*
X233794850Y-69453150D01*
X233907613Y-69430720D01*
X234133138Y-69385860D01*
X234478058Y-69385860D01*
X234703583Y-69430720D01*
G37*
G36*
X63164146Y-69415713D02*
G01*
X63351213Y-69452923D01*
X63483206Y-69507596D01*
X63669873Y-69584916D01*
X63956661Y-69776542D01*
X64200556Y-70020437D01*
X64392182Y-70307225D01*
X64446468Y-70438283D01*
X64524175Y-70625885D01*
X64537067Y-70690699D01*
X64591465Y-70964173D01*
X64591465Y-71309093D01*
X64580796Y-71362727D01*
X64526477Y-71635810D01*
X64524175Y-71647380D01*
X64392182Y-71966041D01*
X64200556Y-72252829D01*
X63956661Y-72496724D01*
X63669873Y-72688350D01*
X63483206Y-72765670D01*
X63351213Y-72820343D01*
X63238450Y-72842773D01*
X63012925Y-72887633D01*
X62668005Y-72887633D01*
X62442480Y-72842773D01*
X62329717Y-72820343D01*
X62197724Y-72765670D01*
X62011057Y-72688350D01*
X61724269Y-72496724D01*
X61480374Y-72252829D01*
X61288748Y-71966041D01*
X61156755Y-71647380D01*
X61154454Y-71635810D01*
X61100134Y-71362727D01*
X61089465Y-71309093D01*
X61089465Y-70964173D01*
X61143863Y-70690699D01*
X61156755Y-70625885D01*
X61234462Y-70438283D01*
X61288748Y-70307225D01*
X61480374Y-70020437D01*
X61724269Y-69776542D01*
X62011057Y-69584916D01*
X62197724Y-69507596D01*
X62329717Y-69452923D01*
X62516784Y-69415713D01*
X62668005Y-69385633D01*
X63012925Y-69385633D01*
X63164146Y-69415713D01*
G37*
G36*
X215712662Y-69415713D02*
G01*
X215842684Y-69441576D01*
X215957909Y-69489304D01*
X216161344Y-69573569D01*
X216448132Y-69765195D01*
X216692027Y-70009090D01*
X216883653Y-70295878D01*
X216942639Y-70438283D01*
X217015646Y-70614538D01*
X217038076Y-70727301D01*
X217082936Y-70952826D01*
X217082936Y-71297746D01*
X217070010Y-71362727D01*
X217015691Y-71635810D01*
X217015646Y-71636033D01*
X216883653Y-71954694D01*
X216692027Y-72241482D01*
X216448132Y-72485377D01*
X216161344Y-72677003D01*
X215974677Y-72754323D01*
X215842684Y-72808996D01*
X215729921Y-72831426D01*
X215504396Y-72876286D01*
X215159476Y-72876286D01*
X214933951Y-72831426D01*
X214821188Y-72808996D01*
X214689195Y-72754323D01*
X214502528Y-72677003D01*
X214215740Y-72485377D01*
X213971845Y-72241482D01*
X213780219Y-71954694D01*
X213648226Y-71636033D01*
X213648182Y-71635810D01*
X213593862Y-71362727D01*
X213580936Y-71297746D01*
X213580936Y-70952826D01*
X213625796Y-70727301D01*
X213648226Y-70614538D01*
X213721233Y-70438283D01*
X213780219Y-70295878D01*
X213971845Y-70009090D01*
X214215740Y-69765195D01*
X214502528Y-69573569D01*
X214705963Y-69489304D01*
X214821188Y-69441576D01*
X214951210Y-69415713D01*
X215159476Y-69374286D01*
X215504396Y-69374286D01*
X215712662Y-69415713D01*
G37*
G36*
X82187093Y-69413945D02*
G01*
X82324877Y-69441352D01*
X82456870Y-69496025D01*
X82643537Y-69573345D01*
X82930325Y-69764971D01*
X83174220Y-70008866D01*
X83365846Y-70295654D01*
X83425028Y-70438532D01*
X83497839Y-70614314D01*
X83500141Y-70625886D01*
X83565129Y-70952602D01*
X83565129Y-71297522D01*
X83562782Y-71309320D01*
X83497839Y-71635810D01*
X83492952Y-71647608D01*
X83365846Y-71954470D01*
X83174220Y-72241258D01*
X82930325Y-72485153D01*
X82643537Y-72676779D01*
X82538489Y-72720291D01*
X82324877Y-72808772D01*
X82265564Y-72820570D01*
X81986589Y-72876062D01*
X81641669Y-72876062D01*
X81362694Y-72820570D01*
X81303381Y-72808772D01*
X81089769Y-72720291D01*
X80984721Y-72676779D01*
X80697933Y-72485153D01*
X80454038Y-72241258D01*
X80262412Y-71954470D01*
X80135306Y-71647608D01*
X80130419Y-71635810D01*
X80065476Y-71309320D01*
X80063129Y-71297522D01*
X80063129Y-70952602D01*
X80128117Y-70625886D01*
X80130419Y-70614314D01*
X80203230Y-70438532D01*
X80262412Y-70295654D01*
X80454038Y-70008866D01*
X80697933Y-69764971D01*
X80984721Y-69573345D01*
X81171388Y-69496025D01*
X81303381Y-69441352D01*
X81441165Y-69413945D01*
X81641669Y-69374062D01*
X81986589Y-69374062D01*
X82187093Y-69413945D01*
G37*
G36*
X277998297Y-70658680D02*
G01*
X278189566Y-70737906D01*
X278189568Y-70737907D01*
X278361706Y-70852926D01*
X278508098Y-70999318D01*
X278609705Y-71151383D01*
X278623118Y-71171458D01*
X278702344Y-71362727D01*
X278742733Y-71565775D01*
X278742733Y-71772807D01*
X278702344Y-71975855D01*
X278625446Y-72161503D01*
X278623117Y-72167126D01*
X278508098Y-72339264D01*
X278361706Y-72485656D01*
X278189568Y-72600675D01*
X278189567Y-72600676D01*
X278189566Y-72600676D01*
X277998297Y-72679902D01*
X277795249Y-72720291D01*
X277588217Y-72720291D01*
X277385169Y-72679902D01*
X277193900Y-72600676D01*
X277193899Y-72600676D01*
X277193898Y-72600675D01*
X277021760Y-72485656D01*
X276875368Y-72339264D01*
X276760349Y-72167126D01*
X276758020Y-72161503D01*
X276681122Y-71975855D01*
X276640733Y-71772807D01*
X276640733Y-71565775D01*
X276681122Y-71362727D01*
X276760348Y-71171458D01*
X276773762Y-71151383D01*
X276875368Y-70999318D01*
X277021760Y-70852926D01*
X277193898Y-70737907D01*
X277193900Y-70737906D01*
X277385169Y-70658680D01*
X277588217Y-70618291D01*
X277795249Y-70618291D01*
X277998297Y-70658680D01*
G37*
G36*
X272591054Y-70244286D02*
G01*
X272781724Y-70323264D01*
X272782325Y-70323513D01*
X272954463Y-70438532D01*
X273100855Y-70584924D01*
X273215708Y-70756813D01*
X273215875Y-70757064D01*
X273295101Y-70948333D01*
X273335490Y-71151381D01*
X273335490Y-71358413D01*
X273295101Y-71561461D01*
X273215978Y-71752481D01*
X273215874Y-71752732D01*
X273100855Y-71924870D01*
X272954463Y-72071262D01*
X272782325Y-72186281D01*
X272782324Y-72186282D01*
X272782323Y-72186282D01*
X272591054Y-72265508D01*
X272388006Y-72305897D01*
X272180974Y-72305897D01*
X271977926Y-72265508D01*
X271786657Y-72186282D01*
X271786656Y-72186282D01*
X271786655Y-72186281D01*
X271614517Y-72071262D01*
X271468125Y-71924870D01*
X271353106Y-71752732D01*
X271353002Y-71752481D01*
X271273879Y-71561461D01*
X271233490Y-71358413D01*
X271233490Y-71151381D01*
X271273879Y-70948333D01*
X271353105Y-70757064D01*
X271353273Y-70756813D01*
X271468125Y-70584924D01*
X271614517Y-70438532D01*
X271786655Y-70323513D01*
X271787256Y-70323264D01*
X271977926Y-70244286D01*
X272180974Y-70203897D01*
X272388006Y-70203897D01*
X272591054Y-70244286D01*
G37*
G36*
X25168063Y-70244037D02*
G01*
X25359332Y-70323263D01*
X25359334Y-70323264D01*
X25531472Y-70438283D01*
X25677864Y-70584675D01*
X25782653Y-70741502D01*
X25792884Y-70756815D01*
X25872110Y-70948084D01*
X25912499Y-71151132D01*
X25912499Y-71358164D01*
X25872110Y-71561212D01*
X25792884Y-71752481D01*
X25792883Y-71752483D01*
X25677864Y-71924621D01*
X25531472Y-72071013D01*
X25359334Y-72186032D01*
X25359333Y-72186033D01*
X25359332Y-72186033D01*
X25168063Y-72265259D01*
X24965015Y-72305648D01*
X24757983Y-72305648D01*
X24554935Y-72265259D01*
X24363666Y-72186033D01*
X24363665Y-72186033D01*
X24363664Y-72186032D01*
X24191526Y-72071013D01*
X24045134Y-71924621D01*
X23930115Y-71752483D01*
X23930114Y-71752481D01*
X23850888Y-71561212D01*
X23810499Y-71358164D01*
X23810499Y-71151132D01*
X23850888Y-70948084D01*
X23930114Y-70756815D01*
X23940346Y-70741502D01*
X24045134Y-70584675D01*
X24191526Y-70438283D01*
X24363664Y-70323264D01*
X24363666Y-70323263D01*
X24554935Y-70244037D01*
X24757983Y-70203648D01*
X24965015Y-70203648D01*
X25168063Y-70244037D01*
G37*
G36*
X183016712Y-69415713D02*
G01*
X183181894Y-69448569D01*
X183345866Y-69516489D01*
X183493436Y-69615092D01*
X183618935Y-69740591D01*
X183717538Y-69888161D01*
X183785458Y-70052133D01*
X183820082Y-70226204D01*
X183820082Y-70403686D01*
X183785458Y-70577757D01*
X183717538Y-70741729D01*
X183618935Y-70889299D01*
X183493436Y-71014798D01*
X183345866Y-71113401D01*
X183181894Y-71181321D01*
X183032594Y-71211018D01*
X183007824Y-71215945D01*
X182830340Y-71215945D01*
X182805570Y-71211018D01*
X182656270Y-71181321D01*
X182492298Y-71113401D01*
X182344728Y-71014798D01*
X182219229Y-70889299D01*
X182120626Y-70741729D01*
X182052706Y-70577757D01*
X182018082Y-70403686D01*
X182018082Y-70226204D01*
X182052706Y-70052133D01*
X182120626Y-69888161D01*
X182219229Y-69740591D01*
X182344728Y-69615092D01*
X182492298Y-69516489D01*
X182656270Y-69448569D01*
X182821452Y-69415713D01*
X182830340Y-69413945D01*
X183007824Y-69413945D01*
X183016712Y-69415713D01*
G37*
G36*
X114325747Y-69415713D02*
G01*
X114489798Y-69448344D01*
X114653770Y-69516264D01*
X114801340Y-69614867D01*
X114926839Y-69740366D01*
X115025442Y-69887936D01*
X115093362Y-70051908D01*
X115127986Y-70225979D01*
X115127986Y-70403461D01*
X115093362Y-70577532D01*
X115025442Y-70741504D01*
X114926839Y-70889074D01*
X114801340Y-71014573D01*
X114653770Y-71113176D01*
X114489798Y-71181096D01*
X114340498Y-71210793D01*
X114315728Y-71215720D01*
X114138244Y-71215720D01*
X114113474Y-71210793D01*
X113964174Y-71181096D01*
X113800202Y-71113176D01*
X113652632Y-71014573D01*
X113527133Y-70889074D01*
X113428530Y-70741504D01*
X113360610Y-70577532D01*
X113325986Y-70403461D01*
X113325986Y-70225979D01*
X113360610Y-70051908D01*
X113428530Y-69887936D01*
X113527133Y-69740366D01*
X113652632Y-69614867D01*
X113800202Y-69516264D01*
X113964174Y-69448344D01*
X114128225Y-69415713D01*
X114138244Y-69413720D01*
X114315728Y-69413720D01*
X114325747Y-69415713D01*
G37*
G36*
X125696214Y-69012695D02*
G01*
X125887483Y-69091921D01*
X125887485Y-69091922D01*
X126059623Y-69206941D01*
X126206015Y-69353333D01*
X126297020Y-69489531D01*
X126321035Y-69525473D01*
X126400261Y-69716742D01*
X126440650Y-69919790D01*
X126440650Y-70126822D01*
X126400261Y-70329870D01*
X126330082Y-70499298D01*
X126321034Y-70521141D01*
X126206015Y-70693279D01*
X126059623Y-70839671D01*
X125887485Y-70954690D01*
X125887484Y-70954691D01*
X125887483Y-70954691D01*
X125696214Y-71033917D01*
X125493166Y-71074306D01*
X125286134Y-71074306D01*
X125083086Y-71033917D01*
X124891817Y-70954691D01*
X124891816Y-70954691D01*
X124891815Y-70954690D01*
X124719677Y-70839671D01*
X124573285Y-70693279D01*
X124458266Y-70521141D01*
X124449218Y-70499298D01*
X124379039Y-70329870D01*
X124338650Y-70126822D01*
X124338650Y-69919790D01*
X124379039Y-69716742D01*
X124458265Y-69525473D01*
X124482281Y-69489531D01*
X124573285Y-69353333D01*
X124719677Y-69206941D01*
X124891815Y-69091922D01*
X124891817Y-69091921D01*
X125083086Y-69012695D01*
X125286134Y-68972306D01*
X125493166Y-68972306D01*
X125696214Y-69012695D01*
G37*
G36*
X239637928Y-68504717D02*
G01*
X239787228Y-68534414D01*
X239951200Y-68602334D01*
X240098770Y-68700937D01*
X240224269Y-68826436D01*
X240322872Y-68974006D01*
X240390792Y-69137978D01*
X240425416Y-69312049D01*
X240425416Y-69489531D01*
X240390792Y-69663602D01*
X240322872Y-69827574D01*
X240224269Y-69975144D01*
X240098770Y-70100643D01*
X239951200Y-70199246D01*
X239787228Y-70267166D01*
X239642884Y-70295877D01*
X239613158Y-70301790D01*
X239435674Y-70301790D01*
X239405948Y-70295877D01*
X239261604Y-70267166D01*
X239097632Y-70199246D01*
X238950062Y-70100643D01*
X238824563Y-69975144D01*
X238725960Y-69827574D01*
X238658040Y-69663602D01*
X238623416Y-69489531D01*
X238623416Y-69312049D01*
X238658040Y-69137978D01*
X238725960Y-68974006D01*
X238824563Y-68826436D01*
X238950062Y-68700937D01*
X239097632Y-68602334D01*
X239261604Y-68534414D01*
X239410904Y-68504717D01*
X239435674Y-68499790D01*
X239613158Y-68499790D01*
X239637928Y-68504717D01*
G37*
G36*
X57735159Y-68504490D02*
G01*
X57884459Y-68534187D01*
X58048431Y-68602107D01*
X58196001Y-68700710D01*
X58321500Y-68826209D01*
X58420103Y-68973779D01*
X58488023Y-69137751D01*
X58517720Y-69287051D01*
X58520346Y-69300251D01*
X58522647Y-69311822D01*
X58522647Y-69489304D01*
X58488023Y-69663375D01*
X58420103Y-69827347D01*
X58321500Y-69974917D01*
X58196001Y-70100416D01*
X58048431Y-70199019D01*
X57884459Y-70266939D01*
X57740100Y-70295653D01*
X57710389Y-70301563D01*
X57532905Y-70301563D01*
X57503194Y-70295653D01*
X57358835Y-70266939D01*
X57194863Y-70199019D01*
X57047293Y-70100416D01*
X56921794Y-69974917D01*
X56823191Y-69827347D01*
X56755271Y-69663375D01*
X56720647Y-69489304D01*
X56720647Y-69311822D01*
X56722949Y-69300251D01*
X56725574Y-69287051D01*
X56755271Y-69137751D01*
X56823191Y-68973779D01*
X56921794Y-68826209D01*
X57047293Y-68700710D01*
X57194863Y-68602107D01*
X57358835Y-68534187D01*
X57508135Y-68504490D01*
X57532905Y-68499563D01*
X57710389Y-68499563D01*
X57735159Y-68504490D01*
G37*
G36*
X220664266Y-68493143D02*
G01*
X220813566Y-68522840D01*
X220977538Y-68590760D01*
X221125108Y-68689363D01*
X221250607Y-68814862D01*
X221349210Y-68962432D01*
X221417130Y-69126404D01*
X221446827Y-69275704D01*
X221451710Y-69300251D01*
X221451754Y-69300475D01*
X221451754Y-69477957D01*
X221417130Y-69652028D01*
X221349210Y-69816000D01*
X221250607Y-69963570D01*
X221125108Y-70089069D01*
X220977538Y-70187672D01*
X220813566Y-70255592D01*
X220664266Y-70285289D01*
X220639496Y-70290216D01*
X220462012Y-70290216D01*
X220437242Y-70285289D01*
X220287942Y-70255592D01*
X220123970Y-70187672D01*
X219976400Y-70089069D01*
X219850901Y-69963570D01*
X219752298Y-69816000D01*
X219684378Y-69652028D01*
X219649754Y-69477957D01*
X219649754Y-69300475D01*
X219649799Y-69300251D01*
X219654681Y-69275704D01*
X219684378Y-69126404D01*
X219752298Y-68962432D01*
X219850901Y-68814862D01*
X219976400Y-68689363D01*
X220123970Y-68590760D01*
X220287942Y-68522840D01*
X220437242Y-68493143D01*
X220462012Y-68488216D01*
X220639496Y-68488216D01*
X220664266Y-68493143D01*
G37*
G36*
X76708823Y-68492919D02*
G01*
X76858123Y-68522616D01*
X77022095Y-68590536D01*
X77169665Y-68689139D01*
X77295164Y-68814638D01*
X77393767Y-68962208D01*
X77461687Y-69126180D01*
X77491384Y-69275480D01*
X77496311Y-69300250D01*
X77496311Y-69477734D01*
X77494009Y-69489305D01*
X77461687Y-69651804D01*
X77393767Y-69815776D01*
X77295164Y-69963346D01*
X77169665Y-70088845D01*
X77022095Y-70187448D01*
X76858123Y-70255368D01*
X76708823Y-70285065D01*
X76684053Y-70289992D01*
X76506569Y-70289992D01*
X76481799Y-70285065D01*
X76332499Y-70255368D01*
X76168527Y-70187448D01*
X76020957Y-70088845D01*
X75895458Y-69963346D01*
X75796855Y-69815776D01*
X75728935Y-69651804D01*
X75696613Y-69489305D01*
X75694311Y-69477734D01*
X75694311Y-69300250D01*
X75699238Y-69275480D01*
X75728935Y-69126180D01*
X75796855Y-68962208D01*
X75895458Y-68814638D01*
X76020957Y-68689139D01*
X76168527Y-68590536D01*
X76332499Y-68522616D01*
X76481799Y-68492919D01*
X76506569Y-68487992D01*
X76684053Y-68487992D01*
X76708823Y-68492919D01*
G37*
G36*
X69090875Y-68098538D02*
G01*
X69254211Y-68166194D01*
X69282146Y-68177765D01*
X69454284Y-68292784D01*
X69600676Y-68439176D01*
X69709695Y-68602334D01*
X69715696Y-68611316D01*
X69794922Y-68802585D01*
X69835311Y-69005633D01*
X69835311Y-69212665D01*
X69794922Y-69415713D01*
X69720489Y-69595411D01*
X69715695Y-69606984D01*
X69600676Y-69779122D01*
X69454284Y-69925514D01*
X69282146Y-70040533D01*
X69282145Y-70040534D01*
X69282144Y-70040534D01*
X69090875Y-70119760D01*
X68887827Y-70160149D01*
X68680795Y-70160149D01*
X68477747Y-70119760D01*
X68286478Y-70040534D01*
X68286477Y-70040534D01*
X68286476Y-70040533D01*
X68114338Y-69925514D01*
X67967946Y-69779122D01*
X67852927Y-69606984D01*
X67848133Y-69595411D01*
X67773700Y-69415713D01*
X67733311Y-69212665D01*
X67733311Y-69005633D01*
X67773700Y-68802585D01*
X67852926Y-68611316D01*
X67858928Y-68602334D01*
X67967946Y-68439176D01*
X68114338Y-68292784D01*
X68286476Y-68177765D01*
X68314411Y-68166194D01*
X68477747Y-68098538D01*
X68680795Y-68058149D01*
X68887827Y-68058149D01*
X69090875Y-68098538D01*
G37*
G36*
X88064539Y-68086967D02*
G01*
X88228918Y-68155055D01*
X88255810Y-68166194D01*
X88427948Y-68281213D01*
X88574340Y-68427605D01*
X88683357Y-68590760D01*
X88689360Y-68599745D01*
X88768586Y-68791014D01*
X88808975Y-68994062D01*
X88808975Y-69201094D01*
X88768586Y-69404142D01*
X88698407Y-69573569D01*
X88689359Y-69595413D01*
X88574340Y-69767551D01*
X88427948Y-69913943D01*
X88255810Y-70028962D01*
X88255809Y-70028963D01*
X88255808Y-70028963D01*
X88064539Y-70108189D01*
X87861491Y-70148578D01*
X87654459Y-70148578D01*
X87451411Y-70108189D01*
X87260142Y-70028963D01*
X87260141Y-70028963D01*
X87260140Y-70028962D01*
X87088002Y-69913943D01*
X86941610Y-69767551D01*
X86826591Y-69595413D01*
X86817543Y-69573569D01*
X86747364Y-69404142D01*
X86706975Y-69201094D01*
X86706975Y-68994062D01*
X86747364Y-68791014D01*
X86826590Y-68599745D01*
X86832594Y-68590760D01*
X86941610Y-68427605D01*
X87088002Y-68281213D01*
X87260140Y-68166194D01*
X87287032Y-68155055D01*
X87451411Y-68086967D01*
X87654459Y-68046578D01*
X87861491Y-68046578D01*
X88064539Y-68086967D01*
G37*
G36*
X246595713Y-67244052D02*
G01*
X246745013Y-67273749D01*
X246908985Y-67341669D01*
X247056555Y-67440272D01*
X247182054Y-67565771D01*
X247280657Y-67713341D01*
X247348577Y-67877313D01*
X247364183Y-67955772D01*
X247383157Y-68051160D01*
X247383201Y-68051384D01*
X247383201Y-68228866D01*
X247348577Y-68402937D01*
X247280657Y-68566909D01*
X247182054Y-68714479D01*
X247056555Y-68839978D01*
X246908985Y-68938581D01*
X246745013Y-69006501D01*
X246595713Y-69036198D01*
X246570943Y-69041125D01*
X246393459Y-69041125D01*
X246368689Y-69036198D01*
X246219389Y-69006501D01*
X246055417Y-68938581D01*
X245907847Y-68839978D01*
X245782348Y-68714479D01*
X245683745Y-68566909D01*
X245615825Y-68402937D01*
X245581201Y-68228866D01*
X245581201Y-68051384D01*
X245581246Y-68051160D01*
X245600219Y-67955772D01*
X245615825Y-67877313D01*
X245683745Y-67713341D01*
X245782348Y-67565771D01*
X245907847Y-67440272D01*
X246055417Y-67341669D01*
X246219389Y-67273749D01*
X246368689Y-67244052D01*
X246393459Y-67239125D01*
X246570943Y-67239125D01*
X246595713Y-67244052D01*
G37*
G36*
X50777376Y-67243829D02*
G01*
X50926676Y-67273526D01*
X51090648Y-67341446D01*
X51238218Y-67440049D01*
X51363717Y-67565548D01*
X51462320Y-67713118D01*
X51530240Y-67877090D01*
X51545846Y-67955549D01*
X51564864Y-68051160D01*
X51564864Y-68228644D01*
X51559937Y-68253414D01*
X51530240Y-68402714D01*
X51462320Y-68566686D01*
X51363717Y-68714256D01*
X51238218Y-68839755D01*
X51090648Y-68938358D01*
X50926676Y-69006278D01*
X50777376Y-69035975D01*
X50752606Y-69040902D01*
X50575122Y-69040902D01*
X50550352Y-69035975D01*
X50401052Y-69006278D01*
X50237080Y-68938358D01*
X50089510Y-68839755D01*
X49964011Y-68714256D01*
X49865408Y-68566686D01*
X49797488Y-68402714D01*
X49767791Y-68253414D01*
X49762864Y-68228644D01*
X49762864Y-68051160D01*
X49781882Y-67955549D01*
X49797488Y-67877090D01*
X49865408Y-67713118D01*
X49964011Y-67565548D01*
X50089510Y-67440049D01*
X50237080Y-67341446D01*
X50401052Y-67273526D01*
X50550352Y-67243829D01*
X50575122Y-67238902D01*
X50752606Y-67238902D01*
X50777376Y-67243829D01*
G37*
G36*
X189674722Y-67209327D02*
G01*
X189824022Y-67239024D01*
X189987994Y-67306944D01*
X190135564Y-67405547D01*
X190261063Y-67531046D01*
X190359666Y-67678616D01*
X190427586Y-67842588D01*
X190462210Y-68016659D01*
X190462210Y-68194141D01*
X190427586Y-68368212D01*
X190359666Y-68532184D01*
X190261063Y-68679754D01*
X190135564Y-68805253D01*
X189987994Y-68903856D01*
X189824022Y-68971776D01*
X189674722Y-69001473D01*
X189649952Y-69006400D01*
X189472468Y-69006400D01*
X189447698Y-69001473D01*
X189298398Y-68971776D01*
X189134426Y-68903856D01*
X188986856Y-68805253D01*
X188861357Y-68679754D01*
X188762754Y-68532184D01*
X188694834Y-68368212D01*
X188660210Y-68194141D01*
X188660210Y-68016659D01*
X188694834Y-67842588D01*
X188762754Y-67678616D01*
X188861357Y-67531046D01*
X188986856Y-67405547D01*
X189134426Y-67306944D01*
X189298398Y-67239024D01*
X189447698Y-67209327D01*
X189472468Y-67204400D01*
X189649952Y-67204400D01*
X189674722Y-67209327D01*
G37*
G36*
X107698364Y-67209106D02*
G01*
X107847664Y-67238803D01*
X108011636Y-67306723D01*
X108159206Y-67405326D01*
X108284705Y-67530825D01*
X108383308Y-67678395D01*
X108451228Y-67842367D01*
X108485852Y-68016438D01*
X108485852Y-68193920D01*
X108451228Y-68367991D01*
X108383308Y-68531963D01*
X108284705Y-68679533D01*
X108159206Y-68805032D01*
X108011636Y-68903635D01*
X107847664Y-68971555D01*
X107698364Y-69001252D01*
X107673594Y-69006179D01*
X107496110Y-69006179D01*
X107471340Y-69001252D01*
X107322040Y-68971555D01*
X107158068Y-68903635D01*
X107010498Y-68805032D01*
X106884999Y-68679533D01*
X106786396Y-68531963D01*
X106718476Y-68367991D01*
X106683852Y-68193920D01*
X106683852Y-68016438D01*
X106718476Y-67842367D01*
X106786396Y-67678395D01*
X106884999Y-67530825D01*
X107010498Y-67405326D01*
X107158068Y-67306723D01*
X107322040Y-67238803D01*
X107471340Y-67209106D01*
X107496110Y-67204179D01*
X107673594Y-67204179D01*
X107698364Y-67209106D01*
G37*
G36*
X252099004Y-64697915D02*
G01*
X252211767Y-64720345D01*
X252343760Y-64775018D01*
X252530427Y-64852338D01*
X252817215Y-65043964D01*
X253061110Y-65287859D01*
X253252736Y-65574647D01*
X253330056Y-65761314D01*
X253384637Y-65893084D01*
X253384729Y-65893308D01*
X253452019Y-66231595D01*
X253452019Y-66576515D01*
X253415983Y-66757677D01*
X253384729Y-66914803D01*
X253330056Y-67046796D01*
X253252736Y-67233463D01*
X253061110Y-67520251D01*
X252817215Y-67764146D01*
X252530427Y-67955772D01*
X252383434Y-68016658D01*
X252211767Y-68087765D01*
X252157607Y-68098538D01*
X251873479Y-68155055D01*
X251528559Y-68155055D01*
X251244431Y-68098538D01*
X251190271Y-68087765D01*
X251018604Y-68016658D01*
X250871611Y-67955772D01*
X250584823Y-67764146D01*
X250340928Y-67520251D01*
X250149302Y-67233463D01*
X250071982Y-67046796D01*
X250017309Y-66914803D01*
X249986055Y-66757677D01*
X249950019Y-66576515D01*
X249950019Y-66231595D01*
X250017309Y-65893308D01*
X250017402Y-65893084D01*
X250071982Y-65761314D01*
X250149302Y-65574647D01*
X250340928Y-65287859D01*
X250584823Y-65043964D01*
X250871611Y-64852338D01*
X251058278Y-64775018D01*
X251190271Y-64720345D01*
X251303034Y-64697915D01*
X251528559Y-64653055D01*
X251873479Y-64653055D01*
X252099004Y-64697915D01*
G37*
G36*
X45768727Y-64682912D02*
G01*
X45955794Y-64720122D01*
X46044166Y-64756727D01*
X46274454Y-64852115D01*
X46561242Y-65043741D01*
X46805137Y-65287636D01*
X46996763Y-65574424D01*
X47026544Y-65646322D01*
X47128756Y-65893084D01*
X47137224Y-65935656D01*
X47196046Y-66231372D01*
X47196046Y-66576292D01*
X47193465Y-66589265D01*
X47128756Y-66914580D01*
X47096558Y-66992312D01*
X46996763Y-67233240D01*
X46805137Y-67520028D01*
X46561242Y-67763923D01*
X46274454Y-67955549D01*
X46087787Y-68032869D01*
X45955794Y-68087542D01*
X45900513Y-68098538D01*
X45617506Y-68154832D01*
X45272586Y-68154832D01*
X44989579Y-68098538D01*
X44934298Y-68087542D01*
X44802305Y-68032869D01*
X44615638Y-67955549D01*
X44328850Y-67763923D01*
X44084955Y-67520028D01*
X43893329Y-67233240D01*
X43793534Y-66992312D01*
X43761336Y-66914580D01*
X43696627Y-66589265D01*
X43694046Y-66576292D01*
X43694046Y-66231372D01*
X43752868Y-65935656D01*
X43761336Y-65893084D01*
X43863548Y-65646322D01*
X43893329Y-65574424D01*
X44084955Y-65287636D01*
X44328850Y-65043741D01*
X44615638Y-64852115D01*
X44845926Y-64756727D01*
X44934298Y-64720122D01*
X45121365Y-64682912D01*
X45272586Y-64652832D01*
X45617506Y-64652832D01*
X45768727Y-64682912D01*
G37*
G36*
X195127061Y-64653055D02*
G01*
X195290776Y-64685620D01*
X195378911Y-64722127D01*
X195609436Y-64817613D01*
X195896224Y-65009239D01*
X196140119Y-65253134D01*
X196331745Y-65539922D01*
X196375817Y-65646322D01*
X196463647Y-65858362D01*
X196463738Y-65858583D01*
X196531028Y-66196870D01*
X196531028Y-66541790D01*
X196521539Y-66589492D01*
X196463738Y-66880078D01*
X196426261Y-66970555D01*
X196331745Y-67198738D01*
X196140119Y-67485526D01*
X195896224Y-67729421D01*
X195609436Y-67921047D01*
X195422769Y-67998367D01*
X195290776Y-68053040D01*
X195265091Y-68058149D01*
X194952488Y-68120330D01*
X194607568Y-68120330D01*
X194294965Y-68058149D01*
X194269280Y-68053040D01*
X194137287Y-67998367D01*
X193950620Y-67921047D01*
X193663832Y-67729421D01*
X193419937Y-67485526D01*
X193228311Y-67198738D01*
X193133795Y-66970555D01*
X193096318Y-66880078D01*
X193038517Y-66589492D01*
X193029028Y-66541790D01*
X193029028Y-66196870D01*
X193096318Y-65858583D01*
X193096410Y-65858362D01*
X193184239Y-65646322D01*
X193228311Y-65539922D01*
X193419937Y-65253134D01*
X193663832Y-65009239D01*
X193950620Y-64817613D01*
X194181145Y-64722127D01*
X194269280Y-64685620D01*
X194432995Y-64653055D01*
X194607568Y-64618330D01*
X194952488Y-64618330D01*
X195127061Y-64653055D01*
G37*
G36*
X102714178Y-64653055D02*
G01*
X102876782Y-64685399D01*
X102964903Y-64721900D01*
X103195442Y-64817392D01*
X103482230Y-65009018D01*
X103726125Y-65252913D01*
X103917751Y-65539701D01*
X103995071Y-65726368D01*
X104049744Y-65858361D01*
X104068885Y-65954589D01*
X104117034Y-66196649D01*
X104117034Y-66541569D01*
X104100864Y-66622859D01*
X104049744Y-66879857D01*
X103998369Y-67003886D01*
X103917751Y-67198517D01*
X103726125Y-67485305D01*
X103482230Y-67729200D01*
X103195442Y-67920826D01*
X103111074Y-67955772D01*
X102876782Y-68052819D01*
X102764019Y-68075249D01*
X102538494Y-68120109D01*
X102193574Y-68120109D01*
X101968049Y-68075249D01*
X101855286Y-68052819D01*
X101620994Y-67955772D01*
X101536626Y-67920826D01*
X101249838Y-67729200D01*
X101005943Y-67485305D01*
X100814317Y-67198517D01*
X100733699Y-67003886D01*
X100682324Y-66879857D01*
X100631204Y-66622859D01*
X100615034Y-66541569D01*
X100615034Y-66196649D01*
X100663183Y-65954589D01*
X100682324Y-65858361D01*
X100736997Y-65726368D01*
X100814317Y-65539701D01*
X101005943Y-65252913D01*
X101249838Y-65009018D01*
X101536626Y-64817392D01*
X101767165Y-64721900D01*
X101855286Y-64685399D01*
X102017890Y-64653055D01*
X102193574Y-64618109D01*
X102538494Y-64618109D01*
X102714178Y-64653055D01*
G37*
G36*
X181551742Y-65856430D02*
G01*
X181743011Y-65935656D01*
X181743013Y-65935657D01*
X181915151Y-66050676D01*
X182061543Y-66197068D01*
X182166823Y-66354630D01*
X182176563Y-66369208D01*
X182255789Y-66560477D01*
X182296178Y-66763525D01*
X182296178Y-66970557D01*
X182255789Y-67173605D01*
X182200650Y-67306723D01*
X182176562Y-67364876D01*
X182061543Y-67537014D01*
X181915151Y-67683406D01*
X181743013Y-67798425D01*
X181743012Y-67798426D01*
X181743011Y-67798426D01*
X181551742Y-67877652D01*
X181348694Y-67918041D01*
X181141662Y-67918041D01*
X180938614Y-67877652D01*
X180747345Y-67798426D01*
X180747344Y-67798426D01*
X180747343Y-67798425D01*
X180575205Y-67683406D01*
X180428813Y-67537014D01*
X180313794Y-67364876D01*
X180289706Y-67306723D01*
X180234567Y-67173605D01*
X180194178Y-66970557D01*
X180194178Y-66763525D01*
X180234567Y-66560477D01*
X180313793Y-66369208D01*
X180323534Y-66354630D01*
X180428813Y-66197068D01*
X180575205Y-66050676D01*
X180747343Y-65935657D01*
X180747345Y-65935656D01*
X180938614Y-65856430D01*
X181141662Y-65816041D01*
X181348694Y-65816041D01*
X181551742Y-65856430D01*
G37*
G36*
X176144499Y-65442036D02*
G01*
X176335227Y-65521038D01*
X176335770Y-65521263D01*
X176507908Y-65636282D01*
X176654300Y-65782674D01*
X176769169Y-65954587D01*
X176769320Y-65954814D01*
X176848546Y-66146083D01*
X176888935Y-66349131D01*
X176888935Y-66556163D01*
X176848546Y-66759211D01*
X176784190Y-66914580D01*
X176769319Y-66950482D01*
X176654300Y-67122620D01*
X176507908Y-67269012D01*
X176335770Y-67384031D01*
X176335769Y-67384032D01*
X176335768Y-67384032D01*
X176144499Y-67463258D01*
X175941451Y-67503647D01*
X175734419Y-67503647D01*
X175531371Y-67463258D01*
X175340102Y-67384032D01*
X175340101Y-67384032D01*
X175340100Y-67384031D01*
X175167962Y-67269012D01*
X175021570Y-67122620D01*
X174906551Y-66950482D01*
X174891680Y-66914580D01*
X174827324Y-66759211D01*
X174786935Y-66556163D01*
X174786935Y-66349131D01*
X174827324Y-66146083D01*
X174906550Y-65954814D01*
X174906702Y-65954587D01*
X175021570Y-65782674D01*
X175167962Y-65636282D01*
X175340100Y-65521263D01*
X175340643Y-65521038D01*
X175531371Y-65442036D01*
X175734419Y-65401647D01*
X175941451Y-65401647D01*
X176144499Y-65442036D01*
G37*
G36*
X121614697Y-65441811D02*
G01*
X121754299Y-65499636D01*
X121805968Y-65521038D01*
X121978106Y-65636057D01*
X122124498Y-65782449D01*
X122226868Y-65935656D01*
X122239518Y-65954589D01*
X122318744Y-66145858D01*
X122359133Y-66348906D01*
X122359133Y-66555938D01*
X122318744Y-66758986D01*
X122239518Y-66950255D01*
X122239517Y-66950257D01*
X122124498Y-67122395D01*
X121978106Y-67268787D01*
X121805968Y-67383806D01*
X121805967Y-67383807D01*
X121805966Y-67383807D01*
X121614697Y-67463033D01*
X121411649Y-67503422D01*
X121204617Y-67503422D01*
X121001569Y-67463033D01*
X120810300Y-67383807D01*
X120810299Y-67383807D01*
X120810298Y-67383806D01*
X120638160Y-67268787D01*
X120491768Y-67122395D01*
X120376749Y-66950257D01*
X120376748Y-66950255D01*
X120297522Y-66758986D01*
X120257133Y-66555938D01*
X120257133Y-66348906D01*
X120297522Y-66145858D01*
X120376748Y-65954589D01*
X120389399Y-65935656D01*
X120491768Y-65782449D01*
X120638160Y-65636057D01*
X120810298Y-65521038D01*
X120861967Y-65499636D01*
X121001569Y-65441811D01*
X121204617Y-65401422D01*
X121411649Y-65401422D01*
X121614697Y-65441811D01*
G37*
G36*
X238157076Y-64942275D02*
G01*
X238348345Y-65021501D01*
X238348347Y-65021502D01*
X238520485Y-65136521D01*
X238666877Y-65282913D01*
X238773200Y-65442036D01*
X238781897Y-65455053D01*
X238861123Y-65646322D01*
X238901512Y-65849370D01*
X238901512Y-66056402D01*
X238861123Y-66259450D01*
X238815660Y-66369208D01*
X238781896Y-66450721D01*
X238666877Y-66622859D01*
X238520485Y-66769251D01*
X238348347Y-66884270D01*
X238348346Y-66884271D01*
X238348345Y-66884271D01*
X238157076Y-66963497D01*
X237954028Y-67003886D01*
X237746996Y-67003886D01*
X237543948Y-66963497D01*
X237352679Y-66884271D01*
X237352678Y-66884271D01*
X237352677Y-66884270D01*
X237180539Y-66769251D01*
X237034147Y-66622859D01*
X236919128Y-66450721D01*
X236885364Y-66369208D01*
X236839901Y-66259450D01*
X236799512Y-66056402D01*
X236799512Y-65849370D01*
X236839901Y-65646322D01*
X236919127Y-65455053D01*
X236927825Y-65442036D01*
X237034147Y-65282913D01*
X237180539Y-65136521D01*
X237352677Y-65021502D01*
X237352679Y-65021501D01*
X237543948Y-64942275D01*
X237746996Y-64901886D01*
X237954028Y-64901886D01*
X238157076Y-64942275D01*
G37*
G36*
X219183414Y-64930701D02*
G01*
X219373022Y-65009239D01*
X219374685Y-65009928D01*
X219546823Y-65124947D01*
X219693215Y-65271339D01*
X219807272Y-65442037D01*
X219808235Y-65443479D01*
X219887461Y-65634748D01*
X219927850Y-65837796D01*
X219927850Y-66044828D01*
X219887461Y-66247876D01*
X219808235Y-66439145D01*
X219808234Y-66439147D01*
X219693215Y-66611285D01*
X219546823Y-66757677D01*
X219374685Y-66872696D01*
X219374684Y-66872697D01*
X219374683Y-66872697D01*
X219183414Y-66951923D01*
X218980366Y-66992312D01*
X218773334Y-66992312D01*
X218570286Y-66951923D01*
X218379017Y-66872697D01*
X218379016Y-66872697D01*
X218379015Y-66872696D01*
X218206877Y-66757677D01*
X218060485Y-66611285D01*
X217945466Y-66439147D01*
X217945465Y-66439145D01*
X217866239Y-66247876D01*
X217825850Y-66044828D01*
X217825850Y-65837796D01*
X217866239Y-65634748D01*
X217945465Y-65443479D01*
X217946429Y-65442037D01*
X218060485Y-65271339D01*
X218206877Y-65124947D01*
X218379015Y-65009928D01*
X218380678Y-65009239D01*
X218570286Y-64930701D01*
X218773334Y-64890312D01*
X218980366Y-64890312D01*
X219183414Y-64930701D01*
G37*
G36*
X232749833Y-64527881D02*
G01*
X232913162Y-64595534D01*
X232941104Y-64607108D01*
X233113242Y-64722127D01*
X233259634Y-64868519D01*
X233374503Y-65040432D01*
X233374654Y-65040659D01*
X233453880Y-65231928D01*
X233494269Y-65434976D01*
X233494269Y-65642008D01*
X233453880Y-65845056D01*
X233408417Y-65954814D01*
X233374653Y-66036327D01*
X233259634Y-66208465D01*
X233113242Y-66354857D01*
X232941104Y-66469876D01*
X232941103Y-66469877D01*
X232941102Y-66469877D01*
X232749833Y-66549103D01*
X232546785Y-66589492D01*
X232339753Y-66589492D01*
X232136705Y-66549103D01*
X231945436Y-66469877D01*
X231945435Y-66469877D01*
X231945434Y-66469876D01*
X231773296Y-66354857D01*
X231626904Y-66208465D01*
X231511885Y-66036327D01*
X231478121Y-65954814D01*
X231432658Y-65845056D01*
X231392269Y-65642008D01*
X231392269Y-65434976D01*
X231432658Y-65231928D01*
X231511884Y-65040659D01*
X231512036Y-65040432D01*
X231626904Y-64868519D01*
X231773296Y-64722127D01*
X231945434Y-64607108D01*
X231973376Y-64595534D01*
X232136705Y-64527881D01*
X232339753Y-64487492D01*
X232546785Y-64487492D01*
X232749833Y-64527881D01*
G37*
G36*
X65009358Y-64527654D02*
G01*
X65173235Y-64595534D01*
X65200629Y-64606881D01*
X65372767Y-64721900D01*
X65519159Y-64868292D01*
X65626598Y-65029085D01*
X65634179Y-65040432D01*
X65713405Y-65231701D01*
X65753794Y-65434749D01*
X65753794Y-65641781D01*
X65713405Y-65844829D01*
X65638972Y-66024527D01*
X65634178Y-66036100D01*
X65519159Y-66208238D01*
X65372767Y-66354630D01*
X65200629Y-66469649D01*
X65200628Y-66469650D01*
X65200627Y-66469650D01*
X65009358Y-66548876D01*
X64806310Y-66589265D01*
X64599278Y-66589265D01*
X64396230Y-66548876D01*
X64204961Y-66469650D01*
X64204960Y-66469650D01*
X64204959Y-66469649D01*
X64032821Y-66354630D01*
X63886429Y-66208238D01*
X63771410Y-66036100D01*
X63766616Y-66024527D01*
X63692183Y-65844829D01*
X63651794Y-65641781D01*
X63651794Y-65434749D01*
X63692183Y-65231701D01*
X63771409Y-65040432D01*
X63778991Y-65029085D01*
X63886429Y-64868292D01*
X64032821Y-64721900D01*
X64204959Y-64606881D01*
X64232353Y-64595534D01*
X64396230Y-64527654D01*
X64599278Y-64487265D01*
X64806310Y-64487265D01*
X65009358Y-64527654D01*
G37*
G36*
X213776171Y-64516307D02*
G01*
X213967440Y-64595533D01*
X213967442Y-64595534D01*
X214139580Y-64710553D01*
X214285972Y-64856945D01*
X214400843Y-65028861D01*
X214400992Y-65029085D01*
X214480218Y-65220354D01*
X214520607Y-65423402D01*
X214520607Y-65630434D01*
X214480218Y-65833482D01*
X214401085Y-66024527D01*
X214400991Y-66024753D01*
X214285972Y-66196891D01*
X214139580Y-66343283D01*
X213967442Y-66458302D01*
X213967441Y-66458303D01*
X213967440Y-66458303D01*
X213776171Y-66537529D01*
X213573123Y-66577918D01*
X213366091Y-66577918D01*
X213163043Y-66537529D01*
X212971774Y-66458303D01*
X212971773Y-66458303D01*
X212971772Y-66458302D01*
X212799634Y-66343283D01*
X212653242Y-66196891D01*
X212538223Y-66024753D01*
X212538129Y-66024527D01*
X212458996Y-65833482D01*
X212418607Y-65630434D01*
X212418607Y-65423402D01*
X212458996Y-65220354D01*
X212538222Y-65029085D01*
X212538372Y-65028861D01*
X212653242Y-64856945D01*
X212799634Y-64710553D01*
X212971772Y-64595534D01*
X212971774Y-64595533D01*
X213163043Y-64516307D01*
X213366091Y-64475918D01*
X213573123Y-64475918D01*
X213776171Y-64516307D01*
G37*
G36*
X83983022Y-64516083D02*
G01*
X84174291Y-64595309D01*
X84174293Y-64595310D01*
X84346431Y-64710329D01*
X84492823Y-64856721D01*
X84602926Y-65021501D01*
X84607843Y-65028861D01*
X84687069Y-65220130D01*
X84727458Y-65423178D01*
X84727458Y-65630210D01*
X84687069Y-65833258D01*
X84636719Y-65954814D01*
X84607842Y-66024529D01*
X84492823Y-66196667D01*
X84346431Y-66343059D01*
X84174293Y-66458078D01*
X84174292Y-66458079D01*
X84174291Y-66458079D01*
X83983022Y-66537305D01*
X83779974Y-66577694D01*
X83572942Y-66577694D01*
X83369894Y-66537305D01*
X83178625Y-66458079D01*
X83178624Y-66458079D01*
X83178623Y-66458078D01*
X83006485Y-66343059D01*
X82860093Y-66196667D01*
X82745074Y-66024529D01*
X82716197Y-65954814D01*
X82665847Y-65833258D01*
X82625458Y-65630210D01*
X82625458Y-65423178D01*
X82665847Y-65220130D01*
X82745073Y-65028861D01*
X82749991Y-65021501D01*
X82860093Y-64856721D01*
X83006485Y-64710329D01*
X83178623Y-64595310D01*
X83178625Y-64595309D01*
X83369894Y-64516083D01*
X83572942Y-64475694D01*
X83779974Y-64475694D01*
X83983022Y-64516083D01*
G37*
G36*
X257033349Y-63771912D02*
G01*
X257182649Y-63801609D01*
X257346621Y-63869529D01*
X257494191Y-63968132D01*
X257619690Y-64093631D01*
X257718293Y-64241201D01*
X257786213Y-64405173D01*
X257810621Y-64527882D01*
X257820793Y-64579020D01*
X257820837Y-64579244D01*
X257820837Y-64756726D01*
X257786213Y-64930797D01*
X257718293Y-65094769D01*
X257619690Y-65242339D01*
X257494191Y-65367838D01*
X257346621Y-65466441D01*
X257182649Y-65534361D01*
X257033349Y-65564058D01*
X257008579Y-65568985D01*
X256831095Y-65568985D01*
X256806325Y-65564058D01*
X256657025Y-65534361D01*
X256493053Y-65466441D01*
X256345483Y-65367838D01*
X256219984Y-65242339D01*
X256121381Y-65094769D01*
X256053461Y-64930797D01*
X256018837Y-64756726D01*
X256018837Y-64579244D01*
X256018882Y-64579020D01*
X256029053Y-64527882D01*
X256053461Y-64405173D01*
X256121381Y-64241201D01*
X256219984Y-64093631D01*
X256345483Y-63968132D01*
X256493053Y-63869529D01*
X256657025Y-63801609D01*
X256806325Y-63771912D01*
X256831095Y-63766985D01*
X257008579Y-63766985D01*
X257033349Y-63771912D01*
G37*
G36*
X40339740Y-63771689D02*
G01*
X40489040Y-63801386D01*
X40653012Y-63869306D01*
X40800582Y-63967909D01*
X40926081Y-64093408D01*
X41024684Y-64240978D01*
X41092604Y-64404950D01*
X41114754Y-64516308D01*
X41127228Y-64579020D01*
X41127228Y-64756504D01*
X41122301Y-64781274D01*
X41092604Y-64930574D01*
X41024684Y-65094546D01*
X40926081Y-65242116D01*
X40800582Y-65367615D01*
X40653012Y-65466218D01*
X40489040Y-65534138D01*
X40339740Y-65563835D01*
X40314970Y-65568762D01*
X40137486Y-65568762D01*
X40112716Y-65563835D01*
X39963416Y-65534138D01*
X39799444Y-65466218D01*
X39651874Y-65367615D01*
X39526375Y-65242116D01*
X39427772Y-65094546D01*
X39359852Y-64930574D01*
X39330155Y-64781274D01*
X39325228Y-64756504D01*
X39325228Y-64579020D01*
X39337702Y-64516308D01*
X39359852Y-64404950D01*
X39427772Y-64240978D01*
X39526375Y-64093408D01*
X39651874Y-63967909D01*
X39799444Y-63869306D01*
X39963416Y-63801386D01*
X40112716Y-63771689D01*
X40137486Y-63766762D01*
X40314970Y-63766762D01*
X40339740Y-63771689D01*
G37*
G36*
X200112358Y-63737187D02*
G01*
X200261658Y-63766884D01*
X200425630Y-63834804D01*
X200573200Y-63933407D01*
X200698699Y-64058906D01*
X200797302Y-64206476D01*
X200865222Y-64370448D01*
X200899846Y-64544519D01*
X200899846Y-64722001D01*
X200865222Y-64896072D01*
X200797302Y-65060044D01*
X200698699Y-65207614D01*
X200573200Y-65333113D01*
X200425630Y-65431716D01*
X200261658Y-65499636D01*
X200112358Y-65529333D01*
X200087588Y-65534260D01*
X199910104Y-65534260D01*
X199885334Y-65529333D01*
X199736034Y-65499636D01*
X199572062Y-65431716D01*
X199424492Y-65333113D01*
X199298993Y-65207614D01*
X199200390Y-65060044D01*
X199132470Y-64896072D01*
X199097846Y-64722001D01*
X199097846Y-64544519D01*
X199132470Y-64370448D01*
X199200390Y-64206476D01*
X199298993Y-64058906D01*
X199424492Y-63933407D01*
X199572062Y-63834804D01*
X199736034Y-63766884D01*
X199885334Y-63737187D01*
X199910104Y-63732260D01*
X200087588Y-63732260D01*
X200112358Y-63737187D01*
G37*
G36*
X97260728Y-63736966D02*
G01*
X97410028Y-63766663D01*
X97574000Y-63834583D01*
X97721570Y-63933186D01*
X97847069Y-64058685D01*
X97945672Y-64206255D01*
X98013592Y-64370227D01*
X98048216Y-64544298D01*
X98048216Y-64721780D01*
X98013592Y-64895851D01*
X97945672Y-65059823D01*
X97847069Y-65207393D01*
X97721570Y-65332892D01*
X97574000Y-65431495D01*
X97410028Y-65499415D01*
X97260728Y-65529112D01*
X97235958Y-65534039D01*
X97058474Y-65534039D01*
X97033704Y-65529112D01*
X96884404Y-65499415D01*
X96720432Y-65431495D01*
X96572862Y-65332892D01*
X96447363Y-65207393D01*
X96348760Y-65059823D01*
X96280840Y-64895851D01*
X96246216Y-64721780D01*
X96246216Y-64544298D01*
X96280840Y-64370227D01*
X96348760Y-64206255D01*
X96447363Y-64058685D01*
X96572862Y-63933186D01*
X96720432Y-63834583D01*
X96884404Y-63766663D01*
X97033704Y-63736966D01*
X97058474Y-63732039D01*
X97235958Y-63732039D01*
X97260728Y-63736966D01*
G37*
G36*
X51695456Y-63365737D02*
G01*
X51802898Y-63410241D01*
X51886727Y-63444964D01*
X52058865Y-63559983D01*
X52205257Y-63706375D01*
X52291071Y-63834804D01*
X52320277Y-63878515D01*
X52399503Y-64069784D01*
X52439892Y-64272832D01*
X52439892Y-64479864D01*
X52399503Y-64682912D01*
X52329324Y-64852339D01*
X52320276Y-64874183D01*
X52205257Y-65046321D01*
X52058865Y-65192713D01*
X51886727Y-65307732D01*
X51886726Y-65307733D01*
X51886725Y-65307733D01*
X51695456Y-65386959D01*
X51492408Y-65427348D01*
X51285376Y-65427348D01*
X51082328Y-65386959D01*
X50891059Y-65307733D01*
X50891058Y-65307733D01*
X50891057Y-65307732D01*
X50718919Y-65192713D01*
X50572527Y-65046321D01*
X50457508Y-64874183D01*
X50448460Y-64852339D01*
X50378281Y-64682912D01*
X50337892Y-64479864D01*
X50337892Y-64272832D01*
X50378281Y-64069784D01*
X50457507Y-63878515D01*
X50486714Y-63834804D01*
X50572527Y-63706375D01*
X50718919Y-63559983D01*
X50891057Y-63444964D01*
X50974886Y-63410241D01*
X51082328Y-63365737D01*
X51285376Y-63325348D01*
X51492408Y-63325348D01*
X51695456Y-63365737D01*
G37*
G36*
X108616444Y-63331014D02*
G01*
X108807713Y-63410240D01*
X108807715Y-63410241D01*
X108979853Y-63525260D01*
X109126245Y-63671652D01*
X109235260Y-63834804D01*
X109241265Y-63843792D01*
X109320491Y-64035061D01*
X109360880Y-64238109D01*
X109360880Y-64445141D01*
X109320491Y-64648189D01*
X109250313Y-64817613D01*
X109241264Y-64839460D01*
X109126245Y-65011598D01*
X108979853Y-65157990D01*
X108807715Y-65273009D01*
X108807714Y-65273010D01*
X108807713Y-65273010D01*
X108616444Y-65352236D01*
X108413396Y-65392625D01*
X108206364Y-65392625D01*
X108003316Y-65352236D01*
X107812047Y-65273010D01*
X107812046Y-65273010D01*
X107812045Y-65273009D01*
X107639907Y-65157990D01*
X107493515Y-65011598D01*
X107378496Y-64839460D01*
X107369447Y-64817613D01*
X107299269Y-64648189D01*
X107258880Y-64445141D01*
X107258880Y-64238109D01*
X107299269Y-64035061D01*
X107378495Y-63843792D01*
X107384501Y-63834804D01*
X107493515Y-63671652D01*
X107639907Y-63525260D01*
X107812045Y-63410241D01*
X107812047Y-63410240D01*
X108003316Y-63331014D01*
X108206364Y-63290625D01*
X108413396Y-63290625D01*
X108616444Y-63331014D01*
G37*
G36*
X263675480Y-61562367D02*
G01*
X263824780Y-61592064D01*
X263988752Y-61659984D01*
X264136322Y-61758587D01*
X264261821Y-61884086D01*
X264360424Y-62031656D01*
X264428344Y-62195628D01*
X264443950Y-62274087D01*
X264462924Y-62369475D01*
X264462968Y-62369699D01*
X264462968Y-62547181D01*
X264428344Y-62721252D01*
X264360424Y-62885224D01*
X264261821Y-63032794D01*
X264136322Y-63158293D01*
X263988752Y-63256896D01*
X263824780Y-63324816D01*
X263675480Y-63354513D01*
X263650710Y-63359440D01*
X263473226Y-63359440D01*
X263448456Y-63354513D01*
X263299156Y-63324816D01*
X263135184Y-63256896D01*
X262987614Y-63158293D01*
X262862115Y-63032794D01*
X262763512Y-62885224D01*
X262695592Y-62721252D01*
X262660968Y-62547181D01*
X262660968Y-62369699D01*
X262661013Y-62369475D01*
X262679986Y-62274087D01*
X262695592Y-62195628D01*
X262763512Y-62031656D01*
X262862115Y-61884086D01*
X262987614Y-61758587D01*
X263135184Y-61659984D01*
X263299156Y-61592064D01*
X263448456Y-61562367D01*
X263473226Y-61557440D01*
X263650710Y-61557440D01*
X263675480Y-61562367D01*
G37*
G36*
X33697613Y-61562144D02*
G01*
X33846913Y-61591841D01*
X34010885Y-61659761D01*
X34158455Y-61758364D01*
X34283954Y-61883863D01*
X34382557Y-62031433D01*
X34450477Y-62195405D01*
X34466083Y-62273864D01*
X34485101Y-62369475D01*
X34485101Y-62546959D01*
X34480174Y-62571729D01*
X34450477Y-62721029D01*
X34382557Y-62885001D01*
X34283954Y-63032571D01*
X34158455Y-63158070D01*
X34010885Y-63256673D01*
X33846913Y-63324593D01*
X33697613Y-63354290D01*
X33672843Y-63359217D01*
X33495359Y-63359217D01*
X33470589Y-63354290D01*
X33321289Y-63324593D01*
X33157317Y-63256673D01*
X33009747Y-63158070D01*
X32884248Y-63032571D01*
X32785645Y-62885001D01*
X32717725Y-62721029D01*
X32688028Y-62571729D01*
X32683101Y-62546959D01*
X32683101Y-62369475D01*
X32702119Y-62273864D01*
X32717725Y-62195405D01*
X32785645Y-62031433D01*
X32884248Y-61883863D01*
X33009747Y-61758364D01*
X33157317Y-61659761D01*
X33321289Y-61591841D01*
X33470589Y-61562144D01*
X33495359Y-61557217D01*
X33672843Y-61557217D01*
X33697613Y-61562144D01*
G37*
G36*
X269178771Y-59016230D02*
G01*
X269291534Y-59038660D01*
X269423527Y-59093333D01*
X269610194Y-59170653D01*
X269896982Y-59362279D01*
X270140877Y-59606174D01*
X270332503Y-59892962D01*
X270357941Y-59954376D01*
X270464496Y-60211622D01*
X270476730Y-60273127D01*
X270531786Y-60549910D01*
X270531786Y-60894830D01*
X270528971Y-60908980D01*
X270464496Y-61233118D01*
X270427019Y-61323595D01*
X270332503Y-61551778D01*
X270140877Y-61838566D01*
X269896982Y-62082461D01*
X269610194Y-62274087D01*
X269423527Y-62351407D01*
X269291534Y-62406080D01*
X269178771Y-62428510D01*
X268953246Y-62473370D01*
X268608326Y-62473370D01*
X268382801Y-62428510D01*
X268270038Y-62406080D01*
X268138045Y-62351407D01*
X267951378Y-62274087D01*
X267664590Y-62082461D01*
X267420695Y-61838566D01*
X267229069Y-61551778D01*
X267134553Y-61323595D01*
X267097076Y-61233118D01*
X267032601Y-60908980D01*
X267029786Y-60894830D01*
X267029786Y-60549910D01*
X267084842Y-60273127D01*
X267097076Y-60211622D01*
X267203631Y-59954376D01*
X267229069Y-59892962D01*
X267420695Y-59606174D01*
X267664590Y-59362279D01*
X267951378Y-59170653D01*
X268138045Y-59093333D01*
X268270038Y-59038660D01*
X268382801Y-59016230D01*
X268608326Y-58971370D01*
X268953246Y-58971370D01*
X269178771Y-59016230D01*
G37*
G36*
X28688964Y-59001227D02*
G01*
X28876031Y-59038437D01*
X28964403Y-59075042D01*
X29194691Y-59170430D01*
X29481479Y-59362056D01*
X29725374Y-59605951D01*
X29917000Y-59892739D01*
X29994320Y-60079406D01*
X30048993Y-60211399D01*
X30068134Y-60307629D01*
X30116283Y-60549687D01*
X30116283Y-60894607D01*
X30079942Y-61077305D01*
X30048993Y-61232895D01*
X30019739Y-61303520D01*
X29917000Y-61551555D01*
X29725374Y-61838343D01*
X29481479Y-62082238D01*
X29194691Y-62273864D01*
X29008024Y-62351184D01*
X28876031Y-62405857D01*
X28763268Y-62428287D01*
X28537743Y-62473147D01*
X28192823Y-62473147D01*
X27967298Y-62428287D01*
X27854535Y-62405857D01*
X27722542Y-62351184D01*
X27535875Y-62273864D01*
X27249087Y-62082238D01*
X27005192Y-61838343D01*
X26813566Y-61551555D01*
X26710827Y-61303520D01*
X26681573Y-61232895D01*
X26650624Y-61077305D01*
X26614283Y-60894607D01*
X26614283Y-60549687D01*
X26662432Y-60307629D01*
X26681573Y-60211399D01*
X26736246Y-60079406D01*
X26813566Y-59892739D01*
X27005192Y-59605951D01*
X27249087Y-59362056D01*
X27535875Y-59170430D01*
X27766163Y-59075042D01*
X27854535Y-59038437D01*
X28041602Y-59001227D01*
X28192823Y-58971147D01*
X28537743Y-58971147D01*
X28688964Y-59001227D01*
G37*
G36*
X255552497Y-60209470D02*
G01*
X255743766Y-60288696D01*
X255743768Y-60288697D01*
X255915906Y-60403716D01*
X256062298Y-60550108D01*
X256163905Y-60702173D01*
X256177318Y-60722248D01*
X256256544Y-60913517D01*
X256296933Y-61116565D01*
X256296933Y-61323597D01*
X256256544Y-61526645D01*
X256183766Y-61702346D01*
X256177317Y-61717916D01*
X256062298Y-61890054D01*
X255915906Y-62036446D01*
X255743768Y-62151465D01*
X255743767Y-62151466D01*
X255743766Y-62151466D01*
X255552497Y-62230692D01*
X255349449Y-62271081D01*
X255142417Y-62271081D01*
X254939369Y-62230692D01*
X254748100Y-62151466D01*
X254748099Y-62151466D01*
X254748098Y-62151465D01*
X254575960Y-62036446D01*
X254429568Y-61890054D01*
X254314549Y-61717916D01*
X254308100Y-61702346D01*
X254235322Y-61526645D01*
X254194933Y-61323597D01*
X254194933Y-61116565D01*
X254235322Y-60913517D01*
X254314548Y-60722248D01*
X254327962Y-60702173D01*
X254429568Y-60550108D01*
X254575960Y-60403716D01*
X254748098Y-60288697D01*
X254748100Y-60288696D01*
X254939369Y-60209470D01*
X255142417Y-60169081D01*
X255349449Y-60169081D01*
X255552497Y-60209470D01*
G37*
G36*
X198631506Y-60174745D02*
G01*
X198822775Y-60253971D01*
X198822777Y-60253972D01*
X198994915Y-60368991D01*
X199141307Y-60515383D01*
X199242914Y-60667448D01*
X199256327Y-60687523D01*
X199335553Y-60878792D01*
X199375942Y-61081840D01*
X199375942Y-61288872D01*
X199335553Y-61491920D01*
X199266031Y-61659761D01*
X199256326Y-61683191D01*
X199141307Y-61855329D01*
X198994915Y-62001721D01*
X198822777Y-62116740D01*
X198822776Y-62116741D01*
X198822775Y-62116741D01*
X198631506Y-62195967D01*
X198428458Y-62236356D01*
X198221426Y-62236356D01*
X198018378Y-62195967D01*
X197827109Y-62116741D01*
X197827108Y-62116741D01*
X197827107Y-62116740D01*
X197654969Y-62001721D01*
X197508577Y-61855329D01*
X197393558Y-61683191D01*
X197383853Y-61659761D01*
X197314331Y-61491920D01*
X197273942Y-61288872D01*
X197273942Y-61081840D01*
X197314331Y-60878792D01*
X197393557Y-60687523D01*
X197406971Y-60667448D01*
X197508577Y-60515383D01*
X197654969Y-60368991D01*
X197827107Y-60253972D01*
X197827109Y-60253971D01*
X198018378Y-60174745D01*
X198221426Y-60134356D01*
X198428458Y-60134356D01*
X198631506Y-60174745D01*
G37*
G36*
X250145254Y-59795076D02*
G01*
X250335987Y-59874080D01*
X250336525Y-59874303D01*
X250508663Y-59989322D01*
X250655055Y-60135714D01*
X250734073Y-60253972D01*
X250770075Y-60307854D01*
X250849301Y-60499123D01*
X250889690Y-60702171D01*
X250889690Y-60909203D01*
X250849301Y-61112251D01*
X250770075Y-61303520D01*
X250770074Y-61303522D01*
X250655055Y-61475660D01*
X250508663Y-61622052D01*
X250336525Y-61737071D01*
X250336524Y-61737072D01*
X250336523Y-61737072D01*
X250145254Y-61816298D01*
X249942206Y-61856687D01*
X249735174Y-61856687D01*
X249532126Y-61816298D01*
X249340857Y-61737072D01*
X249340856Y-61737072D01*
X249340855Y-61737071D01*
X249168717Y-61622052D01*
X249022325Y-61475660D01*
X248907306Y-61303522D01*
X248907305Y-61303520D01*
X248828079Y-61112251D01*
X248787690Y-60909203D01*
X248787690Y-60702171D01*
X248828079Y-60499123D01*
X248907305Y-60307854D01*
X248943308Y-60253972D01*
X249022325Y-60135714D01*
X249168717Y-59989322D01*
X249340855Y-59874303D01*
X249341393Y-59874080D01*
X249532126Y-59795076D01*
X249735174Y-59754687D01*
X249942206Y-59754687D01*
X250145254Y-59795076D01*
G37*
G36*
X47613939Y-59794853D02*
G01*
X47753536Y-59852676D01*
X47805210Y-59874080D01*
X47977348Y-59989099D01*
X48123740Y-60135491D01*
X48202907Y-60253972D01*
X48238760Y-60307631D01*
X48317986Y-60498900D01*
X48358375Y-60701948D01*
X48358375Y-60908980D01*
X48317986Y-61112028D01*
X48253142Y-61268576D01*
X48238759Y-61303299D01*
X48123740Y-61475437D01*
X47977348Y-61621829D01*
X47805210Y-61736848D01*
X47805209Y-61736849D01*
X47805208Y-61736849D01*
X47613939Y-61816075D01*
X47410891Y-61856464D01*
X47203859Y-61856464D01*
X47000811Y-61816075D01*
X46809542Y-61736849D01*
X46809541Y-61736849D01*
X46809540Y-61736848D01*
X46637402Y-61621829D01*
X46491010Y-61475437D01*
X46375991Y-61303299D01*
X46361608Y-61268576D01*
X46296764Y-61112028D01*
X46256375Y-60908980D01*
X46256375Y-60701948D01*
X46296764Y-60498900D01*
X46375990Y-60307631D01*
X46411844Y-60253972D01*
X46491010Y-60135491D01*
X46637402Y-59989099D01*
X46809540Y-59874080D01*
X46861214Y-59852676D01*
X47000811Y-59794853D01*
X47203859Y-59754464D01*
X47410891Y-59754464D01*
X47613939Y-59794853D01*
G37*
G36*
X193224263Y-59760351D02*
G01*
X193415532Y-59839577D01*
X193415534Y-59839578D01*
X193587672Y-59954597D01*
X193734064Y-60100989D01*
X193848937Y-60272908D01*
X193849084Y-60273129D01*
X193928310Y-60464398D01*
X193968699Y-60667446D01*
X193968699Y-60874478D01*
X193928310Y-61077526D01*
X193849175Y-61268576D01*
X193849083Y-61268797D01*
X193734064Y-61440935D01*
X193587672Y-61587327D01*
X193415534Y-61702346D01*
X193415533Y-61702347D01*
X193415532Y-61702347D01*
X193224263Y-61781573D01*
X193021215Y-61821962D01*
X192814183Y-61821962D01*
X192611135Y-61781573D01*
X192419866Y-61702347D01*
X192419865Y-61702347D01*
X192419864Y-61702346D01*
X192247726Y-61587327D01*
X192101334Y-61440935D01*
X191986315Y-61268797D01*
X191986223Y-61268576D01*
X191907088Y-61077526D01*
X191866699Y-60874478D01*
X191866699Y-60667446D01*
X191907088Y-60464398D01*
X191986314Y-60273129D01*
X191986462Y-60272908D01*
X192101334Y-60100989D01*
X192247726Y-59954597D01*
X192419864Y-59839578D01*
X192419866Y-59839577D01*
X192611135Y-59760351D01*
X192814183Y-59719962D01*
X193021215Y-59719962D01*
X193224263Y-59760351D01*
G37*
G36*
X104534927Y-59760130D02*
G01*
X104726196Y-59839356D01*
X104726198Y-59839357D01*
X104898336Y-59954376D01*
X105044728Y-60100768D01*
X105147096Y-60253972D01*
X105159748Y-60272908D01*
X105238974Y-60464177D01*
X105279363Y-60667225D01*
X105279363Y-60874257D01*
X105238974Y-61077305D01*
X105174434Y-61233118D01*
X105159747Y-61268576D01*
X105044728Y-61440714D01*
X104898336Y-61587106D01*
X104726198Y-61702125D01*
X104726197Y-61702126D01*
X104726196Y-61702126D01*
X104534927Y-61781352D01*
X104331879Y-61821741D01*
X104124847Y-61821741D01*
X103921799Y-61781352D01*
X103730530Y-61702126D01*
X103730529Y-61702126D01*
X103730528Y-61702125D01*
X103558390Y-61587106D01*
X103411998Y-61440714D01*
X103296979Y-61268576D01*
X103282292Y-61233118D01*
X103217752Y-61077305D01*
X103177363Y-60874257D01*
X103177363Y-60667225D01*
X103217752Y-60464177D01*
X103296978Y-60272908D01*
X103309631Y-60253972D01*
X103411998Y-60100768D01*
X103558390Y-59954376D01*
X103730528Y-59839357D01*
X103730530Y-59839356D01*
X103921799Y-59760130D01*
X104124847Y-59719741D01*
X104331879Y-59719741D01*
X104534927Y-59760130D01*
G37*
G36*
X274113116Y-58090227D02*
G01*
X274262416Y-58119924D01*
X274426388Y-58187844D01*
X274573958Y-58286447D01*
X274699457Y-58411946D01*
X274798060Y-58559516D01*
X274865980Y-58723488D01*
X274895677Y-58872788D01*
X274900560Y-58897335D01*
X274900604Y-58897559D01*
X274900604Y-59075041D01*
X274865980Y-59249112D01*
X274798060Y-59413084D01*
X274699457Y-59560654D01*
X274573958Y-59686153D01*
X274426388Y-59784756D01*
X274262416Y-59852676D01*
X274113116Y-59882373D01*
X274088346Y-59887300D01*
X273910862Y-59887300D01*
X273886092Y-59882373D01*
X273736792Y-59852676D01*
X273572820Y-59784756D01*
X273425250Y-59686153D01*
X273299751Y-59560654D01*
X273201148Y-59413084D01*
X273133228Y-59249112D01*
X273098604Y-59075041D01*
X273098604Y-58897559D01*
X273098649Y-58897335D01*
X273103531Y-58872788D01*
X273133228Y-58723488D01*
X273201148Y-58559516D01*
X273299751Y-58411946D01*
X273425250Y-58286447D01*
X273572820Y-58187844D01*
X273736792Y-58119924D01*
X273886092Y-58090227D01*
X273910862Y-58085300D01*
X274088346Y-58085300D01*
X274113116Y-58090227D01*
G37*
G36*
X23259977Y-58090004D02*
G01*
X23409277Y-58119701D01*
X23573249Y-58187621D01*
X23720819Y-58286224D01*
X23846318Y-58411723D01*
X23944921Y-58559293D01*
X24012841Y-58723265D01*
X24042538Y-58872565D01*
X24047465Y-58897335D01*
X24047465Y-59074819D01*
X24042538Y-59099589D01*
X24012841Y-59248889D01*
X23944921Y-59412861D01*
X23846318Y-59560431D01*
X23720819Y-59685930D01*
X23573249Y-59784533D01*
X23409277Y-59852453D01*
X23259977Y-59882150D01*
X23235207Y-59887077D01*
X23057723Y-59887077D01*
X23032953Y-59882150D01*
X22883653Y-59852453D01*
X22719681Y-59784533D01*
X22572111Y-59685930D01*
X22446612Y-59560431D01*
X22348009Y-59412861D01*
X22280089Y-59248889D01*
X22250392Y-59099589D01*
X22245465Y-59074819D01*
X22245465Y-58897335D01*
X22250392Y-58872565D01*
X22280089Y-58723265D01*
X22348009Y-58559293D01*
X22446612Y-58411723D01*
X22572111Y-58286224D01*
X22719681Y-58187621D01*
X22883653Y-58119701D01*
X23032953Y-58090004D01*
X23057723Y-58085077D01*
X23235207Y-58085077D01*
X23259977Y-58090004D01*
G37*
G36*
X34615693Y-57684052D02*
G01*
X34806962Y-57763278D01*
X34806964Y-57763279D01*
X34979102Y-57878298D01*
X35125494Y-58024690D01*
X35240514Y-58196830D01*
X35319740Y-58388099D01*
X35360129Y-58591147D01*
X35360129Y-58798179D01*
X35319740Y-59001227D01*
X35249561Y-59170654D01*
X35240513Y-59192498D01*
X35125494Y-59364636D01*
X34979102Y-59511028D01*
X34806964Y-59626047D01*
X34806963Y-59626048D01*
X34806962Y-59626048D01*
X34615693Y-59705274D01*
X34412645Y-59745663D01*
X34205613Y-59745663D01*
X34002565Y-59705274D01*
X33811296Y-59626048D01*
X33811295Y-59626048D01*
X33811294Y-59626047D01*
X33639156Y-59511028D01*
X33492764Y-59364636D01*
X33377745Y-59192498D01*
X33368697Y-59170654D01*
X33298518Y-59001227D01*
X33258129Y-58798179D01*
X33258129Y-58591147D01*
X33298518Y-58388099D01*
X33377744Y-58196830D01*
X33492764Y-58024690D01*
X33639156Y-57878298D01*
X33811294Y-57763279D01*
X33811296Y-57763278D01*
X34002565Y-57684052D01*
X34205613Y-57643663D01*
X34412645Y-57643663D01*
X34615693Y-57684052D01*
G37*
G36*
X223829224Y-55844960D02*
G01*
X223983562Y-55875659D01*
X224147534Y-55943579D01*
X224295104Y-56042182D01*
X224420603Y-56167681D01*
X224519206Y-56315251D01*
X224587126Y-56479223D01*
X224602732Y-56557682D01*
X224621706Y-56653070D01*
X224621750Y-56653294D01*
X224621750Y-56830776D01*
X224587126Y-57004847D01*
X224519206Y-57168819D01*
X224420603Y-57316389D01*
X224295104Y-57441888D01*
X224147534Y-57540491D01*
X223983562Y-57608411D01*
X223834262Y-57638108D01*
X223809492Y-57643035D01*
X223632008Y-57643035D01*
X223607238Y-57638108D01*
X223457938Y-57608411D01*
X223293966Y-57540491D01*
X223146396Y-57441888D01*
X223020897Y-57316389D01*
X222922294Y-57168819D01*
X222854374Y-57004847D01*
X222819750Y-56830776D01*
X222819750Y-56653294D01*
X222819795Y-56653070D01*
X222838768Y-56557682D01*
X222854374Y-56479223D01*
X222922294Y-56315251D01*
X223020897Y-56167681D01*
X223146396Y-56042182D01*
X223293966Y-55943579D01*
X223457938Y-55875659D01*
X223612276Y-55844960D01*
X223632008Y-55841035D01*
X223809492Y-55841035D01*
X223829224Y-55844960D01*
G37*
G36*
X73534907Y-55844960D02*
G01*
X73688124Y-55875436D01*
X73852096Y-55943356D01*
X73999666Y-56041959D01*
X74125165Y-56167458D01*
X74223768Y-56315028D01*
X74291688Y-56479000D01*
X74321385Y-56628300D01*
X74326312Y-56653070D01*
X74326312Y-56830554D01*
X74321385Y-56855324D01*
X74291688Y-57004624D01*
X74223768Y-57168596D01*
X74125165Y-57316166D01*
X73999666Y-57441665D01*
X73852096Y-57540268D01*
X73688124Y-57608188D01*
X73538824Y-57637885D01*
X73514054Y-57642812D01*
X73336570Y-57642812D01*
X73311800Y-57637885D01*
X73162500Y-57608188D01*
X72998528Y-57540268D01*
X72850958Y-57441665D01*
X72725459Y-57316166D01*
X72626856Y-57168596D01*
X72558936Y-57004624D01*
X72529239Y-56855324D01*
X72524312Y-56830554D01*
X72524312Y-56653070D01*
X72529239Y-56628300D01*
X72558936Y-56479000D01*
X72626856Y-56315028D01*
X72725459Y-56167458D01*
X72850958Y-56041959D01*
X72998528Y-55943356D01*
X73162500Y-55875436D01*
X73315717Y-55844960D01*
X73336570Y-55840812D01*
X73514054Y-55840812D01*
X73534907Y-55844960D01*
G37*
G36*
X204860601Y-55834389D02*
G01*
X205009901Y-55864086D01*
X205173873Y-55932006D01*
X205321443Y-56030609D01*
X205446942Y-56156108D01*
X205545545Y-56303678D01*
X205613465Y-56467650D01*
X205631373Y-56557682D01*
X205648089Y-56641720D01*
X205648089Y-56819204D01*
X205645831Y-56830554D01*
X205613465Y-56993274D01*
X205545545Y-57157246D01*
X205446942Y-57304816D01*
X205321443Y-57430315D01*
X205173873Y-57528918D01*
X205009901Y-57596838D01*
X204860601Y-57626535D01*
X204835831Y-57631462D01*
X204658347Y-57631462D01*
X204633577Y-57626535D01*
X204484277Y-57596838D01*
X204320305Y-57528918D01*
X204172735Y-57430315D01*
X204047236Y-57304816D01*
X203948633Y-57157246D01*
X203880713Y-56993274D01*
X203848347Y-56830554D01*
X203846089Y-56819204D01*
X203846089Y-56641720D01*
X203862805Y-56557682D01*
X203880713Y-56467650D01*
X203948633Y-56303678D01*
X204047236Y-56156108D01*
X204172735Y-56030609D01*
X204320305Y-55932006D01*
X204484277Y-55864086D01*
X204633577Y-55834389D01*
X204658347Y-55829462D01*
X204835831Y-55829462D01*
X204860601Y-55834389D01*
G37*
G36*
X92512486Y-55834168D02*
G01*
X92661786Y-55863865D01*
X92825758Y-55931785D01*
X92973328Y-56030388D01*
X93098827Y-56155887D01*
X93197430Y-56303457D01*
X93265350Y-56467429D01*
X93283302Y-56557682D01*
X93299974Y-56641499D01*
X93299974Y-56818983D01*
X93297672Y-56830554D01*
X93265350Y-56993053D01*
X93197430Y-57157025D01*
X93098827Y-57304595D01*
X92973328Y-57430094D01*
X92825758Y-57528697D01*
X92661786Y-57596617D01*
X92512486Y-57626314D01*
X92487716Y-57631241D01*
X92310232Y-57631241D01*
X92285462Y-57626314D01*
X92136162Y-57596617D01*
X91972190Y-57528697D01*
X91824620Y-57430094D01*
X91699121Y-57304595D01*
X91600518Y-57157025D01*
X91532598Y-56993053D01*
X91500276Y-56830554D01*
X91497974Y-56818983D01*
X91497974Y-56641499D01*
X91514646Y-56557682D01*
X91532598Y-56467429D01*
X91600518Y-56303457D01*
X91699121Y-56155887D01*
X91824620Y-56030388D01*
X91972190Y-55931785D01*
X92136162Y-55863865D01*
X92285462Y-55834168D01*
X92310232Y-55829241D01*
X92487716Y-55829241D01*
X92512486Y-55834168D01*
G37*
G36*
X229337553Y-53299825D02*
G01*
X229450316Y-53322255D01*
X229582309Y-53376928D01*
X229768976Y-53454248D01*
X230055764Y-53645874D01*
X230299659Y-53889769D01*
X230491285Y-54176557D01*
X230545487Y-54307414D01*
X230623186Y-54494994D01*
X230623278Y-54495218D01*
X230690568Y-54833505D01*
X230690568Y-55178425D01*
X230645708Y-55403950D01*
X230623323Y-55516489D01*
X230623278Y-55516712D01*
X230491285Y-55835373D01*
X230299659Y-56122161D01*
X230055764Y-56366056D01*
X229768976Y-56557682D01*
X229582309Y-56635002D01*
X229450316Y-56689675D01*
X229337553Y-56712105D01*
X229112028Y-56756965D01*
X228767108Y-56756965D01*
X228541583Y-56712105D01*
X228428820Y-56689675D01*
X228296827Y-56635002D01*
X228110160Y-56557682D01*
X227823372Y-56366056D01*
X227579477Y-56122161D01*
X227387851Y-55835373D01*
X227255858Y-55516712D01*
X227255814Y-55516489D01*
X227233428Y-55403950D01*
X227188568Y-55178425D01*
X227188568Y-54833505D01*
X227255858Y-54495218D01*
X227255951Y-54494994D01*
X227333649Y-54307414D01*
X227387851Y-54176557D01*
X227579477Y-53889769D01*
X227823372Y-53645874D01*
X228110160Y-53454248D01*
X228296827Y-53376928D01*
X228428820Y-53322255D01*
X228541583Y-53299825D01*
X228767108Y-53254965D01*
X229112028Y-53254965D01*
X229337553Y-53299825D01*
G37*
G36*
X68530175Y-53284822D02*
G01*
X68717242Y-53322032D01*
X68805614Y-53358637D01*
X69035902Y-53454025D01*
X69322690Y-53645651D01*
X69566585Y-53889546D01*
X69758211Y-54176334D01*
X69812506Y-54307414D01*
X69890204Y-54494994D01*
X69896727Y-54527786D01*
X69957494Y-54833282D01*
X69957494Y-55178202D01*
X69947684Y-55227518D01*
X69890204Y-55516490D01*
X69846568Y-55621837D01*
X69758211Y-55835150D01*
X69566585Y-56121938D01*
X69322690Y-56365833D01*
X69035902Y-56557459D01*
X68849235Y-56634779D01*
X68717242Y-56689452D01*
X68604479Y-56711882D01*
X68378954Y-56756742D01*
X68034034Y-56756742D01*
X67808509Y-56711882D01*
X67695746Y-56689452D01*
X67563753Y-56634779D01*
X67377086Y-56557459D01*
X67090298Y-56365833D01*
X66846403Y-56121938D01*
X66654777Y-55835150D01*
X66566420Y-55621837D01*
X66522784Y-55516490D01*
X66465304Y-55227518D01*
X66455494Y-55178202D01*
X66455494Y-54833282D01*
X66516261Y-54527786D01*
X66522784Y-54494994D01*
X66600482Y-54307414D01*
X66654777Y-54176334D01*
X66846403Y-53889546D01*
X67090298Y-53645651D01*
X67377086Y-53454025D01*
X67607374Y-53358637D01*
X67695746Y-53322032D01*
X67882813Y-53284822D01*
X68034034Y-53254742D01*
X68378954Y-53254742D01*
X68530175Y-53284822D01*
G37*
G36*
X210288482Y-53273252D02*
G01*
X210476655Y-53310682D01*
X210591890Y-53358414D01*
X210795315Y-53442675D01*
X211082103Y-53634301D01*
X211325998Y-53878196D01*
X211517624Y-54164984D01*
X211529070Y-54192618D01*
X211649617Y-54483644D01*
X211651875Y-54494995D01*
X211716907Y-54821932D01*
X211716907Y-55166852D01*
X211672047Y-55392377D01*
X211649617Y-55505140D01*
X211644823Y-55516713D01*
X211517624Y-55823800D01*
X211325998Y-56110588D01*
X211082103Y-56354483D01*
X210795315Y-56546109D01*
X210690810Y-56589396D01*
X210476655Y-56678102D01*
X210363892Y-56700532D01*
X210138367Y-56745392D01*
X209793447Y-56745392D01*
X209567922Y-56700532D01*
X209455159Y-56678102D01*
X209241004Y-56589396D01*
X209136499Y-56546109D01*
X208849711Y-56354483D01*
X208605816Y-56110588D01*
X208414190Y-55823800D01*
X208286991Y-55516713D01*
X208282197Y-55505140D01*
X208259767Y-55392377D01*
X208214907Y-55166852D01*
X208214907Y-54821932D01*
X208279939Y-54494995D01*
X208282197Y-54483644D01*
X208402744Y-54192618D01*
X208414190Y-54164984D01*
X208605816Y-53878196D01*
X208849711Y-53634301D01*
X209136499Y-53442675D01*
X209339924Y-53358414D01*
X209455159Y-53310682D01*
X209643332Y-53273252D01*
X209793447Y-53243392D01*
X210138367Y-53243392D01*
X210288482Y-53273252D01*
G37*
G36*
X87503837Y-53273251D02*
G01*
X87690904Y-53310461D01*
X87807208Y-53358636D01*
X88009564Y-53442454D01*
X88296352Y-53634080D01*
X88540247Y-53877975D01*
X88731873Y-54164763D01*
X88790961Y-54307414D01*
X88863866Y-54483423D01*
X88866168Y-54494995D01*
X88931156Y-54821711D01*
X88931156Y-55166631D01*
X88886296Y-55392156D01*
X88863866Y-55504919D01*
X88815530Y-55621612D01*
X88731873Y-55823579D01*
X88540247Y-56110367D01*
X88296352Y-56354262D01*
X88009564Y-56545888D01*
X87822897Y-56623208D01*
X87690904Y-56677881D01*
X87578141Y-56700311D01*
X87352616Y-56745171D01*
X87007696Y-56745171D01*
X86782171Y-56700311D01*
X86669408Y-56677881D01*
X86537415Y-56623208D01*
X86350748Y-56545888D01*
X86063960Y-56354262D01*
X85820065Y-56110367D01*
X85628439Y-55823579D01*
X85544782Y-55621612D01*
X85496446Y-55504919D01*
X85474016Y-55392156D01*
X85429156Y-55166631D01*
X85429156Y-54821711D01*
X85494144Y-54494995D01*
X85496446Y-54483423D01*
X85569351Y-54307414D01*
X85628439Y-54164763D01*
X85820065Y-53877975D01*
X86063960Y-53634080D01*
X86350748Y-53442454D01*
X86553104Y-53358636D01*
X86669408Y-53310461D01*
X86856475Y-53273251D01*
X87007696Y-53243171D01*
X87352616Y-53243171D01*
X87503837Y-53273251D01*
G37*
G36*
X272632264Y-54527785D02*
G01*
X272823533Y-54607011D01*
X272823535Y-54607012D01*
X272995673Y-54722031D01*
X273142065Y-54868423D01*
X273243672Y-55020488D01*
X273257085Y-55040563D01*
X273336311Y-55231832D01*
X273376700Y-55434880D01*
X273376700Y-55641912D01*
X273336311Y-55844960D01*
X273259504Y-56030388D01*
X273257084Y-56036231D01*
X273142065Y-56208369D01*
X272995673Y-56354761D01*
X272823535Y-56469780D01*
X272823534Y-56469781D01*
X272823533Y-56469781D01*
X272632264Y-56549007D01*
X272429216Y-56589396D01*
X272222184Y-56589396D01*
X272019136Y-56549007D01*
X271827867Y-56469781D01*
X271827866Y-56469781D01*
X271827865Y-56469780D01*
X271655727Y-56354761D01*
X271509335Y-56208369D01*
X271394316Y-56036231D01*
X271391896Y-56030388D01*
X271315089Y-55844960D01*
X271274700Y-55641912D01*
X271274700Y-55434880D01*
X271315089Y-55231832D01*
X271394315Y-55040563D01*
X271407729Y-55020488D01*
X271509335Y-54868423D01*
X271655727Y-54722031D01*
X271827865Y-54607012D01*
X271827867Y-54607011D01*
X272019136Y-54527785D01*
X272222184Y-54487396D01*
X272429216Y-54487396D01*
X272632264Y-54527785D01*
G37*
G36*
X267225021Y-54113391D02*
G01*
X267415754Y-54192395D01*
X267416292Y-54192618D01*
X267588096Y-54307414D01*
X267588430Y-54307637D01*
X267734822Y-54454029D01*
X267849842Y-54626169D01*
X267929068Y-54817438D01*
X267969457Y-55020486D01*
X267969457Y-55227518D01*
X267929068Y-55430566D01*
X267849842Y-55621835D01*
X267849841Y-55621837D01*
X267734822Y-55793975D01*
X267588430Y-55940367D01*
X267416292Y-56055386D01*
X267416291Y-56055387D01*
X267416290Y-56055387D01*
X267225021Y-56134613D01*
X267021973Y-56175002D01*
X266814941Y-56175002D01*
X266611893Y-56134613D01*
X266420624Y-56055387D01*
X266420623Y-56055387D01*
X266420622Y-56055386D01*
X266248484Y-55940367D01*
X266102092Y-55793975D01*
X265987073Y-55621837D01*
X265987072Y-55621835D01*
X265907846Y-55430566D01*
X265867457Y-55227518D01*
X265867457Y-55020486D01*
X265907846Y-54817438D01*
X265987072Y-54626169D01*
X266102092Y-54454029D01*
X266248484Y-54307637D01*
X266248818Y-54307414D01*
X266420622Y-54192618D01*
X266421160Y-54192395D01*
X266611893Y-54113391D01*
X266814941Y-54073002D01*
X267021973Y-54073002D01*
X267225021Y-54113391D01*
G37*
G36*
X30534176Y-54113168D02*
G01*
X30725445Y-54192394D01*
X30725447Y-54192395D01*
X30897585Y-54307414D01*
X31043977Y-54453806D01*
X31158997Y-54625946D01*
X31238223Y-54817215D01*
X31278612Y-55020263D01*
X31278612Y-55227295D01*
X31238223Y-55430343D01*
X31202447Y-55516713D01*
X31158996Y-55621614D01*
X31043977Y-55793752D01*
X30897585Y-55940144D01*
X30725447Y-56055163D01*
X30725446Y-56055164D01*
X30725445Y-56055164D01*
X30534176Y-56134390D01*
X30331128Y-56174779D01*
X30124096Y-56174779D01*
X29921048Y-56134390D01*
X29729779Y-56055164D01*
X29729778Y-56055164D01*
X29729777Y-56055163D01*
X29557639Y-55940144D01*
X29411247Y-55793752D01*
X29296228Y-55621614D01*
X29252777Y-55516713D01*
X29217001Y-55430343D01*
X29176612Y-55227295D01*
X29176612Y-55020263D01*
X29217001Y-54817215D01*
X29296227Y-54625946D01*
X29411247Y-54453806D01*
X29557639Y-54307414D01*
X29729777Y-54192395D01*
X29729779Y-54192394D01*
X29921048Y-54113168D01*
X30124096Y-54072779D01*
X30331128Y-54072779D01*
X30534176Y-54113168D01*
G37*
G36*
X234271898Y-52373822D02*
G01*
X234421198Y-52403519D01*
X234585170Y-52471439D01*
X234732740Y-52570042D01*
X234858239Y-52695541D01*
X234956842Y-52843111D01*
X235024762Y-53007083D01*
X235054459Y-53156383D01*
X235059342Y-53180930D01*
X235059386Y-53181154D01*
X235059386Y-53358636D01*
X235024762Y-53532707D01*
X234956842Y-53696679D01*
X234858239Y-53844249D01*
X234732740Y-53969748D01*
X234585170Y-54068351D01*
X234421198Y-54136271D01*
X234277960Y-54164762D01*
X234247128Y-54170895D01*
X234069644Y-54170895D01*
X234038812Y-54164762D01*
X233895574Y-54136271D01*
X233731602Y-54068351D01*
X233584032Y-53969748D01*
X233458533Y-53844249D01*
X233359930Y-53696679D01*
X233292010Y-53532707D01*
X233257386Y-53358636D01*
X233257386Y-53181154D01*
X233257431Y-53180930D01*
X233262313Y-53156383D01*
X233292010Y-53007083D01*
X233359930Y-52843111D01*
X233458533Y-52695541D01*
X233584032Y-52570042D01*
X233731602Y-52471439D01*
X233895574Y-52403519D01*
X234044874Y-52373822D01*
X234069644Y-52368895D01*
X234247128Y-52368895D01*
X234271898Y-52373822D01*
G37*
G36*
X63101188Y-52373599D02*
G01*
X63250488Y-52403296D01*
X63414460Y-52471216D01*
X63562030Y-52569819D01*
X63687529Y-52695318D01*
X63786132Y-52842888D01*
X63854052Y-53006860D01*
X63883749Y-53156160D01*
X63888676Y-53180930D01*
X63888676Y-53358414D01*
X63883749Y-53383184D01*
X63854052Y-53532484D01*
X63786132Y-53696456D01*
X63687529Y-53844026D01*
X63562030Y-53969525D01*
X63414460Y-54068128D01*
X63250488Y-54136048D01*
X63106129Y-54164762D01*
X63076418Y-54170672D01*
X62898934Y-54170672D01*
X62869223Y-54164762D01*
X62724864Y-54136048D01*
X62560892Y-54068128D01*
X62413322Y-53969525D01*
X62287823Y-53844026D01*
X62189220Y-53696456D01*
X62121300Y-53532484D01*
X62091603Y-53383184D01*
X62086676Y-53358414D01*
X62086676Y-53180930D01*
X62091603Y-53156160D01*
X62121300Y-53006860D01*
X62189220Y-52842888D01*
X62287823Y-52695318D01*
X62413322Y-52569819D01*
X62560892Y-52471216D01*
X62724864Y-52403296D01*
X62874164Y-52373599D01*
X62898934Y-52368672D01*
X63076418Y-52368672D01*
X63101188Y-52373599D01*
G37*
G36*
X215298237Y-52362249D02*
G01*
X215447537Y-52391946D01*
X215611509Y-52459866D01*
X215759079Y-52558469D01*
X215884578Y-52683968D01*
X215983181Y-52831538D01*
X216051101Y-52995510D01*
X216080798Y-53144810D01*
X216085725Y-53169580D01*
X216085725Y-53347064D01*
X216083467Y-53358414D01*
X216051101Y-53521134D01*
X215983181Y-53685106D01*
X215884578Y-53832676D01*
X215759079Y-53958175D01*
X215611509Y-54056778D01*
X215447537Y-54124698D01*
X215298237Y-54154395D01*
X215273467Y-54159322D01*
X215095983Y-54159322D01*
X215071213Y-54154395D01*
X214921913Y-54124698D01*
X214757941Y-54056778D01*
X214610371Y-53958175D01*
X214484872Y-53832676D01*
X214386269Y-53685106D01*
X214318349Y-53521134D01*
X214285983Y-53358414D01*
X214283725Y-53347064D01*
X214283725Y-53169580D01*
X214288652Y-53144810D01*
X214318349Y-52995510D01*
X214386269Y-52831538D01*
X214484872Y-52683968D01*
X214610371Y-52558469D01*
X214757941Y-52459866D01*
X214921913Y-52391946D01*
X215071213Y-52362249D01*
X215095983Y-52357322D01*
X215273467Y-52357322D01*
X215298237Y-52362249D01*
G37*
G36*
X82074850Y-52362028D02*
G01*
X82224150Y-52391725D01*
X82388122Y-52459645D01*
X82535692Y-52558248D01*
X82661191Y-52683747D01*
X82759794Y-52831317D01*
X82827714Y-52995289D01*
X82857411Y-53144589D01*
X82862338Y-53169359D01*
X82862338Y-53346843D01*
X82860036Y-53358414D01*
X82827714Y-53520913D01*
X82759794Y-53684885D01*
X82661191Y-53832455D01*
X82535692Y-53957954D01*
X82388122Y-54056557D01*
X82224150Y-54124477D01*
X82074850Y-54154174D01*
X82050080Y-54159101D01*
X81872596Y-54159101D01*
X81847826Y-54154174D01*
X81698526Y-54124477D01*
X81534554Y-54056557D01*
X81386984Y-53957954D01*
X81261485Y-53832455D01*
X81162882Y-53684885D01*
X81094962Y-53520913D01*
X81062640Y-53358414D01*
X81060338Y-53346843D01*
X81060338Y-53169359D01*
X81065265Y-53144589D01*
X81094962Y-52995289D01*
X81162882Y-52831317D01*
X81261485Y-52683747D01*
X81386984Y-52558248D01*
X81534554Y-52459645D01*
X81698526Y-52391725D01*
X81847826Y-52362028D01*
X81872596Y-52357101D01*
X82050080Y-52357101D01*
X82074850Y-52362028D01*
G37*
G36*
X74456904Y-51967647D02*
G01*
X74620240Y-52035303D01*
X74648175Y-52046874D01*
X74820313Y-52161893D01*
X74966705Y-52308285D01*
X75073993Y-52468852D01*
X75081725Y-52480425D01*
X75160951Y-52671694D01*
X75201340Y-52874742D01*
X75201340Y-53081774D01*
X75160951Y-53284822D01*
X75090772Y-53454249D01*
X75081724Y-53476093D01*
X74966705Y-53648231D01*
X74820313Y-53794623D01*
X74648175Y-53909642D01*
X74648174Y-53909643D01*
X74648173Y-53909643D01*
X74456904Y-53988869D01*
X74253856Y-54029258D01*
X74046824Y-54029258D01*
X73843776Y-53988869D01*
X73652507Y-53909643D01*
X73652506Y-53909643D01*
X73652505Y-53909642D01*
X73480367Y-53794623D01*
X73333975Y-53648231D01*
X73218956Y-53476093D01*
X73209908Y-53454249D01*
X73139729Y-53284822D01*
X73099340Y-53081774D01*
X73099340Y-52874742D01*
X73139729Y-52671694D01*
X73218955Y-52480425D01*
X73226688Y-52468852D01*
X73333975Y-52308285D01*
X73480367Y-52161893D01*
X73652505Y-52046874D01*
X73680440Y-52035303D01*
X73843776Y-51967647D01*
X74046824Y-51927258D01*
X74253856Y-51927258D01*
X74456904Y-51967647D01*
G37*
G36*
X93430566Y-51956076D02*
G01*
X93621835Y-52035302D01*
X93621837Y-52035303D01*
X93793975Y-52150322D01*
X93940367Y-52296714D01*
X94049382Y-52459866D01*
X94055387Y-52468854D01*
X94134613Y-52660123D01*
X94175002Y-52863171D01*
X94175002Y-53070203D01*
X94134613Y-53273251D01*
X94064435Y-53442675D01*
X94055386Y-53464522D01*
X93940367Y-53636660D01*
X93793975Y-53783052D01*
X93621837Y-53898071D01*
X93621836Y-53898072D01*
X93621835Y-53898072D01*
X93430566Y-53977298D01*
X93227518Y-54017687D01*
X93020486Y-54017687D01*
X92817438Y-53977298D01*
X92626169Y-53898072D01*
X92626168Y-53898072D01*
X92626167Y-53898071D01*
X92454029Y-53783052D01*
X92307637Y-53636660D01*
X92192618Y-53464522D01*
X92183569Y-53442675D01*
X92113391Y-53273251D01*
X92073002Y-53070203D01*
X92073002Y-52863171D01*
X92113391Y-52660123D01*
X92192617Y-52468854D01*
X92198623Y-52459866D01*
X92307637Y-52296714D01*
X92454029Y-52150322D01*
X92626167Y-52035303D01*
X92626169Y-52035302D01*
X92817438Y-51956076D01*
X93020486Y-51915687D01*
X93227518Y-51915687D01*
X93430566Y-51956076D01*
G37*
G36*
X232791046Y-48811380D02*
G01*
X232982315Y-48890606D01*
X232982317Y-48890607D01*
X233154455Y-49005626D01*
X233300847Y-49152018D01*
X233408135Y-49312585D01*
X233415867Y-49324158D01*
X233495093Y-49515427D01*
X233535482Y-49718475D01*
X233535482Y-49925507D01*
X233495093Y-50128555D01*
X233420660Y-50308253D01*
X233415866Y-50319826D01*
X233300847Y-50491964D01*
X233154455Y-50638356D01*
X232982317Y-50753375D01*
X232982316Y-50753376D01*
X232982315Y-50753376D01*
X232791046Y-50832602D01*
X232587998Y-50872991D01*
X232380966Y-50872991D01*
X232177918Y-50832602D01*
X231986649Y-50753376D01*
X231986648Y-50753376D01*
X231986647Y-50753375D01*
X231814509Y-50638356D01*
X231668117Y-50491964D01*
X231553098Y-50319826D01*
X231548304Y-50308253D01*
X231473871Y-50128555D01*
X231433482Y-49925507D01*
X231433482Y-49718475D01*
X231473871Y-49515427D01*
X231553097Y-49324158D01*
X231560830Y-49312585D01*
X231668117Y-49152018D01*
X231814509Y-49005626D01*
X231986647Y-48890607D01*
X231986649Y-48890606D01*
X232177918Y-48811380D01*
X232380966Y-48770991D01*
X232587998Y-48770991D01*
X232791046Y-48811380D01*
G37*
G36*
X213817385Y-48799807D02*
G01*
X214008654Y-48879033D01*
X214008656Y-48879034D01*
X214180794Y-48994053D01*
X214327186Y-49140445D01*
X214428793Y-49292510D01*
X214442206Y-49312585D01*
X214521432Y-49503854D01*
X214561821Y-49706902D01*
X214561821Y-49913934D01*
X214521432Y-50116982D01*
X214442206Y-50308251D01*
X214442205Y-50308253D01*
X214327186Y-50480391D01*
X214180794Y-50626783D01*
X214008656Y-50741802D01*
X214008655Y-50741803D01*
X214008654Y-50741803D01*
X213817385Y-50821029D01*
X213614337Y-50861418D01*
X213407305Y-50861418D01*
X213204257Y-50821029D01*
X213012988Y-50741803D01*
X213012987Y-50741803D01*
X213012986Y-50741802D01*
X212840848Y-50626783D01*
X212694456Y-50480391D01*
X212579437Y-50308253D01*
X212579436Y-50308251D01*
X212500210Y-50116982D01*
X212459821Y-49913934D01*
X212459821Y-49706902D01*
X212500210Y-49503854D01*
X212579436Y-49312585D01*
X212592850Y-49292510D01*
X212694456Y-49140445D01*
X212840848Y-48994053D01*
X213012986Y-48879034D01*
X213012988Y-48879033D01*
X213204257Y-48799807D01*
X213407305Y-48759418D01*
X213614337Y-48759418D01*
X213817385Y-48799807D01*
G37*
G36*
X227383803Y-48396986D02*
G01*
X227574536Y-48475990D01*
X227575074Y-48476213D01*
X227747212Y-48591232D01*
X227893604Y-48737624D01*
X228000892Y-48898191D01*
X228008624Y-48909764D01*
X228087850Y-49101033D01*
X228128239Y-49304081D01*
X228128239Y-49511113D01*
X228087850Y-49714161D01*
X228008624Y-49905430D01*
X228008623Y-49905432D01*
X227893604Y-50077570D01*
X227747212Y-50223962D01*
X227575074Y-50338981D01*
X227575073Y-50338982D01*
X227575072Y-50338982D01*
X227383803Y-50418208D01*
X227180755Y-50458597D01*
X226973723Y-50458597D01*
X226770675Y-50418208D01*
X226579406Y-50338982D01*
X226579405Y-50338982D01*
X226579404Y-50338981D01*
X226407266Y-50223962D01*
X226260874Y-50077570D01*
X226145855Y-49905432D01*
X226145854Y-49905430D01*
X226066628Y-49714161D01*
X226026239Y-49511113D01*
X226026239Y-49304081D01*
X226066628Y-49101033D01*
X226145854Y-48909764D01*
X226153587Y-48898191D01*
X226260874Y-48737624D01*
X226407266Y-48591232D01*
X226579404Y-48476213D01*
X226579942Y-48475990D01*
X226770675Y-48396986D01*
X226973723Y-48356597D01*
X227180755Y-48356597D01*
X227383803Y-48396986D01*
G37*
G36*
X70375387Y-48396763D02*
G01*
X70566656Y-48475989D01*
X70566658Y-48475990D01*
X70738796Y-48591009D01*
X70885188Y-48737401D01*
X70992625Y-48898191D01*
X71000208Y-48909541D01*
X71079434Y-49100810D01*
X71119823Y-49303858D01*
X71119823Y-49510890D01*
X71079434Y-49713938D01*
X71005001Y-49893636D01*
X71000207Y-49905209D01*
X70885188Y-50077347D01*
X70738796Y-50223739D01*
X70566658Y-50338758D01*
X70566657Y-50338759D01*
X70566656Y-50338759D01*
X70375387Y-50417985D01*
X70172339Y-50458374D01*
X69965307Y-50458374D01*
X69762259Y-50417985D01*
X69570990Y-50338759D01*
X69570989Y-50338759D01*
X69570988Y-50338758D01*
X69398850Y-50223739D01*
X69252458Y-50077347D01*
X69137439Y-49905209D01*
X69132645Y-49893636D01*
X69058212Y-49713938D01*
X69017823Y-49510890D01*
X69017823Y-49303858D01*
X69058212Y-49100810D01*
X69137438Y-48909541D01*
X69145022Y-48898191D01*
X69252458Y-48737401D01*
X69398850Y-48591009D01*
X69570988Y-48475990D01*
X69570990Y-48475989D01*
X69762259Y-48396763D01*
X69965307Y-48356374D01*
X70172339Y-48356374D01*
X70375387Y-48396763D01*
G37*
G36*
X208410142Y-48385413D02*
G01*
X208601411Y-48464639D01*
X208601413Y-48464640D01*
X208773551Y-48579659D01*
X208919943Y-48726051D01*
X209034816Y-48897970D01*
X209034963Y-48898191D01*
X209114189Y-49089460D01*
X209154578Y-49292508D01*
X209154578Y-49499540D01*
X209114189Y-49702588D01*
X209035054Y-49893638D01*
X209034962Y-49893859D01*
X208919943Y-50065997D01*
X208773551Y-50212389D01*
X208601413Y-50327408D01*
X208601412Y-50327409D01*
X208601411Y-50327409D01*
X208410142Y-50406635D01*
X208207094Y-50447024D01*
X208000062Y-50447024D01*
X207797014Y-50406635D01*
X207605745Y-50327409D01*
X207605744Y-50327409D01*
X207605743Y-50327408D01*
X207433605Y-50212389D01*
X207287213Y-50065997D01*
X207172194Y-49893859D01*
X207172102Y-49893638D01*
X207092967Y-49702588D01*
X207052578Y-49499540D01*
X207052578Y-49292508D01*
X207092967Y-49089460D01*
X207172193Y-48898191D01*
X207172341Y-48897970D01*
X207287213Y-48726051D01*
X207433605Y-48579659D01*
X207605743Y-48464640D01*
X207605745Y-48464639D01*
X207797014Y-48385413D01*
X208000062Y-48345024D01*
X208207094Y-48345024D01*
X208410142Y-48385413D01*
G37*
G36*
X89349049Y-48385192D02*
G01*
X89540318Y-48464418D01*
X89540320Y-48464419D01*
X89712458Y-48579438D01*
X89858850Y-48725830D01*
X89968951Y-48890607D01*
X89973870Y-48897970D01*
X90053096Y-49089239D01*
X90093485Y-49292287D01*
X90093485Y-49499319D01*
X90053096Y-49702367D01*
X89973870Y-49893636D01*
X89973869Y-49893638D01*
X89858850Y-50065776D01*
X89712458Y-50212168D01*
X89540320Y-50327187D01*
X89540319Y-50327188D01*
X89540318Y-50327188D01*
X89349049Y-50406414D01*
X89146001Y-50446803D01*
X88938969Y-50446803D01*
X88735921Y-50406414D01*
X88544652Y-50327188D01*
X88544651Y-50327188D01*
X88544650Y-50327187D01*
X88372512Y-50212168D01*
X88226120Y-50065776D01*
X88111101Y-49893638D01*
X88111100Y-49893636D01*
X88031874Y-49702367D01*
X87991485Y-49499319D01*
X87991485Y-49292287D01*
X88031874Y-49089239D01*
X88111100Y-48897970D01*
X88116020Y-48890607D01*
X88226120Y-48725830D01*
X88372512Y-48579438D01*
X88544650Y-48464419D01*
X88544652Y-48464418D01*
X88735921Y-48385192D01*
X88938969Y-48344803D01*
X89146001Y-48344803D01*
X89349049Y-48385192D01*
G37*
M02*
