G04 #@! TF.GenerationSoftware,KiCad,Pcbnew,5.1.6*
G04 #@! TF.CreationDate,2020-09-26T20:09:36-05:00*
G04 #@! TF.ProjectId,steno,7374656e-6f2e-46b6-9963-61645f706362,rev?*
G04 #@! TF.SameCoordinates,Original*
G04 #@! TF.FileFunction,Soldermask,Top*
G04 #@! TF.FilePolarity,Negative*
%FSLAX46Y46*%
G04 Gerber Fmt 4.6, Leading zero omitted, Abs format (unit mm)*
G04 Created by KiCad (PCBNEW 5.1.6) date 2020-09-26 20:09:36*
%MOMM*%
%LPD*%
G01*
G04 APERTURE LIST*
%ADD10C,0.100000*%
G04 APERTURE END LIST*
D10*
G36*
X166582585Y-134051119D02*
G01*
X166732410Y-134080921D01*
X167014674Y-134197838D01*
X167268705Y-134367576D01*
X167484741Y-134583612D01*
X167654479Y-134837643D01*
X167771396Y-135119907D01*
X167831000Y-135419557D01*
X167831000Y-135725077D01*
X167771396Y-136024727D01*
X167654479Y-136306991D01*
X167484741Y-136561022D01*
X167268705Y-136777058D01*
X167014674Y-136946796D01*
X166732410Y-137063713D01*
X166582585Y-137093515D01*
X166432761Y-137123317D01*
X166127239Y-137123317D01*
X165977415Y-137093515D01*
X165827590Y-137063713D01*
X165545326Y-136946796D01*
X165291295Y-136777058D01*
X165075259Y-136561022D01*
X164905521Y-136306991D01*
X164788604Y-136024727D01*
X164729000Y-135725077D01*
X164729000Y-135419557D01*
X164788604Y-135119907D01*
X164905521Y-134837643D01*
X165075259Y-134583612D01*
X165291295Y-134367576D01*
X165545326Y-134197838D01*
X165827590Y-134080921D01*
X165977415Y-134051119D01*
X166127239Y-134021317D01*
X166432761Y-134021317D01*
X166582585Y-134051119D01*
G37*
G36*
X131022585Y-134051119D02*
G01*
X131172410Y-134080921D01*
X131454674Y-134197838D01*
X131708705Y-134367576D01*
X131924741Y-134583612D01*
X132094479Y-134837643D01*
X132211396Y-135119907D01*
X132271000Y-135419557D01*
X132271000Y-135725077D01*
X132211396Y-136024727D01*
X132094479Y-136306991D01*
X131924741Y-136561022D01*
X131708705Y-136777058D01*
X131454674Y-136946796D01*
X131172410Y-137063713D01*
X131022585Y-137093515D01*
X130872761Y-137123317D01*
X130567239Y-137123317D01*
X130417415Y-137093515D01*
X130267590Y-137063713D01*
X129985326Y-136946796D01*
X129731295Y-136777058D01*
X129515259Y-136561022D01*
X129345521Y-136306991D01*
X129228604Y-136024727D01*
X129169000Y-135725077D01*
X129169000Y-135419557D01*
X129228604Y-135119907D01*
X129345521Y-134837643D01*
X129515259Y-134583612D01*
X129731295Y-134367576D01*
X129985326Y-134197838D01*
X130267590Y-134080921D01*
X130417415Y-134051119D01*
X130567239Y-134021317D01*
X130872761Y-134021317D01*
X131022585Y-134051119D01*
G37*
G36*
X160831000Y-136473317D02*
G01*
X159029000Y-136473317D01*
X159029000Y-134671317D01*
X160831000Y-134671317D01*
X160831000Y-136473317D01*
G37*
G36*
X152423512Y-134676244D02*
G01*
X152572812Y-134705941D01*
X152736784Y-134773861D01*
X152884354Y-134872464D01*
X153009853Y-134997963D01*
X153108456Y-135145533D01*
X153176376Y-135309505D01*
X153211000Y-135483576D01*
X153211000Y-135661058D01*
X153176376Y-135835129D01*
X153108456Y-135999101D01*
X153009853Y-136146671D01*
X152884354Y-136272170D01*
X152736784Y-136370773D01*
X152572812Y-136438693D01*
X152423512Y-136468390D01*
X152398742Y-136473317D01*
X152221258Y-136473317D01*
X152196488Y-136468390D01*
X152047188Y-136438693D01*
X151883216Y-136370773D01*
X151735646Y-136272170D01*
X151610147Y-136146671D01*
X151511544Y-135999101D01*
X151443624Y-135835129D01*
X151409000Y-135661058D01*
X151409000Y-135483576D01*
X151443624Y-135309505D01*
X151511544Y-135145533D01*
X151610147Y-134997963D01*
X151735646Y-134872464D01*
X151883216Y-134773861D01*
X152047188Y-134705941D01*
X152196488Y-134676244D01*
X152221258Y-134671317D01*
X152398742Y-134671317D01*
X152423512Y-134676244D01*
G37*
G36*
X147343512Y-134676244D02*
G01*
X147492812Y-134705941D01*
X147656784Y-134773861D01*
X147804354Y-134872464D01*
X147929853Y-134997963D01*
X148028456Y-135145533D01*
X148096376Y-135309505D01*
X148131000Y-135483576D01*
X148131000Y-135661058D01*
X148096376Y-135835129D01*
X148028456Y-135999101D01*
X147929853Y-136146671D01*
X147804354Y-136272170D01*
X147656784Y-136370773D01*
X147492812Y-136438693D01*
X147343512Y-136468390D01*
X147318742Y-136473317D01*
X147141258Y-136473317D01*
X147116488Y-136468390D01*
X146967188Y-136438693D01*
X146803216Y-136370773D01*
X146655646Y-136272170D01*
X146530147Y-136146671D01*
X146431544Y-135999101D01*
X146363624Y-135835129D01*
X146329000Y-135661058D01*
X146329000Y-135483576D01*
X146363624Y-135309505D01*
X146431544Y-135145533D01*
X146530147Y-134997963D01*
X146655646Y-134872464D01*
X146803216Y-134773861D01*
X146967188Y-134705941D01*
X147116488Y-134676244D01*
X147141258Y-134671317D01*
X147318742Y-134671317D01*
X147343512Y-134676244D01*
G37*
G36*
X149883512Y-134676244D02*
G01*
X150032812Y-134705941D01*
X150196784Y-134773861D01*
X150344354Y-134872464D01*
X150469853Y-134997963D01*
X150568456Y-135145533D01*
X150636376Y-135309505D01*
X150671000Y-135483576D01*
X150671000Y-135661058D01*
X150636376Y-135835129D01*
X150568456Y-135999101D01*
X150469853Y-136146671D01*
X150344354Y-136272170D01*
X150196784Y-136370773D01*
X150032812Y-136438693D01*
X149883512Y-136468390D01*
X149858742Y-136473317D01*
X149681258Y-136473317D01*
X149656488Y-136468390D01*
X149507188Y-136438693D01*
X149343216Y-136370773D01*
X149195646Y-136272170D01*
X149070147Y-136146671D01*
X148971544Y-135999101D01*
X148903624Y-135835129D01*
X148869000Y-135661058D01*
X148869000Y-135483576D01*
X148903624Y-135309505D01*
X148971544Y-135145533D01*
X149070147Y-134997963D01*
X149195646Y-134872464D01*
X149343216Y-134773861D01*
X149507188Y-134705941D01*
X149656488Y-134676244D01*
X149681258Y-134671317D01*
X149858742Y-134671317D01*
X149883512Y-134676244D01*
G37*
G36*
X154963512Y-134676244D02*
G01*
X155112812Y-134705941D01*
X155276784Y-134773861D01*
X155424354Y-134872464D01*
X155549853Y-134997963D01*
X155648456Y-135145533D01*
X155716376Y-135309505D01*
X155751000Y-135483576D01*
X155751000Y-135661058D01*
X155716376Y-135835129D01*
X155648456Y-135999101D01*
X155549853Y-136146671D01*
X155424354Y-136272170D01*
X155276784Y-136370773D01*
X155112812Y-136438693D01*
X154963512Y-136468390D01*
X154938742Y-136473317D01*
X154761258Y-136473317D01*
X154736488Y-136468390D01*
X154587188Y-136438693D01*
X154423216Y-136370773D01*
X154275646Y-136272170D01*
X154150147Y-136146671D01*
X154051544Y-135999101D01*
X153983624Y-135835129D01*
X153949000Y-135661058D01*
X153949000Y-135483576D01*
X153983624Y-135309505D01*
X154051544Y-135145533D01*
X154150147Y-134997963D01*
X154275646Y-134872464D01*
X154423216Y-134773861D01*
X154587188Y-134705941D01*
X154736488Y-134676244D01*
X154761258Y-134671317D01*
X154938742Y-134671317D01*
X154963512Y-134676244D01*
G37*
G36*
X157503512Y-134676244D02*
G01*
X157652812Y-134705941D01*
X157816784Y-134773861D01*
X157964354Y-134872464D01*
X158089853Y-134997963D01*
X158188456Y-135145533D01*
X158256376Y-135309505D01*
X158291000Y-135483576D01*
X158291000Y-135661058D01*
X158256376Y-135835129D01*
X158188456Y-135999101D01*
X158089853Y-136146671D01*
X157964354Y-136272170D01*
X157816784Y-136370773D01*
X157652812Y-136438693D01*
X157503512Y-136468390D01*
X157478742Y-136473317D01*
X157301258Y-136473317D01*
X157276488Y-136468390D01*
X157127188Y-136438693D01*
X156963216Y-136370773D01*
X156815646Y-136272170D01*
X156690147Y-136146671D01*
X156591544Y-135999101D01*
X156523624Y-135835129D01*
X156489000Y-135661058D01*
X156489000Y-135483576D01*
X156523624Y-135309505D01*
X156591544Y-135145533D01*
X156690147Y-134997963D01*
X156815646Y-134872464D01*
X156963216Y-134773861D01*
X157127188Y-134705941D01*
X157276488Y-134676244D01*
X157301258Y-134671317D01*
X157478742Y-134671317D01*
X157503512Y-134676244D01*
G37*
G36*
X144803512Y-134676244D02*
G01*
X144952812Y-134705941D01*
X145116784Y-134773861D01*
X145264354Y-134872464D01*
X145389853Y-134997963D01*
X145488456Y-135145533D01*
X145556376Y-135309505D01*
X145591000Y-135483576D01*
X145591000Y-135661058D01*
X145556376Y-135835129D01*
X145488456Y-135999101D01*
X145389853Y-136146671D01*
X145264354Y-136272170D01*
X145116784Y-136370773D01*
X144952812Y-136438693D01*
X144803512Y-136468390D01*
X144778742Y-136473317D01*
X144601258Y-136473317D01*
X144576488Y-136468390D01*
X144427188Y-136438693D01*
X144263216Y-136370773D01*
X144115646Y-136272170D01*
X143990147Y-136146671D01*
X143891544Y-135999101D01*
X143823624Y-135835129D01*
X143789000Y-135661058D01*
X143789000Y-135483576D01*
X143823624Y-135309505D01*
X143891544Y-135145533D01*
X143990147Y-134997963D01*
X144115646Y-134872464D01*
X144263216Y-134773861D01*
X144427188Y-134705941D01*
X144576488Y-134676244D01*
X144601258Y-134671317D01*
X144778742Y-134671317D01*
X144803512Y-134676244D01*
G37*
G36*
X142263512Y-134676244D02*
G01*
X142412812Y-134705941D01*
X142576784Y-134773861D01*
X142724354Y-134872464D01*
X142849853Y-134997963D01*
X142948456Y-135145533D01*
X143016376Y-135309505D01*
X143051000Y-135483576D01*
X143051000Y-135661058D01*
X143016376Y-135835129D01*
X142948456Y-135999101D01*
X142849853Y-136146671D01*
X142724354Y-136272170D01*
X142576784Y-136370773D01*
X142412812Y-136438693D01*
X142263512Y-136468390D01*
X142238742Y-136473317D01*
X142061258Y-136473317D01*
X142036488Y-136468390D01*
X141887188Y-136438693D01*
X141723216Y-136370773D01*
X141575646Y-136272170D01*
X141450147Y-136146671D01*
X141351544Y-135999101D01*
X141283624Y-135835129D01*
X141249000Y-135661058D01*
X141249000Y-135483576D01*
X141283624Y-135309505D01*
X141351544Y-135145533D01*
X141450147Y-134997963D01*
X141575646Y-134872464D01*
X141723216Y-134773861D01*
X141887188Y-134705941D01*
X142036488Y-134676244D01*
X142061258Y-134671317D01*
X142238742Y-134671317D01*
X142263512Y-134676244D01*
G37*
G36*
X137183512Y-134676244D02*
G01*
X137332812Y-134705941D01*
X137496784Y-134773861D01*
X137644354Y-134872464D01*
X137769853Y-134997963D01*
X137868456Y-135145533D01*
X137936376Y-135309505D01*
X137971000Y-135483576D01*
X137971000Y-135661058D01*
X137936376Y-135835129D01*
X137868456Y-135999101D01*
X137769853Y-136146671D01*
X137644354Y-136272170D01*
X137496784Y-136370773D01*
X137332812Y-136438693D01*
X137183512Y-136468390D01*
X137158742Y-136473317D01*
X136981258Y-136473317D01*
X136956488Y-136468390D01*
X136807188Y-136438693D01*
X136643216Y-136370773D01*
X136495646Y-136272170D01*
X136370147Y-136146671D01*
X136271544Y-135999101D01*
X136203624Y-135835129D01*
X136169000Y-135661058D01*
X136169000Y-135483576D01*
X136203624Y-135309505D01*
X136271544Y-135145533D01*
X136370147Y-134997963D01*
X136495646Y-134872464D01*
X136643216Y-134773861D01*
X136807188Y-134705941D01*
X136956488Y-134676244D01*
X136981258Y-134671317D01*
X137158742Y-134671317D01*
X137183512Y-134676244D01*
G37*
G36*
X139723512Y-134676244D02*
G01*
X139872812Y-134705941D01*
X140036784Y-134773861D01*
X140184354Y-134872464D01*
X140309853Y-134997963D01*
X140408456Y-135145533D01*
X140476376Y-135309505D01*
X140511000Y-135483576D01*
X140511000Y-135661058D01*
X140476376Y-135835129D01*
X140408456Y-135999101D01*
X140309853Y-136146671D01*
X140184354Y-136272170D01*
X140036784Y-136370773D01*
X139872812Y-136438693D01*
X139723512Y-136468390D01*
X139698742Y-136473317D01*
X139521258Y-136473317D01*
X139496488Y-136468390D01*
X139347188Y-136438693D01*
X139183216Y-136370773D01*
X139035646Y-136272170D01*
X138910147Y-136146671D01*
X138811544Y-135999101D01*
X138743624Y-135835129D01*
X138709000Y-135661058D01*
X138709000Y-135483576D01*
X138743624Y-135309505D01*
X138811544Y-135145533D01*
X138910147Y-134997963D01*
X139035646Y-134872464D01*
X139183216Y-134773861D01*
X139347188Y-134705941D01*
X139496488Y-134676244D01*
X139521258Y-134671317D01*
X139698742Y-134671317D01*
X139723512Y-134676244D01*
G37*
G36*
X150664928Y-130251764D02*
G01*
X150686009Y-130258160D01*
X150705445Y-130268548D01*
X150722476Y-130282524D01*
X150736452Y-130299555D01*
X150746840Y-130318991D01*
X150753236Y-130340072D01*
X150756000Y-130368140D01*
X150756000Y-131831860D01*
X150753236Y-131859928D01*
X150746840Y-131881009D01*
X150736452Y-131900445D01*
X150722476Y-131917476D01*
X150705445Y-131931452D01*
X150686009Y-131941840D01*
X150664928Y-131948236D01*
X150636860Y-131951000D01*
X150173140Y-131951000D01*
X150145072Y-131948236D01*
X150123991Y-131941840D01*
X150104555Y-131931452D01*
X150087524Y-131917476D01*
X150073548Y-131900445D01*
X150063160Y-131881009D01*
X150056764Y-131859928D01*
X150054000Y-131831860D01*
X150054000Y-130368140D01*
X150056764Y-130340072D01*
X150063160Y-130318991D01*
X150073548Y-130299555D01*
X150087524Y-130282524D01*
X150104555Y-130268548D01*
X150123991Y-130258160D01*
X150145072Y-130251764D01*
X150173140Y-130249000D01*
X150636860Y-130249000D01*
X150664928Y-130251764D01*
G37*
G36*
X149394928Y-130251764D02*
G01*
X149416009Y-130258160D01*
X149435445Y-130268548D01*
X149452476Y-130282524D01*
X149466452Y-130299555D01*
X149476840Y-130318991D01*
X149483236Y-130340072D01*
X149486000Y-130368140D01*
X149486000Y-131831860D01*
X149483236Y-131859928D01*
X149476840Y-131881009D01*
X149466452Y-131900445D01*
X149452476Y-131917476D01*
X149435445Y-131931452D01*
X149416009Y-131941840D01*
X149394928Y-131948236D01*
X149366860Y-131951000D01*
X148903140Y-131951000D01*
X148875072Y-131948236D01*
X148853991Y-131941840D01*
X148834555Y-131931452D01*
X148817524Y-131917476D01*
X148803548Y-131900445D01*
X148793160Y-131881009D01*
X148786764Y-131859928D01*
X148784000Y-131831860D01*
X148784000Y-130368140D01*
X148786764Y-130340072D01*
X148793160Y-130318991D01*
X148803548Y-130299555D01*
X148817524Y-130282524D01*
X148834555Y-130268548D01*
X148853991Y-130258160D01*
X148875072Y-130251764D01*
X148903140Y-130249000D01*
X149366860Y-130249000D01*
X149394928Y-130251764D01*
G37*
G36*
X146854928Y-130251764D02*
G01*
X146876009Y-130258160D01*
X146895445Y-130268548D01*
X146912476Y-130282524D01*
X146926452Y-130299555D01*
X146936840Y-130318991D01*
X146943236Y-130340072D01*
X146946000Y-130368140D01*
X146946000Y-131831860D01*
X146943236Y-131859928D01*
X146936840Y-131881009D01*
X146926452Y-131900445D01*
X146912476Y-131917476D01*
X146895445Y-131931452D01*
X146876009Y-131941840D01*
X146854928Y-131948236D01*
X146826860Y-131951000D01*
X146363140Y-131951000D01*
X146335072Y-131948236D01*
X146313991Y-131941840D01*
X146294555Y-131931452D01*
X146277524Y-131917476D01*
X146263548Y-131900445D01*
X146253160Y-131881009D01*
X146246764Y-131859928D01*
X146244000Y-131831860D01*
X146244000Y-130368140D01*
X146246764Y-130340072D01*
X146253160Y-130318991D01*
X146263548Y-130299555D01*
X146277524Y-130282524D01*
X146294555Y-130268548D01*
X146313991Y-130258160D01*
X146335072Y-130251764D01*
X146363140Y-130249000D01*
X146826860Y-130249000D01*
X146854928Y-130251764D01*
G37*
G36*
X148124928Y-130251764D02*
G01*
X148146009Y-130258160D01*
X148165445Y-130268548D01*
X148182476Y-130282524D01*
X148196452Y-130299555D01*
X148206840Y-130318991D01*
X148213236Y-130340072D01*
X148216000Y-130368140D01*
X148216000Y-131831860D01*
X148213236Y-131859928D01*
X148206840Y-131881009D01*
X148196452Y-131900445D01*
X148182476Y-131917476D01*
X148165445Y-131931452D01*
X148146009Y-131941840D01*
X148124928Y-131948236D01*
X148096860Y-131951000D01*
X147633140Y-131951000D01*
X147605072Y-131948236D01*
X147583991Y-131941840D01*
X147564555Y-131931452D01*
X147547524Y-131917476D01*
X147533548Y-131900445D01*
X147523160Y-131881009D01*
X147516764Y-131859928D01*
X147514000Y-131831860D01*
X147514000Y-130368140D01*
X147516764Y-130340072D01*
X147523160Y-130318991D01*
X147533548Y-130299555D01*
X147547524Y-130282524D01*
X147564555Y-130268548D01*
X147583991Y-130258160D01*
X147605072Y-130251764D01*
X147633140Y-130249000D01*
X148096860Y-130249000D01*
X148124928Y-130251764D01*
G37*
G36*
X116829841Y-129513796D02*
G01*
X116418866Y-130749232D01*
X115468093Y-130432952D01*
X115879068Y-129197516D01*
X116829841Y-129513796D01*
G37*
G36*
X181682008Y-130429736D02*
G01*
X180731235Y-130746016D01*
X180320260Y-129510580D01*
X181271033Y-129194300D01*
X181682008Y-130429736D01*
G37*
G36*
X113698551Y-128472154D02*
G01*
X113287576Y-129707590D01*
X112336803Y-129391310D01*
X112747778Y-128155874D01*
X113698551Y-128472154D01*
G37*
G36*
X184813298Y-129388094D02*
G01*
X183862525Y-129704374D01*
X183451550Y-128468938D01*
X184402323Y-128152658D01*
X184813298Y-129388094D01*
G37*
G36*
X152871968Y-127253565D02*
G01*
X152910638Y-127265296D01*
X152946277Y-127284346D01*
X152977517Y-127309983D01*
X153003154Y-127341223D01*
X153022204Y-127376862D01*
X153033935Y-127415532D01*
X153038500Y-127461888D01*
X153038500Y-128538112D01*
X153033935Y-128584468D01*
X153022204Y-128623138D01*
X153003154Y-128658777D01*
X152977517Y-128690017D01*
X152946277Y-128715654D01*
X152910638Y-128734704D01*
X152871968Y-128746435D01*
X152825612Y-128751000D01*
X152174388Y-128751000D01*
X152128032Y-128746435D01*
X152089362Y-128734704D01*
X152053723Y-128715654D01*
X152022483Y-128690017D01*
X151996846Y-128658777D01*
X151977796Y-128623138D01*
X151966065Y-128584468D01*
X151961500Y-128538112D01*
X151961500Y-127461888D01*
X151966065Y-127415532D01*
X151977796Y-127376862D01*
X151996846Y-127341223D01*
X152022483Y-127309983D01*
X152053723Y-127284346D01*
X152089362Y-127265296D01*
X152128032Y-127253565D01*
X152174388Y-127249000D01*
X152825612Y-127249000D01*
X152871968Y-127253565D01*
G37*
G36*
X154746968Y-127253565D02*
G01*
X154785638Y-127265296D01*
X154821277Y-127284346D01*
X154852517Y-127309983D01*
X154878154Y-127341223D01*
X154897204Y-127376862D01*
X154908935Y-127415532D01*
X154913500Y-127461888D01*
X154913500Y-128538112D01*
X154908935Y-128584468D01*
X154897204Y-128623138D01*
X154878154Y-128658777D01*
X154852517Y-128690017D01*
X154821277Y-128715654D01*
X154785638Y-128734704D01*
X154746968Y-128746435D01*
X154700612Y-128751000D01*
X154049388Y-128751000D01*
X154003032Y-128746435D01*
X153964362Y-128734704D01*
X153928723Y-128715654D01*
X153897483Y-128690017D01*
X153871846Y-128658777D01*
X153852796Y-128623138D01*
X153841065Y-128584468D01*
X153836500Y-128538112D01*
X153836500Y-127461888D01*
X153841065Y-127415532D01*
X153852796Y-127376862D01*
X153871846Y-127341223D01*
X153897483Y-127309983D01*
X153928723Y-127284346D01*
X153964362Y-127265296D01*
X154003032Y-127253565D01*
X154049388Y-127249000D01*
X154700612Y-127249000D01*
X154746968Y-127253565D01*
G37*
G36*
X121336073Y-126022608D02*
G01*
X121485373Y-126052305D01*
X121649345Y-126120225D01*
X121796915Y-126218828D01*
X121922414Y-126344327D01*
X122021017Y-126491897D01*
X122088937Y-126655869D01*
X122123561Y-126829940D01*
X122123561Y-127007422D01*
X122088937Y-127181493D01*
X122021017Y-127345465D01*
X121922414Y-127493035D01*
X121796915Y-127618534D01*
X121649345Y-127717137D01*
X121485373Y-127785057D01*
X121336073Y-127814754D01*
X121311303Y-127819681D01*
X121133819Y-127819681D01*
X121109049Y-127814754D01*
X120959749Y-127785057D01*
X120795777Y-127717137D01*
X120648207Y-127618534D01*
X120522708Y-127493035D01*
X120424105Y-127345465D01*
X120356185Y-127181493D01*
X120321561Y-127007422D01*
X120321561Y-126829940D01*
X120356185Y-126655869D01*
X120424105Y-126491897D01*
X120522708Y-126344327D01*
X120648207Y-126218828D01*
X120795777Y-126120225D01*
X120959749Y-126052305D01*
X121109049Y-126022608D01*
X121133819Y-126017681D01*
X121311303Y-126017681D01*
X121336073Y-126022608D01*
G37*
G36*
X176041054Y-126019389D02*
G01*
X176190354Y-126049086D01*
X176354326Y-126117006D01*
X176501896Y-126215609D01*
X176627395Y-126341108D01*
X176725998Y-126488678D01*
X176793918Y-126652650D01*
X176828542Y-126826721D01*
X176828542Y-127004203D01*
X176793918Y-127178274D01*
X176725998Y-127342246D01*
X176627395Y-127489816D01*
X176501896Y-127615315D01*
X176354326Y-127713918D01*
X176190354Y-127781838D01*
X176041054Y-127811535D01*
X176016284Y-127816462D01*
X175838800Y-127816462D01*
X175814030Y-127811535D01*
X175664730Y-127781838D01*
X175500758Y-127713918D01*
X175353188Y-127615315D01*
X175227689Y-127489816D01*
X175129086Y-127342246D01*
X175061166Y-127178274D01*
X175026542Y-127004203D01*
X175026542Y-126826721D01*
X175061166Y-126652650D01*
X175129086Y-126488678D01*
X175227689Y-126341108D01*
X175353188Y-126215609D01*
X175500758Y-126117006D01*
X175664730Y-126049086D01*
X175814030Y-126019389D01*
X175838800Y-126014462D01*
X176016284Y-126014462D01*
X176041054Y-126019389D01*
G37*
G36*
X116401728Y-123476471D02*
G01*
X116514491Y-123498901D01*
X116646484Y-123553574D01*
X116833151Y-123630894D01*
X117119939Y-123822520D01*
X117363834Y-124066415D01*
X117555460Y-124353203D01*
X117632780Y-124539870D01*
X117687453Y-124671863D01*
X117703194Y-124751000D01*
X117754743Y-125010151D01*
X117754743Y-125355071D01*
X117687453Y-125693358D01*
X117555460Y-126012019D01*
X117363834Y-126298807D01*
X117119939Y-126542702D01*
X116833151Y-126734328D01*
X116646484Y-126811648D01*
X116514491Y-126866321D01*
X116401728Y-126888751D01*
X116176203Y-126933611D01*
X115831283Y-126933611D01*
X115605758Y-126888751D01*
X115492995Y-126866321D01*
X115361002Y-126811648D01*
X115174335Y-126734328D01*
X114887547Y-126542702D01*
X114643652Y-126298807D01*
X114452026Y-126012019D01*
X114320033Y-125693358D01*
X114252743Y-125355071D01*
X114252743Y-125010151D01*
X114304292Y-124751000D01*
X114320033Y-124671863D01*
X114374706Y-124539870D01*
X114452026Y-124353203D01*
X114643652Y-124066415D01*
X114887547Y-123822520D01*
X115174335Y-123630894D01*
X115361002Y-123553574D01*
X115492995Y-123498901D01*
X115605758Y-123476471D01*
X115831283Y-123431611D01*
X116176203Y-123431611D01*
X116401728Y-123476471D01*
G37*
G36*
X181544345Y-123473252D02*
G01*
X181657108Y-123495682D01*
X181752713Y-123535283D01*
X181975768Y-123627675D01*
X182262556Y-123819301D01*
X182506451Y-124063196D01*
X182698077Y-124349984D01*
X182699410Y-124353203D01*
X182830070Y-124668644D01*
X182839783Y-124717476D01*
X182897360Y-125006932D01*
X182897360Y-125351852D01*
X182852500Y-125577377D01*
X182830070Y-125690140D01*
X182775397Y-125822133D01*
X182698077Y-126008800D01*
X182506451Y-126295588D01*
X182262556Y-126539483D01*
X181975768Y-126731109D01*
X181789101Y-126808429D01*
X181657108Y-126863102D01*
X181544345Y-126885532D01*
X181318820Y-126930392D01*
X180973900Y-126930392D01*
X180748375Y-126885532D01*
X180635612Y-126863102D01*
X180503619Y-126808429D01*
X180316952Y-126731109D01*
X180030164Y-126539483D01*
X179786269Y-126295588D01*
X179594643Y-126008800D01*
X179517323Y-125822133D01*
X179462650Y-125690140D01*
X179440220Y-125577377D01*
X179395360Y-125351852D01*
X179395360Y-125006932D01*
X179452937Y-124717476D01*
X179462650Y-124668644D01*
X179593310Y-124353203D01*
X179594643Y-124349984D01*
X179786269Y-124063196D01*
X180030164Y-123819301D01*
X180316952Y-123627675D01*
X180540007Y-123535283D01*
X180635612Y-123495682D01*
X180748375Y-123473252D01*
X180973900Y-123428392D01*
X181318820Y-123428392D01*
X181544345Y-123473252D01*
G37*
G36*
X99750073Y-123832114D02*
G01*
X99339098Y-125067550D01*
X98388325Y-124751270D01*
X98799300Y-123515834D01*
X99750073Y-123832114D01*
G37*
G36*
X198761776Y-124748051D02*
G01*
X197811003Y-125064331D01*
X197400028Y-123828895D01*
X198350801Y-123512615D01*
X198761776Y-124748051D01*
G37*
G36*
X146854928Y-123051764D02*
G01*
X146876009Y-123058160D01*
X146895445Y-123068548D01*
X146912476Y-123082524D01*
X146926452Y-123099555D01*
X146936840Y-123118991D01*
X146943236Y-123140072D01*
X146946000Y-123168140D01*
X146946000Y-124631860D01*
X146943236Y-124659928D01*
X146936840Y-124681009D01*
X146926452Y-124700445D01*
X146912476Y-124717476D01*
X146895445Y-124731452D01*
X146876009Y-124741840D01*
X146854928Y-124748236D01*
X146826860Y-124751000D01*
X146363140Y-124751000D01*
X146335072Y-124748236D01*
X146313991Y-124741840D01*
X146294555Y-124731452D01*
X146277524Y-124717476D01*
X146263548Y-124700445D01*
X146253160Y-124681009D01*
X146246764Y-124659928D01*
X146244000Y-124631860D01*
X146244000Y-123168140D01*
X146246764Y-123140072D01*
X146253160Y-123118991D01*
X146263548Y-123099555D01*
X146277524Y-123082524D01*
X146294555Y-123068548D01*
X146313991Y-123058160D01*
X146335072Y-123051764D01*
X146363140Y-123049000D01*
X146826860Y-123049000D01*
X146854928Y-123051764D01*
G37*
G36*
X150664928Y-123051764D02*
G01*
X150686009Y-123058160D01*
X150705445Y-123068548D01*
X150722476Y-123082524D01*
X150736452Y-123099555D01*
X150746840Y-123118991D01*
X150753236Y-123140072D01*
X150756000Y-123168140D01*
X150756000Y-124631860D01*
X150753236Y-124659928D01*
X150746840Y-124681009D01*
X150736452Y-124700445D01*
X150722476Y-124717476D01*
X150705445Y-124731452D01*
X150686009Y-124741840D01*
X150664928Y-124748236D01*
X150636860Y-124751000D01*
X150173140Y-124751000D01*
X150145072Y-124748236D01*
X150123991Y-124741840D01*
X150104555Y-124731452D01*
X150087524Y-124717476D01*
X150073548Y-124700445D01*
X150063160Y-124681009D01*
X150056764Y-124659928D01*
X150054000Y-124631860D01*
X150054000Y-123168140D01*
X150056764Y-123140072D01*
X150063160Y-123118991D01*
X150073548Y-123099555D01*
X150087524Y-123082524D01*
X150104555Y-123068548D01*
X150123991Y-123058160D01*
X150145072Y-123051764D01*
X150173140Y-123049000D01*
X150636860Y-123049000D01*
X150664928Y-123051764D01*
G37*
G36*
X149394928Y-123051764D02*
G01*
X149416009Y-123058160D01*
X149435445Y-123068548D01*
X149452476Y-123082524D01*
X149466452Y-123099555D01*
X149476840Y-123118991D01*
X149483236Y-123140072D01*
X149486000Y-123168140D01*
X149486000Y-124631860D01*
X149483236Y-124659928D01*
X149476840Y-124681009D01*
X149466452Y-124700445D01*
X149452476Y-124717476D01*
X149435445Y-124731452D01*
X149416009Y-124741840D01*
X149394928Y-124748236D01*
X149366860Y-124751000D01*
X148903140Y-124751000D01*
X148875072Y-124748236D01*
X148853991Y-124741840D01*
X148834555Y-124731452D01*
X148817524Y-124717476D01*
X148803548Y-124700445D01*
X148793160Y-124681009D01*
X148786764Y-124659928D01*
X148784000Y-124631860D01*
X148784000Y-123168140D01*
X148786764Y-123140072D01*
X148793160Y-123118991D01*
X148803548Y-123099555D01*
X148817524Y-123082524D01*
X148834555Y-123068548D01*
X148853991Y-123058160D01*
X148875072Y-123051764D01*
X148903140Y-123049000D01*
X149366860Y-123049000D01*
X149394928Y-123051764D01*
G37*
G36*
X148124928Y-123051764D02*
G01*
X148146009Y-123058160D01*
X148165445Y-123068548D01*
X148182476Y-123082524D01*
X148196452Y-123099555D01*
X148206840Y-123118991D01*
X148213236Y-123140072D01*
X148216000Y-123168140D01*
X148216000Y-124631860D01*
X148213236Y-124659928D01*
X148206840Y-124681009D01*
X148196452Y-124700445D01*
X148182476Y-124717476D01*
X148165445Y-124731452D01*
X148146009Y-124741840D01*
X148124928Y-124748236D01*
X148096860Y-124751000D01*
X147633140Y-124751000D01*
X147605072Y-124748236D01*
X147583991Y-124741840D01*
X147564555Y-124731452D01*
X147547524Y-124717476D01*
X147533548Y-124700445D01*
X147523160Y-124681009D01*
X147516764Y-124659928D01*
X147514000Y-124631860D01*
X147514000Y-123168140D01*
X147516764Y-123140072D01*
X147523160Y-123118991D01*
X147533548Y-123099555D01*
X147547524Y-123082524D01*
X147564555Y-123068548D01*
X147583991Y-123058160D01*
X147605072Y-123051764D01*
X147633140Y-123049000D01*
X148096860Y-123049000D01*
X148124928Y-123051764D01*
G37*
G36*
X110898437Y-122550468D02*
G01*
X111047737Y-122580165D01*
X111211709Y-122648085D01*
X111359279Y-122746688D01*
X111484778Y-122872187D01*
X111583381Y-123019757D01*
X111651301Y-123183729D01*
X111685925Y-123357800D01*
X111685925Y-123535282D01*
X111651301Y-123709353D01*
X111583381Y-123873325D01*
X111484778Y-124020895D01*
X111359279Y-124146394D01*
X111211709Y-124244997D01*
X111047737Y-124312917D01*
X110898437Y-124342614D01*
X110873667Y-124347541D01*
X110696183Y-124347541D01*
X110671413Y-124342614D01*
X110522113Y-124312917D01*
X110358141Y-124244997D01*
X110210571Y-124146394D01*
X110085072Y-124020895D01*
X109986469Y-123873325D01*
X109918549Y-123709353D01*
X109883925Y-123535282D01*
X109883925Y-123357800D01*
X109918549Y-123183729D01*
X109986469Y-123019757D01*
X110085072Y-122872187D01*
X110210571Y-122746688D01*
X110358141Y-122648085D01*
X110522113Y-122580165D01*
X110671413Y-122550468D01*
X110696183Y-122545541D01*
X110873667Y-122545541D01*
X110898437Y-122550468D01*
G37*
G36*
X186478690Y-122547249D02*
G01*
X186627990Y-122576946D01*
X186791962Y-122644866D01*
X186939532Y-122743469D01*
X187065031Y-122868968D01*
X187163634Y-123016538D01*
X187231554Y-123180510D01*
X187266178Y-123354581D01*
X187266178Y-123532063D01*
X187231554Y-123706134D01*
X187163634Y-123870106D01*
X187065031Y-124017676D01*
X186939532Y-124143175D01*
X186791962Y-124241778D01*
X186627990Y-124309698D01*
X186478690Y-124339395D01*
X186453920Y-124344322D01*
X186276436Y-124344322D01*
X186251666Y-124339395D01*
X186102366Y-124309698D01*
X185938394Y-124241778D01*
X185790824Y-124143175D01*
X185665325Y-124017676D01*
X185566722Y-123870106D01*
X185498802Y-123706134D01*
X185464178Y-123532063D01*
X185464178Y-123354581D01*
X185498802Y-123180510D01*
X185566722Y-123016538D01*
X185665325Y-122868968D01*
X185790824Y-122743469D01*
X185938394Y-122644866D01*
X186102366Y-122576946D01*
X186251666Y-122547249D01*
X186276436Y-122542322D01*
X186453920Y-122542322D01*
X186478690Y-122547249D01*
G37*
G36*
X96618783Y-122790472D02*
G01*
X96207808Y-124025908D01*
X95257035Y-123709628D01*
X95668010Y-122474192D01*
X96618783Y-122790472D01*
G37*
G36*
X201893066Y-123706409D02*
G01*
X200942293Y-124022689D01*
X200531318Y-122787253D01*
X201482091Y-122470973D01*
X201893066Y-123706409D01*
G37*
G36*
X104256309Y-120340923D02*
G01*
X104405609Y-120370620D01*
X104569581Y-120438540D01*
X104717151Y-120537143D01*
X104842650Y-120662642D01*
X104941253Y-120810212D01*
X105009173Y-120974184D01*
X105043797Y-121148255D01*
X105043797Y-121325737D01*
X105009173Y-121499808D01*
X104941253Y-121663780D01*
X104842650Y-121811350D01*
X104717151Y-121936849D01*
X104569581Y-122035452D01*
X104405609Y-122103372D01*
X104256309Y-122133069D01*
X104231539Y-122137996D01*
X104054055Y-122137996D01*
X104029285Y-122133069D01*
X103879985Y-122103372D01*
X103716013Y-122035452D01*
X103568443Y-121936849D01*
X103442944Y-121811350D01*
X103344341Y-121663780D01*
X103276421Y-121499808D01*
X103241797Y-121325737D01*
X103241797Y-121148255D01*
X103276421Y-120974184D01*
X103344341Y-120810212D01*
X103442944Y-120662642D01*
X103568443Y-120537143D01*
X103716013Y-120438540D01*
X103879985Y-120370620D01*
X104029285Y-120340923D01*
X104054055Y-120335996D01*
X104231539Y-120335996D01*
X104256309Y-120340923D01*
G37*
G36*
X193120822Y-120337709D02*
G01*
X193270122Y-120367406D01*
X193434094Y-120435326D01*
X193581664Y-120533929D01*
X193707163Y-120659428D01*
X193805766Y-120806998D01*
X193873686Y-120970970D01*
X193908310Y-121145041D01*
X193908310Y-121322523D01*
X193873686Y-121496594D01*
X193805766Y-121660566D01*
X193707163Y-121808136D01*
X193581664Y-121933635D01*
X193434094Y-122032238D01*
X193270122Y-122100158D01*
X193120822Y-122129855D01*
X193096052Y-122134782D01*
X192918568Y-122134782D01*
X192893798Y-122129855D01*
X192744498Y-122100158D01*
X192580526Y-122032238D01*
X192432956Y-121933635D01*
X192307457Y-121808136D01*
X192208854Y-121660566D01*
X192140934Y-121496594D01*
X192106310Y-121322523D01*
X192106310Y-121145041D01*
X192140934Y-120970970D01*
X192208854Y-120806998D01*
X192307457Y-120659428D01*
X192432956Y-120533929D01*
X192580526Y-120435326D01*
X192744498Y-120367406D01*
X192893798Y-120337709D01*
X192918568Y-120332782D01*
X193096052Y-120332782D01*
X193120822Y-120337709D01*
G37*
G36*
X158584468Y-120903565D02*
G01*
X158623138Y-120915296D01*
X158658777Y-120934346D01*
X158690017Y-120959983D01*
X158715654Y-120991223D01*
X158734704Y-121026862D01*
X158746435Y-121065532D01*
X158751000Y-121111888D01*
X158751000Y-121763112D01*
X158746435Y-121809468D01*
X158734704Y-121848138D01*
X158715654Y-121883777D01*
X158690017Y-121915017D01*
X158658777Y-121940654D01*
X158623138Y-121959704D01*
X158584468Y-121971435D01*
X158538112Y-121976000D01*
X157461888Y-121976000D01*
X157415532Y-121971435D01*
X157376862Y-121959704D01*
X157341223Y-121940654D01*
X157309983Y-121915017D01*
X157284346Y-121883777D01*
X157265296Y-121848138D01*
X157253565Y-121809468D01*
X157249000Y-121763112D01*
X157249000Y-121111888D01*
X157253565Y-121065532D01*
X157265296Y-121026862D01*
X157284346Y-120991223D01*
X157309983Y-120959983D01*
X157341223Y-120934346D01*
X157376862Y-120915296D01*
X157415532Y-120903565D01*
X157461888Y-120899000D01*
X158538112Y-120899000D01*
X158584468Y-120903565D01*
G37*
G36*
X99321964Y-117794786D02*
G01*
X99434727Y-117817216D01*
X99566720Y-117871889D01*
X99753387Y-117949209D01*
X100040175Y-118140835D01*
X100284070Y-118384730D01*
X100475696Y-118671518D01*
X100553016Y-118858185D01*
X100607689Y-118990178D01*
X100615325Y-119028565D01*
X100674340Y-119325252D01*
X100674979Y-119328468D01*
X100674979Y-119673384D01*
X100607689Y-120011674D01*
X100579178Y-120080505D01*
X100475696Y-120330334D01*
X100284070Y-120617122D01*
X100040175Y-120861017D01*
X99753387Y-121052643D01*
X99610356Y-121111888D01*
X99434727Y-121184636D01*
X99321964Y-121207066D01*
X99096439Y-121251926D01*
X98751519Y-121251926D01*
X98525994Y-121207066D01*
X98413231Y-121184636D01*
X98237602Y-121111888D01*
X98094571Y-121052643D01*
X97807783Y-120861017D01*
X97563888Y-120617122D01*
X97372262Y-120330334D01*
X97268780Y-120080505D01*
X97240269Y-120011674D01*
X97172979Y-119673384D01*
X97172979Y-119328468D01*
X97173619Y-119325252D01*
X97232633Y-119028565D01*
X97240269Y-118990178D01*
X97294942Y-118858185D01*
X97372262Y-118671518D01*
X97563888Y-118384730D01*
X97807783Y-118140835D01*
X98094571Y-117949209D01*
X98281238Y-117871889D01*
X98413231Y-117817216D01*
X98525994Y-117794786D01*
X98751519Y-117749926D01*
X99096439Y-117749926D01*
X99321964Y-117794786D01*
G37*
G36*
X198624113Y-117791572D02*
G01*
X198736876Y-117814002D01*
X198832469Y-117853598D01*
X199055536Y-117945995D01*
X199342324Y-118137621D01*
X199586219Y-118381516D01*
X199777845Y-118668304D01*
X199779176Y-118671518D01*
X199909838Y-118986964D01*
X199917205Y-119024000D01*
X199977128Y-119325252D01*
X199977128Y-119670172D01*
X199944988Y-119831750D01*
X199909838Y-120008460D01*
X199855165Y-120140453D01*
X199777845Y-120327120D01*
X199586219Y-120613908D01*
X199342324Y-120857803D01*
X199055536Y-121049429D01*
X198868869Y-121126749D01*
X198736876Y-121181422D01*
X198624113Y-121203852D01*
X198398588Y-121248712D01*
X198053668Y-121248712D01*
X197828143Y-121203852D01*
X197715380Y-121181422D01*
X197583387Y-121126749D01*
X197396720Y-121049429D01*
X197109932Y-120857803D01*
X196866037Y-120613908D01*
X196674411Y-120327120D01*
X196597091Y-120140453D01*
X196542418Y-120008460D01*
X196507268Y-119831750D01*
X196475128Y-119670172D01*
X196475128Y-119325252D01*
X196535051Y-119024000D01*
X196542418Y-118986964D01*
X196673080Y-118671518D01*
X196674411Y-118668304D01*
X196866037Y-118381516D01*
X197109932Y-118137621D01*
X197396720Y-117945995D01*
X197619787Y-117853598D01*
X197715380Y-117814002D01*
X197828143Y-117791572D01*
X198053668Y-117746712D01*
X198398588Y-117746712D01*
X198624113Y-117791572D01*
G37*
G36*
X158584468Y-119028565D02*
G01*
X158623138Y-119040296D01*
X158658777Y-119059346D01*
X158690017Y-119084983D01*
X158715654Y-119116223D01*
X158734704Y-119151862D01*
X158746435Y-119190532D01*
X158751000Y-119236888D01*
X158751000Y-119888112D01*
X158746435Y-119934468D01*
X158734704Y-119973138D01*
X158715654Y-120008777D01*
X158690017Y-120040017D01*
X158658777Y-120065654D01*
X158623138Y-120084704D01*
X158584468Y-120096435D01*
X158538112Y-120101000D01*
X157461888Y-120101000D01*
X157415532Y-120096435D01*
X157376862Y-120084704D01*
X157341223Y-120065654D01*
X157309983Y-120040017D01*
X157284346Y-120008777D01*
X157265296Y-119973138D01*
X157253565Y-119934468D01*
X157249000Y-119888112D01*
X157249000Y-119236888D01*
X157253565Y-119190532D01*
X157265296Y-119151862D01*
X157284346Y-119116223D01*
X157309983Y-119084983D01*
X157341223Y-119059346D01*
X157376862Y-119040296D01*
X157415532Y-119028565D01*
X157461888Y-119024000D01*
X158538112Y-119024000D01*
X158584468Y-119028565D01*
G37*
G36*
X82670305Y-118150432D02*
G01*
X82259330Y-119385868D01*
X81308557Y-119069588D01*
X81719532Y-117834152D01*
X82670305Y-118150432D01*
G37*
G36*
X215841545Y-119066371D02*
G01*
X214890772Y-119382651D01*
X214479797Y-118147215D01*
X215430570Y-117830935D01*
X215841545Y-119066371D01*
G37*
G36*
X93818673Y-116868783D02*
G01*
X93967973Y-116898480D01*
X94131945Y-116966400D01*
X94279515Y-117065003D01*
X94405014Y-117190502D01*
X94503617Y-117338072D01*
X94571537Y-117502044D01*
X94606161Y-117676115D01*
X94606161Y-117853597D01*
X94571537Y-118027668D01*
X94503617Y-118191640D01*
X94405014Y-118339210D01*
X94279515Y-118464709D01*
X94131945Y-118563312D01*
X93967973Y-118631232D01*
X93818673Y-118660929D01*
X93793903Y-118665856D01*
X93616419Y-118665856D01*
X93591649Y-118660929D01*
X93442349Y-118631232D01*
X93278377Y-118563312D01*
X93130807Y-118464709D01*
X93005308Y-118339210D01*
X92906705Y-118191640D01*
X92838785Y-118027668D01*
X92804161Y-117853597D01*
X92804161Y-117676115D01*
X92838785Y-117502044D01*
X92906705Y-117338072D01*
X93005308Y-117190502D01*
X93130807Y-117065003D01*
X93278377Y-116966400D01*
X93442349Y-116898480D01*
X93591649Y-116868783D01*
X93616419Y-116863856D01*
X93793903Y-116863856D01*
X93818673Y-116868783D01*
G37*
G36*
X203558458Y-116865569D02*
G01*
X203707758Y-116895266D01*
X203871730Y-116963186D01*
X204019300Y-117061789D01*
X204144799Y-117187288D01*
X204243402Y-117334858D01*
X204311322Y-117498830D01*
X204345946Y-117672901D01*
X204345946Y-117850383D01*
X204311322Y-118024454D01*
X204243402Y-118188426D01*
X204144799Y-118335996D01*
X204019300Y-118461495D01*
X203871730Y-118560098D01*
X203707758Y-118628018D01*
X203558458Y-118657715D01*
X203533688Y-118662642D01*
X203356204Y-118662642D01*
X203331434Y-118657715D01*
X203182134Y-118628018D01*
X203018162Y-118560098D01*
X202870592Y-118461495D01*
X202745093Y-118335996D01*
X202646490Y-118188426D01*
X202578570Y-118024454D01*
X202543946Y-117850383D01*
X202543946Y-117672901D01*
X202578570Y-117498830D01*
X202646490Y-117334858D01*
X202745093Y-117187288D01*
X202870592Y-117061789D01*
X203018162Y-116963186D01*
X203182134Y-116895266D01*
X203331434Y-116865569D01*
X203356204Y-116860642D01*
X203533688Y-116860642D01*
X203558458Y-116865569D01*
G37*
G36*
X79539015Y-117108790D02*
G01*
X79128040Y-118344226D01*
X78177267Y-118027946D01*
X78588242Y-116792510D01*
X79539015Y-117108790D01*
G37*
G36*
X218972835Y-118024729D02*
G01*
X218022062Y-118341009D01*
X217611087Y-117105573D01*
X218561860Y-116789293D01*
X218972835Y-118024729D01*
G37*
G36*
X87176539Y-114659237D02*
G01*
X87325839Y-114688934D01*
X87489811Y-114756854D01*
X87637381Y-114855457D01*
X87762880Y-114980956D01*
X87861483Y-115128526D01*
X87929403Y-115292498D01*
X87964027Y-115466569D01*
X87964027Y-115644051D01*
X87929403Y-115818122D01*
X87861483Y-115982094D01*
X87762880Y-116129664D01*
X87637381Y-116255163D01*
X87489811Y-116353766D01*
X87325839Y-116421686D01*
X87176539Y-116451383D01*
X87151769Y-116456310D01*
X86974285Y-116456310D01*
X86949515Y-116451383D01*
X86800215Y-116421686D01*
X86636243Y-116353766D01*
X86488673Y-116255163D01*
X86363174Y-116129664D01*
X86264571Y-115982094D01*
X86196651Y-115818122D01*
X86162027Y-115644051D01*
X86162027Y-115466569D01*
X86196651Y-115292498D01*
X86264571Y-115128526D01*
X86363174Y-114980956D01*
X86488673Y-114855457D01*
X86636243Y-114756854D01*
X86800215Y-114688934D01*
X86949515Y-114659237D01*
X86974285Y-114654310D01*
X87151769Y-114654310D01*
X87176539Y-114659237D01*
G37*
G36*
X210200594Y-114656026D02*
G01*
X210349894Y-114685723D01*
X210513866Y-114753643D01*
X210661436Y-114852246D01*
X210786935Y-114977745D01*
X210885538Y-115125315D01*
X210953458Y-115289287D01*
X210988082Y-115463358D01*
X210988082Y-115640840D01*
X210953458Y-115814911D01*
X210885538Y-115978883D01*
X210786935Y-116126453D01*
X210661436Y-116251952D01*
X210513866Y-116350555D01*
X210349894Y-116418475D01*
X210200594Y-116448172D01*
X210175824Y-116453099D01*
X209998340Y-116453099D01*
X209973570Y-116448172D01*
X209824270Y-116418475D01*
X209660298Y-116350555D01*
X209512728Y-116251952D01*
X209387229Y-116126453D01*
X209288626Y-115978883D01*
X209220706Y-115814911D01*
X209186082Y-115640840D01*
X209186082Y-115463358D01*
X209220706Y-115289287D01*
X209288626Y-115125315D01*
X209387229Y-114977745D01*
X209512728Y-114852246D01*
X209660298Y-114753643D01*
X209824270Y-114685723D01*
X209973570Y-114656026D01*
X209998340Y-114651099D01*
X210175824Y-114651099D01*
X210200594Y-114656026D01*
G37*
G36*
X160309468Y-114753565D02*
G01*
X160348138Y-114765296D01*
X160383777Y-114784346D01*
X160415017Y-114809983D01*
X160440654Y-114841223D01*
X160459704Y-114876862D01*
X160471435Y-114915532D01*
X160476000Y-114961888D01*
X160476000Y-116038112D01*
X160471435Y-116084468D01*
X160459704Y-116123138D01*
X160440654Y-116158777D01*
X160415017Y-116190017D01*
X160383777Y-116215654D01*
X160348138Y-116234704D01*
X160309468Y-116246435D01*
X160263112Y-116251000D01*
X159611888Y-116251000D01*
X159565532Y-116246435D01*
X159526862Y-116234704D01*
X159491223Y-116215654D01*
X159459983Y-116190017D01*
X159434346Y-116158777D01*
X159415296Y-116123138D01*
X159403565Y-116084468D01*
X159399000Y-116038112D01*
X159399000Y-114961888D01*
X159403565Y-114915532D01*
X159415296Y-114876862D01*
X159434346Y-114841223D01*
X159459983Y-114809983D01*
X159491223Y-114784346D01*
X159526862Y-114765296D01*
X159565532Y-114753565D01*
X159611888Y-114749000D01*
X160263112Y-114749000D01*
X160309468Y-114753565D01*
G37*
G36*
X158434468Y-114753565D02*
G01*
X158473138Y-114765296D01*
X158508777Y-114784346D01*
X158540017Y-114809983D01*
X158565654Y-114841223D01*
X158584704Y-114876862D01*
X158596435Y-114915532D01*
X158601000Y-114961888D01*
X158601000Y-116038112D01*
X158596435Y-116084468D01*
X158584704Y-116123138D01*
X158565654Y-116158777D01*
X158540017Y-116190017D01*
X158508777Y-116215654D01*
X158473138Y-116234704D01*
X158434468Y-116246435D01*
X158388112Y-116251000D01*
X157736888Y-116251000D01*
X157690532Y-116246435D01*
X157651862Y-116234704D01*
X157616223Y-116215654D01*
X157584983Y-116190017D01*
X157559346Y-116158777D01*
X157540296Y-116123138D01*
X157528565Y-116084468D01*
X157524000Y-116038112D01*
X157524000Y-114961888D01*
X157528565Y-114915532D01*
X157540296Y-114876862D01*
X157559346Y-114841223D01*
X157584983Y-114809983D01*
X157616223Y-114784346D01*
X157651862Y-114765296D01*
X157690532Y-114753565D01*
X157736888Y-114749000D01*
X158388112Y-114749000D01*
X158434468Y-114753565D01*
G37*
G36*
X82242194Y-112113100D02*
G01*
X82354957Y-112135530D01*
X82486950Y-112190203D01*
X82673617Y-112267523D01*
X82960405Y-112459149D01*
X83204300Y-112703044D01*
X83395926Y-112989832D01*
X83527919Y-113308493D01*
X83594571Y-113643571D01*
X83595209Y-113646782D01*
X83595209Y-113991698D01*
X83527919Y-114329988D01*
X83491692Y-114417448D01*
X83395926Y-114648648D01*
X83204300Y-114935436D01*
X82960405Y-115179331D01*
X82673617Y-115370957D01*
X82486950Y-115448277D01*
X82354957Y-115502950D01*
X82242194Y-115525380D01*
X82016669Y-115570240D01*
X81671749Y-115570240D01*
X81446224Y-115525380D01*
X81333461Y-115502950D01*
X81201468Y-115448277D01*
X81014801Y-115370957D01*
X80728013Y-115179331D01*
X80484118Y-114935436D01*
X80292492Y-114648648D01*
X80196726Y-114417448D01*
X80160499Y-114329988D01*
X80093209Y-113991698D01*
X80093209Y-113646782D01*
X80093848Y-113643571D01*
X80160499Y-113308493D01*
X80292492Y-112989832D01*
X80484118Y-112703044D01*
X80728013Y-112459149D01*
X81014801Y-112267523D01*
X81201468Y-112190203D01*
X81333461Y-112135530D01*
X81446224Y-112113100D01*
X81671749Y-112068240D01*
X82016669Y-112068240D01*
X82242194Y-112113100D01*
G37*
G36*
X215703885Y-112109889D02*
G01*
X215816648Y-112132319D01*
X215948641Y-112186992D01*
X216135308Y-112264312D01*
X216422096Y-112455938D01*
X216665991Y-112699833D01*
X216857617Y-112986621D01*
X216989610Y-113305282D01*
X217056900Y-113643569D01*
X217056900Y-113988489D01*
X217056261Y-113991700D01*
X216989610Y-114326777D01*
X216953659Y-114413569D01*
X216857617Y-114645437D01*
X216665991Y-114932225D01*
X216422096Y-115176120D01*
X216135308Y-115367746D01*
X215948641Y-115445066D01*
X215816648Y-115499739D01*
X215703885Y-115522169D01*
X215478360Y-115567029D01*
X215133440Y-115567029D01*
X214907915Y-115522169D01*
X214795152Y-115499739D01*
X214663159Y-115445066D01*
X214476492Y-115367746D01*
X214189704Y-115176120D01*
X213945809Y-114932225D01*
X213754183Y-114645437D01*
X213658141Y-114413569D01*
X213622190Y-114326777D01*
X213555539Y-113991700D01*
X213554900Y-113988489D01*
X213554900Y-113643569D01*
X213622190Y-113305282D01*
X213754183Y-112986621D01*
X213945809Y-112699833D01*
X214189704Y-112455938D01*
X214476492Y-112264312D01*
X214663159Y-112186992D01*
X214795152Y-112132319D01*
X214907915Y-112109889D01*
X215133440Y-112065029D01*
X215478360Y-112065029D01*
X215703885Y-112109889D01*
G37*
G36*
X142554591Y-113478085D02*
G01*
X142588569Y-113488393D01*
X142619890Y-113505134D01*
X142647339Y-113527661D01*
X142669866Y-113555110D01*
X142686607Y-113586431D01*
X142696915Y-113620409D01*
X142701000Y-113661890D01*
X142701000Y-114338110D01*
X142696915Y-114379591D01*
X142686607Y-114413569D01*
X142669866Y-114444890D01*
X142647339Y-114472339D01*
X142619890Y-114494866D01*
X142588569Y-114511607D01*
X142554591Y-114521915D01*
X142513110Y-114526000D01*
X141911890Y-114526000D01*
X141870409Y-114521915D01*
X141836431Y-114511607D01*
X141805110Y-114494866D01*
X141777661Y-114472339D01*
X141755134Y-114444890D01*
X141738393Y-114413569D01*
X141728085Y-114379591D01*
X141724000Y-114338110D01*
X141724000Y-113661890D01*
X141728085Y-113620409D01*
X141738393Y-113586431D01*
X141755134Y-113555110D01*
X141777661Y-113527661D01*
X141805110Y-113505134D01*
X141836431Y-113488393D01*
X141870409Y-113478085D01*
X141911890Y-113474000D01*
X142513110Y-113474000D01*
X142554591Y-113478085D01*
G37*
G36*
X144129591Y-113478085D02*
G01*
X144163569Y-113488393D01*
X144194890Y-113505134D01*
X144222339Y-113527661D01*
X144244866Y-113555110D01*
X144261607Y-113586431D01*
X144271915Y-113620409D01*
X144276000Y-113661890D01*
X144276000Y-114338110D01*
X144271915Y-114379591D01*
X144261607Y-114413569D01*
X144244866Y-114444890D01*
X144222339Y-114472339D01*
X144194890Y-114494866D01*
X144163569Y-114511607D01*
X144129591Y-114521915D01*
X144088110Y-114526000D01*
X143486890Y-114526000D01*
X143445409Y-114521915D01*
X143411431Y-114511607D01*
X143380110Y-114494866D01*
X143352661Y-114472339D01*
X143330134Y-114444890D01*
X143313393Y-114413569D01*
X143303085Y-114379591D01*
X143299000Y-114338110D01*
X143299000Y-113661890D01*
X143303085Y-113620409D01*
X143313393Y-113586431D01*
X143330134Y-113555110D01*
X143352661Y-113527661D01*
X143380110Y-113505134D01*
X143411431Y-113488393D01*
X143445409Y-113478085D01*
X143486890Y-113474000D01*
X144088110Y-113474000D01*
X144129591Y-113478085D01*
G37*
G36*
X76738903Y-111187097D02*
G01*
X76888203Y-111216794D01*
X77052175Y-111284714D01*
X77199745Y-111383317D01*
X77325244Y-111508816D01*
X77423847Y-111656386D01*
X77491767Y-111820358D01*
X77526391Y-111994429D01*
X77526391Y-112171911D01*
X77491767Y-112345982D01*
X77423847Y-112509954D01*
X77325244Y-112657524D01*
X77199745Y-112783023D01*
X77052175Y-112881626D01*
X76888203Y-112949546D01*
X76738903Y-112979243D01*
X76714133Y-112984170D01*
X76536649Y-112984170D01*
X76511879Y-112979243D01*
X76362579Y-112949546D01*
X76198607Y-112881626D01*
X76051037Y-112783023D01*
X75925538Y-112657524D01*
X75826935Y-112509954D01*
X75759015Y-112345982D01*
X75724391Y-112171911D01*
X75724391Y-111994429D01*
X75759015Y-111820358D01*
X75826935Y-111656386D01*
X75925538Y-111508816D01*
X76051037Y-111383317D01*
X76198607Y-111284714D01*
X76362579Y-111216794D01*
X76511879Y-111187097D01*
X76536649Y-111182170D01*
X76714133Y-111182170D01*
X76738903Y-111187097D01*
G37*
G36*
X220638230Y-111183886D02*
G01*
X220787530Y-111213583D01*
X220951502Y-111281503D01*
X221099072Y-111380106D01*
X221224571Y-111505605D01*
X221323174Y-111653175D01*
X221391094Y-111817147D01*
X221425718Y-111991218D01*
X221425718Y-112168700D01*
X221391094Y-112342771D01*
X221323174Y-112506743D01*
X221224571Y-112654313D01*
X221099072Y-112779812D01*
X220951502Y-112878415D01*
X220787530Y-112946335D01*
X220638230Y-112976032D01*
X220613460Y-112980959D01*
X220435976Y-112980959D01*
X220411206Y-112976032D01*
X220261906Y-112946335D01*
X220097934Y-112878415D01*
X219950364Y-112779812D01*
X219824865Y-112654313D01*
X219726262Y-112506743D01*
X219658342Y-112342771D01*
X219623718Y-112168700D01*
X219623718Y-111991218D01*
X219658342Y-111817147D01*
X219726262Y-111653175D01*
X219824865Y-111505605D01*
X219950364Y-111380106D01*
X220097934Y-111281503D01*
X220261906Y-111213583D01*
X220411206Y-111183886D01*
X220435976Y-111178959D01*
X220613460Y-111178959D01*
X220638230Y-111183886D01*
G37*
G36*
X155434468Y-111253565D02*
G01*
X155473138Y-111265296D01*
X155508777Y-111284346D01*
X155540017Y-111309983D01*
X155565654Y-111341223D01*
X155584704Y-111376862D01*
X155596435Y-111415532D01*
X155601000Y-111461888D01*
X155601000Y-112538112D01*
X155596435Y-112584468D01*
X155584704Y-112623138D01*
X155565654Y-112658777D01*
X155540017Y-112690017D01*
X155508777Y-112715654D01*
X155473138Y-112734704D01*
X155434468Y-112746435D01*
X155388112Y-112751000D01*
X154736888Y-112751000D01*
X154690532Y-112746435D01*
X154651862Y-112734704D01*
X154616223Y-112715654D01*
X154584983Y-112690017D01*
X154559346Y-112658777D01*
X154540296Y-112623138D01*
X154528565Y-112584468D01*
X154524000Y-112538112D01*
X154524000Y-111461888D01*
X154528565Y-111415532D01*
X154540296Y-111376862D01*
X154559346Y-111341223D01*
X154584983Y-111309983D01*
X154616223Y-111284346D01*
X154651862Y-111265296D01*
X154690532Y-111253565D01*
X154736888Y-111249000D01*
X155388112Y-111249000D01*
X155434468Y-111253565D01*
G37*
G36*
X157309468Y-111253565D02*
G01*
X157348138Y-111265296D01*
X157383777Y-111284346D01*
X157415017Y-111309983D01*
X157440654Y-111341223D01*
X157459704Y-111376862D01*
X157471435Y-111415532D01*
X157476000Y-111461888D01*
X157476000Y-112538112D01*
X157471435Y-112584468D01*
X157459704Y-112623138D01*
X157440654Y-112658777D01*
X157415017Y-112690017D01*
X157383777Y-112715654D01*
X157348138Y-112734704D01*
X157309468Y-112746435D01*
X157263112Y-112751000D01*
X156611888Y-112751000D01*
X156565532Y-112746435D01*
X156526862Y-112734704D01*
X156491223Y-112715654D01*
X156459983Y-112690017D01*
X156434346Y-112658777D01*
X156415296Y-112623138D01*
X156403565Y-112584468D01*
X156399000Y-112538112D01*
X156399000Y-111461888D01*
X156403565Y-111415532D01*
X156415296Y-111376862D01*
X156434346Y-111341223D01*
X156459983Y-111309983D01*
X156491223Y-111284346D01*
X156526862Y-111265296D01*
X156565532Y-111253565D01*
X156611888Y-111249000D01*
X157263112Y-111249000D01*
X157309468Y-111253565D01*
G37*
G36*
X159501000Y-112401000D02*
G01*
X158499000Y-112401000D01*
X158499000Y-111499000D01*
X159501000Y-111499000D01*
X159501000Y-112401000D01*
G37*
G36*
X151326000Y-112001000D02*
G01*
X142674000Y-112001000D01*
X142674000Y-110399000D01*
X151326000Y-110399000D01*
X151326000Y-112001000D01*
G37*
G36*
X161501000Y-111451000D02*
G01*
X160499000Y-111451000D01*
X160499000Y-110549000D01*
X161501000Y-110549000D01*
X161501000Y-111451000D01*
G37*
G36*
X134629591Y-109478085D02*
G01*
X134663569Y-109488393D01*
X134694890Y-109505134D01*
X134722339Y-109527661D01*
X134744866Y-109555110D01*
X134761607Y-109586431D01*
X134771915Y-109620409D01*
X134776000Y-109661890D01*
X134776000Y-110338110D01*
X134771915Y-110379591D01*
X134761607Y-110413569D01*
X134744866Y-110444890D01*
X134722339Y-110472339D01*
X134694890Y-110494866D01*
X134663569Y-110511607D01*
X134629591Y-110521915D01*
X134588110Y-110526000D01*
X133986890Y-110526000D01*
X133945409Y-110521915D01*
X133911431Y-110511607D01*
X133880110Y-110494866D01*
X133852661Y-110472339D01*
X133830134Y-110444890D01*
X133813393Y-110413569D01*
X133803085Y-110379591D01*
X133799000Y-110338110D01*
X133799000Y-109661890D01*
X133803085Y-109620409D01*
X133813393Y-109586431D01*
X133830134Y-109555110D01*
X133852661Y-109527661D01*
X133880110Y-109505134D01*
X133911431Y-109488393D01*
X133945409Y-109478085D01*
X133986890Y-109474000D01*
X134588110Y-109474000D01*
X134629591Y-109478085D01*
G37*
G36*
X133054591Y-109478085D02*
G01*
X133088569Y-109488393D01*
X133119890Y-109505134D01*
X133147339Y-109527661D01*
X133169866Y-109555110D01*
X133186607Y-109586431D01*
X133196915Y-109620409D01*
X133201000Y-109661890D01*
X133201000Y-110338110D01*
X133196915Y-110379591D01*
X133186607Y-110413569D01*
X133169866Y-110444890D01*
X133147339Y-110472339D01*
X133119890Y-110494866D01*
X133088569Y-110511607D01*
X133054591Y-110521915D01*
X133013110Y-110526000D01*
X132411890Y-110526000D01*
X132370409Y-110521915D01*
X132336431Y-110511607D01*
X132305110Y-110494866D01*
X132277661Y-110472339D01*
X132255134Y-110444890D01*
X132238393Y-110413569D01*
X132228085Y-110379591D01*
X132224000Y-110338110D01*
X132224000Y-109661890D01*
X132228085Y-109620409D01*
X132238393Y-109586431D01*
X132255134Y-109555110D01*
X132277661Y-109527661D01*
X132305110Y-109505134D01*
X132336431Y-109488393D01*
X132370409Y-109478085D01*
X132411890Y-109474000D01*
X133013110Y-109474000D01*
X133054591Y-109478085D01*
G37*
G36*
X159501000Y-110501000D02*
G01*
X158499000Y-110501000D01*
X158499000Y-109599000D01*
X159501000Y-109599000D01*
X159501000Y-110501000D01*
G37*
G36*
X156584468Y-109403565D02*
G01*
X156623138Y-109415296D01*
X156658777Y-109434346D01*
X156690017Y-109459983D01*
X156715654Y-109491223D01*
X156734704Y-109526862D01*
X156746435Y-109565532D01*
X156751000Y-109611888D01*
X156751000Y-110263112D01*
X156746435Y-110309468D01*
X156734704Y-110348138D01*
X156715654Y-110383777D01*
X156690017Y-110415017D01*
X156658777Y-110440654D01*
X156623138Y-110459704D01*
X156584468Y-110471435D01*
X156538112Y-110476000D01*
X155461888Y-110476000D01*
X155415532Y-110471435D01*
X155376862Y-110459704D01*
X155341223Y-110440654D01*
X155309983Y-110415017D01*
X155284346Y-110383777D01*
X155265296Y-110348138D01*
X155253565Y-110309468D01*
X155249000Y-110263112D01*
X155249000Y-109611888D01*
X155253565Y-109565532D01*
X155265296Y-109526862D01*
X155284346Y-109491223D01*
X155309983Y-109459983D01*
X155341223Y-109434346D01*
X155376862Y-109415296D01*
X155415532Y-109403565D01*
X155461888Y-109399000D01*
X156538112Y-109399000D01*
X156584468Y-109403565D01*
G37*
G36*
X142101000Y-109826000D02*
G01*
X140499000Y-109826000D01*
X140499000Y-101174000D01*
X142101000Y-101174000D01*
X142101000Y-109826000D01*
G37*
G36*
X153501000Y-109826000D02*
G01*
X151899000Y-109826000D01*
X151899000Y-101174000D01*
X153501000Y-101174000D01*
X153501000Y-109826000D01*
G37*
G36*
X132951000Y-108801000D02*
G01*
X131199000Y-108801000D01*
X131199000Y-105849000D01*
X132951000Y-105849000D01*
X132951000Y-108801000D01*
G37*
G36*
X135801000Y-108801000D02*
G01*
X134049000Y-108801000D01*
X134049000Y-105849000D01*
X135801000Y-105849000D01*
X135801000Y-108801000D01*
G37*
G36*
X159434468Y-107253565D02*
G01*
X159473138Y-107265296D01*
X159508777Y-107284346D01*
X159540017Y-107309983D01*
X159565654Y-107341223D01*
X159584704Y-107376862D01*
X159596435Y-107415532D01*
X159601000Y-107461888D01*
X159601000Y-108538112D01*
X159596435Y-108584468D01*
X159584704Y-108623138D01*
X159565654Y-108658777D01*
X159540017Y-108690017D01*
X159508777Y-108715654D01*
X159473138Y-108734704D01*
X159434468Y-108746435D01*
X159388112Y-108751000D01*
X158736888Y-108751000D01*
X158690532Y-108746435D01*
X158651862Y-108734704D01*
X158616223Y-108715654D01*
X158584983Y-108690017D01*
X158559346Y-108658777D01*
X158540296Y-108623138D01*
X158528565Y-108584468D01*
X158524000Y-108538112D01*
X158524000Y-107461888D01*
X158528565Y-107415532D01*
X158540296Y-107376862D01*
X158559346Y-107341223D01*
X158584983Y-107309983D01*
X158616223Y-107284346D01*
X158651862Y-107265296D01*
X158690532Y-107253565D01*
X158736888Y-107249000D01*
X159388112Y-107249000D01*
X159434468Y-107253565D01*
G37*
G36*
X161309468Y-107253565D02*
G01*
X161348138Y-107265296D01*
X161383777Y-107284346D01*
X161415017Y-107309983D01*
X161440654Y-107341223D01*
X161459704Y-107376862D01*
X161471435Y-107415532D01*
X161476000Y-107461888D01*
X161476000Y-108538112D01*
X161471435Y-108584468D01*
X161459704Y-108623138D01*
X161440654Y-108658777D01*
X161415017Y-108690017D01*
X161383777Y-108715654D01*
X161348138Y-108734704D01*
X161309468Y-108746435D01*
X161263112Y-108751000D01*
X160611888Y-108751000D01*
X160565532Y-108746435D01*
X160526862Y-108734704D01*
X160491223Y-108715654D01*
X160459983Y-108690017D01*
X160434346Y-108658777D01*
X160415296Y-108623138D01*
X160403565Y-108584468D01*
X160399000Y-108538112D01*
X160399000Y-107461888D01*
X160403565Y-107415532D01*
X160415296Y-107376862D01*
X160434346Y-107341223D01*
X160459983Y-107309983D01*
X160491223Y-107284346D01*
X160526862Y-107265296D01*
X160565532Y-107253565D01*
X160611888Y-107249000D01*
X161263112Y-107249000D01*
X161309468Y-107253565D01*
G37*
G36*
X156584468Y-107528565D02*
G01*
X156623138Y-107540296D01*
X156658777Y-107559346D01*
X156690017Y-107584983D01*
X156715654Y-107616223D01*
X156734704Y-107651862D01*
X156746435Y-107690532D01*
X156751000Y-107736888D01*
X156751000Y-108388112D01*
X156746435Y-108434468D01*
X156734704Y-108473138D01*
X156715654Y-108508777D01*
X156690017Y-108540017D01*
X156658777Y-108565654D01*
X156623138Y-108584704D01*
X156584468Y-108596435D01*
X156538112Y-108601000D01*
X155461888Y-108601000D01*
X155415532Y-108596435D01*
X155376862Y-108584704D01*
X155341223Y-108565654D01*
X155309983Y-108540017D01*
X155284346Y-108508777D01*
X155265296Y-108473138D01*
X155253565Y-108434468D01*
X155249000Y-108388112D01*
X155249000Y-107736888D01*
X155253565Y-107690532D01*
X155265296Y-107651862D01*
X155284346Y-107616223D01*
X155309983Y-107584983D01*
X155341223Y-107559346D01*
X155376862Y-107540296D01*
X155415532Y-107528565D01*
X155461888Y-107524000D01*
X156538112Y-107524000D01*
X156584468Y-107528565D01*
G37*
G36*
X138879591Y-103303085D02*
G01*
X138913569Y-103313393D01*
X138944890Y-103330134D01*
X138972339Y-103352661D01*
X138994866Y-103380110D01*
X139011607Y-103411431D01*
X139021915Y-103445409D01*
X139026000Y-103486890D01*
X139026000Y-104088110D01*
X139021915Y-104129591D01*
X139011607Y-104163569D01*
X138994866Y-104194890D01*
X138972339Y-104222339D01*
X138944890Y-104244866D01*
X138913569Y-104261607D01*
X138879591Y-104271915D01*
X138838110Y-104276000D01*
X138161890Y-104276000D01*
X138120409Y-104271915D01*
X138086431Y-104261607D01*
X138055110Y-104244866D01*
X138027661Y-104222339D01*
X138005134Y-104194890D01*
X137988393Y-104163569D01*
X137978085Y-104129591D01*
X137974000Y-104088110D01*
X137974000Y-103486890D01*
X137978085Y-103445409D01*
X137988393Y-103411431D01*
X138005134Y-103380110D01*
X138027661Y-103352661D01*
X138055110Y-103330134D01*
X138086431Y-103313393D01*
X138120409Y-103303085D01*
X138161890Y-103299000D01*
X138838110Y-103299000D01*
X138879591Y-103303085D01*
G37*
G36*
X132951000Y-104151000D02*
G01*
X131199000Y-104151000D01*
X131199000Y-101199000D01*
X132951000Y-101199000D01*
X132951000Y-104151000D01*
G37*
G36*
X135801000Y-104151000D02*
G01*
X134049000Y-104151000D01*
X134049000Y-101199000D01*
X135801000Y-101199000D01*
X135801000Y-104151000D01*
G37*
G36*
X156584468Y-102403565D02*
G01*
X156623138Y-102415296D01*
X156658777Y-102434346D01*
X156690017Y-102459983D01*
X156715654Y-102491223D01*
X156734704Y-102526862D01*
X156746435Y-102565532D01*
X156751000Y-102611888D01*
X156751000Y-103263112D01*
X156746435Y-103309468D01*
X156734704Y-103348138D01*
X156715654Y-103383777D01*
X156690017Y-103415017D01*
X156658777Y-103440654D01*
X156623138Y-103459704D01*
X156584468Y-103471435D01*
X156538112Y-103476000D01*
X155461888Y-103476000D01*
X155415532Y-103471435D01*
X155376862Y-103459704D01*
X155341223Y-103440654D01*
X155309983Y-103415017D01*
X155284346Y-103383777D01*
X155265296Y-103348138D01*
X155253565Y-103309468D01*
X155249000Y-103263112D01*
X155249000Y-102611888D01*
X155253565Y-102565532D01*
X155265296Y-102526862D01*
X155284346Y-102491223D01*
X155309983Y-102459983D01*
X155341223Y-102434346D01*
X155376862Y-102415296D01*
X155415532Y-102403565D01*
X155461888Y-102399000D01*
X156538112Y-102399000D01*
X156584468Y-102403565D01*
G37*
G36*
X138879591Y-101728085D02*
G01*
X138913569Y-101738393D01*
X138944890Y-101755134D01*
X138972339Y-101777661D01*
X138994866Y-101805110D01*
X139011607Y-101836431D01*
X139021915Y-101870409D01*
X139026000Y-101911890D01*
X139026000Y-102513110D01*
X139021915Y-102554591D01*
X139011607Y-102588569D01*
X138994866Y-102619890D01*
X138972339Y-102647339D01*
X138944890Y-102669866D01*
X138913569Y-102686607D01*
X138879591Y-102696915D01*
X138838110Y-102701000D01*
X138161890Y-102701000D01*
X138120409Y-102696915D01*
X138086431Y-102686607D01*
X138055110Y-102669866D01*
X138027661Y-102647339D01*
X138005134Y-102619890D01*
X137988393Y-102588569D01*
X137978085Y-102554591D01*
X137974000Y-102513110D01*
X137974000Y-101911890D01*
X137978085Y-101870409D01*
X137988393Y-101836431D01*
X138005134Y-101805110D01*
X138027661Y-101777661D01*
X138055110Y-101755134D01*
X138086431Y-101738393D01*
X138120409Y-101728085D01*
X138161890Y-101724000D01*
X138838110Y-101724000D01*
X138879591Y-101728085D01*
G37*
G36*
X156584468Y-100528565D02*
G01*
X156623138Y-100540296D01*
X156658777Y-100559346D01*
X156690017Y-100584983D01*
X156715654Y-100616223D01*
X156734704Y-100651862D01*
X156746435Y-100690532D01*
X156751000Y-100736888D01*
X156751000Y-101388112D01*
X156746435Y-101434468D01*
X156734704Y-101473138D01*
X156715654Y-101508777D01*
X156690017Y-101540017D01*
X156658777Y-101565654D01*
X156623138Y-101584704D01*
X156584468Y-101596435D01*
X156538112Y-101601000D01*
X155461888Y-101601000D01*
X155415532Y-101596435D01*
X155376862Y-101584704D01*
X155341223Y-101565654D01*
X155309983Y-101540017D01*
X155284346Y-101508777D01*
X155265296Y-101473138D01*
X155253565Y-101434468D01*
X155249000Y-101388112D01*
X155249000Y-100736888D01*
X155253565Y-100690532D01*
X155265296Y-100651862D01*
X155284346Y-100616223D01*
X155309983Y-100584983D01*
X155341223Y-100559346D01*
X155376862Y-100540296D01*
X155415532Y-100528565D01*
X155461888Y-100524000D01*
X156538112Y-100524000D01*
X156584468Y-100528565D01*
G37*
G36*
X151326000Y-100601000D02*
G01*
X142674000Y-100601000D01*
X142674000Y-98999000D01*
X151326000Y-98999000D01*
X151326000Y-100601000D01*
G37*
G36*
X133054591Y-99478085D02*
G01*
X133088569Y-99488393D01*
X133119890Y-99505134D01*
X133147339Y-99527661D01*
X133169866Y-99555110D01*
X133186607Y-99586431D01*
X133196915Y-99620409D01*
X133201000Y-99661890D01*
X133201000Y-100338110D01*
X133196915Y-100379591D01*
X133186607Y-100413569D01*
X133169866Y-100444890D01*
X133147339Y-100472339D01*
X133119890Y-100494866D01*
X133088569Y-100511607D01*
X133054591Y-100521915D01*
X133013110Y-100526000D01*
X132411890Y-100526000D01*
X132370409Y-100521915D01*
X132336431Y-100511607D01*
X132305110Y-100494866D01*
X132277661Y-100472339D01*
X132255134Y-100444890D01*
X132238393Y-100413569D01*
X132228085Y-100379591D01*
X132224000Y-100338110D01*
X132224000Y-99661890D01*
X132228085Y-99620409D01*
X132238393Y-99586431D01*
X132255134Y-99555110D01*
X132277661Y-99527661D01*
X132305110Y-99505134D01*
X132336431Y-99488393D01*
X132370409Y-99478085D01*
X132411890Y-99474000D01*
X133013110Y-99474000D01*
X133054591Y-99478085D01*
G37*
G36*
X134629591Y-99478085D02*
G01*
X134663569Y-99488393D01*
X134694890Y-99505134D01*
X134722339Y-99527661D01*
X134744866Y-99555110D01*
X134761607Y-99586431D01*
X134771915Y-99620409D01*
X134776000Y-99661890D01*
X134776000Y-100338110D01*
X134771915Y-100379591D01*
X134761607Y-100413569D01*
X134744866Y-100444890D01*
X134722339Y-100472339D01*
X134694890Y-100494866D01*
X134663569Y-100511607D01*
X134629591Y-100521915D01*
X134588110Y-100526000D01*
X133986890Y-100526000D01*
X133945409Y-100521915D01*
X133911431Y-100511607D01*
X133880110Y-100494866D01*
X133852661Y-100472339D01*
X133830134Y-100444890D01*
X133813393Y-100413569D01*
X133803085Y-100379591D01*
X133799000Y-100338110D01*
X133799000Y-99661890D01*
X133803085Y-99620409D01*
X133813393Y-99586431D01*
X133830134Y-99555110D01*
X133852661Y-99527661D01*
X133880110Y-99505134D01*
X133911431Y-99488393D01*
X133945409Y-99478085D01*
X133986890Y-99474000D01*
X134588110Y-99474000D01*
X134629591Y-99478085D01*
G37*
G36*
X154554591Y-97478085D02*
G01*
X154588569Y-97488393D01*
X154619890Y-97505134D01*
X154647339Y-97527661D01*
X154669866Y-97555110D01*
X154686607Y-97586431D01*
X154696915Y-97620409D01*
X154701000Y-97661890D01*
X154701000Y-98338110D01*
X154696915Y-98379591D01*
X154686607Y-98413569D01*
X154669866Y-98444890D01*
X154647339Y-98472339D01*
X154619890Y-98494866D01*
X154588569Y-98511607D01*
X154554591Y-98521915D01*
X154513110Y-98526000D01*
X153911890Y-98526000D01*
X153870409Y-98521915D01*
X153836431Y-98511607D01*
X153805110Y-98494866D01*
X153777661Y-98472339D01*
X153755134Y-98444890D01*
X153738393Y-98413569D01*
X153728085Y-98379591D01*
X153724000Y-98338110D01*
X153724000Y-97661890D01*
X153728085Y-97620409D01*
X153738393Y-97586431D01*
X153755134Y-97555110D01*
X153777661Y-97527661D01*
X153805110Y-97505134D01*
X153836431Y-97488393D01*
X153870409Y-97478085D01*
X153911890Y-97474000D01*
X154513110Y-97474000D01*
X154554591Y-97478085D01*
G37*
G36*
X156129591Y-97478085D02*
G01*
X156163569Y-97488393D01*
X156194890Y-97505134D01*
X156222339Y-97527661D01*
X156244866Y-97555110D01*
X156261607Y-97586431D01*
X156271915Y-97620409D01*
X156276000Y-97661890D01*
X156276000Y-98338110D01*
X156271915Y-98379591D01*
X156261607Y-98413569D01*
X156244866Y-98444890D01*
X156222339Y-98472339D01*
X156194890Y-98494866D01*
X156163569Y-98511607D01*
X156129591Y-98521915D01*
X156088110Y-98526000D01*
X155486890Y-98526000D01*
X155445409Y-98521915D01*
X155411431Y-98511607D01*
X155380110Y-98494866D01*
X155352661Y-98472339D01*
X155330134Y-98444890D01*
X155313393Y-98413569D01*
X155303085Y-98379591D01*
X155299000Y-98338110D01*
X155299000Y-97661890D01*
X155303085Y-97620409D01*
X155313393Y-97586431D01*
X155330134Y-97555110D01*
X155352661Y-97527661D01*
X155380110Y-97505134D01*
X155411431Y-97488393D01*
X155445409Y-97478085D01*
X155486890Y-97474000D01*
X156088110Y-97474000D01*
X156129591Y-97478085D01*
G37*
G36*
X145934468Y-95253565D02*
G01*
X145973138Y-95265296D01*
X146008777Y-95284346D01*
X146040017Y-95309983D01*
X146065654Y-95341223D01*
X146084704Y-95376862D01*
X146096435Y-95415532D01*
X146101000Y-95461888D01*
X146101000Y-96538112D01*
X146096435Y-96584468D01*
X146084704Y-96623138D01*
X146065654Y-96658777D01*
X146040017Y-96690017D01*
X146008777Y-96715654D01*
X145973138Y-96734704D01*
X145934468Y-96746435D01*
X145888112Y-96751000D01*
X145236888Y-96751000D01*
X145190532Y-96746435D01*
X145151862Y-96734704D01*
X145116223Y-96715654D01*
X145084983Y-96690017D01*
X145059346Y-96658777D01*
X145040296Y-96623138D01*
X145028565Y-96584468D01*
X145024000Y-96538112D01*
X145024000Y-95461888D01*
X145028565Y-95415532D01*
X145040296Y-95376862D01*
X145059346Y-95341223D01*
X145084983Y-95309983D01*
X145116223Y-95284346D01*
X145151862Y-95265296D01*
X145190532Y-95253565D01*
X145236888Y-95249000D01*
X145888112Y-95249000D01*
X145934468Y-95253565D01*
G37*
G36*
X147809468Y-95253565D02*
G01*
X147848138Y-95265296D01*
X147883777Y-95284346D01*
X147915017Y-95309983D01*
X147940654Y-95341223D01*
X147959704Y-95376862D01*
X147971435Y-95415532D01*
X147976000Y-95461888D01*
X147976000Y-96538112D01*
X147971435Y-96584468D01*
X147959704Y-96623138D01*
X147940654Y-96658777D01*
X147915017Y-96690017D01*
X147883777Y-96715654D01*
X147848138Y-96734704D01*
X147809468Y-96746435D01*
X147763112Y-96751000D01*
X147111888Y-96751000D01*
X147065532Y-96746435D01*
X147026862Y-96734704D01*
X146991223Y-96715654D01*
X146959983Y-96690017D01*
X146934346Y-96658777D01*
X146915296Y-96623138D01*
X146903565Y-96584468D01*
X146899000Y-96538112D01*
X146899000Y-95461888D01*
X146903565Y-95415532D01*
X146915296Y-95376862D01*
X146934346Y-95341223D01*
X146959983Y-95309983D01*
X146991223Y-95284346D01*
X147026862Y-95265296D01*
X147065532Y-95253565D01*
X147111888Y-95249000D01*
X147763112Y-95249000D01*
X147809468Y-95253565D01*
G37*
G36*
X114909907Y-92516312D02*
G01*
X114498932Y-93751748D01*
X113548159Y-93435468D01*
X113959134Y-92200032D01*
X114909907Y-92516312D01*
G37*
G36*
X183601942Y-93432249D02*
G01*
X182651169Y-93748529D01*
X182240194Y-92513093D01*
X183190967Y-92196813D01*
X183601942Y-93432249D01*
G37*
G36*
X111778617Y-91474670D02*
G01*
X111367642Y-92710106D01*
X110416869Y-92393826D01*
X110827844Y-91158390D01*
X111778617Y-91474670D01*
G37*
G36*
X186733232Y-92390607D02*
G01*
X185782459Y-92706887D01*
X185371484Y-91471451D01*
X186322257Y-91155171D01*
X186733232Y-92390607D01*
G37*
G36*
X177960990Y-89021903D02*
G01*
X178110290Y-89051600D01*
X178274262Y-89119520D01*
X178421832Y-89218123D01*
X178547331Y-89343622D01*
X178645934Y-89491192D01*
X178713854Y-89655164D01*
X178748478Y-89829235D01*
X178748478Y-90006717D01*
X178713854Y-90180788D01*
X178645934Y-90344760D01*
X178547331Y-90492330D01*
X178421832Y-90617829D01*
X178274262Y-90716432D01*
X178110290Y-90784352D01*
X177960990Y-90814049D01*
X177936220Y-90818976D01*
X177758736Y-90818976D01*
X177733966Y-90814049D01*
X177584666Y-90784352D01*
X177420694Y-90716432D01*
X177273124Y-90617829D01*
X177147625Y-90492330D01*
X177049022Y-90344760D01*
X176981102Y-90180788D01*
X176946478Y-90006717D01*
X176946478Y-89829235D01*
X176981102Y-89655164D01*
X177049022Y-89491192D01*
X177147625Y-89343622D01*
X177273124Y-89218123D01*
X177420694Y-89119520D01*
X177584666Y-89051600D01*
X177733966Y-89021903D01*
X177758736Y-89016976D01*
X177936220Y-89016976D01*
X177960990Y-89021903D01*
G37*
G36*
X119408082Y-89016976D02*
G01*
X119558313Y-89046858D01*
X119722285Y-89114778D01*
X119869855Y-89213381D01*
X119995354Y-89338880D01*
X120093957Y-89486450D01*
X120161877Y-89650422D01*
X120196501Y-89824493D01*
X120196501Y-90001975D01*
X120161877Y-90176046D01*
X120093957Y-90340018D01*
X119995354Y-90487588D01*
X119869855Y-90613087D01*
X119722285Y-90711690D01*
X119558313Y-90779610D01*
X119409013Y-90809307D01*
X119384243Y-90814234D01*
X119206759Y-90814234D01*
X119181989Y-90809307D01*
X119032689Y-90779610D01*
X118868717Y-90711690D01*
X118721147Y-90613087D01*
X118595648Y-90487588D01*
X118497045Y-90340018D01*
X118429125Y-90176046D01*
X118394501Y-90001975D01*
X118394501Y-89824493D01*
X118429125Y-89650422D01*
X118497045Y-89486450D01*
X118595648Y-89338880D01*
X118721147Y-89213381D01*
X118868717Y-89114778D01*
X119032689Y-89046858D01*
X119182920Y-89016976D01*
X119206759Y-89012234D01*
X119384243Y-89012234D01*
X119408082Y-89016976D01*
G37*
G36*
X183464281Y-86475766D02*
G01*
X183577044Y-86498196D01*
X183701752Y-86549852D01*
X183895704Y-86630189D01*
X184182492Y-86821815D01*
X184426387Y-87065710D01*
X184618013Y-87352498D01*
X184695333Y-87539165D01*
X184748042Y-87666416D01*
X184750006Y-87671159D01*
X184817296Y-88009446D01*
X184817296Y-88354366D01*
X184750006Y-88692653D01*
X184618013Y-89011314D01*
X184426387Y-89298102D01*
X184182492Y-89541997D01*
X183895704Y-89733623D01*
X183709037Y-89810943D01*
X183577044Y-89865616D01*
X183464281Y-89888046D01*
X183238756Y-89932906D01*
X182893836Y-89932906D01*
X182668311Y-89888046D01*
X182555548Y-89865616D01*
X182423555Y-89810943D01*
X182236888Y-89733623D01*
X181950100Y-89541997D01*
X181706205Y-89298102D01*
X181514579Y-89011314D01*
X181382586Y-88692653D01*
X181315296Y-88354366D01*
X181315296Y-88009446D01*
X181382586Y-87671159D01*
X181384551Y-87666416D01*
X181437259Y-87539165D01*
X181514579Y-87352498D01*
X181706205Y-87065710D01*
X181950100Y-86821815D01*
X182236888Y-86630189D01*
X182430840Y-86549852D01*
X182555548Y-86498196D01*
X182668311Y-86475766D01*
X182893836Y-86430906D01*
X183238756Y-86430906D01*
X183464281Y-86475766D01*
G37*
G36*
X114474668Y-86471024D02*
G01*
X114587431Y-86493454D01*
X114686710Y-86534577D01*
X114906091Y-86625447D01*
X115192879Y-86817073D01*
X115436774Y-87060968D01*
X115628400Y-87347756D01*
X115760393Y-87666417D01*
X115827683Y-88004704D01*
X115827683Y-88349624D01*
X115782823Y-88575149D01*
X115760393Y-88687912D01*
X115705720Y-88819905D01*
X115628400Y-89006572D01*
X115436774Y-89293360D01*
X115192879Y-89537255D01*
X114906091Y-89728881D01*
X114719424Y-89806201D01*
X114587431Y-89860874D01*
X114563591Y-89865616D01*
X114249143Y-89928164D01*
X113904223Y-89928164D01*
X113589775Y-89865616D01*
X113565935Y-89860874D01*
X113433942Y-89806201D01*
X113247275Y-89728881D01*
X112960487Y-89537255D01*
X112716592Y-89293360D01*
X112524966Y-89006572D01*
X112447646Y-88819905D01*
X112392973Y-88687912D01*
X112370543Y-88575149D01*
X112325683Y-88349624D01*
X112325683Y-88004704D01*
X112392973Y-87666417D01*
X112524966Y-87347756D01*
X112716592Y-87060968D01*
X112960487Y-86817073D01*
X113247275Y-86625447D01*
X113466656Y-86534577D01*
X113565935Y-86493454D01*
X113678698Y-86471024D01*
X113904223Y-86426164D01*
X114249143Y-86426164D01*
X114474668Y-86471024D01*
G37*
G36*
X40909151Y-86869348D02*
G01*
X40498176Y-88104784D01*
X39547403Y-87788504D01*
X39958378Y-86553068D01*
X40909151Y-86869348D01*
G37*
G36*
X257602698Y-87785288D02*
G01*
X256651925Y-88101568D01*
X256240950Y-86866132D01*
X257191723Y-86549852D01*
X257602698Y-87785288D01*
G37*
G36*
X97830140Y-86834630D02*
G01*
X97419165Y-88070066D01*
X96468392Y-87753786D01*
X96879367Y-86518350D01*
X97830140Y-86834630D01*
G37*
G36*
X200681713Y-87750567D02*
G01*
X199730940Y-88066847D01*
X199319965Y-86831411D01*
X200270738Y-86515131D01*
X200681713Y-87750567D01*
G37*
G36*
X188398626Y-85549763D02*
G01*
X188547926Y-85579460D01*
X188711898Y-85647380D01*
X188859468Y-85745983D01*
X188984967Y-85871482D01*
X189083570Y-86019052D01*
X189151490Y-86183024D01*
X189186114Y-86357095D01*
X189186114Y-86534577D01*
X189151490Y-86708648D01*
X189083570Y-86872620D01*
X188984967Y-87020190D01*
X188859468Y-87145689D01*
X188711898Y-87244292D01*
X188547926Y-87312212D01*
X188398626Y-87341909D01*
X188373856Y-87346836D01*
X188196372Y-87346836D01*
X188171602Y-87341909D01*
X188022302Y-87312212D01*
X187858330Y-87244292D01*
X187710760Y-87145689D01*
X187585261Y-87020190D01*
X187486658Y-86872620D01*
X187418738Y-86708648D01*
X187384114Y-86534577D01*
X187384114Y-86357095D01*
X187418738Y-86183024D01*
X187486658Y-86019052D01*
X187585261Y-85871482D01*
X187710760Y-85745983D01*
X187858330Y-85647380D01*
X188022302Y-85579460D01*
X188171602Y-85549763D01*
X188196372Y-85544836D01*
X188373856Y-85544836D01*
X188398626Y-85549763D01*
G37*
G36*
X108970446Y-85544836D02*
G01*
X109120677Y-85574718D01*
X109284649Y-85642638D01*
X109432219Y-85741241D01*
X109557718Y-85866740D01*
X109656321Y-86014310D01*
X109724241Y-86178282D01*
X109753938Y-86327582D01*
X109758865Y-86352352D01*
X109758865Y-86529836D01*
X109754244Y-86553068D01*
X109724241Y-86703906D01*
X109656321Y-86867878D01*
X109557718Y-87015448D01*
X109432219Y-87140947D01*
X109284649Y-87239550D01*
X109120677Y-87307470D01*
X108971377Y-87337167D01*
X108946607Y-87342094D01*
X108769123Y-87342094D01*
X108744353Y-87337167D01*
X108595053Y-87307470D01*
X108431081Y-87239550D01*
X108283511Y-87140947D01*
X108158012Y-87015448D01*
X108059409Y-86867878D01*
X107991489Y-86703906D01*
X107961486Y-86553068D01*
X107956865Y-86529836D01*
X107956865Y-86352352D01*
X107961792Y-86327582D01*
X107991489Y-86178282D01*
X108059409Y-86014310D01*
X108158012Y-85866740D01*
X108283511Y-85741241D01*
X108431081Y-85642638D01*
X108595053Y-85574718D01*
X108745284Y-85544836D01*
X108769123Y-85540094D01*
X108946607Y-85540094D01*
X108970446Y-85544836D01*
G37*
G36*
X37777861Y-85827706D02*
G01*
X37366886Y-87063142D01*
X36416113Y-86746862D01*
X36827088Y-85511426D01*
X37777861Y-85827706D01*
G37*
G36*
X260733988Y-86743646D02*
G01*
X259783215Y-87059926D01*
X259372240Y-85824490D01*
X260323013Y-85508210D01*
X260733988Y-86743646D01*
G37*
G36*
X94698850Y-85792988D02*
G01*
X94287875Y-87028424D01*
X93337102Y-86712144D01*
X93748077Y-85476708D01*
X94698850Y-85792988D01*
G37*
G36*
X203813003Y-86708925D02*
G01*
X202862230Y-87025205D01*
X202451255Y-85789769D01*
X203402028Y-85473489D01*
X203813003Y-86708925D01*
G37*
G36*
X148574065Y-85210768D02*
G01*
X148608043Y-85221076D01*
X148639364Y-85237817D01*
X148666813Y-85260344D01*
X148689340Y-85287793D01*
X148706081Y-85319114D01*
X148716389Y-85353092D01*
X148720474Y-85394573D01*
X148720474Y-85995793D01*
X148716389Y-86037274D01*
X148706081Y-86071252D01*
X148689340Y-86102573D01*
X148666813Y-86130022D01*
X148639364Y-86152549D01*
X148608043Y-86169290D01*
X148574065Y-86179598D01*
X148532584Y-86183683D01*
X147856364Y-86183683D01*
X147814883Y-86179598D01*
X147780905Y-86169290D01*
X147749584Y-86152549D01*
X147722135Y-86130022D01*
X147699608Y-86102573D01*
X147682867Y-86071252D01*
X147672559Y-86037274D01*
X147668474Y-85995793D01*
X147668474Y-85394573D01*
X147672559Y-85353092D01*
X147682867Y-85319114D01*
X147699608Y-85287793D01*
X147722135Y-85260344D01*
X147749584Y-85237817D01*
X147780905Y-85221076D01*
X147814883Y-85210768D01*
X147856364Y-85206683D01*
X148532584Y-85206683D01*
X148574065Y-85210768D01*
G37*
G36*
X150074065Y-85210768D02*
G01*
X150108043Y-85221076D01*
X150139364Y-85237817D01*
X150166813Y-85260344D01*
X150189340Y-85287793D01*
X150206081Y-85319114D01*
X150216389Y-85353092D01*
X150220474Y-85394573D01*
X150220474Y-85995793D01*
X150216389Y-86037274D01*
X150206081Y-86071252D01*
X150189340Y-86102573D01*
X150166813Y-86130022D01*
X150139364Y-86152549D01*
X150108043Y-86169290D01*
X150074065Y-86179598D01*
X150032584Y-86183683D01*
X149356364Y-86183683D01*
X149314883Y-86179598D01*
X149280905Y-86169290D01*
X149249584Y-86152549D01*
X149222135Y-86130022D01*
X149199608Y-86102573D01*
X149182867Y-86071252D01*
X149172559Y-86037274D01*
X149168474Y-85995793D01*
X149168474Y-85394573D01*
X149172559Y-85353092D01*
X149182867Y-85319114D01*
X149199608Y-85287793D01*
X149222135Y-85260344D01*
X149249584Y-85237817D01*
X149280905Y-85221076D01*
X149314883Y-85210768D01*
X149356364Y-85206683D01*
X150032584Y-85206683D01*
X150074065Y-85210768D01*
G37*
G36*
X251961747Y-83374948D02*
G01*
X252111047Y-83404645D01*
X252275019Y-83472565D01*
X252422589Y-83571168D01*
X252548088Y-83696667D01*
X252646691Y-83844237D01*
X252714611Y-84008209D01*
X252749235Y-84182280D01*
X252749235Y-84359762D01*
X252714611Y-84533833D01*
X252646691Y-84697805D01*
X252548088Y-84845375D01*
X252422589Y-84970874D01*
X252275019Y-85069477D01*
X252111047Y-85137397D01*
X251961747Y-85167094D01*
X251936977Y-85172021D01*
X251759493Y-85172021D01*
X251734723Y-85167094D01*
X251585423Y-85137397D01*
X251421451Y-85069477D01*
X251273881Y-84970874D01*
X251148382Y-84845375D01*
X251049779Y-84697805D01*
X250981859Y-84533833D01*
X250947235Y-84359762D01*
X250947235Y-84182280D01*
X250981859Y-84008209D01*
X251049779Y-83844237D01*
X251148382Y-83696667D01*
X251273881Y-83571168D01*
X251421451Y-83472565D01*
X251585423Y-83404645D01*
X251734723Y-83374948D01*
X251759493Y-83370021D01*
X251936977Y-83370021D01*
X251961747Y-83374948D01*
G37*
G36*
X45411346Y-83374718D02*
G01*
X45560646Y-83404415D01*
X45724618Y-83472335D01*
X45872188Y-83570938D01*
X45997687Y-83696437D01*
X46096290Y-83844007D01*
X46164210Y-84007979D01*
X46198834Y-84182050D01*
X46198834Y-84359532D01*
X46164210Y-84533603D01*
X46096290Y-84697575D01*
X45997687Y-84845145D01*
X45872188Y-84970644D01*
X45724618Y-85069247D01*
X45560646Y-85137167D01*
X45411346Y-85166864D01*
X45386576Y-85171791D01*
X45209092Y-85171791D01*
X45184322Y-85166864D01*
X45035022Y-85137167D01*
X44871050Y-85069247D01*
X44723480Y-84970644D01*
X44597981Y-84845145D01*
X44499378Y-84697575D01*
X44431458Y-84533603D01*
X44396834Y-84359532D01*
X44396834Y-84182050D01*
X44431458Y-84007979D01*
X44499378Y-83844007D01*
X44597981Y-83696437D01*
X44723480Y-83570938D01*
X44871050Y-83472335D01*
X45035022Y-83404415D01*
X45184322Y-83374718D01*
X45209092Y-83369791D01*
X45386576Y-83369791D01*
X45411346Y-83374718D01*
G37*
G36*
X195040759Y-83340224D02*
G01*
X195190059Y-83369921D01*
X195354031Y-83437841D01*
X195501601Y-83536444D01*
X195627100Y-83661943D01*
X195725703Y-83809513D01*
X195793623Y-83973485D01*
X195828247Y-84147556D01*
X195828247Y-84325038D01*
X195793623Y-84499109D01*
X195725703Y-84663081D01*
X195627100Y-84810651D01*
X195501601Y-84936150D01*
X195354031Y-85034753D01*
X195190059Y-85102673D01*
X195040759Y-85132370D01*
X195015989Y-85137297D01*
X194838505Y-85137297D01*
X194813735Y-85132370D01*
X194664435Y-85102673D01*
X194500463Y-85034753D01*
X194352893Y-84936150D01*
X194227394Y-84810651D01*
X194128791Y-84663081D01*
X194060871Y-84499109D01*
X194026247Y-84325038D01*
X194026247Y-84147556D01*
X194060871Y-83973485D01*
X194128791Y-83809513D01*
X194227394Y-83661943D01*
X194352893Y-83536444D01*
X194500463Y-83437841D01*
X194664435Y-83369921D01*
X194813735Y-83340224D01*
X194838505Y-83335297D01*
X195015989Y-83335297D01*
X195040759Y-83340224D01*
G37*
G36*
X102332330Y-83339997D02*
G01*
X102481630Y-83369694D01*
X102645602Y-83437614D01*
X102793172Y-83536217D01*
X102918671Y-83661716D01*
X103017274Y-83809286D01*
X103085194Y-83973258D01*
X103119818Y-84147329D01*
X103119818Y-84324811D01*
X103085194Y-84498882D01*
X103017274Y-84662854D01*
X102918671Y-84810424D01*
X102793172Y-84935923D01*
X102645602Y-85034526D01*
X102481630Y-85102446D01*
X102332330Y-85132143D01*
X102307560Y-85137070D01*
X102130076Y-85137070D01*
X102105306Y-85132143D01*
X101956006Y-85102446D01*
X101792034Y-85034526D01*
X101644464Y-84935923D01*
X101518965Y-84810424D01*
X101420362Y-84662854D01*
X101352442Y-84498882D01*
X101317818Y-84324811D01*
X101317818Y-84147329D01*
X101352442Y-83973258D01*
X101420362Y-83809286D01*
X101518965Y-83661716D01*
X101644464Y-83536217D01*
X101792034Y-83437614D01*
X101956006Y-83369694D01*
X102105306Y-83339997D01*
X102130076Y-83335070D01*
X102307560Y-83335070D01*
X102332330Y-83339997D01*
G37*
G36*
X150074065Y-83635768D02*
G01*
X150108043Y-83646076D01*
X150139364Y-83662817D01*
X150166813Y-83685344D01*
X150189340Y-83712793D01*
X150206081Y-83744114D01*
X150216389Y-83778092D01*
X150220474Y-83819573D01*
X150220474Y-84420793D01*
X150216389Y-84462274D01*
X150206081Y-84496252D01*
X150189340Y-84527573D01*
X150166813Y-84555022D01*
X150139364Y-84577549D01*
X150108043Y-84594290D01*
X150074065Y-84604598D01*
X150032584Y-84608683D01*
X149356364Y-84608683D01*
X149314883Y-84604598D01*
X149280905Y-84594290D01*
X149249584Y-84577549D01*
X149222135Y-84555022D01*
X149199608Y-84527573D01*
X149182867Y-84496252D01*
X149172559Y-84462274D01*
X149168474Y-84420793D01*
X149168474Y-83819573D01*
X149172559Y-83778092D01*
X149182867Y-83744114D01*
X149199608Y-83712793D01*
X149222135Y-83685344D01*
X149249584Y-83662817D01*
X149280905Y-83646076D01*
X149314883Y-83635768D01*
X149356364Y-83631683D01*
X150032584Y-83631683D01*
X150074065Y-83635768D01*
G37*
G36*
X148574065Y-83635768D02*
G01*
X148608043Y-83646076D01*
X148639364Y-83662817D01*
X148666813Y-83685344D01*
X148689340Y-83712793D01*
X148706081Y-83744114D01*
X148716389Y-83778092D01*
X148720474Y-83819573D01*
X148720474Y-84420793D01*
X148716389Y-84462274D01*
X148706081Y-84496252D01*
X148689340Y-84527573D01*
X148666813Y-84555022D01*
X148639364Y-84577549D01*
X148608043Y-84594290D01*
X148574065Y-84604598D01*
X148532584Y-84608683D01*
X147856364Y-84608683D01*
X147814883Y-84604598D01*
X147780905Y-84594290D01*
X147749584Y-84577549D01*
X147722135Y-84555022D01*
X147699608Y-84527573D01*
X147682867Y-84496252D01*
X147672559Y-84462274D01*
X147668474Y-84420793D01*
X147668474Y-83819573D01*
X147672559Y-83778092D01*
X147682867Y-83744114D01*
X147699608Y-83712793D01*
X147722135Y-83685344D01*
X147749584Y-83662817D01*
X147780905Y-83646076D01*
X147814883Y-83635768D01*
X147856364Y-83631683D01*
X148532584Y-83631683D01*
X148574065Y-83635768D01*
G37*
G36*
X257465038Y-80828811D02*
G01*
X257577801Y-80851241D01*
X257709794Y-80905914D01*
X257896461Y-80983234D01*
X258183249Y-81174860D01*
X258427144Y-81418755D01*
X258618770Y-81705543D01*
X258696090Y-81892210D01*
X258750668Y-82023973D01*
X258750763Y-82024204D01*
X258818053Y-82362491D01*
X258818053Y-82707411D01*
X258750763Y-83045698D01*
X258618770Y-83364359D01*
X258427144Y-83651147D01*
X258183249Y-83895042D01*
X257896461Y-84086668D01*
X257709794Y-84163988D01*
X257577801Y-84218661D01*
X257465038Y-84241091D01*
X257239513Y-84285951D01*
X256894593Y-84285951D01*
X256669068Y-84241091D01*
X256556305Y-84218661D01*
X256424312Y-84163988D01*
X256237645Y-84086668D01*
X255950857Y-83895042D01*
X255706962Y-83651147D01*
X255515336Y-83364359D01*
X255383343Y-83045698D01*
X255316053Y-82707411D01*
X255316053Y-82362491D01*
X255383343Y-82024204D01*
X255383439Y-82023973D01*
X255438016Y-81892210D01*
X255515336Y-81705543D01*
X255706962Y-81418755D01*
X255950857Y-81174860D01*
X256237645Y-80983234D01*
X256424312Y-80905914D01*
X256556305Y-80851241D01*
X256669068Y-80828811D01*
X256894593Y-80783951D01*
X257239513Y-80783951D01*
X257465038Y-80828811D01*
G37*
G36*
X40415210Y-80816290D02*
G01*
X40589764Y-80851011D01*
X40678153Y-80887623D01*
X40908424Y-80983004D01*
X41195212Y-81174630D01*
X41439107Y-81418525D01*
X41630733Y-81705313D01*
X41762726Y-82023974D01*
X41830016Y-82362261D01*
X41830016Y-82707181D01*
X41829970Y-82707411D01*
X41762726Y-83045469D01*
X41708053Y-83177462D01*
X41630733Y-83364129D01*
X41439107Y-83650917D01*
X41195212Y-83894812D01*
X40908424Y-84086438D01*
X40760871Y-84147556D01*
X40589764Y-84218431D01*
X40477001Y-84240861D01*
X40251476Y-84285721D01*
X39906556Y-84285721D01*
X39681031Y-84240861D01*
X39568268Y-84218431D01*
X39397161Y-84147556D01*
X39249608Y-84086438D01*
X38962820Y-83894812D01*
X38718925Y-83650917D01*
X38527299Y-83364129D01*
X38449979Y-83177462D01*
X38395306Y-83045469D01*
X38328062Y-82707411D01*
X38328016Y-82707181D01*
X38328016Y-82362261D01*
X38395306Y-82023974D01*
X38527299Y-81705313D01*
X38718925Y-81418525D01*
X38962820Y-81174630D01*
X39249608Y-80983004D01*
X39479879Y-80887623D01*
X39568268Y-80851011D01*
X39742822Y-80816290D01*
X39906556Y-80783721D01*
X40251476Y-80783721D01*
X40415210Y-80816290D01*
G37*
G36*
X200493093Y-80783951D02*
G01*
X200656813Y-80816517D01*
X200781514Y-80868170D01*
X200975473Y-80948510D01*
X201262261Y-81140136D01*
X201506156Y-81384031D01*
X201697782Y-81670819D01*
X201829775Y-81989480D01*
X201897065Y-82327767D01*
X201897065Y-82672687D01*
X201829775Y-83010974D01*
X201697782Y-83329635D01*
X201506156Y-83616423D01*
X201262261Y-83860318D01*
X200975473Y-84051944D01*
X200891641Y-84086668D01*
X200656813Y-84183937D01*
X200544050Y-84206367D01*
X200318525Y-84251227D01*
X199973605Y-84251227D01*
X199748080Y-84206367D01*
X199635317Y-84183937D01*
X199400489Y-84086668D01*
X199316657Y-84051944D01*
X199029869Y-83860318D01*
X198785974Y-83616423D01*
X198594348Y-83329635D01*
X198462355Y-83010974D01*
X198395065Y-82672687D01*
X198395065Y-82327767D01*
X198462355Y-81989480D01*
X198594348Y-81670819D01*
X198785974Y-81384031D01*
X199029869Y-81140136D01*
X199316657Y-80948510D01*
X199510616Y-80868170D01*
X199635317Y-80816517D01*
X199799037Y-80783951D01*
X199973605Y-80749227D01*
X200318525Y-80749227D01*
X200493093Y-80783951D01*
G37*
G36*
X97348169Y-80783951D02*
G01*
X97510748Y-80816290D01*
X97635997Y-80868170D01*
X97829408Y-80948283D01*
X98116196Y-81139909D01*
X98360091Y-81383804D01*
X98551717Y-81670592D01*
X98566194Y-81705543D01*
X98683710Y-81989252D01*
X98690662Y-82024203D01*
X98751000Y-82327540D01*
X98751000Y-82672460D01*
X98706140Y-82897985D01*
X98683710Y-83010748D01*
X98629037Y-83142741D01*
X98551717Y-83329408D01*
X98360091Y-83616196D01*
X98116196Y-83860091D01*
X97829408Y-84051717D01*
X97745028Y-84086668D01*
X97510748Y-84183710D01*
X97397985Y-84206140D01*
X97172460Y-84251000D01*
X96827540Y-84251000D01*
X96602015Y-84206140D01*
X96489252Y-84183710D01*
X96254972Y-84086668D01*
X96170592Y-84051717D01*
X95883804Y-83860091D01*
X95639909Y-83616196D01*
X95448283Y-83329408D01*
X95370963Y-83142741D01*
X95316290Y-83010748D01*
X95293860Y-82897985D01*
X95249000Y-82672460D01*
X95249000Y-82327540D01*
X95309338Y-82024203D01*
X95316290Y-81989252D01*
X95433806Y-81705543D01*
X95448283Y-81670592D01*
X95639909Y-81383804D01*
X95883804Y-81139909D01*
X96170592Y-80948283D01*
X96364003Y-80868170D01*
X96489252Y-80816290D01*
X96651831Y-80783951D01*
X96827540Y-80749000D01*
X97172460Y-80749000D01*
X97348169Y-80783951D01*
G37*
G36*
X23829382Y-81187667D02*
G01*
X23418407Y-82423103D01*
X22467634Y-82106823D01*
X22878609Y-80871387D01*
X23829382Y-81187667D01*
G37*
G36*
X274682465Y-82103606D02*
G01*
X273731692Y-82419886D01*
X273320717Y-81184450D01*
X274271490Y-80868170D01*
X274682465Y-82103606D01*
G37*
G36*
X262399383Y-79902808D02*
G01*
X262548683Y-79932505D01*
X262712655Y-80000425D01*
X262860225Y-80099028D01*
X262985724Y-80224527D01*
X263084327Y-80372097D01*
X263152247Y-80536069D01*
X263186871Y-80710140D01*
X263186871Y-80887622D01*
X263152247Y-81061693D01*
X263084327Y-81225665D01*
X262985724Y-81373235D01*
X262860225Y-81498734D01*
X262712655Y-81597337D01*
X262548683Y-81665257D01*
X262399383Y-81694954D01*
X262374613Y-81699881D01*
X262197129Y-81699881D01*
X262172359Y-81694954D01*
X262023059Y-81665257D01*
X261859087Y-81597337D01*
X261711517Y-81498734D01*
X261586018Y-81373235D01*
X261487415Y-81225665D01*
X261419495Y-81061693D01*
X261384871Y-80887622D01*
X261384871Y-80710140D01*
X261419495Y-80536069D01*
X261487415Y-80372097D01*
X261586018Y-80224527D01*
X261711517Y-80099028D01*
X261859087Y-80000425D01*
X262023059Y-79932505D01*
X262172359Y-79902808D01*
X262197129Y-79897881D01*
X262374613Y-79897881D01*
X262399383Y-79902808D01*
G37*
G36*
X34973710Y-79902578D02*
G01*
X35123010Y-79932275D01*
X35286982Y-80000195D01*
X35434552Y-80098798D01*
X35560051Y-80224297D01*
X35658654Y-80371867D01*
X35726574Y-80535839D01*
X35761198Y-80709910D01*
X35761198Y-80887392D01*
X35726574Y-81061463D01*
X35658654Y-81225435D01*
X35560051Y-81373005D01*
X35434552Y-81498504D01*
X35286982Y-81597107D01*
X35123010Y-81665027D01*
X34973710Y-81694724D01*
X34948940Y-81699651D01*
X34771456Y-81699651D01*
X34746686Y-81694724D01*
X34597386Y-81665027D01*
X34433414Y-81597107D01*
X34285844Y-81498504D01*
X34160345Y-81373005D01*
X34061742Y-81225435D01*
X33993822Y-81061463D01*
X33959198Y-80887392D01*
X33959198Y-80709910D01*
X33993822Y-80535839D01*
X34061742Y-80371867D01*
X34160345Y-80224297D01*
X34285844Y-80098798D01*
X34433414Y-80000195D01*
X34597386Y-79932275D01*
X34746686Y-79902578D01*
X34771456Y-79897651D01*
X34948940Y-79897651D01*
X34973710Y-79902578D01*
G37*
G36*
X205478395Y-79868084D02*
G01*
X205627695Y-79897781D01*
X205791667Y-79965701D01*
X205939237Y-80064304D01*
X206064736Y-80189803D01*
X206163339Y-80337373D01*
X206231259Y-80501345D01*
X206265883Y-80675416D01*
X206265883Y-80852898D01*
X206231259Y-81026969D01*
X206163339Y-81190941D01*
X206064736Y-81338511D01*
X205939237Y-81464010D01*
X205791667Y-81562613D01*
X205627695Y-81630533D01*
X205478395Y-81660230D01*
X205453625Y-81665157D01*
X205276141Y-81665157D01*
X205251371Y-81660230D01*
X205102071Y-81630533D01*
X204938099Y-81562613D01*
X204790529Y-81464010D01*
X204665030Y-81338511D01*
X204566427Y-81190941D01*
X204498507Y-81026969D01*
X204463883Y-80852898D01*
X204463883Y-80675416D01*
X204498507Y-80501345D01*
X204566427Y-80337373D01*
X204665030Y-80189803D01*
X204790529Y-80064304D01*
X204938099Y-79965701D01*
X205102071Y-79897781D01*
X205251371Y-79868084D01*
X205276141Y-79863157D01*
X205453625Y-79863157D01*
X205478395Y-79868084D01*
G37*
G36*
X91894694Y-79867857D02*
G01*
X92043994Y-79897554D01*
X92207966Y-79965474D01*
X92355536Y-80064077D01*
X92481035Y-80189576D01*
X92579638Y-80337146D01*
X92647558Y-80501118D01*
X92682182Y-80675189D01*
X92682182Y-80852671D01*
X92647558Y-81026742D01*
X92579638Y-81190714D01*
X92481035Y-81338284D01*
X92355536Y-81463783D01*
X92207966Y-81562386D01*
X92043994Y-81630306D01*
X91894694Y-81660003D01*
X91869924Y-81664930D01*
X91692440Y-81664930D01*
X91667670Y-81660003D01*
X91518370Y-81630306D01*
X91354398Y-81562386D01*
X91206828Y-81463783D01*
X91081329Y-81338284D01*
X90982726Y-81190714D01*
X90914806Y-81026742D01*
X90880182Y-80852671D01*
X90880182Y-80675189D01*
X90914806Y-80501118D01*
X90982726Y-80337146D01*
X91081329Y-80189576D01*
X91206828Y-80064077D01*
X91354398Y-79965474D01*
X91518370Y-79897554D01*
X91667670Y-79867857D01*
X91692440Y-79862930D01*
X91869924Y-79862930D01*
X91894694Y-79867857D01*
G37*
G36*
X20698092Y-80146025D02*
G01*
X20287117Y-81381461D01*
X19336344Y-81065181D01*
X19747319Y-79829745D01*
X20698092Y-80146025D01*
G37*
G36*
X277813755Y-81061964D02*
G01*
X276862982Y-81378244D01*
X276452007Y-80142808D01*
X277402780Y-79826528D01*
X277813755Y-81061964D01*
G37*
G36*
X269041513Y-77693262D02*
G01*
X269190813Y-77722959D01*
X269354785Y-77790879D01*
X269502355Y-77889482D01*
X269627854Y-78014981D01*
X269726457Y-78162551D01*
X269794377Y-78326523D01*
X269809983Y-78404982D01*
X269828952Y-78500345D01*
X269829001Y-78500594D01*
X269829001Y-78678076D01*
X269794377Y-78852147D01*
X269726457Y-79016119D01*
X269627854Y-79163689D01*
X269502355Y-79289188D01*
X269354785Y-79387791D01*
X269190813Y-79455711D01*
X269041513Y-79485408D01*
X269016743Y-79490335D01*
X268839259Y-79490335D01*
X268814489Y-79485408D01*
X268665189Y-79455711D01*
X268501217Y-79387791D01*
X268353647Y-79289188D01*
X268228148Y-79163689D01*
X268129545Y-79016119D01*
X268061625Y-78852147D01*
X268027001Y-78678076D01*
X268027001Y-78500594D01*
X268027051Y-78500345D01*
X268046019Y-78404982D01*
X268061625Y-78326523D01*
X268129545Y-78162551D01*
X268228148Y-78014981D01*
X268353647Y-77889482D01*
X268501217Y-77790879D01*
X268665189Y-77722959D01*
X268814489Y-77693262D01*
X268839259Y-77688335D01*
X269016743Y-77688335D01*
X269041513Y-77693262D01*
G37*
G36*
X28331500Y-77693013D02*
G01*
X28480800Y-77722710D01*
X28644772Y-77790630D01*
X28792342Y-77889233D01*
X28917841Y-78014732D01*
X29016444Y-78162302D01*
X29084364Y-78326274D01*
X29114061Y-78475574D01*
X29118988Y-78500344D01*
X29118988Y-78677828D01*
X29118938Y-78678077D01*
X29084364Y-78851898D01*
X29016444Y-79015870D01*
X28917841Y-79163440D01*
X28792342Y-79288939D01*
X28644772Y-79387542D01*
X28480800Y-79455462D01*
X28331500Y-79485159D01*
X28306730Y-79490086D01*
X28129246Y-79490086D01*
X28104476Y-79485159D01*
X27955176Y-79455462D01*
X27791204Y-79387542D01*
X27643634Y-79288939D01*
X27518135Y-79163440D01*
X27419532Y-79015870D01*
X27351612Y-78851898D01*
X27317038Y-78678077D01*
X27316988Y-78677828D01*
X27316988Y-78500344D01*
X27321915Y-78475574D01*
X27351612Y-78326274D01*
X27419532Y-78162302D01*
X27518135Y-78014732D01*
X27643634Y-77889233D01*
X27791204Y-77790630D01*
X27955176Y-77722710D01*
X28104476Y-77693013D01*
X28129246Y-77688086D01*
X28306730Y-77688086D01*
X28331500Y-77693013D01*
G37*
G36*
X151730997Y-77078051D02*
G01*
X151764652Y-77088261D01*
X151795665Y-77104838D01*
X151822851Y-77127149D01*
X151845162Y-77154335D01*
X151861739Y-77185348D01*
X151871949Y-77219003D01*
X151876000Y-77260138D01*
X151876000Y-78589862D01*
X151871949Y-78630997D01*
X151861739Y-78664652D01*
X151845162Y-78695665D01*
X151822851Y-78722851D01*
X151795665Y-78745162D01*
X151764652Y-78761739D01*
X151730997Y-78771949D01*
X151689862Y-78776000D01*
X150310138Y-78776000D01*
X150269003Y-78771949D01*
X150235348Y-78761739D01*
X150204335Y-78745162D01*
X150177149Y-78722851D01*
X150154838Y-78695665D01*
X150138261Y-78664652D01*
X150128051Y-78630997D01*
X150124000Y-78589862D01*
X150124000Y-77260138D01*
X150128051Y-77219003D01*
X150138261Y-77185348D01*
X150154838Y-77154335D01*
X150177149Y-77127149D01*
X150204335Y-77104838D01*
X150235348Y-77088261D01*
X150269003Y-77078051D01*
X150310138Y-77074000D01*
X151689862Y-77074000D01*
X151730997Y-77078051D01*
G37*
G36*
X143434468Y-77253565D02*
G01*
X143473138Y-77265296D01*
X143508777Y-77284346D01*
X143540017Y-77309983D01*
X143565654Y-77341223D01*
X143584704Y-77376862D01*
X143596435Y-77415532D01*
X143601000Y-77461888D01*
X143601000Y-78538112D01*
X143596435Y-78584468D01*
X143584704Y-78623138D01*
X143565654Y-78658777D01*
X143540017Y-78690017D01*
X143508777Y-78715654D01*
X143473138Y-78734704D01*
X143434468Y-78746435D01*
X143388112Y-78751000D01*
X142736888Y-78751000D01*
X142690532Y-78746435D01*
X142651862Y-78734704D01*
X142616223Y-78715654D01*
X142584983Y-78690017D01*
X142559346Y-78658777D01*
X142540296Y-78623138D01*
X142528565Y-78584468D01*
X142524000Y-78538112D01*
X142524000Y-77461888D01*
X142528565Y-77415532D01*
X142540296Y-77376862D01*
X142559346Y-77341223D01*
X142584983Y-77309983D01*
X142616223Y-77284346D01*
X142651862Y-77265296D01*
X142690532Y-77253565D01*
X142736888Y-77249000D01*
X143388112Y-77249000D01*
X143434468Y-77253565D01*
G37*
G36*
X145309468Y-77253565D02*
G01*
X145348138Y-77265296D01*
X145383777Y-77284346D01*
X145415017Y-77309983D01*
X145440654Y-77341223D01*
X145459704Y-77376862D01*
X145471435Y-77415532D01*
X145476000Y-77461888D01*
X145476000Y-78538112D01*
X145471435Y-78584468D01*
X145459704Y-78623138D01*
X145440654Y-78658777D01*
X145415017Y-78690017D01*
X145383777Y-78715654D01*
X145348138Y-78734704D01*
X145309468Y-78746435D01*
X145263112Y-78751000D01*
X144611888Y-78751000D01*
X144565532Y-78746435D01*
X144526862Y-78734704D01*
X144491223Y-78715654D01*
X144459983Y-78690017D01*
X144434346Y-78658777D01*
X144415296Y-78623138D01*
X144403565Y-78584468D01*
X144399000Y-78538112D01*
X144399000Y-77461888D01*
X144403565Y-77415532D01*
X144415296Y-77376862D01*
X144434346Y-77341223D01*
X144459983Y-77309983D01*
X144491223Y-77284346D01*
X144526862Y-77265296D01*
X144565532Y-77253565D01*
X144611888Y-77249000D01*
X145263112Y-77249000D01*
X145309468Y-77253565D01*
G37*
G36*
X274509959Y-75140194D02*
G01*
X274657567Y-75169555D01*
X274789560Y-75224228D01*
X274976227Y-75301548D01*
X275263015Y-75493174D01*
X275506910Y-75737069D01*
X275698536Y-76023857D01*
X275731613Y-76103713D01*
X275830529Y-76342517D01*
X275837755Y-76378847D01*
X275897819Y-76680805D01*
X275897819Y-77025725D01*
X275877644Y-77127149D01*
X275830529Y-77364013D01*
X275809189Y-77415532D01*
X275698536Y-77682673D01*
X275506910Y-77969461D01*
X275263015Y-78213356D01*
X274976227Y-78404982D01*
X274790892Y-78481750D01*
X274657567Y-78536975D01*
X274544804Y-78559405D01*
X274319279Y-78604265D01*
X273974359Y-78604265D01*
X273748834Y-78559405D01*
X273636071Y-78536975D01*
X273502746Y-78481750D01*
X273317411Y-78404982D01*
X273030623Y-78213356D01*
X272786728Y-77969461D01*
X272595102Y-77682673D01*
X272484449Y-77415532D01*
X272463109Y-77364013D01*
X272415994Y-77127149D01*
X272395819Y-77025725D01*
X272395819Y-76680805D01*
X272455883Y-76378847D01*
X272463109Y-76342517D01*
X272562025Y-76103713D01*
X272595102Y-76023857D01*
X272786728Y-75737069D01*
X273030623Y-75493174D01*
X273317411Y-75301548D01*
X273504078Y-75224228D01*
X273636071Y-75169555D01*
X273783679Y-75140194D01*
X273974359Y-75102265D01*
X274319279Y-75102265D01*
X274509959Y-75140194D01*
G37*
G36*
X23363562Y-75140194D02*
G01*
X23509918Y-75169306D01*
X23598350Y-75205936D01*
X23828578Y-75301299D01*
X24115366Y-75492925D01*
X24359261Y-75736820D01*
X24550887Y-76023608D01*
X24584067Y-76103713D01*
X24682880Y-76342268D01*
X24682930Y-76342518D01*
X24750170Y-76680556D01*
X24750170Y-77025476D01*
X24750120Y-77025725D01*
X24682880Y-77363764D01*
X24628207Y-77495757D01*
X24550887Y-77682424D01*
X24359261Y-77969212D01*
X24115366Y-78213107D01*
X23828578Y-78404733D01*
X23642642Y-78481750D01*
X23509918Y-78536726D01*
X23397155Y-78559156D01*
X23171630Y-78604016D01*
X22826710Y-78604016D01*
X22601185Y-78559156D01*
X22488422Y-78536726D01*
X22355698Y-78481750D01*
X22169762Y-78404733D01*
X21882974Y-78213107D01*
X21639079Y-77969212D01*
X21447453Y-77682424D01*
X21370133Y-77495757D01*
X21315460Y-77363764D01*
X21248220Y-77025725D01*
X21248170Y-77025476D01*
X21248170Y-76680556D01*
X21315410Y-76342518D01*
X21315460Y-76342268D01*
X21414273Y-76103713D01*
X21447453Y-76023608D01*
X21639079Y-75736820D01*
X21882974Y-75492925D01*
X22169762Y-75301299D01*
X22399990Y-75205936D01*
X22488422Y-75169306D01*
X22634778Y-75140194D01*
X22826710Y-75102016D01*
X23171630Y-75102016D01*
X23363562Y-75140194D01*
G37*
G36*
X120275941Y-76385420D02*
G01*
X119864966Y-77620856D01*
X118914193Y-77304576D01*
X119325168Y-76069140D01*
X120275941Y-76385420D01*
G37*
G36*
X178235909Y-77301357D02*
G01*
X177285136Y-77617637D01*
X176874161Y-76382201D01*
X177824934Y-76065921D01*
X178235909Y-77301357D01*
G37*
G36*
X63670602Y-75471265D02*
G01*
X63259627Y-76706701D01*
X62308854Y-76390421D01*
X62719829Y-75154985D01*
X63670602Y-75471265D01*
G37*
G36*
X234841247Y-76387202D02*
G01*
X233890474Y-76703482D01*
X233479499Y-75468046D01*
X234430272Y-75151766D01*
X234841247Y-76387202D01*
G37*
G36*
X82644265Y-75459691D02*
G01*
X82233290Y-76695127D01*
X81282517Y-76378847D01*
X81693492Y-75143411D01*
X82644265Y-75459691D01*
G37*
G36*
X215867585Y-76375630D02*
G01*
X214916812Y-76691910D01*
X214505837Y-75456474D01*
X215456610Y-75140194D01*
X215867585Y-76375630D01*
G37*
G36*
X117144651Y-75343778D02*
G01*
X116733676Y-76579214D01*
X115782903Y-76262934D01*
X116193878Y-75027498D01*
X117144651Y-75343778D01*
G37*
G36*
X181367199Y-76259715D02*
G01*
X180416426Y-76575995D01*
X180005451Y-75340559D01*
X180956224Y-75024279D01*
X181367199Y-76259715D01*
G37*
G36*
X131001913Y-73087007D02*
G01*
X131172410Y-73120921D01*
X131454674Y-73237838D01*
X131708705Y-73407576D01*
X131924741Y-73623612D01*
X132094479Y-73877643D01*
X132211396Y-74159907D01*
X132228171Y-74244243D01*
X132271000Y-74459556D01*
X132271000Y-74765078D01*
X132253285Y-74854135D01*
X132211396Y-75064727D01*
X132094479Y-75346991D01*
X131924741Y-75601022D01*
X131708705Y-75817058D01*
X131454674Y-75986796D01*
X131172410Y-76103713D01*
X131022585Y-76133515D01*
X130872761Y-76163317D01*
X130567239Y-76163317D01*
X130417415Y-76133515D01*
X130267590Y-76103713D01*
X129985326Y-75986796D01*
X129731295Y-75817058D01*
X129515259Y-75601022D01*
X129345521Y-75346991D01*
X129228604Y-75064727D01*
X129186715Y-74854135D01*
X129169000Y-74765078D01*
X129169000Y-74459556D01*
X129211829Y-74244243D01*
X129228604Y-74159907D01*
X129345521Y-73877643D01*
X129515259Y-73623612D01*
X129731295Y-73407576D01*
X129985326Y-73237838D01*
X130267590Y-73120921D01*
X130438087Y-73087007D01*
X130567239Y-73061317D01*
X130872761Y-73061317D01*
X131001913Y-73087007D01*
G37*
G36*
X166561913Y-73087007D02*
G01*
X166732410Y-73120921D01*
X167014674Y-73237838D01*
X167268705Y-73407576D01*
X167484741Y-73623612D01*
X167654479Y-73877643D01*
X167771396Y-74159907D01*
X167788171Y-74244243D01*
X167831000Y-74459556D01*
X167831000Y-74765078D01*
X167813285Y-74854135D01*
X167771396Y-75064727D01*
X167654479Y-75346991D01*
X167484741Y-75601022D01*
X167268705Y-75817058D01*
X167014674Y-75986796D01*
X166732410Y-76103713D01*
X166582585Y-76133515D01*
X166432761Y-76163317D01*
X166127239Y-76163317D01*
X165977415Y-76133515D01*
X165827590Y-76103713D01*
X165545326Y-75986796D01*
X165291295Y-75817058D01*
X165075259Y-75601022D01*
X164905521Y-75346991D01*
X164788604Y-75064727D01*
X164746715Y-74854135D01*
X164729000Y-74765078D01*
X164729000Y-74459556D01*
X164771829Y-74244243D01*
X164788604Y-74159907D01*
X164905521Y-73877643D01*
X165075259Y-73623612D01*
X165291295Y-73407576D01*
X165545326Y-73237838D01*
X165827590Y-73120921D01*
X165998087Y-73087007D01*
X166127239Y-73061317D01*
X166432761Y-73061317D01*
X166561913Y-73087007D01*
G37*
G36*
X279479149Y-74221122D02*
G01*
X279628449Y-74250819D01*
X279792421Y-74318739D01*
X279939991Y-74417342D01*
X280065490Y-74542841D01*
X280164093Y-74690411D01*
X280232013Y-74854383D01*
X280261710Y-75003683D01*
X280266588Y-75028205D01*
X280266637Y-75028454D01*
X280266637Y-75205936D01*
X280232013Y-75380007D01*
X280164093Y-75543979D01*
X280065490Y-75691549D01*
X279939991Y-75817048D01*
X279792421Y-75915651D01*
X279628449Y-75983571D01*
X279479149Y-76013268D01*
X279454379Y-76018195D01*
X279276895Y-76018195D01*
X279252125Y-76013268D01*
X279102825Y-75983571D01*
X278938853Y-75915651D01*
X278791283Y-75817048D01*
X278665784Y-75691549D01*
X278567181Y-75543979D01*
X278499261Y-75380007D01*
X278464637Y-75205936D01*
X278464637Y-75028454D01*
X278464687Y-75028205D01*
X278469564Y-75003683D01*
X278499261Y-74854383D01*
X278567181Y-74690411D01*
X278665784Y-74542841D01*
X278791283Y-74417342D01*
X278938853Y-74318739D01*
X279102825Y-74250819D01*
X279252125Y-74221122D01*
X279276895Y-74216195D01*
X279454379Y-74216195D01*
X279479149Y-74221122D01*
G37*
G36*
X17893864Y-74220873D02*
G01*
X18043164Y-74250570D01*
X18207136Y-74318490D01*
X18354706Y-74417093D01*
X18480205Y-74542592D01*
X18578808Y-74690162D01*
X18646728Y-74854134D01*
X18676425Y-75003434D01*
X18681352Y-75028204D01*
X18681352Y-75205688D01*
X18681302Y-75205937D01*
X18646728Y-75379758D01*
X18578808Y-75543730D01*
X18480205Y-75691300D01*
X18354706Y-75816799D01*
X18207136Y-75915402D01*
X18043164Y-75983322D01*
X17893864Y-76013019D01*
X17869094Y-76017946D01*
X17691610Y-76017946D01*
X17666840Y-76013019D01*
X17517540Y-75983322D01*
X17353568Y-75915402D01*
X17205998Y-75816799D01*
X17080499Y-75691300D01*
X16981896Y-75543730D01*
X16913976Y-75379758D01*
X16879402Y-75205937D01*
X16879352Y-75205688D01*
X16879352Y-75028204D01*
X16884279Y-75003434D01*
X16913976Y-74854134D01*
X16981896Y-74690162D01*
X17080499Y-74542592D01*
X17205998Y-74417093D01*
X17353568Y-74318490D01*
X17517540Y-74250570D01*
X17666840Y-74220873D01*
X17691610Y-74215946D01*
X17869094Y-74215946D01*
X17893864Y-74220873D01*
G37*
G36*
X151730997Y-74228051D02*
G01*
X151764652Y-74238261D01*
X151795665Y-74254838D01*
X151822851Y-74277149D01*
X151845162Y-74304335D01*
X151861739Y-74335348D01*
X151871949Y-74369003D01*
X151876000Y-74410138D01*
X151876000Y-75739862D01*
X151871949Y-75780997D01*
X151861739Y-75814652D01*
X151845162Y-75845665D01*
X151822851Y-75872851D01*
X151795665Y-75895162D01*
X151764652Y-75911739D01*
X151730997Y-75921949D01*
X151689862Y-75926000D01*
X150310138Y-75926000D01*
X150269003Y-75921949D01*
X150235348Y-75911739D01*
X150204335Y-75895162D01*
X150177149Y-75872851D01*
X150154838Y-75845665D01*
X150138261Y-75814652D01*
X150128051Y-75780997D01*
X150124000Y-75739862D01*
X150124000Y-74410138D01*
X150128051Y-74369003D01*
X150138261Y-74335348D01*
X150154838Y-74304335D01*
X150177149Y-74277149D01*
X150204335Y-74254838D01*
X150235348Y-74238261D01*
X150269003Y-74228051D01*
X150310138Y-74224000D01*
X151689862Y-74224000D01*
X151730997Y-74228051D01*
G37*
G36*
X60539312Y-74429623D02*
G01*
X60128337Y-75665059D01*
X59177564Y-75348779D01*
X59588539Y-74113343D01*
X60539312Y-74429623D01*
G37*
G36*
X237972537Y-75345560D02*
G01*
X237021764Y-75661840D01*
X236610789Y-74426404D01*
X237561562Y-74110124D01*
X237972537Y-75345560D01*
G37*
G36*
X79512975Y-74418049D02*
G01*
X79102000Y-75653485D01*
X78151227Y-75337205D01*
X78562202Y-74101769D01*
X79512975Y-74418049D01*
G37*
G36*
X218998875Y-75333988D02*
G01*
X218048102Y-75650268D01*
X217637127Y-74414832D01*
X218587900Y-74098552D01*
X218998875Y-75333988D01*
G37*
G36*
X172577970Y-72887633D02*
G01*
X172744258Y-72920709D01*
X172908230Y-72988629D01*
X173055800Y-73087232D01*
X173181299Y-73212731D01*
X173279902Y-73360301D01*
X173347822Y-73524273D01*
X173382446Y-73698344D01*
X173382446Y-73875826D01*
X173347822Y-74049897D01*
X173279902Y-74213869D01*
X173181299Y-74361439D01*
X173055800Y-74486938D01*
X172908230Y-74585541D01*
X172744258Y-74653461D01*
X172594958Y-74683158D01*
X172570188Y-74688085D01*
X172392704Y-74688085D01*
X172367934Y-74683158D01*
X172218634Y-74653461D01*
X172054662Y-74585541D01*
X171907092Y-74486938D01*
X171781593Y-74361439D01*
X171682990Y-74213869D01*
X171615070Y-74049897D01*
X171580446Y-73875826D01*
X171580446Y-73698344D01*
X171615070Y-73524273D01*
X171682990Y-73360301D01*
X171781593Y-73212731D01*
X171907092Y-73087232D01*
X172054662Y-72988629D01*
X172218634Y-72920709D01*
X172384922Y-72887633D01*
X172392704Y-72886085D01*
X172570188Y-72886085D01*
X172577970Y-72887633D01*
G37*
G36*
X124778134Y-72890787D02*
G01*
X124927434Y-72920484D01*
X125091406Y-72988404D01*
X125238976Y-73087007D01*
X125364475Y-73212506D01*
X125463078Y-73360076D01*
X125530998Y-73524048D01*
X125550802Y-73623612D01*
X125565622Y-73698118D01*
X125565622Y-73875602D01*
X125560695Y-73900372D01*
X125530998Y-74049672D01*
X125463078Y-74213644D01*
X125364475Y-74361214D01*
X125238976Y-74486713D01*
X125091406Y-74585316D01*
X124927434Y-74653236D01*
X124778134Y-74682933D01*
X124753364Y-74687860D01*
X124575880Y-74687860D01*
X124551110Y-74682933D01*
X124401810Y-74653236D01*
X124237838Y-74585316D01*
X124090268Y-74486713D01*
X123964769Y-74361214D01*
X123866166Y-74213644D01*
X123798246Y-74049672D01*
X123768549Y-73900372D01*
X123763622Y-73875602D01*
X123763622Y-73698118D01*
X123778442Y-73623612D01*
X123798246Y-73524048D01*
X123866166Y-73360076D01*
X123964769Y-73212506D01*
X124090268Y-73087007D01*
X124237838Y-72988404D01*
X124401810Y-72920484D01*
X124551110Y-72890787D01*
X124575880Y-72885860D01*
X124753364Y-72885860D01*
X124778134Y-72890787D01*
G37*
G36*
X178098249Y-70344875D02*
G01*
X178211012Y-70367305D01*
X178335720Y-70418961D01*
X178529672Y-70499298D01*
X178816460Y-70690924D01*
X179060355Y-70934819D01*
X179251981Y-71221607D01*
X179329301Y-71408274D01*
X179383974Y-71540267D01*
X179402978Y-71635809D01*
X179451264Y-71878555D01*
X179451264Y-72223475D01*
X179436370Y-72298350D01*
X179383974Y-72561763D01*
X179363944Y-72610119D01*
X179251981Y-72880423D01*
X179060355Y-73167211D01*
X178816460Y-73411106D01*
X178529672Y-73602732D01*
X178391868Y-73659812D01*
X178211012Y-73734725D01*
X178098249Y-73757155D01*
X177872724Y-73802015D01*
X177527804Y-73802015D01*
X177302279Y-73757155D01*
X177189516Y-73734725D01*
X177008660Y-73659812D01*
X176870856Y-73602732D01*
X176584068Y-73411106D01*
X176340173Y-73167211D01*
X176148547Y-72880423D01*
X176036584Y-72610119D01*
X176016554Y-72561763D01*
X175964158Y-72298350D01*
X175949264Y-72223475D01*
X175949264Y-71878555D01*
X175997550Y-71635809D01*
X176016554Y-71540267D01*
X176071227Y-71408274D01*
X176148547Y-71221607D01*
X176340173Y-70934819D01*
X176584068Y-70690924D01*
X176870856Y-70499298D01*
X177064808Y-70418961D01*
X177189516Y-70367305D01*
X177302279Y-70344875D01*
X177527804Y-70300015D01*
X177872724Y-70300015D01*
X178098249Y-70344875D01*
G37*
G36*
X119843789Y-70344650D02*
G01*
X119956552Y-70367080D01*
X120088545Y-70421753D01*
X120275212Y-70499073D01*
X120562000Y-70690699D01*
X120805895Y-70934594D01*
X120997521Y-71221382D01*
X121129514Y-71540043D01*
X121196804Y-71878330D01*
X121196804Y-72223250D01*
X121181820Y-72298577D01*
X121129514Y-72561538D01*
X121081687Y-72677002D01*
X120997521Y-72880198D01*
X120805895Y-73166986D01*
X120562000Y-73410881D01*
X120275212Y-73602507D01*
X120108922Y-73671386D01*
X119956552Y-73734500D01*
X119843789Y-73756930D01*
X119618264Y-73801790D01*
X119273344Y-73801790D01*
X119047819Y-73756930D01*
X118935056Y-73734500D01*
X118782686Y-73671386D01*
X118616396Y-73602507D01*
X118329608Y-73410881D01*
X118085713Y-73166986D01*
X117894087Y-72880198D01*
X117809921Y-72677002D01*
X117762094Y-72561538D01*
X117709788Y-72298577D01*
X117694804Y-72223250D01*
X117694804Y-71878330D01*
X117762094Y-71540043D01*
X117894087Y-71221382D01*
X118085713Y-70934594D01*
X118329608Y-70690699D01*
X118616396Y-70499073D01*
X118803063Y-70421753D01*
X118935056Y-70367080D01*
X119047819Y-70344650D01*
X119273344Y-70299790D01*
X119618264Y-70299790D01*
X119843789Y-70344650D01*
G37*
G36*
X229200292Y-71976857D02*
G01*
X229349592Y-72006554D01*
X229513564Y-72074474D01*
X229661134Y-72173077D01*
X229786633Y-72298576D01*
X229885236Y-72446146D01*
X229953156Y-72610118D01*
X229987780Y-72784189D01*
X229987780Y-72961671D01*
X229953156Y-73135742D01*
X229885236Y-73299714D01*
X229786633Y-73447284D01*
X229661134Y-73572783D01*
X229513564Y-73671386D01*
X229349592Y-73739306D01*
X229200292Y-73769003D01*
X229175522Y-73773930D01*
X228998038Y-73773930D01*
X228973268Y-73769003D01*
X228823968Y-73739306D01*
X228659996Y-73671386D01*
X228512426Y-73572783D01*
X228386927Y-73447284D01*
X228288324Y-73299714D01*
X228220404Y-73135742D01*
X228185780Y-72961671D01*
X228185780Y-72784189D01*
X228220404Y-72610118D01*
X228288324Y-72446146D01*
X228386927Y-72298576D01*
X228512426Y-72173077D01*
X228659996Y-72074474D01*
X228823968Y-72006554D01*
X228973268Y-71976857D01*
X228998038Y-71971930D01*
X229175522Y-71971930D01*
X229200292Y-71976857D01*
G37*
G36*
X68172795Y-71976630D02*
G01*
X68322095Y-72006327D01*
X68486067Y-72074247D01*
X68633637Y-72172850D01*
X68759136Y-72298349D01*
X68857739Y-72445919D01*
X68925659Y-72609891D01*
X68941310Y-72688577D01*
X68957982Y-72772391D01*
X68960283Y-72783962D01*
X68960283Y-72961444D01*
X68925659Y-73135515D01*
X68857739Y-73299487D01*
X68759136Y-73447057D01*
X68633637Y-73572556D01*
X68486067Y-73671159D01*
X68322095Y-73739079D01*
X68172795Y-73768776D01*
X68148025Y-73773703D01*
X67970541Y-73773703D01*
X67945771Y-73768776D01*
X67796471Y-73739079D01*
X67632499Y-73671159D01*
X67484929Y-73572556D01*
X67359430Y-73447057D01*
X67260827Y-73299487D01*
X67192907Y-73135515D01*
X67158283Y-72961444D01*
X67158283Y-72783962D01*
X67160585Y-72772391D01*
X67177256Y-72688577D01*
X67192907Y-72609891D01*
X67260827Y-72445919D01*
X67359430Y-72298349D01*
X67484929Y-72172850D01*
X67632499Y-72074247D01*
X67796471Y-72006327D01*
X67945771Y-71976630D01*
X67970541Y-71971703D01*
X68148025Y-71971703D01*
X68172795Y-71976630D01*
G37*
G36*
X210226630Y-71965283D02*
G01*
X210375930Y-71994980D01*
X210539902Y-72062900D01*
X210687472Y-72161503D01*
X210812971Y-72287002D01*
X210911574Y-72434572D01*
X210979494Y-72598544D01*
X210997357Y-72688350D01*
X211014074Y-72772391D01*
X211014118Y-72772615D01*
X211014118Y-72950097D01*
X210979494Y-73124168D01*
X210911574Y-73288140D01*
X210812971Y-73435710D01*
X210687472Y-73561209D01*
X210539902Y-73659812D01*
X210375930Y-73727732D01*
X210226630Y-73757429D01*
X210201860Y-73762356D01*
X210024376Y-73762356D01*
X209999606Y-73757429D01*
X209850306Y-73727732D01*
X209686334Y-73659812D01*
X209538764Y-73561209D01*
X209413265Y-73435710D01*
X209314662Y-73288140D01*
X209246742Y-73124168D01*
X209212118Y-72950097D01*
X209212118Y-72772615D01*
X209212163Y-72772391D01*
X209228879Y-72688350D01*
X209246742Y-72598544D01*
X209314662Y-72434572D01*
X209413265Y-72287002D01*
X209538764Y-72161503D01*
X209686334Y-72062900D01*
X209850306Y-71994980D01*
X209999606Y-71965283D01*
X210024376Y-71960356D01*
X210201860Y-71960356D01*
X210226630Y-71965283D01*
G37*
G36*
X87146459Y-71965059D02*
G01*
X87295759Y-71994756D01*
X87459731Y-72062676D01*
X87607301Y-72161279D01*
X87732800Y-72286778D01*
X87831403Y-72434348D01*
X87899323Y-72598320D01*
X87929020Y-72747620D01*
X87933947Y-72772390D01*
X87933947Y-72949874D01*
X87931645Y-72961445D01*
X87899323Y-73123944D01*
X87831403Y-73287916D01*
X87732800Y-73435486D01*
X87607301Y-73560985D01*
X87459731Y-73659588D01*
X87295759Y-73727508D01*
X87146459Y-73757205D01*
X87121689Y-73762132D01*
X86944205Y-73762132D01*
X86919435Y-73757205D01*
X86770135Y-73727508D01*
X86606163Y-73659588D01*
X86458593Y-73560985D01*
X86333094Y-73435486D01*
X86234491Y-73287916D01*
X86166571Y-73123944D01*
X86134249Y-72961445D01*
X86131947Y-72949874D01*
X86131947Y-72772390D01*
X86136874Y-72747620D01*
X86166571Y-72598320D01*
X86234491Y-72434348D01*
X86333094Y-72286778D01*
X86458593Y-72161279D01*
X86606163Y-72062676D01*
X86770135Y-71994756D01*
X86919435Y-71965059D01*
X86944205Y-71960132D01*
X87121689Y-71960132D01*
X87146459Y-71965059D01*
G37*
G36*
X234703583Y-69430720D02*
G01*
X234816346Y-69453150D01*
X234931866Y-69501000D01*
X235135006Y-69585143D01*
X235421794Y-69776769D01*
X235665689Y-70020664D01*
X235857315Y-70307452D01*
X235903503Y-70418961D01*
X235984422Y-70614315D01*
X235989308Y-70626113D01*
X236056553Y-70964173D01*
X236056598Y-70964402D01*
X236056598Y-71309318D01*
X235989308Y-71647608D01*
X235934635Y-71779601D01*
X235857315Y-71966268D01*
X235665689Y-72253056D01*
X235421794Y-72496951D01*
X235135006Y-72688577D01*
X234948339Y-72765897D01*
X234816346Y-72820570D01*
X234703583Y-72843000D01*
X234478058Y-72887860D01*
X234133138Y-72887860D01*
X233907613Y-72843000D01*
X233794850Y-72820570D01*
X233662857Y-72765897D01*
X233476190Y-72688577D01*
X233189402Y-72496951D01*
X232945507Y-72253056D01*
X232753881Y-71966268D01*
X232676561Y-71779601D01*
X232621888Y-71647608D01*
X232554598Y-71309318D01*
X232554598Y-70964402D01*
X232554644Y-70964173D01*
X232621888Y-70626113D01*
X232626775Y-70614315D01*
X232707693Y-70418961D01*
X232753881Y-70307452D01*
X232945507Y-70020664D01*
X233189402Y-69776769D01*
X233476190Y-69585143D01*
X233679330Y-69501000D01*
X233794850Y-69453150D01*
X233907613Y-69430720D01*
X234133138Y-69385860D01*
X234478058Y-69385860D01*
X234703583Y-69430720D01*
G37*
G36*
X63238450Y-69430493D02*
G01*
X63351213Y-69452923D01*
X63467281Y-69501000D01*
X63669873Y-69584916D01*
X63956661Y-69776542D01*
X64200556Y-70020437D01*
X64392182Y-70307225D01*
X64438464Y-70418961D01*
X64519383Y-70614315D01*
X64524175Y-70625886D01*
X64591465Y-70964173D01*
X64591465Y-71309093D01*
X64546605Y-71534618D01*
X64524175Y-71647381D01*
X64469502Y-71779374D01*
X64392182Y-71966041D01*
X64200556Y-72252829D01*
X63956661Y-72496724D01*
X63669873Y-72688350D01*
X63483206Y-72765670D01*
X63351213Y-72820343D01*
X63238450Y-72842773D01*
X63012925Y-72887633D01*
X62668005Y-72887633D01*
X62442480Y-72842773D01*
X62329717Y-72820343D01*
X62197724Y-72765670D01*
X62011057Y-72688350D01*
X61724269Y-72496724D01*
X61480374Y-72252829D01*
X61288748Y-71966041D01*
X61211428Y-71779374D01*
X61156755Y-71647381D01*
X61134325Y-71534618D01*
X61089465Y-71309093D01*
X61089465Y-70964173D01*
X61156755Y-70625886D01*
X61161548Y-70614315D01*
X61242466Y-70418961D01*
X61288748Y-70307225D01*
X61480374Y-70020437D01*
X61724269Y-69776542D01*
X62011057Y-69584916D01*
X62213649Y-69501000D01*
X62329717Y-69452923D01*
X62442480Y-69430493D01*
X62668005Y-69385633D01*
X63012925Y-69385633D01*
X63238450Y-69430493D01*
G37*
G36*
X215729921Y-69419146D02*
G01*
X215842684Y-69441576D01*
X215957909Y-69489304D01*
X216161344Y-69573569D01*
X216448132Y-69765195D01*
X216692027Y-70009090D01*
X216883653Y-70295878D01*
X216934635Y-70418961D01*
X217015646Y-70614538D01*
X217030840Y-70690924D01*
X217082936Y-70952826D01*
X217082936Y-71297746D01*
X217038076Y-71523271D01*
X217015646Y-71636034D01*
X216960973Y-71768027D01*
X216883653Y-71954694D01*
X216692027Y-72241482D01*
X216448132Y-72485377D01*
X216161344Y-72677003D01*
X215974677Y-72754323D01*
X215842684Y-72808996D01*
X215729921Y-72831426D01*
X215504396Y-72876286D01*
X215159476Y-72876286D01*
X214933951Y-72831426D01*
X214821188Y-72808996D01*
X214689195Y-72754323D01*
X214502528Y-72677003D01*
X214215740Y-72485377D01*
X213971845Y-72241482D01*
X213780219Y-71954694D01*
X213702899Y-71768027D01*
X213648226Y-71636034D01*
X213625796Y-71523271D01*
X213580936Y-71297746D01*
X213580936Y-70952826D01*
X213633032Y-70690924D01*
X213648226Y-70614538D01*
X213729237Y-70418961D01*
X213780219Y-70295878D01*
X213971845Y-70009090D01*
X214215740Y-69765195D01*
X214502528Y-69573569D01*
X214705963Y-69489304D01*
X214821188Y-69441576D01*
X214933951Y-69419146D01*
X215159476Y-69374286D01*
X215504396Y-69374286D01*
X215729921Y-69419146D01*
G37*
G36*
X82187093Y-69413945D02*
G01*
X82324877Y-69441352D01*
X82456870Y-69496025D01*
X82643537Y-69573345D01*
X82930325Y-69764971D01*
X83174220Y-70008866D01*
X83365846Y-70295654D01*
X83402538Y-70384237D01*
X83497839Y-70614314D01*
X83520269Y-70727077D01*
X83565129Y-70952602D01*
X83565129Y-71297522D01*
X83562782Y-71309320D01*
X83497839Y-71635810D01*
X83492952Y-71647608D01*
X83365846Y-71954470D01*
X83174220Y-72241258D01*
X82930325Y-72485153D01*
X82643537Y-72676779D01*
X82456870Y-72754099D01*
X82324877Y-72808772D01*
X82265564Y-72820570D01*
X81986589Y-72876062D01*
X81641669Y-72876062D01*
X81362694Y-72820570D01*
X81303381Y-72808772D01*
X81171388Y-72754099D01*
X80984721Y-72676779D01*
X80697933Y-72485153D01*
X80454038Y-72241258D01*
X80262412Y-71954470D01*
X80135306Y-71647608D01*
X80130419Y-71635810D01*
X80065476Y-71309320D01*
X80063129Y-71297522D01*
X80063129Y-70952602D01*
X80107989Y-70727077D01*
X80130419Y-70614314D01*
X80225720Y-70384237D01*
X80262412Y-70295654D01*
X80454038Y-70008866D01*
X80697933Y-69764971D01*
X80984721Y-69573345D01*
X81171388Y-69496025D01*
X81303381Y-69441352D01*
X81441165Y-69413945D01*
X81641669Y-69374062D01*
X81986589Y-69374062D01*
X82187093Y-69413945D01*
G37*
G36*
X46275185Y-70738457D02*
G01*
X45864210Y-71973893D01*
X44913437Y-71657613D01*
X45324412Y-70422177D01*
X46275185Y-70738457D01*
G37*
G36*
X252236666Y-71654397D02*
G01*
X251285893Y-71970677D01*
X250874918Y-70735241D01*
X251825691Y-70418961D01*
X252236666Y-71654397D01*
G37*
G36*
X103196172Y-70703738D02*
G01*
X102785197Y-71939174D01*
X101834424Y-71622894D01*
X102245399Y-70387458D01*
X103196172Y-70703738D01*
G37*
G36*
X195315678Y-71619673D02*
G01*
X194364905Y-71935953D01*
X193953930Y-70700517D01*
X194904703Y-70384237D01*
X195315678Y-71619673D01*
G37*
G36*
X150251000Y-71901000D02*
G01*
X147149000Y-71901000D01*
X147149000Y-70449000D01*
X150251000Y-70449000D01*
X150251000Y-71901000D01*
G37*
G36*
X152901000Y-71901000D02*
G01*
X150699000Y-71901000D01*
X150699000Y-70199000D01*
X152901000Y-70199000D01*
X152901000Y-71901000D01*
G37*
G36*
X146701000Y-71901000D02*
G01*
X144499000Y-71901000D01*
X144499000Y-70199000D01*
X146701000Y-70199000D01*
X146701000Y-71901000D01*
G37*
G36*
X183032594Y-69418872D02*
G01*
X183181894Y-69448569D01*
X183345866Y-69516489D01*
X183493436Y-69615092D01*
X183618935Y-69740591D01*
X183717538Y-69888161D01*
X183785458Y-70052133D01*
X183820082Y-70226204D01*
X183820082Y-70403686D01*
X183785458Y-70577757D01*
X183717538Y-70741729D01*
X183618935Y-70889299D01*
X183493436Y-71014798D01*
X183345866Y-71113401D01*
X183181894Y-71181321D01*
X183032594Y-71211018D01*
X183007824Y-71215945D01*
X182830340Y-71215945D01*
X182805570Y-71211018D01*
X182656270Y-71181321D01*
X182492298Y-71113401D01*
X182344728Y-71014798D01*
X182219229Y-70889299D01*
X182120626Y-70741729D01*
X182052706Y-70577757D01*
X182018082Y-70403686D01*
X182018082Y-70226204D01*
X182052706Y-70052133D01*
X182120626Y-69888161D01*
X182219229Y-69740591D01*
X182344728Y-69615092D01*
X182492298Y-69516489D01*
X182656270Y-69448569D01*
X182805570Y-69418872D01*
X182830340Y-69413945D01*
X183007824Y-69413945D01*
X183032594Y-69418872D01*
G37*
G36*
X114340498Y-69418647D02*
G01*
X114489798Y-69448344D01*
X114653770Y-69516264D01*
X114801340Y-69614867D01*
X114926839Y-69740366D01*
X115025442Y-69887936D01*
X115093362Y-70051908D01*
X115127986Y-70225979D01*
X115127986Y-70403461D01*
X115093362Y-70577532D01*
X115025442Y-70741504D01*
X114926839Y-70889074D01*
X114801340Y-71014573D01*
X114653770Y-71113176D01*
X114489798Y-71181096D01*
X114340498Y-71210793D01*
X114315728Y-71215720D01*
X114138244Y-71215720D01*
X114113474Y-71210793D01*
X113964174Y-71181096D01*
X113800202Y-71113176D01*
X113652632Y-71014573D01*
X113527133Y-70889074D01*
X113428530Y-70741504D01*
X113360610Y-70577532D01*
X113325986Y-70403461D01*
X113325986Y-70225979D01*
X113360610Y-70051908D01*
X113428530Y-69887936D01*
X113527133Y-69740366D01*
X113652632Y-69614867D01*
X113800202Y-69516264D01*
X113964174Y-69448344D01*
X114113474Y-69418647D01*
X114138244Y-69413720D01*
X114315728Y-69413720D01*
X114340498Y-69418647D01*
G37*
G36*
X43143895Y-69696815D02*
G01*
X42732920Y-70932251D01*
X41782147Y-70615971D01*
X42193122Y-69380535D01*
X43143895Y-69696815D01*
G37*
G36*
X255367956Y-70612755D02*
G01*
X254417183Y-70929035D01*
X254006208Y-69693599D01*
X254956981Y-69377319D01*
X255367956Y-70612755D01*
G37*
G36*
X100064882Y-69662096D02*
G01*
X99653907Y-70897532D01*
X98703134Y-70581252D01*
X99114109Y-69345816D01*
X100064882Y-69662096D01*
G37*
G36*
X198446968Y-70578031D02*
G01*
X197496195Y-70894311D01*
X197085220Y-69658875D01*
X198035993Y-69342595D01*
X198446968Y-70578031D01*
G37*
G36*
X139300309Y-70604018D02*
G01*
X138298309Y-70604018D01*
X138298309Y-68802018D01*
X139300309Y-68802018D01*
X139300309Y-70604018D01*
G37*
G36*
X142700309Y-70604018D02*
G01*
X141698309Y-70604018D01*
X141698309Y-68802018D01*
X142700309Y-68802018D01*
X142700309Y-70604018D01*
G37*
G36*
X239637928Y-68504717D02*
G01*
X239787228Y-68534414D01*
X239951200Y-68602334D01*
X240098770Y-68700937D01*
X240224269Y-68826436D01*
X240322872Y-68974006D01*
X240390792Y-69137978D01*
X240425416Y-69312049D01*
X240425416Y-69489531D01*
X240390792Y-69663602D01*
X240322872Y-69827574D01*
X240224269Y-69975144D01*
X240098770Y-70100643D01*
X239951200Y-70199246D01*
X239787228Y-70267166D01*
X239642884Y-70295877D01*
X239613158Y-70301790D01*
X239435674Y-70301790D01*
X239405948Y-70295877D01*
X239261604Y-70267166D01*
X239097632Y-70199246D01*
X238950062Y-70100643D01*
X238824563Y-69975144D01*
X238725960Y-69827574D01*
X238658040Y-69663602D01*
X238623416Y-69489531D01*
X238623416Y-69312049D01*
X238658040Y-69137978D01*
X238725960Y-68974006D01*
X238824563Y-68826436D01*
X238950062Y-68700937D01*
X239097632Y-68602334D01*
X239261604Y-68534414D01*
X239410904Y-68504717D01*
X239435674Y-68499790D01*
X239613158Y-68499790D01*
X239637928Y-68504717D01*
G37*
G36*
X57735159Y-68504490D02*
G01*
X57884459Y-68534187D01*
X58048431Y-68602107D01*
X58196001Y-68700710D01*
X58321500Y-68826209D01*
X58420103Y-68973779D01*
X58488023Y-69137751D01*
X58517720Y-69287051D01*
X58520346Y-69300251D01*
X58522647Y-69311822D01*
X58522647Y-69489304D01*
X58488023Y-69663375D01*
X58420103Y-69827347D01*
X58321500Y-69974917D01*
X58196001Y-70100416D01*
X58048431Y-70199019D01*
X57884459Y-70266939D01*
X57740100Y-70295653D01*
X57710389Y-70301563D01*
X57532905Y-70301563D01*
X57503194Y-70295653D01*
X57358835Y-70266939D01*
X57194863Y-70199019D01*
X57047293Y-70100416D01*
X56921794Y-69974917D01*
X56823191Y-69827347D01*
X56755271Y-69663375D01*
X56720647Y-69489304D01*
X56720647Y-69311822D01*
X56722949Y-69300251D01*
X56725574Y-69287051D01*
X56755271Y-69137751D01*
X56823191Y-68973779D01*
X56921794Y-68826209D01*
X57047293Y-68700710D01*
X57194863Y-68602107D01*
X57358835Y-68534187D01*
X57508135Y-68504490D01*
X57532905Y-68499563D01*
X57710389Y-68499563D01*
X57735159Y-68504490D01*
G37*
G36*
X220664266Y-68493143D02*
G01*
X220813566Y-68522840D01*
X220977538Y-68590760D01*
X221125108Y-68689363D01*
X221250607Y-68814862D01*
X221349210Y-68962432D01*
X221417130Y-69126404D01*
X221446827Y-69275704D01*
X221451710Y-69300251D01*
X221451754Y-69300475D01*
X221451754Y-69477957D01*
X221417130Y-69652028D01*
X221349210Y-69816000D01*
X221250607Y-69963570D01*
X221125108Y-70089069D01*
X220977538Y-70187672D01*
X220813566Y-70255592D01*
X220664266Y-70285289D01*
X220639496Y-70290216D01*
X220462012Y-70290216D01*
X220437242Y-70285289D01*
X220287942Y-70255592D01*
X220123970Y-70187672D01*
X219976400Y-70089069D01*
X219850901Y-69963570D01*
X219752298Y-69816000D01*
X219684378Y-69652028D01*
X219649754Y-69477957D01*
X219649754Y-69300475D01*
X219649799Y-69300251D01*
X219654681Y-69275704D01*
X219684378Y-69126404D01*
X219752298Y-68962432D01*
X219850901Y-68814862D01*
X219976400Y-68689363D01*
X220123970Y-68590760D01*
X220287942Y-68522840D01*
X220437242Y-68493143D01*
X220462012Y-68488216D01*
X220639496Y-68488216D01*
X220664266Y-68493143D01*
G37*
G36*
X76708823Y-68492919D02*
G01*
X76858123Y-68522616D01*
X77022095Y-68590536D01*
X77169665Y-68689139D01*
X77295164Y-68814638D01*
X77393767Y-68962208D01*
X77461687Y-69126180D01*
X77491384Y-69275480D01*
X77496311Y-69300250D01*
X77496311Y-69477734D01*
X77494009Y-69489305D01*
X77461687Y-69651804D01*
X77393767Y-69815776D01*
X77295164Y-69963346D01*
X77169665Y-70088845D01*
X77022095Y-70187448D01*
X76858123Y-70255368D01*
X76708823Y-70285065D01*
X76684053Y-70289992D01*
X76506569Y-70289992D01*
X76481799Y-70285065D01*
X76332499Y-70255368D01*
X76168527Y-70187448D01*
X76020957Y-70088845D01*
X75895458Y-69963346D01*
X75796855Y-69815776D01*
X75728935Y-69651804D01*
X75696613Y-69489305D01*
X75694311Y-69477734D01*
X75694311Y-69300250D01*
X75699238Y-69275480D01*
X75728935Y-69126180D01*
X75796855Y-68962208D01*
X75895458Y-68814638D01*
X76020957Y-68689139D01*
X76168527Y-68590536D01*
X76332499Y-68522616D01*
X76481799Y-68492919D01*
X76506569Y-68487992D01*
X76684053Y-68487992D01*
X76708823Y-68492919D01*
G37*
G36*
X153451000Y-69501000D02*
G01*
X151549000Y-69501000D01*
X151549000Y-67499000D01*
X153451000Y-67499000D01*
X153451000Y-69501000D01*
G37*
G36*
X150901000Y-69501000D02*
G01*
X148899000Y-69501000D01*
X148899000Y-67499000D01*
X150901000Y-67499000D01*
X150901000Y-69501000D01*
G37*
G36*
X148501000Y-69501000D02*
G01*
X146499000Y-69501000D01*
X146499000Y-67499000D01*
X148501000Y-67499000D01*
X148501000Y-69501000D01*
G37*
G36*
X145851000Y-69501000D02*
G01*
X143949000Y-69501000D01*
X143949000Y-67499000D01*
X145851000Y-67499000D01*
X145851000Y-69501000D01*
G37*
G36*
X246595713Y-67244052D02*
G01*
X246745013Y-67273749D01*
X246908985Y-67341669D01*
X247056555Y-67440272D01*
X247182054Y-67565771D01*
X247280657Y-67713341D01*
X247348577Y-67877313D01*
X247364183Y-67955772D01*
X247383157Y-68051160D01*
X247383201Y-68051384D01*
X247383201Y-68228866D01*
X247348577Y-68402937D01*
X247280657Y-68566909D01*
X247182054Y-68714479D01*
X247056555Y-68839978D01*
X246908985Y-68938581D01*
X246745013Y-69006501D01*
X246595713Y-69036198D01*
X246570943Y-69041125D01*
X246393459Y-69041125D01*
X246368689Y-69036198D01*
X246219389Y-69006501D01*
X246055417Y-68938581D01*
X245907847Y-68839978D01*
X245782348Y-68714479D01*
X245683745Y-68566909D01*
X245615825Y-68402937D01*
X245581201Y-68228866D01*
X245581201Y-68051384D01*
X245581246Y-68051160D01*
X245600219Y-67955772D01*
X245615825Y-67877313D01*
X245683745Y-67713341D01*
X245782348Y-67565771D01*
X245907847Y-67440272D01*
X246055417Y-67341669D01*
X246219389Y-67273749D01*
X246368689Y-67244052D01*
X246393459Y-67239125D01*
X246570943Y-67239125D01*
X246595713Y-67244052D01*
G37*
G36*
X50777376Y-67243829D02*
G01*
X50926676Y-67273526D01*
X51090648Y-67341446D01*
X51238218Y-67440049D01*
X51363717Y-67565548D01*
X51462320Y-67713118D01*
X51530240Y-67877090D01*
X51545846Y-67955549D01*
X51564864Y-68051160D01*
X51564864Y-68228644D01*
X51559937Y-68253414D01*
X51530240Y-68402714D01*
X51462320Y-68566686D01*
X51363717Y-68714256D01*
X51238218Y-68839755D01*
X51090648Y-68938358D01*
X50926676Y-69006278D01*
X50777376Y-69035975D01*
X50752606Y-69040902D01*
X50575122Y-69040902D01*
X50550352Y-69035975D01*
X50401052Y-69006278D01*
X50237080Y-68938358D01*
X50089510Y-68839755D01*
X49964011Y-68714256D01*
X49865408Y-68566686D01*
X49797488Y-68402714D01*
X49767791Y-68253414D01*
X49762864Y-68228644D01*
X49762864Y-68051160D01*
X49781882Y-67955549D01*
X49797488Y-67877090D01*
X49865408Y-67713118D01*
X49964011Y-67565548D01*
X50089510Y-67440049D01*
X50237080Y-67341446D01*
X50401052Y-67273526D01*
X50550352Y-67243829D01*
X50575122Y-67238902D01*
X50752606Y-67238902D01*
X50777376Y-67243829D01*
G37*
G36*
X189674722Y-67209327D02*
G01*
X189824022Y-67239024D01*
X189987994Y-67306944D01*
X190135564Y-67405547D01*
X190261063Y-67531046D01*
X190359666Y-67678616D01*
X190427586Y-67842588D01*
X190462210Y-68016659D01*
X190462210Y-68194141D01*
X190427586Y-68368212D01*
X190359666Y-68532184D01*
X190261063Y-68679754D01*
X190135564Y-68805253D01*
X189987994Y-68903856D01*
X189824022Y-68971776D01*
X189674722Y-69001473D01*
X189649952Y-69006400D01*
X189472468Y-69006400D01*
X189447698Y-69001473D01*
X189298398Y-68971776D01*
X189134426Y-68903856D01*
X188986856Y-68805253D01*
X188861357Y-68679754D01*
X188762754Y-68532184D01*
X188694834Y-68368212D01*
X188660210Y-68194141D01*
X188660210Y-68016659D01*
X188694834Y-67842588D01*
X188762754Y-67678616D01*
X188861357Y-67531046D01*
X188986856Y-67405547D01*
X189134426Y-67306944D01*
X189298398Y-67239024D01*
X189447698Y-67209327D01*
X189472468Y-67204400D01*
X189649952Y-67204400D01*
X189674722Y-67209327D01*
G37*
G36*
X107698364Y-67209106D02*
G01*
X107847664Y-67238803D01*
X108011636Y-67306723D01*
X108159206Y-67405326D01*
X108284705Y-67530825D01*
X108383308Y-67678395D01*
X108451228Y-67842367D01*
X108485852Y-68016438D01*
X108485852Y-68193920D01*
X108451228Y-68367991D01*
X108383308Y-68531963D01*
X108284705Y-68679533D01*
X108159206Y-68805032D01*
X108011636Y-68903635D01*
X107847664Y-68971555D01*
X107698364Y-69001252D01*
X107673594Y-69006179D01*
X107496110Y-69006179D01*
X107471340Y-69001252D01*
X107322040Y-68971555D01*
X107158068Y-68903635D01*
X107010498Y-68805032D01*
X106884999Y-68679533D01*
X106786396Y-68531963D01*
X106718476Y-68367991D01*
X106683852Y-68193920D01*
X106683852Y-68016438D01*
X106718476Y-67842367D01*
X106786396Y-67678395D01*
X106884999Y-67530825D01*
X107010498Y-67405326D01*
X107158068Y-67306723D01*
X107322040Y-67238803D01*
X107471340Y-67209106D01*
X107496110Y-67204179D01*
X107673594Y-67204179D01*
X107698364Y-67209106D01*
G37*
G36*
X252099004Y-64697915D02*
G01*
X252211767Y-64720345D01*
X252343760Y-64775018D01*
X252530427Y-64852338D01*
X252817215Y-65043964D01*
X253061110Y-65287859D01*
X253252736Y-65574647D01*
X253330056Y-65761314D01*
X253384637Y-65893084D01*
X253384729Y-65893308D01*
X253451975Y-66231372D01*
X253452019Y-66231597D01*
X253452019Y-66576513D01*
X253384774Y-66914579D01*
X253384729Y-66914802D01*
X253252736Y-67233463D01*
X253061110Y-67520251D01*
X252817215Y-67764146D01*
X252530427Y-67955772D01*
X252383434Y-68016658D01*
X252211767Y-68087765D01*
X252099004Y-68110195D01*
X251873479Y-68155055D01*
X251528559Y-68155055D01*
X251303034Y-68110195D01*
X251190271Y-68087765D01*
X251018604Y-68016658D01*
X250871611Y-67955772D01*
X250584823Y-67764146D01*
X250340928Y-67520251D01*
X250149302Y-67233463D01*
X250017309Y-66914802D01*
X250017265Y-66914579D01*
X249950019Y-66576513D01*
X249950019Y-66231597D01*
X249950064Y-66231372D01*
X250017309Y-65893308D01*
X250017402Y-65893084D01*
X250071982Y-65761314D01*
X250149302Y-65574647D01*
X250340928Y-65287859D01*
X250584823Y-65043964D01*
X250871611Y-64852338D01*
X251058278Y-64775018D01*
X251190271Y-64720345D01*
X251303034Y-64697915D01*
X251528559Y-64653055D01*
X251873479Y-64653055D01*
X252099004Y-64697915D01*
G37*
G36*
X45781230Y-64685399D02*
G01*
X45955794Y-64720122D01*
X46044166Y-64756727D01*
X46274454Y-64852115D01*
X46561242Y-65043741D01*
X46805137Y-65287636D01*
X46996763Y-65574424D01*
X46996855Y-65574647D01*
X47128756Y-65893084D01*
X47144595Y-65972714D01*
X47196046Y-66231372D01*
X47196046Y-66576292D01*
X47151186Y-66801817D01*
X47128756Y-66914580D01*
X47074083Y-67046573D01*
X46996763Y-67233240D01*
X46805137Y-67520028D01*
X46561242Y-67763923D01*
X46274454Y-67955549D01*
X46087787Y-68032869D01*
X45955794Y-68087542D01*
X45843031Y-68109972D01*
X45617506Y-68154832D01*
X45272586Y-68154832D01*
X45047061Y-68109972D01*
X44934298Y-68087542D01*
X44802305Y-68032869D01*
X44615638Y-67955549D01*
X44328850Y-67763923D01*
X44084955Y-67520028D01*
X43893329Y-67233240D01*
X43816009Y-67046573D01*
X43761336Y-66914580D01*
X43738906Y-66801817D01*
X43694046Y-66576292D01*
X43694046Y-66231372D01*
X43745497Y-65972714D01*
X43761336Y-65893084D01*
X43893237Y-65574647D01*
X43893329Y-65574424D01*
X44084955Y-65287636D01*
X44328850Y-65043741D01*
X44615638Y-64852115D01*
X44845926Y-64756727D01*
X44934298Y-64720122D01*
X45108862Y-64685399D01*
X45272586Y-64652832D01*
X45617506Y-64652832D01*
X45781230Y-64685399D01*
G37*
G36*
X195127061Y-64653055D02*
G01*
X195290776Y-64685620D01*
X195415489Y-64737278D01*
X195609436Y-64817613D01*
X195896224Y-65009239D01*
X196140119Y-65253134D01*
X196331745Y-65539922D01*
X196346036Y-65574424D01*
X196463647Y-65858362D01*
X196463738Y-65858583D01*
X196531028Y-66196870D01*
X196531028Y-66541790D01*
X196486168Y-66767315D01*
X196463738Y-66880078D01*
X196449355Y-66914802D01*
X196331745Y-67198738D01*
X196140119Y-67485526D01*
X195896224Y-67729421D01*
X195609436Y-67921047D01*
X195422769Y-67998367D01*
X195290776Y-68053040D01*
X195178013Y-68075470D01*
X194952488Y-68120330D01*
X194607568Y-68120330D01*
X194382043Y-68075470D01*
X194269280Y-68053040D01*
X194137287Y-67998367D01*
X193950620Y-67921047D01*
X193663832Y-67729421D01*
X193419937Y-67485526D01*
X193228311Y-67198738D01*
X193110701Y-66914802D01*
X193096318Y-66880078D01*
X193073888Y-66767315D01*
X193029028Y-66541790D01*
X193029028Y-66196870D01*
X193096318Y-65858583D01*
X193096410Y-65858362D01*
X193214020Y-65574424D01*
X193228311Y-65539922D01*
X193419937Y-65253134D01*
X193663832Y-65009239D01*
X193950620Y-64817613D01*
X194144567Y-64737278D01*
X194269280Y-64685620D01*
X194432995Y-64653055D01*
X194607568Y-64618330D01*
X194952488Y-64618330D01*
X195127061Y-64653055D01*
G37*
G36*
X102714178Y-64653055D02*
G01*
X102876782Y-64685399D01*
X102965147Y-64722001D01*
X103195442Y-64817392D01*
X103482230Y-65009018D01*
X103726125Y-65252913D01*
X103917751Y-65539701D01*
X104049744Y-65858362D01*
X104117034Y-66196649D01*
X104117034Y-66541569D01*
X104072174Y-66767094D01*
X104049744Y-66879857D01*
X104035361Y-66914580D01*
X103917751Y-67198517D01*
X103726125Y-67485305D01*
X103482230Y-67729200D01*
X103195442Y-67920826D01*
X103111074Y-67955772D01*
X102876782Y-68052819D01*
X102764019Y-68075249D01*
X102538494Y-68120109D01*
X102193574Y-68120109D01*
X101968049Y-68075249D01*
X101855286Y-68052819D01*
X101620994Y-67955772D01*
X101536626Y-67920826D01*
X101249838Y-67729200D01*
X101005943Y-67485305D01*
X100814317Y-67198517D01*
X100696707Y-66914580D01*
X100682324Y-66879857D01*
X100659894Y-66767094D01*
X100615034Y-66541569D01*
X100615034Y-66196649D01*
X100682324Y-65858362D01*
X100814317Y-65539701D01*
X101005943Y-65252913D01*
X101249838Y-65009018D01*
X101536626Y-64817392D01*
X101766921Y-64722001D01*
X101855286Y-64685399D01*
X102017890Y-64653055D01*
X102193574Y-64618109D01*
X102538494Y-64618109D01*
X102714178Y-64653055D01*
G37*
G36*
X29195417Y-65056775D02*
G01*
X28784442Y-66292211D01*
X27833669Y-65975931D01*
X28244644Y-64740495D01*
X29195417Y-65056775D01*
G37*
G36*
X269316435Y-65972714D02*
G01*
X268365662Y-66288994D01*
X267954687Y-65053558D01*
X268905460Y-64737278D01*
X269316435Y-65972714D01*
G37*
G36*
X257033349Y-63771912D02*
G01*
X257182649Y-63801609D01*
X257346621Y-63869529D01*
X257494191Y-63968132D01*
X257619690Y-64093631D01*
X257718293Y-64241201D01*
X257786213Y-64405173D01*
X257813886Y-64544297D01*
X257820793Y-64579020D01*
X257820837Y-64579244D01*
X257820837Y-64756726D01*
X257786213Y-64930797D01*
X257718293Y-65094769D01*
X257619690Y-65242339D01*
X257494191Y-65367838D01*
X257346621Y-65466441D01*
X257182649Y-65534361D01*
X257033349Y-65564058D01*
X257008579Y-65568985D01*
X256831095Y-65568985D01*
X256806325Y-65564058D01*
X256657025Y-65534361D01*
X256493053Y-65466441D01*
X256345483Y-65367838D01*
X256219984Y-65242339D01*
X256121381Y-65094769D01*
X256053461Y-64930797D01*
X256018837Y-64756726D01*
X256018837Y-64579244D01*
X256018882Y-64579020D01*
X256025788Y-64544297D01*
X256053461Y-64405173D01*
X256121381Y-64241201D01*
X256219984Y-64093631D01*
X256345483Y-63968132D01*
X256493053Y-63869529D01*
X256657025Y-63801609D01*
X256806325Y-63771912D01*
X256831095Y-63766985D01*
X257008579Y-63766985D01*
X257033349Y-63771912D01*
G37*
G36*
X40339740Y-63771689D02*
G01*
X40489040Y-63801386D01*
X40653012Y-63869306D01*
X40800582Y-63967909D01*
X40926081Y-64093408D01*
X41024684Y-64240978D01*
X41092604Y-64404950D01*
X41120321Y-64544297D01*
X41127228Y-64579020D01*
X41127228Y-64756504D01*
X41122301Y-64781274D01*
X41092604Y-64930574D01*
X41024684Y-65094546D01*
X40926081Y-65242116D01*
X40800582Y-65367615D01*
X40653012Y-65466218D01*
X40489040Y-65534138D01*
X40339740Y-65563835D01*
X40314970Y-65568762D01*
X40137486Y-65568762D01*
X40112716Y-65563835D01*
X39963416Y-65534138D01*
X39799444Y-65466218D01*
X39651874Y-65367615D01*
X39526375Y-65242116D01*
X39427772Y-65094546D01*
X39359852Y-64930574D01*
X39330155Y-64781274D01*
X39325228Y-64756504D01*
X39325228Y-64579020D01*
X39332135Y-64544297D01*
X39359852Y-64404950D01*
X39427772Y-64240978D01*
X39526375Y-64093408D01*
X39651874Y-63967909D01*
X39799444Y-63869306D01*
X39963416Y-63801386D01*
X40112716Y-63771689D01*
X40137486Y-63766762D01*
X40314970Y-63766762D01*
X40339740Y-63771689D01*
G37*
G36*
X200112358Y-63737187D02*
G01*
X200261658Y-63766884D01*
X200425630Y-63834804D01*
X200573200Y-63933407D01*
X200698699Y-64058906D01*
X200797302Y-64206476D01*
X200865222Y-64370448D01*
X200899846Y-64544519D01*
X200899846Y-64722001D01*
X200865222Y-64896072D01*
X200797302Y-65060044D01*
X200698699Y-65207614D01*
X200573200Y-65333113D01*
X200425630Y-65431716D01*
X200261658Y-65499636D01*
X200112358Y-65529333D01*
X200087588Y-65534260D01*
X199910104Y-65534260D01*
X199885334Y-65529333D01*
X199736034Y-65499636D01*
X199572062Y-65431716D01*
X199424492Y-65333113D01*
X199298993Y-65207614D01*
X199200390Y-65060044D01*
X199132470Y-64896072D01*
X199097846Y-64722001D01*
X199097846Y-64544519D01*
X199132470Y-64370448D01*
X199200390Y-64206476D01*
X199298993Y-64058906D01*
X199424492Y-63933407D01*
X199572062Y-63834804D01*
X199736034Y-63766884D01*
X199885334Y-63737187D01*
X199910104Y-63732260D01*
X200087588Y-63732260D01*
X200112358Y-63737187D01*
G37*
G36*
X97260728Y-63736966D02*
G01*
X97410028Y-63766663D01*
X97574000Y-63834583D01*
X97721570Y-63933186D01*
X97847069Y-64058685D01*
X97945672Y-64206255D01*
X98013592Y-64370227D01*
X98048216Y-64544298D01*
X98048216Y-64721780D01*
X98013592Y-64895851D01*
X97945672Y-65059823D01*
X97847069Y-65207393D01*
X97721570Y-65332892D01*
X97574000Y-65431495D01*
X97410028Y-65499415D01*
X97260728Y-65529112D01*
X97235958Y-65534039D01*
X97058474Y-65534039D01*
X97033704Y-65529112D01*
X96884404Y-65499415D01*
X96720432Y-65431495D01*
X96572862Y-65332892D01*
X96447363Y-65207393D01*
X96348760Y-65059823D01*
X96280840Y-64895851D01*
X96246216Y-64721780D01*
X96246216Y-64544298D01*
X96280840Y-64370227D01*
X96348760Y-64206255D01*
X96447363Y-64058685D01*
X96572862Y-63933186D01*
X96720432Y-63834583D01*
X96884404Y-63766663D01*
X97033704Y-63736966D01*
X97058474Y-63732039D01*
X97235958Y-63732039D01*
X97260728Y-63736966D01*
G37*
G36*
X26064127Y-64015133D02*
G01*
X25653152Y-65250569D01*
X24702379Y-64934289D01*
X25113354Y-63698853D01*
X26064127Y-64015133D01*
G37*
G36*
X272447725Y-64931072D02*
G01*
X271496952Y-65247352D01*
X271085977Y-64011916D01*
X272036750Y-63695636D01*
X272447725Y-64931072D01*
G37*
G36*
X263675480Y-61562367D02*
G01*
X263824780Y-61592064D01*
X263988752Y-61659984D01*
X264136322Y-61758587D01*
X264261821Y-61884086D01*
X264360424Y-62031656D01*
X264428344Y-62195628D01*
X264443950Y-62274087D01*
X264462924Y-62369475D01*
X264462968Y-62369699D01*
X264462968Y-62547181D01*
X264428344Y-62721252D01*
X264360424Y-62885224D01*
X264261821Y-63032794D01*
X264136322Y-63158293D01*
X263988752Y-63256896D01*
X263824780Y-63324816D01*
X263675480Y-63354513D01*
X263650710Y-63359440D01*
X263473226Y-63359440D01*
X263448456Y-63354513D01*
X263299156Y-63324816D01*
X263135184Y-63256896D01*
X262987614Y-63158293D01*
X262862115Y-63032794D01*
X262763512Y-62885224D01*
X262695592Y-62721252D01*
X262660968Y-62547181D01*
X262660968Y-62369699D01*
X262661013Y-62369475D01*
X262679986Y-62274087D01*
X262695592Y-62195628D01*
X262763512Y-62031656D01*
X262862115Y-61884086D01*
X262987614Y-61758587D01*
X263135184Y-61659984D01*
X263299156Y-61592064D01*
X263448456Y-61562367D01*
X263473226Y-61557440D01*
X263650710Y-61557440D01*
X263675480Y-61562367D01*
G37*
G36*
X33697613Y-61562144D02*
G01*
X33846913Y-61591841D01*
X34010885Y-61659761D01*
X34158455Y-61758364D01*
X34283954Y-61883863D01*
X34382557Y-62031433D01*
X34450477Y-62195405D01*
X34466083Y-62273864D01*
X34485101Y-62369475D01*
X34485101Y-62546959D01*
X34480174Y-62571729D01*
X34450477Y-62721029D01*
X34382557Y-62885001D01*
X34283954Y-63032571D01*
X34158455Y-63158070D01*
X34010885Y-63256673D01*
X33846913Y-63324593D01*
X33697613Y-63354290D01*
X33672843Y-63359217D01*
X33495359Y-63359217D01*
X33470589Y-63354290D01*
X33321289Y-63324593D01*
X33157317Y-63256673D01*
X33009747Y-63158070D01*
X32884248Y-63032571D01*
X32785645Y-62885001D01*
X32717725Y-62721029D01*
X32688028Y-62571729D01*
X32683101Y-62546959D01*
X32683101Y-62369475D01*
X32702119Y-62273864D01*
X32717725Y-62195405D01*
X32785645Y-62031433D01*
X32884248Y-61883863D01*
X33009747Y-61758364D01*
X33157317Y-61659761D01*
X33321289Y-61591841D01*
X33470589Y-61562144D01*
X33495359Y-61557217D01*
X33672843Y-61557217D01*
X33697613Y-61562144D01*
G37*
G36*
X269160109Y-59012518D02*
G01*
X269291534Y-59038660D01*
X269423527Y-59093333D01*
X269610194Y-59170653D01*
X269896982Y-59362279D01*
X270140877Y-59606174D01*
X270332503Y-59892962D01*
X270409823Y-60079629D01*
X270464404Y-60211399D01*
X270464496Y-60211623D01*
X270531742Y-60549687D01*
X270531786Y-60549912D01*
X270531786Y-60894828D01*
X270464541Y-61232894D01*
X270464496Y-61233117D01*
X270332503Y-61551778D01*
X270140877Y-61838566D01*
X269896982Y-62082461D01*
X269610194Y-62274087D01*
X269423527Y-62351407D01*
X269291534Y-62406080D01*
X269178771Y-62428510D01*
X268953246Y-62473370D01*
X268608326Y-62473370D01*
X268382801Y-62428510D01*
X268270038Y-62406080D01*
X268138045Y-62351407D01*
X267951378Y-62274087D01*
X267664590Y-62082461D01*
X267420695Y-61838566D01*
X267229069Y-61551778D01*
X267097076Y-61233117D01*
X267097032Y-61232894D01*
X267029786Y-60894828D01*
X267029786Y-60549912D01*
X267029831Y-60549687D01*
X267097076Y-60211623D01*
X267097169Y-60211399D01*
X267151749Y-60079629D01*
X267229069Y-59892962D01*
X267420695Y-59606174D01*
X267664590Y-59362279D01*
X267951378Y-59170653D01*
X268138045Y-59093333D01*
X268270038Y-59038660D01*
X268401463Y-59012518D01*
X268608326Y-58971370D01*
X268953246Y-58971370D01*
X269160109Y-59012518D01*
G37*
G36*
X28745727Y-59012518D02*
G01*
X28876031Y-59038437D01*
X28964403Y-59075042D01*
X29194691Y-59170430D01*
X29481479Y-59362056D01*
X29725374Y-59605951D01*
X29917000Y-59892739D01*
X29917092Y-59892962D01*
X30048993Y-60211399D01*
X30055625Y-60244739D01*
X30116283Y-60549687D01*
X30116283Y-60894607D01*
X30071423Y-61120132D01*
X30048993Y-61232895D01*
X29994320Y-61364888D01*
X29917000Y-61551555D01*
X29725374Y-61838343D01*
X29481479Y-62082238D01*
X29194691Y-62273864D01*
X29008024Y-62351184D01*
X28876031Y-62405857D01*
X28763268Y-62428287D01*
X28537743Y-62473147D01*
X28192823Y-62473147D01*
X27967298Y-62428287D01*
X27854535Y-62405857D01*
X27722542Y-62351184D01*
X27535875Y-62273864D01*
X27249087Y-62082238D01*
X27005192Y-61838343D01*
X26813566Y-61551555D01*
X26736246Y-61364888D01*
X26681573Y-61232895D01*
X26659143Y-61120132D01*
X26614283Y-60894607D01*
X26614283Y-60549687D01*
X26674941Y-60244739D01*
X26681573Y-60211399D01*
X26813474Y-59892962D01*
X26813566Y-59892739D01*
X27005192Y-59605951D01*
X27249087Y-59362056D01*
X27535875Y-59170430D01*
X27766163Y-59075042D01*
X27854535Y-59038437D01*
X27984839Y-59012518D01*
X28192823Y-58971147D01*
X28537743Y-58971147D01*
X28745727Y-59012518D01*
G37*
G36*
X69036636Y-59340372D02*
G01*
X68625661Y-60575808D01*
X67674888Y-60259528D01*
X68085863Y-59024092D01*
X69036636Y-59340372D01*
G37*
G36*
X229475213Y-60256312D02*
G01*
X228524440Y-60572592D01*
X228113465Y-59337156D01*
X229064238Y-59020876D01*
X229475213Y-60256312D01*
G37*
G36*
X88010299Y-59328798D02*
G01*
X87599324Y-60564234D01*
X86648551Y-60247954D01*
X87059526Y-59012518D01*
X88010299Y-59328798D01*
G37*
G36*
X210501553Y-60244739D02*
G01*
X209550780Y-60561019D01*
X209139805Y-59325583D01*
X210090578Y-59009303D01*
X210501553Y-60244739D01*
G37*
G36*
X274113116Y-58090227D02*
G01*
X274262416Y-58119924D01*
X274426388Y-58187844D01*
X274573958Y-58286447D01*
X274699457Y-58411946D01*
X274798060Y-58559516D01*
X274865980Y-58723488D01*
X274895677Y-58872788D01*
X274900560Y-58897335D01*
X274900604Y-58897559D01*
X274900604Y-59075041D01*
X274865980Y-59249112D01*
X274798060Y-59413084D01*
X274699457Y-59560654D01*
X274573958Y-59686153D01*
X274426388Y-59784756D01*
X274262416Y-59852676D01*
X274113116Y-59882373D01*
X274088346Y-59887300D01*
X273910862Y-59887300D01*
X273886092Y-59882373D01*
X273736792Y-59852676D01*
X273572820Y-59784756D01*
X273425250Y-59686153D01*
X273299751Y-59560654D01*
X273201148Y-59413084D01*
X273133228Y-59249112D01*
X273098604Y-59075041D01*
X273098604Y-58897559D01*
X273098649Y-58897335D01*
X273103531Y-58872788D01*
X273133228Y-58723488D01*
X273201148Y-58559516D01*
X273299751Y-58411946D01*
X273425250Y-58286447D01*
X273572820Y-58187844D01*
X273736792Y-58119924D01*
X273886092Y-58090227D01*
X273910862Y-58085300D01*
X274088346Y-58085300D01*
X274113116Y-58090227D01*
G37*
G36*
X23259977Y-58090004D02*
G01*
X23409277Y-58119701D01*
X23573249Y-58187621D01*
X23720819Y-58286224D01*
X23846318Y-58411723D01*
X23944921Y-58559293D01*
X24012841Y-58723265D01*
X24042538Y-58872565D01*
X24047465Y-58897335D01*
X24047465Y-59074819D01*
X24042538Y-59099589D01*
X24012841Y-59248889D01*
X23944921Y-59412861D01*
X23846318Y-59560431D01*
X23720819Y-59685930D01*
X23573249Y-59784533D01*
X23409277Y-59852453D01*
X23259977Y-59882150D01*
X23235207Y-59887077D01*
X23057723Y-59887077D01*
X23032953Y-59882150D01*
X22883653Y-59852453D01*
X22719681Y-59784533D01*
X22572111Y-59685930D01*
X22446612Y-59560431D01*
X22348009Y-59412861D01*
X22280089Y-59248889D01*
X22250392Y-59099589D01*
X22245465Y-59074819D01*
X22245465Y-58897335D01*
X22250392Y-58872565D01*
X22280089Y-58723265D01*
X22348009Y-58559293D01*
X22446612Y-58411723D01*
X22572111Y-58286224D01*
X22719681Y-58187621D01*
X22883653Y-58119701D01*
X23032953Y-58090004D01*
X23057723Y-58085077D01*
X23235207Y-58085077D01*
X23259977Y-58090004D01*
G37*
G36*
X65905346Y-58298730D02*
G01*
X65494371Y-59534166D01*
X64543598Y-59217886D01*
X64954573Y-57982450D01*
X65905346Y-58298730D01*
G37*
G36*
X232606503Y-59214670D02*
G01*
X231655730Y-59530950D01*
X231244755Y-58295514D01*
X232195528Y-57979234D01*
X232606503Y-59214670D01*
G37*
G36*
X84879009Y-58287156D02*
G01*
X84468034Y-59522592D01*
X83517261Y-59206312D01*
X83928236Y-57970876D01*
X84879009Y-58287156D01*
G37*
G36*
X213632843Y-59203097D02*
G01*
X212682070Y-59519377D01*
X212271095Y-58283941D01*
X213221868Y-57967661D01*
X213632843Y-59203097D01*
G37*
G36*
X223834262Y-55845962D02*
G01*
X223983562Y-55875659D01*
X224147534Y-55943579D01*
X224295104Y-56042182D01*
X224420603Y-56167681D01*
X224519206Y-56315251D01*
X224587126Y-56479223D01*
X224602732Y-56557682D01*
X224621706Y-56653070D01*
X224621750Y-56653294D01*
X224621750Y-56830776D01*
X224587126Y-57004847D01*
X224519206Y-57168819D01*
X224420603Y-57316389D01*
X224295104Y-57441888D01*
X224147534Y-57540491D01*
X223983562Y-57608411D01*
X223834262Y-57638108D01*
X223809492Y-57643035D01*
X223632008Y-57643035D01*
X223607238Y-57638108D01*
X223457938Y-57608411D01*
X223293966Y-57540491D01*
X223146396Y-57441888D01*
X223020897Y-57316389D01*
X222922294Y-57168819D01*
X222854374Y-57004847D01*
X222819750Y-56830776D01*
X222819750Y-56653294D01*
X222819795Y-56653070D01*
X222838768Y-56557682D01*
X222854374Y-56479223D01*
X222922294Y-56315251D01*
X223020897Y-56167681D01*
X223146396Y-56042182D01*
X223293966Y-55943579D01*
X223457938Y-55875659D01*
X223607238Y-55845962D01*
X223632008Y-55841035D01*
X223809492Y-55841035D01*
X223834262Y-55845962D01*
G37*
G36*
X73538824Y-55845739D02*
G01*
X73688124Y-55875436D01*
X73852096Y-55943356D01*
X73999666Y-56041959D01*
X74125165Y-56167458D01*
X74223768Y-56315028D01*
X74291688Y-56479000D01*
X74307294Y-56557459D01*
X74326312Y-56653070D01*
X74326312Y-56830554D01*
X74321385Y-56855324D01*
X74291688Y-57004624D01*
X74223768Y-57168596D01*
X74125165Y-57316166D01*
X73999666Y-57441665D01*
X73852096Y-57540268D01*
X73688124Y-57608188D01*
X73538824Y-57637885D01*
X73514054Y-57642812D01*
X73336570Y-57642812D01*
X73311800Y-57637885D01*
X73162500Y-57608188D01*
X72998528Y-57540268D01*
X72850958Y-57441665D01*
X72725459Y-57316166D01*
X72626856Y-57168596D01*
X72558936Y-57004624D01*
X72529239Y-56855324D01*
X72524312Y-56830554D01*
X72524312Y-56653070D01*
X72543330Y-56557459D01*
X72558936Y-56479000D01*
X72626856Y-56315028D01*
X72725459Y-56167458D01*
X72850958Y-56041959D01*
X72998528Y-55943356D01*
X73162500Y-55875436D01*
X73311800Y-55845739D01*
X73336570Y-55840812D01*
X73514054Y-55840812D01*
X73538824Y-55845739D01*
G37*
G36*
X204860601Y-55834389D02*
G01*
X205009901Y-55864086D01*
X205173873Y-55932006D01*
X205321443Y-56030609D01*
X205446942Y-56156108D01*
X205545545Y-56303678D01*
X205613465Y-56467650D01*
X205631373Y-56557682D01*
X205648089Y-56641720D01*
X205648089Y-56819204D01*
X205645831Y-56830554D01*
X205613465Y-56993274D01*
X205545545Y-57157246D01*
X205446942Y-57304816D01*
X205321443Y-57430315D01*
X205173873Y-57528918D01*
X205009901Y-57596838D01*
X204860601Y-57626535D01*
X204835831Y-57631462D01*
X204658347Y-57631462D01*
X204633577Y-57626535D01*
X204484277Y-57596838D01*
X204320305Y-57528918D01*
X204172735Y-57430315D01*
X204047236Y-57304816D01*
X203948633Y-57157246D01*
X203880713Y-56993274D01*
X203848347Y-56830554D01*
X203846089Y-56819204D01*
X203846089Y-56641720D01*
X203862805Y-56557682D01*
X203880713Y-56467650D01*
X203948633Y-56303678D01*
X204047236Y-56156108D01*
X204172735Y-56030609D01*
X204320305Y-55932006D01*
X204484277Y-55864086D01*
X204633577Y-55834389D01*
X204658347Y-55829462D01*
X204835831Y-55829462D01*
X204860601Y-55834389D01*
G37*
G36*
X92512486Y-55834168D02*
G01*
X92661786Y-55863865D01*
X92825758Y-55931785D01*
X92973328Y-56030388D01*
X93098827Y-56155887D01*
X93197430Y-56303457D01*
X93265350Y-56467429D01*
X93283302Y-56557682D01*
X93299974Y-56641499D01*
X93299974Y-56818983D01*
X93297672Y-56830554D01*
X93265350Y-56993053D01*
X93197430Y-57157025D01*
X93098827Y-57304595D01*
X92973328Y-57430094D01*
X92825758Y-57528697D01*
X92661786Y-57596617D01*
X92512486Y-57626314D01*
X92487716Y-57631241D01*
X92310232Y-57631241D01*
X92285462Y-57626314D01*
X92136162Y-57596617D01*
X91972190Y-57528697D01*
X91824620Y-57430094D01*
X91699121Y-57304595D01*
X91600518Y-57157025D01*
X91532598Y-56993053D01*
X91500276Y-56830554D01*
X91497974Y-56818983D01*
X91497974Y-56641499D01*
X91514646Y-56557682D01*
X91532598Y-56467429D01*
X91600518Y-56303457D01*
X91699121Y-56155887D01*
X91824620Y-56030388D01*
X91972190Y-55931785D01*
X92136162Y-55863865D01*
X92285462Y-55834168D01*
X92310232Y-55829241D01*
X92487716Y-55829241D01*
X92512486Y-55834168D01*
G37*
G36*
X229337553Y-53299825D02*
G01*
X229450316Y-53322255D01*
X229582309Y-53376928D01*
X229768976Y-53454248D01*
X230055764Y-53645874D01*
X230299659Y-53889769D01*
X230491285Y-54176557D01*
X230568605Y-54363224D01*
X230623186Y-54494994D01*
X230623278Y-54495218D01*
X230690524Y-54833282D01*
X230690568Y-54833507D01*
X230690568Y-55178423D01*
X230623323Y-55516489D01*
X230623278Y-55516712D01*
X230491285Y-55835373D01*
X230299659Y-56122161D01*
X230055764Y-56366056D01*
X229768976Y-56557682D01*
X229582309Y-56635002D01*
X229450316Y-56689675D01*
X229337553Y-56712105D01*
X229112028Y-56756965D01*
X228767108Y-56756965D01*
X228541583Y-56712105D01*
X228428820Y-56689675D01*
X228296827Y-56635002D01*
X228110160Y-56557682D01*
X227823372Y-56366056D01*
X227579477Y-56122161D01*
X227387851Y-55835373D01*
X227255858Y-55516712D01*
X227255814Y-55516489D01*
X227188568Y-55178423D01*
X227188568Y-54833507D01*
X227188613Y-54833282D01*
X227255858Y-54495218D01*
X227255951Y-54494994D01*
X227310531Y-54363224D01*
X227387851Y-54176557D01*
X227579477Y-53889769D01*
X227823372Y-53645874D01*
X228110160Y-53454248D01*
X228296827Y-53376928D01*
X228428820Y-53322255D01*
X228541583Y-53299825D01*
X228767108Y-53254965D01*
X229112028Y-53254965D01*
X229337553Y-53299825D01*
G37*
G36*
X68604479Y-53299602D02*
G01*
X68717242Y-53322032D01*
X68805614Y-53358637D01*
X69035902Y-53454025D01*
X69322690Y-53645651D01*
X69566585Y-53889546D01*
X69758211Y-54176334D01*
X69758303Y-54176557D01*
X69890204Y-54494994D01*
X69912634Y-54607757D01*
X69957494Y-54833282D01*
X69957494Y-55178202D01*
X69912634Y-55403727D01*
X69890204Y-55516490D01*
X69835531Y-55648483D01*
X69758211Y-55835150D01*
X69566585Y-56121938D01*
X69322690Y-56365833D01*
X69035902Y-56557459D01*
X68849235Y-56634779D01*
X68717242Y-56689452D01*
X68604479Y-56711882D01*
X68378954Y-56756742D01*
X68034034Y-56756742D01*
X67808509Y-56711882D01*
X67695746Y-56689452D01*
X67563753Y-56634779D01*
X67377086Y-56557459D01*
X67090298Y-56365833D01*
X66846403Y-56121938D01*
X66654777Y-55835150D01*
X66577457Y-55648483D01*
X66522784Y-55516490D01*
X66500354Y-55403727D01*
X66455494Y-55178202D01*
X66455494Y-54833282D01*
X66500354Y-54607757D01*
X66522784Y-54494994D01*
X66654685Y-54176557D01*
X66654777Y-54176334D01*
X66846403Y-53889546D01*
X67090298Y-53645651D01*
X67377086Y-53454025D01*
X67607374Y-53358637D01*
X67695746Y-53322032D01*
X67808509Y-53299602D01*
X68034034Y-53254742D01*
X68378954Y-53254742D01*
X68604479Y-53299602D01*
G37*
G36*
X210363892Y-53288252D02*
G01*
X210476655Y-53310682D01*
X210591890Y-53358414D01*
X210795315Y-53442675D01*
X211082103Y-53634301D01*
X211325998Y-53878196D01*
X211517624Y-54164984D01*
X211594944Y-54351651D01*
X211649617Y-54483644D01*
X211651875Y-54494995D01*
X211716907Y-54821932D01*
X211716907Y-55166852D01*
X211714649Y-55178202D01*
X211649617Y-55505140D01*
X211644823Y-55516713D01*
X211517624Y-55823800D01*
X211325998Y-56110588D01*
X211082103Y-56354483D01*
X210795315Y-56546109D01*
X210608648Y-56623429D01*
X210476655Y-56678102D01*
X210363892Y-56700532D01*
X210138367Y-56745392D01*
X209793447Y-56745392D01*
X209567922Y-56700532D01*
X209455159Y-56678102D01*
X209323166Y-56623429D01*
X209136499Y-56546109D01*
X208849711Y-56354483D01*
X208605816Y-56110588D01*
X208414190Y-55823800D01*
X208286991Y-55516713D01*
X208282197Y-55505140D01*
X208217165Y-55178202D01*
X208214907Y-55166852D01*
X208214907Y-54821932D01*
X208279939Y-54494995D01*
X208282197Y-54483644D01*
X208336870Y-54351651D01*
X208414190Y-54164984D01*
X208605816Y-53878196D01*
X208849711Y-53634301D01*
X209136499Y-53442675D01*
X209339924Y-53358414D01*
X209455159Y-53310682D01*
X209567922Y-53288252D01*
X209793447Y-53243392D01*
X210138367Y-53243392D01*
X210363892Y-53288252D01*
G37*
G36*
X87578141Y-53288031D02*
G01*
X87690904Y-53310461D01*
X87807208Y-53358636D01*
X88009564Y-53442454D01*
X88296352Y-53634080D01*
X88540247Y-53877975D01*
X88731873Y-54164763D01*
X88736758Y-54176557D01*
X88863866Y-54483423D01*
X88866168Y-54494995D01*
X88931156Y-54821711D01*
X88931156Y-55166631D01*
X88928854Y-55178202D01*
X88863866Y-55504919D01*
X88809193Y-55636912D01*
X88731873Y-55823579D01*
X88540247Y-56110367D01*
X88296352Y-56354262D01*
X88009564Y-56545888D01*
X87822897Y-56623208D01*
X87690904Y-56677881D01*
X87578141Y-56700311D01*
X87352616Y-56745171D01*
X87007696Y-56745171D01*
X86782171Y-56700311D01*
X86669408Y-56677881D01*
X86537415Y-56623208D01*
X86350748Y-56545888D01*
X86063960Y-56354262D01*
X85820065Y-56110367D01*
X85628439Y-55823579D01*
X85551119Y-55636912D01*
X85496446Y-55504919D01*
X85431458Y-55178202D01*
X85429156Y-55166631D01*
X85429156Y-54821711D01*
X85494144Y-54494995D01*
X85496446Y-54483423D01*
X85623554Y-54176557D01*
X85628439Y-54164763D01*
X85820065Y-53877975D01*
X86063960Y-53634080D01*
X86350748Y-53442454D01*
X86553104Y-53358636D01*
X86669408Y-53310461D01*
X86782171Y-53288031D01*
X87007696Y-53243171D01*
X87352616Y-53243171D01*
X87578141Y-53288031D01*
G37*
G36*
X234271898Y-52373822D02*
G01*
X234421198Y-52403519D01*
X234585170Y-52471439D01*
X234732740Y-52570042D01*
X234858239Y-52695541D01*
X234956842Y-52843111D01*
X235024762Y-53007083D01*
X235054459Y-53156383D01*
X235059342Y-53180930D01*
X235059386Y-53181154D01*
X235059386Y-53358636D01*
X235024762Y-53532707D01*
X234956842Y-53696679D01*
X234858239Y-53844249D01*
X234732740Y-53969748D01*
X234585170Y-54068351D01*
X234421198Y-54136271D01*
X234277960Y-54164762D01*
X234247128Y-54170895D01*
X234069644Y-54170895D01*
X234038812Y-54164762D01*
X233895574Y-54136271D01*
X233731602Y-54068351D01*
X233584032Y-53969748D01*
X233458533Y-53844249D01*
X233359930Y-53696679D01*
X233292010Y-53532707D01*
X233257386Y-53358636D01*
X233257386Y-53181154D01*
X233257431Y-53180930D01*
X233262313Y-53156383D01*
X233292010Y-53007083D01*
X233359930Y-52843111D01*
X233458533Y-52695541D01*
X233584032Y-52570042D01*
X233731602Y-52471439D01*
X233895574Y-52403519D01*
X234044874Y-52373822D01*
X234069644Y-52368895D01*
X234247128Y-52368895D01*
X234271898Y-52373822D01*
G37*
G36*
X63101188Y-52373599D02*
G01*
X63250488Y-52403296D01*
X63414460Y-52471216D01*
X63562030Y-52569819D01*
X63687529Y-52695318D01*
X63786132Y-52842888D01*
X63854052Y-53006860D01*
X63883749Y-53156160D01*
X63888676Y-53180930D01*
X63888676Y-53358414D01*
X63883749Y-53383184D01*
X63854052Y-53532484D01*
X63786132Y-53696456D01*
X63687529Y-53844026D01*
X63562030Y-53969525D01*
X63414460Y-54068128D01*
X63250488Y-54136048D01*
X63106129Y-54164762D01*
X63076418Y-54170672D01*
X62898934Y-54170672D01*
X62869223Y-54164762D01*
X62724864Y-54136048D01*
X62560892Y-54068128D01*
X62413322Y-53969525D01*
X62287823Y-53844026D01*
X62189220Y-53696456D01*
X62121300Y-53532484D01*
X62091603Y-53383184D01*
X62086676Y-53358414D01*
X62086676Y-53180930D01*
X62091603Y-53156160D01*
X62121300Y-53006860D01*
X62189220Y-52842888D01*
X62287823Y-52695318D01*
X62413322Y-52569819D01*
X62560892Y-52471216D01*
X62724864Y-52403296D01*
X62874164Y-52373599D01*
X62898934Y-52368672D01*
X63076418Y-52368672D01*
X63101188Y-52373599D01*
G37*
G36*
X215298237Y-52362249D02*
G01*
X215447537Y-52391946D01*
X215611509Y-52459866D01*
X215759079Y-52558469D01*
X215884578Y-52683968D01*
X215983181Y-52831538D01*
X216051101Y-52995510D01*
X216080798Y-53144810D01*
X216085725Y-53169580D01*
X216085725Y-53347064D01*
X216083467Y-53358414D01*
X216051101Y-53521134D01*
X215983181Y-53685106D01*
X215884578Y-53832676D01*
X215759079Y-53958175D01*
X215611509Y-54056778D01*
X215447537Y-54124698D01*
X215298237Y-54154395D01*
X215273467Y-54159322D01*
X215095983Y-54159322D01*
X215071213Y-54154395D01*
X214921913Y-54124698D01*
X214757941Y-54056778D01*
X214610371Y-53958175D01*
X214484872Y-53832676D01*
X214386269Y-53685106D01*
X214318349Y-53521134D01*
X214285983Y-53358414D01*
X214283725Y-53347064D01*
X214283725Y-53169580D01*
X214288652Y-53144810D01*
X214318349Y-52995510D01*
X214386269Y-52831538D01*
X214484872Y-52683968D01*
X214610371Y-52558469D01*
X214757941Y-52459866D01*
X214921913Y-52391946D01*
X215071213Y-52362249D01*
X215095983Y-52357322D01*
X215273467Y-52357322D01*
X215298237Y-52362249D01*
G37*
G36*
X82074850Y-52362028D02*
G01*
X82224150Y-52391725D01*
X82388122Y-52459645D01*
X82535692Y-52558248D01*
X82661191Y-52683747D01*
X82759794Y-52831317D01*
X82827714Y-52995289D01*
X82857411Y-53144589D01*
X82862338Y-53169359D01*
X82862338Y-53346843D01*
X82860036Y-53358414D01*
X82827714Y-53520913D01*
X82759794Y-53684885D01*
X82661191Y-53832455D01*
X82535692Y-53957954D01*
X82388122Y-54056557D01*
X82224150Y-54124477D01*
X82074850Y-54154174D01*
X82050080Y-54159101D01*
X81872596Y-54159101D01*
X81847826Y-54154174D01*
X81698526Y-54124477D01*
X81534554Y-54056557D01*
X81386984Y-53957954D01*
X81261485Y-53832455D01*
X81162882Y-53684885D01*
X81094962Y-53520913D01*
X81062640Y-53358414D01*
X81060338Y-53346843D01*
X81060338Y-53169359D01*
X81065265Y-53144589D01*
X81094962Y-52995289D01*
X81162882Y-52831317D01*
X81261485Y-52683747D01*
X81386984Y-52558248D01*
X81534554Y-52459645D01*
X81698526Y-52391725D01*
X81847826Y-52362028D01*
X81872596Y-52357101D01*
X82050080Y-52357101D01*
X82074850Y-52362028D01*
G37*
M02*
