G04 #@! TF.GenerationSoftware,KiCad,Pcbnew,5.1.5*
G04 #@! TF.CreationDate,2020-05-14T17:03:41-05:00*
G04 #@! TF.ProjectId,steno-v2,7374656e-6f2d-4763-922e-6b696361645f,rev?*
G04 #@! TF.SameCoordinates,Original*
G04 #@! TF.FileFunction,Legend,Bot*
G04 #@! TF.FilePolarity,Positive*
%FSLAX46Y46*%
G04 Gerber Fmt 4.6, Leading zero omitted, Abs format (unit mm)*
G04 Created by KiCad (PCBNEW 5.1.5) date 2020-05-14 17:03:41*
%MOMM*%
%LPD*%
G04 APERTURE LIST*
%ADD10C,0.150000*%
%ADD11C,0.120000*%
G04 APERTURE END LIST*
D10*
X153119047Y-61252380D02*
X153119047Y-61966666D01*
X153166666Y-62109523D01*
X153261904Y-62204761D01*
X153404761Y-62252380D01*
X153500000Y-62252380D01*
X152166666Y-62252380D02*
X152642857Y-62252380D01*
X152642857Y-61252380D01*
X151261904Y-62157142D02*
X151309523Y-62204761D01*
X151452380Y-62252380D01*
X151547619Y-62252380D01*
X151690476Y-62204761D01*
X151785714Y-62109523D01*
X151833333Y-62014285D01*
X151880952Y-61823809D01*
X151880952Y-61680952D01*
X151833333Y-61490476D01*
X151785714Y-61395238D01*
X151690476Y-61300000D01*
X151547619Y-61252380D01*
X151452380Y-61252380D01*
X151309523Y-61300000D01*
X151261904Y-61347619D01*
X150547619Y-61252380D02*
X150547619Y-61966666D01*
X150595238Y-62109523D01*
X150690476Y-62204761D01*
X150833333Y-62252380D01*
X150928571Y-62252380D01*
X149595238Y-62252380D02*
X150071428Y-62252380D01*
X150071428Y-61252380D01*
X148690476Y-62157142D02*
X148738095Y-62204761D01*
X148880952Y-62252380D01*
X148976190Y-62252380D01*
X149119047Y-62204761D01*
X149214285Y-62109523D01*
X149261904Y-62014285D01*
X149309523Y-61823809D01*
X149309523Y-61680952D01*
X149261904Y-61490476D01*
X149214285Y-61395238D01*
X149119047Y-61300000D01*
X148976190Y-61252380D01*
X148880952Y-61252380D01*
X148738095Y-61300000D01*
X148690476Y-61347619D01*
X147976190Y-61252380D02*
X147976190Y-61966666D01*
X148023809Y-62109523D01*
X148119047Y-62204761D01*
X148261904Y-62252380D01*
X148357142Y-62252380D01*
X147023809Y-62252380D02*
X147500000Y-62252380D01*
X147500000Y-61252380D01*
X146119047Y-62157142D02*
X146166666Y-62204761D01*
X146309523Y-62252380D01*
X146404761Y-62252380D01*
X146547619Y-62204761D01*
X146642857Y-62109523D01*
X146690476Y-62014285D01*
X146738095Y-61823809D01*
X146738095Y-61680952D01*
X146690476Y-61490476D01*
X146642857Y-61395238D01*
X146547619Y-61300000D01*
X146404761Y-61252380D01*
X146309523Y-61252380D01*
X146166666Y-61300000D01*
X146119047Y-61347619D01*
X145404761Y-61252380D02*
X145404761Y-61966666D01*
X145452380Y-62109523D01*
X145547619Y-62204761D01*
X145690476Y-62252380D01*
X145785714Y-62252380D01*
X144452380Y-62252380D02*
X144928571Y-62252380D01*
X144928571Y-61252380D01*
X143547619Y-62157142D02*
X143595238Y-62204761D01*
X143738095Y-62252380D01*
X143833333Y-62252380D01*
X143976190Y-62204761D01*
X144071428Y-62109523D01*
X144119047Y-62014285D01*
X144166666Y-61823809D01*
X144166666Y-61680952D01*
X144119047Y-61490476D01*
X144071428Y-61395238D01*
X143976190Y-61300000D01*
X143833333Y-61252380D01*
X143738095Y-61252380D01*
X143595238Y-61300000D01*
X143547619Y-61347619D01*
D11*
X200888589Y-66547168D02*
X202617623Y-65917851D01*
X200970674Y-66772695D02*
X202699708Y-66143378D01*
X200929631Y-66659931D02*
X202658666Y-66030614D01*
X203122555Y-69995039D02*
X202718971Y-68886202D01*
X201193561Y-64695173D02*
X201597145Y-65804010D01*
X201854454Y-69200860D02*
X200732627Y-66118669D01*
X203583488Y-68571543D02*
X201854454Y-69200860D01*
X202461662Y-65489351D02*
X203583488Y-68571543D01*
X200732627Y-66118669D02*
X202461662Y-65489351D01*
X195250433Y-68599289D02*
X196979467Y-67969972D01*
X195332518Y-68824816D02*
X197061552Y-68195499D01*
X195291475Y-68712052D02*
X197020510Y-68082735D01*
X197484399Y-72047160D02*
X197080815Y-70938323D01*
X195555405Y-66747294D02*
X195958989Y-67856131D01*
X196216298Y-71252981D02*
X195094471Y-68170790D01*
X197945332Y-70623664D02*
X196216298Y-71252981D01*
X196823506Y-67541472D02*
X197945332Y-70623664D01*
X195094471Y-68170790D02*
X196823506Y-67541472D01*
X185853507Y-72019490D02*
X187582541Y-71390173D01*
X185935592Y-72245017D02*
X187664626Y-71615700D01*
X185894549Y-72132253D02*
X187623584Y-71502936D01*
X188087473Y-75467361D02*
X187683889Y-74358524D01*
X186158479Y-70167495D02*
X186562063Y-71276332D01*
X186819372Y-74673182D02*
X185697545Y-71590991D01*
X188548406Y-74043865D02*
X186819372Y-74673182D01*
X187426580Y-70961673D02*
X188548406Y-74043865D01*
X185697545Y-71590991D02*
X187426580Y-70961673D01*
X180215351Y-74071611D02*
X181944385Y-73442294D01*
X180297436Y-74297138D02*
X182026470Y-73667821D01*
X180256393Y-74184374D02*
X181985428Y-73555057D01*
X182449317Y-77519482D02*
X182045733Y-76410645D01*
X180520323Y-72219616D02*
X180923907Y-73328453D01*
X181181216Y-76725303D02*
X180059389Y-73643112D01*
X182910250Y-76095986D02*
X181181216Y-76725303D01*
X181788424Y-73013794D02*
X182910250Y-76095986D01*
X180059389Y-73643112D02*
X181788424Y-73013794D01*
X174577195Y-76123732D02*
X176306229Y-75494415D01*
X174659280Y-76349259D02*
X176388314Y-75719942D01*
X174618237Y-76236495D02*
X176347272Y-75607178D01*
X176811161Y-79571603D02*
X176407577Y-78462766D01*
X174882167Y-74271737D02*
X175285751Y-75380574D01*
X175543060Y-78777424D02*
X174421233Y-75695233D01*
X177272094Y-78148107D02*
X175543060Y-78777424D01*
X176150268Y-75065915D02*
X177272094Y-78148107D01*
X174421233Y-75695233D02*
X176150268Y-75065915D01*
X122322527Y-76264202D02*
X124051561Y-76893519D01*
X122240442Y-76489729D02*
X123969476Y-77119046D01*
X122281484Y-76376965D02*
X124010519Y-77006282D01*
X121817595Y-80341390D02*
X122221179Y-79232553D01*
X123746589Y-75041524D02*
X123343005Y-76150361D01*
X121356662Y-78917894D02*
X122478488Y-75835702D01*
X123085696Y-79547211D02*
X121356662Y-78917894D01*
X124207523Y-76465020D02*
X123085696Y-79547211D01*
X122478488Y-75835702D02*
X124207523Y-76465020D01*
X116684371Y-74212081D02*
X118413405Y-74841398D01*
X116602286Y-74437608D02*
X118331320Y-75066925D01*
X116643328Y-74324844D02*
X118372363Y-74954161D01*
X116179439Y-78289269D02*
X116583023Y-77180432D01*
X118108433Y-72989403D02*
X117704849Y-74098240D01*
X115718506Y-76865773D02*
X116840332Y-73783581D01*
X117447540Y-77495090D02*
X115718506Y-76865773D01*
X118569367Y-74412899D02*
X117447540Y-77495090D01*
X116840332Y-73783581D02*
X118569367Y-74412899D01*
X111046216Y-72159960D02*
X112775250Y-72789277D01*
X110964131Y-72385487D02*
X112693165Y-73014804D01*
X111005173Y-72272723D02*
X112734208Y-72902040D01*
X110541284Y-76237148D02*
X110944868Y-75128311D01*
X112470278Y-70937282D02*
X112066694Y-72046119D01*
X110080351Y-74813652D02*
X111202177Y-71731460D01*
X111809385Y-75442969D02*
X110080351Y-74813652D01*
X112931212Y-72360778D02*
X111809385Y-75442969D01*
X111202177Y-71731460D02*
X112931212Y-72360778D01*
X199009203Y-67231209D02*
X200738237Y-66601892D01*
X199091288Y-67456736D02*
X200820322Y-66827419D01*
X199050245Y-67343972D02*
X200779280Y-66714655D01*
X201243169Y-70679080D02*
X200839585Y-69570243D01*
X199314175Y-65379214D02*
X199717759Y-66488051D01*
X199975068Y-69884901D02*
X198853241Y-66802710D01*
X201704102Y-69255584D02*
X199975068Y-69884901D01*
X200582276Y-66173392D02*
X201704102Y-69255584D01*
X198853241Y-66802710D02*
X200582276Y-66173392D01*
X193371048Y-69283329D02*
X195100082Y-68654012D01*
X193453133Y-69508856D02*
X195182167Y-68879539D01*
X193412090Y-69396092D02*
X195141125Y-68766775D01*
X195605014Y-72731200D02*
X195201430Y-71622363D01*
X193676020Y-67431334D02*
X194079604Y-68540171D01*
X194336913Y-71937021D02*
X193215086Y-68854830D01*
X196065947Y-71307704D02*
X194336913Y-71937021D01*
X194944121Y-68225512D02*
X196065947Y-71307704D01*
X193215086Y-68854830D02*
X194944121Y-68225512D01*
X189612277Y-70651410D02*
X191341311Y-70022093D01*
X189694362Y-70876937D02*
X191423396Y-70247620D01*
X189653319Y-70764173D02*
X191382354Y-70134856D01*
X191846243Y-74099281D02*
X191442659Y-72990444D01*
X189917249Y-68799415D02*
X190320833Y-69908252D01*
X190578142Y-73305102D02*
X189456315Y-70222911D01*
X192307176Y-72675785D02*
X190578142Y-73305102D01*
X191185350Y-69593593D02*
X192307176Y-72675785D01*
X189456315Y-70222911D02*
X191185350Y-69593593D01*
X183974121Y-72703531D02*
X185703155Y-72074214D01*
X184056206Y-72929058D02*
X185785240Y-72299741D01*
X184015163Y-72816294D02*
X185744198Y-72186977D01*
X186208087Y-76151402D02*
X185804503Y-75042565D01*
X184279093Y-70851536D02*
X184682677Y-71960373D01*
X184939986Y-75357223D02*
X183818159Y-72275032D01*
X186669020Y-74727906D02*
X184939986Y-75357223D01*
X185547194Y-71645714D02*
X186669020Y-74727906D01*
X183818159Y-72275032D02*
X185547194Y-71645714D01*
X178335965Y-74755652D02*
X180064999Y-74126335D01*
X178418050Y-74981179D02*
X180147084Y-74351862D01*
X178377007Y-74868415D02*
X180106042Y-74239098D01*
X180569931Y-78203523D02*
X180166347Y-77094686D01*
X178640937Y-72903657D02*
X179044521Y-74012494D01*
X179301830Y-77409344D02*
X178180003Y-74327153D01*
X181030864Y-76780027D02*
X179301830Y-77409344D01*
X179909038Y-73697835D02*
X181030864Y-76780027D01*
X178180003Y-74327153D02*
X179909038Y-73697835D01*
X120443142Y-75580162D02*
X122172176Y-76209479D01*
X120361057Y-75805689D02*
X122090091Y-76435006D01*
X120402099Y-75692925D02*
X122131134Y-76322242D01*
X119938210Y-79657350D02*
X120341794Y-78548513D01*
X121867204Y-74357484D02*
X121463620Y-75466321D01*
X119477277Y-78233854D02*
X120599103Y-75151662D01*
X121206311Y-78863171D02*
X119477277Y-78233854D01*
X122328138Y-75780980D02*
X121206311Y-78863171D01*
X120599103Y-75151662D02*
X122328138Y-75780980D01*
X112925601Y-72844001D02*
X114654635Y-73473318D01*
X112843516Y-73069528D02*
X114572550Y-73698845D01*
X112884558Y-72956764D02*
X114613593Y-73586081D01*
X112420669Y-76921189D02*
X112824253Y-75812352D01*
X114349663Y-71621323D02*
X113946079Y-72730160D01*
X111959736Y-75497693D02*
X113081562Y-72415501D01*
X113688770Y-76127010D02*
X111959736Y-75497693D01*
X114810597Y-73044819D02*
X113688770Y-76127010D01*
X113081562Y-72415501D02*
X114810597Y-73044819D01*
X107287445Y-70791880D02*
X109016479Y-71421197D01*
X107205360Y-71017407D02*
X108934394Y-71646724D01*
X107246402Y-70904643D02*
X108975437Y-71533960D01*
X106782513Y-74869068D02*
X107186097Y-73760231D01*
X108711507Y-69569202D02*
X108307923Y-70678039D01*
X106321580Y-73445572D02*
X107443406Y-70363380D01*
X108050614Y-74074889D02*
X106321580Y-73445572D01*
X109172441Y-70992698D02*
X108050614Y-74074889D01*
X107443406Y-70363380D02*
X109172441Y-70992698D01*
X103528675Y-69423799D02*
X105257709Y-70053116D01*
X103446590Y-69649326D02*
X105175624Y-70278643D01*
X103487632Y-69536562D02*
X105216667Y-70165879D01*
X103023743Y-73500987D02*
X103427327Y-72392150D01*
X104952737Y-68201121D02*
X104549153Y-69309958D01*
X102562810Y-72077491D02*
X103684636Y-68995299D01*
X104291844Y-72706808D02*
X102562810Y-72077491D01*
X105413671Y-69624617D02*
X104291844Y-72706808D01*
X103684636Y-68995299D02*
X105413671Y-69624617D01*
X99769904Y-68055719D02*
X101498938Y-68685036D01*
X99687819Y-68281246D02*
X101416853Y-68910563D01*
X99728861Y-68168482D02*
X101457896Y-68797799D01*
X99264972Y-72132907D02*
X99668556Y-71024070D01*
X101193966Y-66833041D02*
X100790382Y-67941878D01*
X98804039Y-70709411D02*
X99925865Y-67627219D01*
X100533073Y-71338728D02*
X98804039Y-70709411D01*
X101654900Y-68256537D02*
X100533073Y-71338728D01*
X99925865Y-67627219D02*
X101654900Y-68256537D01*
X197129818Y-67915249D02*
X198858852Y-67285932D01*
X197211903Y-68140776D02*
X198940937Y-67511459D01*
X197170860Y-68028012D02*
X198899895Y-67398695D01*
X199363784Y-71363120D02*
X198960200Y-70254283D01*
X197434790Y-66063254D02*
X197838374Y-67172091D01*
X198095683Y-70568941D02*
X196973856Y-67486750D01*
X199824717Y-69939624D02*
X198095683Y-70568941D01*
X198702891Y-66857432D02*
X199824717Y-69939624D01*
X196973856Y-67486750D02*
X198702891Y-66857432D01*
X191491662Y-69967369D02*
X193220696Y-69338052D01*
X191573747Y-70192896D02*
X193302781Y-69563579D01*
X191532704Y-70080132D02*
X193261739Y-69450815D01*
X193725628Y-73415240D02*
X193322044Y-72306403D01*
X191796634Y-68115374D02*
X192200218Y-69224211D01*
X192457527Y-72621061D02*
X191335700Y-69538870D01*
X194186561Y-71991744D02*
X192457527Y-72621061D01*
X193064735Y-68909552D02*
X194186561Y-71991744D01*
X191335700Y-69538870D02*
X193064735Y-68909552D01*
X187732892Y-71335450D02*
X189461926Y-70706133D01*
X187814977Y-71560977D02*
X189544011Y-70931660D01*
X187773934Y-71448213D02*
X189502969Y-70818896D01*
X189966858Y-74783321D02*
X189563274Y-73674484D01*
X188037864Y-69483455D02*
X188441448Y-70592292D01*
X188698757Y-73989142D02*
X187576930Y-70906951D01*
X190427791Y-73359825D02*
X188698757Y-73989142D01*
X189305965Y-70277633D02*
X190427791Y-73359825D01*
X187576930Y-70906951D02*
X189305965Y-70277633D01*
X182094736Y-73387571D02*
X183823770Y-72758254D01*
X182176821Y-73613098D02*
X183905855Y-72983781D01*
X182135778Y-73500334D02*
X183864813Y-72871017D01*
X184328702Y-76835442D02*
X183925118Y-75726605D01*
X182399708Y-71535576D02*
X182803292Y-72644413D01*
X183060601Y-76041263D02*
X181938774Y-72959072D01*
X184789635Y-75411946D02*
X183060601Y-76041263D01*
X183667809Y-72329754D02*
X184789635Y-75411946D01*
X181938774Y-72959072D02*
X183667809Y-72329754D01*
X176456580Y-75439692D02*
X178185614Y-74810375D01*
X176538665Y-75665219D02*
X178267699Y-75035902D01*
X176497622Y-75552455D02*
X178226657Y-74923138D01*
X178690546Y-78887563D02*
X178286962Y-77778726D01*
X176761552Y-73587697D02*
X177165136Y-74696534D01*
X177422445Y-78093384D02*
X176300618Y-75011193D01*
X179151479Y-77464067D02*
X177422445Y-78093384D01*
X178029653Y-74381875D02*
X179151479Y-77464067D01*
X176300618Y-75011193D02*
X178029653Y-74381875D01*
X118563757Y-74896121D02*
X120292791Y-75525438D01*
X118481672Y-75121648D02*
X120210706Y-75750965D01*
X118522714Y-75008884D02*
X120251749Y-75638201D01*
X118058825Y-78973309D02*
X118462409Y-77864472D01*
X119987819Y-73673443D02*
X119584235Y-74782280D01*
X117597892Y-77549813D02*
X118719718Y-74467621D01*
X119326926Y-78179130D02*
X117597892Y-77549813D01*
X120448753Y-75096939D02*
X119326926Y-78179130D01*
X118719718Y-74467621D02*
X120448753Y-75096939D01*
X114804986Y-73528041D02*
X116534020Y-74157358D01*
X114722901Y-73753568D02*
X116451935Y-74382885D01*
X114763943Y-73640804D02*
X116492978Y-74270121D01*
X114300054Y-77605229D02*
X114703638Y-76496392D01*
X116229048Y-72305363D02*
X115825464Y-73414200D01*
X113839121Y-76181733D02*
X114960947Y-73099541D01*
X115568155Y-76811050D02*
X113839121Y-76181733D01*
X116689982Y-73728859D02*
X115568155Y-76811050D01*
X114960947Y-73099541D02*
X116689982Y-73728859D01*
X109166830Y-71475920D02*
X110895864Y-72105237D01*
X109084745Y-71701447D02*
X110813779Y-72330764D01*
X109125787Y-71588683D02*
X110854822Y-72218000D01*
X108661898Y-75553108D02*
X109065482Y-74444271D01*
X110590892Y-70253242D02*
X110187308Y-71362079D01*
X108200965Y-74129612D02*
X109322791Y-71047420D01*
X109929999Y-74758929D02*
X108200965Y-74129612D01*
X111051826Y-71676738D02*
X109929999Y-74758929D01*
X109322791Y-71047420D02*
X111051826Y-71676738D01*
X105408060Y-70107839D02*
X107137094Y-70737156D01*
X105325975Y-70333366D02*
X107055009Y-70962683D01*
X105367017Y-70220602D02*
X107096052Y-70849919D01*
X104903128Y-74185027D02*
X105306712Y-73076190D01*
X106832122Y-68885161D02*
X106428538Y-69993998D01*
X104442195Y-72761531D02*
X105564021Y-69679339D01*
X106171229Y-73390848D02*
X104442195Y-72761531D01*
X107293056Y-70308657D02*
X106171229Y-73390848D01*
X105564021Y-69679339D02*
X107293056Y-70308657D01*
X101649289Y-68739759D02*
X103378323Y-69369076D01*
X101567204Y-68965286D02*
X103296238Y-69594603D01*
X101608246Y-68852522D02*
X103337281Y-69481839D01*
X101144357Y-72816947D02*
X101547941Y-71708110D01*
X103073351Y-67517081D02*
X102669767Y-68625918D01*
X100683424Y-71393451D02*
X101805250Y-68311259D01*
X102412458Y-72022768D02*
X100683424Y-71393451D01*
X103534285Y-68940577D02*
X102412458Y-72022768D01*
X101805250Y-68311259D02*
X103534285Y-68940577D01*
M02*
