M48
; DRILL file {KiCad 5.1.8} date Tue Feb 16 14:53:32 2021
; FORMAT={-:-/ absolute / inch / decimal}
; #@! TF.CreationDate,2021-02-16T14:53:32-06:00
; #@! TF.GenerationSoftware,Kicad,Pcbnew,5.1.8
; #@! TF.FileFunction,Plated,1,2,PTH
FMAT,2
INCH
T1C0.0157
T2C0.0472
%
G90
G05
T1
X3.0369Y-4.4386
X3.8088Y-4.5678
X3.925Y-3.9087
X4.4492Y-3.9554
X4.5066Y-4.6909
X4.6905Y-3.9661
X4.8628Y-3.7126
X4.9488Y-3.3386
X4.9724Y-2.8819
X5.0006Y-4.0867
X5.0039Y-3.4291
X5.1063Y-3.4291
X5.1581Y-4.0867
X5.1732Y-2.752
X5.2211Y-4.1496
X5.2369Y-3.0293
X5.2557Y-2.9892
X5.2559Y-3.3583
X5.2802Y-3.7087
X5.2959Y-3.8583
X5.3189Y-2.626
X5.355Y-3.8701
X5.355Y-3.4371
X5.3904Y-3.9843
X5.4188Y-3.474
X5.4211Y-2.5812
X5.4464Y-3.5134
X5.4763Y-2.5458
X5.4779Y-3.159
X5.4779Y-3.5527
X5.5094Y-3.5921
X5.5125Y-3.9095
X5.5409Y-3.6315
X5.5669Y-2.9882
X5.5684Y-3.6709
X5.5912Y-3.7126
X5.5912Y-3.8504
X5.5982Y-4.3768
X5.6063Y-2.5433
X5.6109Y-2.7087
X5.6304Y-3.7319
X5.6502Y-2.7284
X5.6502Y-3.7717
X5.6502Y-3.9882
X5.6699Y-2.7678
X5.7094Y-2.7678
X5.7677Y-2.8346
X5.7684Y-3.2599
X5.8077Y-3.7323
X5.815Y-3.3425
X5.8425Y-2.7126
X5.8738Y-3.393
X5.9026Y-3.1023
X5.9171Y-3.987
X5.9843Y-2.815
X6.1621Y-3.2796
X6.3283Y-4.7322
X6.3834Y-3.9661
X6.6786Y-3.8283
X6.8895Y-3.8337
X7.0262Y-4.6092
X7.5942Y-3.7494
X7.7241Y-4.4861
X8.051Y-4.428
T2
X4.3245Y-3.3435
X4.504Y-3.4591
X3.6267Y-3.2206
X3.8062Y-3.3362
X7.4411Y-3.2208
X7.6493Y-3.268
X3.9145Y-4.6506
X4.094Y-4.7662
X8.1184Y-2.9814
X8.3267Y-3.0286
X6.4556Y-4.7737
X6.6638Y-4.821
X0.9172Y-2.2631
X1.0967Y-2.3787
X0.8009Y-2.9222
X0.9805Y-3.0378
X2.9493Y-2.9812
X3.1288Y-3.0968
X7.3248Y-2.5616
X7.5331Y-2.6089
X4.6123Y-4.7737
X4.7919Y-4.8893
X8.0022Y-2.3223
X8.2104Y-2.3695
X8.8369Y-2.9746
X9.0451Y-3.0219
X1.6151Y-2.3862
X1.7946Y-2.5018
X2.3471Y-2.3154
X2.5266Y-2.431
X7.8514Y-4.5276
X8.0596Y-4.5749
X1.4988Y-3.0453
X1.6783Y-3.1609
X7.1535Y-4.6507
X7.3617Y-4.6979
X3.7429Y-2.5615
X3.9224Y-2.6771
X2.2309Y-2.9745
X2.4104Y-3.0901
X9.4527Y-2.3863
X9.6609Y-2.4336
X3.2166Y-4.5276
X3.3961Y-4.6432
X3.0656Y-2.3221
X3.2451Y-2.4377
X8.7206Y-2.3155
X8.9288Y-2.3628
X9.5689Y-3.0454
X9.7771Y-3.0927
X10.1506Y-2.2633
X10.3588Y-2.3105
X6.7432Y-3.3438
X6.9514Y-3.391
X10.2668Y-2.9224
X10.475Y-2.9696
X6.6269Y-2.6847
X6.8352Y-2.7319
X4.4408Y-2.6845
X4.6203Y-2.8001
T0
M30
