M48
; DRILL file {KiCad 5.1.6} date Sun Jun 14 17:46:00 2020
; FORMAT={-:-/ absolute / inch / decimal}
; #@! TF.CreationDate,2020-06-14T17:46:00-05:00
; #@! TF.GenerationSoftware,Kicad,Pcbnew,5.1.6
; #@! TF.FileFunction,Plated,1,2,PTH
FMAT,2
INCH
T1C0.0157
T2C0.0295
T3C0.0390
T4C0.0394
T5C0.0472
%
G90
G05
T1
X6.0365Y-4.7448
X6.0865Y-4.7448
X6.0865Y-5.0283
X6.1992Y-3.607
X6.2583Y-3.6857
X6.2977Y-3.6857
X6.4945Y-3.6857
X6.5339Y-3.6857
T2
X7.2678Y-3.7337
X7.3625Y-4.0184
X4.1214Y-3.8196
X4.2161Y-3.535
X7.7908Y-3.5598
X7.8855Y-3.8444
X5.0929Y-4.1429
X5.1876Y-3.8582
X4.4952Y-3.944
X4.5899Y-3.6594
X7.6413Y-3.6095
X7.736Y-3.8941
X5.018Y-4.1179
X5.1127Y-3.8332
X4.1962Y-3.8445
X4.2909Y-3.5598
X7.4172Y-3.684
X7.5119Y-3.9687
X4.7939Y-4.0433
X4.8886Y-3.7587
X4.2709Y-3.8693
X4.3656Y-3.5847
X7.0436Y-3.8083
X7.1383Y-4.093
X7.4919Y-3.6592
X7.5866Y-3.9438
X4.6444Y-3.9936
X4.7391Y-3.7089
X6.9689Y-3.8332
X7.0636Y-4.1178
X6.8942Y-3.858
X6.9889Y-4.1427
X6.8195Y-3.8829
X6.9142Y-4.1675
X7.3425Y-3.7089
X7.4372Y-3.9936
X4.7192Y-4.0185
X4.8139Y-3.7338
X4.4205Y-3.9192
X4.5152Y-3.6345
X4.9433Y-4.093
X5.038Y-3.8084
X7.716Y-3.5846
X7.8107Y-3.8693
X7.1183Y-3.7835
X7.213Y-4.0681
X7.193Y-3.7586
X7.2877Y-4.0433
X7.5666Y-3.6343
X7.6613Y-3.919
X4.3457Y-3.8943
X4.4404Y-3.6097
X5.1676Y-4.1677
X5.2623Y-3.8831
X4.5697Y-3.9688
X4.6644Y-3.6841
X4.8686Y-4.0682
X4.9633Y-3.7835
X7.8655Y-3.5349
X7.9602Y-3.8196
T3
X5.6396Y-3.3866
X5.6396Y-3.4866
X5.6396Y-3.5866
X5.6396Y-3.6866
X5.6396Y-3.7866
X5.6396Y-3.8866
X5.6396Y-3.9866
X5.6396Y-4.0866
X5.6396Y-4.1866
X5.6396Y-4.2866
X5.6396Y-4.3866
X5.6396Y-4.4866
X5.6396Y-4.5866
X5.6396Y-4.6866
X5.6396Y-4.7866
X5.6396Y-4.8866
X6.4396Y-3.7866
X6.4396Y-3.8866
X6.4396Y-3.9866
X6.4396Y-4.0866
X6.4396Y-4.1866
X6.4396Y-4.2866
X6.4396Y-4.3866
X6.4396Y-4.4866
X6.4396Y-4.5866
X6.4396Y-4.6866
X6.4396Y-4.7866
X6.4396Y-4.8866
T4
X6.0205Y-3.3117
X6.1205Y-3.3117
X6.7347Y-4.0668
X6.7347Y-4.1668
X6.7347Y-4.2668
X6.7347Y-4.3668
T5
X4.1453Y-1.7522
X4.306Y-1.8928
X10.2518Y-1.9776
X10.4647Y-1.994
X8.1475Y-2.3872
X8.3604Y-2.4035
X3.9341Y-2.3873
X4.0948Y-2.5278
X3.3983Y-1.7526
X3.559Y-1.8932
X1.8298Y-1.9777
X1.9905Y-2.1183
X1.6185Y-2.6128
X1.7792Y-2.7533
X10.4631Y-2.6127
X10.676Y-2.629
X8.2026Y-4.0493
X8.4154Y-4.0656
X6.666Y-2.4237
X6.8789Y-2.44
X8.8945Y-2.3877
X9.1074Y-2.404
X7.9363Y-1.7521
X8.1492Y-1.7684
X7.5497Y-2.835
X7.7626Y-2.8514
X2.5022Y-2.2014
X2.6629Y-2.342
X7.3384Y-2.2
X7.5513Y-2.2163
X8.6833Y-1.7526
X8.8962Y-1.7689
X3.1871Y-2.3877
X3.3478Y-2.5283
X5.2241Y-4.4969
X5.3848Y-4.6374
X4.5516Y-4.2732
X4.7123Y-4.4138
X9.5794Y-2.2013
X9.7923Y-2.2176
X2.291Y-2.8365
X2.4516Y-2.977
X3.8792Y-4.0495
X4.0399Y-4.1901
X5.4156Y-2.4237
X5.5763Y-2.5643
X6.8772Y-3.0587
X7.0901Y-3.075
X4.7432Y-2.2
X4.9039Y-2.3406
X6.8577Y-4.4967
X7.0706Y-4.513
X7.5301Y-4.273
X7.743Y-4.2893
X5.2042Y-3.0586
X5.3649Y-3.1992
X9.7907Y-2.8364
X10.0035Y-2.8527
X4.5319Y-2.8351
X4.6926Y-2.9757
T0
M30
