G04 #@! TF.GenerationSoftware,KiCad,Pcbnew,5.1.8*
G04 #@! TF.CreationDate,2021-02-14T21:35:46-06:00*
G04 #@! TF.ProjectId,steno,7374656e-6f2e-46b6-9963-61645f706362,rev?*
G04 #@! TF.SameCoordinates,Original*
G04 #@! TF.FileFunction,Legend,Top*
G04 #@! TF.FilePolarity,Positive*
%FSLAX46Y46*%
G04 Gerber Fmt 4.6, Leading zero omitted, Abs format (unit mm)*
G04 Created by KiCad (PCBNEW 5.1.8) date 2021-02-14 21:35:46*
%MOMM*%
%LPD*%
G01*
G04 APERTURE LIST*
%ADD10C,0.150000*%
%ADD11C,0.300000*%
%ADD12C,0.120000*%
%ADD13C,0.010000*%
%ADD14C,0.127000*%
G04 APERTURE END LIST*
D10*
X142144021Y-118814342D02*
X142144021Y-119528628D01*
X142096402Y-119671485D01*
X142001164Y-119766723D01*
X141858307Y-119814342D01*
X141763069Y-119814342D01*
X143096402Y-119814342D02*
X142620211Y-119814342D01*
X142620211Y-118814342D01*
X144001164Y-119719104D02*
X143953545Y-119766723D01*
X143810688Y-119814342D01*
X143715449Y-119814342D01*
X143572592Y-119766723D01*
X143477354Y-119671485D01*
X143429735Y-119576247D01*
X143382116Y-119385771D01*
X143382116Y-119242914D01*
X143429735Y-119052438D01*
X143477354Y-118957200D01*
X143572592Y-118861962D01*
X143715449Y-118814342D01*
X143810688Y-118814342D01*
X143953545Y-118861962D01*
X144001164Y-118909581D01*
X144715449Y-118814342D02*
X144715449Y-119528628D01*
X144667830Y-119671485D01*
X144572592Y-119766723D01*
X144429735Y-119814342D01*
X144334497Y-119814342D01*
X145667830Y-119814342D02*
X145191640Y-119814342D01*
X145191640Y-118814342D01*
X146572592Y-119719104D02*
X146524973Y-119766723D01*
X146382116Y-119814342D01*
X146286878Y-119814342D01*
X146144021Y-119766723D01*
X146048783Y-119671485D01*
X146001164Y-119576247D01*
X145953545Y-119385771D01*
X145953545Y-119242914D01*
X146001164Y-119052438D01*
X146048783Y-118957200D01*
X146144021Y-118861962D01*
X146286878Y-118814342D01*
X146382116Y-118814342D01*
X146524973Y-118861962D01*
X146572592Y-118909581D01*
X147286878Y-118814342D02*
X147286878Y-119528628D01*
X147239259Y-119671485D01*
X147144021Y-119766723D01*
X147001164Y-119814342D01*
X146905926Y-119814342D01*
X148239259Y-119814342D02*
X147763069Y-119814342D01*
X147763069Y-118814342D01*
X149144021Y-119719104D02*
X149096402Y-119766723D01*
X148953545Y-119814342D01*
X148858307Y-119814342D01*
X148715449Y-119766723D01*
X148620211Y-119671485D01*
X148572592Y-119576247D01*
X148524973Y-119385771D01*
X148524973Y-119242914D01*
X148572592Y-119052438D01*
X148620211Y-118957200D01*
X148715449Y-118861962D01*
X148858307Y-118814342D01*
X148953545Y-118814342D01*
X149096402Y-118861962D01*
X149144021Y-118909581D01*
X149858307Y-118814342D02*
X149858307Y-119528628D01*
X149810688Y-119671485D01*
X149715449Y-119766723D01*
X149572592Y-119814342D01*
X149477354Y-119814342D01*
X150810688Y-119814342D02*
X150334497Y-119814342D01*
X150334497Y-118814342D01*
X151715449Y-119719104D02*
X151667830Y-119766723D01*
X151524973Y-119814342D01*
X151429735Y-119814342D01*
X151286878Y-119766723D01*
X151191640Y-119671485D01*
X151144021Y-119576247D01*
X151096402Y-119385771D01*
X151096402Y-119242914D01*
X151144021Y-119052438D01*
X151191640Y-118957200D01*
X151286878Y-118861962D01*
X151429735Y-118814342D01*
X151524973Y-118814342D01*
X151667830Y-118861962D01*
X151715449Y-118909581D01*
X178089390Y-114676285D02*
X178270128Y-114616161D01*
X178375528Y-114631284D01*
X178495959Y-114691591D01*
X178601267Y-114857299D01*
X178706483Y-115173591D01*
X178721423Y-115369360D01*
X178661115Y-115489791D01*
X178585777Y-115565037D01*
X178405039Y-115625161D01*
X178299639Y-115610038D01*
X178179208Y-115549731D01*
X178073899Y-115384024D01*
X177968683Y-115067732D01*
X177953744Y-114871962D01*
X178014051Y-114751531D01*
X178089390Y-114676285D01*
X179007928Y-114722021D02*
X179323577Y-115670897D01*
X179022959Y-114767205D02*
X179098297Y-114691959D01*
X179279036Y-114631835D01*
X179384436Y-114646958D01*
X179444651Y-114677112D01*
X179519898Y-114752450D01*
X179610083Y-115023557D01*
X179594960Y-115128957D01*
X179564807Y-115189173D01*
X179489468Y-115264419D01*
X179308730Y-115324543D01*
X179203330Y-115309420D01*
X180423314Y-114903586D02*
X180347975Y-114978832D01*
X180167237Y-115038956D01*
X180061837Y-115023833D01*
X179986591Y-114948495D01*
X179866343Y-114587018D01*
X179881466Y-114481618D01*
X179956804Y-114406372D01*
X180137543Y-114346248D01*
X180242943Y-114361371D01*
X180318189Y-114436709D01*
X180348251Y-114527078D01*
X179926467Y-114767756D01*
X180679757Y-114165877D02*
X180890190Y-114798461D01*
X180709819Y-114256246D02*
X180739973Y-114196031D01*
X180815311Y-114120784D01*
X180950865Y-114075692D01*
X181056265Y-114090814D01*
X181131511Y-114166153D01*
X181296851Y-114663183D01*
X182411435Y-114242226D02*
X182516835Y-114257349D01*
X182697573Y-114197225D01*
X182772911Y-114121978D01*
X182788034Y-114016578D01*
X182773003Y-113971394D01*
X182697757Y-113896056D01*
X182592357Y-113880933D01*
X182456803Y-113926026D01*
X182351403Y-113910903D01*
X182276157Y-113835565D01*
X182261126Y-113790380D01*
X182276248Y-113684980D01*
X182351587Y-113609734D01*
X182487140Y-113564641D01*
X182592540Y-113579764D01*
X183375342Y-113971761D02*
X183269942Y-113956639D01*
X183209726Y-113926485D01*
X183134480Y-113851147D01*
X183044294Y-113580039D01*
X183059417Y-113474639D01*
X183089571Y-113414424D01*
X183164909Y-113339177D01*
X183300463Y-113294085D01*
X183405863Y-113309207D01*
X183466078Y-113339361D01*
X183541325Y-113414699D01*
X183631510Y-113685807D01*
X183616387Y-113791207D01*
X183586234Y-113851422D01*
X183510895Y-113926669D01*
X183375342Y-113971761D01*
X184294523Y-112963405D02*
X184504956Y-113595989D01*
X183887862Y-113098683D02*
X184053202Y-113595713D01*
X184128448Y-113671051D01*
X184233848Y-113686174D01*
X184369402Y-113641081D01*
X184444740Y-113565835D01*
X184474894Y-113505619D01*
X184956802Y-113445680D02*
X184746369Y-112813096D01*
X184806493Y-112993834D02*
X184821615Y-112888434D01*
X184851769Y-112828218D01*
X184927107Y-112752972D01*
X185017476Y-112722910D01*
X185935831Y-113069815D02*
X185860493Y-113145061D01*
X185679755Y-113205185D01*
X185574355Y-113190062D01*
X185514139Y-113159909D01*
X185438893Y-113084570D01*
X185348707Y-112813463D01*
X185363830Y-112708063D01*
X185393984Y-112647847D01*
X185469322Y-112572601D01*
X185650060Y-112512477D01*
X185755460Y-112527600D01*
X186703969Y-112814290D02*
X186628631Y-112889536D01*
X186447892Y-112949660D01*
X186342492Y-112934537D01*
X186267246Y-112859199D01*
X186146999Y-112497722D01*
X186162122Y-112392322D01*
X186237460Y-112317076D01*
X186418198Y-112256952D01*
X186523598Y-112272075D01*
X186598845Y-112347413D01*
X186628906Y-112437782D01*
X186207122Y-112678460D01*
X187577507Y-112573887D02*
X187261858Y-111625011D01*
X187562476Y-112528702D02*
X187487138Y-112603949D01*
X187306399Y-112664072D01*
X187200999Y-112648950D01*
X187140784Y-112618796D01*
X187065537Y-112543458D01*
X186975352Y-112272350D01*
X186990475Y-112166950D01*
X187020628Y-112106735D01*
X187095967Y-112031488D01*
X187276705Y-111971365D01*
X187382105Y-111986488D01*
X189189396Y-111535836D02*
X189129181Y-111505682D01*
X189023780Y-111490559D01*
X188933411Y-111520621D01*
X188858073Y-111595868D01*
X188827919Y-111656083D01*
X188812797Y-111761483D01*
X188842859Y-111851852D01*
X188918105Y-111927191D01*
X188978320Y-111957344D01*
X189083720Y-111972467D01*
X189174090Y-111942405D01*
X189249428Y-111867159D01*
X189279581Y-111806943D01*
X189159334Y-111445467D02*
X189279581Y-111806943D01*
X189339797Y-111837097D01*
X189384982Y-111822066D01*
X189460320Y-111746820D01*
X189475443Y-111641420D01*
X189400288Y-111415497D01*
X189264826Y-111310005D01*
X189099211Y-111264728D01*
X188903441Y-111279668D01*
X188737734Y-111384976D01*
X188632242Y-111520438D01*
X188586966Y-111686053D01*
X188601905Y-111881822D01*
X188707213Y-112047530D01*
X188842675Y-112153022D01*
X189008290Y-112198298D01*
X189204060Y-112183359D01*
X189369767Y-112078051D01*
X189475259Y-111942589D01*
X190891471Y-110768892D02*
X191146996Y-111537030D01*
X191131873Y-111642430D01*
X191101720Y-111702646D01*
X191026381Y-111777892D01*
X190890828Y-111822985D01*
X190785428Y-111807862D01*
X191086872Y-111356292D02*
X191011534Y-111431538D01*
X190830796Y-111491662D01*
X190725396Y-111476539D01*
X190665180Y-111446385D01*
X190589934Y-111371047D01*
X190499749Y-111099940D01*
X190514871Y-110994540D01*
X190545025Y-110934324D01*
X190620363Y-110859078D01*
X190801102Y-110798954D01*
X190906502Y-110814077D01*
X191553749Y-111251167D02*
X191343316Y-110618583D01*
X191238100Y-110302291D02*
X191207946Y-110362507D01*
X191268162Y-110392660D01*
X191298316Y-110332445D01*
X191238100Y-110302291D01*
X191268162Y-110392660D01*
X191659608Y-110513367D02*
X192021085Y-110393120D01*
X191689946Y-110151982D02*
X191960502Y-110965304D01*
X192035749Y-111040643D01*
X192141149Y-111055765D01*
X192231518Y-111025704D01*
X192547810Y-110920487D02*
X192232161Y-109971611D01*
X192954471Y-110785209D02*
X192789131Y-110288179D01*
X192713884Y-110212841D01*
X192608484Y-110197718D01*
X192472931Y-110242811D01*
X192397592Y-110318057D01*
X192367439Y-110378272D01*
X193602545Y-109867038D02*
X193812978Y-110499622D01*
X193195884Y-110002316D02*
X193361224Y-110499346D01*
X193436470Y-110574685D01*
X193541870Y-110589807D01*
X193677424Y-110544715D01*
X193752762Y-110469468D01*
X193782916Y-110409253D01*
X194264823Y-110349313D02*
X193949174Y-109400437D01*
X194069422Y-109761913D02*
X194144760Y-109686667D01*
X194325498Y-109626543D01*
X194430898Y-109641666D01*
X194491114Y-109671820D01*
X194566360Y-109747158D01*
X194656546Y-110018265D01*
X194641423Y-110123666D01*
X194611269Y-110183881D01*
X194535931Y-110259127D01*
X194355193Y-110319251D01*
X194249793Y-110304128D01*
X195093268Y-109973356D02*
X195153484Y-110003510D01*
X195123330Y-110063726D01*
X195063115Y-110033572D01*
X195093268Y-109973356D01*
X195123330Y-110063726D01*
X195966806Y-109732954D02*
X195891468Y-109808200D01*
X195710730Y-109868324D01*
X195605330Y-109853201D01*
X195545114Y-109823047D01*
X195469868Y-109747709D01*
X195379682Y-109476602D01*
X195394805Y-109371202D01*
X195424959Y-109310986D01*
X195500297Y-109235740D01*
X195681035Y-109175616D01*
X195786435Y-109190739D01*
X196524052Y-109597767D02*
X196418652Y-109582645D01*
X196358437Y-109552491D01*
X196283190Y-109477153D01*
X196193005Y-109206045D01*
X196208127Y-109100645D01*
X196238281Y-109040430D01*
X196313619Y-108965183D01*
X196449173Y-108920091D01*
X196554573Y-108935214D01*
X196614789Y-108965367D01*
X196690035Y-109040705D01*
X196780220Y-109311813D01*
X196765098Y-109417213D01*
X196734944Y-109477428D01*
X196659606Y-109552675D01*
X196524052Y-109597767D01*
X197247005Y-109357273D02*
X197036572Y-108724689D01*
X197066634Y-108815058D02*
X197096788Y-108754843D01*
X197172126Y-108679596D01*
X197307680Y-108634504D01*
X197413080Y-108649626D01*
X197488326Y-108724965D01*
X197653666Y-109221995D01*
X197488326Y-108724965D02*
X197503449Y-108619564D01*
X197578787Y-108544318D01*
X197714341Y-108499225D01*
X197819741Y-108514348D01*
X197894988Y-108589686D01*
X198060327Y-109086717D01*
X198859262Y-107716883D02*
X198451774Y-109207423D01*
X199897864Y-108425265D02*
X199822526Y-108500511D01*
X199641788Y-108560635D01*
X199536387Y-108545512D01*
X199476172Y-108515359D01*
X199400926Y-108440020D01*
X199310740Y-108168913D01*
X199325863Y-108063513D01*
X199356017Y-108003297D01*
X199431355Y-107928051D01*
X199612093Y-107867927D01*
X199717493Y-107883050D01*
X200319556Y-108335171D02*
X200109123Y-107702587D01*
X200169247Y-107883326D02*
X200184370Y-107777926D01*
X200214523Y-107717710D01*
X200289862Y-107642464D01*
X200380231Y-107612402D01*
X200906956Y-108139770D02*
X200696523Y-107507186D01*
X200591306Y-107190894D02*
X200561153Y-107251109D01*
X200621368Y-107281263D01*
X200651522Y-107221047D01*
X200591306Y-107190894D01*
X200621368Y-107281263D01*
X201765462Y-107854182D02*
X201449813Y-106905306D01*
X201750431Y-107808998D02*
X201675093Y-107884244D01*
X201494355Y-107944368D01*
X201388955Y-107929245D01*
X201328739Y-107899091D01*
X201253493Y-107823753D01*
X201163308Y-107552646D01*
X201178430Y-107447246D01*
X201208584Y-107387030D01*
X201283922Y-107311784D01*
X201464661Y-107251660D01*
X201570061Y-107266783D01*
X202563754Y-107538441D02*
X202488416Y-107613688D01*
X202307677Y-107673811D01*
X202202277Y-107658689D01*
X202127031Y-107583350D01*
X202006784Y-107221874D01*
X202021906Y-107116474D01*
X202097245Y-107041227D01*
X202277983Y-106981104D01*
X202383383Y-106996227D01*
X202458629Y-107071565D01*
X202488691Y-107161934D01*
X202066907Y-107402612D01*
X202970415Y-107403163D02*
X203075815Y-107418286D01*
X203256553Y-107358162D01*
X203331891Y-107282916D01*
X203347014Y-107177516D01*
X203331983Y-107132331D01*
X203256737Y-107056993D01*
X203151337Y-107041870D01*
X203015783Y-107086963D01*
X202910383Y-107071840D01*
X202835137Y-106996502D01*
X202820106Y-106951318D01*
X202835229Y-106845918D01*
X202910567Y-106770671D01*
X203046121Y-106725578D01*
X203151521Y-106740701D01*
X204145857Y-105958267D02*
X203738369Y-107448807D01*
X204732613Y-106816958D02*
X204838013Y-106832081D01*
X205018752Y-106771957D01*
X205094090Y-106696711D01*
X205109213Y-106591311D01*
X205094182Y-106546126D01*
X205018935Y-106470788D01*
X204913535Y-106455665D01*
X204777982Y-106500758D01*
X204672581Y-106485635D01*
X204597335Y-106410297D01*
X204582304Y-106365112D01*
X204597427Y-106259712D01*
X204672765Y-106184466D01*
X204808319Y-106139373D01*
X204913719Y-106154496D01*
X205214980Y-106004095D02*
X205576457Y-105883848D01*
X205245317Y-105642710D02*
X205515874Y-106456032D01*
X205591120Y-106531371D01*
X205696520Y-106546493D01*
X205786889Y-106516432D01*
X206449627Y-106245783D02*
X206374289Y-106321030D01*
X206193550Y-106381153D01*
X206088150Y-106366031D01*
X206012904Y-106290692D01*
X205892657Y-105929216D01*
X205907780Y-105823816D01*
X205983118Y-105748569D01*
X206163856Y-105688446D01*
X206269256Y-105703569D01*
X206344502Y-105778907D01*
X206374564Y-105869276D01*
X205952780Y-106109954D01*
X206706071Y-105508075D02*
X206916504Y-106140659D01*
X206736133Y-105598444D02*
X206766286Y-105538229D01*
X206841625Y-105462982D01*
X206977178Y-105417890D01*
X207082578Y-105433012D01*
X207157825Y-105508351D01*
X207323165Y-106005381D01*
X207910564Y-105809979D02*
X207805164Y-105794856D01*
X207744949Y-105764703D01*
X207669702Y-105689364D01*
X207579517Y-105418257D01*
X207594640Y-105312857D01*
X207624793Y-105252641D01*
X207700131Y-105177395D01*
X207835685Y-105132302D01*
X207941085Y-105147425D01*
X208001301Y-105177579D01*
X208076547Y-105252917D01*
X208166733Y-105524024D01*
X208151610Y-105629424D01*
X208121456Y-105689640D01*
X208046118Y-105764886D01*
X207910564Y-105809979D01*
D11*
X176466615Y-109238469D02*
X176767785Y-109238653D01*
X176888216Y-109298961D01*
X177038708Y-109449637D01*
X177128894Y-109720744D01*
X177098648Y-109931545D01*
X177038341Y-110051975D01*
X176887664Y-110202468D01*
X176164711Y-110442963D01*
X175533413Y-108545211D01*
X176165997Y-108334778D01*
X176376797Y-108365024D01*
X176497228Y-108425331D01*
X176647721Y-108576007D01*
X176707845Y-108756746D01*
X176677599Y-108967546D01*
X176617292Y-109087977D01*
X176466615Y-109238469D01*
X175834031Y-109448902D01*
X178875786Y-109541108D02*
X178545106Y-108547048D01*
X178394613Y-108396371D01*
X178183813Y-108366126D01*
X177822336Y-108486373D01*
X177671660Y-108636866D01*
X178845724Y-109450739D02*
X178695047Y-109601232D01*
X178243202Y-109751541D01*
X178032401Y-109721296D01*
X177881909Y-109570619D01*
X177821785Y-109389881D01*
X177852031Y-109179081D01*
X178002707Y-109028588D01*
X178454553Y-108878279D01*
X178605229Y-108727786D01*
X179087504Y-108065508D02*
X179810457Y-107825013D01*
X179148179Y-107342738D02*
X179689292Y-108969383D01*
X179839784Y-109120059D01*
X180050584Y-109150305D01*
X180231323Y-109090181D01*
X180051870Y-107042120D02*
X181135014Y-108789563D01*
X181045564Y-107313779D01*
X181857967Y-108549069D01*
X181678515Y-106501007D01*
X183032766Y-108158265D02*
X182611901Y-106893097D01*
X182401468Y-106260513D02*
X182341161Y-106380944D01*
X182461592Y-106441251D01*
X182521899Y-106320820D01*
X182401468Y-106260513D01*
X182461592Y-106441251D01*
X183515592Y-106592479D02*
X183936458Y-107857647D01*
X183575716Y-106773217D02*
X183636023Y-106652786D01*
X183786700Y-106502293D01*
X184057807Y-106412108D01*
X184268607Y-106442353D01*
X184419100Y-106593030D01*
X184749780Y-107587091D01*
X186045928Y-105750748D02*
X186556979Y-107287023D01*
X186526734Y-107497824D01*
X186466426Y-107618255D01*
X186315750Y-107768747D01*
X186044642Y-107858933D01*
X185833842Y-107828687D01*
X186436732Y-106925547D02*
X186286055Y-107076040D01*
X185924579Y-107196287D01*
X185713779Y-107166041D01*
X185593348Y-107105734D01*
X185442855Y-106955058D01*
X185262484Y-106412843D01*
X185292730Y-106202043D01*
X185353037Y-106081612D01*
X185503713Y-105931119D01*
X185865190Y-105810872D01*
X186075990Y-105841117D01*
X187250054Y-106654991D02*
X187460854Y-106685236D01*
X187822331Y-106564989D01*
X187973007Y-106414496D01*
X188003253Y-106203696D01*
X187973191Y-106113327D01*
X187822698Y-105962650D01*
X187611898Y-105932405D01*
X187340791Y-106022590D01*
X187129991Y-105992345D01*
X186979498Y-105841668D01*
X186949436Y-105751299D01*
X186979682Y-105540499D01*
X187130358Y-105390006D01*
X187401465Y-105299821D01*
X187612266Y-105330066D01*
X176875673Y-112580193D02*
X177508257Y-112369760D01*
X178110045Y-113273636D02*
X177206353Y-113574254D01*
X176575055Y-111676502D01*
X177478747Y-111375884D01*
X178923367Y-113003079D02*
X178502502Y-111737911D01*
X178562625Y-111918650D02*
X178622933Y-111798219D01*
X178773609Y-111647726D01*
X179044716Y-111557540D01*
X179255517Y-111587786D01*
X179406009Y-111738462D01*
X179736689Y-112732523D01*
X179406009Y-111738462D02*
X179436255Y-111527662D01*
X179586931Y-111377170D01*
X179858039Y-111286984D01*
X180068839Y-111317230D01*
X180219332Y-111467906D01*
X180550012Y-112461967D01*
X181453703Y-112161349D02*
X180822405Y-110263597D01*
X181062899Y-110986550D02*
X181213576Y-110836057D01*
X181575053Y-110715810D01*
X181785853Y-110746055D01*
X181906284Y-110806362D01*
X182056776Y-110957039D01*
X182237147Y-111499254D01*
X182206902Y-111710054D01*
X182146594Y-111830485D01*
X181995918Y-111980978D01*
X181634441Y-112101225D01*
X181423641Y-112070979D01*
X183863608Y-111259310D02*
X183712932Y-111409803D01*
X183351455Y-111530050D01*
X183140655Y-111499805D01*
X182990162Y-111349128D01*
X182749668Y-110626175D01*
X182779913Y-110415375D01*
X182930590Y-110264882D01*
X183292066Y-110144635D01*
X183502866Y-110174881D01*
X183653359Y-110325557D01*
X183713483Y-110506295D01*
X182869915Y-110987652D01*
X185610684Y-110778505D02*
X184979386Y-108880753D01*
X185580622Y-110688136D02*
X185429945Y-110838629D01*
X185068469Y-110958876D01*
X184857669Y-110928630D01*
X184737238Y-110868323D01*
X184586745Y-110717647D01*
X184406374Y-110175432D01*
X184436620Y-109964632D01*
X184496927Y-109844201D01*
X184647603Y-109693708D01*
X185009080Y-109573461D01*
X185219880Y-109603706D01*
X187327697Y-110207331D02*
X186696399Y-108309579D01*
X187297636Y-110116962D02*
X187146959Y-110267454D01*
X186785483Y-110387702D01*
X186574682Y-110357456D01*
X186454251Y-110297149D01*
X186303759Y-110146472D01*
X186123388Y-109604257D01*
X186153633Y-109393457D01*
X186213941Y-109273026D01*
X186364617Y-109122534D01*
X186726094Y-109002286D01*
X186936894Y-109032532D01*
X188924280Y-109575849D02*
X188773604Y-109726342D01*
X188412127Y-109846589D01*
X188201327Y-109816343D01*
X188050834Y-109665667D01*
X187810340Y-108942714D01*
X187840585Y-108731914D01*
X187991262Y-108581421D01*
X188352738Y-108461174D01*
X188563538Y-108491419D01*
X188714031Y-108642096D01*
X188774155Y-108822834D01*
X187930587Y-109304190D01*
X190671356Y-109095044D02*
X190040058Y-107197292D01*
X190641294Y-109004674D02*
X190490617Y-109155167D01*
X190129141Y-109275414D01*
X189918341Y-109245169D01*
X189797910Y-109184862D01*
X189647417Y-109034185D01*
X189467046Y-108491970D01*
X189497292Y-108281170D01*
X189557599Y-108160739D01*
X189708275Y-108010246D01*
X190069752Y-107889999D01*
X190280552Y-107920245D01*
X192900523Y-108253129D02*
X193111323Y-108283375D01*
X193472799Y-108163127D01*
X193623476Y-108012635D01*
X193653721Y-107801835D01*
X193623659Y-107711465D01*
X193473167Y-107560789D01*
X193262366Y-107530543D01*
X192991259Y-107620729D01*
X192780459Y-107590483D01*
X192629966Y-107439807D01*
X192599904Y-107349438D01*
X192630150Y-107138638D01*
X192780826Y-106988145D01*
X193051934Y-106897959D01*
X193262734Y-106928205D01*
X193865256Y-106627403D02*
X194588209Y-106386909D01*
X193925931Y-105904634D02*
X194467043Y-107531278D01*
X194617536Y-107681955D01*
X194828336Y-107712200D01*
X195009075Y-107652077D01*
X196334550Y-107110780D02*
X196183873Y-107261273D01*
X195822397Y-107381520D01*
X195611597Y-107351275D01*
X195461104Y-107200598D01*
X195220610Y-106477645D01*
X195250855Y-106266845D01*
X195401532Y-106116352D01*
X195763008Y-105996105D01*
X195973808Y-106026351D01*
X196124301Y-106177027D01*
X196184425Y-106357765D01*
X195340857Y-106839122D01*
X196847438Y-105635363D02*
X197268303Y-106900531D01*
X196907561Y-105816102D02*
X196967869Y-105695671D01*
X197118545Y-105545178D01*
X197389653Y-105454992D01*
X197600453Y-105485238D01*
X197750946Y-105635914D01*
X198081626Y-106629975D01*
X199256424Y-106239171D02*
X199045624Y-106208926D01*
X198925193Y-106148619D01*
X198774701Y-105997942D01*
X198594330Y-105455727D01*
X198624575Y-105244927D01*
X198684883Y-105124496D01*
X198835559Y-104974003D01*
X199106666Y-104883818D01*
X199317467Y-104914063D01*
X199437898Y-104974371D01*
X199588390Y-105125047D01*
X199768761Y-105667262D01*
X199738516Y-105878062D01*
X199678208Y-105998493D01*
X199527532Y-106148986D01*
X199256424Y-106239171D01*
X202540694Y-103741469D02*
X203051745Y-105277744D01*
X203021499Y-105488545D01*
X202961192Y-105608976D01*
X202810515Y-105759468D01*
X202539408Y-105849654D01*
X202328608Y-105819408D01*
X202931497Y-104916268D02*
X202780821Y-105066761D01*
X202419344Y-105187008D01*
X202208544Y-105156762D01*
X202088113Y-105096455D01*
X201937621Y-104945779D01*
X201757250Y-104403564D01*
X201787495Y-104192764D01*
X201847803Y-104072333D01*
X201998479Y-103921840D01*
X202359956Y-103801593D01*
X202570756Y-103831838D01*
X203865251Y-104706019D02*
X203444385Y-103440851D01*
X203233953Y-102808267D02*
X203173645Y-102928698D01*
X203294076Y-102989005D01*
X203354384Y-102868574D01*
X203233953Y-102808267D01*
X203294076Y-102989005D01*
X204167339Y-103200356D02*
X205040050Y-104315215D01*
X205071030Y-102899738D01*
X206907740Y-103593548D02*
X206757063Y-103744041D01*
X206395587Y-103864288D01*
X206184787Y-103834043D01*
X206034294Y-103683366D01*
X205793799Y-102960413D01*
X205824045Y-102749613D01*
X205974721Y-102599120D01*
X206336198Y-102478873D01*
X206546998Y-102509118D01*
X206697491Y-102659795D01*
X206757614Y-102840533D01*
X205914047Y-103321890D01*
X207721062Y-103322992D02*
X207931862Y-103353237D01*
X208293339Y-103232990D01*
X208444015Y-103082497D01*
X208474261Y-102871697D01*
X208444199Y-102781328D01*
X208293706Y-102630652D01*
X208082906Y-102600406D01*
X207811799Y-102690591D01*
X207600999Y-102660346D01*
X207450506Y-102509669D01*
X207420444Y-102419300D01*
X207450690Y-102208500D01*
X207601366Y-102058007D01*
X207872473Y-101967822D01*
X208083274Y-101998068D01*
X210222071Y-101186215D02*
X211094782Y-102301074D01*
X211125763Y-100885597D02*
X211094782Y-102301074D01*
X211064353Y-102813043D01*
X211004046Y-102933474D01*
X210853369Y-103083967D01*
X212540689Y-101820085D02*
X212329888Y-101789839D01*
X212209457Y-101729532D01*
X212058965Y-101578856D01*
X211878594Y-101036641D01*
X211908839Y-100825841D01*
X211969147Y-100705410D01*
X212119823Y-100554917D01*
X212390931Y-100464731D01*
X212601731Y-100494977D01*
X212722162Y-100555284D01*
X212872654Y-100705961D01*
X213053025Y-101248176D01*
X213022780Y-101458976D01*
X212962472Y-101579407D01*
X212811796Y-101729899D01*
X212540689Y-101820085D01*
X214379052Y-99803371D02*
X214799917Y-101068540D01*
X213565729Y-100073928D02*
X213896409Y-101067988D01*
X214046902Y-101218665D01*
X214257702Y-101248910D01*
X214528810Y-101158725D01*
X214679486Y-101008232D01*
X214739794Y-100887801D01*
X216547911Y-99081888D02*
X217330253Y-100226809D01*
X217391112Y-99202870D01*
X218053206Y-99986314D01*
X217993818Y-98600899D01*
X219137636Y-99625572D02*
X218716771Y-98360404D01*
X218506338Y-97727820D02*
X218446031Y-97848251D01*
X218566462Y-97908559D01*
X218626769Y-97788128D01*
X218506338Y-97727820D01*
X218566462Y-97908559D01*
X219620462Y-98059786D02*
X220041328Y-99324954D01*
X219680586Y-98240525D02*
X219740893Y-98120094D01*
X219891570Y-97969601D01*
X220162677Y-97879415D01*
X220373477Y-97909661D01*
X220523970Y-98060337D01*
X220854650Y-99054398D01*
X222150798Y-97218056D02*
X222661849Y-98754331D01*
X222631603Y-98965131D01*
X222571296Y-99085562D01*
X222420620Y-99236055D01*
X222149512Y-99326240D01*
X221938712Y-99295995D01*
X222541602Y-98392854D02*
X222390925Y-98543347D01*
X222029449Y-98663594D01*
X221818649Y-98633349D01*
X221698218Y-98573042D01*
X221547725Y-98422365D01*
X221367354Y-97880150D01*
X221397599Y-97669350D01*
X221457907Y-97548919D01*
X221608583Y-97398426D01*
X221970060Y-97278179D01*
X222180860Y-97308425D01*
X223354924Y-98122298D02*
X223565724Y-98152544D01*
X223927201Y-98032296D01*
X224077877Y-97881804D01*
X224108123Y-97671004D01*
X224078061Y-97580634D01*
X223927568Y-97429958D01*
X223716768Y-97399712D01*
X223445661Y-97489898D01*
X223234860Y-97459652D01*
X223084368Y-97308976D01*
X223054306Y-97218607D01*
X223084551Y-97007807D01*
X223235228Y-96857314D01*
X223506335Y-96767128D01*
X223717135Y-96797374D01*
X224951507Y-97490816D02*
X225071938Y-97551124D01*
X225011630Y-97671555D01*
X224891199Y-97611247D01*
X224951507Y-97490816D01*
X225011630Y-97671555D01*
X224771136Y-96948601D02*
X224320025Y-95894234D01*
X224380332Y-95773803D01*
X224500763Y-95834110D01*
X224771136Y-96948601D01*
X224380332Y-95773803D01*
D12*
X138663069Y-68711962D02*
X138363069Y-68711962D01*
X138363069Y-68711962D02*
X138363069Y-72011962D01*
X138363069Y-72011962D02*
X138663069Y-72011962D01*
X140863069Y-68711962D02*
X141163069Y-68711962D01*
X141163069Y-68711962D02*
X141163069Y-72011962D01*
X141163069Y-72011962D02*
X140863069Y-72011962D01*
X140990133Y-75596962D02*
X140536005Y-75596962D01*
X140990133Y-74126962D02*
X140536005Y-74126962D01*
D13*
G36*
X182584575Y-97225435D02*
G01*
X182611687Y-97314839D01*
X182636643Y-97388500D01*
X182664136Y-97455416D01*
X182698864Y-97524582D01*
X182745522Y-97604998D01*
X182808802Y-97705660D01*
X182893401Y-97835563D01*
X182939806Y-97906154D01*
X183087036Y-98101798D01*
X183274353Y-98305050D01*
X183493553Y-98507745D01*
X183736431Y-98701715D01*
X183746345Y-98709045D01*
X183863796Y-98790244D01*
X184008418Y-98881952D01*
X184169465Y-98978139D01*
X184336191Y-99072774D01*
X184497850Y-99159826D01*
X184643697Y-99233264D01*
X184762984Y-99287058D01*
X184805063Y-99303223D01*
X184917663Y-99345140D01*
X185037441Y-99393067D01*
X185104112Y-99421533D01*
X185301638Y-99502432D01*
X185496147Y-99566582D01*
X185708960Y-99620563D01*
X185834944Y-99646999D01*
X185963498Y-99673382D01*
X186086421Y-99700174D01*
X186187626Y-99723789D01*
X186239740Y-99737295D01*
X186312068Y-99753519D01*
X186425042Y-99773710D01*
X186568784Y-99796535D01*
X186733415Y-99820658D01*
X186909059Y-99844745D01*
X187085839Y-99867462D01*
X187253877Y-99887477D01*
X187403294Y-99903452D01*
X187524215Y-99914055D01*
X187568950Y-99916832D01*
X187676159Y-99923110D01*
X187771991Y-99930493D01*
X187838400Y-99937559D01*
X187845929Y-99938702D01*
X187965161Y-99951203D01*
X188130146Y-99957284D01*
X188336248Y-99956961D01*
X188578831Y-99950256D01*
X188853257Y-99937186D01*
X188901850Y-99934386D01*
X188964442Y-99930486D01*
X189026298Y-99926029D01*
X189096269Y-99920206D01*
X189183212Y-99912209D01*
X189295979Y-99901232D01*
X189443423Y-99886466D01*
X189590323Y-99871582D01*
X189677535Y-99862880D01*
X189746203Y-99860163D01*
X189800714Y-99868667D01*
X189845455Y-99893629D01*
X189884810Y-99940285D01*
X189923169Y-100013870D01*
X189964916Y-100119622D01*
X190014439Y-100262774D01*
X190076124Y-100448566D01*
X190077715Y-100453366D01*
X190135875Y-100629994D01*
X190179168Y-100765244D01*
X190209276Y-100865772D01*
X190227880Y-100938230D01*
X190236662Y-100989271D01*
X190237303Y-101025549D01*
X190231484Y-101053715D01*
X190230314Y-101057204D01*
X190205949Y-101127275D01*
X189964940Y-101162947D01*
X189805168Y-101194471D01*
X189605770Y-101246830D01*
X189372485Y-101318006D01*
X189111053Y-101405980D01*
X188827216Y-101508728D01*
X188526712Y-101624234D01*
X188215284Y-101750477D01*
X187898671Y-101885435D01*
X187845460Y-101908785D01*
X187535907Y-102046139D01*
X187266035Y-102168303D01*
X187028426Y-102279135D01*
X186815670Y-102382496D01*
X186620353Y-102482247D01*
X186435059Y-102582245D01*
X186252375Y-102686352D01*
X186064889Y-102798428D01*
X185865185Y-102922331D01*
X185712086Y-103019490D01*
X185577404Y-103105051D01*
X185444395Y-103188638D01*
X185324571Y-103263083D01*
X185229439Y-103321215D01*
X185191011Y-103344105D01*
X185077588Y-103414384D01*
X184958428Y-103494568D01*
X184848133Y-103574323D01*
X184761310Y-103643319D01*
X184735963Y-103666029D01*
X184703718Y-103696180D01*
X184641704Y-103753803D01*
X184557464Y-103831904D01*
X184458543Y-103923484D01*
X184403430Y-103974458D01*
X184268731Y-104103467D01*
X184147836Y-104230223D01*
X184035618Y-104361825D01*
X183926951Y-104505374D01*
X183816706Y-104667968D01*
X183699758Y-104856708D01*
X183570978Y-105078694D01*
X183452715Y-105290944D01*
X183414910Y-105354645D01*
X183385238Y-105395798D01*
X183376502Y-105403295D01*
X183345309Y-105395899D01*
X183287248Y-105370387D01*
X183258353Y-105355600D01*
X183171958Y-105300887D01*
X183087910Y-105234742D01*
X183074739Y-105222609D01*
X183012548Y-105164488D01*
X182958238Y-105115849D01*
X182945838Y-105105319D01*
X182814660Y-104999692D01*
X182706825Y-104918799D01*
X182628602Y-104867306D01*
X182618636Y-104861778D01*
X182540902Y-104824165D01*
X182436719Y-104779008D01*
X182315605Y-104729841D01*
X182187082Y-104680198D01*
X182060669Y-104633614D01*
X181945885Y-104593621D01*
X181852252Y-104563754D01*
X181789288Y-104547547D01*
X181768579Y-104546217D01*
X181740503Y-104543553D01*
X181675052Y-104533419D01*
X181584765Y-104517801D01*
X181555465Y-104512482D01*
X181251408Y-104478690D01*
X180944033Y-104489307D01*
X180628638Y-104545001D01*
X180300523Y-104646443D01*
X180125266Y-104716658D01*
X179990277Y-104778022D01*
X179858530Y-104843806D01*
X179745119Y-104906150D01*
X179670007Y-104953675D01*
X179560333Y-105040156D01*
X179432977Y-105153607D01*
X179298801Y-105283060D01*
X179168673Y-105417551D01*
X179053458Y-105546110D01*
X178964021Y-105657770D01*
X178943145Y-105687360D01*
X178885717Y-105765129D01*
X178833209Y-105823634D01*
X178795796Y-105851733D01*
X178792198Y-105852627D01*
X178751639Y-105835730D01*
X178699065Y-105774126D01*
X178667076Y-105725063D01*
X178607119Y-105629389D01*
X178543609Y-105530856D01*
X178511551Y-105482459D01*
X178453583Y-105391867D01*
X178392399Y-105289638D01*
X178369233Y-105248733D01*
X178265432Y-105090151D01*
X178122390Y-104916072D01*
X177946504Y-104733313D01*
X177744170Y-104548691D01*
X177603687Y-104432655D01*
X177436630Y-104306314D01*
X177286103Y-104208861D01*
X177134937Y-104131174D01*
X176965962Y-104064128D01*
X176819838Y-104016149D01*
X176607389Y-103955630D01*
X176428625Y-103916766D01*
X176272237Y-103897624D01*
X176126917Y-103896276D01*
X176120046Y-103896624D01*
X176011872Y-103900251D01*
X175900087Y-103900804D01*
X175859712Y-103899956D01*
X175804044Y-103901671D01*
X175737282Y-103911698D01*
X175651378Y-103932088D01*
X175538283Y-103964890D01*
X175389946Y-104012155D01*
X175292117Y-104044493D01*
X175123244Y-104101645D01*
X174990959Y-104149121D01*
X174883276Y-104192111D01*
X174788207Y-104235805D01*
X174693764Y-104285395D01*
X174587959Y-104346071D01*
X174566775Y-104358576D01*
X174456791Y-104423077D01*
X174359420Y-104479066D01*
X174284706Y-104520842D01*
X174242693Y-104542706D01*
X174240968Y-104543457D01*
X174194054Y-104547813D01*
X174174387Y-104512813D01*
X174182470Y-104442295D01*
X174215364Y-104348118D01*
X174257961Y-104241515D01*
X174299500Y-104128029D01*
X174318430Y-104071494D01*
X174379105Y-103881981D01*
X174390309Y-103848187D01*
X175093973Y-103614110D01*
X175120935Y-103623912D01*
X175168636Y-103595575D01*
X175195970Y-103569121D01*
X175262534Y-103522179D01*
X175367101Y-103475770D01*
X175496949Y-103433190D01*
X175639357Y-103397735D01*
X175781602Y-103372702D01*
X175910965Y-103361388D01*
X175989128Y-103363600D01*
X176043882Y-103363328D01*
X176127910Y-103356821D01*
X176198302Y-103348648D01*
X176291056Y-103339596D01*
X176370990Y-103337545D01*
X176409939Y-103341100D01*
X176463699Y-103349430D01*
X176549847Y-103358947D01*
X176650072Y-103367637D01*
X176653544Y-103367896D01*
X176748054Y-103377424D01*
X176823382Y-103389620D01*
X176864456Y-103401988D01*
X176866006Y-103403063D01*
X176903524Y-103421176D01*
X176973336Y-103446197D01*
X177040706Y-103466933D01*
X177226887Y-103530914D01*
X177422958Y-103615871D01*
X177600554Y-103709359D01*
X177620517Y-103721314D01*
X177694510Y-103768733D01*
X177785859Y-103830659D01*
X177884386Y-103899764D01*
X177979913Y-103968716D01*
X178062263Y-104030186D01*
X178121259Y-104076846D01*
X178145408Y-104099342D01*
X178176402Y-104128252D01*
X178232871Y-104172829D01*
X178264617Y-104196173D01*
X178325531Y-104244391D01*
X178366363Y-104285067D01*
X178374592Y-104298213D01*
X178397320Y-104332137D01*
X178444745Y-104386454D01*
X178482689Y-104425540D01*
X178548419Y-104495937D01*
X178627063Y-104587776D01*
X178701751Y-104681352D01*
X178702716Y-104682616D01*
X178794603Y-104801109D01*
X178862385Y-104882076D01*
X178911190Y-104929536D01*
X178946151Y-104947508D01*
X178972395Y-104940010D01*
X178994833Y-104911434D01*
X179024278Y-104880501D01*
X179078925Y-104835477D01*
X179103150Y-104817455D01*
X179163383Y-104767638D01*
X179204366Y-104722170D01*
X179211196Y-104709936D01*
X179245685Y-104671903D01*
X179295130Y-104646274D01*
X179346818Y-104621307D01*
X179369302Y-104597307D01*
X179392954Y-104568696D01*
X179448213Y-104522181D01*
X179523421Y-104466491D01*
X179606924Y-104410352D01*
X179670553Y-104371732D01*
X179928065Y-104241533D01*
X180203901Y-104136818D01*
X180353710Y-104091774D01*
X180580698Y-104031619D01*
X180771126Y-103988919D01*
X180935648Y-103962387D01*
X181084921Y-103950733D01*
X181229598Y-103952672D01*
X181380336Y-103966914D01*
X181383430Y-103967310D01*
X181465380Y-103975837D01*
X181527253Y-103978708D01*
X181548881Y-103976856D01*
X181593450Y-103975581D01*
X181673471Y-103985627D01*
X181778452Y-104004504D01*
X181897894Y-104029723D01*
X182021301Y-104058792D01*
X182138179Y-104089224D01*
X182238032Y-104118525D01*
X182310364Y-104144209D01*
X182344679Y-104163784D01*
X182345863Y-104165926D01*
X182373664Y-104183271D01*
X182404907Y-104186850D01*
X182454607Y-104198352D01*
X182536758Y-104230005D01*
X182639973Y-104276300D01*
X182752861Y-104331727D01*
X182864033Y-104390776D01*
X182962098Y-104447940D01*
X183012086Y-104480548D01*
X183123375Y-104552016D01*
X183201168Y-104588722D01*
X183239289Y-104592347D01*
X183267264Y-104571821D01*
X183310393Y-104530833D01*
X183354049Y-104476942D01*
X183407067Y-104399403D01*
X183438811Y-104347580D01*
X183517389Y-104216930D01*
X183576787Y-104128789D01*
X183619558Y-104079754D01*
X183648258Y-104066415D01*
X183649501Y-104066653D01*
X183676891Y-104050617D01*
X183721688Y-104002248D01*
X183772925Y-103933797D01*
X183825051Y-103861391D01*
X183868264Y-103807852D01*
X183892315Y-103785413D01*
X183923889Y-103763406D01*
X183975082Y-103718669D01*
X183997025Y-103697837D01*
X184050931Y-103648136D01*
X184090892Y-103616062D01*
X184099444Y-103611138D01*
X184128175Y-103589409D01*
X184181135Y-103540882D01*
X184247798Y-103475809D01*
X184317634Y-103404442D01*
X184374357Y-103343459D01*
X184422621Y-103298805D01*
X184459082Y-103276276D01*
X184495655Y-103254871D01*
X184558617Y-103210471D01*
X184635037Y-103152244D01*
X184643206Y-103145787D01*
X184727353Y-103079911D01*
X184805819Y-103019951D01*
X184861707Y-102978818D01*
X184861977Y-102978628D01*
X184907373Y-102938735D01*
X184924764Y-102906998D01*
X184924308Y-102904476D01*
X184938724Y-102884710D01*
X184971328Y-102879120D01*
X185032466Y-102854540D01*
X185058387Y-102821949D01*
X185098215Y-102779567D01*
X185133739Y-102767510D01*
X185177467Y-102751988D01*
X185236154Y-102710611D01*
X185259619Y-102689400D01*
X185313762Y-102642331D01*
X185354748Y-102616531D01*
X185364737Y-102614699D01*
X185396404Y-102604402D01*
X185455525Y-102572210D01*
X185515085Y-102534438D01*
X185590816Y-102486093D01*
X185654707Y-102449629D01*
X185685220Y-102435796D01*
X185718175Y-102415454D01*
X185721167Y-102403033D01*
X185738136Y-102382884D01*
X185788452Y-102357714D01*
X185804482Y-102351730D01*
X185876004Y-102320691D01*
X185966591Y-102273565D01*
X186031830Y-102235562D01*
X186105342Y-102192971D01*
X186161240Y-102165516D01*
X186185740Y-102159173D01*
X186214918Y-102150903D01*
X186263991Y-102119721D01*
X186269300Y-102115695D01*
X186345288Y-102075159D01*
X186390104Y-102073209D01*
X186446310Y-102065574D01*
X186486398Y-102028627D01*
X186532658Y-101988754D01*
X186607294Y-101942360D01*
X186668544Y-101911487D01*
X186760496Y-101869656D01*
X186847011Y-101830135D01*
X186889320Y-101810708D01*
X187058076Y-101733993D01*
X187186455Y-101678191D01*
X187279379Y-101641217D01*
X187327432Y-101624981D01*
X187383445Y-101600392D01*
X187411628Y-101572879D01*
X187411820Y-101572153D01*
X187437840Y-101549710D01*
X187499335Y-101519393D01*
X187583063Y-101487718D01*
X187584159Y-101487353D01*
X187688216Y-101447594D01*
X187742855Y-101414066D01*
X187751640Y-101398179D01*
X187761599Y-101375155D01*
X187784905Y-101386771D01*
X187825759Y-101393070D01*
X187883504Y-101363309D01*
X187951554Y-101331202D01*
X187987746Y-101335442D01*
X188021641Y-101338753D01*
X188034269Y-101312350D01*
X188055858Y-101281872D01*
X188084577Y-101285872D01*
X188131505Y-101285671D01*
X188201587Y-101267420D01*
X188230683Y-101256254D01*
X188396264Y-101187193D01*
X188560700Y-101120632D01*
X188738007Y-101051031D01*
X188942202Y-100972845D01*
X189058664Y-100928838D01*
X189195820Y-100877115D01*
X189320888Y-100829820D01*
X189424094Y-100790659D01*
X189495661Y-100763338D01*
X189520052Y-100753893D01*
X189588932Y-100726764D01*
X189519476Y-100535721D01*
X189480095Y-100438066D01*
X189442830Y-100364356D01*
X189413677Y-100326270D01*
X189411191Y-100324740D01*
X189366761Y-100318129D01*
X189282231Y-100319448D01*
X189167558Y-100327976D01*
X189032702Y-100342997D01*
X188903098Y-100361351D01*
X188840297Y-100365553D01*
X188800926Y-100358116D01*
X188799777Y-100357263D01*
X188764041Y-100352960D01*
X188704275Y-100365293D01*
X188697886Y-100367347D01*
X188636197Y-100380656D01*
X188595392Y-100376666D01*
X188593463Y-100375316D01*
X188552632Y-100366273D01*
X188524611Y-100371451D01*
X188471296Y-100381228D01*
X188393053Y-100387324D01*
X188364423Y-100388092D01*
X188271809Y-100389686D01*
X188160333Y-100392271D01*
X188097818Y-100393999D01*
X188013700Y-100394056D01*
X187951077Y-100389565D01*
X187927205Y-100383291D01*
X187890784Y-100373904D01*
X187836927Y-100373582D01*
X187761025Y-100375125D01*
X187674286Y-100371360D01*
X187668474Y-100370883D01*
X187574674Y-100362843D01*
X187482855Y-100354941D01*
X187481538Y-100354827D01*
X187413284Y-100351985D01*
X187366370Y-100355392D01*
X187363307Y-100356238D01*
X187320914Y-100359048D01*
X187242740Y-100355164D01*
X187143189Y-100345775D01*
X187036665Y-100332072D01*
X186997729Y-100326041D01*
X186916057Y-100313423D01*
X186821023Y-100299682D01*
X186800645Y-100296868D01*
X186623464Y-100271908D01*
X186489944Y-100251143D01*
X186393237Y-100233318D01*
X186326495Y-100217184D01*
X186285797Y-100202813D01*
X186219709Y-100186803D01*
X186171672Y-100190503D01*
X186117330Y-100194002D01*
X186040710Y-100182996D01*
X186013528Y-100176189D01*
X185942622Y-100159018D01*
X185892427Y-100152002D01*
X185882503Y-100152855D01*
X185847057Y-100148643D01*
X185784672Y-100129253D01*
X185758774Y-100119333D01*
X185676479Y-100090613D01*
X185600690Y-100071059D01*
X185587112Y-100068791D01*
X185509532Y-100053130D01*
X185409826Y-100026810D01*
X185313471Y-99996895D01*
X185268696Y-99980493D01*
X185211961Y-99963670D01*
X185165368Y-99954173D01*
X185105935Y-99939764D01*
X185021952Y-99913834D01*
X184966090Y-99894436D01*
X184874955Y-99864269D01*
X184790525Y-99841262D01*
X184753181Y-99833825D01*
X184689910Y-99815042D01*
X184650899Y-99787773D01*
X184610440Y-99759727D01*
X184544067Y-99736272D01*
X184532039Y-99733559D01*
X184475508Y-99715392D01*
X184389744Y-99679660D01*
X184281903Y-99630124D01*
X184159145Y-99570548D01*
X184028630Y-99504694D01*
X183897518Y-99436324D01*
X183772967Y-99369202D01*
X183662136Y-99307089D01*
X183572186Y-99253748D01*
X183510275Y-99212941D01*
X183483563Y-99188431D01*
X183485442Y-99183529D01*
X183479699Y-99169018D01*
X183436861Y-99140122D01*
X183366344Y-99102882D01*
X183341199Y-99090986D01*
X183288437Y-99060652D01*
X183262101Y-99034264D01*
X183235846Y-99004616D01*
X183197584Y-98978433D01*
X183138303Y-98937286D01*
X183058379Y-98871470D01*
X182966520Y-98789404D01*
X182871441Y-98699503D01*
X182781857Y-98610185D01*
X182706480Y-98529868D01*
X182654020Y-98466968D01*
X182634180Y-98434172D01*
X182606496Y-98386953D01*
X182586719Y-98364545D01*
X182542525Y-98313394D01*
X182487314Y-98238520D01*
X182432413Y-98156649D01*
X182389146Y-98084501D01*
X182370696Y-98045552D01*
X182347081Y-97997745D01*
X182303731Y-97926405D01*
X182261809Y-97864008D01*
X182170366Y-97733816D01*
X182016618Y-97789714D01*
X181832522Y-97858303D01*
X181637489Y-97933889D01*
X181438707Y-98013420D01*
X181243368Y-98093842D01*
X181058661Y-98172104D01*
X180891776Y-98245152D01*
X180749903Y-98309935D01*
X180640233Y-98363398D01*
X180569955Y-98402489D01*
X180563814Y-98406543D01*
X180500789Y-98442694D01*
X180426631Y-98476970D01*
X180337007Y-98516479D01*
X180224022Y-98571307D01*
X180099156Y-98635307D01*
X179973890Y-98702334D01*
X179859703Y-98766239D01*
X179768076Y-98820876D01*
X179710491Y-98860097D01*
X179709302Y-98861060D01*
X179660196Y-98891914D01*
X179627834Y-98899341D01*
X179590780Y-98908759D01*
X179536488Y-98940203D01*
X179531173Y-98944011D01*
X179470542Y-98986083D01*
X179388162Y-99040576D01*
X179328553Y-99078779D01*
X179245843Y-99131824D01*
X179139503Y-99201205D01*
X179028009Y-99274839D01*
X178987783Y-99301658D01*
X178892686Y-99364325D01*
X178808622Y-99418046D01*
X178747723Y-99455147D01*
X178728395Y-99465739D01*
X178674168Y-99505135D01*
X178650703Y-99532979D01*
X178613159Y-99567062D01*
X178546367Y-99607406D01*
X178501414Y-99629048D01*
X178425189Y-99669360D01*
X178367120Y-99712534D01*
X178349417Y-99733385D01*
X178310740Y-99772779D01*
X178280591Y-99782128D01*
X178238975Y-99801219D01*
X178223533Y-99824630D01*
X178191077Y-99868619D01*
X178170542Y-99880820D01*
X178133526Y-99904582D01*
X178076633Y-99952927D01*
X178034897Y-99992864D01*
X177971440Y-100051476D01*
X177916022Y-100094195D01*
X177891820Y-100107381D01*
X177853986Y-100127676D01*
X177794505Y-100171771D01*
X177709903Y-100242587D01*
X177596705Y-100343049D01*
X177451435Y-100476080D01*
X177430736Y-100495248D01*
X177359423Y-100556166D01*
X177289160Y-100608257D01*
X177267314Y-100622060D01*
X177211647Y-100664528D01*
X177178752Y-100707682D01*
X177152310Y-100749267D01*
X177137036Y-100759992D01*
X177108356Y-100782668D01*
X177060000Y-100832656D01*
X177019068Y-100879540D01*
X176963827Y-100941817D01*
X176919170Y-100985841D01*
X176900264Y-100999367D01*
X176870996Y-101024182D01*
X176829094Y-101075718D01*
X176815963Y-101094331D01*
X176769976Y-101152192D01*
X176728572Y-101188989D01*
X176720059Y-101193155D01*
X176680120Y-101225501D01*
X176665130Y-101251581D01*
X176635817Y-101295259D01*
X176616903Y-101307777D01*
X176582861Y-101337842D01*
X176568860Y-101363499D01*
X176540795Y-101408109D01*
X176490181Y-101468606D01*
X176462634Y-101497403D01*
X176404371Y-101562015D01*
X176360031Y-101622605D01*
X176349126Y-101642647D01*
X176314864Y-101692788D01*
X176286017Y-101713660D01*
X176253486Y-101740283D01*
X176203112Y-101797434D01*
X176145176Y-101873335D01*
X176138806Y-101882290D01*
X176071088Y-101976432D01*
X175987485Y-102090148D01*
X175903187Y-102202828D01*
X175880587Y-102232623D01*
X175809279Y-102330155D01*
X175745069Y-102424890D01*
X175698029Y-102501696D01*
X175685374Y-102525892D01*
X175650977Y-102588392D01*
X175620488Y-102627324D01*
X175612941Y-102632185D01*
X175591098Y-102657398D01*
X175553597Y-102718170D01*
X175506542Y-102804159D01*
X175475382Y-102865325D01*
X175423468Y-102962810D01*
X175374530Y-103042151D01*
X175335585Y-103092554D01*
X175320009Y-103104390D01*
X175285603Y-103140796D01*
X175274779Y-103199741D01*
X175268831Y-103257275D01*
X175256003Y-103286218D01*
X175255207Y-103286558D01*
X175232661Y-103309684D01*
X175193035Y-103363380D01*
X175155164Y-103420219D01*
X175109325Y-103505827D01*
X175089516Y-103572603D01*
X175093973Y-103614110D01*
X174390309Y-103848187D01*
X174429355Y-103730427D01*
X174473170Y-103606080D01*
X174514542Y-103498191D01*
X174557463Y-103396005D01*
X174605927Y-103288773D01*
X174621244Y-103255930D01*
X174675162Y-103139286D01*
X174723635Y-103031494D01*
X174760976Y-102945371D01*
X174780207Y-102897431D01*
X174810691Y-102830891D01*
X174858760Y-102744380D01*
X174901122Y-102676514D01*
X174961948Y-102579591D01*
X175029734Y-102464282D01*
X175082660Y-102368743D01*
X175145178Y-102259611D01*
X175217428Y-102145511D01*
X175275323Y-102062750D01*
X175342531Y-101970812D01*
X175409350Y-101875421D01*
X175448049Y-101817525D01*
X175568359Y-101644897D01*
X175720902Y-101447911D01*
X175898765Y-101234582D01*
X176095038Y-101012932D01*
X176302808Y-100790978D01*
X176515165Y-100576742D01*
X176529634Y-100562620D01*
X176730375Y-100367265D01*
X176899865Y-100202958D01*
X177043209Y-100065265D01*
X177165508Y-99949751D01*
X177271868Y-99851983D01*
X177367393Y-99767527D01*
X177457187Y-99691948D01*
X177546351Y-99620812D01*
X177639992Y-99549685D01*
X177743211Y-99474133D01*
X177861114Y-99389722D01*
X177962540Y-99317725D01*
X178207544Y-99145030D01*
X178418699Y-98998608D01*
X178602709Y-98874135D01*
X178766275Y-98767282D01*
X178916098Y-98673723D01*
X179058881Y-98589133D01*
X179201324Y-98509183D01*
X179284705Y-98464152D01*
X179424772Y-98388814D01*
X179560956Y-98314450D01*
X179681893Y-98247345D01*
X179776220Y-98193781D01*
X179816024Y-98170330D01*
X179898118Y-98123679D01*
X180010660Y-98063801D01*
X180138018Y-97998852D01*
X180249412Y-97944230D01*
X180375540Y-97883292D01*
X180499532Y-97822650D01*
X180606290Y-97769729D01*
X180675001Y-97734920D01*
X180774030Y-97683769D01*
X180889279Y-97624329D01*
X180972024Y-97581706D01*
X181063822Y-97537893D01*
X181193525Y-97480704D01*
X181351286Y-97414102D01*
X181527262Y-97342047D01*
X181711605Y-97268504D01*
X181894470Y-97197432D01*
X182066012Y-97132795D01*
X182216384Y-97078553D01*
X182258674Y-97063952D01*
X182511154Y-96978007D01*
X182584575Y-97225435D01*
G37*
X182584575Y-97225435D02*
X182611687Y-97314839D01*
X182636643Y-97388500D01*
X182664136Y-97455416D01*
X182698864Y-97524582D01*
X182745522Y-97604998D01*
X182808802Y-97705660D01*
X182893401Y-97835563D01*
X182939806Y-97906154D01*
X183087036Y-98101798D01*
X183274353Y-98305050D01*
X183493553Y-98507745D01*
X183736431Y-98701715D01*
X183746345Y-98709045D01*
X183863796Y-98790244D01*
X184008418Y-98881952D01*
X184169465Y-98978139D01*
X184336191Y-99072774D01*
X184497850Y-99159826D01*
X184643697Y-99233264D01*
X184762984Y-99287058D01*
X184805063Y-99303223D01*
X184917663Y-99345140D01*
X185037441Y-99393067D01*
X185104112Y-99421533D01*
X185301638Y-99502432D01*
X185496147Y-99566582D01*
X185708960Y-99620563D01*
X185834944Y-99646999D01*
X185963498Y-99673382D01*
X186086421Y-99700174D01*
X186187626Y-99723789D01*
X186239740Y-99737295D01*
X186312068Y-99753519D01*
X186425042Y-99773710D01*
X186568784Y-99796535D01*
X186733415Y-99820658D01*
X186909059Y-99844745D01*
X187085839Y-99867462D01*
X187253877Y-99887477D01*
X187403294Y-99903452D01*
X187524215Y-99914055D01*
X187568950Y-99916832D01*
X187676159Y-99923110D01*
X187771991Y-99930493D01*
X187838400Y-99937559D01*
X187845929Y-99938702D01*
X187965161Y-99951203D01*
X188130146Y-99957284D01*
X188336248Y-99956961D01*
X188578831Y-99950256D01*
X188853257Y-99937186D01*
X188901850Y-99934386D01*
X188964442Y-99930486D01*
X189026298Y-99926029D01*
X189096269Y-99920206D01*
X189183212Y-99912209D01*
X189295979Y-99901232D01*
X189443423Y-99886466D01*
X189590323Y-99871582D01*
X189677535Y-99862880D01*
X189746203Y-99860163D01*
X189800714Y-99868667D01*
X189845455Y-99893629D01*
X189884810Y-99940285D01*
X189923169Y-100013870D01*
X189964916Y-100119622D01*
X190014439Y-100262774D01*
X190076124Y-100448566D01*
X190077715Y-100453366D01*
X190135875Y-100629994D01*
X190179168Y-100765244D01*
X190209276Y-100865772D01*
X190227880Y-100938230D01*
X190236662Y-100989271D01*
X190237303Y-101025549D01*
X190231484Y-101053715D01*
X190230314Y-101057204D01*
X190205949Y-101127275D01*
X189964940Y-101162947D01*
X189805168Y-101194471D01*
X189605770Y-101246830D01*
X189372485Y-101318006D01*
X189111053Y-101405980D01*
X188827216Y-101508728D01*
X188526712Y-101624234D01*
X188215284Y-101750477D01*
X187898671Y-101885435D01*
X187845460Y-101908785D01*
X187535907Y-102046139D01*
X187266035Y-102168303D01*
X187028426Y-102279135D01*
X186815670Y-102382496D01*
X186620353Y-102482247D01*
X186435059Y-102582245D01*
X186252375Y-102686352D01*
X186064889Y-102798428D01*
X185865185Y-102922331D01*
X185712086Y-103019490D01*
X185577404Y-103105051D01*
X185444395Y-103188638D01*
X185324571Y-103263083D01*
X185229439Y-103321215D01*
X185191011Y-103344105D01*
X185077588Y-103414384D01*
X184958428Y-103494568D01*
X184848133Y-103574323D01*
X184761310Y-103643319D01*
X184735963Y-103666029D01*
X184703718Y-103696180D01*
X184641704Y-103753803D01*
X184557464Y-103831904D01*
X184458543Y-103923484D01*
X184403430Y-103974458D01*
X184268731Y-104103467D01*
X184147836Y-104230223D01*
X184035618Y-104361825D01*
X183926951Y-104505374D01*
X183816706Y-104667968D01*
X183699758Y-104856708D01*
X183570978Y-105078694D01*
X183452715Y-105290944D01*
X183414910Y-105354645D01*
X183385238Y-105395798D01*
X183376502Y-105403295D01*
X183345309Y-105395899D01*
X183287248Y-105370387D01*
X183258353Y-105355600D01*
X183171958Y-105300887D01*
X183087910Y-105234742D01*
X183074739Y-105222609D01*
X183012548Y-105164488D01*
X182958238Y-105115849D01*
X182945838Y-105105319D01*
X182814660Y-104999692D01*
X182706825Y-104918799D01*
X182628602Y-104867306D01*
X182618636Y-104861778D01*
X182540902Y-104824165D01*
X182436719Y-104779008D01*
X182315605Y-104729841D01*
X182187082Y-104680198D01*
X182060669Y-104633614D01*
X181945885Y-104593621D01*
X181852252Y-104563754D01*
X181789288Y-104547547D01*
X181768579Y-104546217D01*
X181740503Y-104543553D01*
X181675052Y-104533419D01*
X181584765Y-104517801D01*
X181555465Y-104512482D01*
X181251408Y-104478690D01*
X180944033Y-104489307D01*
X180628638Y-104545001D01*
X180300523Y-104646443D01*
X180125266Y-104716658D01*
X179990277Y-104778022D01*
X179858530Y-104843806D01*
X179745119Y-104906150D01*
X179670007Y-104953675D01*
X179560333Y-105040156D01*
X179432977Y-105153607D01*
X179298801Y-105283060D01*
X179168673Y-105417551D01*
X179053458Y-105546110D01*
X178964021Y-105657770D01*
X178943145Y-105687360D01*
X178885717Y-105765129D01*
X178833209Y-105823634D01*
X178795796Y-105851733D01*
X178792198Y-105852627D01*
X178751639Y-105835730D01*
X178699065Y-105774126D01*
X178667076Y-105725063D01*
X178607119Y-105629389D01*
X178543609Y-105530856D01*
X178511551Y-105482459D01*
X178453583Y-105391867D01*
X178392399Y-105289638D01*
X178369233Y-105248733D01*
X178265432Y-105090151D01*
X178122390Y-104916072D01*
X177946504Y-104733313D01*
X177744170Y-104548691D01*
X177603687Y-104432655D01*
X177436630Y-104306314D01*
X177286103Y-104208861D01*
X177134937Y-104131174D01*
X176965962Y-104064128D01*
X176819838Y-104016149D01*
X176607389Y-103955630D01*
X176428625Y-103916766D01*
X176272237Y-103897624D01*
X176126917Y-103896276D01*
X176120046Y-103896624D01*
X176011872Y-103900251D01*
X175900087Y-103900804D01*
X175859712Y-103899956D01*
X175804044Y-103901671D01*
X175737282Y-103911698D01*
X175651378Y-103932088D01*
X175538283Y-103964890D01*
X175389946Y-104012155D01*
X175292117Y-104044493D01*
X175123244Y-104101645D01*
X174990959Y-104149121D01*
X174883276Y-104192111D01*
X174788207Y-104235805D01*
X174693764Y-104285395D01*
X174587959Y-104346071D01*
X174566775Y-104358576D01*
X174456791Y-104423077D01*
X174359420Y-104479066D01*
X174284706Y-104520842D01*
X174242693Y-104542706D01*
X174240968Y-104543457D01*
X174194054Y-104547813D01*
X174174387Y-104512813D01*
X174182470Y-104442295D01*
X174215364Y-104348118D01*
X174257961Y-104241515D01*
X174299500Y-104128029D01*
X174318430Y-104071494D01*
X174379105Y-103881981D01*
X174390309Y-103848187D01*
X175093973Y-103614110D01*
X175120935Y-103623912D01*
X175168636Y-103595575D01*
X175195970Y-103569121D01*
X175262534Y-103522179D01*
X175367101Y-103475770D01*
X175496949Y-103433190D01*
X175639357Y-103397735D01*
X175781602Y-103372702D01*
X175910965Y-103361388D01*
X175989128Y-103363600D01*
X176043882Y-103363328D01*
X176127910Y-103356821D01*
X176198302Y-103348648D01*
X176291056Y-103339596D01*
X176370990Y-103337545D01*
X176409939Y-103341100D01*
X176463699Y-103349430D01*
X176549847Y-103358947D01*
X176650072Y-103367637D01*
X176653544Y-103367896D01*
X176748054Y-103377424D01*
X176823382Y-103389620D01*
X176864456Y-103401988D01*
X176866006Y-103403063D01*
X176903524Y-103421176D01*
X176973336Y-103446197D01*
X177040706Y-103466933D01*
X177226887Y-103530914D01*
X177422958Y-103615871D01*
X177600554Y-103709359D01*
X177620517Y-103721314D01*
X177694510Y-103768733D01*
X177785859Y-103830659D01*
X177884386Y-103899764D01*
X177979913Y-103968716D01*
X178062263Y-104030186D01*
X178121259Y-104076846D01*
X178145408Y-104099342D01*
X178176402Y-104128252D01*
X178232871Y-104172829D01*
X178264617Y-104196173D01*
X178325531Y-104244391D01*
X178366363Y-104285067D01*
X178374592Y-104298213D01*
X178397320Y-104332137D01*
X178444745Y-104386454D01*
X178482689Y-104425540D01*
X178548419Y-104495937D01*
X178627063Y-104587776D01*
X178701751Y-104681352D01*
X178702716Y-104682616D01*
X178794603Y-104801109D01*
X178862385Y-104882076D01*
X178911190Y-104929536D01*
X178946151Y-104947508D01*
X178972395Y-104940010D01*
X178994833Y-104911434D01*
X179024278Y-104880501D01*
X179078925Y-104835477D01*
X179103150Y-104817455D01*
X179163383Y-104767638D01*
X179204366Y-104722170D01*
X179211196Y-104709936D01*
X179245685Y-104671903D01*
X179295130Y-104646274D01*
X179346818Y-104621307D01*
X179369302Y-104597307D01*
X179392954Y-104568696D01*
X179448213Y-104522181D01*
X179523421Y-104466491D01*
X179606924Y-104410352D01*
X179670553Y-104371732D01*
X179928065Y-104241533D01*
X180203901Y-104136818D01*
X180353710Y-104091774D01*
X180580698Y-104031619D01*
X180771126Y-103988919D01*
X180935648Y-103962387D01*
X181084921Y-103950733D01*
X181229598Y-103952672D01*
X181380336Y-103966914D01*
X181383430Y-103967310D01*
X181465380Y-103975837D01*
X181527253Y-103978708D01*
X181548881Y-103976856D01*
X181593450Y-103975581D01*
X181673471Y-103985627D01*
X181778452Y-104004504D01*
X181897894Y-104029723D01*
X182021301Y-104058792D01*
X182138179Y-104089224D01*
X182238032Y-104118525D01*
X182310364Y-104144209D01*
X182344679Y-104163784D01*
X182345863Y-104165926D01*
X182373664Y-104183271D01*
X182404907Y-104186850D01*
X182454607Y-104198352D01*
X182536758Y-104230005D01*
X182639973Y-104276300D01*
X182752861Y-104331727D01*
X182864033Y-104390776D01*
X182962098Y-104447940D01*
X183012086Y-104480548D01*
X183123375Y-104552016D01*
X183201168Y-104588722D01*
X183239289Y-104592347D01*
X183267264Y-104571821D01*
X183310393Y-104530833D01*
X183354049Y-104476942D01*
X183407067Y-104399403D01*
X183438811Y-104347580D01*
X183517389Y-104216930D01*
X183576787Y-104128789D01*
X183619558Y-104079754D01*
X183648258Y-104066415D01*
X183649501Y-104066653D01*
X183676891Y-104050617D01*
X183721688Y-104002248D01*
X183772925Y-103933797D01*
X183825051Y-103861391D01*
X183868264Y-103807852D01*
X183892315Y-103785413D01*
X183923889Y-103763406D01*
X183975082Y-103718669D01*
X183997025Y-103697837D01*
X184050931Y-103648136D01*
X184090892Y-103616062D01*
X184099444Y-103611138D01*
X184128175Y-103589409D01*
X184181135Y-103540882D01*
X184247798Y-103475809D01*
X184317634Y-103404442D01*
X184374357Y-103343459D01*
X184422621Y-103298805D01*
X184459082Y-103276276D01*
X184495655Y-103254871D01*
X184558617Y-103210471D01*
X184635037Y-103152244D01*
X184643206Y-103145787D01*
X184727353Y-103079911D01*
X184805819Y-103019951D01*
X184861707Y-102978818D01*
X184861977Y-102978628D01*
X184907373Y-102938735D01*
X184924764Y-102906998D01*
X184924308Y-102904476D01*
X184938724Y-102884710D01*
X184971328Y-102879120D01*
X185032466Y-102854540D01*
X185058387Y-102821949D01*
X185098215Y-102779567D01*
X185133739Y-102767510D01*
X185177467Y-102751988D01*
X185236154Y-102710611D01*
X185259619Y-102689400D01*
X185313762Y-102642331D01*
X185354748Y-102616531D01*
X185364737Y-102614699D01*
X185396404Y-102604402D01*
X185455525Y-102572210D01*
X185515085Y-102534438D01*
X185590816Y-102486093D01*
X185654707Y-102449629D01*
X185685220Y-102435796D01*
X185718175Y-102415454D01*
X185721167Y-102403033D01*
X185738136Y-102382884D01*
X185788452Y-102357714D01*
X185804482Y-102351730D01*
X185876004Y-102320691D01*
X185966591Y-102273565D01*
X186031830Y-102235562D01*
X186105342Y-102192971D01*
X186161240Y-102165516D01*
X186185740Y-102159173D01*
X186214918Y-102150903D01*
X186263991Y-102119721D01*
X186269300Y-102115695D01*
X186345288Y-102075159D01*
X186390104Y-102073209D01*
X186446310Y-102065574D01*
X186486398Y-102028627D01*
X186532658Y-101988754D01*
X186607294Y-101942360D01*
X186668544Y-101911487D01*
X186760496Y-101869656D01*
X186847011Y-101830135D01*
X186889320Y-101810708D01*
X187058076Y-101733993D01*
X187186455Y-101678191D01*
X187279379Y-101641217D01*
X187327432Y-101624981D01*
X187383445Y-101600392D01*
X187411628Y-101572879D01*
X187411820Y-101572153D01*
X187437840Y-101549710D01*
X187499335Y-101519393D01*
X187583063Y-101487718D01*
X187584159Y-101487353D01*
X187688216Y-101447594D01*
X187742855Y-101414066D01*
X187751640Y-101398179D01*
X187761599Y-101375155D01*
X187784905Y-101386771D01*
X187825759Y-101393070D01*
X187883504Y-101363309D01*
X187951554Y-101331202D01*
X187987746Y-101335442D01*
X188021641Y-101338753D01*
X188034269Y-101312350D01*
X188055858Y-101281872D01*
X188084577Y-101285872D01*
X188131505Y-101285671D01*
X188201587Y-101267420D01*
X188230683Y-101256254D01*
X188396264Y-101187193D01*
X188560700Y-101120632D01*
X188738007Y-101051031D01*
X188942202Y-100972845D01*
X189058664Y-100928838D01*
X189195820Y-100877115D01*
X189320888Y-100829820D01*
X189424094Y-100790659D01*
X189495661Y-100763338D01*
X189520052Y-100753893D01*
X189588932Y-100726764D01*
X189519476Y-100535721D01*
X189480095Y-100438066D01*
X189442830Y-100364356D01*
X189413677Y-100326270D01*
X189411191Y-100324740D01*
X189366761Y-100318129D01*
X189282231Y-100319448D01*
X189167558Y-100327976D01*
X189032702Y-100342997D01*
X188903098Y-100361351D01*
X188840297Y-100365553D01*
X188800926Y-100358116D01*
X188799777Y-100357263D01*
X188764041Y-100352960D01*
X188704275Y-100365293D01*
X188697886Y-100367347D01*
X188636197Y-100380656D01*
X188595392Y-100376666D01*
X188593463Y-100375316D01*
X188552632Y-100366273D01*
X188524611Y-100371451D01*
X188471296Y-100381228D01*
X188393053Y-100387324D01*
X188364423Y-100388092D01*
X188271809Y-100389686D01*
X188160333Y-100392271D01*
X188097818Y-100393999D01*
X188013700Y-100394056D01*
X187951077Y-100389565D01*
X187927205Y-100383291D01*
X187890784Y-100373904D01*
X187836927Y-100373582D01*
X187761025Y-100375125D01*
X187674286Y-100371360D01*
X187668474Y-100370883D01*
X187574674Y-100362843D01*
X187482855Y-100354941D01*
X187481538Y-100354827D01*
X187413284Y-100351985D01*
X187366370Y-100355392D01*
X187363307Y-100356238D01*
X187320914Y-100359048D01*
X187242740Y-100355164D01*
X187143189Y-100345775D01*
X187036665Y-100332072D01*
X186997729Y-100326041D01*
X186916057Y-100313423D01*
X186821023Y-100299682D01*
X186800645Y-100296868D01*
X186623464Y-100271908D01*
X186489944Y-100251143D01*
X186393237Y-100233318D01*
X186326495Y-100217184D01*
X186285797Y-100202813D01*
X186219709Y-100186803D01*
X186171672Y-100190503D01*
X186117330Y-100194002D01*
X186040710Y-100182996D01*
X186013528Y-100176189D01*
X185942622Y-100159018D01*
X185892427Y-100152002D01*
X185882503Y-100152855D01*
X185847057Y-100148643D01*
X185784672Y-100129253D01*
X185758774Y-100119333D01*
X185676479Y-100090613D01*
X185600690Y-100071059D01*
X185587112Y-100068791D01*
X185509532Y-100053130D01*
X185409826Y-100026810D01*
X185313471Y-99996895D01*
X185268696Y-99980493D01*
X185211961Y-99963670D01*
X185165368Y-99954173D01*
X185105935Y-99939764D01*
X185021952Y-99913834D01*
X184966090Y-99894436D01*
X184874955Y-99864269D01*
X184790525Y-99841262D01*
X184753181Y-99833825D01*
X184689910Y-99815042D01*
X184650899Y-99787773D01*
X184610440Y-99759727D01*
X184544067Y-99736272D01*
X184532039Y-99733559D01*
X184475508Y-99715392D01*
X184389744Y-99679660D01*
X184281903Y-99630124D01*
X184159145Y-99570548D01*
X184028630Y-99504694D01*
X183897518Y-99436324D01*
X183772967Y-99369202D01*
X183662136Y-99307089D01*
X183572186Y-99253748D01*
X183510275Y-99212941D01*
X183483563Y-99188431D01*
X183485442Y-99183529D01*
X183479699Y-99169018D01*
X183436861Y-99140122D01*
X183366344Y-99102882D01*
X183341199Y-99090986D01*
X183288437Y-99060652D01*
X183262101Y-99034264D01*
X183235846Y-99004616D01*
X183197584Y-98978433D01*
X183138303Y-98937286D01*
X183058379Y-98871470D01*
X182966520Y-98789404D01*
X182871441Y-98699503D01*
X182781857Y-98610185D01*
X182706480Y-98529868D01*
X182654020Y-98466968D01*
X182634180Y-98434172D01*
X182606496Y-98386953D01*
X182586719Y-98364545D01*
X182542525Y-98313394D01*
X182487314Y-98238520D01*
X182432413Y-98156649D01*
X182389146Y-98084501D01*
X182370696Y-98045552D01*
X182347081Y-97997745D01*
X182303731Y-97926405D01*
X182261809Y-97864008D01*
X182170366Y-97733816D01*
X182016618Y-97789714D01*
X181832522Y-97858303D01*
X181637489Y-97933889D01*
X181438707Y-98013420D01*
X181243368Y-98093842D01*
X181058661Y-98172104D01*
X180891776Y-98245152D01*
X180749903Y-98309935D01*
X180640233Y-98363398D01*
X180569955Y-98402489D01*
X180563814Y-98406543D01*
X180500789Y-98442694D01*
X180426631Y-98476970D01*
X180337007Y-98516479D01*
X180224022Y-98571307D01*
X180099156Y-98635307D01*
X179973890Y-98702334D01*
X179859703Y-98766239D01*
X179768076Y-98820876D01*
X179710491Y-98860097D01*
X179709302Y-98861060D01*
X179660196Y-98891914D01*
X179627834Y-98899341D01*
X179590780Y-98908759D01*
X179536488Y-98940203D01*
X179531173Y-98944011D01*
X179470542Y-98986083D01*
X179388162Y-99040576D01*
X179328553Y-99078779D01*
X179245843Y-99131824D01*
X179139503Y-99201205D01*
X179028009Y-99274839D01*
X178987783Y-99301658D01*
X178892686Y-99364325D01*
X178808622Y-99418046D01*
X178747723Y-99455147D01*
X178728395Y-99465739D01*
X178674168Y-99505135D01*
X178650703Y-99532979D01*
X178613159Y-99567062D01*
X178546367Y-99607406D01*
X178501414Y-99629048D01*
X178425189Y-99669360D01*
X178367120Y-99712534D01*
X178349417Y-99733385D01*
X178310740Y-99772779D01*
X178280591Y-99782128D01*
X178238975Y-99801219D01*
X178223533Y-99824630D01*
X178191077Y-99868619D01*
X178170542Y-99880820D01*
X178133526Y-99904582D01*
X178076633Y-99952927D01*
X178034897Y-99992864D01*
X177971440Y-100051476D01*
X177916022Y-100094195D01*
X177891820Y-100107381D01*
X177853986Y-100127676D01*
X177794505Y-100171771D01*
X177709903Y-100242587D01*
X177596705Y-100343049D01*
X177451435Y-100476080D01*
X177430736Y-100495248D01*
X177359423Y-100556166D01*
X177289160Y-100608257D01*
X177267314Y-100622060D01*
X177211647Y-100664528D01*
X177178752Y-100707682D01*
X177152310Y-100749267D01*
X177137036Y-100759992D01*
X177108356Y-100782668D01*
X177060000Y-100832656D01*
X177019068Y-100879540D01*
X176963827Y-100941817D01*
X176919170Y-100985841D01*
X176900264Y-100999367D01*
X176870996Y-101024182D01*
X176829094Y-101075718D01*
X176815963Y-101094331D01*
X176769976Y-101152192D01*
X176728572Y-101188989D01*
X176720059Y-101193155D01*
X176680120Y-101225501D01*
X176665130Y-101251581D01*
X176635817Y-101295259D01*
X176616903Y-101307777D01*
X176582861Y-101337842D01*
X176568860Y-101363499D01*
X176540795Y-101408109D01*
X176490181Y-101468606D01*
X176462634Y-101497403D01*
X176404371Y-101562015D01*
X176360031Y-101622605D01*
X176349126Y-101642647D01*
X176314864Y-101692788D01*
X176286017Y-101713660D01*
X176253486Y-101740283D01*
X176203112Y-101797434D01*
X176145176Y-101873335D01*
X176138806Y-101882290D01*
X176071088Y-101976432D01*
X175987485Y-102090148D01*
X175903187Y-102202828D01*
X175880587Y-102232623D01*
X175809279Y-102330155D01*
X175745069Y-102424890D01*
X175698029Y-102501696D01*
X175685374Y-102525892D01*
X175650977Y-102588392D01*
X175620488Y-102627324D01*
X175612941Y-102632185D01*
X175591098Y-102657398D01*
X175553597Y-102718170D01*
X175506542Y-102804159D01*
X175475382Y-102865325D01*
X175423468Y-102962810D01*
X175374530Y-103042151D01*
X175335585Y-103092554D01*
X175320009Y-103104390D01*
X175285603Y-103140796D01*
X175274779Y-103199741D01*
X175268831Y-103257275D01*
X175256003Y-103286218D01*
X175255207Y-103286558D01*
X175232661Y-103309684D01*
X175193035Y-103363380D01*
X175155164Y-103420219D01*
X175109325Y-103505827D01*
X175089516Y-103572603D01*
X175093973Y-103614110D01*
X174390309Y-103848187D01*
X174429355Y-103730427D01*
X174473170Y-103606080D01*
X174514542Y-103498191D01*
X174557463Y-103396005D01*
X174605927Y-103288773D01*
X174621244Y-103255930D01*
X174675162Y-103139286D01*
X174723635Y-103031494D01*
X174760976Y-102945371D01*
X174780207Y-102897431D01*
X174810691Y-102830891D01*
X174858760Y-102744380D01*
X174901122Y-102676514D01*
X174961948Y-102579591D01*
X175029734Y-102464282D01*
X175082660Y-102368743D01*
X175145178Y-102259611D01*
X175217428Y-102145511D01*
X175275323Y-102062750D01*
X175342531Y-101970812D01*
X175409350Y-101875421D01*
X175448049Y-101817525D01*
X175568359Y-101644897D01*
X175720902Y-101447911D01*
X175898765Y-101234582D01*
X176095038Y-101012932D01*
X176302808Y-100790978D01*
X176515165Y-100576742D01*
X176529634Y-100562620D01*
X176730375Y-100367265D01*
X176899865Y-100202958D01*
X177043209Y-100065265D01*
X177165508Y-99949751D01*
X177271868Y-99851983D01*
X177367393Y-99767527D01*
X177457187Y-99691948D01*
X177546351Y-99620812D01*
X177639992Y-99549685D01*
X177743211Y-99474133D01*
X177861114Y-99389722D01*
X177962540Y-99317725D01*
X178207544Y-99145030D01*
X178418699Y-98998608D01*
X178602709Y-98874135D01*
X178766275Y-98767282D01*
X178916098Y-98673723D01*
X179058881Y-98589133D01*
X179201324Y-98509183D01*
X179284705Y-98464152D01*
X179424772Y-98388814D01*
X179560956Y-98314450D01*
X179681893Y-98247345D01*
X179776220Y-98193781D01*
X179816024Y-98170330D01*
X179898118Y-98123679D01*
X180010660Y-98063801D01*
X180138018Y-97998852D01*
X180249412Y-97944230D01*
X180375540Y-97883292D01*
X180499532Y-97822650D01*
X180606290Y-97769729D01*
X180675001Y-97734920D01*
X180774030Y-97683769D01*
X180889279Y-97624329D01*
X180972024Y-97581706D01*
X181063822Y-97537893D01*
X181193525Y-97480704D01*
X181351286Y-97414102D01*
X181527262Y-97342047D01*
X181711605Y-97268504D01*
X181894470Y-97197432D01*
X182066012Y-97132795D01*
X182216384Y-97078553D01*
X182258674Y-97063952D01*
X182511154Y-96978007D01*
X182584575Y-97225435D01*
G36*
X194833780Y-92840806D02*
G01*
X194955554Y-92804161D01*
X195075739Y-92771781D01*
X195184165Y-92746999D01*
X195209103Y-92742224D01*
X195303187Y-92723050D01*
X195429916Y-92694362D01*
X195572914Y-92659993D01*
X195715810Y-92623772D01*
X195720222Y-92622619D01*
X195859471Y-92587527D01*
X195996127Y-92555426D01*
X196115089Y-92529721D01*
X196201253Y-92513816D01*
X196205789Y-92513140D01*
X196278376Y-92501297D01*
X196390067Y-92481479D01*
X196530149Y-92455661D01*
X196687912Y-92425818D01*
X196852643Y-92393925D01*
X196859513Y-92392579D01*
X197220378Y-92324692D01*
X197546819Y-92269773D01*
X197852926Y-92225707D01*
X198152784Y-92190381D01*
X198312803Y-92174589D01*
X198428264Y-92163812D01*
X198558693Y-92151507D01*
X198637243Y-92144029D01*
X198752024Y-92135241D01*
X198906288Y-92126635D01*
X199088717Y-92118645D01*
X199287992Y-92111706D01*
X199492798Y-92106254D01*
X199691814Y-92102724D01*
X199720898Y-92102381D01*
X199869175Y-92105094D01*
X200058437Y-92115270D01*
X200279583Y-92131895D01*
X200523509Y-92153951D01*
X200781115Y-92180428D01*
X201043296Y-92210309D01*
X201300953Y-92242580D01*
X201544981Y-92276227D01*
X201766279Y-92310235D01*
X201955744Y-92343590D01*
X202042127Y-92361082D01*
X202341135Y-92432663D01*
X202658056Y-92521458D01*
X202980482Y-92623228D01*
X203296004Y-92733736D01*
X203592216Y-92848743D01*
X203856709Y-92964010D01*
X203974938Y-93021303D01*
X204233327Y-93152464D01*
X204452030Y-93265041D01*
X204637111Y-93362541D01*
X204794630Y-93448471D01*
X204930648Y-93526339D01*
X205051225Y-93599650D01*
X205162423Y-93671913D01*
X205270305Y-93746632D01*
X205380929Y-93827315D01*
X205424785Y-93860148D01*
X205494748Y-93910866D01*
X205559164Y-93954584D01*
X205565578Y-93958663D01*
X205609491Y-93995694D01*
X205625021Y-94025197D01*
X205600804Y-94049643D01*
X205534707Y-94077852D01*
X205435272Y-94107415D01*
X205311043Y-94135920D01*
X205170562Y-94160960D01*
X205115387Y-94168970D01*
X204910322Y-94198465D01*
X204744590Y-94226892D01*
X204606899Y-94257354D01*
X204485954Y-94292952D01*
X204370463Y-94336788D01*
X204249129Y-94391968D01*
X204181024Y-94425646D01*
X203981503Y-94531296D01*
X203821194Y-94628541D01*
X203690741Y-94723862D01*
X203580786Y-94823737D01*
X203533816Y-94873771D01*
X203463439Y-94951695D01*
X203395096Y-95026282D01*
X203357725Y-95066356D01*
X203296504Y-95140814D01*
X203226944Y-95240954D01*
X203153937Y-95357740D01*
X203082378Y-95482138D01*
X203017160Y-95605110D01*
X202963176Y-95717621D01*
X202925319Y-95810634D01*
X202908484Y-95875115D01*
X202909521Y-95893961D01*
X202904625Y-95933358D01*
X202880376Y-95992675D01*
X202876459Y-96000122D01*
X202843400Y-96085559D01*
X202812198Y-96211441D01*
X202784684Y-96367409D01*
X202762683Y-96543108D01*
X202748051Y-96727697D01*
X202742915Y-96859006D01*
X202740826Y-97004264D01*
X202741534Y-97152586D01*
X202744794Y-97293090D01*
X202750357Y-97414896D01*
X202757978Y-97507121D01*
X202766875Y-97557346D01*
X202775269Y-97605610D01*
X202782222Y-97686763D01*
X202786105Y-97779329D01*
X202782295Y-97891420D01*
X202763047Y-97955811D01*
X202725468Y-97974030D01*
X202666661Y-97947603D01*
X202589211Y-97883207D01*
X202494436Y-97806671D01*
X202393877Y-97753674D01*
X202275681Y-97720532D01*
X202127991Y-97703557D01*
X201997569Y-97699286D01*
X201614668Y-97703413D01*
X201273787Y-97725859D01*
X200968810Y-97768703D01*
X200693625Y-97834021D01*
X200442117Y-97923891D01*
X200208172Y-98040389D01*
X199985677Y-98185594D01*
X199768515Y-98361582D01*
X199610140Y-98510391D01*
X199573570Y-98555239D01*
X199523112Y-98627750D01*
X199474127Y-98705038D01*
X199273530Y-99053487D01*
X199111274Y-99372038D01*
X198986343Y-99662923D01*
X198897726Y-99928368D01*
X198871589Y-100030644D01*
X198847367Y-100119530D01*
X198822132Y-100186643D01*
X198801027Y-100218525D01*
X198799554Y-100219191D01*
X198763449Y-100213247D01*
X198696082Y-100188169D01*
X198610835Y-100149065D01*
X198594585Y-100140911D01*
X198507102Y-100102847D01*
X198380261Y-100056240D01*
X198224157Y-100004148D01*
X198048891Y-99949628D01*
X197864560Y-99895741D01*
X197681262Y-99845545D01*
X197509095Y-99802096D01*
X197378918Y-99772729D01*
X197173995Y-99738807D01*
X196930309Y-99713474D01*
X196659263Y-99697324D01*
X196372262Y-99690951D01*
X196080708Y-99694949D01*
X195970848Y-99699324D01*
X195707785Y-99712636D01*
X195485452Y-99726121D01*
X195293785Y-99740931D01*
X195122723Y-99758226D01*
X194962201Y-99779158D01*
X194802162Y-99804883D01*
X194632539Y-99836558D01*
X194449612Y-99873999D01*
X194320295Y-99900783D01*
X194183486Y-99928385D01*
X194065407Y-99951527D01*
X194048197Y-99954806D01*
X193977192Y-99969499D01*
X193865108Y-99994248D01*
X193720239Y-100027150D01*
X193550878Y-100066301D01*
X193365320Y-100109798D01*
X193171856Y-100155739D01*
X193152882Y-100160277D01*
X192942182Y-100211174D01*
X192748829Y-100259041D01*
X192563758Y-100306327D01*
X192377910Y-100355477D01*
X192182225Y-100408942D01*
X191967642Y-100469167D01*
X191725102Y-100538602D01*
X191445544Y-100619693D01*
X191359916Y-100644670D01*
X191283078Y-100667796D01*
X191174820Y-100701267D01*
X191052064Y-100739822D01*
X190975171Y-100764267D01*
X190712422Y-100848247D01*
X190574774Y-100376081D01*
X190542973Y-100265620D01*
X190981569Y-100119718D01*
X191010421Y-100203527D01*
X191037190Y-100262606D01*
X191049251Y-100278658D01*
X191079122Y-100280212D01*
X191147772Y-100265671D01*
X191257460Y-100234404D01*
X191410449Y-100185777D01*
X191560513Y-100135654D01*
X191723037Y-100081416D01*
X191882662Y-100029685D01*
X192028115Y-99983999D01*
X192148123Y-99947903D01*
X192231387Y-99924939D01*
X192352369Y-99894422D01*
X192509069Y-99854307D01*
X192688112Y-99808073D01*
X192876125Y-99759197D01*
X193059737Y-99711158D01*
X193225576Y-99667434D01*
X193360267Y-99631502D01*
X193377007Y-99626986D01*
X193486052Y-99598399D01*
X193590101Y-99572610D01*
X193668236Y-99554791D01*
X193673831Y-99553643D01*
X193770095Y-99533395D01*
X193868970Y-99511423D01*
X193876086Y-99509780D01*
X193948176Y-99496496D01*
X194001470Y-99492672D01*
X194009901Y-99493704D01*
X194048062Y-99491275D01*
X194121427Y-99478164D01*
X194216164Y-99456959D01*
X194246761Y-99449387D01*
X194344875Y-99426500D01*
X194425465Y-99411270D01*
X194474868Y-99406164D01*
X194481642Y-99406999D01*
X194520489Y-99406501D01*
X194592335Y-99395849D01*
X194673161Y-99379210D01*
X194783682Y-99356160D01*
X194910150Y-99333585D01*
X195040289Y-99313229D01*
X195161822Y-99296838D01*
X195262476Y-99286155D01*
X195329975Y-99282924D01*
X195343772Y-99283918D01*
X195404011Y-99281512D01*
X195463925Y-99267632D01*
X195521931Y-99256303D01*
X195557382Y-99262535D01*
X195593369Y-99268832D01*
X195660426Y-99264243D01*
X195704987Y-99257114D01*
X195780900Y-99246334D01*
X195835541Y-99245461D01*
X195850235Y-99249725D01*
X195887250Y-99255490D01*
X195927825Y-99247155D01*
X195997059Y-99234356D01*
X196061951Y-99232639D01*
X196137667Y-99237160D01*
X196192918Y-99240324D01*
X196253649Y-99240498D01*
X196334501Y-99237110D01*
X196352078Y-99235961D01*
X196447498Y-99232700D01*
X196571010Y-99233207D01*
X196705839Y-99236902D01*
X196835209Y-99243200D01*
X196942344Y-99251523D01*
X196995253Y-99258263D01*
X197060340Y-99265585D01*
X197101886Y-99263443D01*
X197105282Y-99261917D01*
X197139311Y-99260616D01*
X197199044Y-99273288D01*
X197207744Y-99275866D01*
X197269441Y-99291766D01*
X197308279Y-99296284D01*
X197310438Y-99295823D01*
X197349611Y-99294499D01*
X197419426Y-99300684D01*
X197501904Y-99311781D01*
X197579070Y-99325197D01*
X197632946Y-99338340D01*
X197645797Y-99344210D01*
X197683509Y-99358678D01*
X197749881Y-99371715D01*
X197771169Y-99374450D01*
X197866252Y-99392795D01*
X197987607Y-99426551D01*
X198115617Y-99469341D01*
X198230664Y-99514791D01*
X198289489Y-99542893D01*
X198349753Y-99569125D01*
X198392542Y-99577429D01*
X198395710Y-99576783D01*
X198421817Y-99551780D01*
X198462707Y-99495273D01*
X198502252Y-99431664D01*
X198547423Y-99345467D01*
X198581320Y-99264789D01*
X198593828Y-99220513D01*
X198613812Y-99149395D01*
X198648371Y-99066800D01*
X198657739Y-99048399D01*
X198694534Y-98977823D01*
X198722774Y-98921031D01*
X198727967Y-98909814D01*
X198776299Y-98804263D01*
X198818060Y-98718877D01*
X198848485Y-98663065D01*
X198861626Y-98645969D01*
X198882221Y-98625363D01*
X198924924Y-98574909D01*
X198980918Y-98505064D01*
X198987116Y-98497150D01*
X199045556Y-98425121D01*
X199093552Y-98370953D01*
X199121431Y-98345508D01*
X199122586Y-98345011D01*
X199138225Y-98319381D01*
X199136966Y-98313459D01*
X199150365Y-98286798D01*
X199174199Y-98274304D01*
X199221628Y-98239085D01*
X199237429Y-98213118D01*
X199273116Y-98166968D01*
X199297707Y-98152913D01*
X199342489Y-98118708D01*
X199357947Y-98092806D01*
X199387144Y-98054710D01*
X199445505Y-98000978D01*
X199512209Y-97949301D01*
X199588696Y-97892620D01*
X199651860Y-97842262D01*
X199684406Y-97812714D01*
X199720054Y-97783747D01*
X199788565Y-97735836D01*
X199879273Y-97676234D01*
X199958485Y-97626349D01*
X200220728Y-97486121D01*
X200503836Y-97378653D01*
X200819606Y-97299498D01*
X200833188Y-97296838D01*
X200942732Y-97274478D01*
X201047982Y-97251143D01*
X201125475Y-97232058D01*
X201199618Y-97218728D01*
X201257643Y-97219993D01*
X201268540Y-97223572D01*
X201323894Y-97232219D01*
X201360397Y-97225831D01*
X201421914Y-97222830D01*
X201454909Y-97234544D01*
X201510317Y-97250348D01*
X201537780Y-97247129D01*
X201583039Y-97243765D01*
X201660610Y-97248450D01*
X201743748Y-97258770D01*
X201828684Y-97269551D01*
X201890805Y-97273294D01*
X201916187Y-97269396D01*
X201943449Y-97262808D01*
X201999538Y-97266780D01*
X202003256Y-97267349D01*
X202061544Y-97275101D01*
X202092880Y-97276595D01*
X202093294Y-97276482D01*
X202104832Y-97249335D01*
X202112348Y-97187456D01*
X202115507Y-97106782D01*
X202113974Y-97023247D01*
X202107415Y-96952786D01*
X202100729Y-96922814D01*
X202087215Y-96846884D01*
X202085890Y-96755104D01*
X202088004Y-96731246D01*
X202107784Y-96569853D01*
X202127828Y-96418219D01*
X202146450Y-96288430D01*
X202161964Y-96192566D01*
X202166608Y-96167969D01*
X202186385Y-96087185D01*
X202215707Y-95987256D01*
X202250035Y-95881518D01*
X202284830Y-95783309D01*
X202315546Y-95705965D01*
X202337646Y-95662824D01*
X202339277Y-95660826D01*
X202359141Y-95620191D01*
X202358404Y-95605215D01*
X202360345Y-95574851D01*
X202379695Y-95516676D01*
X202418561Y-95425394D01*
X202479046Y-95295712D01*
X202493223Y-95266157D01*
X202525065Y-95192965D01*
X202543054Y-95137532D01*
X202544561Y-95118727D01*
X202558074Y-95092217D01*
X202582997Y-95079173D01*
X202624028Y-95045694D01*
X202656803Y-94987700D01*
X202679344Y-94933813D01*
X202696385Y-94907662D01*
X202696906Y-94907438D01*
X202717764Y-94888118D01*
X202766039Y-94838124D01*
X202835095Y-94764476D01*
X202918292Y-94674192D01*
X202941582Y-94648682D01*
X203056617Y-94524061D01*
X203149129Y-94429245D01*
X203229647Y-94355466D01*
X203308702Y-94293952D01*
X203396822Y-94235933D01*
X203504538Y-94172639D01*
X203531343Y-94157455D01*
X203633255Y-94105255D01*
X203752653Y-94052324D01*
X203879378Y-94002199D01*
X204003270Y-93958412D01*
X204114171Y-93924498D01*
X204201921Y-93903990D01*
X204256361Y-93900424D01*
X204263738Y-93902673D01*
X204307715Y-93910054D01*
X204353507Y-93900584D01*
X204378569Y-93880255D01*
X204378447Y-93872185D01*
X204353693Y-93854172D01*
X204293534Y-93823046D01*
X204209663Y-93784733D01*
X204185261Y-93774259D01*
X204074671Y-93722124D01*
X204007655Y-93676868D01*
X203978737Y-93636242D01*
X203949308Y-93592590D01*
X203920709Y-93590203D01*
X203880281Y-93593873D01*
X203820202Y-93581591D01*
X203733968Y-93551122D01*
X203615077Y-93500229D01*
X203488356Y-93441546D01*
X203387318Y-93395855D01*
X203302150Y-93361212D01*
X203243902Y-93341895D01*
X203225265Y-93339714D01*
X203187066Y-93334428D01*
X203125188Y-93309960D01*
X203101676Y-93298130D01*
X203017873Y-93261298D01*
X202934292Y-93236016D01*
X202921269Y-93233560D01*
X202852020Y-93217937D01*
X202757528Y-93191096D01*
X202674236Y-93164206D01*
X202578135Y-93133066D01*
X202490427Y-93107783D01*
X202437391Y-93095329D01*
X202367194Y-93078193D01*
X202318969Y-93060228D01*
X202266884Y-93042724D01*
X202190360Y-93025808D01*
X202165386Y-93021650D01*
X202097091Y-93007178D01*
X202054542Y-92990381D01*
X202048641Y-92984183D01*
X202021024Y-92966578D01*
X201994833Y-92963251D01*
X201928026Y-92955998D01*
X201903537Y-92950331D01*
X201843811Y-92938744D01*
X201790703Y-92933014D01*
X201726035Y-92924001D01*
X201638228Y-92906144D01*
X201590558Y-92894639D01*
X201508738Y-92877348D01*
X201443184Y-92870058D01*
X201419767Y-92871686D01*
X201369372Y-92868186D01*
X201321037Y-92848888D01*
X201268891Y-92826290D01*
X201238657Y-92822755D01*
X201204992Y-92823109D01*
X201133261Y-92817845D01*
X201035759Y-92807982D01*
X200974521Y-92800834D01*
X200769338Y-92776186D01*
X200608523Y-92757942D01*
X200486110Y-92745638D01*
X200396134Y-92738804D01*
X200332630Y-92736975D01*
X200289631Y-92739682D01*
X200264579Y-92745260D01*
X200204765Y-92750145D01*
X200159448Y-92742434D01*
X200102010Y-92733785D01*
X200015355Y-92729888D01*
X199942181Y-92730844D01*
X199847971Y-92731505D01*
X199766752Y-92726732D01*
X199726321Y-92719990D01*
X199658696Y-92712520D01*
X199618683Y-92718296D01*
X199563376Y-92724740D01*
X199484625Y-92722149D01*
X199457649Y-92719236D01*
X199382189Y-92712333D01*
X199326099Y-92712280D01*
X199314590Y-92714196D01*
X199277485Y-92718741D01*
X199201650Y-92723601D01*
X199099145Y-92728113D01*
X199012295Y-92730861D01*
X198887360Y-92734808D01*
X198769925Y-92739614D01*
X198676443Y-92744554D01*
X198637198Y-92747413D01*
X198551131Y-92752266D01*
X198444414Y-92754481D01*
X198381958Y-92754194D01*
X198295128Y-92757021D01*
X198226935Y-92766984D01*
X198198526Y-92778039D01*
X198157956Y-92790595D01*
X198141894Y-92783995D01*
X198104207Y-92778366D01*
X198040701Y-92789645D01*
X198020851Y-92795668D01*
X197941657Y-92813983D01*
X197871392Y-92817598D01*
X197862003Y-92816336D01*
X197811577Y-92809634D01*
X197761909Y-92811697D01*
X197695709Y-92824567D01*
X197612566Y-92845784D01*
X197541898Y-92860800D01*
X197492710Y-92864373D01*
X197482856Y-92861791D01*
X197451406Y-92861047D01*
X197381957Y-92869811D01*
X197286062Y-92886408D01*
X197214719Y-92900668D01*
X197104672Y-92922825D01*
X197010563Y-92940044D01*
X196945279Y-92950058D01*
X196925035Y-92951658D01*
X196865293Y-92955957D01*
X196834550Y-92961291D01*
X196792897Y-92970366D01*
X196711743Y-92988007D01*
X196601229Y-93012013D01*
X196471500Y-93040177D01*
X196410157Y-93053492D01*
X196252419Y-93089080D01*
X196087646Y-93128549D01*
X195933768Y-93167468D01*
X195808716Y-93201404D01*
X195791780Y-93206310D01*
X195662032Y-93241730D01*
X195526221Y-93274521D01*
X195407235Y-93299287D01*
X195371269Y-93305460D01*
X195273255Y-93323201D01*
X195209515Y-93346218D01*
X195174547Y-93384037D01*
X195162849Y-93446189D01*
X195168921Y-93542204D01*
X195180883Y-93635274D01*
X195205680Y-93841456D01*
X195217954Y-94013212D01*
X195218270Y-94165206D01*
X195207190Y-94312098D01*
X195206977Y-94314005D01*
X195198089Y-94403898D01*
X195193418Y-94473262D01*
X195193957Y-94507248D01*
X195194004Y-94507391D01*
X195192579Y-94545408D01*
X195179827Y-94621409D01*
X195158402Y-94724537D01*
X195130959Y-94843939D01*
X195100155Y-94968760D01*
X195068645Y-95088147D01*
X195039086Y-95191242D01*
X195014132Y-95267193D01*
X195000190Y-95299545D01*
X194979027Y-95345307D01*
X194946770Y-95424641D01*
X194909177Y-95523197D01*
X194894907Y-95562100D01*
X194825472Y-95736925D01*
X194739206Y-95928353D01*
X194642281Y-96124619D01*
X194540869Y-96313949D01*
X194441143Y-96484580D01*
X194349273Y-96624742D01*
X194309845Y-96677657D01*
X194249901Y-96761419D01*
X194196266Y-96849110D01*
X194178923Y-96882553D01*
X194141121Y-96946594D01*
X194102884Y-96987919D01*
X194092783Y-96993361D01*
X194053775Y-97025057D01*
X194023987Y-97073256D01*
X193989044Y-97134548D01*
X193930549Y-97218682D01*
X193859470Y-97311228D01*
X193786771Y-97397758D01*
X193737160Y-97450645D01*
X193703987Y-97488023D01*
X193655150Y-97547824D01*
X193632049Y-97577252D01*
X193578944Y-97641361D01*
X193504118Y-97726148D01*
X193421417Y-97816024D01*
X193398357Y-97840375D01*
X193321517Y-97923082D01*
X193254044Y-97999582D01*
X193207020Y-98057177D01*
X193197099Y-98071035D01*
X193155404Y-98121147D01*
X193119369Y-98146997D01*
X193085096Y-98169641D01*
X193029049Y-98217801D01*
X192960685Y-98282008D01*
X192889458Y-98352795D01*
X192824822Y-98420693D01*
X192776231Y-98476236D01*
X192753141Y-98509955D01*
X192752568Y-98514308D01*
X192737255Y-98536730D01*
X192703626Y-98552981D01*
X192644253Y-98588929D01*
X192612967Y-98622441D01*
X192563370Y-98670950D01*
X192525702Y-98691623D01*
X192471409Y-98728363D01*
X192449325Y-98758035D01*
X192408380Y-98805214D01*
X192379291Y-98821485D01*
X192335413Y-98844333D01*
X192322863Y-98857764D01*
X192296170Y-98886155D01*
X192238038Y-98935859D01*
X192158659Y-98999075D01*
X192068220Y-99068000D01*
X191976914Y-99134831D01*
X191894928Y-99191766D01*
X191844909Y-99223745D01*
X191775015Y-99270565D01*
X191723754Y-99313905D01*
X191708596Y-99332997D01*
X191671151Y-99369779D01*
X191619807Y-99395353D01*
X191553973Y-99426964D01*
X191512416Y-99458791D01*
X191467538Y-99492580D01*
X191395895Y-99533583D01*
X191352096Y-99554960D01*
X191275726Y-99593475D01*
X191216084Y-99630000D01*
X191196937Y-99645625D01*
X191156462Y-99678383D01*
X191090180Y-99723002D01*
X191048776Y-99748333D01*
X190975675Y-99797814D01*
X190939865Y-99841986D01*
X190930981Y-99882315D01*
X190937003Y-99942871D01*
X190955481Y-100027419D01*
X190981569Y-100119718D01*
X190542973Y-100265620D01*
X190529214Y-100217823D01*
X190486494Y-100065803D01*
X190449566Y-99930802D01*
X190421384Y-99823603D01*
X190405530Y-99757937D01*
X190373934Y-99611958D01*
X190720897Y-99447929D01*
X190956144Y-99329487D01*
X191158431Y-99210983D01*
X191315798Y-99103836D01*
X191516234Y-98957878D01*
X191694272Y-98827445D01*
X191846367Y-98715168D01*
X191968982Y-98623680D01*
X192058575Y-98555610D01*
X192111603Y-98513590D01*
X192120652Y-98505726D01*
X192342628Y-98300173D01*
X192532241Y-98122445D01*
X192695020Y-97966530D01*
X192836491Y-97826415D01*
X192962181Y-97696087D01*
X193077617Y-97569534D01*
X193188328Y-97440741D01*
X193299838Y-97303698D01*
X193417676Y-97152389D01*
X193547369Y-96980803D01*
X193653769Y-96837853D01*
X193748872Y-96702201D01*
X193853142Y-96541153D01*
X193959487Y-96366823D01*
X194060814Y-96191323D01*
X194150031Y-96026764D01*
X194220043Y-95885259D01*
X194245348Y-95827626D01*
X194288958Y-95722008D01*
X194331624Y-95618771D01*
X194364182Y-95540080D01*
X194364452Y-95539428D01*
X194390589Y-95471976D01*
X194415776Y-95395789D01*
X194444008Y-95297744D01*
X194479279Y-95164721D01*
X194483599Y-95148019D01*
X194495133Y-95104385D01*
X194516266Y-95025340D01*
X194543349Y-94924518D01*
X194557865Y-94870625D01*
X194609932Y-94651173D01*
X194651295Y-94423500D01*
X194680290Y-94200924D01*
X194695249Y-93996762D01*
X194694504Y-93824329D01*
X194692411Y-93795818D01*
X194677466Y-93675414D01*
X194652697Y-93528047D01*
X194622037Y-93375653D01*
X194600407Y-93282664D01*
X194572474Y-93166090D01*
X194550657Y-93066772D01*
X194537192Y-92995484D01*
X194534204Y-92963388D01*
X194560628Y-92943008D01*
X194626147Y-92913563D01*
X194720587Y-92878386D01*
X194833780Y-92840806D01*
G37*
X194833780Y-92840806D02*
X194955554Y-92804161D01*
X195075739Y-92771781D01*
X195184165Y-92746999D01*
X195209103Y-92742224D01*
X195303187Y-92723050D01*
X195429916Y-92694362D01*
X195572914Y-92659993D01*
X195715810Y-92623772D01*
X195720222Y-92622619D01*
X195859471Y-92587527D01*
X195996127Y-92555426D01*
X196115089Y-92529721D01*
X196201253Y-92513816D01*
X196205789Y-92513140D01*
X196278376Y-92501297D01*
X196390067Y-92481479D01*
X196530149Y-92455661D01*
X196687912Y-92425818D01*
X196852643Y-92393925D01*
X196859513Y-92392579D01*
X197220378Y-92324692D01*
X197546819Y-92269773D01*
X197852926Y-92225707D01*
X198152784Y-92190381D01*
X198312803Y-92174589D01*
X198428264Y-92163812D01*
X198558693Y-92151507D01*
X198637243Y-92144029D01*
X198752024Y-92135241D01*
X198906288Y-92126635D01*
X199088717Y-92118645D01*
X199287992Y-92111706D01*
X199492798Y-92106254D01*
X199691814Y-92102724D01*
X199720898Y-92102381D01*
X199869175Y-92105094D01*
X200058437Y-92115270D01*
X200279583Y-92131895D01*
X200523509Y-92153951D01*
X200781115Y-92180428D01*
X201043296Y-92210309D01*
X201300953Y-92242580D01*
X201544981Y-92276227D01*
X201766279Y-92310235D01*
X201955744Y-92343590D01*
X202042127Y-92361082D01*
X202341135Y-92432663D01*
X202658056Y-92521458D01*
X202980482Y-92623228D01*
X203296004Y-92733736D01*
X203592216Y-92848743D01*
X203856709Y-92964010D01*
X203974938Y-93021303D01*
X204233327Y-93152464D01*
X204452030Y-93265041D01*
X204637111Y-93362541D01*
X204794630Y-93448471D01*
X204930648Y-93526339D01*
X205051225Y-93599650D01*
X205162423Y-93671913D01*
X205270305Y-93746632D01*
X205380929Y-93827315D01*
X205424785Y-93860148D01*
X205494748Y-93910866D01*
X205559164Y-93954584D01*
X205565578Y-93958663D01*
X205609491Y-93995694D01*
X205625021Y-94025197D01*
X205600804Y-94049643D01*
X205534707Y-94077852D01*
X205435272Y-94107415D01*
X205311043Y-94135920D01*
X205170562Y-94160960D01*
X205115387Y-94168970D01*
X204910322Y-94198465D01*
X204744590Y-94226892D01*
X204606899Y-94257354D01*
X204485954Y-94292952D01*
X204370463Y-94336788D01*
X204249129Y-94391968D01*
X204181024Y-94425646D01*
X203981503Y-94531296D01*
X203821194Y-94628541D01*
X203690741Y-94723862D01*
X203580786Y-94823737D01*
X203533816Y-94873771D01*
X203463439Y-94951695D01*
X203395096Y-95026282D01*
X203357725Y-95066356D01*
X203296504Y-95140814D01*
X203226944Y-95240954D01*
X203153937Y-95357740D01*
X203082378Y-95482138D01*
X203017160Y-95605110D01*
X202963176Y-95717621D01*
X202925319Y-95810634D01*
X202908484Y-95875115D01*
X202909521Y-95893961D01*
X202904625Y-95933358D01*
X202880376Y-95992675D01*
X202876459Y-96000122D01*
X202843400Y-96085559D01*
X202812198Y-96211441D01*
X202784684Y-96367409D01*
X202762683Y-96543108D01*
X202748051Y-96727697D01*
X202742915Y-96859006D01*
X202740826Y-97004264D01*
X202741534Y-97152586D01*
X202744794Y-97293090D01*
X202750357Y-97414896D01*
X202757978Y-97507121D01*
X202766875Y-97557346D01*
X202775269Y-97605610D01*
X202782222Y-97686763D01*
X202786105Y-97779329D01*
X202782295Y-97891420D01*
X202763047Y-97955811D01*
X202725468Y-97974030D01*
X202666661Y-97947603D01*
X202589211Y-97883207D01*
X202494436Y-97806671D01*
X202393877Y-97753674D01*
X202275681Y-97720532D01*
X202127991Y-97703557D01*
X201997569Y-97699286D01*
X201614668Y-97703413D01*
X201273787Y-97725859D01*
X200968810Y-97768703D01*
X200693625Y-97834021D01*
X200442117Y-97923891D01*
X200208172Y-98040389D01*
X199985677Y-98185594D01*
X199768515Y-98361582D01*
X199610140Y-98510391D01*
X199573570Y-98555239D01*
X199523112Y-98627750D01*
X199474127Y-98705038D01*
X199273530Y-99053487D01*
X199111274Y-99372038D01*
X198986343Y-99662923D01*
X198897726Y-99928368D01*
X198871589Y-100030644D01*
X198847367Y-100119530D01*
X198822132Y-100186643D01*
X198801027Y-100218525D01*
X198799554Y-100219191D01*
X198763449Y-100213247D01*
X198696082Y-100188169D01*
X198610835Y-100149065D01*
X198594585Y-100140911D01*
X198507102Y-100102847D01*
X198380261Y-100056240D01*
X198224157Y-100004148D01*
X198048891Y-99949628D01*
X197864560Y-99895741D01*
X197681262Y-99845545D01*
X197509095Y-99802096D01*
X197378918Y-99772729D01*
X197173995Y-99738807D01*
X196930309Y-99713474D01*
X196659263Y-99697324D01*
X196372262Y-99690951D01*
X196080708Y-99694949D01*
X195970848Y-99699324D01*
X195707785Y-99712636D01*
X195485452Y-99726121D01*
X195293785Y-99740931D01*
X195122723Y-99758226D01*
X194962201Y-99779158D01*
X194802162Y-99804883D01*
X194632539Y-99836558D01*
X194449612Y-99873999D01*
X194320295Y-99900783D01*
X194183486Y-99928385D01*
X194065407Y-99951527D01*
X194048197Y-99954806D01*
X193977192Y-99969499D01*
X193865108Y-99994248D01*
X193720239Y-100027150D01*
X193550878Y-100066301D01*
X193365320Y-100109798D01*
X193171856Y-100155739D01*
X193152882Y-100160277D01*
X192942182Y-100211174D01*
X192748829Y-100259041D01*
X192563758Y-100306327D01*
X192377910Y-100355477D01*
X192182225Y-100408942D01*
X191967642Y-100469167D01*
X191725102Y-100538602D01*
X191445544Y-100619693D01*
X191359916Y-100644670D01*
X191283078Y-100667796D01*
X191174820Y-100701267D01*
X191052064Y-100739822D01*
X190975171Y-100764267D01*
X190712422Y-100848247D01*
X190574774Y-100376081D01*
X190542973Y-100265620D01*
X190981569Y-100119718D01*
X191010421Y-100203527D01*
X191037190Y-100262606D01*
X191049251Y-100278658D01*
X191079122Y-100280212D01*
X191147772Y-100265671D01*
X191257460Y-100234404D01*
X191410449Y-100185777D01*
X191560513Y-100135654D01*
X191723037Y-100081416D01*
X191882662Y-100029685D01*
X192028115Y-99983999D01*
X192148123Y-99947903D01*
X192231387Y-99924939D01*
X192352369Y-99894422D01*
X192509069Y-99854307D01*
X192688112Y-99808073D01*
X192876125Y-99759197D01*
X193059737Y-99711158D01*
X193225576Y-99667434D01*
X193360267Y-99631502D01*
X193377007Y-99626986D01*
X193486052Y-99598399D01*
X193590101Y-99572610D01*
X193668236Y-99554791D01*
X193673831Y-99553643D01*
X193770095Y-99533395D01*
X193868970Y-99511423D01*
X193876086Y-99509780D01*
X193948176Y-99496496D01*
X194001470Y-99492672D01*
X194009901Y-99493704D01*
X194048062Y-99491275D01*
X194121427Y-99478164D01*
X194216164Y-99456959D01*
X194246761Y-99449387D01*
X194344875Y-99426500D01*
X194425465Y-99411270D01*
X194474868Y-99406164D01*
X194481642Y-99406999D01*
X194520489Y-99406501D01*
X194592335Y-99395849D01*
X194673161Y-99379210D01*
X194783682Y-99356160D01*
X194910150Y-99333585D01*
X195040289Y-99313229D01*
X195161822Y-99296838D01*
X195262476Y-99286155D01*
X195329975Y-99282924D01*
X195343772Y-99283918D01*
X195404011Y-99281512D01*
X195463925Y-99267632D01*
X195521931Y-99256303D01*
X195557382Y-99262535D01*
X195593369Y-99268832D01*
X195660426Y-99264243D01*
X195704987Y-99257114D01*
X195780900Y-99246334D01*
X195835541Y-99245461D01*
X195850235Y-99249725D01*
X195887250Y-99255490D01*
X195927825Y-99247155D01*
X195997059Y-99234356D01*
X196061951Y-99232639D01*
X196137667Y-99237160D01*
X196192918Y-99240324D01*
X196253649Y-99240498D01*
X196334501Y-99237110D01*
X196352078Y-99235961D01*
X196447498Y-99232700D01*
X196571010Y-99233207D01*
X196705839Y-99236902D01*
X196835209Y-99243200D01*
X196942344Y-99251523D01*
X196995253Y-99258263D01*
X197060340Y-99265585D01*
X197101886Y-99263443D01*
X197105282Y-99261917D01*
X197139311Y-99260616D01*
X197199044Y-99273288D01*
X197207744Y-99275866D01*
X197269441Y-99291766D01*
X197308279Y-99296284D01*
X197310438Y-99295823D01*
X197349611Y-99294499D01*
X197419426Y-99300684D01*
X197501904Y-99311781D01*
X197579070Y-99325197D01*
X197632946Y-99338340D01*
X197645797Y-99344210D01*
X197683509Y-99358678D01*
X197749881Y-99371715D01*
X197771169Y-99374450D01*
X197866252Y-99392795D01*
X197987607Y-99426551D01*
X198115617Y-99469341D01*
X198230664Y-99514791D01*
X198289489Y-99542893D01*
X198349753Y-99569125D01*
X198392542Y-99577429D01*
X198395710Y-99576783D01*
X198421817Y-99551780D01*
X198462707Y-99495273D01*
X198502252Y-99431664D01*
X198547423Y-99345467D01*
X198581320Y-99264789D01*
X198593828Y-99220513D01*
X198613812Y-99149395D01*
X198648371Y-99066800D01*
X198657739Y-99048399D01*
X198694534Y-98977823D01*
X198722774Y-98921031D01*
X198727967Y-98909814D01*
X198776299Y-98804263D01*
X198818060Y-98718877D01*
X198848485Y-98663065D01*
X198861626Y-98645969D01*
X198882221Y-98625363D01*
X198924924Y-98574909D01*
X198980918Y-98505064D01*
X198987116Y-98497150D01*
X199045556Y-98425121D01*
X199093552Y-98370953D01*
X199121431Y-98345508D01*
X199122586Y-98345011D01*
X199138225Y-98319381D01*
X199136966Y-98313459D01*
X199150365Y-98286798D01*
X199174199Y-98274304D01*
X199221628Y-98239085D01*
X199237429Y-98213118D01*
X199273116Y-98166968D01*
X199297707Y-98152913D01*
X199342489Y-98118708D01*
X199357947Y-98092806D01*
X199387144Y-98054710D01*
X199445505Y-98000978D01*
X199512209Y-97949301D01*
X199588696Y-97892620D01*
X199651860Y-97842262D01*
X199684406Y-97812714D01*
X199720054Y-97783747D01*
X199788565Y-97735836D01*
X199879273Y-97676234D01*
X199958485Y-97626349D01*
X200220728Y-97486121D01*
X200503836Y-97378653D01*
X200819606Y-97299498D01*
X200833188Y-97296838D01*
X200942732Y-97274478D01*
X201047982Y-97251143D01*
X201125475Y-97232058D01*
X201199618Y-97218728D01*
X201257643Y-97219993D01*
X201268540Y-97223572D01*
X201323894Y-97232219D01*
X201360397Y-97225831D01*
X201421914Y-97222830D01*
X201454909Y-97234544D01*
X201510317Y-97250348D01*
X201537780Y-97247129D01*
X201583039Y-97243765D01*
X201660610Y-97248450D01*
X201743748Y-97258770D01*
X201828684Y-97269551D01*
X201890805Y-97273294D01*
X201916187Y-97269396D01*
X201943449Y-97262808D01*
X201999538Y-97266780D01*
X202003256Y-97267349D01*
X202061544Y-97275101D01*
X202092880Y-97276595D01*
X202093294Y-97276482D01*
X202104832Y-97249335D01*
X202112348Y-97187456D01*
X202115507Y-97106782D01*
X202113974Y-97023247D01*
X202107415Y-96952786D01*
X202100729Y-96922814D01*
X202087215Y-96846884D01*
X202085890Y-96755104D01*
X202088004Y-96731246D01*
X202107784Y-96569853D01*
X202127828Y-96418219D01*
X202146450Y-96288430D01*
X202161964Y-96192566D01*
X202166608Y-96167969D01*
X202186385Y-96087185D01*
X202215707Y-95987256D01*
X202250035Y-95881518D01*
X202284830Y-95783309D01*
X202315546Y-95705965D01*
X202337646Y-95662824D01*
X202339277Y-95660826D01*
X202359141Y-95620191D01*
X202358404Y-95605215D01*
X202360345Y-95574851D01*
X202379695Y-95516676D01*
X202418561Y-95425394D01*
X202479046Y-95295712D01*
X202493223Y-95266157D01*
X202525065Y-95192965D01*
X202543054Y-95137532D01*
X202544561Y-95118727D01*
X202558074Y-95092217D01*
X202582997Y-95079173D01*
X202624028Y-95045694D01*
X202656803Y-94987700D01*
X202679344Y-94933813D01*
X202696385Y-94907662D01*
X202696906Y-94907438D01*
X202717764Y-94888118D01*
X202766039Y-94838124D01*
X202835095Y-94764476D01*
X202918292Y-94674192D01*
X202941582Y-94648682D01*
X203056617Y-94524061D01*
X203149129Y-94429245D01*
X203229647Y-94355466D01*
X203308702Y-94293952D01*
X203396822Y-94235933D01*
X203504538Y-94172639D01*
X203531343Y-94157455D01*
X203633255Y-94105255D01*
X203752653Y-94052324D01*
X203879378Y-94002199D01*
X204003270Y-93958412D01*
X204114171Y-93924498D01*
X204201921Y-93903990D01*
X204256361Y-93900424D01*
X204263738Y-93902673D01*
X204307715Y-93910054D01*
X204353507Y-93900584D01*
X204378569Y-93880255D01*
X204378447Y-93872185D01*
X204353693Y-93854172D01*
X204293534Y-93823046D01*
X204209663Y-93784733D01*
X204185261Y-93774259D01*
X204074671Y-93722124D01*
X204007655Y-93676868D01*
X203978737Y-93636242D01*
X203949308Y-93592590D01*
X203920709Y-93590203D01*
X203880281Y-93593873D01*
X203820202Y-93581591D01*
X203733968Y-93551122D01*
X203615077Y-93500229D01*
X203488356Y-93441546D01*
X203387318Y-93395855D01*
X203302150Y-93361212D01*
X203243902Y-93341895D01*
X203225265Y-93339714D01*
X203187066Y-93334428D01*
X203125188Y-93309960D01*
X203101676Y-93298130D01*
X203017873Y-93261298D01*
X202934292Y-93236016D01*
X202921269Y-93233560D01*
X202852020Y-93217937D01*
X202757528Y-93191096D01*
X202674236Y-93164206D01*
X202578135Y-93133066D01*
X202490427Y-93107783D01*
X202437391Y-93095329D01*
X202367194Y-93078193D01*
X202318969Y-93060228D01*
X202266884Y-93042724D01*
X202190360Y-93025808D01*
X202165386Y-93021650D01*
X202097091Y-93007178D01*
X202054542Y-92990381D01*
X202048641Y-92984183D01*
X202021024Y-92966578D01*
X201994833Y-92963251D01*
X201928026Y-92955998D01*
X201903537Y-92950331D01*
X201843811Y-92938744D01*
X201790703Y-92933014D01*
X201726035Y-92924001D01*
X201638228Y-92906144D01*
X201590558Y-92894639D01*
X201508738Y-92877348D01*
X201443184Y-92870058D01*
X201419767Y-92871686D01*
X201369372Y-92868186D01*
X201321037Y-92848888D01*
X201268891Y-92826290D01*
X201238657Y-92822755D01*
X201204992Y-92823109D01*
X201133261Y-92817845D01*
X201035759Y-92807982D01*
X200974521Y-92800834D01*
X200769338Y-92776186D01*
X200608523Y-92757942D01*
X200486110Y-92745638D01*
X200396134Y-92738804D01*
X200332630Y-92736975D01*
X200289631Y-92739682D01*
X200264579Y-92745260D01*
X200204765Y-92750145D01*
X200159448Y-92742434D01*
X200102010Y-92733785D01*
X200015355Y-92729888D01*
X199942181Y-92730844D01*
X199847971Y-92731505D01*
X199766752Y-92726732D01*
X199726321Y-92719990D01*
X199658696Y-92712520D01*
X199618683Y-92718296D01*
X199563376Y-92724740D01*
X199484625Y-92722149D01*
X199457649Y-92719236D01*
X199382189Y-92712333D01*
X199326099Y-92712280D01*
X199314590Y-92714196D01*
X199277485Y-92718741D01*
X199201650Y-92723601D01*
X199099145Y-92728113D01*
X199012295Y-92730861D01*
X198887360Y-92734808D01*
X198769925Y-92739614D01*
X198676443Y-92744554D01*
X198637198Y-92747413D01*
X198551131Y-92752266D01*
X198444414Y-92754481D01*
X198381958Y-92754194D01*
X198295128Y-92757021D01*
X198226935Y-92766984D01*
X198198526Y-92778039D01*
X198157956Y-92790595D01*
X198141894Y-92783995D01*
X198104207Y-92778366D01*
X198040701Y-92789645D01*
X198020851Y-92795668D01*
X197941657Y-92813983D01*
X197871392Y-92817598D01*
X197862003Y-92816336D01*
X197811577Y-92809634D01*
X197761909Y-92811697D01*
X197695709Y-92824567D01*
X197612566Y-92845784D01*
X197541898Y-92860800D01*
X197492710Y-92864373D01*
X197482856Y-92861791D01*
X197451406Y-92861047D01*
X197381957Y-92869811D01*
X197286062Y-92886408D01*
X197214719Y-92900668D01*
X197104672Y-92922825D01*
X197010563Y-92940044D01*
X196945279Y-92950058D01*
X196925035Y-92951658D01*
X196865293Y-92955957D01*
X196834550Y-92961291D01*
X196792897Y-92970366D01*
X196711743Y-92988007D01*
X196601229Y-93012013D01*
X196471500Y-93040177D01*
X196410157Y-93053492D01*
X196252419Y-93089080D01*
X196087646Y-93128549D01*
X195933768Y-93167468D01*
X195808716Y-93201404D01*
X195791780Y-93206310D01*
X195662032Y-93241730D01*
X195526221Y-93274521D01*
X195407235Y-93299287D01*
X195371269Y-93305460D01*
X195273255Y-93323201D01*
X195209515Y-93346218D01*
X195174547Y-93384037D01*
X195162849Y-93446189D01*
X195168921Y-93542204D01*
X195180883Y-93635274D01*
X195205680Y-93841456D01*
X195217954Y-94013212D01*
X195218270Y-94165206D01*
X195207190Y-94312098D01*
X195206977Y-94314005D01*
X195198089Y-94403898D01*
X195193418Y-94473262D01*
X195193957Y-94507248D01*
X195194004Y-94507391D01*
X195192579Y-94545408D01*
X195179827Y-94621409D01*
X195158402Y-94724537D01*
X195130959Y-94843939D01*
X195100155Y-94968760D01*
X195068645Y-95088147D01*
X195039086Y-95191242D01*
X195014132Y-95267193D01*
X195000190Y-95299545D01*
X194979027Y-95345307D01*
X194946770Y-95424641D01*
X194909177Y-95523197D01*
X194894907Y-95562100D01*
X194825472Y-95736925D01*
X194739206Y-95928353D01*
X194642281Y-96124619D01*
X194540869Y-96313949D01*
X194441143Y-96484580D01*
X194349273Y-96624742D01*
X194309845Y-96677657D01*
X194249901Y-96761419D01*
X194196266Y-96849110D01*
X194178923Y-96882553D01*
X194141121Y-96946594D01*
X194102884Y-96987919D01*
X194092783Y-96993361D01*
X194053775Y-97025057D01*
X194023987Y-97073256D01*
X193989044Y-97134548D01*
X193930549Y-97218682D01*
X193859470Y-97311228D01*
X193786771Y-97397758D01*
X193737160Y-97450645D01*
X193703987Y-97488023D01*
X193655150Y-97547824D01*
X193632049Y-97577252D01*
X193578944Y-97641361D01*
X193504118Y-97726148D01*
X193421417Y-97816024D01*
X193398357Y-97840375D01*
X193321517Y-97923082D01*
X193254044Y-97999582D01*
X193207020Y-98057177D01*
X193197099Y-98071035D01*
X193155404Y-98121147D01*
X193119369Y-98146997D01*
X193085096Y-98169641D01*
X193029049Y-98217801D01*
X192960685Y-98282008D01*
X192889458Y-98352795D01*
X192824822Y-98420693D01*
X192776231Y-98476236D01*
X192753141Y-98509955D01*
X192752568Y-98514308D01*
X192737255Y-98536730D01*
X192703626Y-98552981D01*
X192644253Y-98588929D01*
X192612967Y-98622441D01*
X192563370Y-98670950D01*
X192525702Y-98691623D01*
X192471409Y-98728363D01*
X192449325Y-98758035D01*
X192408380Y-98805214D01*
X192379291Y-98821485D01*
X192335413Y-98844333D01*
X192322863Y-98857764D01*
X192296170Y-98886155D01*
X192238038Y-98935859D01*
X192158659Y-98999075D01*
X192068220Y-99068000D01*
X191976914Y-99134831D01*
X191894928Y-99191766D01*
X191844909Y-99223745D01*
X191775015Y-99270565D01*
X191723754Y-99313905D01*
X191708596Y-99332997D01*
X191671151Y-99369779D01*
X191619807Y-99395353D01*
X191553973Y-99426964D01*
X191512416Y-99458791D01*
X191467538Y-99492580D01*
X191395895Y-99533583D01*
X191352096Y-99554960D01*
X191275726Y-99593475D01*
X191216084Y-99630000D01*
X191196937Y-99645625D01*
X191156462Y-99678383D01*
X191090180Y-99723002D01*
X191048776Y-99748333D01*
X190975675Y-99797814D01*
X190939865Y-99841986D01*
X190930981Y-99882315D01*
X190937003Y-99942871D01*
X190955481Y-100027419D01*
X190981569Y-100119718D01*
X190542973Y-100265620D01*
X190529214Y-100217823D01*
X190486494Y-100065803D01*
X190449566Y-99930802D01*
X190421384Y-99823603D01*
X190405530Y-99757937D01*
X190373934Y-99611958D01*
X190720897Y-99447929D01*
X190956144Y-99329487D01*
X191158431Y-99210983D01*
X191315798Y-99103836D01*
X191516234Y-98957878D01*
X191694272Y-98827445D01*
X191846367Y-98715168D01*
X191968982Y-98623680D01*
X192058575Y-98555610D01*
X192111603Y-98513590D01*
X192120652Y-98505726D01*
X192342628Y-98300173D01*
X192532241Y-98122445D01*
X192695020Y-97966530D01*
X192836491Y-97826415D01*
X192962181Y-97696087D01*
X193077617Y-97569534D01*
X193188328Y-97440741D01*
X193299838Y-97303698D01*
X193417676Y-97152389D01*
X193547369Y-96980803D01*
X193653769Y-96837853D01*
X193748872Y-96702201D01*
X193853142Y-96541153D01*
X193959487Y-96366823D01*
X194060814Y-96191323D01*
X194150031Y-96026764D01*
X194220043Y-95885259D01*
X194245348Y-95827626D01*
X194288958Y-95722008D01*
X194331624Y-95618771D01*
X194364182Y-95540080D01*
X194364452Y-95539428D01*
X194390589Y-95471976D01*
X194415776Y-95395789D01*
X194444008Y-95297744D01*
X194479279Y-95164721D01*
X194483599Y-95148019D01*
X194495133Y-95104385D01*
X194516266Y-95025340D01*
X194543349Y-94924518D01*
X194557865Y-94870625D01*
X194609932Y-94651173D01*
X194651295Y-94423500D01*
X194680290Y-94200924D01*
X194695249Y-93996762D01*
X194694504Y-93824329D01*
X194692411Y-93795818D01*
X194677466Y-93675414D01*
X194652697Y-93528047D01*
X194622037Y-93375653D01*
X194600407Y-93282664D01*
X194572474Y-93166090D01*
X194550657Y-93066772D01*
X194537192Y-92995484D01*
X194534204Y-92963388D01*
X194560628Y-92943008D01*
X194626147Y-92913563D01*
X194720587Y-92878386D01*
X194833780Y-92840806D01*
G36*
X182215581Y-98076750D02*
G01*
X182254592Y-98122679D01*
X182272254Y-98148295D01*
X182348624Y-98264799D01*
X182402998Y-98345016D01*
X182440284Y-98395749D01*
X182465388Y-98423804D01*
X182477780Y-98433269D01*
X182508422Y-98469157D01*
X182522079Y-98498838D01*
X182546926Y-98538521D01*
X182598951Y-98602056D01*
X182668652Y-98678147D01*
X182698847Y-98709060D01*
X182787561Y-98797614D01*
X182854036Y-98861721D01*
X182911527Y-98913280D01*
X182973289Y-98964186D01*
X183050520Y-99024746D01*
X183109414Y-99072622D01*
X183148227Y-99108283D01*
X183156337Y-99118672D01*
X183178557Y-99137688D01*
X183233890Y-99176624D01*
X183312158Y-99228811D01*
X183403184Y-99287581D01*
X183496793Y-99346266D01*
X183582809Y-99398201D01*
X183584215Y-99399026D01*
X183633842Y-99430115D01*
X183706190Y-99477606D01*
X183758315Y-99512701D01*
X183854848Y-99572099D01*
X183961060Y-99628368D01*
X184007821Y-99649795D01*
X184109117Y-99693965D01*
X184220560Y-99744439D01*
X184267781Y-99766487D01*
X184379786Y-99818571D01*
X184477800Y-99861321D01*
X184576730Y-99900600D01*
X184691482Y-99942272D01*
X184836961Y-99992200D01*
X184869276Y-100003093D01*
X184984656Y-100042083D01*
X185084254Y-100076047D01*
X185157090Y-100101224D01*
X185191497Y-100113573D01*
X185243070Y-100122452D01*
X185296995Y-100122453D01*
X185356240Y-100127636D01*
X185389012Y-100144468D01*
X185422360Y-100162471D01*
X185491500Y-100187518D01*
X185582604Y-100215774D01*
X185681847Y-100243398D01*
X185775398Y-100266555D01*
X185849431Y-100281406D01*
X185890117Y-100284113D01*
X185891142Y-100283823D01*
X185931611Y-100288951D01*
X185962998Y-100303939D01*
X186011321Y-100321514D01*
X186092034Y-100339104D01*
X186179117Y-100351816D01*
X186272207Y-100365225D01*
X186348454Y-100381418D01*
X186388978Y-100395796D01*
X186440686Y-100409670D01*
X186511341Y-100409295D01*
X186514931Y-100408831D01*
X186586262Y-100407903D01*
X186640699Y-100421798D01*
X186642353Y-100422780D01*
X186697302Y-100439337D01*
X186723455Y-100437202D01*
X186774278Y-100435350D01*
X186844429Y-100446023D01*
X186850765Y-100447536D01*
X186971956Y-100471317D01*
X187086494Y-100483069D01*
X187175492Y-100481045D01*
X187188734Y-100478797D01*
X187256885Y-100479650D01*
X187302466Y-100492475D01*
X187361372Y-100507776D01*
X187396476Y-100505815D01*
X187444114Y-100501997D01*
X187456828Y-100505815D01*
X187494116Y-100514961D01*
X187497657Y-100514552D01*
X187532457Y-100513655D01*
X187593579Y-100516059D01*
X187596365Y-100516226D01*
X187663173Y-100519413D01*
X187759973Y-100522984D01*
X187865969Y-100526174D01*
X187867372Y-100526211D01*
X187976242Y-100529653D01*
X188078960Y-100533858D01*
X188152316Y-100537857D01*
X188243385Y-100540313D01*
X188370095Y-100538662D01*
X188517514Y-100533604D01*
X188670709Y-100525840D01*
X188814748Y-100516068D01*
X188934701Y-100504989D01*
X188982580Y-100498946D01*
X189044755Y-100495505D01*
X189116011Y-100497709D01*
X189183361Y-100497062D01*
X189230285Y-100486852D01*
X189230506Y-100486735D01*
X189287455Y-100476194D01*
X189351822Y-100488751D01*
X189399701Y-100518136D01*
X189409007Y-100533561D01*
X189414957Y-100563678D01*
X189407917Y-100591203D01*
X189382808Y-100618902D01*
X189334555Y-100649536D01*
X189258082Y-100685867D01*
X189148313Y-100730657D01*
X189000172Y-100786668D01*
X188828450Y-100849460D01*
X188670247Y-100907657D01*
X188527352Y-100961765D01*
X188406972Y-101008928D01*
X188316315Y-101046293D01*
X188262589Y-101071004D01*
X188251655Y-101077891D01*
X188217051Y-101097437D01*
X188144619Y-101128795D01*
X188044737Y-101167744D01*
X187927781Y-101210062D01*
X187919931Y-101212796D01*
X187685256Y-101295903D01*
X187496099Y-101366339D01*
X187353241Y-101423783D01*
X187257469Y-101467919D01*
X187209563Y-101498427D01*
X187205455Y-101503389D01*
X187173756Y-101527359D01*
X187107419Y-101562465D01*
X187019379Y-101602018D01*
X186996926Y-101611240D01*
X186892831Y-101654688D01*
X186794663Y-101698140D01*
X186722151Y-101732839D01*
X186717071Y-101735488D01*
X186637466Y-101772114D01*
X186539215Y-101810254D01*
X186492871Y-101825973D01*
X186401580Y-101860850D01*
X186318735Y-101902024D01*
X186287107Y-101922312D01*
X186226376Y-101960977D01*
X186126286Y-102016961D01*
X185993744Y-102086614D01*
X185835662Y-102166280D01*
X185703098Y-102231079D01*
X185623563Y-102274246D01*
X185514717Y-102339919D01*
X185388284Y-102420662D01*
X185255986Y-102509033D01*
X185162403Y-102574118D01*
X185058341Y-102646621D01*
X184936518Y-102729622D01*
X184821886Y-102806133D01*
X184813189Y-102811848D01*
X184716289Y-102878195D01*
X184625812Y-102944907D01*
X184558018Y-102999876D01*
X184546341Y-103010535D01*
X184486170Y-103061624D01*
X184433592Y-103096326D01*
X184421828Y-103101460D01*
X184383162Y-103133418D01*
X184375549Y-103157007D01*
X184352594Y-103195053D01*
X184311900Y-103218333D01*
X184252992Y-103251414D01*
X184222649Y-103283419D01*
X184185532Y-103325503D01*
X184125283Y-103377776D01*
X184101215Y-103395960D01*
X184044174Y-103444232D01*
X184009893Y-103486686D01*
X184005623Y-103499437D01*
X183982944Y-103533452D01*
X183942591Y-103555334D01*
X183887165Y-103589631D01*
X183831790Y-103646927D01*
X183825065Y-103656128D01*
X183765517Y-103724677D01*
X183691431Y-103789581D01*
X183678684Y-103798757D01*
X183622362Y-103846096D01*
X183589688Y-103889912D01*
X183586566Y-103901545D01*
X183563845Y-103942658D01*
X183538723Y-103957368D01*
X183490745Y-103992803D01*
X183474555Y-104019274D01*
X183447820Y-104060806D01*
X183398027Y-104120463D01*
X183338208Y-104184441D01*
X183281391Y-104238936D01*
X183240611Y-104270143D01*
X183235653Y-104272334D01*
X183216288Y-104254570D01*
X183189551Y-104201024D01*
X183169436Y-104147135D01*
X183141415Y-104075828D01*
X183115412Y-104031002D01*
X183101791Y-104022411D01*
X183080006Y-104006039D01*
X183055482Y-103955627D01*
X183049966Y-103939269D01*
X183034314Y-103891212D01*
X183004720Y-103802492D01*
X182963680Y-103680510D01*
X182913692Y-103532666D01*
X182857253Y-103366365D01*
X182800329Y-103199180D01*
X182727700Y-102982960D01*
X182659855Y-102774753D01*
X182598496Y-102580292D01*
X182545327Y-102405311D01*
X182502053Y-102255543D01*
X182470376Y-102136721D01*
X182452001Y-102054580D01*
X182448509Y-102015325D01*
X182443677Y-101983746D01*
X182427002Y-101918553D01*
X182404707Y-101842509D01*
X182353977Y-101661833D01*
X182301439Y-101446572D01*
X182250255Y-101212265D01*
X182203587Y-100974456D01*
X182164595Y-100748685D01*
X182136441Y-100550492D01*
X182129791Y-100491086D01*
X182115866Y-100366000D01*
X182099193Y-100232568D01*
X182085055Y-100131209D01*
X182073807Y-100034902D01*
X182069573Y-99950529D01*
X182072429Y-99902943D01*
X182076633Y-99836197D01*
X182070550Y-99796494D01*
X182062588Y-99745429D01*
X182059020Y-99667591D01*
X182059261Y-99631187D01*
X182059287Y-99534749D01*
X182055800Y-99441914D01*
X182054080Y-99418763D01*
X182049315Y-99316746D01*
X182048840Y-99181426D01*
X182052126Y-99030067D01*
X182058644Y-98879936D01*
X182067866Y-98748300D01*
X182077104Y-98666078D01*
X182086795Y-98577592D01*
X182088813Y-98504965D01*
X182084791Y-98472499D01*
X182084229Y-98429417D01*
X182095571Y-98356816D01*
X182115017Y-98269493D01*
X182138767Y-98182246D01*
X182163019Y-98109871D01*
X182183974Y-98067167D01*
X182190269Y-98061802D01*
X182215581Y-98076750D01*
G37*
X182215581Y-98076750D02*
X182254592Y-98122679D01*
X182272254Y-98148295D01*
X182348624Y-98264799D01*
X182402998Y-98345016D01*
X182440284Y-98395749D01*
X182465388Y-98423804D01*
X182477780Y-98433269D01*
X182508422Y-98469157D01*
X182522079Y-98498838D01*
X182546926Y-98538521D01*
X182598951Y-98602056D01*
X182668652Y-98678147D01*
X182698847Y-98709060D01*
X182787561Y-98797614D01*
X182854036Y-98861721D01*
X182911527Y-98913280D01*
X182973289Y-98964186D01*
X183050520Y-99024746D01*
X183109414Y-99072622D01*
X183148227Y-99108283D01*
X183156337Y-99118672D01*
X183178557Y-99137688D01*
X183233890Y-99176624D01*
X183312158Y-99228811D01*
X183403184Y-99287581D01*
X183496793Y-99346266D01*
X183582809Y-99398201D01*
X183584215Y-99399026D01*
X183633842Y-99430115D01*
X183706190Y-99477606D01*
X183758315Y-99512701D01*
X183854848Y-99572099D01*
X183961060Y-99628368D01*
X184007821Y-99649795D01*
X184109117Y-99693965D01*
X184220560Y-99744439D01*
X184267781Y-99766487D01*
X184379786Y-99818571D01*
X184477800Y-99861321D01*
X184576730Y-99900600D01*
X184691482Y-99942272D01*
X184836961Y-99992200D01*
X184869276Y-100003093D01*
X184984656Y-100042083D01*
X185084254Y-100076047D01*
X185157090Y-100101224D01*
X185191497Y-100113573D01*
X185243070Y-100122452D01*
X185296995Y-100122453D01*
X185356240Y-100127636D01*
X185389012Y-100144468D01*
X185422360Y-100162471D01*
X185491500Y-100187518D01*
X185582604Y-100215774D01*
X185681847Y-100243398D01*
X185775398Y-100266555D01*
X185849431Y-100281406D01*
X185890117Y-100284113D01*
X185891142Y-100283823D01*
X185931611Y-100288951D01*
X185962998Y-100303939D01*
X186011321Y-100321514D01*
X186092034Y-100339104D01*
X186179117Y-100351816D01*
X186272207Y-100365225D01*
X186348454Y-100381418D01*
X186388978Y-100395796D01*
X186440686Y-100409670D01*
X186511341Y-100409295D01*
X186514931Y-100408831D01*
X186586262Y-100407903D01*
X186640699Y-100421798D01*
X186642353Y-100422780D01*
X186697302Y-100439337D01*
X186723455Y-100437202D01*
X186774278Y-100435350D01*
X186844429Y-100446023D01*
X186850765Y-100447536D01*
X186971956Y-100471317D01*
X187086494Y-100483069D01*
X187175492Y-100481045D01*
X187188734Y-100478797D01*
X187256885Y-100479650D01*
X187302466Y-100492475D01*
X187361372Y-100507776D01*
X187396476Y-100505815D01*
X187444114Y-100501997D01*
X187456828Y-100505815D01*
X187494116Y-100514961D01*
X187497657Y-100514552D01*
X187532457Y-100513655D01*
X187593579Y-100516059D01*
X187596365Y-100516226D01*
X187663173Y-100519413D01*
X187759973Y-100522984D01*
X187865969Y-100526174D01*
X187867372Y-100526211D01*
X187976242Y-100529653D01*
X188078960Y-100533858D01*
X188152316Y-100537857D01*
X188243385Y-100540313D01*
X188370095Y-100538662D01*
X188517514Y-100533604D01*
X188670709Y-100525840D01*
X188814748Y-100516068D01*
X188934701Y-100504989D01*
X188982580Y-100498946D01*
X189044755Y-100495505D01*
X189116011Y-100497709D01*
X189183361Y-100497062D01*
X189230285Y-100486852D01*
X189230506Y-100486735D01*
X189287455Y-100476194D01*
X189351822Y-100488751D01*
X189399701Y-100518136D01*
X189409007Y-100533561D01*
X189414957Y-100563678D01*
X189407917Y-100591203D01*
X189382808Y-100618902D01*
X189334555Y-100649536D01*
X189258082Y-100685867D01*
X189148313Y-100730657D01*
X189000172Y-100786668D01*
X188828450Y-100849460D01*
X188670247Y-100907657D01*
X188527352Y-100961765D01*
X188406972Y-101008928D01*
X188316315Y-101046293D01*
X188262589Y-101071004D01*
X188251655Y-101077891D01*
X188217051Y-101097437D01*
X188144619Y-101128795D01*
X188044737Y-101167744D01*
X187927781Y-101210062D01*
X187919931Y-101212796D01*
X187685256Y-101295903D01*
X187496099Y-101366339D01*
X187353241Y-101423783D01*
X187257469Y-101467919D01*
X187209563Y-101498427D01*
X187205455Y-101503389D01*
X187173756Y-101527359D01*
X187107419Y-101562465D01*
X187019379Y-101602018D01*
X186996926Y-101611240D01*
X186892831Y-101654688D01*
X186794663Y-101698140D01*
X186722151Y-101732839D01*
X186717071Y-101735488D01*
X186637466Y-101772114D01*
X186539215Y-101810254D01*
X186492871Y-101825973D01*
X186401580Y-101860850D01*
X186318735Y-101902024D01*
X186287107Y-101922312D01*
X186226376Y-101960977D01*
X186126286Y-102016961D01*
X185993744Y-102086614D01*
X185835662Y-102166280D01*
X185703098Y-102231079D01*
X185623563Y-102274246D01*
X185514717Y-102339919D01*
X185388284Y-102420662D01*
X185255986Y-102509033D01*
X185162403Y-102574118D01*
X185058341Y-102646621D01*
X184936518Y-102729622D01*
X184821886Y-102806133D01*
X184813189Y-102811848D01*
X184716289Y-102878195D01*
X184625812Y-102944907D01*
X184558018Y-102999876D01*
X184546341Y-103010535D01*
X184486170Y-103061624D01*
X184433592Y-103096326D01*
X184421828Y-103101460D01*
X184383162Y-103133418D01*
X184375549Y-103157007D01*
X184352594Y-103195053D01*
X184311900Y-103218333D01*
X184252992Y-103251414D01*
X184222649Y-103283419D01*
X184185532Y-103325503D01*
X184125283Y-103377776D01*
X184101215Y-103395960D01*
X184044174Y-103444232D01*
X184009893Y-103486686D01*
X184005623Y-103499437D01*
X183982944Y-103533452D01*
X183942591Y-103555334D01*
X183887165Y-103589631D01*
X183831790Y-103646927D01*
X183825065Y-103656128D01*
X183765517Y-103724677D01*
X183691431Y-103789581D01*
X183678684Y-103798757D01*
X183622362Y-103846096D01*
X183589688Y-103889912D01*
X183586566Y-103901545D01*
X183563845Y-103942658D01*
X183538723Y-103957368D01*
X183490745Y-103992803D01*
X183474555Y-104019274D01*
X183447820Y-104060806D01*
X183398027Y-104120463D01*
X183338208Y-104184441D01*
X183281391Y-104238936D01*
X183240611Y-104270143D01*
X183235653Y-104272334D01*
X183216288Y-104254570D01*
X183189551Y-104201024D01*
X183169436Y-104147135D01*
X183141415Y-104075828D01*
X183115412Y-104031002D01*
X183101791Y-104022411D01*
X183080006Y-104006039D01*
X183055482Y-103955627D01*
X183049966Y-103939269D01*
X183034314Y-103891212D01*
X183004720Y-103802492D01*
X182963680Y-103680510D01*
X182913692Y-103532666D01*
X182857253Y-103366365D01*
X182800329Y-103199180D01*
X182727700Y-102982960D01*
X182659855Y-102774753D01*
X182598496Y-102580292D01*
X182545327Y-102405311D01*
X182502053Y-102255543D01*
X182470376Y-102136721D01*
X182452001Y-102054580D01*
X182448509Y-102015325D01*
X182443677Y-101983746D01*
X182427002Y-101918553D01*
X182404707Y-101842509D01*
X182353977Y-101661833D01*
X182301439Y-101446572D01*
X182250255Y-101212265D01*
X182203587Y-100974456D01*
X182164595Y-100748685D01*
X182136441Y-100550492D01*
X182129791Y-100491086D01*
X182115866Y-100366000D01*
X182099193Y-100232568D01*
X182085055Y-100131209D01*
X182073807Y-100034902D01*
X182069573Y-99950529D01*
X182072429Y-99902943D01*
X182076633Y-99836197D01*
X182070550Y-99796494D01*
X182062588Y-99745429D01*
X182059020Y-99667591D01*
X182059261Y-99631187D01*
X182059287Y-99534749D01*
X182055800Y-99441914D01*
X182054080Y-99418763D01*
X182049315Y-99316746D01*
X182048840Y-99181426D01*
X182052126Y-99030067D01*
X182058644Y-98879936D01*
X182067866Y-98748300D01*
X182077104Y-98666078D01*
X182086795Y-98577592D01*
X182088813Y-98504965D01*
X182084791Y-98472499D01*
X182084229Y-98429417D01*
X182095571Y-98356816D01*
X182115017Y-98269493D01*
X182138767Y-98182246D01*
X182163019Y-98109871D01*
X182183974Y-98067167D01*
X182190269Y-98061802D01*
X182215581Y-98076750D01*
G36*
X182003165Y-98075223D02*
G01*
X182009153Y-98084185D01*
X182008127Y-98114311D01*
X182001207Y-98181605D01*
X181989787Y-98272960D01*
X181986453Y-98297586D01*
X181974438Y-98394296D01*
X181967201Y-98471631D01*
X181965970Y-98515755D01*
X181966670Y-98519759D01*
X181965748Y-98555729D01*
X181955185Y-98623390D01*
X181944340Y-98676020D01*
X181929505Y-98779660D01*
X181920606Y-98925825D01*
X181917352Y-99106624D01*
X181919448Y-99314165D01*
X181926602Y-99540557D01*
X181938521Y-99777908D01*
X181954912Y-100018326D01*
X181975482Y-100253922D01*
X181999939Y-100476803D01*
X182015626Y-100595985D01*
X182027571Y-100693095D01*
X182036369Y-100786730D01*
X182038254Y-100815990D01*
X182046581Y-100883313D01*
X182064715Y-100981737D01*
X182089239Y-101093318D01*
X182097902Y-101128974D01*
X182122123Y-101236181D01*
X182139177Y-101331405D01*
X182146430Y-101399055D01*
X182146089Y-101414090D01*
X182156252Y-101485683D01*
X182188847Y-101531792D01*
X182223758Y-101585988D01*
X182226084Y-101619787D01*
X182226028Y-101664892D01*
X182240480Y-101752121D01*
X182267692Y-101875472D01*
X182305916Y-102028942D01*
X182353404Y-102206526D01*
X182408406Y-102402222D01*
X182469175Y-102610026D01*
X182533962Y-102823934D01*
X182601019Y-103037943D01*
X182668597Y-103246051D01*
X182734949Y-103442252D01*
X182798325Y-103620545D01*
X182844388Y-103742857D01*
X182893799Y-103874218D01*
X182937980Y-103999439D01*
X182972558Y-104105585D01*
X182993156Y-104179723D01*
X182994912Y-104188002D01*
X183017777Y-104304659D01*
X182963218Y-104249195D01*
X182912449Y-104213790D01*
X182868340Y-104207143D01*
X182821945Y-104204244D01*
X182755169Y-104180674D01*
X182733031Y-104169700D01*
X182641173Y-104124042D01*
X182533316Y-104075773D01*
X182420424Y-104029136D01*
X182313464Y-103988370D01*
X182223400Y-103957717D01*
X182161198Y-103941418D01*
X182140716Y-103940590D01*
X182103199Y-103934787D01*
X182079630Y-103923084D01*
X182027604Y-103901592D01*
X181945578Y-103878631D01*
X181849958Y-103857506D01*
X181757143Y-103841530D01*
X181683536Y-103834011D01*
X181649534Y-103836300D01*
X181596247Y-103835292D01*
X181547136Y-103816826D01*
X181488737Y-103795844D01*
X181449075Y-103796041D01*
X181399239Y-103803653D01*
X181314677Y-103808042D01*
X181211379Y-103808911D01*
X181105338Y-103805960D01*
X181060801Y-103803293D01*
X180987671Y-103805077D01*
X180892833Y-103816261D01*
X180840676Y-103825562D01*
X180731517Y-103846002D01*
X180616338Y-103864746D01*
X180573842Y-103870753D01*
X180431540Y-103896853D01*
X180272073Y-103937792D01*
X180114968Y-103987691D01*
X179979753Y-104040669D01*
X179929795Y-104064709D01*
X179834570Y-104112533D01*
X179736690Y-104158408D01*
X179697903Y-104175363D01*
X179609825Y-104219760D01*
X179500713Y-104285104D01*
X179388643Y-104359928D01*
X179291689Y-104432762D01*
X179289832Y-104434279D01*
X179243544Y-104469033D01*
X179180080Y-104513141D01*
X179115736Y-104555711D01*
X179066813Y-104585847D01*
X179051880Y-104593350D01*
X179032675Y-104578645D01*
X179018231Y-104539270D01*
X179016411Y-104501261D01*
X179021270Y-104491996D01*
X179034180Y-104459749D01*
X179048499Y-104396198D01*
X179061049Y-104320636D01*
X179068660Y-104252353D01*
X179068156Y-104210641D01*
X179067778Y-104209342D01*
X179071115Y-104172928D01*
X179088731Y-104109593D01*
X179097361Y-104084858D01*
X179117701Y-104002576D01*
X179121214Y-103926225D01*
X179119061Y-103912151D01*
X179114756Y-103855332D01*
X179125842Y-103824073D01*
X179140281Y-103788226D01*
X179138265Y-103777480D01*
X179140099Y-103737430D01*
X179155961Y-103669305D01*
X179168475Y-103629126D01*
X179189795Y-103552001D01*
X179198364Y-103490710D01*
X179196652Y-103472423D01*
X179199834Y-103425363D01*
X179223674Y-103362240D01*
X179226601Y-103356671D01*
X179249324Y-103298012D01*
X179249630Y-103256796D01*
X179247724Y-103253804D01*
X179243227Y-103215115D01*
X179259490Y-103170843D01*
X179280376Y-103114994D01*
X179280928Y-103079772D01*
X179282439Y-103033118D01*
X179298702Y-102983162D01*
X179319128Y-102922980D01*
X179340883Y-102835513D01*
X179353425Y-102772005D01*
X179371584Y-102686866D01*
X179391664Y-102620650D01*
X179404937Y-102594084D01*
X179421711Y-102547680D01*
X179419391Y-102530378D01*
X179423618Y-102482191D01*
X179432698Y-102467052D01*
X179451866Y-102427476D01*
X179475893Y-102355941D01*
X179493512Y-102291573D01*
X179526422Y-102179796D01*
X179569287Y-102059754D01*
X179591580Y-102005720D01*
X179623045Y-101926190D01*
X179641400Y-101863185D01*
X179643312Y-101835534D01*
X179650920Y-101794983D01*
X179672667Y-101763675D01*
X179705212Y-101708584D01*
X179724525Y-101643005D01*
X179742006Y-101576786D01*
X179774297Y-101487574D01*
X179803910Y-101418114D01*
X179851361Y-101311673D01*
X179903674Y-101189797D01*
X179937086Y-101109269D01*
X179976256Y-101015432D01*
X180013030Y-100931617D01*
X180037271Y-100880385D01*
X180121400Y-100720619D01*
X180186882Y-100604378D01*
X180235550Y-100528702D01*
X180269232Y-100490623D01*
X180281717Y-100484664D01*
X180310401Y-100466366D01*
X180311578Y-100454654D01*
X180301034Y-100405524D01*
X180299212Y-100397365D01*
X180310755Y-100358023D01*
X180338517Y-100324405D01*
X180372126Y-100287217D01*
X180379920Y-100267811D01*
X180390085Y-100240860D01*
X180421432Y-100180587D01*
X180468210Y-100096741D01*
X180524668Y-99999074D01*
X180585059Y-99897336D01*
X180643632Y-99801280D01*
X180694637Y-99720656D01*
X180732326Y-99665214D01*
X180743928Y-99650488D01*
X180799407Y-99592121D01*
X180835440Y-99557291D01*
X180871421Y-99503837D01*
X180880134Y-99460970D01*
X180890668Y-99414148D01*
X180908345Y-99398369D01*
X180946442Y-99368393D01*
X180961448Y-99346100D01*
X180985958Y-99307111D01*
X181032337Y-99239981D01*
X181091913Y-99157160D01*
X181112182Y-99129604D01*
X181172394Y-99045373D01*
X181220005Y-98973479D01*
X181247203Y-98925911D01*
X181250399Y-98917467D01*
X181279078Y-98876558D01*
X181294116Y-98868514D01*
X181326901Y-98836976D01*
X181342935Y-98798736D01*
X181369047Y-98747793D01*
X181395706Y-98727644D01*
X181449489Y-98694563D01*
X181510609Y-98637232D01*
X181560045Y-98574835D01*
X181574694Y-98547089D01*
X181610024Y-98501396D01*
X181633807Y-98487829D01*
X181667591Y-98454562D01*
X181682180Y-98408604D01*
X181707236Y-98348867D01*
X181773769Y-98299163D01*
X181778025Y-98296921D01*
X181854276Y-98239175D01*
X181903719Y-98171013D01*
X181938296Y-98114631D01*
X181975293Y-98079533D01*
X182003165Y-98075223D01*
G37*
X182003165Y-98075223D02*
X182009153Y-98084185D01*
X182008127Y-98114311D01*
X182001207Y-98181605D01*
X181989787Y-98272960D01*
X181986453Y-98297586D01*
X181974438Y-98394296D01*
X181967201Y-98471631D01*
X181965970Y-98515755D01*
X181966670Y-98519759D01*
X181965748Y-98555729D01*
X181955185Y-98623390D01*
X181944340Y-98676020D01*
X181929505Y-98779660D01*
X181920606Y-98925825D01*
X181917352Y-99106624D01*
X181919448Y-99314165D01*
X181926602Y-99540557D01*
X181938521Y-99777908D01*
X181954912Y-100018326D01*
X181975482Y-100253922D01*
X181999939Y-100476803D01*
X182015626Y-100595985D01*
X182027571Y-100693095D01*
X182036369Y-100786730D01*
X182038254Y-100815990D01*
X182046581Y-100883313D01*
X182064715Y-100981737D01*
X182089239Y-101093318D01*
X182097902Y-101128974D01*
X182122123Y-101236181D01*
X182139177Y-101331405D01*
X182146430Y-101399055D01*
X182146089Y-101414090D01*
X182156252Y-101485683D01*
X182188847Y-101531792D01*
X182223758Y-101585988D01*
X182226084Y-101619787D01*
X182226028Y-101664892D01*
X182240480Y-101752121D01*
X182267692Y-101875472D01*
X182305916Y-102028942D01*
X182353404Y-102206526D01*
X182408406Y-102402222D01*
X182469175Y-102610026D01*
X182533962Y-102823934D01*
X182601019Y-103037943D01*
X182668597Y-103246051D01*
X182734949Y-103442252D01*
X182798325Y-103620545D01*
X182844388Y-103742857D01*
X182893799Y-103874218D01*
X182937980Y-103999439D01*
X182972558Y-104105585D01*
X182993156Y-104179723D01*
X182994912Y-104188002D01*
X183017777Y-104304659D01*
X182963218Y-104249195D01*
X182912449Y-104213790D01*
X182868340Y-104207143D01*
X182821945Y-104204244D01*
X182755169Y-104180674D01*
X182733031Y-104169700D01*
X182641173Y-104124042D01*
X182533316Y-104075773D01*
X182420424Y-104029136D01*
X182313464Y-103988370D01*
X182223400Y-103957717D01*
X182161198Y-103941418D01*
X182140716Y-103940590D01*
X182103199Y-103934787D01*
X182079630Y-103923084D01*
X182027604Y-103901592D01*
X181945578Y-103878631D01*
X181849958Y-103857506D01*
X181757143Y-103841530D01*
X181683536Y-103834011D01*
X181649534Y-103836300D01*
X181596247Y-103835292D01*
X181547136Y-103816826D01*
X181488737Y-103795844D01*
X181449075Y-103796041D01*
X181399239Y-103803653D01*
X181314677Y-103808042D01*
X181211379Y-103808911D01*
X181105338Y-103805960D01*
X181060801Y-103803293D01*
X180987671Y-103805077D01*
X180892833Y-103816261D01*
X180840676Y-103825562D01*
X180731517Y-103846002D01*
X180616338Y-103864746D01*
X180573842Y-103870753D01*
X180431540Y-103896853D01*
X180272073Y-103937792D01*
X180114968Y-103987691D01*
X179979753Y-104040669D01*
X179929795Y-104064709D01*
X179834570Y-104112533D01*
X179736690Y-104158408D01*
X179697903Y-104175363D01*
X179609825Y-104219760D01*
X179500713Y-104285104D01*
X179388643Y-104359928D01*
X179291689Y-104432762D01*
X179289832Y-104434279D01*
X179243544Y-104469033D01*
X179180080Y-104513141D01*
X179115736Y-104555711D01*
X179066813Y-104585847D01*
X179051880Y-104593350D01*
X179032675Y-104578645D01*
X179018231Y-104539270D01*
X179016411Y-104501261D01*
X179021270Y-104491996D01*
X179034180Y-104459749D01*
X179048499Y-104396198D01*
X179061049Y-104320636D01*
X179068660Y-104252353D01*
X179068156Y-104210641D01*
X179067778Y-104209342D01*
X179071115Y-104172928D01*
X179088731Y-104109593D01*
X179097361Y-104084858D01*
X179117701Y-104002576D01*
X179121214Y-103926225D01*
X179119061Y-103912151D01*
X179114756Y-103855332D01*
X179125842Y-103824073D01*
X179140281Y-103788226D01*
X179138265Y-103777480D01*
X179140099Y-103737430D01*
X179155961Y-103669305D01*
X179168475Y-103629126D01*
X179189795Y-103552001D01*
X179198364Y-103490710D01*
X179196652Y-103472423D01*
X179199834Y-103425363D01*
X179223674Y-103362240D01*
X179226601Y-103356671D01*
X179249324Y-103298012D01*
X179249630Y-103256796D01*
X179247724Y-103253804D01*
X179243227Y-103215115D01*
X179259490Y-103170843D01*
X179280376Y-103114994D01*
X179280928Y-103079772D01*
X179282439Y-103033118D01*
X179298702Y-102983162D01*
X179319128Y-102922980D01*
X179340883Y-102835513D01*
X179353425Y-102772005D01*
X179371584Y-102686866D01*
X179391664Y-102620650D01*
X179404937Y-102594084D01*
X179421711Y-102547680D01*
X179419391Y-102530378D01*
X179423618Y-102482191D01*
X179432698Y-102467052D01*
X179451866Y-102427476D01*
X179475893Y-102355941D01*
X179493512Y-102291573D01*
X179526422Y-102179796D01*
X179569287Y-102059754D01*
X179591580Y-102005720D01*
X179623045Y-101926190D01*
X179641400Y-101863185D01*
X179643312Y-101835534D01*
X179650920Y-101794983D01*
X179672667Y-101763675D01*
X179705212Y-101708584D01*
X179724525Y-101643005D01*
X179742006Y-101576786D01*
X179774297Y-101487574D01*
X179803910Y-101418114D01*
X179851361Y-101311673D01*
X179903674Y-101189797D01*
X179937086Y-101109269D01*
X179976256Y-101015432D01*
X180013030Y-100931617D01*
X180037271Y-100880385D01*
X180121400Y-100720619D01*
X180186882Y-100604378D01*
X180235550Y-100528702D01*
X180269232Y-100490623D01*
X180281717Y-100484664D01*
X180310401Y-100466366D01*
X180311578Y-100454654D01*
X180301034Y-100405524D01*
X180299212Y-100397365D01*
X180310755Y-100358023D01*
X180338517Y-100324405D01*
X180372126Y-100287217D01*
X180379920Y-100267811D01*
X180390085Y-100240860D01*
X180421432Y-100180587D01*
X180468210Y-100096741D01*
X180524668Y-99999074D01*
X180585059Y-99897336D01*
X180643632Y-99801280D01*
X180694637Y-99720656D01*
X180732326Y-99665214D01*
X180743928Y-99650488D01*
X180799407Y-99592121D01*
X180835440Y-99557291D01*
X180871421Y-99503837D01*
X180880134Y-99460970D01*
X180890668Y-99414148D01*
X180908345Y-99398369D01*
X180946442Y-99368393D01*
X180961448Y-99346100D01*
X180985958Y-99307111D01*
X181032337Y-99239981D01*
X181091913Y-99157160D01*
X181112182Y-99129604D01*
X181172394Y-99045373D01*
X181220005Y-98973479D01*
X181247203Y-98925911D01*
X181250399Y-98917467D01*
X181279078Y-98876558D01*
X181294116Y-98868514D01*
X181326901Y-98836976D01*
X181342935Y-98798736D01*
X181369047Y-98747793D01*
X181395706Y-98727644D01*
X181449489Y-98694563D01*
X181510609Y-98637232D01*
X181560045Y-98574835D01*
X181574694Y-98547089D01*
X181610024Y-98501396D01*
X181633807Y-98487829D01*
X181667591Y-98454562D01*
X181682180Y-98408604D01*
X181707236Y-98348867D01*
X181773769Y-98299163D01*
X181778025Y-98296921D01*
X181854276Y-98239175D01*
X181903719Y-98171013D01*
X181938296Y-98114631D01*
X181975293Y-98079533D01*
X182003165Y-98075223D01*
G36*
X181759031Y-98056513D02*
G01*
X181744618Y-98078521D01*
X181704110Y-98123781D01*
X181671731Y-98156989D01*
X181612893Y-98222011D01*
X181567906Y-98282877D01*
X181556019Y-98304433D01*
X181519065Y-98355086D01*
X181486478Y-98376227D01*
X181452997Y-98399411D01*
X181450028Y-98415121D01*
X181438113Y-98443526D01*
X181425628Y-98450006D01*
X181391794Y-98479609D01*
X181365623Y-98523504D01*
X181337750Y-98572690D01*
X181316247Y-98593467D01*
X181293446Y-98616348D01*
X181249772Y-98672041D01*
X181192460Y-98751041D01*
X181153697Y-98806905D01*
X181092885Y-98893607D01*
X181042532Y-98960963D01*
X181009324Y-99000275D01*
X181000159Y-99006699D01*
X180982417Y-99023739D01*
X180948324Y-99074554D01*
X180906353Y-99146222D01*
X180859732Y-99222981D01*
X180817682Y-99279915D01*
X180791205Y-99303494D01*
X180758233Y-99331915D01*
X180719446Y-99388055D01*
X180710786Y-99403860D01*
X180669804Y-99478326D01*
X180616971Y-99568881D01*
X180588248Y-99616187D01*
X180532719Y-99708393D01*
X180469468Y-99816861D01*
X180428134Y-99889700D01*
X180382411Y-99966835D01*
X180343584Y-100023938D01*
X180320328Y-100048437D01*
X180298001Y-100073700D01*
X180260679Y-100132783D01*
X180215706Y-100213882D01*
X180206961Y-100230693D01*
X180132568Y-100374086D01*
X180076922Y-100478365D01*
X180036321Y-100549989D01*
X180007066Y-100595415D01*
X179985456Y-100621101D01*
X179980927Y-100625103D01*
X179955365Y-100663053D01*
X179925904Y-100730099D01*
X179913899Y-100764531D01*
X179894715Y-100821715D01*
X179872646Y-100880483D01*
X179844005Y-100949307D01*
X179805103Y-101036654D01*
X179752249Y-101150995D01*
X179681759Y-101300799D01*
X179664126Y-101338072D01*
X179611100Y-101455448D01*
X179562544Y-101572405D01*
X179525698Y-101671094D01*
X179513533Y-101709390D01*
X179482296Y-101809999D01*
X179447035Y-101910487D01*
X179432777Y-101947004D01*
X179403733Y-102030283D01*
X179384780Y-102107701D01*
X179382504Y-102123972D01*
X179375854Y-102171765D01*
X179363219Y-102219777D01*
X179339518Y-102283996D01*
X179305032Y-102367657D01*
X179289368Y-102427899D01*
X179290915Y-102466042D01*
X179290363Y-102501877D01*
X179282195Y-102509096D01*
X179267598Y-102534704D01*
X179244333Y-102597480D01*
X179216168Y-102685334D01*
X179186872Y-102786182D01*
X179160215Y-102887935D01*
X179148485Y-102937920D01*
X179139698Y-102977921D01*
X179123517Y-103052025D01*
X179103332Y-103144696D01*
X179101955Y-103151022D01*
X179079341Y-103245519D01*
X179057011Y-103323318D01*
X179039630Y-103368245D01*
X179038987Y-103369318D01*
X179027123Y-103423071D01*
X179033017Y-103461092D01*
X179034332Y-103522520D01*
X179015373Y-103577449D01*
X178996513Y-103630432D01*
X178976968Y-103716030D01*
X178959129Y-103818355D01*
X178945383Y-103921522D01*
X178938116Y-104009645D01*
X178939718Y-104066838D01*
X178941006Y-104072216D01*
X178941247Y-104120620D01*
X178931208Y-104163467D01*
X178920158Y-104223641D01*
X178923252Y-104257695D01*
X178923303Y-104308594D01*
X178912306Y-104345229D01*
X178900522Y-104410027D01*
X178905457Y-104462738D01*
X178908009Y-104526819D01*
X178879038Y-104552808D01*
X178823572Y-104537893D01*
X178798735Y-104522423D01*
X178735192Y-104480183D01*
X178682655Y-104448490D01*
X178637514Y-104409348D01*
X178593928Y-104350855D01*
X178558919Y-104303498D01*
X178530830Y-104285143D01*
X178528848Y-104285506D01*
X178502945Y-104272242D01*
X178493870Y-104254429D01*
X178465354Y-104212886D01*
X178414754Y-104166996D01*
X178414739Y-104166986D01*
X178355818Y-104118540D01*
X178285308Y-104054042D01*
X178258224Y-104027540D01*
X178184695Y-103961162D01*
X178093158Y-103888280D01*
X178035928Y-103847095D01*
X177955539Y-103789790D01*
X177884858Y-103735050D01*
X177849165Y-103704007D01*
X177794443Y-103662207D01*
X177705547Y-103606361D01*
X177594746Y-103543009D01*
X177474306Y-103478691D01*
X177356496Y-103419948D01*
X177253584Y-103373319D01*
X177177837Y-103345344D01*
X177174784Y-103344498D01*
X177084230Y-103315682D01*
X176999095Y-103281867D01*
X176982031Y-103273774D01*
X176908243Y-103249309D01*
X176812650Y-103233149D01*
X176765171Y-103229995D01*
X176680376Y-103223637D01*
X176612694Y-103210970D01*
X176589083Y-103201758D01*
X176545047Y-103190449D01*
X176466581Y-103184025D01*
X176369925Y-103183742D01*
X176360863Y-103184061D01*
X176260564Y-103187282D01*
X176174387Y-103188889D01*
X176120109Y-103188561D01*
X176118250Y-103188472D01*
X176000639Y-103187623D01*
X175852143Y-103196488D01*
X175665446Y-103215384D01*
X175568067Y-103224380D01*
X175492476Y-103227179D01*
X175450736Y-103223502D01*
X175446300Y-103220479D01*
X175455629Y-103189760D01*
X175486650Y-103134245D01*
X175506517Y-103103938D01*
X175558579Y-103024292D01*
X175605680Y-102946263D01*
X175615508Y-102928644D01*
X175676199Y-102822103D01*
X175753327Y-102694676D01*
X175838812Y-102558931D01*
X175924578Y-102427437D01*
X176002544Y-102312764D01*
X176064635Y-102227481D01*
X176072866Y-102217015D01*
X176140974Y-102127157D01*
X176206352Y-102033318D01*
X176243310Y-101974921D01*
X176289840Y-101907875D01*
X176335394Y-101861144D01*
X176353587Y-101850435D01*
X176393047Y-101828224D01*
X176401733Y-101814342D01*
X176417892Y-101782736D01*
X176456637Y-101726148D01*
X176507655Y-101657939D01*
X176560631Y-101591467D01*
X176605254Y-101540089D01*
X176631150Y-101517184D01*
X176660860Y-101491383D01*
X176680141Y-101463981D01*
X176710125Y-101425072D01*
X176765825Y-101362413D01*
X176836656Y-101287785D01*
X176857507Y-101266602D01*
X176951391Y-101168973D01*
X177055727Y-101055861D01*
X177148659Y-100950980D01*
X177152540Y-100946465D01*
X177278417Y-100812031D01*
X177421446Y-100678972D01*
X177562827Y-100564330D01*
X177615307Y-100527040D01*
X177661992Y-100484007D01*
X177701746Y-100434040D01*
X177743497Y-100384430D01*
X177778951Y-100359076D01*
X177822733Y-100332371D01*
X177856638Y-100301706D01*
X177910256Y-100255756D01*
X177946029Y-100233720D01*
X177985171Y-100208990D01*
X178051344Y-100161676D01*
X178132171Y-100101251D01*
X178215270Y-100037186D01*
X178288262Y-99978951D01*
X178338769Y-99936018D01*
X178351506Y-99923497D01*
X178389179Y-99890090D01*
X178450655Y-99843165D01*
X178516909Y-99796523D01*
X178568918Y-99763971D01*
X178576978Y-99759877D01*
X178603318Y-99745829D01*
X178635981Y-99722882D01*
X178686998Y-99682056D01*
X178738689Y-99639187D01*
X178778702Y-99609865D01*
X178848840Y-99562156D01*
X178936240Y-99504748D01*
X178968196Y-99484185D01*
X179068289Y-99419222D01*
X179164996Y-99354924D01*
X179240550Y-99303135D01*
X179253013Y-99294278D01*
X179330085Y-99243310D01*
X179427508Y-99184702D01*
X179497937Y-99145385D01*
X179595192Y-99090072D01*
X179691312Y-99030195D01*
X179746018Y-98992681D01*
X179834908Y-98935752D01*
X179935611Y-98882622D01*
X179965734Y-98869195D01*
X180043791Y-98834169D01*
X180106736Y-98801694D01*
X180126100Y-98789560D01*
X180179556Y-98756936D01*
X180270828Y-98707878D01*
X180391295Y-98646543D01*
X180532333Y-98577090D01*
X180685322Y-98503676D01*
X180841636Y-98430459D01*
X180992657Y-98361598D01*
X181129760Y-98301251D01*
X181201333Y-98271033D01*
X181400212Y-98189512D01*
X181556390Y-98126964D01*
X181668901Y-98083760D01*
X181736781Y-98060273D01*
X181759031Y-98056513D01*
G37*
X181759031Y-98056513D02*
X181744618Y-98078521D01*
X181704110Y-98123781D01*
X181671731Y-98156989D01*
X181612893Y-98222011D01*
X181567906Y-98282877D01*
X181556019Y-98304433D01*
X181519065Y-98355086D01*
X181486478Y-98376227D01*
X181452997Y-98399411D01*
X181450028Y-98415121D01*
X181438113Y-98443526D01*
X181425628Y-98450006D01*
X181391794Y-98479609D01*
X181365623Y-98523504D01*
X181337750Y-98572690D01*
X181316247Y-98593467D01*
X181293446Y-98616348D01*
X181249772Y-98672041D01*
X181192460Y-98751041D01*
X181153697Y-98806905D01*
X181092885Y-98893607D01*
X181042532Y-98960963D01*
X181009324Y-99000275D01*
X181000159Y-99006699D01*
X180982417Y-99023739D01*
X180948324Y-99074554D01*
X180906353Y-99146222D01*
X180859732Y-99222981D01*
X180817682Y-99279915D01*
X180791205Y-99303494D01*
X180758233Y-99331915D01*
X180719446Y-99388055D01*
X180710786Y-99403860D01*
X180669804Y-99478326D01*
X180616971Y-99568881D01*
X180588248Y-99616187D01*
X180532719Y-99708393D01*
X180469468Y-99816861D01*
X180428134Y-99889700D01*
X180382411Y-99966835D01*
X180343584Y-100023938D01*
X180320328Y-100048437D01*
X180298001Y-100073700D01*
X180260679Y-100132783D01*
X180215706Y-100213882D01*
X180206961Y-100230693D01*
X180132568Y-100374086D01*
X180076922Y-100478365D01*
X180036321Y-100549989D01*
X180007066Y-100595415D01*
X179985456Y-100621101D01*
X179980927Y-100625103D01*
X179955365Y-100663053D01*
X179925904Y-100730099D01*
X179913899Y-100764531D01*
X179894715Y-100821715D01*
X179872646Y-100880483D01*
X179844005Y-100949307D01*
X179805103Y-101036654D01*
X179752249Y-101150995D01*
X179681759Y-101300799D01*
X179664126Y-101338072D01*
X179611100Y-101455448D01*
X179562544Y-101572405D01*
X179525698Y-101671094D01*
X179513533Y-101709390D01*
X179482296Y-101809999D01*
X179447035Y-101910487D01*
X179432777Y-101947004D01*
X179403733Y-102030283D01*
X179384780Y-102107701D01*
X179382504Y-102123972D01*
X179375854Y-102171765D01*
X179363219Y-102219777D01*
X179339518Y-102283996D01*
X179305032Y-102367657D01*
X179289368Y-102427899D01*
X179290915Y-102466042D01*
X179290363Y-102501877D01*
X179282195Y-102509096D01*
X179267598Y-102534704D01*
X179244333Y-102597480D01*
X179216168Y-102685334D01*
X179186872Y-102786182D01*
X179160215Y-102887935D01*
X179148485Y-102937920D01*
X179139698Y-102977921D01*
X179123517Y-103052025D01*
X179103332Y-103144696D01*
X179101955Y-103151022D01*
X179079341Y-103245519D01*
X179057011Y-103323318D01*
X179039630Y-103368245D01*
X179038987Y-103369318D01*
X179027123Y-103423071D01*
X179033017Y-103461092D01*
X179034332Y-103522520D01*
X179015373Y-103577449D01*
X178996513Y-103630432D01*
X178976968Y-103716030D01*
X178959129Y-103818355D01*
X178945383Y-103921522D01*
X178938116Y-104009645D01*
X178939718Y-104066838D01*
X178941006Y-104072216D01*
X178941247Y-104120620D01*
X178931208Y-104163467D01*
X178920158Y-104223641D01*
X178923252Y-104257695D01*
X178923303Y-104308594D01*
X178912306Y-104345229D01*
X178900522Y-104410027D01*
X178905457Y-104462738D01*
X178908009Y-104526819D01*
X178879038Y-104552808D01*
X178823572Y-104537893D01*
X178798735Y-104522423D01*
X178735192Y-104480183D01*
X178682655Y-104448490D01*
X178637514Y-104409348D01*
X178593928Y-104350855D01*
X178558919Y-104303498D01*
X178530830Y-104285143D01*
X178528848Y-104285506D01*
X178502945Y-104272242D01*
X178493870Y-104254429D01*
X178465354Y-104212886D01*
X178414754Y-104166996D01*
X178414739Y-104166986D01*
X178355818Y-104118540D01*
X178285308Y-104054042D01*
X178258224Y-104027540D01*
X178184695Y-103961162D01*
X178093158Y-103888280D01*
X178035928Y-103847095D01*
X177955539Y-103789790D01*
X177884858Y-103735050D01*
X177849165Y-103704007D01*
X177794443Y-103662207D01*
X177705547Y-103606361D01*
X177594746Y-103543009D01*
X177474306Y-103478691D01*
X177356496Y-103419948D01*
X177253584Y-103373319D01*
X177177837Y-103345344D01*
X177174784Y-103344498D01*
X177084230Y-103315682D01*
X176999095Y-103281867D01*
X176982031Y-103273774D01*
X176908243Y-103249309D01*
X176812650Y-103233149D01*
X176765171Y-103229995D01*
X176680376Y-103223637D01*
X176612694Y-103210970D01*
X176589083Y-103201758D01*
X176545047Y-103190449D01*
X176466581Y-103184025D01*
X176369925Y-103183742D01*
X176360863Y-103184061D01*
X176260564Y-103187282D01*
X176174387Y-103188889D01*
X176120109Y-103188561D01*
X176118250Y-103188472D01*
X176000639Y-103187623D01*
X175852143Y-103196488D01*
X175665446Y-103215384D01*
X175568067Y-103224380D01*
X175492476Y-103227179D01*
X175450736Y-103223502D01*
X175446300Y-103220479D01*
X175455629Y-103189760D01*
X175486650Y-103134245D01*
X175506517Y-103103938D01*
X175558579Y-103024292D01*
X175605680Y-102946263D01*
X175615508Y-102928644D01*
X175676199Y-102822103D01*
X175753327Y-102694676D01*
X175838812Y-102558931D01*
X175924578Y-102427437D01*
X176002544Y-102312764D01*
X176064635Y-102227481D01*
X176072866Y-102217015D01*
X176140974Y-102127157D01*
X176206352Y-102033318D01*
X176243310Y-101974921D01*
X176289840Y-101907875D01*
X176335394Y-101861144D01*
X176353587Y-101850435D01*
X176393047Y-101828224D01*
X176401733Y-101814342D01*
X176417892Y-101782736D01*
X176456637Y-101726148D01*
X176507655Y-101657939D01*
X176560631Y-101591467D01*
X176605254Y-101540089D01*
X176631150Y-101517184D01*
X176660860Y-101491383D01*
X176680141Y-101463981D01*
X176710125Y-101425072D01*
X176765825Y-101362413D01*
X176836656Y-101287785D01*
X176857507Y-101266602D01*
X176951391Y-101168973D01*
X177055727Y-101055861D01*
X177148659Y-100950980D01*
X177152540Y-100946465D01*
X177278417Y-100812031D01*
X177421446Y-100678972D01*
X177562827Y-100564330D01*
X177615307Y-100527040D01*
X177661992Y-100484007D01*
X177701746Y-100434040D01*
X177743497Y-100384430D01*
X177778951Y-100359076D01*
X177822733Y-100332371D01*
X177856638Y-100301706D01*
X177910256Y-100255756D01*
X177946029Y-100233720D01*
X177985171Y-100208990D01*
X178051344Y-100161676D01*
X178132171Y-100101251D01*
X178215270Y-100037186D01*
X178288262Y-99978951D01*
X178338769Y-99936018D01*
X178351506Y-99923497D01*
X178389179Y-99890090D01*
X178450655Y-99843165D01*
X178516909Y-99796523D01*
X178568918Y-99763971D01*
X178576978Y-99759877D01*
X178603318Y-99745829D01*
X178635981Y-99722882D01*
X178686998Y-99682056D01*
X178738689Y-99639187D01*
X178778702Y-99609865D01*
X178848840Y-99562156D01*
X178936240Y-99504748D01*
X178968196Y-99484185D01*
X179068289Y-99419222D01*
X179164996Y-99354924D01*
X179240550Y-99303135D01*
X179253013Y-99294278D01*
X179330085Y-99243310D01*
X179427508Y-99184702D01*
X179497937Y-99145385D01*
X179595192Y-99090072D01*
X179691312Y-99030195D01*
X179746018Y-98992681D01*
X179834908Y-98935752D01*
X179935611Y-98882622D01*
X179965734Y-98869195D01*
X180043791Y-98834169D01*
X180106736Y-98801694D01*
X180126100Y-98789560D01*
X180179556Y-98756936D01*
X180270828Y-98707878D01*
X180391295Y-98646543D01*
X180532333Y-98577090D01*
X180685322Y-98503676D01*
X180841636Y-98430459D01*
X180992657Y-98361598D01*
X181129760Y-98301251D01*
X181201333Y-98271033D01*
X181400212Y-98189512D01*
X181556390Y-98126964D01*
X181668901Y-98083760D01*
X181736781Y-98060273D01*
X181759031Y-98056513D01*
G36*
X195378155Y-93712507D02*
G01*
X195431332Y-93743582D01*
X195494046Y-93792963D01*
X195571060Y-93862912D01*
X195652322Y-93943071D01*
X195727779Y-94023085D01*
X195787381Y-94092598D01*
X195821074Y-94141253D01*
X195824023Y-94148164D01*
X195850891Y-94192237D01*
X195900171Y-94249009D01*
X195916430Y-94265010D01*
X195967344Y-94317347D01*
X195999624Y-94358307D01*
X196003694Y-94366397D01*
X196024739Y-94399033D01*
X196069666Y-94454892D01*
X196113066Y-94504405D01*
X196177594Y-94580857D01*
X196233988Y-94656621D01*
X196257655Y-94693862D01*
X196295792Y-94757226D01*
X196350005Y-94842000D01*
X196398387Y-94914732D01*
X196665413Y-95336280D01*
X196926935Y-95805858D01*
X197181644Y-96320873D01*
X197428236Y-96878730D01*
X197593179Y-97287819D01*
X197648528Y-97433298D01*
X197710764Y-97602022D01*
X197777871Y-97788052D01*
X197847837Y-97985451D01*
X197918643Y-98188280D01*
X197988277Y-98390600D01*
X198054724Y-98586473D01*
X198115967Y-98769962D01*
X198169992Y-98935128D01*
X198214784Y-99076032D01*
X198248328Y-99186738D01*
X198268610Y-99261305D01*
X198273725Y-99293411D01*
X198247100Y-99330902D01*
X198205426Y-99324586D01*
X198200254Y-99320637D01*
X198160946Y-99305785D01*
X198095639Y-99295200D01*
X198086768Y-99294454D01*
X198008718Y-99278550D01*
X197916972Y-99246292D01*
X197880544Y-99229618D01*
X197804696Y-99198795D01*
X197740951Y-99185110D01*
X197718489Y-99186851D01*
X197658664Y-99187273D01*
X197630404Y-99176000D01*
X197573974Y-99160483D01*
X197545701Y-99164024D01*
X197496150Y-99160680D01*
X197477128Y-99146683D01*
X197435112Y-99130613D01*
X197379591Y-99138976D01*
X197321203Y-99150231D01*
X197285040Y-99143661D01*
X197243799Y-99134185D01*
X197219547Y-99138679D01*
X197169146Y-99137002D01*
X197104639Y-99113696D01*
X197100319Y-99111419D01*
X197031815Y-99087805D01*
X196971202Y-99087498D01*
X196969040Y-99088169D01*
X196916510Y-99095046D01*
X196891497Y-99087195D01*
X196850698Y-99078185D01*
X196822386Y-99083417D01*
X196767724Y-99088074D01*
X196693512Y-99079538D01*
X196681270Y-99076922D01*
X196605477Y-99066565D01*
X196543317Y-99069671D01*
X196536701Y-99071477D01*
X196473126Y-99076620D01*
X196428494Y-99068071D01*
X196358568Y-99060424D01*
X196304828Y-99069057D01*
X196248542Y-99078150D01*
X196216804Y-99070719D01*
X196176548Y-99062270D01*
X196142982Y-99068508D01*
X196077047Y-99072982D01*
X196042798Y-99064352D01*
X195994562Y-99058200D01*
X195913229Y-99061596D01*
X195815438Y-99073754D01*
X195804350Y-99075600D01*
X195706033Y-99088765D01*
X195622615Y-99093422D01*
X195570592Y-99088736D01*
X195567419Y-99087582D01*
X195513905Y-99080058D01*
X195436659Y-99085485D01*
X195407011Y-99090700D01*
X195323742Y-99105491D01*
X195213731Y-99121701D01*
X195100798Y-99135820D01*
X194964905Y-99151685D01*
X194839702Y-99168062D01*
X194713500Y-99186802D01*
X194574614Y-99209765D01*
X194411355Y-99238805D01*
X194212035Y-99275776D01*
X194172762Y-99283165D01*
X193931900Y-99329392D01*
X193738094Y-99368520D01*
X193588201Y-99401266D01*
X193479082Y-99428349D01*
X193407597Y-99450486D01*
X193374561Y-99465640D01*
X193326876Y-99483629D01*
X193301305Y-99478945D01*
X193262066Y-99472008D01*
X193226534Y-99480394D01*
X193161818Y-99502373D01*
X193059043Y-99533484D01*
X192929467Y-99570670D01*
X192784346Y-99610872D01*
X192634938Y-99651031D01*
X192492499Y-99688086D01*
X192368285Y-99718980D01*
X192273554Y-99740653D01*
X192254927Y-99744442D01*
X192143135Y-99769871D01*
X192006307Y-99806252D01*
X191867219Y-99847371D01*
X191810154Y-99865704D01*
X191606696Y-99932306D01*
X191445854Y-99982929D01*
X191322488Y-100018917D01*
X191231460Y-100041614D01*
X191167630Y-100052368D01*
X191125859Y-100052522D01*
X191110874Y-100048752D01*
X191068006Y-100021259D01*
X191069128Y-99986176D01*
X191115628Y-99939317D01*
X191156949Y-99909744D01*
X191232980Y-99857115D01*
X191302652Y-99806370D01*
X191318043Y-99794574D01*
X191369019Y-99757852D01*
X191448368Y-99704138D01*
X191541370Y-99643339D01*
X191569572Y-99625302D01*
X191658994Y-99566860D01*
X191734321Y-99514782D01*
X191783193Y-99477711D01*
X191791853Y-99469788D01*
X191841082Y-99435255D01*
X191898969Y-99409563D01*
X191947600Y-99385774D01*
X191963816Y-99362031D01*
X191963699Y-99361646D01*
X191978421Y-99335246D01*
X192024761Y-99295350D01*
X192055543Y-99274264D01*
X192116281Y-99231216D01*
X192154989Y-99195634D01*
X192161322Y-99185153D01*
X192187547Y-99158336D01*
X192226513Y-99139992D01*
X192288248Y-99109981D01*
X192320547Y-99085423D01*
X192386634Y-99021817D01*
X192457127Y-98957809D01*
X192520270Y-98903649D01*
X192564305Y-98869589D01*
X192575240Y-98863374D01*
X192612886Y-98838121D01*
X192685131Y-98775956D01*
X192791824Y-98677017D01*
X192932811Y-98541443D01*
X192959165Y-98515752D01*
X193032820Y-98445431D01*
X193091995Y-98391936D01*
X193128110Y-98362880D01*
X193134854Y-98359905D01*
X193154523Y-98345456D01*
X193191081Y-98302167D01*
X193202876Y-98286417D01*
X193243713Y-98234192D01*
X193272297Y-98204192D01*
X193275988Y-98201971D01*
X193298780Y-98181963D01*
X193346244Y-98133099D01*
X193409475Y-98064642D01*
X193432004Y-98039643D01*
X193512018Y-97950464D01*
X193591898Y-97861661D01*
X193655662Y-97790999D01*
X193661029Y-97785071D01*
X193729473Y-97705818D01*
X193804668Y-97613416D01*
X193839571Y-97568420D01*
X193893931Y-97501964D01*
X193940654Y-97453992D01*
X193963459Y-97437910D01*
X193989221Y-97414185D01*
X193989052Y-97403171D01*
X194000276Y-97371937D01*
X194037825Y-97321924D01*
X194055871Y-97302278D01*
X194111208Y-97235325D01*
X194172331Y-97147236D01*
X194206452Y-97091068D01*
X194250495Y-97018573D01*
X194287604Y-96966630D01*
X194306322Y-96948709D01*
X194329115Y-96923937D01*
X194368426Y-96865604D01*
X194416830Y-96784952D01*
X194430934Y-96760022D01*
X194480831Y-96675066D01*
X194524105Y-96609276D01*
X194553186Y-96573934D01*
X194557706Y-96571047D01*
X194581416Y-96545213D01*
X194617963Y-96486147D01*
X194657396Y-96410704D01*
X194711484Y-96301452D01*
X194749919Y-96230375D01*
X194777749Y-96189259D01*
X194800023Y-96169883D01*
X194807290Y-96166770D01*
X194828196Y-96138493D01*
X194844418Y-96081722D01*
X194844579Y-96080751D01*
X194863253Y-96016091D01*
X194898435Y-95928842D01*
X194932015Y-95858712D01*
X194969643Y-95780903D01*
X194993907Y-95720649D01*
X194999519Y-95693069D01*
X195006279Y-95660528D01*
X195031093Y-95597974D01*
X195060714Y-95535033D01*
X195122795Y-95397977D01*
X195176683Y-95254770D01*
X195217471Y-95120395D01*
X195240253Y-95009834D01*
X195243144Y-94977808D01*
X195253921Y-94884425D01*
X195274205Y-94793480D01*
X195291258Y-94722429D01*
X195308403Y-94627087D01*
X195323709Y-94522207D01*
X195335245Y-94422545D01*
X195341083Y-94342859D01*
X195339289Y-94297901D01*
X195339117Y-94297308D01*
X195339325Y-94250492D01*
X195349516Y-94207864D01*
X195357042Y-94137541D01*
X195348352Y-94086217D01*
X195339462Y-94014069D01*
X195347186Y-93964571D01*
X195352933Y-93900893D01*
X195340408Y-93824063D01*
X195338183Y-93816803D01*
X195321605Y-93741037D01*
X195334704Y-93706450D01*
X195378155Y-93712507D01*
G37*
X195378155Y-93712507D02*
X195431332Y-93743582D01*
X195494046Y-93792963D01*
X195571060Y-93862912D01*
X195652322Y-93943071D01*
X195727779Y-94023085D01*
X195787381Y-94092598D01*
X195821074Y-94141253D01*
X195824023Y-94148164D01*
X195850891Y-94192237D01*
X195900171Y-94249009D01*
X195916430Y-94265010D01*
X195967344Y-94317347D01*
X195999624Y-94358307D01*
X196003694Y-94366397D01*
X196024739Y-94399033D01*
X196069666Y-94454892D01*
X196113066Y-94504405D01*
X196177594Y-94580857D01*
X196233988Y-94656621D01*
X196257655Y-94693862D01*
X196295792Y-94757226D01*
X196350005Y-94842000D01*
X196398387Y-94914732D01*
X196665413Y-95336280D01*
X196926935Y-95805858D01*
X197181644Y-96320873D01*
X197428236Y-96878730D01*
X197593179Y-97287819D01*
X197648528Y-97433298D01*
X197710764Y-97602022D01*
X197777871Y-97788052D01*
X197847837Y-97985451D01*
X197918643Y-98188280D01*
X197988277Y-98390600D01*
X198054724Y-98586473D01*
X198115967Y-98769962D01*
X198169992Y-98935128D01*
X198214784Y-99076032D01*
X198248328Y-99186738D01*
X198268610Y-99261305D01*
X198273725Y-99293411D01*
X198247100Y-99330902D01*
X198205426Y-99324586D01*
X198200254Y-99320637D01*
X198160946Y-99305785D01*
X198095639Y-99295200D01*
X198086768Y-99294454D01*
X198008718Y-99278550D01*
X197916972Y-99246292D01*
X197880544Y-99229618D01*
X197804696Y-99198795D01*
X197740951Y-99185110D01*
X197718489Y-99186851D01*
X197658664Y-99187273D01*
X197630404Y-99176000D01*
X197573974Y-99160483D01*
X197545701Y-99164024D01*
X197496150Y-99160680D01*
X197477128Y-99146683D01*
X197435112Y-99130613D01*
X197379591Y-99138976D01*
X197321203Y-99150231D01*
X197285040Y-99143661D01*
X197243799Y-99134185D01*
X197219547Y-99138679D01*
X197169146Y-99137002D01*
X197104639Y-99113696D01*
X197100319Y-99111419D01*
X197031815Y-99087805D01*
X196971202Y-99087498D01*
X196969040Y-99088169D01*
X196916510Y-99095046D01*
X196891497Y-99087195D01*
X196850698Y-99078185D01*
X196822386Y-99083417D01*
X196767724Y-99088074D01*
X196693512Y-99079538D01*
X196681270Y-99076922D01*
X196605477Y-99066565D01*
X196543317Y-99069671D01*
X196536701Y-99071477D01*
X196473126Y-99076620D01*
X196428494Y-99068071D01*
X196358568Y-99060424D01*
X196304828Y-99069057D01*
X196248542Y-99078150D01*
X196216804Y-99070719D01*
X196176548Y-99062270D01*
X196142982Y-99068508D01*
X196077047Y-99072982D01*
X196042798Y-99064352D01*
X195994562Y-99058200D01*
X195913229Y-99061596D01*
X195815438Y-99073754D01*
X195804350Y-99075600D01*
X195706033Y-99088765D01*
X195622615Y-99093422D01*
X195570592Y-99088736D01*
X195567419Y-99087582D01*
X195513905Y-99080058D01*
X195436659Y-99085485D01*
X195407011Y-99090700D01*
X195323742Y-99105491D01*
X195213731Y-99121701D01*
X195100798Y-99135820D01*
X194964905Y-99151685D01*
X194839702Y-99168062D01*
X194713500Y-99186802D01*
X194574614Y-99209765D01*
X194411355Y-99238805D01*
X194212035Y-99275776D01*
X194172762Y-99283165D01*
X193931900Y-99329392D01*
X193738094Y-99368520D01*
X193588201Y-99401266D01*
X193479082Y-99428349D01*
X193407597Y-99450486D01*
X193374561Y-99465640D01*
X193326876Y-99483629D01*
X193301305Y-99478945D01*
X193262066Y-99472008D01*
X193226534Y-99480394D01*
X193161818Y-99502373D01*
X193059043Y-99533484D01*
X192929467Y-99570670D01*
X192784346Y-99610872D01*
X192634938Y-99651031D01*
X192492499Y-99688086D01*
X192368285Y-99718980D01*
X192273554Y-99740653D01*
X192254927Y-99744442D01*
X192143135Y-99769871D01*
X192006307Y-99806252D01*
X191867219Y-99847371D01*
X191810154Y-99865704D01*
X191606696Y-99932306D01*
X191445854Y-99982929D01*
X191322488Y-100018917D01*
X191231460Y-100041614D01*
X191167630Y-100052368D01*
X191125859Y-100052522D01*
X191110874Y-100048752D01*
X191068006Y-100021259D01*
X191069128Y-99986176D01*
X191115628Y-99939317D01*
X191156949Y-99909744D01*
X191232980Y-99857115D01*
X191302652Y-99806370D01*
X191318043Y-99794574D01*
X191369019Y-99757852D01*
X191448368Y-99704138D01*
X191541370Y-99643339D01*
X191569572Y-99625302D01*
X191658994Y-99566860D01*
X191734321Y-99514782D01*
X191783193Y-99477711D01*
X191791853Y-99469788D01*
X191841082Y-99435255D01*
X191898969Y-99409563D01*
X191947600Y-99385774D01*
X191963816Y-99362031D01*
X191963699Y-99361646D01*
X191978421Y-99335246D01*
X192024761Y-99295350D01*
X192055543Y-99274264D01*
X192116281Y-99231216D01*
X192154989Y-99195634D01*
X192161322Y-99185153D01*
X192187547Y-99158336D01*
X192226513Y-99139992D01*
X192288248Y-99109981D01*
X192320547Y-99085423D01*
X192386634Y-99021817D01*
X192457127Y-98957809D01*
X192520270Y-98903649D01*
X192564305Y-98869589D01*
X192575240Y-98863374D01*
X192612886Y-98838121D01*
X192685131Y-98775956D01*
X192791824Y-98677017D01*
X192932811Y-98541443D01*
X192959165Y-98515752D01*
X193032820Y-98445431D01*
X193091995Y-98391936D01*
X193128110Y-98362880D01*
X193134854Y-98359905D01*
X193154523Y-98345456D01*
X193191081Y-98302167D01*
X193202876Y-98286417D01*
X193243713Y-98234192D01*
X193272297Y-98204192D01*
X193275988Y-98201971D01*
X193298780Y-98181963D01*
X193346244Y-98133099D01*
X193409475Y-98064642D01*
X193432004Y-98039643D01*
X193512018Y-97950464D01*
X193591898Y-97861661D01*
X193655662Y-97790999D01*
X193661029Y-97785071D01*
X193729473Y-97705818D01*
X193804668Y-97613416D01*
X193839571Y-97568420D01*
X193893931Y-97501964D01*
X193940654Y-97453992D01*
X193963459Y-97437910D01*
X193989221Y-97414185D01*
X193989052Y-97403171D01*
X194000276Y-97371937D01*
X194037825Y-97321924D01*
X194055871Y-97302278D01*
X194111208Y-97235325D01*
X194172331Y-97147236D01*
X194206452Y-97091068D01*
X194250495Y-97018573D01*
X194287604Y-96966630D01*
X194306322Y-96948709D01*
X194329115Y-96923937D01*
X194368426Y-96865604D01*
X194416830Y-96784952D01*
X194430934Y-96760022D01*
X194480831Y-96675066D01*
X194524105Y-96609276D01*
X194553186Y-96573934D01*
X194557706Y-96571047D01*
X194581416Y-96545213D01*
X194617963Y-96486147D01*
X194657396Y-96410704D01*
X194711484Y-96301452D01*
X194749919Y-96230375D01*
X194777749Y-96189259D01*
X194800023Y-96169883D01*
X194807290Y-96166770D01*
X194828196Y-96138493D01*
X194844418Y-96081722D01*
X194844579Y-96080751D01*
X194863253Y-96016091D01*
X194898435Y-95928842D01*
X194932015Y-95858712D01*
X194969643Y-95780903D01*
X194993907Y-95720649D01*
X194999519Y-95693069D01*
X195006279Y-95660528D01*
X195031093Y-95597974D01*
X195060714Y-95535033D01*
X195122795Y-95397977D01*
X195176683Y-95254770D01*
X195217471Y-95120395D01*
X195240253Y-95009834D01*
X195243144Y-94977808D01*
X195253921Y-94884425D01*
X195274205Y-94793480D01*
X195291258Y-94722429D01*
X195308403Y-94627087D01*
X195323709Y-94522207D01*
X195335245Y-94422545D01*
X195341083Y-94342859D01*
X195339289Y-94297901D01*
X195339117Y-94297308D01*
X195339325Y-94250492D01*
X195349516Y-94207864D01*
X195357042Y-94137541D01*
X195348352Y-94086217D01*
X195339462Y-94014069D01*
X195347186Y-93964571D01*
X195352933Y-93900893D01*
X195340408Y-93824063D01*
X195338183Y-93816803D01*
X195321605Y-93741037D01*
X195334704Y-93706450D01*
X195378155Y-93712507D01*
G36*
X195639961Y-93599654D02*
G01*
X195713685Y-93605983D01*
X195805297Y-93617670D01*
X195899013Y-93632389D01*
X195979047Y-93647809D01*
X196029616Y-93661605D01*
X196037258Y-93665487D01*
X196069777Y-93676400D01*
X196138945Y-93692602D01*
X196231299Y-93711011D01*
X196255601Y-93715449D01*
X196365867Y-93737927D01*
X196469931Y-93763712D01*
X196546752Y-93787544D01*
X196551689Y-93789444D01*
X196669581Y-93834623D01*
X196762212Y-93865742D01*
X196850780Y-93889295D01*
X196940576Y-93908597D01*
X197030397Y-93933107D01*
X197127459Y-93969512D01*
X197218429Y-94011530D01*
X197289972Y-94052884D01*
X197328754Y-94087292D01*
X197331367Y-94092668D01*
X197358471Y-94103744D01*
X197418621Y-94106979D01*
X197450339Y-94105489D01*
X197537481Y-94108957D01*
X197615667Y-94127922D01*
X197631679Y-94135340D01*
X197706070Y-94173230D01*
X197808550Y-94220025D01*
X197944869Y-94278221D01*
X198120771Y-94350312D01*
X198206771Y-94384907D01*
X198347347Y-94445275D01*
X198501738Y-94517984D01*
X198644819Y-94590987D01*
X198699066Y-94620865D01*
X198807800Y-94682079D01*
X198911429Y-94739277D01*
X198994837Y-94784167D01*
X199027728Y-94801165D01*
X199117036Y-94850775D01*
X199206017Y-94907291D01*
X199216064Y-94914314D01*
X199280324Y-94955735D01*
X199373119Y-95010399D01*
X199477693Y-95068539D01*
X199512713Y-95087236D01*
X199609765Y-95139680D01*
X199693340Y-95187096D01*
X199750405Y-95221994D01*
X199763581Y-95231316D01*
X199803855Y-95263149D01*
X199871123Y-95316183D01*
X199952445Y-95380218D01*
X199972205Y-95395765D01*
X200048991Y-95457835D01*
X200108410Y-95508990D01*
X200140508Y-95540555D01*
X200143342Y-95544962D01*
X200170559Y-95568086D01*
X200186775Y-95573813D01*
X200225286Y-95594531D01*
X200293115Y-95641591D01*
X200381358Y-95707876D01*
X200481108Y-95786270D01*
X200583457Y-95869656D01*
X200679501Y-95950918D01*
X200760332Y-96022940D01*
X200812624Y-96073883D01*
X200874418Y-96129735D01*
X200935068Y-96170771D01*
X200943716Y-96174958D01*
X200995150Y-96210308D01*
X201017922Y-96242787D01*
X201048158Y-96286165D01*
X201095865Y-96326476D01*
X201143354Y-96363250D01*
X201214386Y-96424539D01*
X201296259Y-96499260D01*
X201326421Y-96527768D01*
X201403314Y-96600397D01*
X201467923Y-96659965D01*
X201510312Y-96697375D01*
X201519394Y-96704491D01*
X201550109Y-96737623D01*
X201587569Y-96792990D01*
X201588849Y-96795153D01*
X201623355Y-96842663D01*
X201650359Y-96861388D01*
X201652216Y-96861071D01*
X201681499Y-96873463D01*
X201705659Y-96899472D01*
X201753628Y-96945458D01*
X201802819Y-96976902D01*
X201848205Y-97011585D01*
X201851978Y-97039284D01*
X201817635Y-97060934D01*
X201750473Y-97076793D01*
X201668315Y-97085072D01*
X201588986Y-97083983D01*
X201530309Y-97071740D01*
X201529972Y-97071593D01*
X201481060Y-97061678D01*
X201457909Y-97070428D01*
X201421983Y-97082942D01*
X201361220Y-97082139D01*
X201359667Y-97081933D01*
X201142656Y-97072877D01*
X200968280Y-97099421D01*
X200881021Y-97118622D01*
X200803855Y-97132382D01*
X200779498Y-97135440D01*
X200713421Y-97147107D01*
X200617888Y-97170825D01*
X200505235Y-97202732D01*
X200387803Y-97238965D01*
X200277931Y-97275660D01*
X200187958Y-97308955D01*
X200130222Y-97334986D01*
X200119379Y-97342104D01*
X200073791Y-97373112D01*
X199998263Y-97417447D01*
X199908419Y-97465973D01*
X199900395Y-97470117D01*
X199670694Y-97608680D01*
X199453295Y-97783938D01*
X199394214Y-97839506D01*
X199316442Y-97912419D01*
X199235670Y-97984548D01*
X199203869Y-98011646D01*
X199152090Y-98060158D01*
X199123821Y-98097474D01*
X199121899Y-98107228D01*
X199109359Y-98133468D01*
X199098190Y-98138978D01*
X199068749Y-98162850D01*
X199016179Y-98218337D01*
X198948042Y-98296571D01*
X198871897Y-98388687D01*
X198795303Y-98485815D01*
X198742135Y-98556586D01*
X198705340Y-98613588D01*
X198653643Y-98702404D01*
X198594812Y-98809389D01*
X198552794Y-98889238D01*
X198498422Y-98990984D01*
X198450173Y-99074548D01*
X198413840Y-99130301D01*
X198396777Y-99148594D01*
X198383228Y-99135481D01*
X198360605Y-99088075D01*
X198327901Y-99003601D01*
X198284107Y-98879286D01*
X198228217Y-98712356D01*
X198159225Y-98500035D01*
X198143158Y-98449983D01*
X198082221Y-98262578D01*
X198015512Y-98062216D01*
X197945088Y-97854659D01*
X197873011Y-97645667D01*
X197801339Y-97441002D01*
X197732130Y-97246425D01*
X197667447Y-97067696D01*
X197609347Y-96910578D01*
X197559890Y-96780831D01*
X197521135Y-96684218D01*
X197495144Y-96626498D01*
X197486407Y-96612826D01*
X197477733Y-96603927D01*
X197466657Y-96587032D01*
X197449799Y-96555290D01*
X197423783Y-96501847D01*
X197385230Y-96419851D01*
X197330761Y-96302450D01*
X197291372Y-96217224D01*
X197247325Y-96124444D01*
X197209834Y-96050171D01*
X197184821Y-96005948D01*
X197179546Y-95999185D01*
X197162154Y-95971005D01*
X197129407Y-95906773D01*
X197086471Y-95816913D01*
X197051397Y-95740539D01*
X196998938Y-95627930D01*
X196947338Y-95523101D01*
X196904066Y-95440955D01*
X196885133Y-95408642D01*
X196842859Y-95340372D01*
X196809513Y-95283474D01*
X196804763Y-95274766D01*
X196772214Y-95219758D01*
X196756712Y-95197061D01*
X196672627Y-95082736D01*
X196614979Y-95001650D01*
X196579078Y-94946897D01*
X196560231Y-94911569D01*
X196556934Y-94902932D01*
X196537052Y-94864156D01*
X196496226Y-94796380D01*
X196442650Y-94712211D01*
X196384521Y-94624261D01*
X196330034Y-94545138D01*
X196287386Y-94487452D01*
X196284700Y-94484102D01*
X196249656Y-94442030D01*
X196195227Y-94377944D01*
X196151945Y-94327500D01*
X196082614Y-94243019D01*
X196015035Y-94154307D01*
X195985232Y-94112104D01*
X195935720Y-94043244D01*
X195890804Y-93988121D01*
X195877214Y-93974041D01*
X195800529Y-93899950D01*
X195723011Y-93820370D01*
X195653887Y-93745332D01*
X195602378Y-93684866D01*
X195577712Y-93649006D01*
X195577296Y-93647882D01*
X195585527Y-93610150D01*
X195599910Y-93601007D01*
X195639961Y-93599654D01*
G37*
X195639961Y-93599654D02*
X195713685Y-93605983D01*
X195805297Y-93617670D01*
X195899013Y-93632389D01*
X195979047Y-93647809D01*
X196029616Y-93661605D01*
X196037258Y-93665487D01*
X196069777Y-93676400D01*
X196138945Y-93692602D01*
X196231299Y-93711011D01*
X196255601Y-93715449D01*
X196365867Y-93737927D01*
X196469931Y-93763712D01*
X196546752Y-93787544D01*
X196551689Y-93789444D01*
X196669581Y-93834623D01*
X196762212Y-93865742D01*
X196850780Y-93889295D01*
X196940576Y-93908597D01*
X197030397Y-93933107D01*
X197127459Y-93969512D01*
X197218429Y-94011530D01*
X197289972Y-94052884D01*
X197328754Y-94087292D01*
X197331367Y-94092668D01*
X197358471Y-94103744D01*
X197418621Y-94106979D01*
X197450339Y-94105489D01*
X197537481Y-94108957D01*
X197615667Y-94127922D01*
X197631679Y-94135340D01*
X197706070Y-94173230D01*
X197808550Y-94220025D01*
X197944869Y-94278221D01*
X198120771Y-94350312D01*
X198206771Y-94384907D01*
X198347347Y-94445275D01*
X198501738Y-94517984D01*
X198644819Y-94590987D01*
X198699066Y-94620865D01*
X198807800Y-94682079D01*
X198911429Y-94739277D01*
X198994837Y-94784167D01*
X199027728Y-94801165D01*
X199117036Y-94850775D01*
X199206017Y-94907291D01*
X199216064Y-94914314D01*
X199280324Y-94955735D01*
X199373119Y-95010399D01*
X199477693Y-95068539D01*
X199512713Y-95087236D01*
X199609765Y-95139680D01*
X199693340Y-95187096D01*
X199750405Y-95221994D01*
X199763581Y-95231316D01*
X199803855Y-95263149D01*
X199871123Y-95316183D01*
X199952445Y-95380218D01*
X199972205Y-95395765D01*
X200048991Y-95457835D01*
X200108410Y-95508990D01*
X200140508Y-95540555D01*
X200143342Y-95544962D01*
X200170559Y-95568086D01*
X200186775Y-95573813D01*
X200225286Y-95594531D01*
X200293115Y-95641591D01*
X200381358Y-95707876D01*
X200481108Y-95786270D01*
X200583457Y-95869656D01*
X200679501Y-95950918D01*
X200760332Y-96022940D01*
X200812624Y-96073883D01*
X200874418Y-96129735D01*
X200935068Y-96170771D01*
X200943716Y-96174958D01*
X200995150Y-96210308D01*
X201017922Y-96242787D01*
X201048158Y-96286165D01*
X201095865Y-96326476D01*
X201143354Y-96363250D01*
X201214386Y-96424539D01*
X201296259Y-96499260D01*
X201326421Y-96527768D01*
X201403314Y-96600397D01*
X201467923Y-96659965D01*
X201510312Y-96697375D01*
X201519394Y-96704491D01*
X201550109Y-96737623D01*
X201587569Y-96792990D01*
X201588849Y-96795153D01*
X201623355Y-96842663D01*
X201650359Y-96861388D01*
X201652216Y-96861071D01*
X201681499Y-96873463D01*
X201705659Y-96899472D01*
X201753628Y-96945458D01*
X201802819Y-96976902D01*
X201848205Y-97011585D01*
X201851978Y-97039284D01*
X201817635Y-97060934D01*
X201750473Y-97076793D01*
X201668315Y-97085072D01*
X201588986Y-97083983D01*
X201530309Y-97071740D01*
X201529972Y-97071593D01*
X201481060Y-97061678D01*
X201457909Y-97070428D01*
X201421983Y-97082942D01*
X201361220Y-97082139D01*
X201359667Y-97081933D01*
X201142656Y-97072877D01*
X200968280Y-97099421D01*
X200881021Y-97118622D01*
X200803855Y-97132382D01*
X200779498Y-97135440D01*
X200713421Y-97147107D01*
X200617888Y-97170825D01*
X200505235Y-97202732D01*
X200387803Y-97238965D01*
X200277931Y-97275660D01*
X200187958Y-97308955D01*
X200130222Y-97334986D01*
X200119379Y-97342104D01*
X200073791Y-97373112D01*
X199998263Y-97417447D01*
X199908419Y-97465973D01*
X199900395Y-97470117D01*
X199670694Y-97608680D01*
X199453295Y-97783938D01*
X199394214Y-97839506D01*
X199316442Y-97912419D01*
X199235670Y-97984548D01*
X199203869Y-98011646D01*
X199152090Y-98060158D01*
X199123821Y-98097474D01*
X199121899Y-98107228D01*
X199109359Y-98133468D01*
X199098190Y-98138978D01*
X199068749Y-98162850D01*
X199016179Y-98218337D01*
X198948042Y-98296571D01*
X198871897Y-98388687D01*
X198795303Y-98485815D01*
X198742135Y-98556586D01*
X198705340Y-98613588D01*
X198653643Y-98702404D01*
X198594812Y-98809389D01*
X198552794Y-98889238D01*
X198498422Y-98990984D01*
X198450173Y-99074548D01*
X198413840Y-99130301D01*
X198396777Y-99148594D01*
X198383228Y-99135481D01*
X198360605Y-99088075D01*
X198327901Y-99003601D01*
X198284107Y-98879286D01*
X198228217Y-98712356D01*
X198159225Y-98500035D01*
X198143158Y-98449983D01*
X198082221Y-98262578D01*
X198015512Y-98062216D01*
X197945088Y-97854659D01*
X197873011Y-97645667D01*
X197801339Y-97441002D01*
X197732130Y-97246425D01*
X197667447Y-97067696D01*
X197609347Y-96910578D01*
X197559890Y-96780831D01*
X197521135Y-96684218D01*
X197495144Y-96626498D01*
X197486407Y-96612826D01*
X197477733Y-96603927D01*
X197466657Y-96587032D01*
X197449799Y-96555290D01*
X197423783Y-96501847D01*
X197385230Y-96419851D01*
X197330761Y-96302450D01*
X197291372Y-96217224D01*
X197247325Y-96124444D01*
X197209834Y-96050171D01*
X197184821Y-96005948D01*
X197179546Y-95999185D01*
X197162154Y-95971005D01*
X197129407Y-95906773D01*
X197086471Y-95816913D01*
X197051397Y-95740539D01*
X196998938Y-95627930D01*
X196947338Y-95523101D01*
X196904066Y-95440955D01*
X196885133Y-95408642D01*
X196842859Y-95340372D01*
X196809513Y-95283474D01*
X196804763Y-95274766D01*
X196772214Y-95219758D01*
X196756712Y-95197061D01*
X196672627Y-95082736D01*
X196614979Y-95001650D01*
X196579078Y-94946897D01*
X196560231Y-94911569D01*
X196556934Y-94902932D01*
X196537052Y-94864156D01*
X196496226Y-94796380D01*
X196442650Y-94712211D01*
X196384521Y-94624261D01*
X196330034Y-94545138D01*
X196287386Y-94487452D01*
X196284700Y-94484102D01*
X196249656Y-94442030D01*
X196195227Y-94377944D01*
X196151945Y-94327500D01*
X196082614Y-94243019D01*
X196015035Y-94154307D01*
X195985232Y-94112104D01*
X195935720Y-94043244D01*
X195890804Y-93988121D01*
X195877214Y-93974041D01*
X195800529Y-93899950D01*
X195723011Y-93820370D01*
X195653887Y-93745332D01*
X195602378Y-93684866D01*
X195577712Y-93649006D01*
X195577296Y-93647882D01*
X195585527Y-93610150D01*
X195599910Y-93601007D01*
X195639961Y-93599654D01*
G36*
X195910974Y-93345287D02*
G01*
X195936610Y-93339691D01*
X196005120Y-93324159D01*
X196107307Y-93298457D01*
X196228032Y-93266481D01*
X196324908Y-93239807D01*
X196446531Y-93207721D01*
X196558632Y-93181741D01*
X196647315Y-93164882D01*
X196692666Y-93159981D01*
X196755686Y-93154184D01*
X196793518Y-93141252D01*
X196794968Y-93139802D01*
X196826586Y-93127502D01*
X196894435Y-93113435D01*
X196984163Y-93100542D01*
X196989085Y-93099968D01*
X197084246Y-93085590D01*
X197162747Y-93067626D01*
X197207623Y-93049961D01*
X197207666Y-93049930D01*
X197258534Y-93032427D01*
X197332289Y-93026870D01*
X197348085Y-93027624D01*
X197411076Y-93028573D01*
X197499879Y-93023527D01*
X197620442Y-93011907D01*
X197778713Y-92993131D01*
X197980640Y-92966619D01*
X197999884Y-92964007D01*
X198099908Y-92951941D01*
X198201039Y-92941989D01*
X198219598Y-92940505D01*
X198311152Y-92932807D01*
X198416864Y-92922780D01*
X198453372Y-92919034D01*
X198537177Y-92912565D01*
X198604996Y-92911448D01*
X198626790Y-92913284D01*
X198674960Y-92914859D01*
X198754109Y-92910788D01*
X198824564Y-92904296D01*
X198914978Y-92898194D01*
X198990201Y-92899840D01*
X199025422Y-92906303D01*
X199088815Y-92914079D01*
X199119646Y-92907907D01*
X199178969Y-92895574D01*
X199247189Y-92891262D01*
X199309596Y-92891095D01*
X199405312Y-92890096D01*
X199516856Y-92888458D01*
X199553881Y-92887816D01*
X199723322Y-92886132D01*
X199877168Y-92887210D01*
X200005326Y-92890826D01*
X200097699Y-92896760D01*
X200126533Y-92900395D01*
X200184173Y-92902307D01*
X200207712Y-92898019D01*
X200250936Y-92894670D01*
X200322397Y-92898688D01*
X200355468Y-92902404D01*
X200429779Y-92909903D01*
X200482713Y-92911375D01*
X200494064Y-92909837D01*
X200528386Y-92909396D01*
X200598373Y-92914724D01*
X200689431Y-92924195D01*
X200786966Y-92936184D01*
X200876386Y-92949066D01*
X200929136Y-92958294D01*
X200990331Y-92968541D01*
X201089223Y-92983040D01*
X201213059Y-93000068D01*
X201349089Y-93017906D01*
X201484559Y-93034834D01*
X201580681Y-93046190D01*
X201668111Y-93058357D01*
X201732401Y-93071416D01*
X201760067Y-93082609D01*
X201760208Y-93082936D01*
X201786080Y-93095539D01*
X201849110Y-93113191D01*
X201936385Y-93132350D01*
X201948965Y-93134790D01*
X202044953Y-93155465D01*
X202124661Y-93176845D01*
X202171690Y-93194494D01*
X202173157Y-93195364D01*
X202223190Y-93212189D01*
X202245620Y-93210533D01*
X202288059Y-93212540D01*
X202353235Y-93230727D01*
X202368622Y-93236537D01*
X202431269Y-93258659D01*
X202471985Y-93267946D01*
X202476496Y-93267574D01*
X202506841Y-93272891D01*
X202570959Y-93292005D01*
X202655086Y-93320803D01*
X202656711Y-93321390D01*
X202768693Y-93361312D01*
X202886798Y-93402640D01*
X202960283Y-93427861D01*
X203088511Y-93472808D01*
X203220704Y-93521759D01*
X203347099Y-93570802D01*
X203457936Y-93616026D01*
X203543450Y-93653521D01*
X203593880Y-93679376D01*
X203600973Y-93684516D01*
X203640959Y-93705338D01*
X203656114Y-93704991D01*
X203693650Y-93709231D01*
X203753041Y-93730239D01*
X203759325Y-93733037D01*
X203811147Y-93760968D01*
X203823796Y-93785776D01*
X203812951Y-93810214D01*
X203776791Y-93841574D01*
X203709116Y-93880967D01*
X203641930Y-93912298D01*
X203557254Y-93951890D01*
X203487761Y-93991652D01*
X203455715Y-94016324D01*
X203412854Y-94051359D01*
X203341852Y-94099703D01*
X203268562Y-94144652D01*
X203191214Y-94192984D01*
X203132371Y-94235834D01*
X203105941Y-94262416D01*
X203071338Y-94294094D01*
X203022162Y-94317406D01*
X202975513Y-94339651D01*
X202961201Y-94359463D01*
X202947371Y-94384844D01*
X202904869Y-94437159D01*
X202841136Y-94507615D01*
X202795682Y-94555058D01*
X202713975Y-94642733D01*
X202640937Y-94728402D01*
X202587914Y-94798460D01*
X202573583Y-94821311D01*
X202538602Y-94879268D01*
X202512536Y-94913486D01*
X202507988Y-94916745D01*
X202485110Y-94943158D01*
X202446621Y-95007647D01*
X202397010Y-95101633D01*
X202340768Y-95216536D01*
X202282384Y-95343778D01*
X202271083Y-95369408D01*
X202169110Y-95635413D01*
X202078203Y-95940150D01*
X202026535Y-96154499D01*
X202007648Y-96243704D01*
X201992213Y-96326728D01*
X201978285Y-96416560D01*
X201963916Y-96526185D01*
X201947162Y-96668590D01*
X201940003Y-96731876D01*
X201927242Y-96822611D01*
X201911191Y-96870650D01*
X201886510Y-96884059D01*
X201847905Y-96870925D01*
X201809773Y-96841420D01*
X201801512Y-96828024D01*
X201781276Y-96801449D01*
X201730900Y-96745132D01*
X201656237Y-96665181D01*
X201563138Y-96567705D01*
X201457451Y-96458813D01*
X201345031Y-96344614D01*
X201231726Y-96231217D01*
X201196403Y-96196260D01*
X201115813Y-96119923D01*
X201037160Y-96050686D01*
X200976556Y-96002689D01*
X200973151Y-96000314D01*
X200917059Y-95954735D01*
X200882354Y-95913522D01*
X200879511Y-95907176D01*
X200846502Y-95873076D01*
X200826328Y-95868006D01*
X200785488Y-95845232D01*
X200769556Y-95818048D01*
X200733790Y-95775472D01*
X200697101Y-95760232D01*
X200639189Y-95731812D01*
X200606910Y-95697540D01*
X200568180Y-95655951D01*
X200538975Y-95643005D01*
X200503478Y-95625536D01*
X200446516Y-95581854D01*
X200394875Y-95535085D01*
X200233845Y-95397038D01*
X200075138Y-95292481D01*
X200020251Y-95253289D01*
X199967678Y-95207770D01*
X199919339Y-95169906D01*
X199840577Y-95117014D01*
X199745551Y-95058432D01*
X199708661Y-95036930D01*
X199619392Y-94984096D01*
X199548907Y-94939206D01*
X199507536Y-94908990D01*
X199501048Y-94901660D01*
X199473832Y-94886767D01*
X199441952Y-94884951D01*
X199390405Y-94866224D01*
X199372771Y-94837921D01*
X199344250Y-94801598D01*
X199319236Y-94799687D01*
X199275928Y-94792016D01*
X199241767Y-94765229D01*
X199178441Y-94705810D01*
X199117570Y-94670226D01*
X199078300Y-94665688D01*
X199046382Y-94656643D01*
X199042185Y-94648834D01*
X199016400Y-94623281D01*
X198959466Y-94585555D01*
X198911871Y-94558856D01*
X198836978Y-94519032D01*
X198733587Y-94463480D01*
X198617768Y-94400853D01*
X198545537Y-94361596D01*
X198444539Y-94308299D01*
X198359435Y-94266594D01*
X198300273Y-94241205D01*
X198278134Y-94235885D01*
X198243554Y-94228846D01*
X198186067Y-94201936D01*
X198169592Y-94192533D01*
X198104680Y-94160738D01*
X198052926Y-94146653D01*
X198045493Y-94146818D01*
X198000306Y-94135419D01*
X197944457Y-94100703D01*
X197943211Y-94099692D01*
X197892300Y-94065800D01*
X197856252Y-94055087D01*
X197855042Y-94055407D01*
X197808159Y-94051999D01*
X197749559Y-94028001D01*
X197704655Y-93995245D01*
X197695846Y-93981295D01*
X197665518Y-93957210D01*
X197615895Y-93946969D01*
X197567872Y-93935827D01*
X197553292Y-93914871D01*
X197536919Y-93892618D01*
X197493324Y-93882883D01*
X197433782Y-93873540D01*
X197402127Y-93859733D01*
X197359779Y-93849463D01*
X197333599Y-93854110D01*
X197283009Y-93850912D01*
X197262403Y-93835944D01*
X197230657Y-93818417D01*
X197217096Y-93824992D01*
X197186873Y-93826115D01*
X197134909Y-93801414D01*
X197120552Y-93791883D01*
X197059542Y-93758950D01*
X197009750Y-93748523D01*
X197003382Y-93749811D01*
X196959061Y-93746424D01*
X196891240Y-93723041D01*
X196855839Y-93706243D01*
X196790190Y-93676371D01*
X196744655Y-93663608D01*
X196733910Y-93665673D01*
X196705135Y-93665698D01*
X196652401Y-93644666D01*
X196644876Y-93640712D01*
X196587247Y-93614852D01*
X196548588Y-93606826D01*
X196546726Y-93607266D01*
X196509839Y-93604208D01*
X196448562Y-93586969D01*
X196437968Y-93583216D01*
X196362194Y-93558939D01*
X196265059Y-93532115D01*
X196211981Y-93519004D01*
X196125597Y-93494965D01*
X196054484Y-93468519D01*
X196026435Y-93453576D01*
X195966679Y-93434828D01*
X195924631Y-93439450D01*
X195870151Y-93444905D01*
X195824281Y-93430750D01*
X195802947Y-93404571D01*
X195809757Y-93384729D01*
X195845590Y-93365167D01*
X195910974Y-93345287D01*
G37*
X195910974Y-93345287D02*
X195936610Y-93339691D01*
X196005120Y-93324159D01*
X196107307Y-93298457D01*
X196228032Y-93266481D01*
X196324908Y-93239807D01*
X196446531Y-93207721D01*
X196558632Y-93181741D01*
X196647315Y-93164882D01*
X196692666Y-93159981D01*
X196755686Y-93154184D01*
X196793518Y-93141252D01*
X196794968Y-93139802D01*
X196826586Y-93127502D01*
X196894435Y-93113435D01*
X196984163Y-93100542D01*
X196989085Y-93099968D01*
X197084246Y-93085590D01*
X197162747Y-93067626D01*
X197207623Y-93049961D01*
X197207666Y-93049930D01*
X197258534Y-93032427D01*
X197332289Y-93026870D01*
X197348085Y-93027624D01*
X197411076Y-93028573D01*
X197499879Y-93023527D01*
X197620442Y-93011907D01*
X197778713Y-92993131D01*
X197980640Y-92966619D01*
X197999884Y-92964007D01*
X198099908Y-92951941D01*
X198201039Y-92941989D01*
X198219598Y-92940505D01*
X198311152Y-92932807D01*
X198416864Y-92922780D01*
X198453372Y-92919034D01*
X198537177Y-92912565D01*
X198604996Y-92911448D01*
X198626790Y-92913284D01*
X198674960Y-92914859D01*
X198754109Y-92910788D01*
X198824564Y-92904296D01*
X198914978Y-92898194D01*
X198990201Y-92899840D01*
X199025422Y-92906303D01*
X199088815Y-92914079D01*
X199119646Y-92907907D01*
X199178969Y-92895574D01*
X199247189Y-92891262D01*
X199309596Y-92891095D01*
X199405312Y-92890096D01*
X199516856Y-92888458D01*
X199553881Y-92887816D01*
X199723322Y-92886132D01*
X199877168Y-92887210D01*
X200005326Y-92890826D01*
X200097699Y-92896760D01*
X200126533Y-92900395D01*
X200184173Y-92902307D01*
X200207712Y-92898019D01*
X200250936Y-92894670D01*
X200322397Y-92898688D01*
X200355468Y-92902404D01*
X200429779Y-92909903D01*
X200482713Y-92911375D01*
X200494064Y-92909837D01*
X200528386Y-92909396D01*
X200598373Y-92914724D01*
X200689431Y-92924195D01*
X200786966Y-92936184D01*
X200876386Y-92949066D01*
X200929136Y-92958294D01*
X200990331Y-92968541D01*
X201089223Y-92983040D01*
X201213059Y-93000068D01*
X201349089Y-93017906D01*
X201484559Y-93034834D01*
X201580681Y-93046190D01*
X201668111Y-93058357D01*
X201732401Y-93071416D01*
X201760067Y-93082609D01*
X201760208Y-93082936D01*
X201786080Y-93095539D01*
X201849110Y-93113191D01*
X201936385Y-93132350D01*
X201948965Y-93134790D01*
X202044953Y-93155465D01*
X202124661Y-93176845D01*
X202171690Y-93194494D01*
X202173157Y-93195364D01*
X202223190Y-93212189D01*
X202245620Y-93210533D01*
X202288059Y-93212540D01*
X202353235Y-93230727D01*
X202368622Y-93236537D01*
X202431269Y-93258659D01*
X202471985Y-93267946D01*
X202476496Y-93267574D01*
X202506841Y-93272891D01*
X202570959Y-93292005D01*
X202655086Y-93320803D01*
X202656711Y-93321390D01*
X202768693Y-93361312D01*
X202886798Y-93402640D01*
X202960283Y-93427861D01*
X203088511Y-93472808D01*
X203220704Y-93521759D01*
X203347099Y-93570802D01*
X203457936Y-93616026D01*
X203543450Y-93653521D01*
X203593880Y-93679376D01*
X203600973Y-93684516D01*
X203640959Y-93705338D01*
X203656114Y-93704991D01*
X203693650Y-93709231D01*
X203753041Y-93730239D01*
X203759325Y-93733037D01*
X203811147Y-93760968D01*
X203823796Y-93785776D01*
X203812951Y-93810214D01*
X203776791Y-93841574D01*
X203709116Y-93880967D01*
X203641930Y-93912298D01*
X203557254Y-93951890D01*
X203487761Y-93991652D01*
X203455715Y-94016324D01*
X203412854Y-94051359D01*
X203341852Y-94099703D01*
X203268562Y-94144652D01*
X203191214Y-94192984D01*
X203132371Y-94235834D01*
X203105941Y-94262416D01*
X203071338Y-94294094D01*
X203022162Y-94317406D01*
X202975513Y-94339651D01*
X202961201Y-94359463D01*
X202947371Y-94384844D01*
X202904869Y-94437159D01*
X202841136Y-94507615D01*
X202795682Y-94555058D01*
X202713975Y-94642733D01*
X202640937Y-94728402D01*
X202587914Y-94798460D01*
X202573583Y-94821311D01*
X202538602Y-94879268D01*
X202512536Y-94913486D01*
X202507988Y-94916745D01*
X202485110Y-94943158D01*
X202446621Y-95007647D01*
X202397010Y-95101633D01*
X202340768Y-95216536D01*
X202282384Y-95343778D01*
X202271083Y-95369408D01*
X202169110Y-95635413D01*
X202078203Y-95940150D01*
X202026535Y-96154499D01*
X202007648Y-96243704D01*
X201992213Y-96326728D01*
X201978285Y-96416560D01*
X201963916Y-96526185D01*
X201947162Y-96668590D01*
X201940003Y-96731876D01*
X201927242Y-96822611D01*
X201911191Y-96870650D01*
X201886510Y-96884059D01*
X201847905Y-96870925D01*
X201809773Y-96841420D01*
X201801512Y-96828024D01*
X201781276Y-96801449D01*
X201730900Y-96745132D01*
X201656237Y-96665181D01*
X201563138Y-96567705D01*
X201457451Y-96458813D01*
X201345031Y-96344614D01*
X201231726Y-96231217D01*
X201196403Y-96196260D01*
X201115813Y-96119923D01*
X201037160Y-96050686D01*
X200976556Y-96002689D01*
X200973151Y-96000314D01*
X200917059Y-95954735D01*
X200882354Y-95913522D01*
X200879511Y-95907176D01*
X200846502Y-95873076D01*
X200826328Y-95868006D01*
X200785488Y-95845232D01*
X200769556Y-95818048D01*
X200733790Y-95775472D01*
X200697101Y-95760232D01*
X200639189Y-95731812D01*
X200606910Y-95697540D01*
X200568180Y-95655951D01*
X200538975Y-95643005D01*
X200503478Y-95625536D01*
X200446516Y-95581854D01*
X200394875Y-95535085D01*
X200233845Y-95397038D01*
X200075138Y-95292481D01*
X200020251Y-95253289D01*
X199967678Y-95207770D01*
X199919339Y-95169906D01*
X199840577Y-95117014D01*
X199745551Y-95058432D01*
X199708661Y-95036930D01*
X199619392Y-94984096D01*
X199548907Y-94939206D01*
X199507536Y-94908990D01*
X199501048Y-94901660D01*
X199473832Y-94886767D01*
X199441952Y-94884951D01*
X199390405Y-94866224D01*
X199372771Y-94837921D01*
X199344250Y-94801598D01*
X199319236Y-94799687D01*
X199275928Y-94792016D01*
X199241767Y-94765229D01*
X199178441Y-94705810D01*
X199117570Y-94670226D01*
X199078300Y-94665688D01*
X199046382Y-94656643D01*
X199042185Y-94648834D01*
X199016400Y-94623281D01*
X198959466Y-94585555D01*
X198911871Y-94558856D01*
X198836978Y-94519032D01*
X198733587Y-94463480D01*
X198617768Y-94400853D01*
X198545537Y-94361596D01*
X198444539Y-94308299D01*
X198359435Y-94266594D01*
X198300273Y-94241205D01*
X198278134Y-94235885D01*
X198243554Y-94228846D01*
X198186067Y-94201936D01*
X198169592Y-94192533D01*
X198104680Y-94160738D01*
X198052926Y-94146653D01*
X198045493Y-94146818D01*
X198000306Y-94135419D01*
X197944457Y-94100703D01*
X197943211Y-94099692D01*
X197892300Y-94065800D01*
X197856252Y-94055087D01*
X197855042Y-94055407D01*
X197808159Y-94051999D01*
X197749559Y-94028001D01*
X197704655Y-93995245D01*
X197695846Y-93981295D01*
X197665518Y-93957210D01*
X197615895Y-93946969D01*
X197567872Y-93935827D01*
X197553292Y-93914871D01*
X197536919Y-93892618D01*
X197493324Y-93882883D01*
X197433782Y-93873540D01*
X197402127Y-93859733D01*
X197359779Y-93849463D01*
X197333599Y-93854110D01*
X197283009Y-93850912D01*
X197262403Y-93835944D01*
X197230657Y-93818417D01*
X197217096Y-93824992D01*
X197186873Y-93826115D01*
X197134909Y-93801414D01*
X197120552Y-93791883D01*
X197059542Y-93758950D01*
X197009750Y-93748523D01*
X197003382Y-93749811D01*
X196959061Y-93746424D01*
X196891240Y-93723041D01*
X196855839Y-93706243D01*
X196790190Y-93676371D01*
X196744655Y-93663608D01*
X196733910Y-93665673D01*
X196705135Y-93665698D01*
X196652401Y-93644666D01*
X196644876Y-93640712D01*
X196587247Y-93614852D01*
X196548588Y-93606826D01*
X196546726Y-93607266D01*
X196509839Y-93604208D01*
X196448562Y-93586969D01*
X196437968Y-93583216D01*
X196362194Y-93558939D01*
X196265059Y-93532115D01*
X196211981Y-93519004D01*
X196125597Y-93494965D01*
X196054484Y-93468519D01*
X196026435Y-93453576D01*
X195966679Y-93434828D01*
X195924631Y-93439450D01*
X195870151Y-93444905D01*
X195824281Y-93430750D01*
X195802947Y-93404571D01*
X195809757Y-93384729D01*
X195845590Y-93365167D01*
X195910974Y-93345287D01*
D12*
X155663069Y-72011962D02*
X155363069Y-72011962D01*
X155663069Y-68711962D02*
X155663069Y-72011962D01*
X155363069Y-68711962D02*
X155663069Y-68711962D01*
X152863069Y-72011962D02*
X153163069Y-72011962D01*
X152863069Y-68711962D02*
X152863069Y-72011962D01*
X153163069Y-68711962D02*
X152863069Y-68711962D01*
D14*
X150805641Y-71020620D02*
X150805641Y-70670620D01*
X143305641Y-71020620D02*
X143305641Y-70670620D01*
X150805641Y-68320620D02*
X150805641Y-68045620D01*
X150805641Y-68045620D02*
X143305641Y-68045620D01*
X143305641Y-68045620D02*
X143305641Y-68320620D01*
X148885641Y-72395620D02*
X148775641Y-72395620D01*
X145335641Y-72395620D02*
X145225641Y-72395620D01*
D11*
X148555641Y-73470620D02*
G75*
G03*
X148555641Y-73470620I-100000J0D01*
G01*
D12*
X154021647Y-75151962D02*
X153504491Y-75151962D01*
X154021647Y-76571962D02*
X153504491Y-76571962D01*
X182492973Y-93361136D02*
X178792357Y-94592167D01*
X181861675Y-91463384D02*
X178161059Y-92694415D01*
X182492973Y-93361136D02*
X181861675Y-91463384D01*
X199572744Y-87679454D02*
X195872128Y-88910485D01*
X198941446Y-85781702D02*
X195240830Y-87012733D01*
X199572744Y-87679454D02*
X198941446Y-85781702D01*
X214758617Y-76304517D02*
X211058001Y-77535548D01*
X214127319Y-74406765D02*
X210426703Y-75637796D01*
X214758617Y-76304517D02*
X214127319Y-74406765D01*
X233732279Y-76316088D02*
X230031663Y-77547119D01*
X233100981Y-74418336D02*
X229400365Y-75649367D01*
X233732279Y-76316088D02*
X233100981Y-74418336D01*
X256493730Y-87714176D02*
X252793114Y-88945207D01*
X255862432Y-85816424D02*
X252161816Y-87047455D01*
X256493730Y-87714176D02*
X255862432Y-85816424D01*
X273573496Y-82032494D02*
X269872880Y-83263525D01*
X272942198Y-80134742D02*
X269241582Y-81365773D01*
X273573496Y-82032494D02*
X272942198Y-80134742D01*
X177126940Y-77230244D02*
X173426324Y-78461275D01*
X176495642Y-75332492D02*
X172795026Y-76563523D01*
X177126940Y-77230244D02*
X176495642Y-75332492D01*
X194206710Y-71548560D02*
X190506094Y-72779591D01*
X193575412Y-69650808D02*
X189874796Y-70881839D01*
X194206710Y-71548560D02*
X193575412Y-69650808D01*
X209392584Y-60173625D02*
X205691968Y-61404656D01*
X208761286Y-58275873D02*
X205060670Y-59506904D01*
X209392584Y-60173625D02*
X208761286Y-58275873D01*
X228366245Y-60185198D02*
X224665629Y-61416229D01*
X227734947Y-58287446D02*
X224034331Y-59518477D01*
X228366245Y-60185198D02*
X227734947Y-58287446D01*
X251127697Y-71583283D02*
X247427081Y-72814314D01*
X250496399Y-69685531D02*
X246795783Y-70916562D01*
X251127697Y-71583283D02*
X250496399Y-69685531D01*
X268207467Y-65901601D02*
X264506851Y-67132632D01*
X267576169Y-64003849D02*
X263875553Y-65234880D01*
X268207467Y-65901601D02*
X267576169Y-64003849D01*
X180573039Y-130358623D02*
X176872423Y-131589654D01*
X179941741Y-128460871D02*
X176241125Y-129691902D01*
X180573039Y-130358623D02*
X179941741Y-128460871D01*
X197652808Y-124676938D02*
X193952192Y-125907969D01*
X197021510Y-122779186D02*
X193320894Y-124010217D01*
X197652808Y-124676938D02*
X197021510Y-122779186D01*
X214732576Y-118995258D02*
X211031960Y-120226289D01*
X214101278Y-117097506D02*
X210400662Y-118328537D01*
X214732576Y-118995258D02*
X214101278Y-117097506D01*
X117458285Y-131782260D02*
X113757669Y-130551229D01*
X118089583Y-129884508D02*
X114388967Y-128653477D01*
X117458285Y-131782260D02*
X118089583Y-129884508D01*
X100378516Y-126100577D02*
X96677900Y-124869546D01*
X101009814Y-124202825D02*
X97309198Y-122971794D01*
X100378516Y-126100577D02*
X101009814Y-124202825D01*
X83298748Y-120418896D02*
X79598132Y-119187865D01*
X83930046Y-118521144D02*
X80229430Y-117290113D01*
X83298748Y-120418896D02*
X83930046Y-118521144D01*
X115538350Y-94784775D02*
X111837734Y-93553744D01*
X116169648Y-92887023D02*
X112469032Y-91655992D01*
X115538350Y-94784775D02*
X116169648Y-92887023D01*
X98458584Y-89103093D02*
X94757968Y-87872062D01*
X99089882Y-87205341D02*
X95389266Y-85974310D01*
X98458584Y-89103093D02*
X99089882Y-87205341D01*
X83272709Y-77728154D02*
X79572093Y-76497123D01*
X83904007Y-75830402D02*
X80203391Y-74599371D01*
X83272709Y-77728154D02*
X83904007Y-75830402D01*
X64299045Y-77739728D02*
X60598429Y-76508697D01*
X64930343Y-75841976D02*
X61229727Y-74610945D01*
X64299045Y-77739728D02*
X64930343Y-75841976D01*
X41537594Y-89137811D02*
X37836978Y-87906780D01*
X42168892Y-87240059D02*
X38468276Y-86009028D01*
X41537594Y-89137811D02*
X42168892Y-87240059D01*
X24457826Y-83456130D02*
X20757210Y-82225099D01*
X25089124Y-81558378D02*
X21388508Y-80327347D01*
X24457826Y-83456130D02*
X25089124Y-81558378D01*
X120904385Y-78653883D02*
X117203769Y-77422852D01*
X121535683Y-76756131D02*
X117835067Y-75525100D01*
X120904385Y-78653883D02*
X121535683Y-76756131D01*
X103824616Y-72972201D02*
X100124000Y-71741170D01*
X104455914Y-71074449D02*
X100755298Y-69843418D01*
X103824616Y-72972201D02*
X104455914Y-71074449D01*
X88638743Y-61597261D02*
X84938127Y-60366230D01*
X89270041Y-59699509D02*
X85569425Y-58468478D01*
X88638743Y-61597261D02*
X89270041Y-59699509D01*
X69665079Y-61608835D02*
X65964463Y-60377804D01*
X70296377Y-59711083D02*
X66595761Y-58480052D01*
X69665079Y-61608835D02*
X70296377Y-59711083D01*
X46903629Y-73006921D02*
X43203013Y-71775890D01*
X47534927Y-71109169D02*
X43834311Y-69878138D01*
X46903629Y-73006921D02*
X47534927Y-71109169D01*
X29823861Y-67325238D02*
X26123245Y-66094207D01*
X30455159Y-65427486D02*
X26754543Y-64196455D01*
X29823861Y-67325238D02*
X30455159Y-65427486D01*
D10*
X134882116Y-70814342D02*
X134882116Y-69814342D01*
X135120211Y-69814342D01*
X135263069Y-69861962D01*
X135358307Y-69957200D01*
X135405926Y-70052438D01*
X135453545Y-70242914D01*
X135453545Y-70385771D01*
X135405926Y-70576247D01*
X135358307Y-70671485D01*
X135263069Y-70766723D01*
X135120211Y-70814342D01*
X134882116Y-70814342D01*
X135882116Y-70814342D02*
X135882116Y-69814342D01*
X136929735Y-70719104D02*
X136882116Y-70766723D01*
X136739259Y-70814342D01*
X136644021Y-70814342D01*
X136501164Y-70766723D01*
X136405926Y-70671485D01*
X136358307Y-70576247D01*
X136310688Y-70385771D01*
X136310688Y-70242914D01*
X136358307Y-70052438D01*
X136405926Y-69957200D01*
X136501164Y-69861962D01*
X136644021Y-69814342D01*
X136739259Y-69814342D01*
X136882116Y-69861962D01*
X136929735Y-69909581D01*
X137215449Y-69814342D02*
X137786878Y-69814342D01*
X137501164Y-70814342D02*
X137501164Y-69814342D01*
X140596402Y-76964342D02*
X140263069Y-76488152D01*
X140024973Y-76964342D02*
X140024973Y-75964342D01*
X140405926Y-75964342D01*
X140501164Y-76011962D01*
X140548783Y-76059581D01*
X140596402Y-76154819D01*
X140596402Y-76297676D01*
X140548783Y-76392914D01*
X140501164Y-76440533D01*
X140405926Y-76488152D01*
X140024973Y-76488152D01*
X141453545Y-75964342D02*
X141263069Y-75964342D01*
X141167830Y-76011962D01*
X141120211Y-76059581D01*
X141024973Y-76202438D01*
X140977354Y-76392914D01*
X140977354Y-76773866D01*
X141024973Y-76869104D01*
X141072592Y-76916723D01*
X141167830Y-76964342D01*
X141358307Y-76964342D01*
X141453545Y-76916723D01*
X141501164Y-76869104D01*
X141548783Y-76773866D01*
X141548783Y-76535771D01*
X141501164Y-76440533D01*
X141453545Y-76392914D01*
X141358307Y-76345295D01*
X141167830Y-76345295D01*
X141072592Y-76392914D01*
X141024973Y-76440533D01*
X140977354Y-76535771D01*
X156910688Y-70814342D02*
X156577354Y-70338152D01*
X156339259Y-70814342D02*
X156339259Y-69814342D01*
X156720211Y-69814342D01*
X156815449Y-69861962D01*
X156863069Y-69909581D01*
X156910688Y-70004819D01*
X156910688Y-70147676D01*
X156863069Y-70242914D01*
X156815449Y-70290533D01*
X156720211Y-70338152D01*
X156339259Y-70338152D01*
X157339259Y-70290533D02*
X157672592Y-70290533D01*
X157815449Y-70814342D02*
X157339259Y-70814342D01*
X157339259Y-69814342D01*
X157815449Y-69814342D01*
X158196402Y-70766723D02*
X158339259Y-70814342D01*
X158577354Y-70814342D01*
X158672592Y-70766723D01*
X158720211Y-70719104D01*
X158767830Y-70623866D01*
X158767830Y-70528628D01*
X158720211Y-70433390D01*
X158672592Y-70385771D01*
X158577354Y-70338152D01*
X158386878Y-70290533D01*
X158291640Y-70242914D01*
X158244021Y-70195295D01*
X158196402Y-70100057D01*
X158196402Y-70004819D01*
X158244021Y-69909581D01*
X158291640Y-69861962D01*
X158386878Y-69814342D01*
X158624973Y-69814342D01*
X158767830Y-69861962D01*
X159196402Y-70290533D02*
X159529735Y-70290533D01*
X159672592Y-70814342D02*
X159196402Y-70814342D01*
X159196402Y-69814342D01*
X159672592Y-69814342D01*
X159958307Y-69814342D02*
X160529735Y-69814342D01*
X160244021Y-70814342D02*
X160244021Y-69814342D01*
X153596402Y-77964342D02*
X153263069Y-77488152D01*
X153024973Y-77964342D02*
X153024973Y-76964342D01*
X153405926Y-76964342D01*
X153501164Y-77011962D01*
X153548783Y-77059581D01*
X153596402Y-77154819D01*
X153596402Y-77297676D01*
X153548783Y-77392914D01*
X153501164Y-77440533D01*
X153405926Y-77488152D01*
X153024973Y-77488152D01*
X154548783Y-77964342D02*
X153977354Y-77964342D01*
X154263069Y-77964342D02*
X154263069Y-76964342D01*
X154167830Y-77107200D01*
X154072592Y-77202438D01*
X153977354Y-77250057D01*
X153167830Y-79314342D02*
X152596402Y-79314342D01*
X152882116Y-79314342D02*
X152882116Y-78314342D01*
X152786878Y-78457200D01*
X152691640Y-78552438D01*
X152596402Y-78600057D01*
X153786878Y-78314342D02*
X153882116Y-78314342D01*
X153977354Y-78361962D01*
X154024973Y-78409581D01*
X154072592Y-78504819D01*
X154120211Y-78695295D01*
X154120211Y-78933390D01*
X154072592Y-79123866D01*
X154024973Y-79219104D01*
X153977354Y-79266723D01*
X153882116Y-79314342D01*
X153786878Y-79314342D01*
X153691640Y-79266723D01*
X153644021Y-79219104D01*
X153596402Y-79123866D01*
X153548783Y-78933390D01*
X153548783Y-78695295D01*
X153596402Y-78504819D01*
X153644021Y-78409581D01*
X153691640Y-78361962D01*
X153786878Y-78314342D01*
X154548783Y-79314342D02*
X154548783Y-78314342D01*
X154644021Y-78933390D02*
X154929735Y-79314342D01*
X154929735Y-78647676D02*
X154548783Y-79028628D01*
M02*
