G04 #@! TF.GenerationSoftware,KiCad,Pcbnew,5.1.5-52549c5~84~ubuntu19.04.1*
G04 #@! TF.CreationDate,2020-02-26T12:25:17-06:00*
G04 #@! TF.ProjectId,fissure,66697373-7572-4652-9e6b-696361645f70,rev?*
G04 #@! TF.SameCoordinates,Original*
G04 #@! TF.FileFunction,Copper,L2,Bot*
G04 #@! TF.FilePolarity,Positive*
%FSLAX46Y46*%
G04 Gerber Fmt 4.6, Leading zero omitted, Abs format (unit mm)*
G04 Created by KiCad (PCBNEW 5.1.5-52549c5~84~ubuntu19.04.1) date 2020-02-26 12:25:17*
%MOMM*%
%LPD*%
G04 APERTURE LIST*
%ADD10R,1.100000X1.100000*%
%ADD11C,1.778000*%
%ADD12R,1.778000X1.778000*%
%ADD13C,3.302000*%
%ADD14C,2.000000*%
%ADD15C,0.800000*%
%ADD16C,0.508000*%
G04 APERTURE END LIST*
D10*
X165147000Y-115299000D03*
X167947000Y-115299000D03*
X165147000Y-111299000D03*
X167947000Y-111299000D03*
X165147000Y-113299000D03*
X167947000Y-113299000D03*
D11*
X133887000Y-120349000D03*
X133887000Y-117809000D03*
X133887000Y-115269000D03*
X133887000Y-112729000D03*
X133887000Y-110189000D03*
X133887000Y-107649000D03*
X133887000Y-105109000D03*
X133887000Y-102569000D03*
X133887000Y-100029000D03*
X133887000Y-97489000D03*
D12*
X133887000Y-92409000D03*
D11*
X133887000Y-94949000D03*
D12*
X154207000Y-120349000D03*
D11*
X154207000Y-117809000D03*
X154207000Y-115269000D03*
X154207000Y-112729000D03*
X154207000Y-110189000D03*
X154207000Y-107649000D03*
X154207000Y-105109000D03*
X154207000Y-102569000D03*
X154207000Y-100029000D03*
X154207000Y-97489000D03*
X154207000Y-94949000D03*
X154207000Y-92409000D03*
X154207000Y-89869000D03*
X154207000Y-87329000D03*
X154207000Y-84789000D03*
X154207000Y-82249000D03*
D13*
X135157000Y-124159000D03*
X152937000Y-124159000D03*
X152937000Y-78439000D03*
X135157000Y-78439000D03*
D10*
X183147000Y-115299000D03*
X185947000Y-115299000D03*
X149947000Y-115299000D03*
X147147000Y-115299000D03*
X128747000Y-115299000D03*
X125947000Y-115299000D03*
X110947000Y-115299000D03*
X108147000Y-115299000D03*
X91947000Y-115299000D03*
X89147000Y-115299000D03*
X220147000Y-113299000D03*
X222947000Y-113299000D03*
X202147000Y-113299000D03*
X204947000Y-113299000D03*
X183147000Y-113299000D03*
X185947000Y-113299000D03*
X149947000Y-113299000D03*
X147147000Y-113299000D03*
X238147000Y-113299000D03*
X240947000Y-113299000D03*
X128747000Y-113299000D03*
X125947000Y-113299000D03*
X110947000Y-113299000D03*
X108147000Y-113299000D03*
X91947000Y-113299000D03*
X89147000Y-113299000D03*
X75347000Y-113299000D03*
X72547000Y-113299000D03*
X61697000Y-113299000D03*
X58897000Y-113299000D03*
X220147000Y-111299000D03*
X222947000Y-111299000D03*
X202147000Y-111299000D03*
X204947000Y-111299000D03*
X183147000Y-111299000D03*
X185947000Y-111299000D03*
X149947000Y-111299000D03*
X147147000Y-111299000D03*
X238147000Y-111299000D03*
X240947000Y-111299000D03*
X128747000Y-111349000D03*
X125947000Y-111349000D03*
X110947000Y-111299000D03*
X108147000Y-111299000D03*
X91947000Y-111299000D03*
X89147000Y-111299000D03*
X75347000Y-111299000D03*
X72547000Y-111299000D03*
X61697000Y-111299000D03*
X58897000Y-111299000D03*
D14*
X112047000Y-80499000D03*
X107047000Y-78399000D03*
X130547000Y-97999000D03*
X125547000Y-95899000D03*
X241547000Y-97999000D03*
X236547000Y-95899000D03*
X241547000Y-80499000D03*
X236547000Y-78399000D03*
X176047000Y-123099000D03*
X181047000Y-125199000D03*
X157547000Y-123099000D03*
X162547000Y-125199000D03*
X139047000Y-123099000D03*
X144047000Y-125199000D03*
X120547000Y-123099000D03*
X125547000Y-125199000D03*
X102047000Y-123099000D03*
X107047000Y-125199000D03*
X83547000Y-123099000D03*
X88547000Y-125199000D03*
X223047000Y-97999000D03*
X218047000Y-95899000D03*
X204547000Y-97999000D03*
X199547000Y-95899000D03*
X186047000Y-97999000D03*
X181047000Y-95899000D03*
X167547000Y-97999000D03*
X162547000Y-95899000D03*
X149047000Y-97999000D03*
X144047000Y-95899000D03*
X112047000Y-97999000D03*
X107047000Y-95899000D03*
X93547000Y-97999000D03*
X88547000Y-95899000D03*
X75047000Y-97999000D03*
X70047000Y-95899000D03*
X56547000Y-97999000D03*
X51547000Y-95899000D03*
X223047000Y-80499000D03*
X218047000Y-78399000D03*
X204547000Y-80499000D03*
X199547000Y-78399000D03*
X186047000Y-80499000D03*
X181047000Y-78399000D03*
X167547000Y-80499000D03*
X162547000Y-78399000D03*
X149047000Y-80499000D03*
X144047000Y-78399000D03*
X130547000Y-80499000D03*
X125547000Y-78399000D03*
X93547000Y-80499000D03*
X88547000Y-78399000D03*
X75047000Y-80499000D03*
X70047000Y-78399000D03*
X56547000Y-80499000D03*
X51547000Y-78399000D03*
D15*
X64547000Y-111299000D03*
X77547000Y-111299000D03*
X94547000Y-113299000D03*
X113547000Y-113299000D03*
X181047000Y-113299000D03*
X199547000Y-111299000D03*
X218047000Y-111299000D03*
X236047000Y-111299000D03*
D16*
X56547000Y-80499000D02*
X57747000Y-80499000D01*
X57747000Y-80499000D02*
X59547000Y-82299000D01*
X59547000Y-110649000D02*
X58897000Y-111299000D01*
X59547000Y-82299000D02*
X59547000Y-110649000D01*
X72547000Y-82999000D02*
X75047000Y-80499000D01*
X72547000Y-111299000D02*
X72547000Y-82999000D01*
X93547000Y-80499000D02*
X93347000Y-80499000D01*
X93347000Y-80499000D02*
X91547000Y-82299000D01*
X91547000Y-82299000D02*
X91547000Y-103299000D01*
X89147000Y-105699000D02*
X89147000Y-111299000D01*
X91547000Y-103299000D02*
X89147000Y-105699000D01*
X112047000Y-80499000D02*
X111347000Y-80499000D01*
X111347000Y-80499000D02*
X109547000Y-82299000D01*
X109547000Y-82299000D02*
X109547000Y-103299000D01*
X108147000Y-104699000D02*
X108147000Y-111299000D01*
X109547000Y-103299000D02*
X108147000Y-104699000D01*
X125947000Y-111349000D02*
X125947000Y-105899000D01*
X125947000Y-105899000D02*
X128547000Y-103299000D01*
X128547000Y-82499000D02*
X130547000Y-80499000D01*
X128547000Y-103299000D02*
X128547000Y-82499000D01*
X149047000Y-80499000D02*
X148347000Y-80499000D01*
X148347000Y-80499000D02*
X146547000Y-82299000D01*
X146547000Y-110699000D02*
X147147000Y-111299000D01*
X146547000Y-82299000D02*
X146547000Y-110699000D01*
X167547000Y-80499000D02*
X167347000Y-80499000D01*
X167347000Y-80499000D02*
X165547000Y-82299000D01*
X165547000Y-108899000D02*
X167947000Y-111299000D01*
X165547000Y-82299000D02*
X165547000Y-108899000D01*
X186047000Y-80499000D02*
X185347000Y-80499000D01*
X185347000Y-80499000D02*
X183547000Y-82299000D01*
X183547000Y-108899000D02*
X185947000Y-111299000D01*
X183547000Y-82299000D02*
X183547000Y-108899000D01*
X204547000Y-80499000D02*
X204347000Y-80499000D01*
X204347000Y-80499000D02*
X202547000Y-82299000D01*
X202547000Y-108899000D02*
X204947000Y-111299000D01*
X202547000Y-82299000D02*
X202547000Y-108899000D01*
X223047000Y-80499000D02*
X222347000Y-80499000D01*
X222347000Y-80499000D02*
X221547000Y-81299000D01*
X221547000Y-109899000D02*
X222947000Y-111299000D01*
X221547000Y-81299000D02*
X221547000Y-109899000D01*
X241547000Y-80499000D02*
X241347000Y-80499000D01*
X241347000Y-80499000D02*
X239547000Y-82299000D01*
X239547000Y-109899000D02*
X240947000Y-111299000D01*
X239547000Y-82299000D02*
X239547000Y-109899000D01*
X56547000Y-97999000D02*
X56547000Y-98299000D01*
X56547000Y-98299000D02*
X55547000Y-99299000D01*
X55547000Y-109949000D02*
X58897000Y-113299000D01*
X55547000Y-99299000D02*
X55547000Y-109949000D01*
X75047000Y-97999000D02*
X75047000Y-98799000D01*
X75047000Y-98799000D02*
X74047000Y-99799000D01*
X74047000Y-111799000D02*
X72547000Y-113299000D01*
X74047000Y-99799000D02*
X74047000Y-111799000D01*
X93547000Y-97999000D02*
X93547000Y-98299000D01*
X93547000Y-98299000D02*
X92547000Y-99299000D01*
X92547000Y-99299000D02*
X92547000Y-106299000D01*
X92547000Y-106299000D02*
X90547000Y-108299000D01*
X90547000Y-111899000D02*
X89147000Y-113299000D01*
X90547000Y-108299000D02*
X90547000Y-111899000D01*
X112047000Y-97999000D02*
X111847000Y-97999000D01*
X111847000Y-97999000D02*
X110547000Y-99299000D01*
X110547000Y-99299000D02*
X110547000Y-106299000D01*
X110547000Y-106299000D02*
X109547000Y-107299000D01*
X109547000Y-111899000D02*
X108147000Y-113299000D01*
X109547000Y-107299000D02*
X109547000Y-111899000D01*
X130547000Y-97999000D02*
X130547000Y-98299000D01*
X130547000Y-98299000D02*
X129547000Y-99299000D01*
X129547000Y-99299000D02*
X129547000Y-106299000D01*
X129547000Y-106299000D02*
X127547000Y-108299000D01*
X127547000Y-111699000D02*
X125947000Y-113299000D01*
X127547000Y-108299000D02*
X127547000Y-111699000D01*
X149047000Y-97999000D02*
X149247000Y-97999000D01*
X149247000Y-97999000D02*
X151547000Y-100299000D01*
X151547000Y-100299000D02*
X151547000Y-106299000D01*
X151547000Y-106299000D02*
X148547000Y-109299000D01*
X148547000Y-111899000D02*
X147147000Y-113299000D01*
X148547000Y-109299000D02*
X148547000Y-111899000D01*
X167547000Y-97999000D02*
X168247000Y-97999000D01*
X168247000Y-97999000D02*
X170547000Y-100299000D01*
X170547000Y-110699000D02*
X167947000Y-113299000D01*
X170547000Y-100299000D02*
X170547000Y-110699000D01*
X61697000Y-113299000D02*
X61697000Y-111299000D01*
X64547000Y-111299000D02*
X61697000Y-111299000D01*
X75347000Y-113299000D02*
X75347000Y-111299000D01*
X77547000Y-111299000D02*
X75347000Y-111299000D01*
X91947000Y-115299000D02*
X91947000Y-111299000D01*
X94547000Y-113299000D02*
X91947000Y-113299000D01*
X110947000Y-115299000D02*
X110947000Y-111299000D01*
X113547000Y-113299000D02*
X110947000Y-113299000D01*
X128747000Y-115299000D02*
X128747000Y-111349000D01*
X133857000Y-115299000D02*
X133887000Y-115269000D01*
X128747000Y-115299000D02*
X133857000Y-115299000D01*
X204547000Y-97999000D02*
X205247000Y-97999000D01*
X205247000Y-97999000D02*
X206547000Y-99299000D01*
X206547000Y-111699000D02*
X204947000Y-113299000D01*
X206547000Y-99299000D02*
X206547000Y-111699000D01*
X223047000Y-97999000D02*
X223247000Y-97999000D01*
X223247000Y-97999000D02*
X225547000Y-100299000D01*
X225547000Y-110699000D02*
X222947000Y-113299000D01*
X225547000Y-100299000D02*
X225547000Y-110699000D01*
X149947000Y-115299000D02*
X149947000Y-111299000D01*
X151697000Y-115299000D02*
X154207000Y-117809000D01*
X149947000Y-115299000D02*
X151697000Y-115299000D01*
X165147000Y-115299000D02*
X165147000Y-111299000D01*
X165117000Y-115269000D02*
X165147000Y-115299000D01*
X154207000Y-115269000D02*
X165117000Y-115269000D01*
X183147000Y-115299000D02*
X183147000Y-111299000D01*
X181047000Y-113299000D02*
X183147000Y-113299000D01*
X202147000Y-113299000D02*
X202147000Y-111299000D01*
X199547000Y-111299000D02*
X202147000Y-111299000D01*
X220147000Y-113299000D02*
X220147000Y-111299000D01*
X218047000Y-111299000D02*
X220147000Y-111299000D01*
X186047000Y-97999000D02*
X186247000Y-97999000D01*
X186247000Y-97999000D02*
X188547000Y-100299000D01*
X188547000Y-110699000D02*
X185947000Y-113299000D01*
X188547000Y-100299000D02*
X188547000Y-110699000D01*
X240947000Y-113299000D02*
X241547000Y-113299000D01*
X241547000Y-113299000D02*
X242047000Y-112799000D01*
X242047000Y-112799000D02*
X242047000Y-107299000D01*
X242047000Y-107299000D02*
X240547000Y-105799000D01*
X240547000Y-98999000D02*
X241547000Y-97999000D01*
X240547000Y-105799000D02*
X240547000Y-98999000D01*
X89147000Y-115299000D02*
X86547000Y-115299000D01*
X86547000Y-115299000D02*
X85547000Y-116299000D01*
X85547000Y-121099000D02*
X83547000Y-123099000D01*
X85547000Y-116299000D02*
X85547000Y-121099000D01*
X108147000Y-115299000D02*
X105547000Y-115299000D01*
X105547000Y-115299000D02*
X104547000Y-116299000D01*
X104547000Y-120599000D02*
X102047000Y-123099000D01*
X104547000Y-116299000D02*
X104547000Y-120599000D01*
X125947000Y-115299000D02*
X124547000Y-115299000D01*
X124547000Y-115299000D02*
X122547000Y-117299000D01*
X122547000Y-121099000D02*
X120547000Y-123099000D01*
X122547000Y-117299000D02*
X122547000Y-121099000D01*
X139047000Y-123099000D02*
X144747000Y-123099000D01*
X147147000Y-120699000D02*
X147147000Y-115299000D01*
X144747000Y-123099000D02*
X147147000Y-120699000D01*
X157547000Y-123099000D02*
X162747000Y-123099000D01*
X162747000Y-123099000D02*
X166547000Y-119299000D01*
X166547000Y-116699000D02*
X167947000Y-115299000D01*
X166547000Y-119299000D02*
X166547000Y-116699000D01*
X176047000Y-123099000D02*
X181747000Y-123099000D01*
X181747000Y-123099000D02*
X184547000Y-120299000D01*
X184547000Y-116699000D02*
X185947000Y-115299000D01*
X184547000Y-120299000D02*
X184547000Y-116699000D01*
X238147000Y-113299000D02*
X238147000Y-111299000D01*
X236047000Y-111299000D02*
X238147000Y-111299000D01*
M02*
