G04 #@! TF.GenerationSoftware,KiCad,Pcbnew,5.1.8*
G04 #@! TF.CreationDate,2021-02-16T14:53:34-06:00*
G04 #@! TF.ProjectId,steno,7374656e-6f2e-46b6-9963-61645f706362,rev?*
G04 #@! TF.SameCoordinates,Original*
G04 #@! TF.FileFunction,Legend,Bot*
G04 #@! TF.FilePolarity,Positive*
%FSLAX46Y46*%
G04 Gerber Fmt 4.6, Leading zero omitted, Abs format (unit mm)*
G04 Created by KiCad (PCBNEW 5.1.8) date 2021-02-16 14:53:34*
%MOMM*%
%LPD*%
G01*
G04 APERTURE LIST*
%ADD10C,0.120000*%
%ADD11C,0.150000*%
G04 APERTURE END LIST*
D10*
X155600000Y-110400000D02*
X154800000Y-110400000D01*
X155600000Y-105900000D02*
X155600000Y-110400000D01*
X154800000Y-105900000D02*
X155600000Y-105900000D01*
X144808818Y-62109736D02*
G75*
G03*
X144808818Y-62109736I-3999999J0D01*
G01*
X79775404Y-124170482D02*
G75*
G03*
X79775404Y-124170482I-3499999J0D01*
G01*
X208201598Y-124152812D02*
G75*
G03*
X208201598Y-124152812I-3500000J0D01*
G01*
X143908821Y-133709734D02*
G75*
G03*
X143908821Y-133709734I-3500004J0D01*
G01*
X144408818Y-133709734D02*
G75*
G03*
X144408818Y-133709734I-4000001J0D01*
G01*
X31352641Y-55357578D02*
G75*
G03*
X31352641Y-55357578I-3500001J0D01*
G01*
X31852643Y-55357578D02*
G75*
G03*
X31852643Y-55357578I-4000003J0D01*
G01*
X144308818Y-62109736D02*
G75*
G03*
X144308818Y-62109736I-3499999J0D01*
G01*
X256124361Y-56339908D02*
G75*
G03*
X256124361Y-56339908I-3499996J0D01*
G01*
X256624364Y-56339908D02*
G75*
G03*
X256624364Y-56339908I-3999999J0D01*
G01*
X141974824Y-67710000D02*
X141457668Y-67710000D01*
X141974824Y-66290000D02*
X141457668Y-66290000D01*
X149978990Y-105378577D02*
X150453506Y-105378577D01*
X149978990Y-106423577D02*
X150453506Y-106423577D01*
X149978990Y-106878576D02*
X150453506Y-106878576D01*
X149978990Y-107923576D02*
X150453506Y-107923576D01*
X149978987Y-108378578D02*
X150453503Y-108378578D01*
X149978987Y-109423578D02*
X150453503Y-109423578D01*
X149978989Y-109878577D02*
X150453505Y-109878577D01*
X149978989Y-110923577D02*
X150453505Y-110923577D01*
X123956246Y-99301076D02*
X123956246Y-95851076D01*
X123956246Y-99301076D02*
X123956246Y-101251076D01*
X134076246Y-99301076D02*
X134076246Y-97351076D01*
X134076246Y-99301076D02*
X134076246Y-101251076D01*
X139506856Y-67726014D02*
X139506856Y-67400456D01*
X138486856Y-67726014D02*
X138486856Y-67400456D01*
X134365000Y-69227064D02*
X134365000Y-68772936D01*
X135835000Y-69227064D02*
X135835000Y-68772936D01*
X141516247Y-99526078D02*
X138766247Y-99526078D01*
X138766247Y-99526078D02*
X138766247Y-99266078D01*
X141516247Y-99526078D02*
X144266247Y-99526078D01*
X144266247Y-99526078D02*
X144266247Y-99266078D01*
X141516247Y-94076078D02*
X138766247Y-94076078D01*
X138766247Y-94076078D02*
X138766247Y-94336078D01*
X141516247Y-94076078D02*
X144266247Y-94076078D01*
X144266247Y-94076078D02*
X144266247Y-94336078D01*
X144266247Y-94336078D02*
X145916247Y-94336078D01*
X132010000Y-80937221D02*
X132010000Y-81262779D01*
X130990000Y-80937221D02*
X130990000Y-81262779D01*
X145179025Y-86119733D02*
X144853467Y-86119733D01*
X145179025Y-85099733D02*
X144853467Y-85099733D01*
X130598818Y-77958578D02*
X130598818Y-77441422D01*
X132018818Y-77958578D02*
X132018818Y-77441422D01*
X152508819Y-77809734D02*
X151858819Y-77809734D01*
X152508819Y-76409734D02*
X152508819Y-77809734D01*
X156108819Y-77809734D02*
X156108819Y-76409734D01*
X154708819Y-74409734D02*
X153908819Y-74409734D01*
X153908819Y-79809734D02*
X154708819Y-79809734D01*
X153908819Y-81059734D02*
X153908819Y-79809734D01*
X134806246Y-96059655D02*
X134806246Y-95542499D01*
X136226246Y-96059655D02*
X136226246Y-95542499D01*
X128050240Y-77319735D02*
X128567396Y-77319735D01*
X128050240Y-75899735D02*
X128567396Y-75899735D01*
X125518818Y-79868314D02*
X125518818Y-79351158D01*
X124098818Y-79868314D02*
X124098818Y-79351158D01*
X150318817Y-75272513D02*
X150318817Y-74946955D01*
X149298817Y-75272513D02*
X149298817Y-74946955D01*
X154259098Y-71099736D02*
X153933540Y-71099736D01*
X154259098Y-72119736D02*
X153933540Y-72119736D01*
X154146040Y-83119734D02*
X154471598Y-83119734D01*
X154146040Y-82099734D02*
X154471598Y-82099734D01*
X129068819Y-78029733D02*
X129068819Y-78959733D01*
X129068819Y-81189733D02*
X129068819Y-80259733D01*
X129068819Y-81189733D02*
X126908819Y-81189733D01*
X129068819Y-78029733D02*
X127608819Y-78029733D01*
D11*
X135633820Y-72434734D02*
X136208820Y-72434734D01*
X135633820Y-82784734D02*
X136308820Y-82784734D01*
X145983820Y-82784734D02*
X145308820Y-82784734D01*
X145983820Y-72434734D02*
X145308820Y-72434734D01*
X135633820Y-72434734D02*
X135633820Y-73109734D01*
X145983820Y-72434734D02*
X145983820Y-73109734D01*
X145983820Y-82784734D02*
X145983820Y-82109734D01*
X135633820Y-82784734D02*
X135633820Y-82109734D01*
X136208820Y-72434734D02*
X136208820Y-71159734D01*
D10*
X128050238Y-83319734D02*
X128567394Y-83319734D01*
X128050238Y-81899734D02*
X128567394Y-81899734D01*
X138006856Y-67726013D02*
X138006856Y-67400455D01*
X136986856Y-67726013D02*
X136986856Y-67400455D01*
X149041422Y-72310000D02*
X149558578Y-72310000D01*
X149041422Y-70890000D02*
X149558578Y-70890000D01*
X146487311Y-65290000D02*
X145506401Y-65290000D01*
X146487311Y-67110000D02*
X145506401Y-67110000D01*
X145927707Y-69358578D02*
X145927707Y-68841422D01*
X147347707Y-69358578D02*
X147347707Y-68841422D01*
D11*
X141466666Y-70357142D02*
X141514285Y-70404761D01*
X141657142Y-70452380D01*
X141752380Y-70452380D01*
X141895238Y-70404761D01*
X141990476Y-70309523D01*
X142038095Y-70214285D01*
X142085714Y-70023809D01*
X142085714Y-69880952D01*
X142038095Y-69690476D01*
X141990476Y-69595238D01*
X141895238Y-69500000D01*
X141752380Y-69452380D01*
X141657142Y-69452380D01*
X141514285Y-69500000D01*
X141466666Y-69547619D01*
X140609523Y-69785714D02*
X140609523Y-70452380D01*
X140847619Y-69404761D02*
X141085714Y-70119047D01*
X140466666Y-70119047D01*
X141595238Y-69052380D02*
X142166666Y-69052380D01*
X141880952Y-69052380D02*
X141880952Y-68052380D01*
X141976190Y-68195238D01*
X142071428Y-68290476D01*
X142166666Y-68338095D01*
X140738095Y-68385714D02*
X140738095Y-69052380D01*
X141166666Y-68385714D02*
X141166666Y-68909523D01*
X141119047Y-69004761D01*
X141023809Y-69052380D01*
X140880952Y-69052380D01*
X140785714Y-69004761D01*
X140738095Y-68957142D01*
X139928571Y-68528571D02*
X140261904Y-68528571D01*
X140261904Y-69052380D02*
X140261904Y-68052380D01*
X139785714Y-68052380D01*
X153959105Y-106353457D02*
X154292438Y-105877267D01*
X154530533Y-106353457D02*
X154530533Y-105353457D01*
X154149581Y-105353457D01*
X154054343Y-105401077D01*
X154006724Y-105448696D01*
X153959105Y-105543934D01*
X153959105Y-105686791D01*
X154006724Y-105782029D01*
X154054343Y-105829648D01*
X154149581Y-105877267D01*
X154530533Y-105877267D01*
X153006724Y-106353457D02*
X153578152Y-106353457D01*
X153292438Y-106353457D02*
X153292438Y-105353457D01*
X153387676Y-105496315D01*
X153482914Y-105591553D01*
X153578152Y-105639172D01*
X152387676Y-105353457D02*
X152292438Y-105353457D01*
X152197200Y-105401077D01*
X152149581Y-105448696D01*
X152101962Y-105543934D01*
X152054343Y-105734410D01*
X152054343Y-105972505D01*
X152101962Y-106162981D01*
X152149581Y-106258219D01*
X152197200Y-106305838D01*
X152292438Y-106353457D01*
X152387676Y-106353457D01*
X152482914Y-106305838D01*
X152530533Y-106258219D01*
X152578152Y-106162981D01*
X152625771Y-105972505D01*
X152625771Y-105734410D01*
X152578152Y-105543934D01*
X152530533Y-105448696D01*
X152482914Y-105401077D01*
X152387676Y-105353457D01*
X158338095Y-107747619D02*
X158290476Y-107700000D01*
X158195238Y-107652380D01*
X157957142Y-107652380D01*
X157861904Y-107700000D01*
X157814285Y-107747619D01*
X157766666Y-107842857D01*
X157766666Y-107938095D01*
X157814285Y-108080952D01*
X158385714Y-108652380D01*
X157766666Y-108652380D01*
X157385714Y-107747619D02*
X157338095Y-107700000D01*
X157242857Y-107652380D01*
X157004761Y-107652380D01*
X156909523Y-107700000D01*
X156861904Y-107747619D01*
X156814285Y-107842857D01*
X156814285Y-107938095D01*
X156861904Y-108080952D01*
X157433333Y-108652380D01*
X156814285Y-108652380D01*
X156195238Y-107652380D02*
X156100000Y-107652380D01*
X156004761Y-107700000D01*
X155957142Y-107747619D01*
X155909523Y-107842857D01*
X155861904Y-108033333D01*
X155861904Y-108271428D01*
X155909523Y-108461904D01*
X155957142Y-108557142D01*
X156004761Y-108604761D01*
X156100000Y-108652380D01*
X156195238Y-108652380D01*
X156290476Y-108604761D01*
X156338095Y-108557142D01*
X156385714Y-108461904D01*
X156433333Y-108271428D01*
X156433333Y-108033333D01*
X156385714Y-107842857D01*
X156338095Y-107747619D01*
X156290476Y-107700000D01*
X156195238Y-107652380D01*
X153982914Y-107853456D02*
X154316248Y-107377266D01*
X154554343Y-107853456D02*
X154554343Y-106853456D01*
X154173390Y-106853456D01*
X154078152Y-106901076D01*
X154030533Y-106948695D01*
X153982914Y-107043933D01*
X153982914Y-107186790D01*
X154030533Y-107282028D01*
X154078152Y-107329647D01*
X154173390Y-107377266D01*
X154554343Y-107377266D01*
X153506724Y-107853456D02*
X153316248Y-107853456D01*
X153221009Y-107805837D01*
X153173390Y-107758218D01*
X153078152Y-107615361D01*
X153030533Y-107424885D01*
X153030533Y-107043933D01*
X153078152Y-106948695D01*
X153125771Y-106901076D01*
X153221009Y-106853456D01*
X153411486Y-106853456D01*
X153506724Y-106901076D01*
X153554343Y-106948695D01*
X153601962Y-107043933D01*
X153601962Y-107282028D01*
X153554343Y-107377266D01*
X153506724Y-107424885D01*
X153411486Y-107472504D01*
X153221009Y-107472504D01*
X153125771Y-107424885D01*
X153078152Y-107377266D01*
X153030533Y-107282028D01*
X153982911Y-109353458D02*
X154316245Y-108877268D01*
X154554340Y-109353458D02*
X154554340Y-108353458D01*
X154173387Y-108353458D01*
X154078149Y-108401078D01*
X154030530Y-108448697D01*
X153982911Y-108543935D01*
X153982911Y-108686792D01*
X154030530Y-108782030D01*
X154078149Y-108829649D01*
X154173387Y-108877268D01*
X154554340Y-108877268D01*
X153411483Y-108782030D02*
X153506721Y-108734411D01*
X153554340Y-108686792D01*
X153601959Y-108591554D01*
X153601959Y-108543935D01*
X153554340Y-108448697D01*
X153506721Y-108401078D01*
X153411483Y-108353458D01*
X153221006Y-108353458D01*
X153125768Y-108401078D01*
X153078149Y-108448697D01*
X153030530Y-108543935D01*
X153030530Y-108591554D01*
X153078149Y-108686792D01*
X153125768Y-108734411D01*
X153221006Y-108782030D01*
X153411483Y-108782030D01*
X153506721Y-108829649D01*
X153554340Y-108877268D01*
X153601959Y-108972506D01*
X153601959Y-109162982D01*
X153554340Y-109258220D01*
X153506721Y-109305839D01*
X153411483Y-109353458D01*
X153221006Y-109353458D01*
X153125768Y-109305839D01*
X153078149Y-109258220D01*
X153030530Y-109162982D01*
X153030530Y-108972506D01*
X153078149Y-108877268D01*
X153125768Y-108829649D01*
X153221006Y-108782030D01*
X153982913Y-110853457D02*
X154316247Y-110377267D01*
X154554342Y-110853457D02*
X154554342Y-109853457D01*
X154173389Y-109853457D01*
X154078151Y-109901077D01*
X154030532Y-109948696D01*
X153982913Y-110043934D01*
X153982913Y-110186791D01*
X154030532Y-110282029D01*
X154078151Y-110329648D01*
X154173389Y-110377267D01*
X154554342Y-110377267D01*
X153649580Y-109853457D02*
X152982913Y-109853457D01*
X153411485Y-110853457D01*
X130254341Y-94586790D02*
X130254341Y-95253456D01*
X130492436Y-94205837D02*
X130730531Y-94920123D01*
X130111484Y-94920123D01*
X129540055Y-94253456D02*
X129444817Y-94253456D01*
X129349579Y-94301076D01*
X129301960Y-94348695D01*
X129254341Y-94443933D01*
X129206722Y-94634409D01*
X129206722Y-94872504D01*
X129254341Y-95062980D01*
X129301960Y-95158218D01*
X129349579Y-95205837D01*
X129444817Y-95253456D01*
X129540055Y-95253456D01*
X129635293Y-95205837D01*
X129682912Y-95158218D01*
X129730531Y-95062980D01*
X129778150Y-94872504D01*
X129778150Y-94634409D01*
X129730531Y-94443933D01*
X129682912Y-94348695D01*
X129635293Y-94301076D01*
X129540055Y-94253456D01*
X128301960Y-94253456D02*
X128778150Y-94253456D01*
X128825769Y-94729647D01*
X128778150Y-94682028D01*
X128682912Y-94634409D01*
X128444817Y-94634409D01*
X128349579Y-94682028D01*
X128301960Y-94729647D01*
X128254341Y-94824885D01*
X128254341Y-95062980D01*
X128301960Y-95158218D01*
X128349579Y-95205837D01*
X128444817Y-95253456D01*
X128682912Y-95253456D01*
X128778150Y-95205837D01*
X128825769Y-95158218D01*
X127635293Y-94253456D02*
X127540055Y-94253456D01*
X127444817Y-94301076D01*
X127397198Y-94348695D01*
X127349579Y-94443933D01*
X127301960Y-94634409D01*
X127301960Y-94872504D01*
X127349579Y-95062980D01*
X127397198Y-95158218D01*
X127444817Y-95205837D01*
X127540055Y-95253456D01*
X127635293Y-95253456D01*
X127730531Y-95205837D01*
X127778150Y-95158218D01*
X127825769Y-95062980D01*
X127873388Y-94872504D01*
X127873388Y-94634409D01*
X127825769Y-94443933D01*
X127778150Y-94348695D01*
X127730531Y-94301076D01*
X127635293Y-94253456D01*
X140857996Y-64752380D02*
X141191330Y-64276190D01*
X141429425Y-64752380D02*
X141429425Y-63752380D01*
X141048472Y-63752380D01*
X140953234Y-63800000D01*
X140905615Y-63847619D01*
X140857996Y-63942857D01*
X140857996Y-64085714D01*
X140905615Y-64180952D01*
X140953234Y-64228571D01*
X141048472Y-64276190D01*
X141429425Y-64276190D01*
X140477044Y-63847619D02*
X140429425Y-63800000D01*
X140334187Y-63752380D01*
X140096091Y-63752380D01*
X140000853Y-63800000D01*
X139953234Y-63847619D01*
X139905615Y-63942857D01*
X139905615Y-64038095D01*
X139953234Y-64180952D01*
X140524663Y-64752380D01*
X139905615Y-64752380D01*
X141480952Y-65147619D02*
X141433333Y-65100000D01*
X141338095Y-65052380D01*
X141100000Y-65052380D01*
X141004761Y-65100000D01*
X140957142Y-65147619D01*
X140909523Y-65242857D01*
X140909523Y-65338095D01*
X140957142Y-65480952D01*
X141528571Y-66052380D01*
X140909523Y-66052380D01*
X140528571Y-65147619D02*
X140480952Y-65100000D01*
X140385714Y-65052380D01*
X140147619Y-65052380D01*
X140052380Y-65100000D01*
X140004761Y-65147619D01*
X139957142Y-65242857D01*
X139957142Y-65338095D01*
X140004761Y-65480952D01*
X140576190Y-66052380D01*
X139957142Y-66052380D01*
X132966666Y-69652380D02*
X133300000Y-69176190D01*
X133538095Y-69652380D02*
X133538095Y-68652380D01*
X133157142Y-68652380D01*
X133061904Y-68700000D01*
X133014285Y-68747619D01*
X132966666Y-68842857D01*
X132966666Y-68985714D01*
X133014285Y-69080952D01*
X133061904Y-69128571D01*
X133157142Y-69176190D01*
X133538095Y-69176190D01*
X132109523Y-68652380D02*
X132300000Y-68652380D01*
X132395238Y-68700000D01*
X132442857Y-68747619D01*
X132538095Y-68890476D01*
X132585714Y-69080952D01*
X132585714Y-69461904D01*
X132538095Y-69557142D01*
X132490476Y-69604761D01*
X132395238Y-69652380D01*
X132204761Y-69652380D01*
X132109523Y-69604761D01*
X132061904Y-69557142D01*
X132014285Y-69461904D01*
X132014285Y-69223809D01*
X132061904Y-69128571D01*
X132109523Y-69080952D01*
X132204761Y-69033333D01*
X132395238Y-69033333D01*
X132490476Y-69080952D01*
X132538095Y-69128571D01*
X132585714Y-69223809D01*
X133295238Y-68352380D02*
X133866666Y-68352380D01*
X133580952Y-68352380D02*
X133580952Y-67352380D01*
X133676190Y-67495238D01*
X133771428Y-67590476D01*
X133866666Y-67638095D01*
X132676190Y-67352380D02*
X132580952Y-67352380D01*
X132485714Y-67400000D01*
X132438095Y-67447619D01*
X132390476Y-67542857D01*
X132342857Y-67733333D01*
X132342857Y-67971428D01*
X132390476Y-68161904D01*
X132438095Y-68257142D01*
X132485714Y-68304761D01*
X132580952Y-68352380D01*
X132676190Y-68352380D01*
X132771428Y-68304761D01*
X132819047Y-68257142D01*
X132866666Y-68161904D01*
X132914285Y-67971428D01*
X132914285Y-67733333D01*
X132866666Y-67542857D01*
X132819047Y-67447619D01*
X132771428Y-67400000D01*
X132676190Y-67352380D01*
X131914285Y-68352380D02*
X131914285Y-67352380D01*
X131819047Y-67971428D02*
X131533333Y-68352380D01*
X131533333Y-67685714D02*
X131914285Y-68066666D01*
X143690476Y-100852380D02*
X143690476Y-99852380D01*
X143357142Y-100566666D01*
X143023809Y-99852380D01*
X143023809Y-100852380D01*
X142690476Y-99852380D02*
X142119047Y-99852380D01*
X142404761Y-100852380D02*
X142404761Y-99852380D01*
X141833333Y-99947619D02*
X141785714Y-99900000D01*
X141690476Y-99852380D01*
X141452380Y-99852380D01*
X141357142Y-99900000D01*
X141309523Y-99947619D01*
X141261904Y-100042857D01*
X141261904Y-100138095D01*
X141309523Y-100280952D01*
X141880952Y-100852380D01*
X141261904Y-100852380D01*
X140357142Y-99852380D02*
X140833333Y-99852380D01*
X140880952Y-100328571D01*
X140833333Y-100280952D01*
X140738095Y-100233333D01*
X140500000Y-100233333D01*
X140404761Y-100280952D01*
X140357142Y-100328571D01*
X140309523Y-100423809D01*
X140309523Y-100661904D01*
X140357142Y-100757142D01*
X140404761Y-100804761D01*
X140500000Y-100852380D01*
X140738095Y-100852380D01*
X140833333Y-100804761D01*
X140880952Y-100757142D01*
X139214285Y-100947619D02*
X139309523Y-100900000D01*
X139404761Y-100804761D01*
X139547619Y-100661904D01*
X139642857Y-100614285D01*
X139738095Y-100614285D01*
X139690476Y-100852380D02*
X139785714Y-100804761D01*
X139880952Y-100709523D01*
X139928571Y-100519047D01*
X139928571Y-100185714D01*
X139880952Y-99995238D01*
X139785714Y-99900000D01*
X139690476Y-99852380D01*
X139500000Y-99852380D01*
X139404761Y-99900000D01*
X139309523Y-99995238D01*
X139261904Y-100185714D01*
X139261904Y-100519047D01*
X139309523Y-100709523D01*
X139404761Y-100804761D01*
X139500000Y-100852380D01*
X139690476Y-100852380D01*
X131866666Y-83957142D02*
X131914285Y-84004761D01*
X132057142Y-84052380D01*
X132152380Y-84052380D01*
X132295238Y-84004761D01*
X132390476Y-83909523D01*
X132438095Y-83814285D01*
X132485714Y-83623809D01*
X132485714Y-83480952D01*
X132438095Y-83290476D01*
X132390476Y-83195238D01*
X132295238Y-83100000D01*
X132152380Y-83052380D01*
X132057142Y-83052380D01*
X131914285Y-83100000D01*
X131866666Y-83147619D01*
X131533333Y-83052380D02*
X130866666Y-83052380D01*
X131295238Y-84052380D01*
X132166666Y-85352380D02*
X132738095Y-85352380D01*
X132452380Y-85352380D02*
X132452380Y-84352380D01*
X132547619Y-84495238D01*
X132642857Y-84590476D01*
X132738095Y-84638095D01*
X131547619Y-84352380D02*
X131452380Y-84352380D01*
X131357142Y-84400000D01*
X131309523Y-84447619D01*
X131261904Y-84542857D01*
X131214285Y-84733333D01*
X131214285Y-84971428D01*
X131261904Y-85161904D01*
X131309523Y-85257142D01*
X131357142Y-85304761D01*
X131452380Y-85352380D01*
X131547619Y-85352380D01*
X131642857Y-85304761D01*
X131690476Y-85257142D01*
X131738095Y-85161904D01*
X131785714Y-84971428D01*
X131785714Y-84733333D01*
X131738095Y-84542857D01*
X131690476Y-84447619D01*
X131642857Y-84400000D01*
X131547619Y-84352380D01*
X130357142Y-84685714D02*
X130357142Y-85352380D01*
X130595238Y-84304761D02*
X130833333Y-85019047D01*
X130214285Y-85019047D01*
X145182912Y-87466875D02*
X145230531Y-87514494D01*
X145373388Y-87562113D01*
X145468626Y-87562113D01*
X145611484Y-87514494D01*
X145706722Y-87419256D01*
X145754341Y-87324018D01*
X145801960Y-87133542D01*
X145801960Y-86990685D01*
X145754341Y-86800209D01*
X145706722Y-86704971D01*
X145611484Y-86609733D01*
X145468626Y-86562113D01*
X145373388Y-86562113D01*
X145230531Y-86609733D01*
X145182912Y-86657352D01*
X144325769Y-86562113D02*
X144516246Y-86562113D01*
X144611484Y-86609733D01*
X144659103Y-86657352D01*
X144754341Y-86800209D01*
X144801960Y-86990685D01*
X144801960Y-87371637D01*
X144754341Y-87466875D01*
X144706722Y-87514494D01*
X144611484Y-87562113D01*
X144421007Y-87562113D01*
X144325769Y-87514494D01*
X144278150Y-87466875D01*
X144230531Y-87371637D01*
X144230531Y-87133542D01*
X144278150Y-87038304D01*
X144325769Y-86990685D01*
X144421007Y-86943066D01*
X144611484Y-86943066D01*
X144706722Y-86990685D01*
X144754341Y-87038304D01*
X144801960Y-87133542D01*
X145682912Y-89062113D02*
X146254341Y-89062113D01*
X145968626Y-89062113D02*
X145968626Y-88062113D01*
X146063865Y-88204971D01*
X146159103Y-88300209D01*
X146254341Y-88347828D01*
X145063865Y-88062113D02*
X144968626Y-88062113D01*
X144873388Y-88109733D01*
X144825769Y-88157352D01*
X144778150Y-88252590D01*
X144730531Y-88443066D01*
X144730531Y-88681161D01*
X144778150Y-88871637D01*
X144825769Y-88966875D01*
X144873388Y-89014494D01*
X144968626Y-89062113D01*
X145063865Y-89062113D01*
X145159103Y-89014494D01*
X145206722Y-88966875D01*
X145254341Y-88871637D01*
X145301960Y-88681161D01*
X145301960Y-88443066D01*
X145254341Y-88252590D01*
X145206722Y-88157352D01*
X145159103Y-88109733D01*
X145063865Y-88062113D01*
X143873388Y-88395447D02*
X143873388Y-89062113D01*
X144111484Y-88014494D02*
X144349579Y-88728780D01*
X143730531Y-88728780D01*
X131482912Y-75748484D02*
X131530531Y-75796103D01*
X131673388Y-75843722D01*
X131768626Y-75843722D01*
X131911484Y-75796103D01*
X132006722Y-75700865D01*
X132054341Y-75605627D01*
X132101960Y-75415151D01*
X132101960Y-75272294D01*
X132054341Y-75081818D01*
X132006722Y-74986580D01*
X131911484Y-74891342D01*
X131768626Y-74843722D01*
X131673388Y-74843722D01*
X131530531Y-74891342D01*
X131482912Y-74938961D01*
X131149579Y-74843722D02*
X130530531Y-74843722D01*
X130863865Y-75224675D01*
X130721007Y-75224675D01*
X130625769Y-75272294D01*
X130578150Y-75319913D01*
X130530531Y-75415151D01*
X130530531Y-75653246D01*
X130578150Y-75748484D01*
X130625769Y-75796103D01*
X130721007Y-75843722D01*
X131006722Y-75843722D01*
X131101960Y-75796103D01*
X131149579Y-75748484D01*
X131911484Y-74443722D02*
X132482912Y-74443722D01*
X132197198Y-74443722D02*
X132197198Y-73443722D01*
X132292436Y-73586580D01*
X132387674Y-73681818D01*
X132482912Y-73729437D01*
X131054341Y-73777056D02*
X131054341Y-74443722D01*
X131482912Y-73777056D02*
X131482912Y-74300865D01*
X131435293Y-74396103D01*
X131340055Y-74443722D01*
X131197198Y-74443722D01*
X131101960Y-74396103D01*
X131054341Y-74348484D01*
X130244817Y-73919913D02*
X130578150Y-73919913D01*
X130578150Y-74443722D02*
X130578150Y-73443722D01*
X130101960Y-73443722D01*
X158352380Y-75409523D02*
X158352380Y-74838095D01*
X158352380Y-75123809D02*
X157352380Y-75123809D01*
X157495238Y-75028571D01*
X157590476Y-74933333D01*
X157638095Y-74838095D01*
X157352380Y-76266666D02*
X157352380Y-76076190D01*
X157400000Y-75980952D01*
X157447619Y-75933333D01*
X157590476Y-75838095D01*
X157780952Y-75790476D01*
X158161904Y-75790476D01*
X158257142Y-75838095D01*
X158304761Y-75885714D01*
X158352380Y-75980952D01*
X158352380Y-76171428D01*
X158304761Y-76266666D01*
X158257142Y-76314285D01*
X158161904Y-76361904D01*
X157923809Y-76361904D01*
X157828571Y-76314285D01*
X157780952Y-76266666D01*
X157733333Y-76171428D01*
X157733333Y-75980952D01*
X157780952Y-75885714D01*
X157828571Y-75838095D01*
X157923809Y-75790476D01*
X158352380Y-76790476D02*
X157352380Y-76790476D01*
X158066666Y-77123809D01*
X157352380Y-77457142D01*
X158352380Y-77457142D01*
X158352380Y-77933333D02*
X157352380Y-77933333D01*
X157828571Y-77933333D02*
X157828571Y-78504761D01*
X158352380Y-78504761D02*
X157352380Y-78504761D01*
X157685714Y-78885714D02*
X157685714Y-79409523D01*
X158352380Y-78885714D01*
X158352380Y-79409523D01*
X135682912Y-93853457D02*
X136016246Y-93377267D01*
X136254341Y-93853457D02*
X136254341Y-92853457D01*
X135873388Y-92853457D01*
X135778150Y-92901077D01*
X135730531Y-92948696D01*
X135682912Y-93043934D01*
X135682912Y-93186791D01*
X135730531Y-93282029D01*
X135778150Y-93329648D01*
X135873388Y-93377267D01*
X136254341Y-93377267D01*
X134778150Y-92853457D02*
X135254341Y-92853457D01*
X135301960Y-93329648D01*
X135254341Y-93282029D01*
X135159103Y-93234410D01*
X134921007Y-93234410D01*
X134825769Y-93282029D01*
X134778150Y-93329648D01*
X134730531Y-93424886D01*
X134730531Y-93662981D01*
X134778150Y-93758219D01*
X134825769Y-93805838D01*
X134921007Y-93853457D01*
X135159103Y-93853457D01*
X135254341Y-93805838D01*
X135301960Y-93758219D01*
X136111484Y-92553457D02*
X136682912Y-92553457D01*
X136397198Y-92553457D02*
X136397198Y-91553457D01*
X136492436Y-91696315D01*
X136587674Y-91791553D01*
X136682912Y-91839172D01*
X135492436Y-91553457D02*
X135397198Y-91553457D01*
X135301960Y-91601077D01*
X135254341Y-91648696D01*
X135206722Y-91743934D01*
X135159103Y-91934410D01*
X135159103Y-92172505D01*
X135206722Y-92362981D01*
X135254341Y-92458219D01*
X135301960Y-92505838D01*
X135397198Y-92553457D01*
X135492436Y-92553457D01*
X135587674Y-92505838D01*
X135635293Y-92458219D01*
X135682912Y-92362981D01*
X135730531Y-92172505D01*
X135730531Y-91934410D01*
X135682912Y-91743934D01*
X135635293Y-91648696D01*
X135587674Y-91601077D01*
X135492436Y-91553457D01*
X134730531Y-92553457D02*
X134730531Y-91553457D01*
X134635293Y-92172505D02*
X134349579Y-92553457D01*
X134349579Y-91886791D02*
X134730531Y-92267743D01*
X128482912Y-75358220D02*
X128530531Y-75405839D01*
X128673388Y-75453458D01*
X128768626Y-75453458D01*
X128911484Y-75405839D01*
X129006722Y-75310601D01*
X129054341Y-75215363D01*
X129101960Y-75024887D01*
X129101960Y-74882030D01*
X129054341Y-74691554D01*
X129006722Y-74596316D01*
X128911484Y-74501078D01*
X128768626Y-74453458D01*
X128673388Y-74453458D01*
X128530531Y-74501078D01*
X128482912Y-74548697D01*
X128006722Y-75453458D02*
X127816246Y-75453458D01*
X127721007Y-75405839D01*
X127673388Y-75358220D01*
X127578150Y-75215363D01*
X127530531Y-75024887D01*
X127530531Y-74643935D01*
X127578150Y-74548697D01*
X127625769Y-74501078D01*
X127721007Y-74453458D01*
X127911484Y-74453458D01*
X128006722Y-74501078D01*
X128054341Y-74548697D01*
X128101960Y-74643935D01*
X128101960Y-74882030D01*
X128054341Y-74977268D01*
X128006722Y-75024887D01*
X127911484Y-75072506D01*
X127721007Y-75072506D01*
X127625769Y-75024887D01*
X127578150Y-74977268D01*
X127530531Y-74882030D01*
X128904056Y-74053458D02*
X129475484Y-74053458D01*
X129189770Y-74053458D02*
X129189770Y-73053458D01*
X129285008Y-73196316D01*
X129380246Y-73291554D01*
X129475484Y-73339173D01*
X128046913Y-73386792D02*
X128046913Y-74053458D01*
X128475484Y-73386792D02*
X128475484Y-73910601D01*
X128427865Y-74005839D01*
X128332627Y-74053458D01*
X128189770Y-74053458D01*
X128094532Y-74005839D01*
X128046913Y-73958220D01*
X127237389Y-73529649D02*
X127570722Y-73529649D01*
X127570722Y-74053458D02*
X127570722Y-73053458D01*
X127094532Y-73053458D01*
X123042857Y-80757142D02*
X123090476Y-80804761D01*
X123233333Y-80852380D01*
X123328571Y-80852380D01*
X123471428Y-80804761D01*
X123566666Y-80709523D01*
X123614285Y-80614285D01*
X123661904Y-80423809D01*
X123661904Y-80280952D01*
X123614285Y-80090476D01*
X123566666Y-79995238D01*
X123471428Y-79900000D01*
X123328571Y-79852380D01*
X123233333Y-79852380D01*
X123090476Y-79900000D01*
X123042857Y-79947619D01*
X122090476Y-80852380D02*
X122661904Y-80852380D01*
X122376190Y-80852380D02*
X122376190Y-79852380D01*
X122471428Y-79995238D01*
X122566666Y-80090476D01*
X122661904Y-80138095D01*
X121471428Y-79852380D02*
X121376190Y-79852380D01*
X121280952Y-79900000D01*
X121233333Y-79947619D01*
X121185714Y-80042857D01*
X121138095Y-80233333D01*
X121138095Y-80471428D01*
X121185714Y-80661904D01*
X121233333Y-80757142D01*
X121280952Y-80804761D01*
X121376190Y-80852380D01*
X121471428Y-80852380D01*
X121566666Y-80804761D01*
X121614285Y-80757142D01*
X121661904Y-80661904D01*
X121709523Y-80471428D01*
X121709523Y-80233333D01*
X121661904Y-80042857D01*
X121614285Y-79947619D01*
X121566666Y-79900000D01*
X121471428Y-79852380D01*
X122995238Y-79552380D02*
X123566666Y-79552380D01*
X123280952Y-79552380D02*
X123280952Y-78552380D01*
X123376190Y-78695238D01*
X123471428Y-78790476D01*
X123566666Y-78838095D01*
X122138095Y-78885714D02*
X122138095Y-79552380D01*
X122566666Y-78885714D02*
X122566666Y-79409523D01*
X122519047Y-79504761D01*
X122423809Y-79552380D01*
X122280952Y-79552380D01*
X122185714Y-79504761D01*
X122138095Y-79457142D01*
X121328571Y-79028571D02*
X121661904Y-79028571D01*
X121661904Y-79552380D02*
X121661904Y-78552380D01*
X121185714Y-78552380D01*
X148766666Y-78957142D02*
X148814285Y-79004761D01*
X148957142Y-79052380D01*
X149052380Y-79052380D01*
X149195238Y-79004761D01*
X149290476Y-78909523D01*
X149338095Y-78814285D01*
X149385714Y-78623809D01*
X149385714Y-78480952D01*
X149338095Y-78290476D01*
X149290476Y-78195238D01*
X149195238Y-78100000D01*
X149052380Y-78052380D01*
X148957142Y-78052380D01*
X148814285Y-78100000D01*
X148766666Y-78147619D01*
X147861904Y-78052380D02*
X148338095Y-78052380D01*
X148385714Y-78528571D01*
X148338095Y-78480952D01*
X148242857Y-78433333D01*
X148004761Y-78433333D01*
X147909523Y-78480952D01*
X147861904Y-78528571D01*
X147814285Y-78623809D01*
X147814285Y-78861904D01*
X147861904Y-78957142D01*
X147909523Y-79004761D01*
X148004761Y-79052380D01*
X148242857Y-79052380D01*
X148338095Y-79004761D01*
X148385714Y-78957142D01*
X150066666Y-77752380D02*
X150638095Y-77752380D01*
X150352380Y-77752380D02*
X150352380Y-76752380D01*
X150447619Y-76895238D01*
X150542857Y-76990476D01*
X150638095Y-77038095D01*
X149447619Y-76752380D02*
X149352380Y-76752380D01*
X149257142Y-76800000D01*
X149209523Y-76847619D01*
X149161904Y-76942857D01*
X149114285Y-77133333D01*
X149114285Y-77371428D01*
X149161904Y-77561904D01*
X149209523Y-77657142D01*
X149257142Y-77704761D01*
X149352380Y-77752380D01*
X149447619Y-77752380D01*
X149542857Y-77704761D01*
X149590476Y-77657142D01*
X149638095Y-77561904D01*
X149685714Y-77371428D01*
X149685714Y-77133333D01*
X149638095Y-76942857D01*
X149590476Y-76847619D01*
X149542857Y-76800000D01*
X149447619Y-76752380D01*
X148257142Y-77085714D02*
X148257142Y-77752380D01*
X148495238Y-76704761D02*
X148733333Y-77419047D01*
X148114285Y-77419047D01*
X154262985Y-70466878D02*
X154310604Y-70514497D01*
X154453461Y-70562116D01*
X154548699Y-70562116D01*
X154691557Y-70514497D01*
X154786795Y-70419259D01*
X154834414Y-70324021D01*
X154882033Y-70133545D01*
X154882033Y-69990688D01*
X154834414Y-69800212D01*
X154786795Y-69704974D01*
X154691557Y-69609736D01*
X154548699Y-69562116D01*
X154453461Y-69562116D01*
X154310604Y-69609736D01*
X154262985Y-69657355D01*
X153882033Y-69657355D02*
X153834414Y-69609736D01*
X153739176Y-69562116D01*
X153501080Y-69562116D01*
X153405842Y-69609736D01*
X153358223Y-69657355D01*
X153310604Y-69752593D01*
X153310604Y-69847831D01*
X153358223Y-69990688D01*
X153929652Y-70562116D01*
X153310604Y-70562116D01*
X155739176Y-68157355D02*
X155691557Y-68109736D01*
X155596319Y-68062116D01*
X155358223Y-68062116D01*
X155262985Y-68109736D01*
X155215366Y-68157355D01*
X155167747Y-68252593D01*
X155167747Y-68347831D01*
X155215366Y-68490688D01*
X155786795Y-69062116D01*
X155167747Y-69062116D01*
X154786795Y-68157355D02*
X154739176Y-68109736D01*
X154643938Y-68062116D01*
X154405842Y-68062116D01*
X154310604Y-68109736D01*
X154262985Y-68157355D01*
X154215366Y-68252593D01*
X154215366Y-68347831D01*
X154262985Y-68490688D01*
X154834414Y-69062116D01*
X154215366Y-69062116D01*
X153786795Y-68395450D02*
X153786795Y-69395450D01*
X153786795Y-68443069D02*
X153691557Y-68395450D01*
X153501080Y-68395450D01*
X153405842Y-68443069D01*
X153358223Y-68490688D01*
X153310604Y-68585926D01*
X153310604Y-68871640D01*
X153358223Y-68966878D01*
X153405842Y-69014497D01*
X153501080Y-69062116D01*
X153691557Y-69062116D01*
X153786795Y-69014497D01*
X152548699Y-68538307D02*
X152882033Y-68538307D01*
X152882033Y-69062116D02*
X152882033Y-68062116D01*
X152405842Y-68062116D01*
X154475485Y-84396876D02*
X154523104Y-84444495D01*
X154665961Y-84492114D01*
X154761199Y-84492114D01*
X154904057Y-84444495D01*
X154999295Y-84349257D01*
X155046914Y-84254019D01*
X155094533Y-84063543D01*
X155094533Y-83920686D01*
X155046914Y-83730210D01*
X154999295Y-83634972D01*
X154904057Y-83539734D01*
X154761199Y-83492114D01*
X154665961Y-83492114D01*
X154523104Y-83539734D01*
X154475485Y-83587353D01*
X153523104Y-84492114D02*
X154094533Y-84492114D01*
X153808819Y-84492114D02*
X153808819Y-83492114D01*
X153904057Y-83634972D01*
X153999295Y-83730210D01*
X154094533Y-83777829D01*
X155951676Y-85157353D02*
X155904057Y-85109734D01*
X155808819Y-85062114D01*
X155570723Y-85062114D01*
X155475485Y-85109734D01*
X155427866Y-85157353D01*
X155380247Y-85252591D01*
X155380247Y-85347829D01*
X155427866Y-85490686D01*
X155999295Y-86062114D01*
X155380247Y-86062114D01*
X154999295Y-85157353D02*
X154951676Y-85109734D01*
X154856438Y-85062114D01*
X154618342Y-85062114D01*
X154523104Y-85109734D01*
X154475485Y-85157353D01*
X154427866Y-85252591D01*
X154427866Y-85347829D01*
X154475485Y-85490686D01*
X155046914Y-86062114D01*
X154427866Y-86062114D01*
X153999295Y-85395448D02*
X153999295Y-86395448D01*
X153999295Y-85443067D02*
X153904057Y-85395448D01*
X153713580Y-85395448D01*
X153618342Y-85443067D01*
X153570723Y-85490686D01*
X153523104Y-85585924D01*
X153523104Y-85871638D01*
X153570723Y-85966876D01*
X153618342Y-86014495D01*
X153713580Y-86062114D01*
X153904057Y-86062114D01*
X153999295Y-86014495D01*
X152761199Y-85538305D02*
X153094533Y-85538305D01*
X153094533Y-86062114D02*
X153094533Y-85062114D01*
X152618342Y-85062114D01*
X125761904Y-81952380D02*
X125761904Y-82761904D01*
X125714285Y-82857142D01*
X125666666Y-82904761D01*
X125571428Y-82952380D01*
X125380952Y-82952380D01*
X125285714Y-82904761D01*
X125238095Y-82857142D01*
X125190476Y-82761904D01*
X125190476Y-81952380D01*
X124809523Y-81952380D02*
X124190476Y-81952380D01*
X124523809Y-82333333D01*
X124380952Y-82333333D01*
X124285714Y-82380952D01*
X124238095Y-82428571D01*
X124190476Y-82523809D01*
X124190476Y-82761904D01*
X124238095Y-82857142D01*
X124285714Y-82904761D01*
X124380952Y-82952380D01*
X124666666Y-82952380D01*
X124761904Y-82904761D01*
X124809523Y-82857142D01*
X127982912Y-84953456D02*
X128316246Y-84477266D01*
X128554341Y-84953456D02*
X128554341Y-83953456D01*
X128173388Y-83953456D01*
X128078150Y-84001076D01*
X128030531Y-84048695D01*
X127982912Y-84143933D01*
X127982912Y-84286790D01*
X128030531Y-84382028D01*
X128078150Y-84429647D01*
X128173388Y-84477266D01*
X128554341Y-84477266D01*
X127125769Y-84286790D02*
X127125769Y-84953456D01*
X127363865Y-83905837D02*
X127601960Y-84620123D01*
X126982912Y-84620123D01*
X128211484Y-86253456D02*
X128782912Y-86253456D01*
X128497198Y-86253456D02*
X128497198Y-85253456D01*
X128592436Y-85396314D01*
X128687674Y-85491552D01*
X128782912Y-85539171D01*
X127592436Y-85253456D02*
X127497198Y-85253456D01*
X127401960Y-85301076D01*
X127354341Y-85348695D01*
X127306722Y-85443933D01*
X127259103Y-85634409D01*
X127259103Y-85872504D01*
X127306722Y-86062980D01*
X127354341Y-86158218D01*
X127401960Y-86205837D01*
X127497198Y-86253456D01*
X127592436Y-86253456D01*
X127687674Y-86205837D01*
X127735293Y-86158218D01*
X127782912Y-86062980D01*
X127830531Y-85872504D01*
X127830531Y-85634409D01*
X127782912Y-85443933D01*
X127735293Y-85348695D01*
X127687674Y-85301076D01*
X127592436Y-85253456D01*
X126830531Y-86253456D02*
X126830531Y-85253456D01*
X126735293Y-85872504D02*
X126449579Y-86253456D01*
X126449579Y-85586790D02*
X126830531Y-85967742D01*
X135866666Y-64952380D02*
X136200000Y-64476190D01*
X136438095Y-64952380D02*
X136438095Y-63952380D01*
X136057142Y-63952380D01*
X135961904Y-64000000D01*
X135914285Y-64047619D01*
X135866666Y-64142857D01*
X135866666Y-64285714D01*
X135914285Y-64380952D01*
X135961904Y-64428571D01*
X136057142Y-64476190D01*
X136438095Y-64476190D01*
X135533333Y-63952380D02*
X134914285Y-63952380D01*
X135247619Y-64333333D01*
X135104761Y-64333333D01*
X135009523Y-64380952D01*
X134961904Y-64428571D01*
X134914285Y-64523809D01*
X134914285Y-64761904D01*
X134961904Y-64857142D01*
X135009523Y-64904761D01*
X135104761Y-64952380D01*
X135390476Y-64952380D01*
X135485714Y-64904761D01*
X135533333Y-64857142D01*
X136480952Y-65447619D02*
X136433333Y-65400000D01*
X136338095Y-65352380D01*
X136100000Y-65352380D01*
X136004761Y-65400000D01*
X135957142Y-65447619D01*
X135909523Y-65542857D01*
X135909523Y-65638095D01*
X135957142Y-65780952D01*
X136528571Y-66352380D01*
X135909523Y-66352380D01*
X135528571Y-65447619D02*
X135480952Y-65400000D01*
X135385714Y-65352380D01*
X135147619Y-65352380D01*
X135052380Y-65400000D01*
X135004761Y-65447619D01*
X134957142Y-65542857D01*
X134957142Y-65638095D01*
X135004761Y-65780952D01*
X135576190Y-66352380D01*
X134957142Y-66352380D01*
X149966666Y-70452380D02*
X150300000Y-69976190D01*
X150538095Y-70452380D02*
X150538095Y-69452380D01*
X150157142Y-69452380D01*
X150061904Y-69500000D01*
X150014285Y-69547619D01*
X149966666Y-69642857D01*
X149966666Y-69785714D01*
X150014285Y-69880952D01*
X150061904Y-69928571D01*
X150157142Y-69976190D01*
X150538095Y-69976190D01*
X149014285Y-70452380D02*
X149585714Y-70452380D01*
X149300000Y-70452380D02*
X149300000Y-69452380D01*
X149395238Y-69595238D01*
X149490476Y-69690476D01*
X149585714Y-69738095D01*
X150895238Y-69052380D02*
X151466666Y-69052380D01*
X151180952Y-69052380D02*
X151180952Y-68052380D01*
X151276190Y-68195238D01*
X151371428Y-68290476D01*
X151466666Y-68338095D01*
X150276190Y-68052380D02*
X150180952Y-68052380D01*
X150085714Y-68100000D01*
X150038095Y-68147619D01*
X149990476Y-68242857D01*
X149942857Y-68433333D01*
X149942857Y-68671428D01*
X149990476Y-68861904D01*
X150038095Y-68957142D01*
X150085714Y-69004761D01*
X150180952Y-69052380D01*
X150276190Y-69052380D01*
X150371428Y-69004761D01*
X150419047Y-68957142D01*
X150466666Y-68861904D01*
X150514285Y-68671428D01*
X150514285Y-68433333D01*
X150466666Y-68242857D01*
X150419047Y-68147619D01*
X150371428Y-68100000D01*
X150276190Y-68052380D01*
X149514285Y-69052380D02*
X149514285Y-68052380D01*
X149419047Y-68671428D02*
X149133333Y-69052380D01*
X149133333Y-68385714D02*
X149514285Y-68766666D01*
X146330189Y-64028571D02*
X146663522Y-64028571D01*
X146663522Y-64552380D02*
X146663522Y-63552380D01*
X146187332Y-63552380D01*
X145282570Y-64552380D02*
X145853998Y-64552380D01*
X145568284Y-64552380D02*
X145568284Y-63552380D01*
X145663522Y-63695238D01*
X145758760Y-63790476D01*
X145853998Y-63838095D01*
X150066666Y-67417517D02*
X150114285Y-67465136D01*
X150257142Y-67512755D01*
X150352380Y-67512755D01*
X150495238Y-67465136D01*
X150590476Y-67369898D01*
X150638095Y-67274660D01*
X150685714Y-67084184D01*
X150685714Y-66941327D01*
X150638095Y-66750851D01*
X150590476Y-66655613D01*
X150495238Y-66560375D01*
X150352380Y-66512755D01*
X150257142Y-66512755D01*
X150114285Y-66560375D01*
X150066666Y-66607994D01*
X149495238Y-66941327D02*
X149590476Y-66893708D01*
X149638095Y-66846089D01*
X149685714Y-66750851D01*
X149685714Y-66703232D01*
X149638095Y-66607994D01*
X149590476Y-66560375D01*
X149495238Y-66512755D01*
X149304761Y-66512755D01*
X149209523Y-66560375D01*
X149161904Y-66607994D01*
X149114285Y-66703232D01*
X149114285Y-66750851D01*
X149161904Y-66846089D01*
X149209523Y-66893708D01*
X149304761Y-66941327D01*
X149495238Y-66941327D01*
X149590476Y-66988946D01*
X149638095Y-67036565D01*
X149685714Y-67131803D01*
X149685714Y-67322279D01*
X149638095Y-67417517D01*
X149590476Y-67465136D01*
X149495238Y-67512755D01*
X149304761Y-67512755D01*
X149209523Y-67465136D01*
X149161904Y-67417517D01*
X149114285Y-67322279D01*
X149114285Y-67131803D01*
X149161904Y-67036565D01*
X149209523Y-66988946D01*
X149304761Y-66941327D01*
X151671428Y-66112755D02*
X152242857Y-66112755D01*
X151957142Y-66112755D02*
X151957142Y-65112755D01*
X152052380Y-65255613D01*
X152147619Y-65350851D01*
X152242857Y-65398470D01*
X151052380Y-65112755D02*
X150957142Y-65112755D01*
X150861904Y-65160375D01*
X150814285Y-65207994D01*
X150766666Y-65303232D01*
X150719047Y-65493708D01*
X150719047Y-65731803D01*
X150766666Y-65922279D01*
X150814285Y-66017517D01*
X150861904Y-66065136D01*
X150957142Y-66112755D01*
X151052380Y-66112755D01*
X151147619Y-66065136D01*
X151195238Y-66017517D01*
X151242857Y-65922279D01*
X151290476Y-65731803D01*
X151290476Y-65493708D01*
X151242857Y-65303232D01*
X151195238Y-65207994D01*
X151147619Y-65160375D01*
X151052380Y-65112755D01*
X149861904Y-65446089D02*
X149861904Y-66112755D01*
X150290476Y-65446089D02*
X150290476Y-65969898D01*
X150242857Y-66065136D01*
X150147619Y-66112755D01*
X150004761Y-66112755D01*
X149909523Y-66065136D01*
X149861904Y-66017517D01*
X149052380Y-65588946D02*
X149385714Y-65588946D01*
X149385714Y-66112755D02*
X149385714Y-65112755D01*
X148909523Y-65112755D01*
M02*
