G04 #@! TF.GenerationSoftware,KiCad,Pcbnew,5.1.8*
G04 #@! TF.CreationDate,2021-02-19T14:28:04-06:00*
G04 #@! TF.ProjectId,steno,7374656e-6f2e-46b6-9963-61645f706362,rev?*
G04 #@! TF.SameCoordinates,Original*
G04 #@! TF.FileFunction,Profile,NP*
%FSLAX46Y46*%
G04 Gerber Fmt 4.6, Leading zero omitted, Abs format (unit mm)*
G04 Created by KiCad (PCBNEW 5.1.8) date 2021-02-19 14:28:04*
%MOMM*%
%LPD*%
G01*
G04 APERTURE LIST*
G04 #@! TA.AperFunction,Profile*
%ADD10C,0.050000*%
G04 #@! TD*
G04 APERTURE END LIST*
D10*
X270213686Y-85146711D02*
X265004241Y-55602479D01*
X270213687Y-85146711D02*
G75*
G02*
X269402527Y-86305167I-984808J-173648D01*
G01*
X208861785Y-125919792D02*
G75*
G02*
X208050625Y-127078248I-984808J-173648D01*
G01*
X158809659Y-135763830D02*
X208050625Y-127078248D01*
X72865001Y-127074362D02*
X122109893Y-135759590D01*
X72865001Y-127074362D02*
G75*
G02*
X72053842Y-125915907I173648J984807D01*
G01*
X10701939Y-85142826D02*
X15911384Y-55598593D01*
X11513099Y-86301282D02*
G75*
G02*
X10701939Y-85142826I173648J984808D01*
G01*
X210265716Y-56116568D02*
X208890341Y-56401643D01*
X208890341Y-56401643D02*
X207461942Y-56686625D01*
X207461942Y-56686625D02*
X205982462Y-56970105D01*
X205982462Y-56970105D02*
X204453847Y-57250677D01*
X204453847Y-57250677D02*
X202878039Y-57526934D01*
X202878039Y-57526934D02*
X201256985Y-57797468D01*
X201256985Y-57797468D02*
X199592627Y-58060873D01*
X199592627Y-58060873D02*
X197886910Y-58315741D01*
X197886910Y-58315741D02*
X196141778Y-58560666D01*
X196141778Y-58560666D02*
X194359176Y-58794240D01*
X194359176Y-58794240D02*
X192541047Y-59015056D01*
X192541047Y-59015056D02*
X190689337Y-59221707D01*
X190689337Y-59221707D02*
X188805989Y-59412787D01*
X188805989Y-59412787D02*
X186892948Y-59586888D01*
X186892948Y-59586888D02*
X184952157Y-59742602D01*
X184952157Y-59742602D02*
X182985562Y-59878524D01*
X182985562Y-59878524D02*
X180995105Y-59993245D01*
X180995105Y-59993245D02*
X178982733Y-60085359D01*
X178982733Y-60085359D02*
X176950388Y-60153459D01*
X176950388Y-60153459D02*
X174900016Y-60196138D01*
X174900016Y-60196138D02*
X172833560Y-60211988D01*
X172833560Y-60211988D02*
X170752964Y-60199603D01*
X170752964Y-60199603D02*
X168660174Y-60157575D01*
X168660174Y-60157575D02*
X166557132Y-60084498D01*
X166557132Y-60084498D02*
X164445784Y-59978965D01*
X164445784Y-59978965D02*
X162328074Y-59839567D01*
X162328074Y-59839567D02*
X160205945Y-59664899D01*
X160205945Y-59664899D02*
X158081343Y-59453553D01*
X158081343Y-59453553D02*
X155956211Y-59204122D01*
X155956211Y-59204122D02*
X153832494Y-58915199D01*
X153832494Y-58915199D02*
X151712136Y-58585377D01*
X151712136Y-58585377D02*
X149597082Y-58213250D01*
X265004241Y-55602479D02*
X264815334Y-55028961D01*
X264815334Y-55028961D02*
X264377253Y-54522893D01*
X264377253Y-54522893D02*
X263705098Y-54081335D01*
X263705098Y-54081335D02*
X262813968Y-53701345D01*
X262813968Y-53701345D02*
X261718965Y-53379981D01*
X261718965Y-53379981D02*
X260435188Y-53114302D01*
X260435188Y-53114302D02*
X258977737Y-52901368D01*
X258977737Y-52901368D02*
X257361713Y-52738236D01*
X257361713Y-52738236D02*
X255602216Y-52621965D01*
X255602216Y-52621965D02*
X253714346Y-52549615D01*
X253714346Y-52549615D02*
X251713204Y-52518244D01*
X251713204Y-52518244D02*
X249613889Y-52524910D01*
X249613889Y-52524910D02*
X247431502Y-52566672D01*
X247431502Y-52566672D02*
X245181143Y-52640590D01*
X245181143Y-52640590D02*
X242877912Y-52743721D01*
X242877912Y-52743721D02*
X240536910Y-52873125D01*
X240536910Y-52873125D02*
X238173236Y-53025861D01*
X238173236Y-53025861D02*
X235801991Y-53198986D01*
X235801991Y-53198986D02*
X233438275Y-53389559D01*
X233438275Y-53389559D02*
X231097189Y-53594641D01*
X231097189Y-53594641D02*
X228793832Y-53811288D01*
X228793832Y-53811288D02*
X226543304Y-54036560D01*
X226543304Y-54036560D02*
X224360707Y-54267516D01*
X224360707Y-54267516D02*
X222261140Y-54501214D01*
X222261140Y-54501214D02*
X220259703Y-54734713D01*
X220259703Y-54734713D02*
X218371497Y-54965072D01*
X218371497Y-54965072D02*
X216611622Y-55189349D01*
X216611622Y-55189349D02*
X214995178Y-55404603D01*
X214995178Y-55404603D02*
X213537265Y-55607894D01*
X213537265Y-55607894D02*
X212252983Y-55796279D01*
X212252983Y-55796279D02*
X211157433Y-55966817D01*
X211157433Y-55966817D02*
X210265716Y-56116568D01*
X269402527Y-86305167D02*
X263452889Y-87355227D01*
X263452889Y-87355227D02*
X257875215Y-88344992D01*
X257875215Y-88344992D02*
X252658488Y-89281705D01*
X252658488Y-89281705D02*
X247791689Y-90172607D01*
X247791689Y-90172607D02*
X243263802Y-91024940D01*
X243263802Y-91024940D02*
X239063810Y-91845945D01*
X239063810Y-91845945D02*
X235180694Y-92642864D01*
X235180694Y-92642864D02*
X231603437Y-93422938D01*
X231603437Y-93422938D02*
X228321023Y-94193410D01*
X228321023Y-94193410D02*
X225322432Y-94961521D01*
X225322432Y-94961521D02*
X222596649Y-95734513D01*
X222596649Y-95734513D02*
X220132656Y-96519627D01*
X220132656Y-96519627D02*
X217919435Y-97324105D01*
X217919435Y-97324105D02*
X215945968Y-98155189D01*
X215945968Y-98155189D02*
X214201239Y-99020120D01*
X214201239Y-99020120D02*
X212674230Y-99926140D01*
X212674230Y-99926140D02*
X211353923Y-100880491D01*
X211353923Y-100880491D02*
X210229302Y-101890415D01*
X210229302Y-101890415D02*
X209289348Y-102963152D01*
X209289348Y-102963152D02*
X208523045Y-104105946D01*
X208523045Y-104105946D02*
X207919374Y-105326037D01*
X207919374Y-105326037D02*
X207467319Y-106630667D01*
X207467319Y-106630667D02*
X207155862Y-108027078D01*
X207155862Y-108027078D02*
X206973985Y-109522511D01*
X206973985Y-109522511D02*
X206910672Y-111124209D01*
X206910672Y-111124209D02*
X206954904Y-112839412D01*
X206954904Y-112839412D02*
X207095665Y-114675364D01*
X207095665Y-114675364D02*
X207321936Y-116639304D01*
X207321936Y-116639304D02*
X207622701Y-118738475D01*
X207622701Y-118738475D02*
X207986943Y-120980119D01*
X207986943Y-120980119D02*
X208403642Y-123371477D01*
X208403642Y-123371477D02*
X208861784Y-125919792D01*
X152913327Y-119410080D02*
X127913325Y-119410082D01*
X152913327Y-120410081D02*
X152913327Y-119410080D01*
X127913328Y-120410081D02*
X152913327Y-120410081D01*
X127913325Y-119410082D02*
X127913328Y-120410081D01*
X122109893Y-135759591D02*
X123242885Y-135985651D01*
X123242885Y-135985651D02*
X124375492Y-136197128D01*
X124375492Y-136197128D02*
X125507841Y-136394022D01*
X125507841Y-136394022D02*
X126640060Y-136576334D01*
X126640060Y-136576334D02*
X127772277Y-136744064D01*
X127772277Y-136744064D02*
X128904620Y-136897214D01*
X128904620Y-136897214D02*
X130037218Y-137035783D01*
X130037218Y-137035783D02*
X131170199Y-137159774D01*
X131170199Y-137159774D02*
X132303690Y-137269186D01*
X132303690Y-137269186D02*
X133437820Y-137364021D01*
X133437820Y-137364021D02*
X134572717Y-137444279D01*
X134572717Y-137444279D02*
X135708510Y-137509960D01*
X135708510Y-137509960D02*
X136845325Y-137561067D01*
X136845325Y-137561067D02*
X137983292Y-137597599D01*
X137983292Y-137597599D02*
X139122539Y-137619558D01*
X139122539Y-137619558D02*
X140263193Y-137626943D01*
X140263193Y-137626943D02*
X141405383Y-137619757D01*
X141405383Y-137619757D02*
X142549237Y-137597999D01*
X142549237Y-137597999D02*
X143694883Y-137561670D01*
X143694883Y-137561670D02*
X144842449Y-137510772D01*
X144842449Y-137510772D02*
X145992064Y-137445304D01*
X145992064Y-137445304D02*
X147143855Y-137365269D01*
X147143855Y-137365269D02*
X148297950Y-137270666D01*
X148297950Y-137270666D02*
X149454479Y-137161496D01*
X149454479Y-137161496D02*
X150613568Y-137037760D01*
X150613568Y-137037760D02*
X151775346Y-136899459D01*
X151775346Y-136899459D02*
X152939941Y-136746594D01*
X152939941Y-136746594D02*
X154107482Y-136579165D01*
X154107482Y-136579165D02*
X155278095Y-136397174D01*
X155278095Y-136397174D02*
X156451911Y-136200620D01*
X156451911Y-136200620D02*
X157629056Y-135989505D01*
X157629056Y-135989505D02*
X158809659Y-135763830D01*
X11513098Y-86301286D02*
X17463092Y-87351313D01*
X17463092Y-87351313D02*
X23041100Y-88341048D01*
X23041100Y-88341048D02*
X28258139Y-89277733D01*
X28258139Y-89277733D02*
X33125225Y-90168609D01*
X33125225Y-90168609D02*
X37653377Y-91020917D01*
X37653377Y-91020917D02*
X41853612Y-91841900D01*
X41853612Y-91841900D02*
X45736947Y-92638799D01*
X45736947Y-92638799D02*
X49314399Y-93418855D01*
X49314399Y-93418855D02*
X52596986Y-94189311D01*
X52596986Y-94189311D02*
X55595726Y-94957408D01*
X55595726Y-94957408D02*
X58321636Y-95730388D01*
X58321636Y-95730388D02*
X60785733Y-96515493D01*
X60785733Y-96515493D02*
X62999035Y-97319963D01*
X62999035Y-97319963D02*
X64972559Y-98151042D01*
X64972559Y-98151042D02*
X66717323Y-99015970D01*
X66717323Y-99015970D02*
X68244343Y-99921989D01*
X68244343Y-99921989D02*
X69564638Y-100876341D01*
X69564638Y-100876341D02*
X70689225Y-101886267D01*
X70689225Y-101886267D02*
X71629121Y-102959010D01*
X71629121Y-102959010D02*
X72395344Y-104101811D01*
X72395344Y-104101811D02*
X72998911Y-105321911D01*
X72998911Y-105321911D02*
X73450839Y-106626553D01*
X73450839Y-106626553D02*
X73762147Y-108022977D01*
X73762147Y-108022977D02*
X73943851Y-109518426D01*
X73943851Y-109518426D02*
X74006968Y-111120142D01*
X74006968Y-111120142D02*
X73962517Y-112835365D01*
X73962517Y-112835365D02*
X73821515Y-114671338D01*
X73821515Y-114671338D02*
X73594978Y-116635302D01*
X73594978Y-116635302D02*
X73293925Y-118734500D01*
X73293925Y-118734500D02*
X72929373Y-120976172D01*
X72929373Y-120976172D02*
X72512339Y-123367560D01*
X72512339Y-123367560D02*
X72053842Y-125915907D01*
X70653834Y-56112323D02*
X72029220Y-56397398D01*
X72029220Y-56397398D02*
X73457699Y-56682380D01*
X73457699Y-56682380D02*
X74937396Y-56965860D01*
X74937396Y-56965860D02*
X76466434Y-57246432D01*
X76466434Y-57246432D02*
X78042939Y-57522688D01*
X78042939Y-57522688D02*
X79665034Y-57793223D01*
X79665034Y-57793223D02*
X81330844Y-58056627D01*
X81330844Y-58056627D02*
X83038493Y-58311496D01*
X83038493Y-58311496D02*
X84786105Y-58556420D01*
X84786105Y-58556420D02*
X86571806Y-58789994D01*
X86571806Y-58789994D02*
X88393718Y-59010810D01*
X88393718Y-59010810D02*
X90249967Y-59217462D01*
X90249967Y-59217462D02*
X92138677Y-59408541D01*
X92138677Y-59408541D02*
X94057972Y-59582642D01*
X94057972Y-59582642D02*
X96005976Y-59738357D01*
X96005976Y-59738357D02*
X97980814Y-59874278D01*
X97980814Y-59874278D02*
X99980611Y-59989000D01*
X99980611Y-59989000D02*
X102003490Y-60081114D01*
X102003490Y-60081114D02*
X104047575Y-60149214D01*
X104047575Y-60149214D02*
X106110992Y-60191893D01*
X106110992Y-60191893D02*
X108191864Y-60207743D01*
X108191864Y-60207743D02*
X110288316Y-60195358D01*
X110288316Y-60195358D02*
X112398472Y-60153331D01*
X112398472Y-60153331D02*
X114520457Y-60080254D01*
X114520457Y-60080254D02*
X116652395Y-59974720D01*
X116652395Y-59974720D02*
X118792409Y-59835323D01*
X118792409Y-59835323D02*
X120938626Y-59660655D01*
X120938626Y-59660655D02*
X123089168Y-59449309D01*
X123089168Y-59449309D02*
X125242160Y-59199878D01*
X125242160Y-59199878D02*
X127395726Y-58910955D01*
X127395726Y-58910955D02*
X129547992Y-58581133D01*
X129547992Y-58581133D02*
X131697081Y-58209006D01*
X15911384Y-55598593D02*
X16100647Y-55025042D01*
X16100647Y-55025042D02*
X16539062Y-54518944D01*
X16539062Y-54518944D02*
X17211531Y-54077357D01*
X17211531Y-54077357D02*
X18102952Y-53697340D01*
X18102952Y-53697340D02*
X19198228Y-53375952D01*
X19198228Y-53375952D02*
X20482257Y-53110250D01*
X20482257Y-53110250D02*
X21939942Y-52897294D01*
X21939942Y-52897294D02*
X23556181Y-52734143D01*
X23556181Y-52734143D02*
X25315877Y-52617854D01*
X25315877Y-52617854D02*
X27203929Y-52545487D01*
X27203929Y-52545487D02*
X29205237Y-52514101D01*
X29205237Y-52514101D02*
X31304703Y-52520753D01*
X31304703Y-52520753D02*
X33487227Y-52562503D01*
X33487227Y-52562503D02*
X35737709Y-52636410D01*
X35737709Y-52636410D02*
X38041050Y-52739531D01*
X38041050Y-52739531D02*
X40382150Y-52868926D01*
X40382150Y-52868926D02*
X42745910Y-53021654D01*
X42745910Y-53021654D02*
X45117231Y-53194772D01*
X45117231Y-53194772D02*
X47481012Y-53385340D01*
X47481012Y-53385340D02*
X49822155Y-53590416D01*
X49822155Y-53590416D02*
X52125559Y-53807059D01*
X52125559Y-53807059D02*
X54376126Y-54032327D01*
X54376126Y-54032327D02*
X56558755Y-54263280D01*
X56558755Y-54263280D02*
X58658348Y-54496976D01*
X58658348Y-54496976D02*
X60659805Y-54730473D01*
X60659805Y-54730473D02*
X62548026Y-54960830D01*
X62548026Y-54960830D02*
X64307912Y-55185106D01*
X64307912Y-55185106D02*
X65924364Y-55400360D01*
X65924364Y-55400360D02*
X67382281Y-55603650D01*
X67382281Y-55603650D02*
X68666565Y-55792034D01*
X68666565Y-55792034D02*
X69762116Y-55962572D01*
X69762116Y-55962572D02*
X70653834Y-56112323D01*
X149597082Y-58213250D02*
X131697081Y-58209006D01*
M02*
