M48
; DRILL file {KiCad 5.1.8} date Mon Mar  1 17:08:39 2021
; FORMAT={-:-/ absolute / inch / decimal}
; #@! TF.CreationDate,2021-03-01T17:08:39-06:00
; #@! TF.GenerationSoftware,Kicad,Pcbnew,5.1.8
; #@! TF.FileFunction,Plated,1,2,PTH
FMAT,2
INCH
T1C0.0157
T2C0.0236
T3C0.0472
%
G90
G05
T1
X3.0316Y-4.439
X3.8035Y-4.5683
X3.9197Y-3.9092
X4.4439Y-3.9558
X4.5014Y-4.6913
X4.6852Y-3.9666
X4.8727Y-3.7997
X4.9042Y-4.3351
X4.9435Y-3.7253
X5.038Y-3.3784
X5.0616Y-2.9217
X5.0892Y-3.4335
X5.0892Y-4.0674
X5.1876Y-3.4335
X5.2388Y-4.0674
X5.2546Y-4.1579
X5.2624Y-2.7918
X5.2982Y-3.4418
X5.3175Y-3.1264
X5.3258Y-2.7725
X5.3261Y-3.0691
X5.3297Y-2.6662
X5.3297Y-2.5048
X5.3449Y-3.029
X5.3809Y-3.7253
X5.3851Y-3.9848
X5.4045Y-3.8827
X5.4084Y-3.3788
X5.434Y-2.4654
X5.4553Y-3.891
X5.4675Y-2.5008
X5.5002Y-3.4745
X5.5356Y-3.5138
X5.5462Y-2.4969
X5.5671Y-3.1989
X5.5671Y-3.5532
X5.5971Y-4.3824
X5.5974Y-3.7646
X5.5995Y-3.5926
X5.6049Y-4.0044
X5.6207Y-3.8981
X5.623Y-2.4654
X5.6251Y-2.6395
X5.6309Y-3.6319
X5.6368Y-2.556
X5.6525Y-3.7961
X5.6561Y-3.028
X5.6616Y-3.6713
X5.684Y-2.5087
X5.688Y-3.8276
X5.6958Y-2.7686
X5.7352Y-3.8355
X5.7394Y-2.7682
X5.7591Y-2.8076
X5.7979Y-3.0398
X5.7986Y-2.8075
X5.8297Y-2.6662
X5.8576Y-3.2997
X5.8609Y-2.8705
X5.873Y-3.4457
X5.9357Y-4.095
X5.936Y-3.741
X5.936Y-3.3985
X5.9672Y-3.1421
X6.0423Y-2.5008
X6.0423Y-2.8552
X6.2155Y-3.2961
X6.3231Y-4.7327
X6.3781Y-3.9666
X6.6734Y-3.8288
X6.8842Y-3.8342
X7.021Y-4.6096
X7.589Y-3.7499
X7.7189Y-4.4866
X8.0457Y-4.4284
T3
X1.4936Y-3.0457
X1.6731Y-3.1614
X9.5636Y-3.0459
X9.7719Y-3.0931
X10.2615Y-2.9228
X10.4698Y-2.9701
X4.6069Y-4.774
X4.7864Y-4.8896
X4.4355Y-2.685
X4.615Y-2.8006
X2.2256Y-2.9749
X2.4051Y-3.0905
X3.6214Y-3.2211
X3.8009Y-3.3367
X7.8461Y-4.5281
X8.0543Y-4.5753
X9.4474Y-2.3868
X9.6556Y-2.434
X10.1453Y-2.2637
X10.3535Y-2.311
X8.1132Y-2.9818
X8.3214Y-3.0291
X0.9119Y-2.2636
X1.0914Y-2.3792
X7.9969Y-2.3227
X8.2052Y-2.37
X1.6098Y-2.3866
X1.7893Y-2.5022
X7.3195Y-2.5621
X7.5278Y-2.6093
X4.3193Y-3.3441
X4.4988Y-3.4597
X2.3419Y-2.3158
X2.5214Y-2.4314
X3.909Y-4.651
X4.0885Y-4.7666
X0.7957Y-2.9227
X0.9752Y-3.0383
X8.8316Y-2.9751
X9.0398Y-3.0223
X8.7153Y-2.316
X8.9236Y-2.3632
X3.7376Y-2.5619
X3.9171Y-2.6775
X6.7379Y-3.3443
X6.9461Y-3.3915
X7.1482Y-4.6511
X7.3564Y-4.6984
X7.4358Y-3.2212
X7.644Y-3.2685
X3.0603Y-2.3226
X3.2398Y-2.4382
X3.2111Y-4.5279
X3.3906Y-4.6435
X6.6217Y-2.6851
X6.8299Y-2.7324
X6.4503Y-4.7742
X6.6585Y-4.8214
X2.944Y-2.9817
X3.1235Y-3.0973
T2
G00X5.3584Y-2.2193
M15
G01X5.3584Y-2.1957
M16
G05
G00X5.3584Y-2.3938
M15
G01X5.3584Y-2.3505
M16
G05
G00X5.6986Y-2.2193
M15
G01X5.6986Y-2.1957
M16
G05
G00X5.6986Y-2.3938
M15
G01X5.6986Y-2.3505
M16
G05
T0
M30
