G04 #@! TF.GenerationSoftware,KiCad,Pcbnew,5.1.5*
G04 #@! TF.CreationDate,2020-05-14T17:03:41-05:00*
G04 #@! TF.ProjectId,steno-v2,7374656e-6f2d-4763-922e-6b696361645f,rev?*
G04 #@! TF.SameCoordinates,Original*
G04 #@! TF.FileFunction,Copper,L2,Bot*
G04 #@! TF.FilePolarity,Positive*
%FSLAX46Y46*%
G04 Gerber Fmt 4.6, Leading zero omitted, Abs format (unit mm)*
G04 Created by KiCad (PCBNEW 5.1.5) date 2020-05-14 17:03:41*
%MOMM*%
%LPD*%
G04 APERTURE LIST*
%ADD10C,2.000000*%
%ADD11O,1.700000X1.700000*%
%ADD12R,1.700000X1.700000*%
%ADD13C,1.500000*%
%ADD14C,0.100000*%
%ADD15C,1.778000*%
%ADD16R,1.778000X1.778000*%
%ADD17C,3.302000*%
%ADD18C,0.800000*%
%ADD19C,0.508000*%
%ADD20C,0.254000*%
G04 APERTURE END LIST*
D10*
X197202217Y-47550001D03*
X191785511Y-47286748D03*
X271016449Y-39839018D03*
X265599743Y-39575765D03*
X265202108Y-23864243D03*
X259785402Y-23600990D03*
X212636170Y-77916165D03*
X207219464Y-77652912D03*
X195721702Y-84072528D03*
X190304996Y-83809275D03*
X178807235Y-90228890D03*
X173390529Y-89965637D03*
X127691662Y-93651060D03*
X123711441Y-89967605D03*
X110777195Y-87494697D03*
X106796974Y-83811242D03*
X93862728Y-81338334D03*
X89882507Y-77654879D03*
X254101983Y-45995380D03*
X248685277Y-45732127D03*
X231031152Y-35237277D03*
X225614446Y-34974024D03*
X212064565Y-35755482D03*
X206647859Y-35492229D03*
X180287750Y-53706363D03*
X174871044Y-53443110D03*
X128208140Y-57119269D03*
X124227919Y-53435814D03*
X111296633Y-50967508D03*
X107316412Y-47284053D03*
X96434287Y-39172989D03*
X92454066Y-35489534D03*
X77467699Y-38654782D03*
X73487478Y-34971327D03*
X54396869Y-49412887D03*
X50416648Y-45729432D03*
X248287640Y-30020606D03*
X242870934Y-29757353D03*
X225216810Y-19262501D03*
X219800104Y-18999248D03*
X206250222Y-19780708D03*
X200833516Y-19517455D03*
X191387875Y-31575227D03*
X185971169Y-31311974D03*
X174473408Y-37731589D03*
X169056702Y-37468336D03*
X134025443Y-41149095D03*
X130045222Y-37465640D03*
X117110975Y-34992732D03*
X113130754Y-31309277D03*
X102248630Y-23198215D03*
X98268409Y-19514760D03*
X83282042Y-22680008D03*
X79301821Y-18996553D03*
X60211212Y-33438113D03*
X56230991Y-29754658D03*
D11*
X130800000Y-105120000D03*
X130800000Y-102580000D03*
X130800000Y-100040000D03*
D12*
X130800000Y-97500000D03*
D13*
X203461154Y-70925335D02*
X203461154Y-70925335D01*
G04 #@! TA.AperFunction,ComponentPad*
D14*
G36*
X199893676Y-63316623D02*
G01*
X201303215Y-62803592D01*
X201816246Y-64213131D01*
X200406707Y-64726162D01*
X199893676Y-63316623D01*
G37*
G04 #@! TD.AperFunction*
D13*
X197822998Y-72977456D02*
X197822998Y-72977456D01*
G04 #@! TA.AperFunction,ComponentPad*
D14*
G36*
X194255520Y-65368744D02*
G01*
X195665059Y-64855713D01*
X196178090Y-66265252D01*
X194768551Y-66778283D01*
X194255520Y-65368744D01*
G37*
G04 #@! TD.AperFunction*
D13*
X188426072Y-76397657D02*
X188426072Y-76397657D01*
G04 #@! TA.AperFunction,ComponentPad*
D14*
G36*
X184858594Y-68788945D02*
G01*
X186268133Y-68275914D01*
X186781164Y-69685453D01*
X185371625Y-70198484D01*
X184858594Y-68788945D01*
G37*
G04 #@! TD.AperFunction*
D13*
X182787916Y-78449778D02*
X182787916Y-78449778D01*
G04 #@! TA.AperFunction,ComponentPad*
D14*
G36*
X179220438Y-70841066D02*
G01*
X180629977Y-70328035D01*
X181143008Y-71737574D01*
X179733469Y-72250605D01*
X179220438Y-70841066D01*
G37*
G04 #@! TD.AperFunction*
D13*
X177149760Y-80501899D02*
X177149760Y-80501899D01*
G04 #@! TA.AperFunction,ComponentPad*
D14*
G36*
X173582282Y-72893187D02*
G01*
X174991821Y-72380156D01*
X175504852Y-73789695D01*
X174095313Y-74302726D01*
X173582282Y-72893187D01*
G37*
G04 #@! TD.AperFunction*
D13*
X121478996Y-81271686D02*
X121478996Y-81271686D01*
G04 #@! TA.AperFunction,ComponentPad*
D14*
G36*
X123636935Y-73149943D02*
G01*
X125046474Y-73662974D01*
X124533443Y-75072513D01*
X123123904Y-74559482D01*
X123636935Y-73149943D01*
G37*
G04 #@! TD.AperFunction*
D13*
X115840840Y-79219565D02*
X115840840Y-79219565D01*
G04 #@! TA.AperFunction,ComponentPad*
D14*
G36*
X117998779Y-71097822D02*
G01*
X119408318Y-71610853D01*
X118895287Y-73020392D01*
X117485748Y-72507361D01*
X117998779Y-71097822D01*
G37*
G04 #@! TD.AperFunction*
D13*
X110202685Y-77167444D02*
X110202685Y-77167444D01*
G04 #@! TA.AperFunction,ComponentPad*
D14*
G36*
X112360624Y-69045701D02*
G01*
X113770163Y-69558732D01*
X113257132Y-70968271D01*
X111847593Y-70455240D01*
X112360624Y-69045701D01*
G37*
G04 #@! TD.AperFunction*
D13*
X201581768Y-71609376D02*
X201581768Y-71609376D01*
G04 #@! TA.AperFunction,ComponentPad*
D14*
G36*
X198014290Y-64000664D02*
G01*
X199423829Y-63487633D01*
X199936860Y-64897172D01*
X198527321Y-65410203D01*
X198014290Y-64000664D01*
G37*
G04 #@! TD.AperFunction*
D13*
X195943613Y-73661496D02*
X195943613Y-73661496D01*
G04 #@! TA.AperFunction,ComponentPad*
D14*
G36*
X192376135Y-66052784D02*
G01*
X193785674Y-65539753D01*
X194298705Y-66949292D01*
X192889166Y-67462323D01*
X192376135Y-66052784D01*
G37*
G04 #@! TD.AperFunction*
D13*
X192184842Y-75029577D02*
X192184842Y-75029577D01*
G04 #@! TA.AperFunction,ComponentPad*
D14*
G36*
X188617364Y-67420865D02*
G01*
X190026903Y-66907834D01*
X190539934Y-68317373D01*
X189130395Y-68830404D01*
X188617364Y-67420865D01*
G37*
G04 #@! TD.AperFunction*
D13*
X186546686Y-77081698D02*
X186546686Y-77081698D01*
G04 #@! TA.AperFunction,ComponentPad*
D14*
G36*
X182979208Y-69472986D02*
G01*
X184388747Y-68959955D01*
X184901778Y-70369494D01*
X183492239Y-70882525D01*
X182979208Y-69472986D01*
G37*
G04 #@! TD.AperFunction*
D13*
X180908530Y-79133819D02*
X180908530Y-79133819D01*
G04 #@! TA.AperFunction,ComponentPad*
D14*
G36*
X177341052Y-71525107D02*
G01*
X178750591Y-71012076D01*
X179263622Y-72421615D01*
X177854083Y-72934646D01*
X177341052Y-71525107D01*
G37*
G04 #@! TD.AperFunction*
D13*
X119599611Y-80587646D02*
X119599611Y-80587646D01*
G04 #@! TA.AperFunction,ComponentPad*
D14*
G36*
X121757550Y-72465903D02*
G01*
X123167089Y-72978934D01*
X122654058Y-74388473D01*
X121244519Y-73875442D01*
X121757550Y-72465903D01*
G37*
G04 #@! TD.AperFunction*
D13*
X112082070Y-77851485D02*
X112082070Y-77851485D01*
G04 #@! TA.AperFunction,ComponentPad*
D14*
G36*
X114240009Y-69729742D02*
G01*
X115649548Y-70242773D01*
X115136517Y-71652312D01*
X113726978Y-71139281D01*
X114240009Y-69729742D01*
G37*
G04 #@! TD.AperFunction*
D13*
X106443914Y-75799364D02*
X106443914Y-75799364D01*
G04 #@! TA.AperFunction,ComponentPad*
D14*
G36*
X108601853Y-67677621D02*
G01*
X110011392Y-68190652D01*
X109498361Y-69600191D01*
X108088822Y-69087160D01*
X108601853Y-67677621D01*
G37*
G04 #@! TD.AperFunction*
D13*
X102685144Y-74431283D02*
X102685144Y-74431283D01*
G04 #@! TA.AperFunction,ComponentPad*
D14*
G36*
X104843083Y-66309540D02*
G01*
X106252622Y-66822571D01*
X105739591Y-68232110D01*
X104330052Y-67719079D01*
X104843083Y-66309540D01*
G37*
G04 #@! TD.AperFunction*
D13*
X98926373Y-73063203D02*
X98926373Y-73063203D01*
G04 #@! TA.AperFunction,ComponentPad*
D14*
G36*
X101084312Y-64941460D02*
G01*
X102493851Y-65454491D01*
X101980820Y-66864030D01*
X100571281Y-66350999D01*
X101084312Y-64941460D01*
G37*
G04 #@! TD.AperFunction*
D13*
X199702383Y-72293416D02*
X199702383Y-72293416D01*
G04 #@! TA.AperFunction,ComponentPad*
D14*
G36*
X196134905Y-64684704D02*
G01*
X197544444Y-64171673D01*
X198057475Y-65581212D01*
X196647936Y-66094243D01*
X196134905Y-64684704D01*
G37*
G04 #@! TD.AperFunction*
D13*
X194064227Y-74345536D02*
X194064227Y-74345536D01*
G04 #@! TA.AperFunction,ComponentPad*
D14*
G36*
X190496749Y-66736824D02*
G01*
X191906288Y-66223793D01*
X192419319Y-67633332D01*
X191009780Y-68146363D01*
X190496749Y-66736824D01*
G37*
G04 #@! TD.AperFunction*
D13*
X190305457Y-75713617D02*
X190305457Y-75713617D01*
G04 #@! TA.AperFunction,ComponentPad*
D14*
G36*
X186737979Y-68104905D02*
G01*
X188147518Y-67591874D01*
X188660549Y-69001413D01*
X187251010Y-69514444D01*
X186737979Y-68104905D01*
G37*
G04 #@! TD.AperFunction*
D13*
X184667301Y-77765738D02*
X184667301Y-77765738D01*
G04 #@! TA.AperFunction,ComponentPad*
D14*
G36*
X181099823Y-70157026D02*
G01*
X182509362Y-69643995D01*
X183022393Y-71053534D01*
X181612854Y-71566565D01*
X181099823Y-70157026D01*
G37*
G04 #@! TD.AperFunction*
D13*
X179029145Y-79817859D02*
X179029145Y-79817859D01*
G04 #@! TA.AperFunction,ComponentPad*
D14*
G36*
X175461667Y-72209147D02*
G01*
X176871206Y-71696116D01*
X177384237Y-73105655D01*
X175974698Y-73618686D01*
X175461667Y-72209147D01*
G37*
G04 #@! TD.AperFunction*
D13*
X117720226Y-79903605D02*
X117720226Y-79903605D01*
G04 #@! TA.AperFunction,ComponentPad*
D14*
G36*
X119878165Y-71781862D02*
G01*
X121287704Y-72294893D01*
X120774673Y-73704432D01*
X119365134Y-73191401D01*
X119878165Y-71781862D01*
G37*
G04 #@! TD.AperFunction*
D13*
X113961455Y-78535525D02*
X113961455Y-78535525D01*
G04 #@! TA.AperFunction,ComponentPad*
D14*
G36*
X116119394Y-70413782D02*
G01*
X117528933Y-70926813D01*
X117015902Y-72336352D01*
X115606363Y-71823321D01*
X116119394Y-70413782D01*
G37*
G04 #@! TD.AperFunction*
D13*
X108323299Y-76483404D02*
X108323299Y-76483404D01*
G04 #@! TA.AperFunction,ComponentPad*
D14*
G36*
X110481238Y-68361661D02*
G01*
X111890777Y-68874692D01*
X111377746Y-70284231D01*
X109968207Y-69771200D01*
X110481238Y-68361661D01*
G37*
G04 #@! TD.AperFunction*
D13*
X104564529Y-75115323D02*
X104564529Y-75115323D01*
G04 #@! TA.AperFunction,ComponentPad*
D14*
G36*
X106722468Y-66993580D02*
G01*
X108132007Y-67506611D01*
X107618976Y-68916150D01*
X106209437Y-68403119D01*
X106722468Y-66993580D01*
G37*
G04 #@! TD.AperFunction*
D13*
X100805758Y-73747243D02*
X100805758Y-73747243D01*
G04 #@! TA.AperFunction,ComponentPad*
D14*
G36*
X102963697Y-65625500D02*
G01*
X104373236Y-66138531D01*
X103860205Y-67548070D01*
X102450666Y-67035039D01*
X102963697Y-65625500D01*
G37*
G04 #@! TD.AperFunction*
D15*
X159660000Y-82850000D03*
X159660000Y-80310000D03*
X159660000Y-77770000D03*
X159660000Y-75230000D03*
X159660000Y-72690000D03*
X159660000Y-70150000D03*
X159660000Y-67610000D03*
X159660000Y-65070000D03*
X159660000Y-62530000D03*
X159660000Y-59990000D03*
D16*
X159660000Y-54910000D03*
D15*
X159660000Y-57450000D03*
D16*
X139340000Y-82850000D03*
D15*
X139340000Y-80310000D03*
X139340000Y-77770000D03*
X139340000Y-75230000D03*
X139340000Y-72690000D03*
X139340000Y-70150000D03*
X139340000Y-67610000D03*
X139340000Y-65070000D03*
X139340000Y-62530000D03*
X139340000Y-59990000D03*
X139340000Y-57450000D03*
X139340000Y-54910000D03*
X139340000Y-52370000D03*
X139340000Y-49830000D03*
X139340000Y-47290000D03*
X139340000Y-44750000D03*
D17*
X158390000Y-86660000D03*
X140610000Y-86660000D03*
X140610000Y-40940000D03*
X158390000Y-40940000D03*
D18*
X207488134Y-64431317D03*
X162800000Y-97100000D03*
X147100000Y-103400000D03*
X208172174Y-66310703D03*
X143500000Y-53800000D03*
X134500000Y-87300000D03*
X133900000Y-88600000D03*
X152540000Y-90700000D03*
X156845000Y-91495000D03*
X143500000Y-73800000D03*
X150000000Y-64800000D03*
X152000000Y-72100000D03*
X150000000Y-84800000D03*
D19*
X204356817Y-61300000D02*
X207488134Y-64431317D01*
X192100000Y-61300000D02*
X204356817Y-61300000D01*
X188600000Y-64800000D02*
X192100000Y-61300000D01*
X159660000Y-57450000D02*
X167010000Y-64800000D01*
X167010000Y-64800000D02*
X188600000Y-64800000D01*
X154780000Y-105120000D02*
X162800000Y-97100000D01*
X147100000Y-105100000D02*
X147100000Y-103400000D01*
X147120000Y-105120000D02*
X154780000Y-105120000D01*
X147120000Y-105120000D02*
X147100000Y-105100000D01*
X130800000Y-105120000D02*
X147120000Y-105120000D01*
D20*
X98926373Y-73063203D02*
X100805758Y-73747243D01*
X101555757Y-72997244D02*
X115697244Y-72997244D01*
X100805758Y-73747243D02*
X101555757Y-72997244D01*
X115697244Y-72997244D02*
X118500000Y-75800000D01*
X138451001Y-63418999D02*
X139340000Y-62530000D01*
X126070000Y-75800000D02*
X138451001Y-63418999D01*
X118500000Y-75800000D02*
X126070000Y-75800000D01*
X102685144Y-74431283D02*
X104564529Y-75115323D01*
X105314528Y-74365324D02*
X116065324Y-74365324D01*
X104564529Y-75115323D02*
X105314528Y-74365324D01*
X116065324Y-74365324D02*
X118400000Y-76700000D01*
X127710000Y-76700000D02*
X139340000Y-65070000D01*
X118400000Y-76700000D02*
X127710000Y-76700000D01*
X108323299Y-76483404D02*
X110202685Y-77167444D01*
X106443914Y-75799364D02*
X108323299Y-76483404D01*
X110952684Y-76417445D02*
X116617445Y-76417445D01*
X110202685Y-77167444D02*
X110952684Y-76417445D01*
X116617445Y-76417445D02*
X117500000Y-77300000D01*
X129650000Y-77300000D02*
X139340000Y-67610000D01*
X117500000Y-77300000D02*
X129650000Y-77300000D01*
X112082070Y-77851485D02*
X115840840Y-79219565D01*
X115840840Y-79219565D02*
X117290405Y-77770000D01*
X117290405Y-77770000D02*
X139340000Y-77770000D01*
X117720226Y-79903605D02*
X121478996Y-81271686D01*
X138378314Y-81271686D02*
X139340000Y-80310000D01*
X121478996Y-81271686D02*
X138378314Y-81271686D01*
X174871045Y-53443111D02*
X191785512Y-47286748D01*
X91935859Y-34971327D02*
X92454066Y-35489534D01*
X73487478Y-34971327D02*
X91935859Y-34971327D01*
X95521893Y-35489534D02*
X92454066Y-35489534D01*
X107316412Y-47284053D02*
X95521893Y-35489534D01*
X124227919Y-53435814D02*
X124335814Y-53435814D01*
X135325814Y-53435814D02*
X139340000Y-57450000D01*
X124227919Y-53435814D02*
X135325814Y-53435814D01*
X140228999Y-58338999D02*
X150361001Y-58338999D01*
X139340000Y-57450000D02*
X140228999Y-58338999D01*
X150361001Y-58338999D02*
X157600000Y-51100000D01*
X172527935Y-51100000D02*
X174871045Y-53443110D01*
X157600000Y-51100000D02*
X172527935Y-51100000D01*
X62729373Y-45729432D02*
X73487478Y-34971327D01*
X50416648Y-45729432D02*
X62729373Y-45729432D01*
X236372549Y-45732127D02*
X248685277Y-45732127D01*
X225614446Y-34974024D02*
X236372549Y-45732127D01*
X118076158Y-47284053D02*
X107316412Y-47284053D01*
X124227919Y-53435814D02*
X118076158Y-47284053D01*
X194853340Y-47286748D02*
X206647859Y-35492229D01*
X191785511Y-47286748D02*
X194853340Y-47286748D01*
X208166063Y-33974025D02*
X206647859Y-35492229D01*
X225614446Y-34974024D02*
X224614447Y-33974025D01*
X224614447Y-33974025D02*
X208166063Y-33974025D01*
X123711441Y-89967605D02*
X89882507Y-77654879D01*
X173390529Y-89965637D02*
X207219464Y-77652912D01*
X173388561Y-89967605D02*
X173390529Y-89965637D01*
X123711441Y-89967605D02*
X173388561Y-89967605D01*
X139340000Y-59990000D02*
X136030000Y-63300000D01*
X136030000Y-63300000D02*
X97000000Y-63300000D01*
X89882507Y-70417493D02*
X89882507Y-77654879D01*
X97000000Y-63300000D02*
X89882507Y-70417493D01*
X207219464Y-77652912D02*
X264000000Y-55900000D01*
X264000000Y-41175508D02*
X265599743Y-39575765D01*
X264000000Y-55900000D02*
X264000000Y-41175508D01*
X265599743Y-29415331D02*
X259785402Y-23600990D01*
X265599743Y-39575765D02*
X265599743Y-29415331D01*
X180908530Y-79133819D02*
X177149760Y-80501899D01*
X164931899Y-80501899D02*
X177149760Y-80501899D01*
X159660000Y-75230000D02*
X164931899Y-80501899D01*
X218800105Y-17999249D02*
X219800104Y-18999248D01*
X202351722Y-17999249D02*
X218800105Y-17999249D01*
X200833516Y-19517455D02*
X202351722Y-17999249D01*
X131045221Y-46615221D02*
X131045221Y-38465639D01*
X131045221Y-38465639D02*
X130045222Y-37465640D01*
X139340000Y-54910000D02*
X131045221Y-46615221D01*
X151615038Y-54910000D02*
X169056702Y-37468336D01*
X139340000Y-54910000D02*
X151615038Y-54910000D01*
X68543716Y-29754658D02*
X79301821Y-18996553D01*
X56230991Y-29754658D02*
X68543716Y-29754658D01*
X230558209Y-29757353D02*
X219800104Y-18999248D01*
X242870934Y-29757353D02*
X230558209Y-29757353D01*
X189038997Y-31311974D02*
X200833516Y-19517455D01*
X185971169Y-31311974D02*
X189038997Y-31311974D01*
X175213064Y-31311974D02*
X185971169Y-31311974D01*
X169056702Y-37468336D02*
X175213064Y-31311974D01*
X97750202Y-18996553D02*
X98268409Y-19514760D01*
X79301821Y-18996553D02*
X97750202Y-18996553D01*
X101336237Y-19514760D02*
X98268409Y-19514760D01*
X113130754Y-31309277D02*
X101336237Y-19514760D01*
X123888859Y-31309277D02*
X113130754Y-31309277D01*
X130045222Y-37465640D02*
X123888859Y-31309277D01*
D19*
X209000000Y-65482877D02*
X208172174Y-66310703D01*
X209000000Y-62800000D02*
X209000000Y-65482877D01*
X206700000Y-60500000D02*
X209000000Y-62800000D01*
X206700000Y-60500000D02*
X191100000Y-60500000D01*
X191100000Y-60500000D02*
X188000000Y-63600000D01*
X161057000Y-54910000D02*
X159660000Y-54910000D01*
X169747000Y-63600000D02*
X161057000Y-54910000D01*
X188000000Y-63600000D02*
X169747000Y-63600000D01*
X143500000Y-51450000D02*
X139340000Y-47290000D01*
X143500000Y-53800000D02*
X143500000Y-51450000D01*
D20*
X136000000Y-88800000D02*
X134500000Y-87300000D01*
X159660000Y-80310000D02*
X151170000Y-88800000D01*
X151170000Y-88800000D02*
X136000000Y-88800000D01*
X134600000Y-89300000D02*
X133900000Y-88600000D01*
X159660000Y-82850000D02*
X158402765Y-82850000D01*
X151952765Y-89300000D02*
X134600000Y-89300000D01*
X158402765Y-82850000D02*
X151952765Y-89300000D01*
X186546686Y-77081698D02*
X182787916Y-78449778D01*
X159660000Y-70150000D02*
X169010000Y-79500000D01*
X180800000Y-76900000D02*
X174000000Y-79500000D01*
X182787916Y-78449778D02*
X180800000Y-76900000D01*
X174000000Y-79500000D02*
X169010000Y-79500000D01*
X188426072Y-76397657D02*
X192184842Y-75029577D01*
X159660000Y-67610000D02*
X170550000Y-78500000D01*
X185000000Y-74500000D02*
X174000000Y-78500000D01*
X188426072Y-76397657D02*
X185000000Y-74500000D01*
X170550000Y-78500000D02*
X174000000Y-78500000D01*
X194064227Y-74345536D02*
X197822998Y-72977456D01*
X159660000Y-65070000D02*
X172200000Y-77700000D01*
X174871489Y-77700000D02*
X189000000Y-72500000D01*
X172200000Y-77700000D02*
X174871489Y-77700000D01*
X194064227Y-74345536D02*
X189000000Y-72500000D01*
X199702383Y-72293416D02*
X203461154Y-70925335D01*
X199702383Y-72293416D02*
X190400000Y-69900000D01*
X173430000Y-76300000D02*
X190400000Y-69900000D01*
X159660000Y-62530000D02*
X173430000Y-76300000D01*
X152540000Y-90700000D02*
X156050000Y-90700000D01*
X156050000Y-90700000D02*
X156845000Y-91495000D01*
X140770000Y-73800000D02*
X139340000Y-75230000D01*
X143500000Y-73800000D02*
X140770000Y-73800000D01*
X144690000Y-64800000D02*
X139340000Y-70150000D01*
X150000000Y-64800000D02*
X144690000Y-64800000D01*
X139930000Y-72100000D02*
X139340000Y-72690000D01*
X152000000Y-72100000D02*
X139930000Y-72100000D01*
X157030000Y-77770000D02*
X159660000Y-77770000D01*
X150000000Y-84800000D02*
X157030000Y-77770000D01*
M02*
