G04 #@! TF.GenerationSoftware,KiCad,Pcbnew,5.1.5*
G04 #@! TF.CreationDate,2020-05-14T17:03:41-05:00*
G04 #@! TF.ProjectId,steno-v2,7374656e-6f2d-4763-922e-6b696361645f,rev?*
G04 #@! TF.SameCoordinates,Original*
G04 #@! TF.FileFunction,Legend,Top*
G04 #@! TF.FilePolarity,Positive*
%FSLAX46Y46*%
G04 Gerber Fmt 4.6, Leading zero omitted, Abs format (unit mm)*
G04 Created by KiCad (PCBNEW 5.1.5) date 2020-05-14 17:03:41*
%MOMM*%
%LPD*%
G04 APERTURE LIST*
%ADD10C,0.120000*%
%ADD11C,0.200000*%
%ADD12C,0.127000*%
%ADD13C,0.150000*%
%ADD14C,0.250000*%
G04 APERTURE END LIST*
D10*
X167500000Y-96170000D02*
X167500000Y-106450000D01*
X129470000Y-96170000D02*
X167500000Y-96170000D01*
X129470000Y-106450000D02*
X167500000Y-106450000D01*
X129470000Y-96170000D02*
X130800000Y-96170000D01*
X129470000Y-97500000D02*
X129470000Y-96170000D01*
X129470000Y-98770000D02*
X132130000Y-98770000D01*
X132130000Y-98770000D02*
X132130000Y-106450000D01*
X129470000Y-98770000D02*
X129470000Y-106450000D01*
X129470000Y-106450000D02*
X132130000Y-106450000D01*
D11*
X153610000Y-105990000D02*
G75*
G03X153610000Y-105990000I-100000J0D01*
G01*
D12*
X151500000Y-90375000D02*
X145800000Y-90375000D01*
X142630000Y-105325000D02*
X142630000Y-104380000D01*
X156770000Y-105325000D02*
X142630000Y-105325000D01*
X156770000Y-104380000D02*
X156770000Y-105325000D01*
D10*
X150705000Y-77000000D02*
X146095000Y-77000000D01*
X150705000Y-68600000D02*
X150705000Y-77000000D01*
X145295000Y-68600000D02*
X150705000Y-68600000D01*
X145295000Y-76200000D02*
X145295000Y-68600000D01*
X146095000Y-77000000D02*
X145295000Y-76200000D01*
X147258578Y-66090000D02*
X146741422Y-66090000D01*
X147258578Y-67510000D02*
X146741422Y-67510000D01*
X213794212Y-67547437D02*
X212995473Y-67838154D01*
X210999908Y-59870148D02*
X213794212Y-67547437D01*
X210201169Y-60160865D02*
X210999908Y-59870148D01*
X208889017Y-69332782D02*
X208093820Y-67147996D01*
X209687755Y-69042065D02*
X208889017Y-69332782D01*
X206889909Y-63840278D02*
X204644044Y-64657706D01*
X206094712Y-61655493D02*
X206889909Y-63840278D01*
X206893451Y-61364776D02*
X206094712Y-61655493D01*
D13*
X160930000Y-89200000D02*
X160930000Y-38400000D01*
X138070000Y-89200000D02*
X160930000Y-89200000D01*
X138070000Y-38400000D02*
X138070000Y-89200000D01*
X160930000Y-38400000D02*
X138070000Y-38400000D01*
D14*
X148738095Y-36836380D02*
X148738095Y-37645904D01*
X148785714Y-37741142D01*
X148833333Y-37788761D01*
X148928571Y-37836380D01*
X149119047Y-37836380D01*
X149214285Y-37788761D01*
X149261904Y-37741142D01*
X149309523Y-37645904D01*
X149309523Y-36836380D01*
X150309523Y-37836380D02*
X149738095Y-37836380D01*
X150023809Y-37836380D02*
X150023809Y-36836380D01*
X149928571Y-36979238D01*
X149833333Y-37074476D01*
X149738095Y-37122095D01*
M02*
