M48
; DRILL file {KiCad 5.1.5-52549c5~84~ubuntu19.04.1} date Wed 26 Feb 2020 12:13:11 PM CST
; FORMAT={-:-/ absolute / inch / decimal}
; #@! TF.CreationDate,2020-02-26T12:13:11-06:00
; #@! TF.GenerationSoftware,Kicad,Pcbnew,5.1.5-52549c5~84~ubuntu19.04.1
; #@! TF.FileFunction,Plated,1,2,PTH
FMAT,2
INCH
T1C0.0157
T2C0.0390
T3C0.0472
T4C0.1000
%
G90
G05
T1
X2.5412Y-4.3819
X3.053Y-4.3819
X3.7223Y-4.4606
X4.4704Y-4.4606
X7.1278Y-4.4606
X7.8562Y-4.3819
X8.5845Y-4.3819
X9.2932Y-4.3819
T2
X5.2711Y-3.6381
X5.2711Y-3.7381
X5.2711Y-3.8381
X5.2711Y-3.9381
X5.2711Y-4.0381
X5.2711Y-4.1381
X5.2711Y-4.2381
X5.2711Y-4.3381
X5.2711Y-4.4381
X5.2711Y-4.5381
X5.2711Y-4.6381
X5.2711Y-4.7381
X6.0711Y-3.2381
X6.0711Y-3.3381
X6.0711Y-3.4381
X6.0711Y-3.5381
X6.0711Y-3.6381
X6.0711Y-3.7381
X6.0711Y-3.8381
X6.0711Y-3.9381
X6.0711Y-4.0381
X6.0711Y-4.1381
X6.0711Y-4.2381
X6.0711Y-4.3381
X6.0711Y-4.4381
X6.0711Y-4.5381
X6.0711Y-4.6381
X6.0711Y-4.7381
T3
X7.1278Y-3.7756
X7.3247Y-3.8582
X6.3995Y-3.0866
X6.5963Y-3.1693
X3.4861Y-3.0866
X3.683Y-3.1693
X7.1278Y-3.0866
X7.3247Y-3.1693
X2.0294Y-3.7756
X2.2263Y-3.8582
X7.8562Y-3.0866
X8.053Y-3.1693
X4.2144Y-3.7756
X4.4113Y-3.8582
X4.2144Y-3.0866
X4.4113Y-3.1693
X4.7459Y-4.8464
X4.9428Y-4.9291
X4.9428Y-3.7756
X5.1396Y-3.8582
X6.931Y-4.8464
X7.1278Y-4.9291
X5.4743Y-4.8464
X5.6711Y-4.9291
X3.2893Y-4.8464
X3.4861Y-4.9291
X9.3129Y-3.7756
X9.5097Y-3.8582
X6.3995Y-3.7756
X6.5963Y-3.8582
X2.7578Y-3.0866
X2.9546Y-3.1693
X2.7578Y-3.7756
X2.9546Y-3.8582
X3.4861Y-3.7756
X3.683Y-3.8582
X5.6711Y-3.7756
X5.868Y-3.8582
X8.5845Y-3.0866
X8.7814Y-3.1693
X4.0176Y-4.8464
X4.2144Y-4.9291
X8.5845Y-3.7756
X8.7814Y-3.8582
X5.6711Y-3.0866
X5.868Y-3.1693
X2.0294Y-3.0866
X2.2263Y-3.1693
X6.2026Y-4.8464
X6.3995Y-4.9291
X7.8562Y-3.7756
X8.053Y-3.8582
X9.3129Y-3.0866
X9.5097Y-3.1693
X4.9428Y-3.0866
X5.1396Y-3.1693
T4
X5.3211Y-3.0881
X5.3211Y-4.8881
X6.0211Y-3.0881
X6.0211Y-4.8881
T0
M30
