M48
; DRILL file {KiCad 5.1.8} date Fri Feb 19 14:28:07 2021
; FORMAT={-:-/ absolute / inch / decimal}
; #@! TF.CreationDate,2021-02-19T14:28:07-06:00
; #@! TF.GenerationSoftware,Kicad,Pcbnew,5.1.8
; #@! TF.FileFunction,NonPlated,1,2,NPTH
FMAT,2
INCH
T1C0.0394
T2C0.0669
T3C0.1339
%
G90
G05
T1
X4.7997Y-2.7681
X6.2564Y-2.7681
X6.2564Y-4.5988
T2
X9.2757Y-2.653
X9.7022Y-2.5778
X3.3691Y-3.4121
X3.7956Y-3.4873
X8.5437Y-2.5822
X8.9702Y-2.507
X2.9587Y-4.719
X3.3852Y-4.7942
X6.45Y-2.9514
X6.8765Y-2.8762
X4.067Y-3.5352
X4.4935Y-3.6104
X10.0899Y-3.1891
X10.5164Y-3.1139
X9.392Y-3.3121
X9.8185Y-3.2369
X2.0895Y-2.5069
X2.516Y-2.5821
X2.6917Y-3.1727
X3.1182Y-3.2479
X6.5662Y-3.6105
X6.9927Y-3.5353
X4.1832Y-2.876
X4.6097Y-2.9512
X0.6595Y-2.4546
X1.086Y-2.5298
X6.2786Y-5.0404
X6.7051Y-4.9652
X3.6566Y-4.842
X4.0831Y-4.9172
X4.3545Y-4.9651
X4.781Y-5.0403
X8.6599Y-3.2413
X9.0864Y-3.1661
X3.4867Y-2.7452
X3.9132Y-2.8204
X1.3574Y-2.5777
X1.7839Y-2.6529
X7.9415Y-3.2481
X8.368Y-3.1729
X1.2412Y-3.2368
X1.6677Y-3.312
X7.1479Y-2.8283
X7.5744Y-2.7531
X7.6744Y-4.7943
X8.1009Y-4.7191
X2.8079Y-2.5136
X3.2344Y-2.5888
X0.5433Y-3.1137
X0.9698Y-3.1889
X6.9765Y-4.9174
X7.403Y-4.8422
X7.2583Y-3.4885
X7.6848Y-3.4133
X7.8239Y-2.5812
X8.2504Y-2.506
X1.9733Y-3.166
X2.3998Y-3.2412
X9.9736Y-2.53
X10.4001Y-2.4548
T3
X7.8877Y-4.7567
X3.0212Y-2.5512
X0.7566Y-3.1513
X7.1898Y-4.8798
X7.4715Y-3.4509
X8.0371Y-2.5436
X2.1865Y-3.2036
X10.1869Y-2.4924
X9.489Y-2.6154
X3.5823Y-3.4497
X8.7569Y-2.5446
X3.172Y-4.7566
X6.6632Y-2.9138
X4.2802Y-3.5728
X10.3031Y-3.1515
X9.6052Y-3.2745
X2.3028Y-2.5445
X2.9049Y-3.2103
X6.7794Y-3.5729
X4.3964Y-2.9136
X0.8728Y-2.4922
X6.4919Y-5.0028
X3.8699Y-4.8796
X4.5678Y-5.0027
X8.8731Y-3.2037
X3.6999Y-2.7828
X1.5707Y-2.6153
X8.1547Y-3.2105
X1.4545Y-3.2744
X7.3611Y-2.7907
T0
M30
