M48
; DRILL file {KiCad 5.1.8} date Fri Feb 19 14:28:07 2021
; FORMAT={-:-/ absolute / inch / decimal}
; #@! TF.CreationDate,2021-02-19T14:28:07-06:00
; #@! TF.GenerationSoftware,Kicad,Pcbnew,5.1.8
; #@! TF.FileFunction,Plated,1,2,PTH
FMAT,2
INCH
T1C0.0157
T2C0.0472
%
G90
G05
T1
X3.0329Y-4.4389
X3.8047Y-4.5682
X3.9209Y-3.9091
X4.4452Y-3.9557
X4.5026Y-4.6912
X4.6864Y-3.9665
X4.8739Y-3.7996
X4.9054Y-4.335
X4.9447Y-3.713
X5.0393Y-3.3389
X5.0629Y-2.8822
X5.0904Y-3.4334
X5.0904Y-4.0673
X5.1889Y-3.4334
X5.24Y-4.0673
X5.2558Y-4.1578
X5.2637Y-2.7523
X5.3188Y-3.4413
X5.3188Y-3.087
X5.3273Y-3.0296
X5.3462Y-2.9895
X5.3818Y-3.713
X5.3864Y-3.9846
X5.4054Y-3.8744
X5.4093Y-2.6263
X5.4566Y-3.8704
X5.5014Y-3.4744
X5.5274Y-2.5909
X5.5347Y-2.543
X5.5369Y-3.5137
X5.5683Y-3.1594
X5.5684Y-3.5531
X5.5944Y-3.7354
X5.5983Y-4.3822
X5.6007Y-3.5925
X5.6022Y-2.5437
X5.6062Y-4.0043
X5.6219Y-3.898
X5.6322Y-3.6318
X5.6574Y-2.9885
X5.6629Y-3.6712
X5.6692Y-3.7641
X5.6967Y-3.7996
X5.7013Y-2.7091
X5.7164Y-2.6067
X5.7407Y-2.7287
X5.7479Y-3.8074
X5.7604Y-2.7681
X5.7991Y-3.0004
X5.7999Y-2.7681
X5.8582Y-3.4413
X5.8588Y-3.2602
X5.8621Y-2.8311
X5.9093Y-2.7208
X5.9369Y-3.7523
X5.9369Y-4.0948
X5.9369Y-3.398
X5.9487Y-2.6303
X5.9566Y-2.8311
X5.9684Y-3.1026
X6.0393Y-2.8153
X6.2125Y-3.2641
X6.3243Y-4.7326
X6.3793Y-3.9665
X6.6746Y-3.8287
X6.8855Y-3.8341
X7.0222Y-4.6095
X7.5902Y-3.7498
X7.7201Y-4.4864
X8.0469Y-4.4283
T2
X4.3206Y-3.344
X4.5001Y-3.4596
X10.2628Y-2.9227
X10.471Y-2.97
X9.5649Y-3.0458
X9.7731Y-3.093
X2.3431Y-2.3157
X2.5226Y-2.4313
X2.9453Y-2.9816
X3.1248Y-3.0972
X6.7391Y-3.3442
X6.9473Y-3.3914
X4.4368Y-2.6849
X4.6163Y-2.8005
X0.9131Y-2.2635
X1.0926Y-2.3791
X6.4516Y-4.7741
X6.6598Y-4.8213
X3.9102Y-4.6509
X4.0897Y-4.7665
X4.6081Y-4.7739
X4.7876Y-4.8895
X8.8328Y-2.975
X9.041Y-3.0222
X3.7403Y-2.5541
X3.9198Y-2.6697
X1.611Y-2.3865
X1.7905Y-2.5021
X8.1144Y-2.9817
X8.3226Y-3.029
X1.4948Y-3.0456
X1.6743Y-3.1612
X7.3208Y-2.562
X7.529Y-2.6092
X7.8473Y-4.528
X8.0556Y-4.5752
X3.0615Y-2.3225
X3.241Y-2.4381
X0.7969Y-2.9226
X0.9764Y-3.0382
X7.1494Y-4.651
X7.3577Y-4.6983
X7.4312Y-3.2221
X7.6394Y-3.2694
X7.9968Y-2.3149
X8.205Y-2.3621
X2.2269Y-2.9748
X2.4064Y-3.0904
X10.1466Y-2.2636
X10.3548Y-2.3108
X9.4487Y-2.3867
X9.6569Y-2.4339
X3.6227Y-3.221
X3.8022Y-3.3366
X8.7166Y-2.3159
X8.9248Y-2.3631
X3.2123Y-4.5278
X3.3918Y-4.6434
X6.6229Y-2.685
X6.8311Y-2.7323
T0
M30
