G04 #@! TF.GenerationSoftware,KiCad,Pcbnew,5.1.6*
G04 #@! TF.CreationDate,2020-10-20T23:03:34-05:00*
G04 #@! TF.ProjectId,steno,7374656e-6f2e-46b6-9963-61645f706362,rev?*
G04 #@! TF.SameCoordinates,Original*
G04 #@! TF.FileFunction,Profile,NP*
%FSLAX46Y46*%
G04 Gerber Fmt 4.6, Leading zero omitted, Abs format (unit mm)*
G04 Created by KiCad (PCBNEW 5.1.6) date 2020-10-20 23:03:34*
%MOMM*%
%LPD*%
G01*
G04 APERTURE LIST*
G04 #@! TA.AperFunction,Profile*
%ADD10C,0.150000*%
G04 #@! TD*
G04 #@! TA.AperFunction,Profile*
%ADD11C,0.050000*%
G04 #@! TD*
G04 APERTURE END LIST*
D10*
X273533919Y-51238209D02*
X283634768Y-81602218D01*
D11*
X273533919Y-51238209D02*
X273040316Y-50447265D01*
X273040316Y-50447265D02*
X272298509Y-49711783D01*
X272298509Y-49711783D02*
X271324644Y-49030165D01*
X271324644Y-49030165D02*
X270134869Y-48400812D01*
X270134869Y-48400812D02*
X268745331Y-47822126D01*
X268745331Y-47822126D02*
X267172176Y-47292510D01*
X267172176Y-47292510D02*
X265431552Y-46810364D01*
X265431552Y-46810364D02*
X263539607Y-46374091D01*
X263539607Y-46374091D02*
X261512487Y-45982093D01*
X261512487Y-45982093D02*
X259366339Y-45632772D01*
X259366339Y-45632772D02*
X257117311Y-45324529D01*
X257117311Y-45324529D02*
X254781551Y-45055766D01*
X254781551Y-45055766D02*
X252375204Y-44824885D01*
X252375204Y-44824885D02*
X249914418Y-44630289D01*
X249914418Y-44630289D02*
X247415341Y-44470378D01*
X247415341Y-44470378D02*
X244894120Y-44343555D01*
X244894120Y-44343555D02*
X242366902Y-44248221D01*
X242366902Y-44248221D02*
X239849833Y-44182779D01*
X239849833Y-44182779D02*
X237359062Y-44145630D01*
X237359062Y-44145630D02*
X234910735Y-44135177D01*
X234910735Y-44135177D02*
X232521000Y-44149820D01*
X232521000Y-44149820D02*
X230206003Y-44187962D01*
X230206003Y-44187962D02*
X227981892Y-44248005D01*
X227981892Y-44248005D02*
X225864815Y-44328351D01*
X225864815Y-44328351D02*
X223870917Y-44427401D01*
X223870917Y-44427401D02*
X222016347Y-44543557D01*
X222016347Y-44543557D02*
X220317252Y-44675222D01*
X220317252Y-44675222D02*
X218789778Y-44820797D01*
X218789778Y-44820797D02*
X217450074Y-44978683D01*
X217450074Y-44978683D02*
X216314285Y-45147283D01*
X216314285Y-45147283D02*
X215398560Y-45324999D01*
X215398560Y-45324999D02*
X214719046Y-45510233D01*
D10*
X224789729Y-118568448D02*
X176397048Y-134666551D01*
D11*
X283634768Y-81602218D02*
X278613695Y-83328162D01*
X278613695Y-83328162D02*
X273856233Y-84966077D01*
X273856233Y-84966077D02*
X269356551Y-86521082D01*
X269356551Y-86521082D02*
X265108818Y-87998299D01*
X265108818Y-87998299D02*
X261107203Y-89402847D01*
X261107203Y-89402847D02*
X257345875Y-90739848D01*
X257345875Y-90739848D02*
X253819004Y-92014423D01*
X253819004Y-92014423D02*
X250520757Y-93231692D01*
X250520757Y-93231692D02*
X247445304Y-94396776D01*
X247445304Y-94396776D02*
X244586814Y-95514796D01*
X244586814Y-95514796D02*
X241939456Y-96590873D01*
X241939456Y-96590873D02*
X239497399Y-97630127D01*
X239497399Y-97630127D02*
X237254812Y-98637679D01*
X237254812Y-98637679D02*
X235205864Y-99618651D01*
X235205864Y-99618651D02*
X233344725Y-100578161D01*
X233344725Y-100578161D02*
X231665562Y-101521333D01*
X231665562Y-101521333D02*
X230162545Y-102453285D01*
X230162545Y-102453285D02*
X228829843Y-103379140D01*
X228829843Y-103379140D02*
X227661625Y-104304017D01*
X227661625Y-104304017D02*
X226652060Y-105233038D01*
X226652060Y-105233038D02*
X225795317Y-106171324D01*
X225795317Y-106171324D02*
X225085565Y-107123994D01*
X225085565Y-107123994D02*
X224516973Y-108096170D01*
X224516973Y-108096170D02*
X224083710Y-109092973D01*
X224083710Y-109092973D02*
X223779945Y-110119523D01*
X223779945Y-110119523D02*
X223599847Y-111180942D01*
X223599847Y-111180942D02*
X223537584Y-112282349D01*
X223537584Y-112282349D02*
X223587327Y-113428866D01*
X223587327Y-113428866D02*
X223743244Y-114625614D01*
X223743244Y-114625614D02*
X223999504Y-115877713D01*
X223999504Y-115877713D02*
X224350276Y-117190284D01*
X224350276Y-117190284D02*
X224789729Y-118568448D01*
X214719046Y-45510233D02*
X210971304Y-46669332D01*
X210971304Y-46669332D02*
X207449751Y-47804287D01*
X207449751Y-47804287D02*
X204144037Y-48914333D01*
X204144037Y-48914333D02*
X201043814Y-49998703D01*
X201043814Y-49998703D02*
X198138732Y-51056631D01*
X198138732Y-51056631D02*
X195418443Y-52087350D01*
X195418443Y-52087350D02*
X192872598Y-53090096D01*
X192872598Y-53090096D02*
X190490847Y-54064101D01*
X190490847Y-54064101D02*
X188262842Y-55008599D01*
X188262842Y-55008599D02*
X186178234Y-55922825D01*
X186178234Y-55922825D02*
X184226674Y-56806012D01*
X184226674Y-56806012D02*
X182397813Y-57657394D01*
X182397813Y-57657394D02*
X180681302Y-58476206D01*
X180681302Y-58476206D02*
X179066793Y-59261680D01*
X179066793Y-59261680D02*
X177543935Y-60013050D01*
X177543935Y-60013050D02*
X176102380Y-60729552D01*
X176102380Y-60729552D02*
X174731780Y-61410418D01*
X174731780Y-61410418D02*
X173421785Y-62054882D01*
X173421785Y-62054882D02*
X172162046Y-62662179D01*
X172162046Y-62662179D02*
X170942215Y-63231542D01*
X170942215Y-63231542D02*
X169751942Y-63762204D01*
X169751942Y-63762204D02*
X168580879Y-64253401D01*
X168580879Y-64253401D02*
X167418676Y-64704365D01*
X167418676Y-64704365D02*
X166254985Y-65114332D01*
X166254985Y-65114332D02*
X165079456Y-65482533D01*
X165079456Y-65482533D02*
X163881741Y-65808204D01*
X163881741Y-65808204D02*
X162651491Y-66090579D01*
X162651491Y-66090579D02*
X161378357Y-66328890D01*
X161378357Y-66328890D02*
X160051990Y-66522373D01*
X160051990Y-66522373D02*
X158662040Y-66670260D01*
X158662040Y-66670260D02*
X157198160Y-66771787D01*
X157198160Y-66771787D02*
X155650000Y-66826186D01*
D10*
X23616081Y-51238209D02*
X13515232Y-81602218D01*
D11*
X120752952Y-134666551D02*
X122423205Y-135241756D01*
X122423205Y-135241756D02*
X124105861Y-135779852D01*
X124105861Y-135779852D02*
X125800124Y-136280838D01*
X125800124Y-136280838D02*
X127505194Y-136744713D01*
X127505194Y-136744713D02*
X129220275Y-137171479D01*
X129220275Y-137171479D02*
X130944569Y-137561135D01*
X130944569Y-137561135D02*
X132677278Y-137913680D01*
X132677278Y-137913680D02*
X134417605Y-138229116D01*
X134417605Y-138229116D02*
X136164752Y-138507441D01*
X136164752Y-138507441D02*
X137917922Y-138748656D01*
X137917922Y-138748656D02*
X139676317Y-138952762D01*
X139676317Y-138952762D02*
X141439139Y-139119757D01*
X141439139Y-139119757D02*
X143205591Y-139249642D01*
X143205591Y-139249642D02*
X144974875Y-139342417D01*
X144974875Y-139342417D02*
X146746194Y-139398082D01*
X146746194Y-139398082D02*
X148518750Y-139416637D01*
X148518750Y-139416637D02*
X150291745Y-139398082D01*
X150291745Y-139398082D02*
X152064382Y-139342417D01*
X152064382Y-139342417D02*
X153835863Y-139249642D01*
X153835863Y-139249642D02*
X155605392Y-139119757D01*
X155605392Y-139119757D02*
X157372169Y-138952762D01*
X157372169Y-138952762D02*
X159135397Y-138748656D01*
X159135397Y-138748656D02*
X160894280Y-138507441D01*
X160894280Y-138507441D02*
X162648019Y-138229116D01*
X162648019Y-138229116D02*
X164395817Y-137913680D01*
X164395817Y-137913680D02*
X166136876Y-137561135D01*
X166136876Y-137561135D02*
X167870398Y-137171479D01*
X167870398Y-137171479D02*
X169595586Y-136744713D01*
X169595586Y-136744713D02*
X171311643Y-136280838D01*
X171311643Y-136280838D02*
X173017770Y-135779852D01*
X173017770Y-135779852D02*
X174713171Y-135241756D01*
X174713171Y-135241756D02*
X176397048Y-134666551D01*
X13515232Y-81602218D02*
X18536304Y-83328162D01*
X18536304Y-83328162D02*
X23293766Y-84966077D01*
X23293766Y-84966077D02*
X27793448Y-86521082D01*
X27793448Y-86521082D02*
X32041181Y-87998299D01*
X32041181Y-87998299D02*
X36042796Y-89402847D01*
X36042796Y-89402847D02*
X39804124Y-90739848D01*
X39804124Y-90739848D02*
X43330995Y-92014423D01*
X43330995Y-92014423D02*
X46629242Y-93231692D01*
X46629242Y-93231692D02*
X49704695Y-94396776D01*
X49704695Y-94396776D02*
X52563185Y-95514796D01*
X52563185Y-95514796D02*
X55210543Y-96590873D01*
X55210543Y-96590873D02*
X57652600Y-97630127D01*
X57652600Y-97630127D02*
X59895187Y-98637679D01*
X59895187Y-98637679D02*
X61944135Y-99618651D01*
X61944135Y-99618651D02*
X63805274Y-100578161D01*
X63805274Y-100578161D02*
X65484437Y-101521333D01*
X65484437Y-101521333D02*
X66987454Y-102453285D01*
X66987454Y-102453285D02*
X68320156Y-103379140D01*
X68320156Y-103379140D02*
X69488374Y-104304017D01*
X69488374Y-104304017D02*
X70497939Y-105233038D01*
X70497939Y-105233038D02*
X71354682Y-106171324D01*
X71354682Y-106171324D02*
X72064434Y-107123994D01*
X72064434Y-107123994D02*
X72633026Y-108096170D01*
X72633026Y-108096170D02*
X73066289Y-109092973D01*
X73066289Y-109092973D02*
X73370054Y-110119523D01*
X73370054Y-110119523D02*
X73550152Y-111180942D01*
X73550152Y-111180942D02*
X73612415Y-112282349D01*
X73612415Y-112282349D02*
X73562672Y-113428866D01*
X73562672Y-113428866D02*
X73406755Y-114625614D01*
X73406755Y-114625614D02*
X73150495Y-115877713D01*
X73150495Y-115877713D02*
X72799723Y-117190284D01*
X72799723Y-117190284D02*
X72360271Y-118568448D01*
X82430954Y-45510233D02*
X86165498Y-46669332D01*
X86165498Y-46669332D02*
X89675529Y-47804287D01*
X89675529Y-47804287D02*
X92971314Y-48914333D01*
X92971314Y-48914333D02*
X96063119Y-49998703D01*
X96063119Y-49998703D02*
X98961211Y-51056631D01*
X98961211Y-51056631D02*
X101675855Y-52087350D01*
X101675855Y-52087350D02*
X104217320Y-53090096D01*
X104217320Y-53090096D02*
X106595871Y-54064101D01*
X106595871Y-54064101D02*
X108821774Y-55008599D01*
X108821774Y-55008599D02*
X110905297Y-55922825D01*
X110905297Y-55922825D02*
X112856706Y-56806012D01*
X112856706Y-56806012D02*
X114686268Y-57657394D01*
X114686268Y-57657394D02*
X116404248Y-58476206D01*
X116404248Y-58476206D02*
X118020914Y-59261680D01*
X118020914Y-59261680D02*
X119546532Y-60013050D01*
X119546532Y-60013050D02*
X120991369Y-60729552D01*
X120991369Y-60729552D02*
X122365691Y-61410418D01*
X122365691Y-61410418D02*
X123679764Y-62054882D01*
X123679764Y-62054882D02*
X124943856Y-62662179D01*
X124943856Y-62662179D02*
X126168233Y-63231542D01*
X126168233Y-63231542D02*
X127363162Y-63762204D01*
X127363162Y-63762204D02*
X128538908Y-64253401D01*
X128538908Y-64253401D02*
X129705739Y-64704365D01*
X129705739Y-64704365D02*
X130873921Y-65114332D01*
X130873921Y-65114332D02*
X132053720Y-65482533D01*
X132053720Y-65482533D02*
X133255404Y-65808204D01*
X133255404Y-65808204D02*
X134489238Y-66090579D01*
X134489238Y-66090579D02*
X135765490Y-66328890D01*
X135765490Y-66328890D02*
X137094425Y-66522373D01*
X137094425Y-66522373D02*
X138486311Y-66670260D01*
X138486311Y-66670260D02*
X139951413Y-66771787D01*
X139951413Y-66771787D02*
X141500000Y-66826186D01*
X23616081Y-51238209D02*
X24109683Y-50447265D01*
X24109683Y-50447265D02*
X24851490Y-49711783D01*
X24851490Y-49711783D02*
X25825355Y-49030165D01*
X25825355Y-49030165D02*
X27015130Y-48400812D01*
X27015130Y-48400812D02*
X28404668Y-47822126D01*
X28404668Y-47822126D02*
X29977823Y-47292510D01*
X29977823Y-47292510D02*
X31718447Y-46810364D01*
X31718447Y-46810364D02*
X33610392Y-46374091D01*
X33610392Y-46374091D02*
X35637512Y-45982093D01*
X35637512Y-45982093D02*
X37783660Y-45632772D01*
X37783660Y-45632772D02*
X40032688Y-45324529D01*
X40032688Y-45324529D02*
X42368448Y-45055766D01*
X42368448Y-45055766D02*
X44774795Y-44824885D01*
X44774795Y-44824885D02*
X47235581Y-44630289D01*
X47235581Y-44630289D02*
X49734658Y-44470378D01*
X49734658Y-44470378D02*
X52255879Y-44343555D01*
X52255879Y-44343555D02*
X54783097Y-44248221D01*
X54783097Y-44248221D02*
X57300166Y-44182779D01*
X57300166Y-44182779D02*
X59790937Y-44145630D01*
X59790937Y-44145630D02*
X62239264Y-44135177D01*
X62239264Y-44135177D02*
X64628999Y-44149820D01*
X64628999Y-44149820D02*
X66943996Y-44187962D01*
X66943996Y-44187962D02*
X69168107Y-44248005D01*
X69168107Y-44248005D02*
X71285184Y-44328351D01*
X71285184Y-44328351D02*
X73279082Y-44427401D01*
X73279082Y-44427401D02*
X75133652Y-44543557D01*
X75133652Y-44543557D02*
X76832747Y-44675222D01*
X76832747Y-44675222D02*
X78360221Y-44820797D01*
X78360221Y-44820797D02*
X79699925Y-44978683D01*
X79699925Y-44978683D02*
X80835714Y-45147283D01*
X80835714Y-45147283D02*
X81751439Y-45324999D01*
X81751439Y-45324999D02*
X82430954Y-45510233D01*
X155650000Y-66826186D02*
X141500000Y-66826186D01*
D10*
X72360271Y-118568448D02*
X120752952Y-134666551D01*
M02*
